<svg width="32" height="22" viewBox="0 0 32 22" fill="none" xmlns="http://www.w3.org/2000/svg">
<path fill-rule="evenodd" clip-rule="evenodd" d="M3.55556 0H28.4444C30.4081 0 32 1.64162 32 3.66667V18.3333C32 20.3584 30.4081 22 28.4444 22H3.55556C1.59188 22 0 20.3584 0 18.3333V3.66667C0 1.64162 1.59188 0 3.55556 0Z" fill="#EE0000"/>
<path d="M32 4.58325H0V9.16658H32V4.58325Z" fill="white"/>
<path d="M32 12.8333H0V17.4166H32V12.8333Z" fill="white"/>
<path fill-rule="evenodd" clip-rule="evenodd" d="M0 18.3355V3.66448C0.000612742 2.58241 0.455745 1.60997 1.17918 0.939209L14.6924 11L1.17918 21.0608C0.455745 20.39 0.000612742 19.4176 0 18.3355Z" fill="#0050F0"/>
<path fill-rule="evenodd" clip-rule="evenodd" d="M5.47065 12.4722L3.73774 13.75L4.38072 11.6555L2.66675 10.3508L4.79703 10.3342L5.47065 8.25L6.14426 10.3342L8.27455 10.3508L6.56057 11.6555L7.20355 13.75L5.47065 12.4722Z" fill="white"/>
<path opacity="0.2" d="M3.55556 0.916667C2.0828 0.916667 0.888889 2.14788 0.888889 3.66667V18.3333C0.888889 19.8521 2.0828 21.0833 3.55556 21.0833H28.4444C29.9172 21.0833 31.1111 19.8521 31.1111 18.3333V3.66667C31.1111 2.14788 29.9172 0.916667 28.4444 0.916667H3.55556ZM3.55556 0H28.4444C30.4081 0 32 1.64162 32 3.66667V18.3333C32 20.3584 30.4081 22 28.4444 22H3.55556C1.59188 22 0 20.3584 0 18.3333V3.66667C0 1.64162 1.59188 0 3.55556 0Z" fill="#031619"/>
</svg>
