<svg width="32" height="22" viewBox="0 0 32 22" fill="none" xmlns="http://www.w3.org/2000/svg">
<path fill-rule="evenodd" clip-rule="evenodd" d="M3.55556 0H28.4444C30.4081 0 32 1.64162 32 3.66667V18.3333C32 20.3584 30.4081 22 28.4444 22H3.55556C1.59188 22 0 20.3584 0 18.3333V3.66667C0 1.64162 1.59188 0 3.55556 0Z" fill="#0F7562"/>
<g clip-path="url(#clip0_2174_22478)">
<path d="M20.4956 16.166H11.8477C12.0369 16.3474 12.2372 16.5167 12.4476 16.673H19.9037C20.1113 16.5164 20.309 16.3471 20.4956 16.166V16.166Z" fill="white"/>
<path d="M10.4629 14.1523C10.5369 14.3257 10.6182 14.4947 10.7069 14.6594H21.6368C21.7255 14.494 21.8069 14.325 21.8809 14.1523H10.4629Z" fill="white"/>
<path d="M13.2051 17.1758C14.1152 17.6699 15.1345 17.9288 16.1702 17.9288C17.2058 17.9288 18.225 17.6699 19.1351 17.1758H13.2051Z" fill="white"/>
<path d="M11.0059 15.1602C11.1222 15.3351 11.2473 15.504 11.3809 15.6661H20.9598C21.0928 15.5041 21.2169 15.3352 21.3339 15.1602H11.0059Z" fill="white"/>
<path d="M16.2248 5.684C16.6898 5.684 17.0668 5.30702 17.0668 4.842C17.0668 4.37698 16.6898 4 16.2248 4C15.7598 4 15.3828 4.37698 15.3828 4.842C15.3828 5.30702 15.7598 5.684 16.2248 5.684Z" fill="#FAE139"/>
<path d="M19.4293 6.63984C19.7883 6.63984 20.0793 6.34883 20.0793 5.98984C20.0793 5.63086 19.7883 5.33984 19.4293 5.33984C19.0703 5.33984 18.7793 5.63086 18.7793 5.98984C18.7793 6.34883 19.0703 6.63984 19.4293 6.63984Z" fill="#FAE139"/>
<path d="M13.0191 6.63984C13.3781 6.63984 13.6691 6.34883 13.6691 5.98984C13.6691 5.63086 13.3781 5.33984 13.0191 5.33984C12.6602 5.33984 12.3691 5.63086 12.3691 5.98984C12.3691 6.34883 12.6602 6.63984 13.0191 6.63984Z" fill="#FAE139"/>
<path d="M11.1129 8.81758C11.4719 8.81758 11.7629 8.52656 11.7629 8.16758C11.7629 7.80859 11.4719 7.51758 11.1129 7.51758C10.7539 7.51758 10.4629 7.80859 10.4629 8.16758C10.4629 8.52656 10.7539 8.81758 11.1129 8.81758Z" fill="#FAE139"/>
<path d="M21.3375 8.81758C21.6965 8.81758 21.9875 8.52656 21.9875 8.16758C21.9875 7.80859 21.6965 7.51758 21.3375 7.51758C20.9785 7.51758 20.6875 7.80859 20.6875 8.16758C20.6875 8.52656 20.9785 8.81758 21.3375 8.81758Z" fill="#FAE139"/>
<path d="M17.7557 10.5978C17.8617 10.2611 17.9312 9.91116 17.961 9.55383C17.9187 8.92717 17.7494 8.31566 17.4635 7.75645C17.1775 7.19724 16.781 6.70197 16.2977 6.30078C15.7937 6.68307 15.3824 7.17412 15.0944 7.73732C14.8064 8.30053 14.6491 8.92143 14.6342 9.55383C14.662 9.90747 14.7292 10.256 14.834 10.5931C14.5612 10.3624 14.2625 10.1625 13.9433 9.99795C13.3547 9.76675 12.7216 9.67121 12.0909 9.71848C11.4603 9.76575 10.8484 9.95462 10.3008 10.271C10.4835 10.8718 10.7863 11.4292 11.191 11.9094C11.5958 12.3896 12.0938 12.7826 12.655 13.0644C13.8543 13.4547 15.1587 13.3587 16.2877 12.7974C16.291 12.8002 16.2944 12.803 16.2977 12.8059C16.301 12.8031 16.3043 12.8002 16.3075 12.7974C17.4369 13.3588 18.7416 13.4548 19.9412 13.0645C20.5023 12.7827 21.0003 12.3898 21.4048 11.9095C21.8094 11.4293 22.1121 10.8719 22.2945 10.2711C21.7469 9.95464 21.135 9.76575 20.5043 9.71848C19.8737 9.67121 19.2404 9.76677 18.6518 9.99804C18.3306 10.1637 18.03 10.3651 17.7557 10.5978Z" fill="white"/>
</g>
<path opacity="0.2" d="M3.55556 0.916667C2.0828 0.916667 0.888889 2.14788 0.888889 3.66667V18.3333C0.888889 19.8521 2.0828 21.0833 3.55556 21.0833H28.4444C29.9172 21.0833 31.1111 19.8521 31.1111 18.3333V3.66667C31.1111 2.14788 29.9172 0.916667 28.4444 0.916667H3.55556ZM3.55556 0H28.4444C30.4081 0 32 1.64162 32 3.66667V18.3333C32 20.3584 30.4081 22 28.4444 22H3.55556C1.59188 22 0 20.3584 0 18.3333V3.66667C0 1.64162 1.59188 0 3.55556 0Z" fill="#031619"/>
<defs>
<clipPath id="clip0_2174_22478">
<rect width="12.344" height="13.925" fill="white" transform="translate(10 4)"/>
</clipPath>
</defs>
</svg>
