<?xml version="1.0" encoding="UTF-8"?>
<svg width="36px" height="24px" viewBox="0 0 36 24" version="1.1" xmlns="http://www.w3.org/2000/svg" xmlns:xlink="http://www.w3.org/1999/xlink">
    <!-- Generator: Sketch 55.2 (78181) - https://sketchapp.com -->
    <title>Flag / XK</title>
    <desc>Created with Sketch.</desc>
    <g id="Flag-/-XK" stroke="none" stroke-width="1" fill="none" fill-rule="evenodd">
        <path d="M4,0 L32,0 C34.209139,0 36,1.790861 36,4 L36,20 C36,22.209139 34.209139,24 32,24 L4,24 C1.790861,24 0,22.209139 0,20 L0,4 C0,1.790861 1.790861,0 4,0 Z" id="Mask" fill="#244AA5"></path>
        <g id="Group" transform="translate(9.000000, 3.000000)" fill-rule="nonzero">
            <path d="M5.96756136,7.95076 C5.96756136,7.95076 6.02988136,7.90876 6.05268136,7.90316 C6.07548136,7.89756 6.15604136,7.87236 6.15604136,7.87236 C6.15604136,7.87236 6.20772136,7.84576 6.23508136,7.84576 C6.26396136,7.84576 6.32020136,7.87656 6.33844136,7.90316 C6.35516136,7.92976 6.44636136,7.97596 6.44636136,7.97596 C6.44636136,7.97596 6.50868136,7.99696 6.52084136,7.97596 C6.53300136,7.95496 6.56036136,7.93956 6.58924136,7.93956 C6.61812136,7.93956 6.62268136,7.91296 6.62268136,7.89196 C6.62268136,7.87096 6.63484136,7.84436 6.65612136,7.81916 C6.67892136,7.79256 6.72452136,7.77716 6.72452136,7.77716 C6.72452136,7.77716 6.78684136,7.75056 6.79292136,7.71416 C6.79900136,7.67776 6.86132136,7.65116 6.89628136,7.64556 C6.92972136,7.63996 6.89628136,7.62456 6.98748136,7.63436 C7.07868136,7.64556 7.09084136,7.61336 7.09540136,7.58676 C7.10148136,7.56016 7.09540136,7.53356 7.15316136,7.53916 C7.21092136,7.54476 7.23828136,7.54476 7.23828136,7.51256 C7.23828136,7.48176 7.28996136,7.46496 7.19876136,7.43976 C7.10756136,7.41316 7.11364136,7.43416 7.10756136,7.39216 C7.10148136,7.35016 7.10756136,7.35576 7.04524136,7.35016 C6.98292136,7.34456 7.01636136,7.31376 7.01180136,7.28156 C7.00572136,7.25076 6.98900136,7.23396 6.97836136,7.21296 C6.96620136,7.19196 6.93276136,7.19196 6.93276136,7.16116 C6.93276136,7.13036 6.92668136,7.11356 6.89324136,7.11356 C6.85980136,7.11356 6.84764136,7.11356 6.84764136,7.08276 C6.84764136,7.05196 6.85372136,7.02536 6.88716136,7.02536 C6.92060136,7.02536 6.93884136,6.99876 6.93276136,6.96796 C6.92668136,6.93716 6.92668136,6.86856 6.92668136,6.86856 L6.97228136,6.81536 C6.97228136,6.81536 7.10908136,6.70476 7.12124136,6.68376 C7.13340136,6.66276 7.17900136,6.64736 7.20028136,6.68936 C7.22308136,6.73136 7.23372136,6.74256 7.25196136,6.76216 C7.26868136,6.78316 7.32036136,6.76776 7.33100136,6.74676 C7.34316136,6.72576 7.34772136,6.64876 7.37812136,6.60676 C7.40852136,6.56616 7.42980136,6.54516 7.43740136,6.51156 C7.44500136,6.47796 7.46020136,6.44996 7.49668136,6.44996 C7.53316136,6.44996 7.55596136,6.40236 7.55596136,6.37436 C7.55596136,6.34636 7.57116136,6.31976 7.61524136,6.31276 C7.65932136,6.30576 7.68212136,6.27916 7.69732136,6.31976 C7.71252136,6.36036 7.72772136,6.36036 7.75660136,6.37436 C7.78700136,6.38836 7.83108136,6.40796 7.85236136,6.38836 C7.87516136,6.36736 7.88580136,6.33376 7.91924136,6.35476 C7.95116136,6.37576 7.97396136,6.35476 7.98156136,6.31416 C7.98916136,6.27356 7.99676136,6.21896 7.99676136,6.21896 C7.99676136,6.21896 8.00436136,6.19096 8.05604136,6.19096 C8.10772136,6.19096 8.07124136,6.15736 8.10012136,6.13636 C8.13052136,6.11536 8.13052136,6.09576 8.16700136,6.10836 C8.20348136,6.12236 8.26276136,6.09156 8.23388136,6.05796 C8.20348136,6.02436 8.13812136,5.96976 8.17460136,5.92776 C8.21108136,5.88716 8.22628136,5.81856 8.18980136,5.81156 C8.15332136,5.80456 8.10012136,5.81856 8.09404136,5.77796 C8.08644136,5.73736 8.07124136,5.70936 8.11684136,5.70236 C8.16092136,5.69536 8.23540136,5.69536 8.25820136,5.67436 C8.28100136,5.65336 8.35396136,5.64076 8.35396136,5.57916 C8.35396136,5.51756 8.37676136,5.51056 8.38436136,5.47696 C8.39196136,5.44336 8.39196136,5.37196 8.36156136,5.33836 C8.33116136,5.30476 8.28708136,5.25576 8.27948136,5.23616 C8.27188136,5.21516 8.24300136,5.18156 8.19740136,5.16756 C8.15332136,5.15356 8.11532136,5.14656 8.11532136,5.11296 C8.11532136,5.07936 8.14572136,5.11996 8.14572136,5.03036 C8.14572136,4.94216 8.08644136,4.92816 8.08644136,4.92816 L7.99676136,4.87356 C7.99676136,4.87356 7.83868136,4.83156 7.79612136,4.83156 C7.75356136,4.83156 7.70492136,4.78676 7.75356136,4.75876 C7.80220136,4.73076 7.81436136,4.68036 7.79612136,4.64116 C7.77788136,4.60196 7.76572136,4.57396 7.69884136,4.55716 C7.63196136,4.54036 7.61372136,4.52356 7.64412136,4.48436 C7.67452136,4.44516 7.68060136,4.41716 7.71708136,4.44516 C7.75356136,4.47316 7.81436136,4.48436 7.86300136,4.46196 C7.91164136,4.43956 7.92988136,4.42276 7.95420136,4.44516 C7.97852136,4.46756 8.00892136,4.48996 8.04540136,4.45636 C8.08188136,4.42276 8.14876136,4.41716 8.17916136,4.43396 C8.20956136,4.45076 8.28252136,4.44516 8.30684136,4.43396 C8.33116136,4.42276 8.37980136,4.38356 8.37980136,4.36116 C8.37980136,4.33876 8.41020136,4.29956 8.44060136,4.28276 C8.47100136,4.26596 8.50748136,4.20996 8.53788136,4.20996 C8.56828136,4.20996 8.58044136,4.17636 8.58044136,4.15396 C8.58044136,4.13156 8.60476136,4.08676 8.61084136,4.06996 C8.61692136,4.05316 8.67772136,4.02936 8.72028136,4.06436 C8.76284136,4.09796 8.81756136,4.10916 8.81756136,4.10916 C8.81756136,4.10916 8.87836136,4.12036 8.90876136,4.10916 C8.93916136,4.09796 8.98172136,4.08676 9.02428136,4.11476 C9.06684136,4.14276 9.12764136,4.14276 9.12764136,4.14276 C9.12764136,4.14276 9.13980136,4.09796 9.13980136,4.07556 C9.13980136,4.05316 9.15196136,4.01396 9.12764136,3.99716 C9.10332136,3.98036 9.07292136,3.95796 9.12156136,3.92436 C9.17020136,3.89076 9.17020136,3.89636 9.21884136,3.89636 C9.26748136,3.89636 9.29788136,3.90196 9.33436136,3.90196 C9.37084136,3.90196 9.43164136,3.93556 9.43164136,3.96916 C9.43164136,4.00276 9.45596136,4.02516 9.48636136,4.04196 C9.51676136,4.05876 9.55324136,4.07556 9.54108136,4.10356 C9.52892136,4.13156 9.52892136,4.15396 9.56540136,4.14836 C9.60188136,4.14276 9.61404136,4.16516 9.61404136,4.19316 C9.61404136,4.22116 9.62620136,4.23796 9.66268136,4.24916 C9.69916136,4.26036 9.71740136,4.28276 9.71740136,4.31076 C9.71740136,4.33876 9.71132136,4.35556 9.72348136,4.38356 C9.73564136,4.41156 9.77212136,4.45636 9.77212136,4.45636 C9.77212136,4.45636 9.83900136,4.53476 9.75388136,4.49556 C9.66876136,4.45636 9.65052136,4.43956 9.62012136,4.44516 C9.58972136,4.45076 9.57148136,4.46756 9.57148136,4.46756 C9.57148136,4.46756 9.52892136,4.47876 9.49852136,4.47876 C9.46812136,4.47876 9.43772136,4.54036 9.48636136,4.55156 C9.53500136,4.56276 9.55324136,4.57396 9.55324136,4.61316 C9.55324136,4.65236 9.53500136,4.64116 9.51068136,4.66916 C9.48636136,4.69716 9.46812136,4.68036 9.42556136,4.68036 C9.38300136,4.68036 9.37084136,4.71396 9.37084136,4.74756 C9.37084136,4.78116 9.38908136,4.77556 9.40732136,4.80356 C9.42556136,4.83156 9.45596136,4.83716 9.48636136,4.80916 C9.51676136,4.78116 9.54108136,4.76436 9.55932136,4.81476 C9.57756136,4.86516 9.60188136,4.86516 9.63836136,4.86516 C9.67484136,4.86516 9.68700136,4.86516 9.71740136,4.84836 C9.74780136,4.83156 9.78428136,4.84836 9.79036136,4.89316 C9.79644136,4.93796 9.82684136,4.94356 9.85724136,4.96036 C9.88764136,4.97716 9.90588136,4.98836 9.91196136,5.01636 C9.91804136,5.04436 9.93628136,5.05556 9.96668136,5.03876 C9.99708136,5.02196 10.0457214,5.01076 10.0639614,5.03316 C10.0822014,5.05556 10.1126014,5.10036 10.1126014,5.10036 L10.1186814,5.15636 L10.2342014,5.19556 C10.2342014,5.19556 10.2463614,5.22356 10.2463614,5.24596 C10.2463614,5.26836 10.2646014,5.27956 10.2950014,5.27396 C10.3254014,5.26836 10.3801214,5.27396 10.3801214,5.27396 C10.3801214,5.27396 10.4226814,5.25716 10.4226814,5.22356 C10.4226814,5.18996 10.4409214,5.17876 10.4713214,5.17876 C10.5017214,5.17876 10.5686014,5.20116 10.5868414,5.16756 C10.6050814,5.13396 10.6598014,5.12276 10.7023614,5.13956 C10.7449214,5.15636 10.8543614,5.20116 10.8543614,5.20116 C10.8543614,5.20116 10.8422014,5.20676 10.8786814,5.26276 C10.9151614,5.31876 10.9820414,5.31876 10.9820414,5.31876 C10.9820414,5.31876 10.9881214,5.36916 11.0002814,5.39156 C11.0124414,5.41396 11.0671614,5.42516 11.0975614,5.40276 C11.1279614,5.38036 11.1705214,5.35236 11.2070014,5.35236 C11.2434814,5.35236 11.2678014,5.35236 11.2678014,5.32996 C11.2678014,5.30756 11.2313214,5.29076 11.2313214,5.25716 C11.2313214,5.22356 11.2678014,5.22356 11.2738814,5.18996 C11.2799614,5.15636 11.3164414,5.18996 11.3407614,5.20676 C11.3650814,5.22356 11.3954814,5.25156 11.3954814,5.27396 C11.3954814,5.29636 11.4441214,5.37476 11.4745214,5.38596 C11.5049214,5.39716 11.5839614,5.40276 11.6082814,5.37476 C11.6326014,5.34676 11.6934014,5.33556 11.6873214,5.40276 C11.6812414,5.46996 11.6690814,5.47556 11.7116414,5.49796 C11.7542014,5.52036 11.7602814,5.59876 11.7238014,5.62116 C11.6873214,5.64356 11.6751614,5.64916 11.6751614,5.68836 C11.6751614,5.72756 11.6630014,5.77236 11.6934014,5.79476 C11.7238014,5.81716 11.7420414,5.83396 11.7420414,5.85636 C11.7420414,5.87876 11.7785214,5.97956 11.7785214,5.97956 C11.7785214,5.97956 11.7967614,6.08036 11.7906814,6.10276 C11.7846014,6.12516 11.7724414,6.16436 11.8271614,6.15876 C11.8818814,6.15316 11.8940414,6.15316 11.8940414,6.19796 C11.8940414,6.24276 11.9122814,6.25956 11.8818814,6.27636 C11.8514814,6.29316 11.8332414,6.34916 11.8636414,6.36036 C11.8940414,6.37156 11.9183614,6.38836 11.9244414,6.41076 C11.9305214,6.43316 11.9791614,6.47236 12.0095614,6.44996 C12.0399614,6.42756 12.0460414,6.41636 12.0703614,6.41076 C12.0946814,6.40516 12.1129214,6.38836 12.0886014,6.36036 C12.0642814,6.33236 12.0582014,6.30436 12.0825214,6.28756 C12.1068414,6.27076 12.1190014,6.21476 12.1190014,6.21476 C12.1190014,6.21476 12.1554814,6.16436 12.1980414,6.21476 C12.2406014,6.26516 12.2466814,6.24836 12.2770814,6.24836 C12.3074814,6.24836 12.3196414,6.27636 12.3196414,6.30436 C12.3196414,6.33236 12.3804414,6.32676 12.3804414,6.37156 C12.3804414,6.41636 12.3926014,6.52276 12.3926014,6.52276 C12.3926014,6.52276 12.3926014,6.58436 12.4290814,6.60676 C12.4655614,6.62916 12.4594814,6.63476 12.4412414,6.66276 C12.4230014,6.69076 12.4290814,6.73556 12.4290814,6.75796 C12.4290814,6.78036 12.4412414,6.79156 12.4108414,6.81396 C12.3804414,6.83636 12.3682814,6.86436 12.3865214,6.89796 C12.4047614,6.93156 12.3986814,6.95396 12.4473214,6.99316 C12.4959614,7.03236 12.4898814,7.04916 12.4898814,7.07716 C12.4898814,7.10516 12.5385214,7.14436 12.5385214,7.17236 C12.5385214,7.20036 12.5750014,7.23396 12.6054014,7.23956 C12.6358014,7.24516 12.6722814,7.29556 12.6722814,7.32356 C12.6722814,7.35156 12.6783614,7.42436 12.6783614,7.42436 C12.6783614,7.42436 12.6722814,7.44116 12.7087614,7.44116 C12.7452414,7.44116 12.7695614,7.48036 12.7817214,7.43556 C12.7938814,7.39076 12.8303614,7.38516 12.8546814,7.37396 C12.8790014,7.36276 12.9276414,7.34036 12.9519614,7.35716 C12.9762814,7.37396 13.0066814,7.37396 13.0310014,7.37396 C13.0553214,7.37396 13.1708414,7.37956 13.1708414,7.37956 C13.1708414,7.37956 13.2012414,7.37396 13.2194814,7.41876 C13.2377214,7.46356 13.2924414,7.51396 13.2620414,7.53636 C13.2316414,7.55876 13.2316414,7.60356 13.2681214,7.60356 C13.3046014,7.60356 13.3410814,7.60356 13.3410814,7.63156 C13.3410814,7.65956 13.3471614,7.68196 13.3775614,7.66516 C13.4079614,7.64836 13.4262014,7.64276 13.4383614,7.66516 C13.4505214,7.68756 13.4748414,7.68756 13.5052414,7.70436 C13.5356414,7.72116 13.5478014,7.70996 13.5660414,7.68756 C13.5842814,7.66516 13.6572414,7.64276 13.6572414,7.64276 C13.6572414,7.64276 13.7545214,7.62036 13.7910014,7.63156 C13.8274814,7.64276 13.8761214,7.66516 13.8761214,7.66516 C13.8761214,7.66516 13.9004414,7.72116 13.8882814,7.75476 C13.8761214,7.78836 13.8639614,7.78276 13.8761214,7.83316 C13.8882814,7.88356 13.8639614,7.88916 13.8396414,7.88356 C13.8153214,7.87796 13.7910014,7.87796 13.7910014,7.92276 C13.7910014,7.96756 13.7666814,7.97876 13.7666814,8.01796 C13.7666814,8.05716 13.7666814,8.05156 13.7423614,8.06836 C13.7180414,8.08516 13.7119614,8.11316 13.7484414,8.11876 C13.7849214,8.12436 13.7727614,8.16356 13.7727614,8.18596 C13.7727614,8.20836 13.7666814,8.25876 13.7666814,8.25876 C13.7666814,8.25876 13.7727614,8.28676 13.7302014,8.28676 C13.6876414,8.28676 13.6511614,8.28116 13.6450814,8.30916 C13.6390014,8.33716 13.5903614,8.38196 13.6329214,8.40996 C13.6754814,8.43796 13.6633214,8.45476 13.6390014,8.46596 C13.6146814,8.47716 13.5964414,8.53316 13.6450814,8.54996 C13.6937214,8.56676 13.6876414,8.58356 13.6572414,8.60596 C13.6268414,8.62836 13.5660414,8.64516 13.5660414,8.67876 C13.5660414,8.71236 13.5538814,8.71236 13.5174014,8.71796 C13.4809214,8.72356 13.4626814,8.76836 13.5052414,8.82436 C13.5478014,8.88036 13.5599614,8.86916 13.5903614,8.86916 C13.6207614,8.86916 13.6207614,8.82436 13.6207614,8.82436 C13.6207614,8.82436 13.7241214,8.82996 13.7545214,8.82996 C13.7849214,8.82996 13.8274814,8.82996 13.8518014,8.81316 C13.8761214,8.79636 13.9430014,8.76836 13.9430014,8.81876 C13.9430014,8.86916 13.9551614,8.86356 13.9855614,8.88596 C14.0159614,8.90836 14.0220414,8.89156 14.0463614,8.92516 C14.0706814,8.95876 14.0767614,8.93076 14.0950014,8.89156 C14.1132414,8.85236 14.1497214,8.81316 14.1801214,8.85796 C14.2105214,8.90276 14.2105214,8.89156 14.2470014,8.89156 C14.2834814,8.89156 14.2956414,8.90836 14.2956414,8.93636 C14.2956414,8.96436 14.3321214,8.96436 14.3746814,8.95876 C14.4172414,8.95316 14.4233214,8.98116 14.4415614,9.00916 C14.4598014,9.03716 14.4658814,9.03156 14.4902014,9.03156 C14.5145214,9.03156 14.5388414,9.03156 14.5570814,9.00916 C14.5753214,8.98676 14.5996414,8.95876 14.6239614,8.99236 C14.6482814,9.02596 14.6969214,9.02036 14.7090814,8.98116 C14.7212414,8.94196 14.7759614,8.90836 14.8063614,8.95316 C14.8367614,8.99796 14.8610814,8.99796 14.8914814,9.00356 C14.9218814,9.00916 14.9644414,9.00916 14.9826814,9.03716 C15.0009214,9.06516 15.0617214,9.10996 15.0191614,9.14356 C14.9766014,9.17716 14.9279614,9.22196 14.9644414,9.23316 C15.0009214,9.24436 15.0252414,9.25556 15.0495614,9.28356 C15.0738814,9.31156 15.1529214,9.32276 15.1894014,9.32836 C15.2258814,9.33396 15.2562814,9.33956 15.2988414,9.30596 C15.3414014,9.27236 15.3839614,9.27236 15.3778814,9.31716 C15.3718014,9.36196 15.3961214,9.41236 15.3961214,9.41236 C15.3961214,9.41236 15.4265214,9.48516 15.4265214,9.51316 C15.4265214,9.54116 15.4204414,9.54676 15.4751614,9.58036 C15.5298814,9.61396 15.5238014,9.63636 15.5663614,9.60276 C15.6089214,9.56916 15.6210814,9.55236 15.6210814,9.52436 C15.6210814,9.49636 15.6210814,9.43476 15.6210814,9.43476 C15.6210814,9.43476 15.6818814,9.42356 15.7062014,9.40676 C15.7305214,9.38996 15.8278014,9.33956 15.8521214,9.36196 C15.8764414,9.38436 15.9068414,9.37876 15.9311614,9.36756 C15.9554814,9.35636 16.0041214,9.35636 16.0284414,9.35636 C16.0527614,9.35636 16.0953214,9.36196 16.1439614,9.32276 C16.1926014,9.28356 16.1926014,9.29476 16.2230014,9.32276 C16.2534014,9.35076 16.2534014,9.38436 16.2351614,9.40676 C16.2169214,9.42916 16.2351614,9.47956 16.2777214,9.47956 C16.3202814,9.47956 16.3324414,9.50196 16.3324414,9.52996 C16.3324414,9.55796 16.3385214,9.59716 16.3446014,9.61956 C16.3506814,9.64196 16.3506814,9.65316 16.4175614,9.66996 C16.4844414,9.68676 16.4722814,9.72596 16.4844414,9.75396 C16.4966014,9.78196 16.4966014,9.80436 16.4601214,9.80436 C16.4236414,9.80436 16.4114814,9.82116 16.4054014,9.84916 C16.3993214,9.87716 16.3446014,9.88836 16.3446014,9.88836 L16.2898814,9.87716 C16.2898814,9.87716 16.2534014,9.87716 16.2351614,9.89956 C16.2169214,9.92196 16.1804414,9.96676 16.2047614,10.00596 C16.2290814,10.04516 16.2290814,10.06756 16.2047614,10.08436 C16.1804414,10.10116 16.1682814,10.18516 16.1439614,10.16836 C16.1196414,10.15156 16.0892414,10.17396 16.0649214,10.18516 C16.0406014,10.19636 16.0466814,10.27476 16.0953214,10.30276 C16.1439614,10.33076 16.1561214,10.36996 16.1561214,10.36996 L16.2108414,10.45396 C16.2108414,10.45396 16.1926014,10.47076 16.1804414,10.49876 C16.1682814,10.52676 16.1318014,10.58276 16.1682814,10.59396 C16.2047614,10.60516 16.1865214,10.66676 16.1500414,10.66676 C16.1135614,10.66676 16.0710014,10.64996 16.0649214,10.69476 C16.0588414,10.73956 16.0406014,10.72836 16.0041214,10.72276 C15.9676414,10.71716 15.8764414,10.69476 15.8521214,10.73956 C15.8278014,10.78436 15.8217214,10.80116 15.7791614,10.79556 C15.7366014,10.78996 15.7548414,10.86276 15.7670014,10.89076 C15.7791614,10.91876 15.8217214,10.95796 15.8217214,10.95796 C15.8217214,10.95796 15.8582014,10.98596 15.8582014,11.04196 C15.8582014,11.09796 15.8338814,11.09236 15.8095614,11.05316 C15.7852414,11.01396 15.7366014,11.01956 15.7305214,11.06436 C15.7244414,11.10916 15.7183614,11.17636 15.6758014,11.17636 C15.6332414,11.17636 15.6150014,11.18756 15.5967614,11.20996 C15.5785214,11.23236 15.5481214,11.27156 15.5481214,11.29396 C15.5481214,11.31636 15.5420414,11.33876 15.5116414,11.34436 C15.4812414,11.34996 15.4751614,11.41156 15.4751614,11.41156 C15.4751614,11.41156 15.4022014,11.42276 15.3961214,11.45076 C15.3900414,11.47876 15.4022014,11.52356 15.3414014,11.52916 C15.2806014,11.53476 15.2441214,11.57396 15.2258814,11.60196 C15.2076414,11.62996 15.2015614,11.65236 15.2258814,11.68036 C15.2502014,11.70836 15.2684414,11.79796 15.2988414,11.81476 C15.3292414,11.83156 15.3535614,11.83716 15.3474814,11.88196 C15.3414014,11.92676 15.3049214,11.96036 15.3535614,11.96036 C15.4022014,11.96036 15.4326014,11.97156 15.4143614,12.01076 C15.3961214,12.04996 15.3961214,12.05556 15.3596414,12.07236 C15.3231614,12.08916 15.3049214,12.08916 15.3049214,12.13396 C15.3049214,12.17876 15.3170814,12.17876 15.2866814,12.19556 C15.2562814,12.21236 15.2562814,12.23476 15.2562814,12.26836 C15.2562814,12.30196 15.2441214,12.29076 15.2076414,12.32996 C15.1711614,12.36916 15.1225214,12.36916 15.0921214,12.35796 C15.0617214,12.34676 15.0556414,12.34676 15.0495614,12.31316 C15.0434814,12.27956 14.9887614,12.27956 14.9583614,12.28516 C14.9279614,12.29076 14.8854014,12.32436 14.8854014,12.32436 C14.8854014,12.32436 14.8306814,12.35796 14.8550014,12.38596 C14.8793214,12.41396 14.8671614,12.45876 14.8246014,12.45316 C14.7820414,12.44756 14.6847614,12.49796 14.6543614,12.44756 C14.6239614,12.39716 14.5388414,12.36356 14.5266814,12.43076 C14.5145214,12.49796 14.5631614,12.49236 14.5570814,12.55956 C14.5510014,12.62676 14.5388414,12.62676 14.5145214,12.64916 C14.4902014,12.67156 14.4902014,12.68836 14.4841214,12.71636 C14.4780414,12.74436 14.4719614,12.80596 14.5145214,12.82836 C14.5570814,12.85076 14.5753214,12.91236 14.5753214,12.94596 C14.5753214,12.97956 14.5753214,13.01316 14.6178814,13.01316 C14.6604414,13.01316 14.6969214,13.00756 14.7030014,12.96836 C14.7090814,12.92916 14.7942014,12.90676 14.8002814,12.98516 C14.8063614,13.06356 14.8063614,13.10276 14.8367614,13.13636 C14.8671614,13.16996 14.8914814,13.21476 14.9158014,13.23156 C14.9401214,13.24836 14.9811614,13.39116 14.9811614,13.39116 C14.9218814,13.40376 14.9066814,13.48076 14.8686814,13.49616 C14.8474014,13.50456 14.8246014,13.49756 14.8048414,13.51156 C14.7896414,13.52276 14.7896414,13.54376 14.7683614,13.55356 C14.7242814,13.57316 14.7318814,13.50456 14.6786814,13.52976 C14.6300414,13.55216 14.6254814,13.60816 14.5555614,13.58436 C14.5190814,13.57176 14.4962814,13.42896 14.4856414,13.39536 C14.4795614,13.37576 14.4415614,13.31696 14.4294014,13.29876 C14.3883614,13.23716 14.3062814,13.29876 14.2804414,13.28056 C14.2394014,13.25256 14.2576414,13.20496 14.1953214,13.19936 C14.0691614,13.19096 14.1588414,13.27636 14.1056414,13.29596 C14.0038014,13.33236 14.0038014,13.20076 13.9278014,13.26096 C13.8989214,13.28336 13.9734014,13.29736 13.9551614,13.33656 C13.9399614,13.36876 13.8654814,13.41776 13.8700414,13.45556 C13.8761214,13.50736 13.9323614,13.52276 13.9490814,13.56616 C13.9946814,13.68096 13.9186814,13.76076 13.8046814,13.67116 C13.7408414,13.62076 13.7286814,13.52696 13.6298814,13.53396 C13.6070814,13.53536 13.5994814,13.55916 13.5766814,13.56196 C13.5538814,13.56336 13.5356414,13.54096 13.5113214,13.54796 C13.4748414,13.56056 13.5067614,13.58576 13.4991614,13.60676 C13.4991614,13.60676 13.4505214,13.64736 13.4429214,13.65856 C13.4155614,13.69496 13.4246814,13.72716 13.3851614,13.75656 C13.3517214,13.78176 13.3258814,13.76636 13.2894014,13.80556 C13.2514014,13.84616 13.2483614,13.90636 13.1997214,13.94556 C13.1754014,13.96516 13.1586814,13.88676 13.1282814,13.93856 C13.1237214,13.94556 13.1191614,13.95256 13.1161214,13.95956 C13.1085214,13.97496 13.1070014,13.98196 13.1146014,13.99876 C13.1784414,14.12196 13.0446814,14.16816 13.0036414,14.25496 C12.9854014,14.29136 13.0355614,14.32496 13.0158014,14.35296 C13.0021214,14.37396 12.9428414,14.43136 12.9382814,14.44396 C12.9337214,14.45656 12.9276414,14.48456 12.9170014,14.49436 C12.9063614,14.50556 12.8698814,14.49996 12.8668414,14.51676 C12.8638014,14.53636 12.9048414,14.55176 12.9154814,14.56436 C12.9291614,14.57976 12.9094014,14.60076 12.9139614,14.60496 C12.9823614,14.67356 12.9413214,14.65256 12.9762814,14.71276 C12.9808414,14.72116 13.0021214,14.70576 13.0097214,14.72816 C13.0173214,14.74916 12.9930014,14.74776 13.0021214,14.77156 C13.0036414,14.77856 13.0522814,14.84156 13.0522814,14.84296 C13.0553214,14.86396 12.9595614,14.90736 12.9382814,14.90736 C12.8805214,14.90876 12.9884414,14.78836 12.8942014,14.78836 C12.8531614,14.78836 12.8501214,14.88216 12.8394814,14.89196 C12.8349214,14.89616 12.7969214,14.89196 12.7878014,14.89196 C12.7270014,14.89196 12.6874814,14.96756 12.6631614,14.97456 C12.6479614,14.98016 12.6145214,14.96616 12.5886814,14.97036 C12.5643614,14.97456 12.5354814,14.99836 12.5126814,14.99836 C12.4974814,14.99836 12.4898814,14.98856 12.4777214,14.98156 C12.4503614,14.96616 12.4002014,14.95916 12.3698014,14.94936 C12.3530814,14.94376 12.3211614,14.97036 12.3105214,14.96336 C12.2907614,14.95076 12.3242014,14.91576 12.2786014,14.89056 C12.2725214,14.88776 12.2390814,14.80656 12.2406014,14.80236 C12.2558014,14.74916 12.2725214,14.69176 12.2649214,14.63576 C12.2558014,14.57836 12.1661214,14.52936 12.1418014,14.48316 C12.1235614,14.44816 12.1068414,14.35576 12.0718814,14.33196 C12.0338814,14.30676 11.9989214,14.25776 11.9791614,14.21996 C11.9730814,14.20876 11.9913214,14.18916 11.9776414,14.16956 C11.9624414,14.14856 11.9335614,14.14016 11.9259614,14.11216 C11.9198814,14.08976 11.9259614,14.01696 11.9001214,14.00156 C11.8712414,13.98476 11.6858014,13.96236 11.6402014,13.95816 C11.6158814,13.95676 11.5976414,13.95676 11.5794014,13.93856 C11.5718014,13.93156 11.5596414,13.90216 11.5535614,13.90216 C11.5353214,13.90076 11.5140414,13.91056 11.4958014,13.91196 C11.4821214,13.91336 11.4593214,13.90356 11.4471614,13.91196 C11.3878814,13.95256 11.3726814,14.00436 11.3164414,14.04776 C11.2586814,14.09116 11.1948414,14.08976 11.1370814,14.14016 C11.1006014,14.17236 11.0762814,14.24936 11.0398014,14.28576 C11.0246014,14.30116 11.0002814,14.28576 10.9942014,14.29276 C10.9638014,14.33056 10.9212414,14.35296 10.8908414,14.38796 C10.8847614,14.39496 10.8862814,14.40896 10.8786814,14.41456 L10.8133214,14.43136 C10.7966014,14.43416 10.7646814,14.42996 10.7510014,14.43416 C10.7206014,14.44396 10.7221214,14.47616 10.6187614,14.49716 C10.6111614,14.49856 10.5974814,14.50556 10.5914014,14.50976 C10.5792414,14.51816 10.5701214,14.53076 10.5579614,14.53916 C10.5503614,14.54476 10.5275614,14.53496 10.5138814,14.53636 C10.4880414,14.54056 10.4728414,14.56296 10.4485214,14.56576 C10.3938014,14.57276 10.3056414,14.54056 10.2630814,14.55736 C10.2372414,14.56716 10.1658014,14.64696 10.1399614,14.65536 C10.1232414,14.66096 10.1110814,14.65396 10.0928414,14.64696 C10.0837214,14.65816 10.0624414,14.74496 10.0548414,14.76456 C10.0548414,14.76596 9.93780136,14.86396 9.92868136,14.87516 C9.91348136,14.89196 9.90740136,14.91016 9.88916136,14.92836 C9.87700136,14.94096 9.85724136,14.95216 9.83748136,14.95216 C9.81316136,14.95216 9.77668136,14.93396 9.75388136,14.92976 C9.70980136,14.92276 9.57756136,14.91716 9.53804136,14.92556 C9.49700136,14.93396 9.50916136,15.05156 9.40732136,15.06276 C9.34804136,15.06976 9.29332136,15.08096 9.23252136,15.08656 C9.22644136,15.08656 9.18996136,15.06136 9.15348136,15.07116 C9.13980136,15.07536 9.09572136,15.12016 9.09572136,15.13416 L9.09572136,15.15936 C9.09572136,15.16356 9.10788136,15.17896 9.10636136,15.18036 C9.08356136,15.20696 9.03188136,15.24896 9.01516136,15.27976 C9.01060136,15.28816 9.00452136,15.29796 8.99692136,15.30356 C8.98324136,15.31336 8.91332136,15.33996 8.90724136,15.35256 C8.89052136,15.39456 8.95588136,15.43376 8.94980136,15.45056 C8.93156136,15.50516 8.85860136,15.55696 8.83580136,15.60736 C8.82668136,15.62836 8.86012136,15.69836 8.85860136,15.72216 C8.85100136,15.78796 8.82820136,15.87196 8.83124136,15.93636 C8.83124136,15.94896 8.84036136,16.01476 8.84492136,16.02176 C8.85252136,16.03436 8.86924136,16.04136 8.87988136,16.05256 C8.89052136,16.06376 8.97108136,16.22056 8.97412136,16.23736 C8.98932136,16.35356 8.82060136,16.31296 8.91788136,16.42916 C8.93308136,16.44736 8.94524136,16.46696 8.96196136,16.48236 C8.98324136,16.50336 9.10788136,16.59436 9.10940136,16.60416 C9.11244136,16.62096 9.00908136,16.63776 8.99084136,16.65596 C8.94220136,16.70356 8.90116136,16.79176 8.85404136,16.84076 C8.82516136,16.87156 8.79932136,16.83796 8.76132136,16.90936 C8.74764136,16.93596 8.76132136,16.99616 8.74460136,17.01296 C8.72028136,17.03816 8.70052136,17.00456 8.67620136,17.01576 C8.66556136,17.01996 8.65948136,17.05076 8.64884136,17.05916 C8.62148136,17.08296 8.37828136,17.21176 8.35548136,17.20056 C8.34332136,17.19496 8.32964136,17.15436 8.32812136,17.14176 C8.32508136,17.12776 8.30988136,17.09696 8.29772136,17.08716 C8.23540136,17.03396 8.13964136,17.02416 8.07884136,17.08856 C8.06364136,17.10536 8.06212136,17.13056 8.04236136,17.14736 C8.00892136,17.17536 7.97092136,17.20056 7.93900136,17.22856 C7.93292136,17.23416 7.91468136,17.25516 7.90708136,17.2538268 C7.88276136,17.25096 7.82348136,17.18376 7.80828136,17.16556 C7.78092136,17.13336 7.70188136,17.05636 7.69428136,17.01996 C7.69428136,16.89536 7.59700136,16.76516 7.55596136,16.64336 L7.61676136,16.64476 C7.68516136,16.59856 7.66540136,16.48516 7.78852136,16.52996 C7.80372136,16.50896 7.80220136,16.48656 7.83108136,16.47116 C7.84172136,16.46556 7.86148136,16.45996 7.86756136,16.45016 C7.90860136,16.38716 7.95724136,16.14636 7.91468136,16.08476 C7.87668136,16.02876 7.83716136,16.03156 7.80676136,15.93916 C7.79764136,15.91396 7.81436136,15.88456 7.80676136,15.85656 C7.80068136,15.83416 7.75964136,15.70116 7.75356136,15.69136 C7.74596136,15.68016 7.72012136,15.66616 7.71860136,15.65916 C7.71708136,15.64796 7.70796136,15.50376 7.71252136,15.49256 C7.67148136,15.38056 7.53316136,15.30916 7.52556136,15.29656 C7.50884136,15.26996 7.49212136,15.23496 7.47388136,15.20556 C7.45260136,15.17056 7.45260136,15.15236 7.44044136,15.11876 C7.43588136,15.10336 7.41308136,15.09076 7.41156136,15.07396 C7.40852136,15.04456 7.49212136,14.98296 7.48908136,14.93116 C7.48756136,14.91436 7.43588136,14.86396 7.44652136,14.83596 C7.45716136,14.80656 7.51036136,14.74076 7.50884136,14.70856 C7.50580136,14.66516 7.42524136,14.57136 7.41460136,14.52516 C7.41004136,14.50276 7.44652136,14.48456 7.43740136,14.46916 C7.42676136,14.44956 7.34164136,14.37256 7.32796136,14.35016 C7.31732136,14.33336 7.35988136,14.31096 7.32948136,14.28016 C7.30212136,14.25216 7.32492136,14.26196 7.31732136,14.23816 C7.30820136,14.21156 7.27780136,14.18776 7.26564136,14.15976 C7.25500136,14.13596 7.18204136,13.87276 7.18356136,13.85736 C7.17140136,13.83916 7.15012136,13.82376 7.13948136,13.80556 C7.12884136,13.78736 7.12428136,13.75236 7.11516136,13.73836 C7.11364136,13.73696 7.03308136,13.71316 7.01788136,13.68936 C7.00572136,13.66976 7.00268136,13.60536 6.98140136,13.57316 C6.97076136,13.55776 6.95404136,13.56056 6.94188136,13.54936 C6.93124136,13.54096 6.93276136,13.52556 6.92516136,13.51576 C6.90084136,13.48216 6.85220136,13.51296 6.81876136,13.38976 C6.77468136,13.35896 6.73364136,13.33236 6.69564136,13.29456 C6.68804136,13.28756 6.68348136,13.27916 6.67436136,13.27496 C6.64396136,13.26236 6.59836136,13.25816 6.57252136,13.23576 C6.55732136,13.23576 6.47676136,13.23296 6.46764136,13.22736 C6.45852136,13.22176 6.44940136,13.18676 6.44332136,13.18536 C6.40076136,13.17696 6.33084136,13.18116 6.29436136,13.15036 C6.26548136,13.12516 6.25940136,13.00336 6.20772136,13.02016 C6.20164136,13.01736 6.19404136,13.01456 6.18644136,13.01596 C6.15300136,12.97256 6.03748136,12.96696 5.99036136,12.93896 C5.97668136,12.93056 5.93260136,12.93756 5.93260136,12.92496 C5.94324136,12.90116 5.94020136,12.88156 5.94172136,12.85776 C5.91588136,12.83256 5.89916136,12.80316 5.88092136,12.78496 C5.83684136,12.77516 5.85356136,12.77096 5.82620136,12.75416 C5.75020136,12.74856 5.74260136,12.76116 5.69396136,12.80596 C5.68180136,12.81716 5.65748136,12.81996 5.64228136,12.82836 C5.61644136,12.84236 5.60884136,12.88856 5.57236136,12.86756 C5.56020136,12.86056 5.55260136,12.84936 5.54348136,12.84096 C5.52220136,12.82276 5.51004136,12.83256 5.49940136,12.79896 C5.43708136,12.76536 5.26532136,12.88156 5.22428136,12.80036 C5.19540136,12.78496 5.17412136,12.80456 5.14980136,12.77936 C5.13764136,12.76676 5.18324136,12.62676 5.05860136,12.56936 C5.08748136,12.54696 5.11788136,12.53156 5.14524136,12.51056 C5.15284136,12.49516 5.14372136,12.47136 5.14372136,12.45596 C5.14372136,12.43216 5.15892136,12.38596 5.15436136,12.36916 C5.14980136,12.35236 5.13156136,12.33836 5.12548136,12.31876 C5.11788136,12.29916 5.12700136,12.27396 5.11636136,12.25296 C5.10876136,12.24736 5.08596136,12.23336 5.07684136,12.23336 C5.04492136,12.20676 5.00996136,12.18996 4.98412136,12.15776 C4.97804136,12.15076 4.97348136,12.13816 4.96588136,12.13256 C4.94308136,12.11576 4.86860136,12.09336 4.87164136,12.05836 C4.87316136,12.04716 4.88836136,12.04576 4.89292136,12.03456 C4.89748136,12.02056 4.89444136,12.00236 4.90508136,11.98976 C4.94004136,11.94216 5.01756136,11.96316 5.00540136,11.87496 C4.99932136,11.83576 4.97196136,11.80216 4.96436136,11.76016 C4.95068136,11.75036 4.94916136,11.73356 4.93700136,11.72376 C4.86100136,11.71676 4.87164136,11.63836 4.84428136,11.62016 C4.76372136,11.56556 4.70140136,11.59916 4.79108136,11.49136 C4.80324136,11.45636 4.71356136,11.40036 4.69532136,11.38076 C4.66340136,11.34996 4.67860136,11.28556 4.66644136,11.25196 C4.66036136,11.23516 4.60716136,11.20576 4.59044136,11.18196 C4.58588136,11.17496 4.57220136,11.13856 4.56460136,11.13436 L4.56612136,11.12316 C4.58284136,11.11056 4.57372136,11.08536 4.56916136,11.06856 C4.55852136,11.05876 4.53572136,11.06156 4.52812136,11.05456 C4.45516136,10.98876 4.36700136,10.95936 4.27124136,10.92156 C4.24540136,10.91176 4.25300136,10.89076 4.23172136,10.88096 C4.21348136,10.87256 4.08428136,10.81516 4.07516136,10.81796 C4.05996136,10.81376 4.04932136,10.75636 4.03868136,10.73816 C4.02956136,10.72136 3.99308136,10.69056 3.99308136,10.68916 C3.99612136,10.63596 3.96268136,10.62896 3.92164136,10.60096 C3.92468136,10.59396 3.91708136,10.57716 3.91708136,10.56876 C3.91708136,10.56176 3.94444136,10.46936 3.94900136,10.45676 C3.95660136,10.43716 3.98244136,10.41896 3.97788136,10.39656 C3.97180136,10.36156 3.96724136,10.30696 3.95508136,10.27616 C3.91404136,10.16696 3.86540136,10.18096 3.89124136,10.03816 C3.89732136,10.00876 3.88668136,9.99196 3.90948136,9.96536 C3.90644136,9.96396 3.92012136,9.94996 3.92164136,9.94716 C3.93532136,9.93456 3.97332136,9.91356 3.98092136,9.90376 C4.00372136,9.87296 4.01740136,9.80296 4.04628136,9.78056 C4.06756136,9.76376 4.12836136,9.73156 4.13900136,9.71756 C4.14812136,9.70636 4.16180136,9.67136 4.15420136,9.65736 C4.13292136,9.64476 4.11164136,9.65036 4.09036136,9.64756 C4.08276136,9.64616 4.05540136,9.62656 4.03412136,9.62236 C4.02804136,9.61536 4.01740136,9.60696 4.01740136,9.59716 L4.00828136,9.58876 C3.98396136,9.58596 3.95660136,9.57056 3.93532136,9.56356 C3.90796136,9.55236 3.86996136,9.55096 3.84412136,9.53556 C3.79548136,9.50756 3.74076136,9.43056 3.69364136,9.41936 C3.62980136,9.40536 3.58876136,9.42496 3.52796136,9.42776 C3.48844136,9.43056 3.48844136,9.40676 3.45652136,9.39696 C3.41396136,9.38436 3.44588136,9.41936 3.34860136,9.38856 C3.33644136,9.37876 3.35468136,9.34516 3.35620136,9.33256 C3.34100136,9.32836 3.32276136,9.33676 3.30452136,9.33256 C3.22396136,9.31296 3.25436136,9.24016 3.23308136,9.19256 C3.22396136,9.18136 3.19052136,9.18416 3.17532136,9.18276 C3.17076136,9.18136 3.16924136,9.17436 3.17076136,9.17156 L3.17836136,9.16596 C3.19204136,9.14496 3.14340136,9.09176 3.14488641,9.08476 C3.14796136,9.06796 3.24676136,9.05256 3.26044136,9.05116 C3.26500136,9.03856 3.25132136,9.02736 3.24980136,9.01476 C3.24676136,8.98676 3.26500136,8.95036 3.27412136,8.92516 L3.27108136,8.91676 C3.24372136,8.90136 3.23460136,8.87896 3.21028136,8.86076 C3.21180136,8.84816 3.22852136,8.83976 3.23156136,8.82716 C3.27868136,8.69696 3.35164136,8.80056 3.41548136,8.68016 C3.42156136,8.66896 3.43980136,8.63956 3.44588136,8.61996 L3.45804136,8.61716 C3.47020136,8.61996 3.48692136,8.62976 3.49908136,8.62556 C3.50820136,8.61296 3.52796136,8.60876 3.54316136,8.60456 L3.56596136,8.61016 C3.68452136,8.58496 3.65716136,8.54156 3.72556136,8.49256 C3.74380136,8.47996 3.79700136,8.47436 3.82132136,8.46596 C3.84716136,8.47716 3.88364136,8.51776 3.93228136,8.53596 C3.96724136,8.54996 4.08732136,8.57516 4.10708136,8.58636 C4.13292136,8.60036 4.13748136,8.63396 4.16028136,8.64656 C4.22868136,8.68296 4.18916136,8.62136 4.25452136,8.63396 C4.32140136,8.64796 4.37612136,8.70256 4.43844136,8.72916 C4.44908136,8.73336 4.47492136,8.72776 4.48708136,8.72496 C4.50684136,8.72076 4.61324136,8.70116 4.62388136,8.70536 C4.63604136,8.70956 4.65428136,8.72076 4.66644136,8.72356 C4.68164136,8.72636 4.69380136,8.69416 4.70444136,8.69556 C4.75004136,8.70256 4.75156136,8.72076 4.81236136,8.71516 C4.81540136,8.71516 4.84428136,8.54436 4.87316136,8.53596 C4.88988136,8.53176 4.93548136,8.57656 4.94916136,8.57936 C4.97196136,8.58496 4.94764136,8.54436 4.94612136,8.54156 C4.94004136,8.52756 4.90812136,8.42256 4.90964136,8.41276 C4.91116136,8.40716 4.94004136,8.42116 4.95372136,8.41696 C4.98716136,8.40576 5.03276136,8.39736 5.05708136,8.37076 C5.06012136,8.36796 5.11180136,8.29376 5.11332136,8.29096 C5.11636136,8.27836 5.09964136,8.24896 5.10724136,8.23916 C5.11484136,8.23076 5.14372136,8.21956 5.15740136,8.20556 C5.17716136,8.18596 5.18020136,8.15236 5.20756136,8.13836 C5.31548136,8.12856 5.35348136,8.04456 5.45076136,8.03336 C5.45684136,8.03336 5.47812136,8.02916 5.48268136,8.03056 L5.50244136,8.06276 C5.50852136,8.07116 5.57388136,8.11036 5.58452136,8.10756 C5.59364136,8.10616 5.59820136,8.09076 5.60732136,8.08796 C5.62708136,8.09076 5.68180136,8.05716 5.68788136,8.04036 C5.68940136,8.03756 5.67572136,8.02076 5.68180136,8.00956 C5.68636136,8.00116 5.75476136,7.95076 5.76540136,7.94516 C5.78972136,7.94516 5.81556136,7.93956 5.83836136,7.94796 C5.85204136,7.95356 5.85356136,7.97456 5.86876136,7.97736 C5.88548136,7.97876 5.91588136,7.97176 5.92804136,7.97456 C5.94172136,7.97736 5.94780136,7.94936 5.96452136,7.94796 L5.96756136,7.95076 Z" id="Path" fill="#D0A650"></path>
            <path d="M11.1572014,1.77635684e-15 L12.0036121,2.60498448 L9.78768,0.99501552 L12.5267227,0.99501552 L10.3107906,2.60498448 L11.1572014,1.77635684e-15 Z M14.4531214,0.5812 L15.2995321,3.18618448 L13.0836,1.57621552 L15.8226427,1.57621552 L13.6067106,3.18618448 L14.4531214,0.5812 Z M17.5980814,1.72584 L18.4444921,4.33082448 L16.22856,2.72085552 L18.9676027,2.72085552 L16.7516706,4.33082448 L17.5980814,1.72584 Z M7.81040136,1.77635684e-15 L8.65681212,2.60498448 L6.44088,0.99501552 L9.17992272,0.99501552 L6.9639906,2.60498448 L7.81040136,1.77635684e-15 Z M4.51448136,0.5812 L5.36089212,3.18618448 L3.14496,1.57621552 L5.88400272,1.57621552 L3.6680706,3.18618448 L4.51448136,0.5812 Z M1.36952136,1.72584 L2.21593212,4.33082448 L1.43884904e-13,2.72085552 L2.73904272,2.72085552 L0.5231106,4.33082448 L1.36952136,1.72584 Z" id="Combined-Shape" fill="#FFFFFF"></path>
        </g>
        <path d="M4,1 C2.34314575,1 1,2.34314575 1,4 L1,20 C1,21.6568542 2.34314575,23 4,23 L32,23 C33.6568542,23 35,21.6568542 35,20 L35,4 C35,2.34314575 33.6568542,1 32,1 L4,1 Z M4,0 L32,0 C34.209139,0 36,1.790861 36,4 L36,20 C36,22.209139 34.209139,24 32,24 L4,24 C1.790861,24 0,22.209139 0,20 L0,4 C0,1.790861 1.790861,0 4,0 Z" id="Mask" fill="#031619" fill-rule="nonzero" opacity="0.2"></path>
    </g>
</svg>