<?xml version="1.0" encoding="UTF-8"?>
<svg width="36px" height="24px" viewBox="0 0 36 24" version="1.1" xmlns="http://www.w3.org/2000/svg" xmlns:xlink="http://www.w3.org/1999/xlink">
    <!-- Generator: Sketch 55.2 (78181) - https://sketchapp.com -->
    <title>Flag / LL</title>
    <desc>Created with Sketch.</desc>
    <g id="Flag-/-LL" stroke="none" stroke-width="1" fill="none" fill-rule="evenodd">
        <path d="M4,0 L32,0 C34.209139,0 36,1.790861 36,4 L36,20 C36,22.209139 34.209139,24 32,24 L4,24 C1.790861,24 0,22.209139 0,20 L0,4 C0,1.790861 1.790861,0 4,0 Z" id="Mask" fill="#178A9E"></path>
        <path d="M17.9974095,6 C15.2437836,6 13,8.24378354 13,11.0025747 C13,13.6889104 17.6143919,18.6475095 17.8084912,18.8571361 C17.8576637,18.9114895 17.9275287,18.9399537 17.9974095,18.9399537 C18.069865,18.9399537 18.1397458,18.9114895 18.1863278,18.8571361 C18.3830176,18.6475094 23,13.6889104 23,11.0025747 C23,8.24378354 20.7562007,6 17.9974095,6 Z M18,12.9435678 C16.9285681,12.9435678 16.0564164,12.0714162 16.0564164,11 C16.0564164,9.92856807 16.928568,9.05382593 18,9.05382593 C19.0740067,9.05382593 19.9461583,9.92856807 19.9461583,11 C19.9461583,12.0714161 19.0740067,12.9435678 18,12.9435678 Z" id="Shape" fill="#FFFFFF" fill-rule="nonzero"></path>
        <path d="M4,1 C2.34314575,1 1,2.34314575 1,4 L1,20 C1,21.6568542 2.34314575,23 4,23 L32,23 C33.6568542,23 35,21.6568542 35,20 L35,4 C35,2.34314575 33.6568542,1 32,1 L4,1 Z M4,0 L32,0 C34.209139,0 36,1.790861 36,4 L36,20 C36,22.209139 34.209139,24 32,24 L4,24 C1.790861,24 0,22.209139 0,20 L0,4 C0,1.790861 1.790861,0 4,0 Z" id="Mask" fill="#031619" fill-rule="nonzero" opacity="0.2"></path>
    </g>
</svg>