<?xml version="1.0" encoding="UTF-8"?>
<svg width="36px" height="24px" viewBox="0 0 36 24" version="1.1" xmlns="http://www.w3.org/2000/svg" xmlns:xlink="http://www.w3.org/1999/xlink">
    <!-- Generator: Sketch 55.2 (78181) - https://sketchapp.com -->
    <title>Flag / HK</title>
    <desc>Created with Sketch.</desc>
    <g id="Flag-/-HK" stroke="none" stroke-width="1" fill="none" fill-rule="evenodd">
        <path d="M4,0 L32,0 C34.209139,0 36,1.790861 36,4 L36,20 C36,22.209139 34.209139,24 32,24 L4,24 C1.790861,24 0,22.209139 0,20 L0,4 C0,1.790861 1.790861,0 4,0 Z" id="Mask" fill="#DE2910"></path>
        <path d="M17.9985624,11.996536 C13.7880404,10.2170856 15.6544928,4.733262 19.6813448,5.008908 C18.8667012,5.4275856 18.7486348,6.2088168 19.2138632,6.9325164 C19.7348408,7.7427484 19.1659044,9.0464588 18.4616324,9.3632124 C17.3042384,9.8841896 17.072516,11.273212 17.9985624,11.996536 Z" id="Shape" fill="#FFFFFF" fill-rule="nonzero"></path>
        <polygon id="Shape" fill="#DE2910" fill-rule="nonzero" points="17.7708752 8.0367896 17.5340848 8.4085408 17.4483032 7.9759728 17.0211784 7.8656016 17.4061628 7.6500216 17.3793212 7.2100396 17.702738 7.5096176 18.1129692 7.3479092 17.928548 7.748286 18.2086052 8.0885024"></polygon>
        <path d="M18.0224008,11.9503608 C17.5131552,11.6889804 17.1025488,11.1441644 16.9236652,10.4931072 C16.719066,9.7463196 16.8367576,8.9434084 17.2469884,8.2916 L17.1586728,8.2358516 C16.73305,8.913 16.6109476,9.7455688 16.8232428,10.520606 C17.0123564,11.2094864 17.4317848,11.764532 17.974724,12.0431812 L18.0224008,11.9503608 Z" id="Shape" fill="#DE2910" fill-rule="nonzero"></path>
        <path d="M21.5735405,14.0805846 C17.3630185,12.3011342 19.2294709,6.81731065 23.2563229,7.09295665 C22.4416793,7.51163425 22.3236129,8.29286545 22.7888413,9.01656505 C23.3098189,9.82679705 22.7408825,11.1305074 22.0366105,11.447261 C20.8792165,11.9682382 20.6474941,13.3572606 21.5735405,14.0805846 Z" id="Shape" fill="#FFFFFF" fill-rule="nonzero" transform="translate(21.221713, 10.581757) rotate(72.000000) translate(-21.221713, -10.581757) "></path>
        <polygon id="Shape" fill="#DE2910" fill-rule="nonzero" transform="translate(21.866597, 10.338740) rotate(72.000000) translate(-21.866597, -10.338740) " points="22.0225803 10.5662392 21.7857899 10.9379904 21.7000083 10.5054224 21.2728835 10.3950512 21.6578679 10.1794712 21.6310263 9.73948919 21.9544431 10.0390672 22.3646743 9.87735879 22.1802531 10.2777356 22.4603103 10.617952"></polygon>
        <path d="M20.2259185,12.6384461 C19.7166729,12.3770657 19.3060665,11.8322497 19.1271829,11.1811925 C18.9225837,10.4344049 19.0402753,9.63149373 19.4505061,8.97968533 L19.3621905,8.92393693 C18.9365677,9.60108533 18.8144653,10.4336541 19.0267605,11.2086913 C19.2158741,11.8975717 19.6353025,12.4526173 20.1782417,12.7312665 L20.2259185,12.6384461 Z" id="Shape" fill="#DE2910" fill-rule="nonzero" transform="translate(19.575293, 10.827602) rotate(72.000000) translate(-19.575293, -10.827602) "></path>
        <path d="M20.6962215,18.1245973 C16.4856995,16.3451469 18.3521519,10.8613233 22.3790039,11.1369693 C21.5643603,11.5556469 21.4462939,12.3368781 21.9115223,13.0605777 C22.4324999,13.8708097 21.8635635,15.1745201 21.1592915,15.4912737 C20.0018975,16.0122509 19.7701751,17.4012733 20.6962215,18.1245973 Z" id="Shape" fill="#FFFFFF" fill-rule="nonzero" transform="translate(20.344393, 14.625769) rotate(144.000000) translate(-20.344393, -14.625769) "></path>
        <polygon id="Shape" fill="#DE2910" fill-rule="nonzero" transform="translate(20.774796, 15.163995) rotate(144.000000) translate(-20.774796, -15.163995) " points="20.9307799 15.3914939 20.6939895 15.7632451 20.6082079 15.3306771 20.1810831 15.2203059 20.5660675 15.0047259 20.5392259 14.5647439 20.8626427 14.8643219 21.2728739 14.7026135 21.0884527 15.1029903 21.3685099 15.4432067"></polygon>
        <path d="M20.2524348,14.946746 C19.7431892,14.6853656 19.3325828,14.1405496 19.1536992,13.4894924 C18.9491,12.7427048 19.0667916,11.9397936 19.4770224,11.2879852 L19.3887068,11.2322368 C18.963084,11.9093852 18.8409816,12.741954 19.0532768,13.5169912 C19.2423904,14.2058716 19.6618188,14.7609172 20.204758,15.0395664 L20.2524348,14.946746 Z" id="Shape" fill="#DE2910" fill-rule="nonzero" transform="translate(19.601809, 13.135902) rotate(144.000000) translate(-19.601809, -13.135902) "></path>
        <path d="M16.5790304,18.539886 C12.3685084,16.7604356 14.2349608,11.276612 18.2618128,11.552258 C17.4471692,11.9709356 17.3291028,12.7521668 17.7943312,13.4758664 C18.3153088,14.2860984 17.7463724,15.5898088 17.0421004,15.9065624 C15.8847064,16.4275396 15.652984,17.816562 16.5790304,18.539886 Z" id="Shape" fill="#FFFFFF" fill-rule="nonzero" transform="translate(16.227202, 15.041058) rotate(-144.000000) translate(-16.227202, -15.041058) "></path>
        <polygon id="Shape" fill="#DE2910" fill-rule="nonzero" transform="translate(15.848322, 15.616716) rotate(-144.000000) translate(-15.848322, -15.616716) " points="16.0043051 15.8442158 15.7675147 16.215967 15.6817331 15.783399 15.2546083 15.6730278 15.6395927 15.4574478 15.6127511 15.0174658 15.9361679 15.3170438 16.3463991 15.1553354 16.1619779 15.5557122 16.4420351 15.8959286"></polygon>
        <path d="M18.0653052,15.6852685 C17.5560596,15.4238881 17.1454532,14.8790721 16.9665696,14.2280149 C16.7619704,13.4812273 16.879662,12.6783161 17.2898928,12.0265077 L17.2015772,11.9707593 C16.7759544,12.6479077 16.653852,13.4804765 16.8661472,14.2555137 C17.0552608,14.9443941 17.4746892,15.4994397 18.0176284,15.7780889 L18.0653052,15.6852685 Z" id="Shape" fill="#DE2910" fill-rule="nonzero" transform="translate(17.414680, 13.874424) rotate(-144.000000) translate(-17.414680, -13.874424) "></path>
        <path d="M14.9117854,14.7525358 C10.7012634,12.9730854 12.5677158,7.48926179 16.5945678,7.76490779 C15.7799242,8.18358539 15.6618578,8.96481659 16.1270862,9.68851619 C16.6480638,10.4987482 16.0791274,11.8024586 15.3748554,12.1192122 C14.2174614,12.6401894 13.985739,14.0292118 14.9117854,14.7525358 Z" id="Shape" fill="#FFFFFF" fill-rule="nonzero" transform="translate(14.559957, 11.253708) rotate(-72.000000) translate(-14.559957, -11.253708) "></path>
        <polygon id="Shape" fill="#DE2910" fill-rule="nonzero" transform="translate(13.895393, 11.071259) rotate(-72.000000) translate(-13.895393, -11.071259) " points="14.0513766 11.2987585 13.8145862 11.6705097 13.7288046 11.2379417 13.3016798 11.1275705 13.6866642 10.9119905 13.6598226 10.4720085 13.9832394 10.7715865 14.3934706 10.6098781 14.2090494 11.0102549 14.4891066 11.3504713"></polygon>
        <path d="M16.6870684,13.8334006 C16.1778228,13.5720202 15.7672164,13.0272042 15.5883328,12.376147 C15.3837336,11.6293594 15.5014252,10.8264482 15.911656,10.1746398 L15.8233404,10.1188914 C15.3977176,10.7960398 15.2756152,11.6286086 15.4879104,12.4036458 C15.677024,13.0925262 16.0964524,13.6475718 16.6393916,13.926221 L16.6870684,13.8334006 Z" id="Shape" fill="#DE2910" fill-rule="nonzero" transform="translate(16.036443, 12.022556) rotate(-72.000000) translate(-16.036443, -12.022556) "></path>
        <path d="M4,1 C2.34314575,1 1,2.34314575 1,4 L1,20 C1,21.6568542 2.34314575,23 4,23 L32,23 C33.6568542,23 35,21.6568542 35,20 L35,4 C35,2.34314575 33.6568542,1 32,1 L4,1 Z M4,0 L32,0 C34.209139,0 36,1.790861 36,4 L36,20 C36,22.209139 34.209139,24 32,24 L4,24 C1.790861,24 0,22.209139 0,20 L0,4 C0,1.790861 1.790861,0 4,0 Z" id="Mask" fill="#031619" fill-rule="nonzero" opacity="0.2"></path>
    </g>
</svg>