<svg width="32" height="22" viewBox="0 0 32 22" fill="none" xmlns="http://www.w3.org/2000/svg">
<path d="M3.55556 0H28.4444C30.4081 0 32 1.64162 32 3.66667V18.3333C32 20.3584 30.4081 22 28.4444 22H3.55556C1.59188 22 0 20.3584 0 18.3333V3.66667C0 1.64162 1.59188 0 3.55556 0Z" fill="#CF142B"/>
<g clip-path="url(#clip0_2174_22246)">
<path d="M21.2544 6.00343L19.3976 6.20618C19.2533 6.2219 19.1185 6.28041 19.014 6.37277C18.9094 6.46513 18.8408 6.58625 18.8186 6.71766L18.3087 9.72991L17.3024 9.22025L16.2761 6.91069C16.2624 6.82269 16.2279 6.7385 16.1749 6.66403C16.1218 6.58955 16.0516 6.5266 15.9691 6.4796C15.8867 6.43259 15.794 6.40268 15.6975 6.39195C15.6011 6.38121 15.5032 6.38993 15.4108 6.41748L11.9679 7.42642L11.2172 6.38399C11.1188 6.25207 10.9676 6.16082 10.7963 6.12992C10.625 6.09902 10.4472 6.13095 10.3014 6.21882C10.1556 6.30669 10.0534 6.44345 10.0167 6.59964C9.98014 6.75583 10.0121 6.91893 10.1057 7.05377L11.1347 8.48165C11.2148 8.59239 11.3323 8.67614 11.4693 8.72011C11.6063 8.76408 11.7552 8.76588 11.8934 8.72522L15.0661 7.79481L14.6408 9.33472L13.1053 10.6664C13.0246 10.7153 12.9564 10.7797 12.9056 10.8552C12.8549 10.9306 12.8228 11.0154 12.8115 11.1034C12.8002 11.1914 12.81 11.2806 12.8403 11.3648C12.8706 11.4489 12.9206 11.5261 12.9869 11.5907L15.4575 14.005L14.7493 15.0718C14.6576 15.2098 14.6296 15.3755 14.6714 15.5324C14.7132 15.6893 14.8214 15.8245 14.9723 15.9084C15.1231 15.9923 15.3042 16.018 15.4757 15.9797C15.6472 15.9415 15.7951 15.8424 15.8868 15.7044L16.8578 14.2431C16.9328 14.1296 16.9652 13.9969 16.9502 13.865C16.9352 13.7331 16.8735 13.6093 16.7746 13.5124L14.4971 11.2875L16.0724 10.9428L18.6328 11.1145C18.7006 11.1354 18.7717 11.1459 18.8432 11.1456C19.0019 11.1456 19.1554 11.0937 19.276 10.9992C19.3966 10.9047 19.4762 10.774 19.5007 10.6305L20.0532 7.3625L21.4082 7.21391C21.4954 7.20486 21.5796 7.18014 21.6563 7.14118C21.7329 7.10222 21.8005 7.04979 21.8549 6.98689C21.9094 6.92399 21.9497 6.85186 21.9735 6.77467C21.9974 6.69747 22.0044 6.61672 21.994 6.53705C21.9837 6.45739 21.9562 6.38037 21.9133 6.31044C21.8703 6.24051 21.8126 6.17904 21.7435 6.12957C21.6745 6.08009 21.5954 6.04358 21.5109 6.02214C21.4264 6.0007 21.3381 5.99476 21.2511 6.00464L21.2544 6.00343Z" fill="white"/>
</g>
<path opacity="0.2" d="M3.55556 0.916667C2.0828 0.916667 0.888889 2.14788 0.888889 3.66667V18.3333C0.888889 19.8521 2.0828 21.0833 3.55556 21.0833H28.4444C29.9172 21.0833 31.1111 19.8521 31.1111 18.3333V3.66667C31.1111 2.14788 29.9172 0.916667 28.4444 0.916667H3.55556ZM3.55556 0H28.4444C30.4081 0 32 1.64162 32 3.66667V18.3333C32 20.3584 30.4081 22 28.4444 22H3.55556C1.59188 22 0 20.3584 0 18.3333V3.66667C0 1.64162 1.59188 0 3.55556 0Z" fill="#031619"/>
<defs>
<clipPath id="clip0_2174_22246">
<rect width="12" height="10" fill="white" transform="translate(10 6)"/>
</clipPath>
</defs>
</svg>
