<?xml version="1.0" encoding="UTF-8"?>
<svg width="36px" height="24px" viewBox="0 0 36 24" version="1.1" xmlns="http://www.w3.org/2000/svg" xmlns:xlink="http://www.w3.org/1999/xlink">
    <!-- Generator: Sketch 55.2 (78181) - https://sketchapp.com -->
    <title>Flag / EU</title>
    <desc>Created with Sketch.</desc>
    <g id="Flag-/-EU" stroke="none" stroke-width="1" fill="none" fill-rule="evenodd">
        <path d="M4,0 L32,0 C34.209139,0 36,1.790861 36,4 L36,20 C36,22.209139 34.209139,24 32,24 L4,24 C1.790861,24 0,22.209139 0,20 L0,4 C0,1.790861 1.790861,0 4,0 Z" id="Mask" fill="#003399"></path>
        <polygon id="Star" fill="#FFCC00" points="18 4.50438079 17.2210877 5.06060623 17.5093924 4.14793348 16.7396934 3.57902695 17.6967878 3.57118961 18 2.6633606 18.3032122 3.57118961 19.2603066 3.57902695 18.4906076 4.14793348 18.7789123 5.06060623"></polygon>
        <polygon id="Star-Copy" fill="#FFCC00" points="18 20.5436874 17.2210877 21.0999129 17.5093924 20.1872401 16.7396934 19.6183336 17.6967878 19.6104962 18 18.7026672 18.3032122 19.6104962 19.2603066 19.6183336 18.4906076 20.1872401 18.7789123 21.0999129"></polygon>
        <polygon id="Star-Copy-2" fill="#FFCC00" points="22.0050659 19.4650741 21.2261536 20.0212996 21.5144583 19.1086268 20.7447593 18.5397203 21.7018537 18.531883 22.0050659 17.624054 22.3082781 18.531883 23.2653725 18.5397203 22.4956736 19.1086268 22.7839782 20.0212996"></polygon>
        <polygon id="Star-Copy-10" fill="#FFCC00" points="22.0050659 5.57695159 21.2261536 6.13317703 21.5144583 5.22050428 20.7447593 4.65159775 21.7018537 4.64376041 22.0050659 3.7359314 22.3082781 4.64376041 23.2653725 4.65159775 22.4956736 5.22050428 22.7839782 6.13317703"></polygon>
        <polygon id="Star-Copy-4" fill="#FFCC00" points="24.9391479 16.5070053 24.1602356 17.0632307 24.4485403 16.150558 23.6788413 15.5816515 24.6359358 15.5738141 24.9391479 14.6659851 25.2423601 15.5738141 26.1994546 15.5816515 25.4297556 16.150558 25.7180603 17.0632307"></polygon>
        <polygon id="Star-Copy-8" fill="#FFCC00" points="24.9391479 8.5514389 24.1602356 9.10766434 24.4485403 8.19499158 23.6788413 7.62608505 24.6359358 7.61824771 24.9391479 6.7104187 25.2423601 7.61824771 26.1994546 7.62608505 25.4297556 8.19499158 25.7180603 9.10766434"></polygon>
        <polygon id="Star-Copy-6" fill="#FFCC00" points="26.0009155 12.5292221 25.2220032 13.0854475 25.5103079 12.1727748 24.7406089 11.6038683 25.6977033 11.5960309 26.0009155 10.6882019 26.3041277 11.5960309 27.2612221 11.6038683 26.4915232 12.1727748 26.7798279 13.0854475"></polygon>
        <polygon id="Star-Copy-3" fill="#FFCC00" points="13.9949341 19.4650741 13.2160218 20.0212996 13.5043264 19.1086268 12.7346275 18.5397203 13.6917219 18.531883 13.9949341 17.624054 14.2981463 18.531883 15.2552407 18.5397203 14.4855417 19.1086268 14.7738464 20.0212996"></polygon>
        <polygon id="Star-Copy-11" fill="#FFCC00" points="13.9949341 5.57695159 13.2160218 6.13317703 13.5043264 5.22050428 12.7346275 4.65159775 13.6917219 4.64376041 13.9949341 3.7359314 14.2981463 4.64376041 15.2552407 4.65159775 14.4855417 5.22050428 14.7738464 6.13317703"></polygon>
        <polygon id="Star-Copy-5" fill="#FFCC00" points="11.0661621 16.5070053 10.2872498 17.0632307 10.5755545 16.150558 9.8058555 15.5816515 10.7629499 15.5738141 11.0661621 14.6659851 11.3693743 15.5738141 12.3264687 15.5816515 11.5567697 16.150558 11.8450744 17.0632307"></polygon>
        <polygon id="Star-Copy-9" fill="#FFCC00" points="11.0661621 8.5514389 10.2872498 9.10766434 10.5755545 8.19499158 9.8058555 7.62608505 10.7629499 7.61824771 11.0661621 6.7104187 11.3693743 7.61824771 12.3264687 7.62608505 11.5567697 8.19499158 11.8450744 9.10766434"></polygon>
        <polygon id="Star-Copy-7" fill="#FFCC00" points="9.99475098 12.5292221 9.21583865 13.0854475 9.50414334 12.1727748 8.73444436 11.6038683 9.69153878 11.5960309 9.99475098 10.6882019 10.2979632 11.5960309 11.2550576 11.6038683 10.4853586 12.1727748 10.7736633 13.0854475"></polygon>
        <path d="M4,1 C2.34314575,1 1,2.34314575 1,4 L1,20 C1,21.6568542 2.34314575,23 4,23 L32,23 C33.6568542,23 35,21.6568542 35,20 L35,4 C35,2.34314575 33.6568542,1 32,1 L4,1 Z M4,0 L32,0 C34.209139,0 36,1.790861 36,4 L36,20 C36,22.209139 34.209139,24 32,24 L4,24 C1.790861,24 0,22.209139 0,20 L0,4 C0,1.790861 1.790861,0 4,0 Z" id="Mask" fill="#031619" fill-rule="nonzero" opacity="0.2"></path>
    </g>
</svg>