<?xml version="1.0" encoding="utf-8"?>
<!-- Generator: Adobe Illustrator 28.0.0, SVG Export Plug-In . SVG Version: 6.00 Build 0)  -->
<svg version="1.1" id="레이어_1" xmlns="http://www.w3.org/2000/svg" xmlns:xlink="http://www.w3.org/1999/xlink" x="0px"
	 y="0px" viewBox="0 0 48 48" style="enable-background:new 0 0 48 48;" xml:space="preserve">
<style type="text/css">
	.st0{fill:#FFFFFF;}
</style>
<path class="st0" d="M13.2,48c-0.9,0-1.7-0.3-2.4-1c-0.6-0.6-1-1.4-1-2.4V3.3c0-0.9,0.3-1.7,1-2.4c0.6-0.6,1.4-1,2.4-1h21.5
	c0.9,0,1.7,0.3,2.4,1c0.6,0.6,1,1.4,1,2.4v41.3c0,0.9-0.3,1.7-1,2.4c-0.6,0.6-1.4,1-2.4,1H13.2z M11.3,42.7v1.9
	c0,0.5,0.2,0.9,0.6,1.4c0.4,0.4,0.9,0.6,1.4,0.6h21.5c0.5,0,0.9-0.2,1.4-0.6s0.6-0.9,0.6-1.4v-1.9H11.3z M11.3,41.4h25.5V6.6H11.3
	V41.4z M11.3,5.3h25.5V3.3c0-0.5-0.2-0.9-0.6-1.4s-0.9-0.6-1.4-0.6H13.2c-0.5,0-0.9,0.2-1.4,0.6c-0.4,0.4-0.6,0.9-0.6,1.4V5.3z
	 M11.3,5.3V1.4V5.3z M11.3,42.7v3.9V42.7z"/>
</svg>
