<?xml version="1.0" encoding="utf-8"?>
<!-- Generator: Adobe Illustrator 28.0.0, SVG Export Plug-In . SVG Version: 6.00 Build 0)  -->
<svg version="1.1" id="레이어_1" xmlns="http://www.w3.org/2000/svg" xmlns:xlink="http://www.w3.org/1999/xlink" x="0px"
	 y="0px" viewBox="0 0 54 54" style="enable-background:new 0 0 54 54;" xml:space="preserve">
<style type="text/css">
	.st0{fill:#FFFFFF;}
</style>
<path class="st0" d="M29.4,1.8h-4.8c-0.6,0-1.1,0.5-1.1,1c0,0.6,0.5,1.1,1,1.1h4.8c0.6,0,1-0.5,1-1S30,1.8,29.4,1.8z M39.6,5.6v42.7
	c0,0.5,0,1,0,1.3c0,0.5-0.1,0.8-0.1,1.2c-0.1,0.4-0.2,0.8-0.4,1.1c-0.2,0.3-0.4,0.7-0.7,0.9c-0.3,0.3-0.6,0.5-0.9,0.7
	c-0.3,0.2-0.7,0.3-1.1,0.4c-0.3,0.1-0.7,0.1-1.1,0.1c-0.3,0-0.6,0-1.1,0c-0.1,0-0.1,0-0.2,0H19.9c-0.1,0-0.1,0-0.2,0
	c-0.4,0-0.8,0-1.1,0c-0.4,0-0.8-0.1-1.1-0.1c-0.3-0.1-0.6-0.2-0.8-0.3c-0.1,0-0.2-0.1-0.2-0.1c-0.3-0.2-0.6-0.4-0.9-0.7c0,0,0,0,0,0
	c-0.3-0.3-0.5-0.6-0.6-0.9c-0.2-0.3-0.3-0.7-0.4-1.1c-0.1-0.3-0.1-0.7-0.1-1.2c0-0.3,0-0.7,0-1.3V5.6c0-0.4,0-0.8,0-1
	c0-0.1,0-0.2,0-0.2c0-0.5,0.1-0.8,0.1-1.2c0.1-0.4,0.2-0.8,0.4-1.1c0.2-0.3,0.4-0.7,0.7-0.9c0.3-0.3,0.6-0.5,0.9-0.7
	c0.3-0.2,0.7-0.3,1.1-0.4C17.8,0.1,18.2,0,18.6,0c0.3,0,0.6,0,1,0h14.5c0.5,0,0.9,0,1.2,0c0.4,0,0.8,0.1,1.1,0.1
	c0.4,0.1,0.7,0.2,1.1,0.4c0.3,0.2,0.6,0.4,0.9,0.7c0.3,0.3,0.5,0.6,0.7,0.9c0.2,0.3,0.3,0.7,0.4,1.1c0.1,0.3,0.1,0.7,0.1,1.2
	C39.6,4.7,39.6,5.1,39.6,5.6L39.6,5.6L39.6,5.6z M38.5,5.6c0-0.5,0-0.9,0-1.2c0-0.4,0-0.7-0.1-1c-0.1-0.3-0.1-0.6-0.3-0.8
	C38,2.4,37.8,2.2,37.7,2c-0.2-0.2-0.4-0.3-0.6-0.5c-0.2-0.1-0.5-0.2-0.8-0.3c-0.3-0.1-0.6-0.1-0.9-0.1c-0.3,0-0.6,0-1.1,0H19.7
	c-0.4,0-0.7,0-1,0c-0.4,0-0.7,0-0.9,0.1c-0.3,0.1-0.5,0.1-0.8,0.3c-0.2,0.1-0.4,0.3-0.6,0.5c-0.2,0.2-0.3,0.4-0.5,0.6
	c-0.1,0.2-0.2,0.5-0.3,0.8c-0.1,0.3-0.1,0.6-0.1,1c0,0.1,0,0.2,0,0.3c0,0.3,0,0.6,0,1v42.7c0,0.5,0,0.9,0,1.2c0,0.4,0,0.7,0.1,1
	c0.1,0.3,0.1,0.6,0.3,0.8c0.1,0.2,0.3,0.5,0.5,0.6c0.1,0.1,0.2,0.2,0.3,0.3c0.1,0.1,0.2,0.2,0.3,0.2c0.2,0.1,0.5,0.2,0.8,0.3
	c0,0,0.1,0,0.1,0c0.2,0,0.5,0.1,0.8,0.1c0.3,0,0.6,0,1,0h0.2h14.4h0.1c0.4,0,0.8,0,1,0c0.4,0,0.7,0,0.9-0.1c0.3-0.1,0.5-0.1,0.8-0.3
	c0.2-0.1,0.4-0.3,0.6-0.5c0.2-0.2,0.3-0.4,0.5-0.6c0.1-0.2,0.2-0.5,0.3-0.8c0.1-0.3,0.1-0.6,0.1-1c0-0.3,0-0.7,0-1.2L38.5,5.6z"/>
</svg>
