<?xml version="1.0" encoding="UTF-8"?>
<svg xmlns="http://www.w3.org/2000/svg" xmlns:xlink="http://www.w3.org/1999/xlink" width="px" height="100px" viewBox="0 0 100 100" version="1.1">
<g id="surface1">
<path style=" stroke:none;fill-rule:nonzero;fill:rgb(100%,100%,100%);fill-opacity:1;" d="M 100 75 L 68.332031 75 L 68.332031 81.667969 L 80.832031 81.667969 L 80.832031 88.332031 L 50 88.332031 L 50 81.667969 L 62.5 81.667969 L 62.5 75 L 43.332031 75 L 43.332031 87.5 L 0 87.5 L 0 6.667969 L 43.332031 6.667969 L 43.332031 31.667969 L 100 31.667969 Z M 93.332031 68.332031 L 93.332031 37.5 L 37.5 37.5 L 37.5 69.167969 L 93.332031 69.167969 Z M 37.5 81.667969 L 37.5 75 L 12.5 75 L 12.5 68.332031 L 30.832031 68.332031 L 30.832031 62.5 L 12.5 62.5 L 12.5 56.667969 L 30.832031 56.667969 L 30.832031 31.667969 L 37.5 31.667969 L 37.5 12.5 L 6.667969 12.5 L 6.667969 80.832031 L 37.5 80.832031 Z M 31.667969 18.332031 L 31.667969 25 L 12.5 25 L 12.5 18.332031 Z M 31.667969 18.332031 "/>
</g>
</svg>
