<?xml version="1.0" encoding="UTF-8"?>
<svg xmlns="http://www.w3.org/2000/svg" xmlns:xlink="http://www.w3.org/1999/xlink" width="px" height="100px" viewBox="0 0 100 100" version="1.1">
<g id="surface1">
<path style=" stroke:none;fill-rule:nonzero;fill:rgb(100%,100%,100%);fill-opacity:1;" d="M 42.332031 0 L 25.332031 0 C 13.667969 0 4.167969 8.5 4.167969 20.167969 L 4.167969 78 C 4.167969 89.667969 13.667969 100 25.332031 100 L 42.332031 100 C 42.667969 100 42.832031 99.832031 42.832031 99.5 L 42.832031 0.5 C 42.832031 0.167969 42.5 0 42.332031 0 Z M 23.5 14.832031 C 28.332031 14.832031 32.332031 18.832031 32.332031 23.667969 C 32.332031 28.5 28.332031 32.5 23.5 32.5 C 18.667969 32.5 14.667969 28.5 14.667969 23.667969 C 14.667969 18.832031 18.667969 14.832031 23.5 14.832031 Z M 15 59.667969 C 12.832031 59.667969 11 57.832031 11 55.667969 C 11 53.5 12.832031 51.667969 15 51.667969 C 17.167969 51.667969 19 53.5 19 55.667969 C 19 57.832031 17.332031 59.667969 15 59.667969 Z M 23.5 68.167969 C 21.332031 68.167969 19.5 66.332031 19.5 64.167969 C 19.5 62 21.332031 60.167969 23.5 60.167969 C 25.667969 60.167969 27.5 62 27.5 64.167969 C 27.5 66.332031 25.832031 68.167969 23.5 68.167969 Z M 23.5 51.167969 C 21.332031 51.167969 19.5 49.332031 19.5 47.167969 C 19.5 45 21.332031 43.167969 23.5 43.167969 C 25.667969 43.167969 27.5 45 27.5 47.167969 C 27.5 49.332031 25.832031 51.167969 23.5 51.167969 Z M 32 59.667969 C 29.832031 59.667969 28 57.832031 28 55.667969 C 28 53.5 29.832031 51.667969 32 51.667969 C 34.167969 51.667969 36 53.5 36 55.667969 C 36 57.832031 34.167969 59.667969 32 59.667969 Z M 74.667969 0 L 57.5 0 C 57.167969 0 57 0.167969 57 0.5 L 57 99.5 C 57 99.832031 57.167969 100 57.5 100 L 74.667969 100 C 86.332031 100 95.832031 89.667969 95.832031 78 L 95.832031 20.167969 C 95.832031 8.5 86.332031 0 74.667969 0 Z M 76.332031 13.667969 C 78.5 13.667969 80.332031 15.5 80.332031 17.667969 C 80.332031 19.832031 78.5 21.667969 76.332031 21.667969 C 74.167969 21.667969 72.332031 19.832031 72.332031 17.667969 C 72.332031 15.5 74.167969 13.667969 76.332031 13.667969 Z M 76.332031 30.832031 C 78.5 30.832031 80.332031 32.667969 80.332031 34.832031 C 80.332031 37 78.5 38.832031 76.332031 38.832031 C 74.167969 38.832031 72.332031 37 72.332031 34.832031 C 72.332031 32.5 74.167969 30.832031 76.332031 30.832031 Z M 63.832031 26.332031 C 63.832031 24.167969 65.667969 22.332031 67.832031 22.332031 C 70 22.332031 71.832031 24.167969 71.832031 26.332031 C 71.832031 28.5 70 30.332031 67.832031 30.332031 C 65.667969 30.332031 63.832031 28.5 63.832031 26.332031 Z M 76.332031 67 C 71.5 67 67.5 63 67.5 58.167969 C 67.5 53.332031 71.5 49.332031 76.332031 49.332031 C 81.167969 49.332031 85.167969 53.332031 85.167969 58.167969 C 85.167969 63 81.167969 67 76.332031 67 Z M 84.832031 30.332031 C 82.667969 30.332031 80.832031 28.5 80.832031 26.332031 C 80.832031 24.167969 82.667969 22.332031 84.832031 22.332031 C 87 22.332031 88.832031 24.167969 88.832031 26.332031 C 88.832031 28.5 87 30.332031 84.832031 30.332031 Z M 84.832031 30.332031 "/>
</g>
</svg>
