<?xml version="1.0" encoding="UTF-8"?>
<svg xmlns="http://www.w3.org/2000/svg" xmlns:xlink="http://www.w3.org/1999/xlink" width="px" height="100px" viewBox="0 0 100 100" version="1.1">
<g id="surface1">
<path style=" stroke:none;fill-rule:nonzero;fill:rgb(100%,100%,100%);fill-opacity:1;" d="M 12.5 15.832031 C 12.5 15 12.5 14.167969 13.332031 13.332031 C 14.167969 12.5 15 12.5 15.832031 12.5 C 16.667969 12.5 17.5 12.5 18.332031 13.332031 C 19.167969 14.167969 19.167969 15 19.167969 15.832031 C 19.167969 16.667969 19.167969 17.5 18.332031 18.332031 C 17.5 19.167969 16.667969 18.332031 15.832031 18.332031 C 15 18.332031 14.167969 18.332031 13.332031 17.5 C 12.5 16.667969 12.5 16.667969 12.5 15.832031 Z M 100 90 C 100 91.667969 100 93.332031 99.167969 95 C 98.332031 96.667969 97.5 97.5 95.832031 99.167969 C 95 99.167969 95 100 94.167969 100 C 93.332031 100 93.332031 100 92.5 100 C 91.667969 100 90 100 89.167969 99.167969 C 88.332031 98.332031 87.5 97.5 86.667969 96.667969 C 85.832031 95.832031 85 95 84.167969 93.332031 C 83.332031 91.667969 82.5 91.667969 81.667969 91.667969 C 81.667969 91.667969 80.832031 91.667969 80.832031 91.667969 C 80.832031 91.667969 80 91.667969 80 91.667969 L 67.5 91.667969 C 66.667969 91.667969 65.832031 91.667969 65 92.5 C 64.167969 93.332031 63.332031 93.332031 63.332031 94.167969 C 63.332031 95 61.667969 95.832031 61.667969 96.667969 C 61.667969 97.5 60 98.332031 60 99.167969 C 60 100 58.332031 100.832031 57.5 100.832031 C 56.667969 100.832031 55.832031 100 55 100 C 54.167969 100 53.332031 100 53.332031 100 C 53.332031 100 52.5 99.167969 51.667969 99.167969 C 50 98.332031 49.167969 96.667969 48.332031 95 C 47.5 93.332031 46.667969 91.667969 46.667969 90 L 46.667969 89.167969 C 46.667969 89.167969 46.667969 88.332031 46.667969 88.332031 C 46.667969 87.5 46.667969 86.667969 47.5 85.832031 C 48.332031 85 48.332031 83.332031 48.332031 82.5 C 48.332031 81.667969 49.167969 78.332031 50 77.5 C 50.832031 76.667969 50.832031 75 51.667969 73.332031 C 52.5 71.667969 52.5 70.832031 53.332031 70 C 54.167969 69.167969 54.167969 68.332031 55 67.5 C 55 66.667969 55.832031 65.832031 56.667969 65 C 57.5 65 57.5 64.167969 58.332031 64.167969 C 59.167969 64.167969 60 63.332031 60.832031 63.332031 C 61.667969 63.332031 62.5 63.332031 63.332031 62.5 C 64.167969 61.667969 65 62.5 65 62.5 C 65 62.5 65.832031 62.5 66.667969 62.5 C 67.5 62.5 67.5 62.5 67.5 62.5 C 67.5 62.5 68.332031 62.5 68.332031 63.332031 C 68.332031 64.167969 69.167969 63.332031 69.167969 64.167969 L 77.5 64.167969 C 78.332031 64.167969 78.332031 63.332031 78.332031 63.332031 C 78.332031 63.332031 79.167969 63.332031 79.167969 62.5 C 79.167969 61.667969 80 62.5 80 62.5 C 80 62.5 80.832031 62.5 81.667969 62.5 C 82.5 62.5 83.332031 62.5 84.167969 62.5 C 85 62.5 85.832031 62.5 86.667969 62.5 C 87.5 62.5 88.332031 62.5 89.167969 63.332031 C 90 64.167969 90.832031 64.167969 90.832031 64.167969 C 91.667969 64.167969 91.667969 65 91.667969 65 C 91.667969 65 91.667969 65.832031 92.5 66.667969 C 92.5 66.667969 93.332031 67.5 94.167969 68.332031 C 95 69.167969 95 70 95.832031 71.667969 C 96.667969 73.332031 96.667969 74.167969 97.5 75 C 98.332031 75.832031 98.332031 77.5 99.167969 79.167969 C 100 80.832031 100 81.667969 100 82.5 C 100 83.332031 100.832031 84.167969 100.832031 85 C 100 86.667969 100 88.332031 100 90 Z M 93.332031 90 C 93.332031 89.167969 93.332031 87.5 93.332031 86.667969 C 93.332031 85.832031 92.5 85 92.5 83.332031 C 92.5 81.667969 91.667969 80.832031 91.667969 80 C 91.667969 79.167969 90.832031 77.5 90 76.667969 C 89.167969 75.832031 89.167969 74.167969 88.332031 74.167969 L 88.332031 73.332031 C 88.332031 73.332031 88.332031 72.5 87.5 72.5 C 87.5 72.5 86.667969 71.667969 86.667969 71.667969 C 86.667969 71.667969 86.667969 71.667969 85.832031 71.667969 C 85 71.667969 85.832031 71.667969 85 70.832031 C 84.167969 70 85 70 85 70 C 84.167969 70 83.332031 70 83.332031 69.167969 C 83.332031 68.332031 81.667969 69.167969 80.832031 69.167969 C 80 69.167969 80 69.167969 80 70 C 80 70.832031 79.167969 70 79.167969 70.832031 C 79.167969 71.667969 78.332031 70.832031 78.332031 70.832031 C 78.332031 70.832031 77.5 70.832031 76.667969 70.832031 L 68.332031 70.832031 C 67.5 70.832031 67.5 70.832031 66.667969 70.832031 C 65.832031 70.832031 65.832031 70.832031 65.832031 70.832031 C 65.832031 70.832031 66.667969 69.167969 65.832031 69.167969 C 65 69.167969 65.832031 69.167969 65 68.332031 C 64.167969 68.332031 63.332031 68.332031 62.5 68.332031 C 61.667969 68.332031 60.832031 68.332031 60 69.167969 C 60 70 60 70 59.167969 70.832031 C 58.332031 71.667969 59.167969 71.667969 59.167969 71.667969 C 59.167969 71.667969 59.167969 72.5 59.167969 72.5 C 59.167969 72.5 59.167969 73.332031 59.167969 73.332031 C 57.5 74.167969 57.5 75.832031 56.667969 76.667969 C 55.832031 77.5 55.832031 80 55 81.667969 C 54.167969 83.332031 54.167969 85 53.332031 86.667969 C 52.5 88.332031 52.5 89.167969 52.5 90.832031 C 52.5 91.667969 52.5 92.5 52.5 92.5 C 52.5 92.5 53.332031 93.332031 53.332031 94.167969 C 54.167969 93.332031 55 92.5 55.832031 91.667969 C 56.667969 90.832031 58.332031 89.167969 58.332031 89.167969 C 58.332031 89.167969 59.167969 87.5 60 87.5 C 60.832031 87.5 61.667969 86.667969 61.667969 85.832031 C 61.667969 85 63.332031 85 64.167969 85 C 65 85 66.667969 85 68.332031 85 L 77.5 85 C 79.167969 85 80 85 81.667969 85 C 83.332031 85 83.332031 85.832031 84.167969 85.832031 C 85 85.832031 85.832031 86.667969 85.832031 87.5 C 85.832031 88.332031 86.667969 88.332031 87.5 89.167969 C 88.332031 90 88.332031 90.832031 89.167969 91.667969 C 90 92.5 90.832031 93.332031 91.667969 94.167969 C 92.5 94.167969 92.5 93.332031 92.5 92.5 C 92.5 91.667969 93.332031 90.832031 93.332031 90 Z M 43.332031 75.832031 L 43.332031 6.667969 L 6.667969 6.667969 L 6.667969 94.167969 L 13.332031 94.167969 L 13.332031 50 L 20 50 L 20 93.332031 L 42.5 93.332031 C 42.5 95.832031 43.332031 97.5 45 100 L 0 100 L 0 0 L 50 0 L 50 61.667969 C 50 62.5 49.167969 62.5 49.167969 63.332031 C 49.167969 64.167969 49.167969 64.167969 48.332031 65 L 48.332031 65.832031 C 48.332031 65.832031 48.332031 66.667969 47.5 66.667969 C 46.667969 67.5 46.667969 69.167969 45.832031 70.832031 C 45 72.5 44.167969 74.167969 43.332031 75.832031 Z M 73.332031 71.667969 C 74.167969 71.667969 74.167969 71.667969 74.167969 72.5 C 74.167969 73.332031 75 73.332031 75 73.332031 C 75 73.332031 75 74.167969 74.167969 74.167969 C 73.332031 74.167969 74.167969 75 73.332031 75 C 72.5 75 72.5 75 72.5 74.167969 C 72.5 73.332031 71.667969 74.167969 71.667969 73.332031 C 71.667969 72.5 71.667969 72.5 72.5 72.5 C 73.332031 72.5 73.332031 71.667969 73.332031 71.667969 Z M 73.332031 71.667969 "/>
</g>
</svg>
