<?xml version="1.0" encoding="UTF-8"?>
<svg width="36px" height="24px" viewBox="0 0 36 24" version="1.1" xmlns="http://www.w3.org/2000/svg" xmlns:xlink="http://www.w3.org/1999/xlink">
    <!-- Generator: Sketch 55.2 (78181) - https://sketchapp.com -->
    <title>Flag / TV</title>
    <desc>Created with Sketch.</desc>
    <g id="Flag-/-TV" stroke="none" stroke-width="1" fill="none" fill-rule="evenodd">
        <path d="M4,0 L32,0 C34.209139,0 36,1.790861 36,4 L36,20 C36,22.209139 34.209139,24 32,24 L4,24 C1.790861,24 0,22.209139 0,20 L0,4 C0,1.790861 1.790861,0 4,0 Z" id="Mask" fill="#0098CD"></path>
        <path d="M15.7507521,18.6698376 L16.8327774,21.9999632 L14,19.9418333 L17.5015042,19.9418333 L14.6687268,22 L15.7507521,18.6698376 Z M22.0775656,17.6805803 L20.9955436,21.0107071 L19.9135169,17.6805803 L22.7462935,19.7387128 L19.2447684,19.73874 L22.0775656,17.6805803 Z M22.0775656,13.1967602 L20.9955436,16.526887 L19.9135169,13.1967602 L22.7462935,15.2548927 L19.2447684,15.2549199 L22.0775656,13.1967602 Z M26.7091968,16.5472856 L25.6271748,19.8774124 L24.5451484,16.5472856 L27.3779247,18.6054181 L23.8763995,18.6054449 L26.7091968,16.5472856 Z M26.7091968,6.79132662 L25.6271748,10.1214534 L24.5451484,6.79132662 L27.3779247,8.84945913 L23.8763995,8.84948596 L26.7091968,6.79132662 Z M28.6564085,13.1213557 L29.7384342,16.4514814 L26.9056564,14.3933514 L30.407161,14.3933514 L27.5743832,16.4515181 L28.6564085,13.1213557 Z M30.6017335,5.46095286 L29.5197119,8.79107965 L28.4376863,5.46095286 L31.270464,7.51908537 L27.7689374,7.5191122 L30.6017335,5.46095286 Z M32.5672123,10.6037863 L33.6492376,13.9339119 L30.8164602,11.875782 L34.3179644,11.875782 L31.485187,13.9339487 L32.5672123,10.6037863 Z M32.5672123,2 L33.6492376,5.33012568 L30.8164602,3.27199575 L34.3179644,3.27199575 L31.485187,5.33016244 L32.5672123,2 Z" id="Shape" fill="#FFCE00" fill-rule="nonzero"></path>
        <path d="M16,0 L16,12 L0,12 L0,4 C0,1.790861 1.790861,0 4,0 L16,0 Z" id="Path" fill="#00206D"></path>
        <path d="M15.349,0 L16,0 L16,2.558 L10.545,6.101 L16,9.643 L16,12 L15.04,12 L8.25,7.591 L1.46,12 L0,12 L0,9.968 L5.955,6.101 L0.316281479,2.4384369 C0.654816439,1.64083503 1.24482828,0.975787703 1.98683277,0.542779134 L8.25,4.61 L15.349,0 Z" id="Path" fill="#FFFFFF"></path>
        <path d="M0,11.892 L0,10.7 L7.082,6.1 L0.599718636,1.89228362 C0.777896692,1.60544616 0.991357966,1.3428133 1.23403724,1.11045027 L8,5.504 L16,0.31 L16,1.503 L8.918,6.1 L16,10.7 L16,11.892 L8,6.697 L0,11.892 Z" id="Path" fill="#DC1E35"></path>
        <polygon id="Shape" fill="#F7F7F7" fill-rule="nonzero" points="10 4 16 4 16 8 10 8 10 12 6 12 6 8 0 8 0 4 6 4 6 0 10 0"></polygon>
        <polygon id="Shape" fill="#DC1E35" fill-rule="nonzero" points="9 5 9 0 7 0 7 5 0 5 0 7 7 7 7 12 9 12 9 7 16 7 16 5"></polygon>
        <path d="M4,1 C2.34314575,1 1,2.34314575 1,4 L1,20 C1,21.6568542 2.34314575,23 4,23 L32,23 C33.6568542,23 35,21.6568542 35,20 L35,4 C35,2.34314575 33.6568542,1 32,1 L4,1 Z M4,0 L32,0 C34.209139,0 36,1.790861 36,4 L36,20 C36,22.209139 34.209139,24 32,24 L4,24 C1.790861,24 0,22.209139 0,20 L0,4 C0,1.790861 1.790861,0 4,0 Z" id="Mask" fill="#031619" fill-rule="nonzero" opacity="0.2"></path>
    </g>
</svg>