<svg width="36" height="24" viewBox="0 0 36 24" fill="none" xmlns="http://www.w3.org/2000/svg">
<path fill-rule="evenodd" clip-rule="evenodd" d="M4 0H32C34.2091 0 36 1.79086 36 4V20C36 22.2091 34.2091 24 32 24H4C1.79086 24 0 22.2091 0 20V4C0 1.79086 1.79086 0 4 0Z" fill="#FFD000"/>
<path fill-rule="evenodd" clip-rule="evenodd" d="M0 12H36V20C36 22.2091 34.2091 24 32 24H4C1.79086 24 0 22.2091 0 20V12Z" fill="#E8112D"/>
<path fill-rule="evenodd" clip-rule="evenodd" d="M4 0H14V24H4C1.79086 24 0 22.2091 0 20V4C0 1.79086 1.79086 0 4 0Z" fill="#008A4B"/>
<path opacity="0.2" d="M4 1C2.34315 1 1 2.34315 1 4V20C1 21.6569 2.34315 23 4 23H32C33.6569 23 35 21.6569 35 20V4C35 2.34315 33.6569 1 32 1H4ZM4 0H32C34.2091 0 36 1.79086 36 4V20C36 22.2091 34.2091 24 32 24H4C1.79086 24 0 22.2091 0 20V4C0 1.79086 1.79086 0 4 0Z" fill="#031619"/>
</svg>
