<?xml version="1.0" encoding="UTF-8"?>
<svg width="36px" height="24px" viewBox="0 0 36 24" version="1.1" xmlns="http://www.w3.org/2000/svg" xmlns:xlink="http://www.w3.org/1999/xlink">
    <!-- Generator: Sketch 55.2 (78181) - https://sketchapp.com -->
    <title>Flag / UZ</title>
    <desc>Created with Sketch.</desc>
    <g id="Flag-/-UZ" stroke="none" stroke-width="1" fill="none" fill-rule="evenodd">
        <path d="M4,0 L32,0 C34.209139,0 36,1.790861 36,4 L36,20 C36,22.209139 34.209139,24 32,24 L4,24 C1.790861,24 0,22.209139 0,20 L0,4 C0,1.790861 1.790861,0 4,0 Z" id="Mask" fill="#009CB9"></path>
        <path d="M7.64754424,5.86059438 C7.38918902,5.95090454 7.11148619,6 6.8223165,6 C5.44160463,6 4.3223165,4.88071187 4.3223165,3.5 C4.3223165,2.60683603 4.79881381,1.78151848 5.5723165,1.33493649 C6.20864168,0.967553976 6.96643978,0.902400203 7.6458504,1.13947517 C6.38716543,1.19160483 5.38273666,2.22850396 5.38273666,3.5 C5.38273666,4.77206635 6.38806667,5.80932529 7.64754424,5.86059438 L7.64754424,5.86059438 Z" id="Path" fill="#FFFFFF" fill-rule="nonzero"></path>
        <path d="M17.5,2 C17.2238576,2 17,1.77614237 17,1.5 C17,1.22385763 17.2238576,1 17.5,1 C17.7761424,1 18,1.22385763 18,1.5 C18,1.77614237 17.7761424,2 17.5,2 Z M17.5,4 C17.2238576,4 17,3.77614237 17,3.5 C17,3.22385763 17.2238576,3 17.5,3 C17.7761424,3 18,3.22385763 18,3.5 C18,3.77614237 17.7761424,4 17.5,4 Z M17.5,6 C17.2238576,6 17,5.77614237 17,5.5 C17,5.22385763 17.2238576,5 17.5,5 C17.7761424,5 18,5.22385763 18,5.5 C18,5.77614237 17.7761424,6 17.5,6 Z M15.5,2 C15.2238576,2 15,1.77614237 15,1.5 C15,1.22385763 15.2238576,1 15.5,1 C15.7761424,1 16,1.22385763 16,1.5 C16,1.77614237 15.7761424,2 15.5,2 Z M15.5,4 C15.2238576,4 15,3.77614237 15,3.5 C15,3.22385763 15.2238576,3 15.5,3 C15.7761424,3 16,3.22385763 16,3.5 C16,3.77614237 15.7761424,4 15.5,4 Z M15.5,6 C15.2238576,6 15,5.77614237 15,5.5 C15,5.22385763 15.2238576,5 15.5,5 C15.7761424,5 16,5.22385763 16,5.5 C16,5.77614237 15.7761424,6 15.5,6 Z M13.5,2 C13.2238576,2 13,1.77614237 13,1.5 C13,1.22385763 13.2238576,1 13.5,1 C13.7761424,1 14,1.22385763 14,1.5 C14,1.77614237 13.7761424,2 13.5,2 Z M13.5,4 C13.2238576,4 13,3.77614237 13,3.5 C13,3.22385763 13.2238576,3 13.5,3 C13.7761424,3 14,3.22385763 14,3.5 C14,3.77614237 13.7761424,4 13.5,4 Z M13.5,6 C13.2238576,6 13,5.77614237 13,5.5 C13,5.22385763 13.2238576,5 13.5,5 C13.7761424,5 14,5.22385763 14,5.5 C14,5.77614237 13.7761424,6 13.5,6 Z M11.5,4 C11.2238576,4 11,3.77614237 11,3.5 C11,3.22385763 11.2238576,3 11.5,3 C11.7761424,3 12,3.22385763 12,3.5 C12,3.77614237 11.7761424,4 11.5,4 Z M11.5,6 C11.2238576,6 11,5.77614237 11,5.5 C11,5.22385763 11.2238576,5 11.5,5 C11.7761424,5 12,5.22385763 12,5.5 C12,5.77614237 11.7761424,6 11.5,6 Z M9.5,6 C9.22385763,6 9,5.77614237 9,5.5 C9,5.22385763 9.22385763,5 9.5,5 C9.77614237,5 10,5.22385763 10,5.5 C10,5.77614237 9.77614237,6 9.5,6 Z" id="Combined-Shape" fill="#FFFFFF"></path>
        <path d="M0,12 L36,12 L36,20 C36,22.209139 34.209139,24 32,24 L4,24 C1.790861,24 0,22.209139 0,20 L0,12 Z" id="Rectangle" fill="#00B918"></path>
        <polygon id="Shape" fill="#E00017" fill-rule="nonzero" points="0 7 36 7 36 17 0 17"></polygon>
        <polygon id="Shape" fill="#FFFFFF" fill-rule="nonzero" points="0 8 36 8 36 16 0 16"></polygon>
        <path d="M4,1 C2.34314575,1 1,2.34314575 1,4 L1,20 C1,21.6568542 2.34314575,23 4,23 L32,23 C33.6568542,23 35,21.6568542 35,20 L35,4 C35,2.34314575 33.6568542,1 32,1 L4,1 Z M4,0 L32,0 C34.209139,0 36,1.790861 36,4 L36,20 C36,22.209139 34.209139,24 32,24 L4,24 C1.790861,24 0,22.209139 0,20 L0,4 C0,1.790861 1.790861,0 4,0 Z" id="Mask" fill="#031619" fill-rule="nonzero" opacity="0.2"></path>
    </g>
</svg>