<?xml version="1.0" encoding="UTF-8"?>
<svg width="36px" height="24px" viewBox="0 0 36 24" version="1.1" xmlns="http://www.w3.org/2000/svg" xmlns:xlink="http://www.w3.org/1999/xlink">
    <!-- Generator: Sketch 55.2 (78181) - https://sketchapp.com -->
    <title>Flag / SR</title>
    <desc>Created with Sketch.</desc>
    <g id="Flag-/-SR" stroke="none" stroke-width="1" fill="none" fill-rule="evenodd">
        <path d="M0,16 L36,16 L36,20 C36,22.209139 34.209139,24 32,24 L4,24 C1.790861,24 0,22.209139 0,20 L0,16 Z" id="Rectangle-13" fill="#008036"></path>
        <polygon id="Rectangle-13-Copy" fill="#FFFFFF" points="0 5 36 5 36 19 0 19"></polygon>
        <polygon id="Rectangle-13-Copy" fill="#C40026" points="0 7 36 7 36 17 0 17"></polygon>
        <path d="M4,0 L32,0 C34.209139,0 36,1.790861 36,4 L36,5 L0,5 L0,4 C0,1.790861 1.790861,0 4,0 Z" id="Rectangle-13-Copy-2" fill="#008036"></path>
        <path d="M4,1 C2.34314575,1 1,2.34314575 1,4 L1,20 C1,21.6568542 2.34314575,23 4,23 L32,23 C33.6568542,23 35,21.6568542 35,20 L35,4 C35,2.34314575 33.6568542,1 32,1 L4,1 Z M4,0 L32,0 C34.209139,0 36,1.790861 36,4 L36,20 C36,22.209139 34.209139,24 32,24 L4,24 C1.790861,24 0,22.209139 0,20 L0,4 C0,1.790861 1.790861,0 4,0 Z" id="Mask" fill="#031619" fill-rule="nonzero" opacity="0.2"></path>
        <polygon id="Star" fill="#F2C700" points="18.010075 14.0593511 15.537939 15.918034 16.4552015 12.8715334 14.010075 10.9737621 17.0491103 10.9496041 18.010075 7.918034 18.9710397 10.9496041 22.010075 10.9737621 19.5649485 12.8715334 20.4822109 15.918034"></polygon>
    </g>
</svg>