<?xml version="1.0" encoding="UTF-8"?>
<svg width="36px" height="24px" viewBox="0 0 36 24" version="1.1" xmlns="http://www.w3.org/2000/svg" xmlns:xlink="http://www.w3.org/1999/xlink">
    <!-- Generator: Sketch 55.2 (78181) - https://sketchapp.com -->
    <title>Flag / SA</title>
    <desc>Created with Sketch.</desc>
    <g id="Flag-/-SA" stroke="none" stroke-width="1" fill="none" fill-rule="evenodd">
        <path d="M4,0 L32,0 C34.209139,0 36,1.790861 36,4 L36,20 C36,22.209139 34.209139,24 32,24 L4,24 C1.790861,24 0,22.209139 0,20 L0,4 C0,1.790861 1.790861,0 4,0 Z" id="Mask" fill="#006C35"></path>
        <path d="M23.7027957,16.5942846 L23.7028422,16.5946472 L23.7062812,16.5946472 C23.7074798,16.5954203 23.7086442,16.5963168 23.7097667,16.5973308 C23.7099526,16.5975484 23.7112538,16.5997967 23.7114862,16.6000143 L23.7132057,16.6026979 C23.7299361,16.6383817 23.7436923,16.7791588 23.7689738,16.8366011 C23.7695779,16.8379066 23.7718551,16.8408078 23.7724593,16.8420407 C23.7750213,16.8470556 23.7779365,16.8516051 23.7811498,16.8556035 C23.7824975,16.8568365 23.7849606,16.8575618 23.7863548,16.8582871 C23.7866801,16.8584321 23.7877025,16.8608255 23.7880743,16.8609706 C23.7887714,16.8611156 23.7908163,16.8608981 23.7915598,16.8609706 L23.7932793,16.8609706 C23.8470026,16.8546606 23.8857614,16.8734454 23.9117864,16.907171 C24.0114718,17.0412756 23.9300505,17.4114592 23.8839024,17.5028447 C24.3836771,17.5315659 24.7097808,17.5399791 25.1543451,17.6225162 C25.1543451,17.6225162 25.5385405,17.5623178 25.675451,17.5300428 C26.254184,17.4438793 26.2802091,18.8191581 26.2802091,18.8191581 C26.2738422,19.6262514 26.0732166,19.6694781 25.8184031,19.7547712 C25.672802,19.78371 25.5968645,19.617693 25.5203694,19.4419573 C25.5200441,19.4421749 25.5190216,19.4443508 25.5186499,19.4446409 C25.4055337,19.5053469 24.1697602,19.4774961 23.9501735,19.4473244 C23.9045831,19.5590903 23.8450507,19.7120522 23.7096737,19.6622253 C23.7083725,19.6619352 23.7058629,19.662733 23.7044687,19.6622253 C23.6995996,19.6605548 23.694906,19.6578201 23.6905267,19.6541022 C23.6881101,19.6522164 23.6842063,19.648445 23.6817897,19.645979 C23.5677905,19.5280482 23.4092698,18.8791389 23.5545921,18.4763901 L12.7757434,18.5062717 C11.9491215,18.4859638 11.3174554,18.2831751 10.8813492,17.2877988 C10.9204798,17.2877988 12.9538759,17.4074702 13.5966026,17.4074702 C14.7454245,17.4074702 20.102271,17.4999436 23.5930256,17.4999436 C23.3807817,17.2642271 23.3705111,16.729332 23.7010762,16.5969681 C23.7014944,16.5964604 23.7023309,16.5946472 23.7027957,16.5942846 Z M23.9398099,18.5608128 L23.9399028,18.5608128 C23.862757,18.6162243 23.8556466,18.8467913 23.9207093,18.9742233 C24.1442463,18.9870608 24.3459407,19.0405866 24.5690129,18.9986653 C24.5686411,18.9917751 24.5702677,18.9841597 24.5707324,18.9769068 C24.5711507,18.9712496 24.5714295,18.9632715 24.5724519,18.9579045 C24.573485,18.9532817 24.5746479,18.9487322 24.5759374,18.9442692 C24.5768204,18.9406428 24.5782611,18.936146 24.579423,18.9333899 C24.5805848,18.9306339 24.5817001,18.9279503 24.5829085,18.9252668 C24.6498301,18.7831116 24.9340613,18.7709269 24.9732848,18.9524648 C24.9755085,18.9648648 24.9766804,18.9776664 24.9767703,18.9905421 L25.4037212,19.0095445 C25.4060449,19.0102698 25.4083685,19.009617 25.4106922,19.0095445 C25.4130159,19.009472 25.4158043,19.0102698 25.4176632,19.0095445 C25.4206375,19.0080939 25.4235653,19.0062807 25.4263537,19.0041049 C25.4789151,18.959355 25.5193005,18.7140648 25.4385762,18.6070133 C24.9292745,18.5682832 24.4507847,18.5996154 23.9415294,18.5608128 C23.9409253,18.561248 23.940414,18.5603777 23.9398099,18.5608128 Z M25.4526099,9.45567379 L25.4525634,9.45567379 C25.3749529,9.42151586 25.4602315,9.09652755 25.4229599,8.98164537 C25.3815986,8.82024334 25.2218231,8.51612157 25.2486847,8.42921636 C25.2062545,8.28119866 25.298876,8.18857723 25.3967954,8.17649415 C25.4195818,8.17379564 25.4426758,8.17556359 25.4647859,8.18169917 C25.6521201,8.27487828 25.7259663,8.82391473 25.7052856,8.97290837 C25.7119313,9.26280929 25.5240395,9.49396785 25.4526099,9.45567379 Z M10.6620866,4.79146647 C10.491204,4.72003689 10.4958513,4.4653628 10.5052389,4.45513866 C10.4980355,4.40090423 10.5071443,4.25692971 10.6324365,4.25646498 C10.6554409,4.2623671 10.6755174,4.27110409 10.6882046,4.28783451 C10.6966163,4.30619149 10.7039126,4.35057356 10.7039126,4.37845759 C10.7039126,4.4053192 10.7213401,4.41154663 10.7352821,4.42725463 C10.759123,4.44273027 10.7524773,4.43947713 10.7823596,4.43947713 C10.8090818,4.43413269 10.8236745,4.42181725 10.8276712,4.3854286 C10.8276712,4.35419849 10.8377094,4.32742982 10.845517,4.30010348 C10.8630374,4.27277714 10.8623403,4.26478371 10.894314,4.26348246 C10.920525,4.26348246 10.9303309,4.26617792 10.9448306,4.27570496 C10.9592838,4.29638561 10.9831711,4.33031117 10.9831711,4.36284254 C10.9801503,4.46499101 11.0529276,4.47800356 11.0720747,4.45867063 C11.1054425,4.44008128 11.0803934,4.37873643 11.0895022,4.34188304 C11.1040483,4.28611499 11.1435507,4.25149233 11.1853768,4.24428896 L11.184912,4.24424248 C11.2263198,4.23703911 11.26954,4.25767329 11.2929626,4.31218656 C11.2962158,4.34216188 11.3034191,4.45202494 11.3034191,4.4847422 C11.3216367,4.85467026 10.8914791,4.9008648 10.6620866,4.79146647 Z M8.82359984,4.77719915 C8.78442279,4.65413765 8.56125764,4.43036835 8.58658563,4.36414379 C8.54308655,4.24266239 8.65457618,4.18001628 8.75565577,4.18289763 C8.76973311,4.18327852 8.78374048,4.18502166 8.79748181,4.18810265 C9.06186884,4.26826922 9.07664737,4.65660074 9.05712855,4.77018167 C9.02190173,4.97759234 8.92923382,5.20196579 8.86194038,5.17278051 C8.78874481,5.14675542 8.85873372,4.86475498 8.82359984,4.77719915 Z M16.9239091,4.88176424 L16.9238626,4.88181071 C16.8360279,5.07606942 16.6430705,5.01193616 16.6781579,4.86089769 C16.6694674,4.86089769 16.7230976,4.35373375 16.7670614,4.25613967 C16.8183216,4.12847731 16.8811536,4.06253159 16.9378511,4.05751246 C16.9945486,4.05249334 17.0446004,4.10802902 17.0650487,4.22305062 C17.0562653,4.37404262 17.0556146,4.52577819 16.9239091,4.88176424 Z M15.2873492,4.78254358 L15.2873492,4.78249711 C15.1978879,4.6955919 15.2236807,4.69605663 15.2298616,4.55942491 C15.2360426,4.31720568 15.4381088,4.10668129 15.5400714,4.03836543 C15.5854759,4.01145735 15.6177749,3.99937427 15.639385,4.0000249 C15.6869273,4.00146557 15.685626,4.06113739 15.6829306,4.13424 C15.5649347,4.28946108 15.4408043,4.35545327 15.4842569,4.51587936 C15.5091201,4.68866737 15.7036112,4.46001836 15.672474,4.61523943 C15.647239,4.7078144 15.621911,4.74304122 15.5469959,4.79820511 C15.4165452,4.86619566 15.3524119,4.8757227 15.2873492,4.78254358 Z M8.5990405,7.23354937 L8.59899402,7.2335029 C8.04549613,7.11587879 8.1027978,5.969613 8.15113011,5.3181957 C8.31968904,5.12296105 8.38159158,5.95725108 8.48225291,6.29585609 C8.59871518,6.7617052 8.76587991,6.58306155 8.80291919,6.33071112 C8.8304779,6.10745303 8.89354227,5.8566827 8.89354227,5.8566827 C8.9692474,5.36806163 9.24004776,5.0729557 9.34489169,5.07936903 C9.47701549,5.05603939 9.5398475,5.09098737 9.5941284,5.23273117 C9.66211895,5.37452143 9.68340375,5.93368908 9.6063509,6.28888508 C9.59106116,6.56233442 9.92483293,6.87537907 9.90958967,6.32374011 C9.85470461,5.91193954 9.81887364,5.55823068 9.70571097,5.15609657 C9.67768753,4.92684341 9.67917467,4.67816438 9.69000297,4.42939241 C9.7192812,4.35903172 9.78025427,4.30628444 9.84508462,4.29870928 C9.89550823,4.29280716 9.94746547,4.31325544 9.99147575,4.37367083 C10.1564562,4.50951251 10.1888947,5.04493226 10.2180335,5.29556317 C10.2180335,5.49772235 10.2377846,5.94619042 10.334821,6.24710552 C10.4028116,6.3927066 10.4970131,6.4220313 10.5422317,6.29590256 C10.5970703,6.29590256 10.4805151,6.15662186 10.4045311,5.93341024 C10.2993619,5.69114454 10.231046,5.14880025 10.3766471,4.89644983 C10.429952,4.80907988 10.5417205,4.80907988 10.6241178,4.89644983 C10.7065151,5.04288743 10.8081059,5.11078503 10.8419385,5.32516671 C10.8904102,5.4805272 10.9589585,5.54456751 10.8715885,6.10419989 C10.8715885,6.15908495 11.2009453,6.40567267 11.2009453,6.40567267 C11.3015602,6.51186434 11.4206715,6.54039899 11.5408051,6.47189723 C11.5704551,6.2963673 11.5033941,6.1012256 11.4554335,5.9839268 C11.2297124,5.68366232 11.0809511,5.31624382 11.1173397,5.00626641 C11.1957868,4.73672084 11.410122,4.70995217 11.5565131,4.83896226 C11.7336696,4.93516215 11.8433003,5.15753725 11.913754,5.38967175 C11.8879612,5.49646757 11.7754957,5.50613403 11.7011383,5.38967175 C11.6829672,5.44455681 11.7804218,5.58741596 11.7621578,5.64234749 C11.8929804,5.94433148 11.9279283,6.24659431 11.9520945,6.5485783 C11.94596,6.86636324 11.6966768,7.06722116 11.2828779,7.18122035 C11.0109622,7.24223989 10.9333052,7.09031843 10.7583329,6.96688515 C10.6485163,6.90646976 10.4895309,6.91260425 10.4864637,7.03659521 C10.3990937,7.16277042 10.5477156,7.70715954 10.5282897,8.3558349 C10.5089103,9.46018171 10.1030583,9.34399827 10.1030583,9.34399827 L10.0194063,7.58558519 C9.95057918,7.41479554 9.83416338,7.4099623 9.65863344,7.42353253 C9.48993509,7.35530962 9.27257912,7.25711137 9.2787136,6.9268251 L9.2787136,5.91077771 C9.27178907,5.77540076 9.18688222,5.77772443 9.14105947,5.8846132 C8.89870082,6.10178328 9.26853593,7.297915 8.5990405,7.23354937 Z M12.9124668,6.12818015 L12.9123274,6.1282731 L12.9106078,6.12650711 C12.9098934,6.12542046 12.9093159,6.12424978 12.9088883,6.12302161 L12.9088883,6.12125562 C12.9088883,6.12055852 12.9087024,6.11856016 12.9088883,6.11777012 C12.9090742,6.11698007 12.9102825,6.11521408 12.9106078,6.11428461 C12.9538281,6.00697759 13.810983,5.41885703 14.140944,5.06691416 C14.2182292,5.00222323 14.1023711,4.88492443 13.9858623,4.82989995 C13.8661004,4.68429887 13.901792,4.45090958 14.0538529,4.3053085 C14.1137106,4.27454312 14.183746,4.25181764 14.2629831,4.24777446 C14.3422202,4.24373128 14.4305196,4.2579986 14.5243958,4.30005701 C14.6376049,4.42618575 14.7062926,4.70372474 14.4895408,4.82985348 C14.4458558,4.87195836 14.4409761,4.91327319 14.4895408,4.95533159 C14.5348523,4.99418333 14.5766319,5.02281093 14.6219899,5.06166267 C14.6219899,5.06166267 13.7468033,6.06200207 13.5623969,6.12994614 C13.562304,6.13003909 13.5625364,6.13157271 13.5623969,6.13166566 C13.5622575,6.1317586 13.5610027,6.13138682 13.5606774,6.13166566 C13.5603521,6.1319445 13.5594226,6.13319928 13.5589579,6.13343164 C13.4995649,6.16020031 12.9629369,6.16094388 12.9193448,6.13166566 L12.9176253,6.12994614 C12.9172071,6.12985319 12.9162311,6.13008556 12.9159058,6.12994614 C12.9155805,6.12980672 12.9145116,6.12831957 12.9141863,6.12818015 C12.913861,6.12804073 12.9127456,6.12831957 12.9124668,6.12818015 Z M14.2308295,4.56049423 L14.2308295,4.56054779 C14.1560541,4.57607976 14.1330608,4.6598453 14.1788584,4.74532472 C14.224656,4.83080414 14.3214168,4.8874155 14.3961922,4.87182997 C14.4709676,4.85624444 14.4939609,4.77456768 14.4481633,4.6890347 C14.4052005,4.60885758 14.317574,4.55219266 14.2450035,4.55851256 C14.2402274,4.55887246 14.2354896,4.55953485 14.2308295,4.56049423 Z M15.4215178,6.7152783 L15.4215643,6.71546419 C15.0504744,6.81905334 14.5148687,5.75360475 14.8551933,4.78100996 C15.0676695,4.56895195 15.0800315,5.85858811 15.2560261,6.02356859 C15.3282922,6.14937201 15.4312308,6.23906563 15.5278954,5.92769401 C15.6330646,5.4997207 15.8051555,4.96183786 16.1535664,4.64330935 C16.2260649,4.5812674 16.3956927,4.5076071 16.4986312,4.71301942 C16.5684342,4.8457009 16.5461735,5.47076779 16.5369718,5.85277893 C16.5880925,6.09239565 16.6760201,6.13110798 16.787928,6.20658074 C16.9076899,6.26439361 17.0638404,6.3040354 17.2079079,6.1490467 C17.3104746,6.02937776 17.3283204,5.9881094 17.4065816,5.86844046 C17.4578417,5.44739168 17.4114613,5.06933078 17.298531,4.83673154 C17.160505,4.46987072 17.3517894,4.29206359 17.396125,4.17448595 C17.4579811,4.06174154 17.5025955,4.01554701 17.5390307,4.01062083 C17.5997714,4.00239504 17.6366248,4.10863318 17.6784508,4.2180315 C17.8659709,4.50783947 17.7911952,5.12681834 17.8510064,5.56864072 C17.9300576,6.15229983 18.078726,6.1918022 18.1699532,6.21169281 C18.3887963,6.23725316 18.513252,6.03741765 18.513252,6.03741765 C18.5838451,5.6165083 18.3696958,5.31824218 18.2518393,5.0858753 C18.1177171,4.91118189 18.1119544,4.74750266 18.1420227,4.61533238 C18.1652129,4.50031078 18.1477389,4.37892232 18.2657813,4.27026757 C18.4343402,4.12898851 18.608476,4.14581187 18.7345582,4.28420959 C18.879834,4.44565809 19.0931933,4.76567375 19.025621,4.87846463 C19.0037785,4.99422981 18.8652414,4.95839883 18.8008293,4.94645518 C18.6731669,4.96471921 18.8112858,5.24983337 18.8112858,5.26363596 C18.8902905,5.4541768 18.8908947,5.71647252 18.9942515,5.90496853 C19.0954705,6.06172323 19.2999533,5.99210611 19.4055408,5.97639811 C19.4884029,5.92574213 19.4934684,5.90901172 19.5763305,5.857891 C19.6398596,5.82192061 19.7392661,5.80862923 19.7296926,5.98336912 C19.7296926,5.98336912 19.5674541,6.45182074 19.3515388,6.55499163 C19.2904727,6.57218678 19.2664925,6.62195976 19.1633216,6.54453512 C19.104068,6.4284911 19.1912986,6.364962 19.2051476,6.3005499 C19.2051476,6.2640683 19.0566187,6.21294759 18.9698529,6.32843392 C18.9134807,6.40748514 18.8840166,6.47905413 18.7624423,6.68744075 C18.672098,6.8446137 18.2826047,6.89982407 18.1001967,6.82686087 C17.8834913,6.71704429 17.8964109,6.55810534 17.7951919,6.46608806 C17.6910451,6.3977722 17.5935904,6.40241954 17.5198372,6.48003007 L17.1887144,6.81115287 C17.1611092,6.83880453 16.8090734,7.12554525 16.3835167,6.79721086 C16.1927435,6.57204736 16.1296326,6.40646272 16.1395315,5.66442234 C16.101005,5.58393046 16.0437498,5.60191566 15.9687418,5.75853093 C15.8591111,6.31653674 15.6892045,6.8261173 15.4215178,6.7152783 Z M14.0192767,6.02222086 C14.0619857,5.99656756 14.0994433,5.98625047 14.1273273,5.98913182 C14.1744513,5.99391857 14.1963402,6.03337447 14.1743583,6.09541642 C14.1267231,6.1989591 14.1223082,6.30389598 14.1429888,6.40739219 C14.1678521,6.46329966 14.1813758,6.4991771 14.2806894,6.48058775 C14.5167742,6.26941274 14.5107326,6.38127415 14.5107326,6.38127415 C14.5107326,6.38127415 14.3923185,6.77908624 14.1935518,6.75422299 C14.1687351,6.75422299 13.9822374,6.81519605 13.864195,6.6478919 C13.7378804,6.45744401 13.8164204,6.13189802 14.0192767,6.02222086 Z M27.1295551,10.9880404 L27.1295087,10.9880869 C27.1357361,10.9880869 27.1604599,11.0942785 27.0859166,11.1501395 C27.0859166,11.1563669 26.6259697,11.4551907 26.427203,11.3993297 C26.3195242,11.3703304 26.3415061,11.2781272 26.3766865,11.2180836 L26.5788457,11.0438084 C26.6574786,10.9485845 26.6278751,10.896116 26.5823312,10.8381637 C26.5036982,10.7884372 26.4268777,10.7946647 26.421998,10.6690936 C26.4344064,10.5863245 26.4582472,10.5563957 26.5265631,10.541896 C26.5897204,10.5366445 26.633266,10.531393 26.6746738,10.5296735 C26.7160815,10.527954 26.7554445,10.5315324 26.8123744,10.541896 C26.9241428,10.5791676 26.9514692,10.6251763 26.920425,10.6934921 C26.8927268,10.7632951 26.8776695,10.7971278 26.8367729,10.8538253 C26.7873717,10.9449131 26.8907749,10.9601564 26.9221445,10.9601564 C26.9880437,10.9681962 27.0861025,10.9383139 27.1295551,10.9880404 Z M28.5569849,5.73794322 L28.5569849,5.7379897 C28.7930231,6.87644796 28.8489771,8.4167615 28.8131926,9.99202301 C28.8079411,10.2606856 28.6872962,10.6997196 28.5848689,10.8616793 C28.2020677,11.4395757 27.6463855,11.4781021 27.1767256,11.5326154 C26.9036945,11.5244825 26.9059253,11.3004344 27.2429502,11.105618 C27.3491883,11.0212688 27.6740372,10.9127535 27.8267952,10.7988937 C27.9795532,10.685034 28.1416058,10.4488098 28.2886011,10.2604068 C28.355058,10.081856 28.3613319,10.0065692 28.3827097,9.86482538 C28.3444621,8.37196116 28.1594051,6.7409316 27.9104008,5.0565506 C27.8685748,4.7886316 27.9045451,4.48529988 28.0079949,4.31585795 C28.0509827,4.22467719 28.0790527,4.18749849 28.1021035,4.18517482 C28.131707,4.18220053 28.1522947,4.23624906 28.1857555,4.30191594 C28.3530597,4.56342162 28.8306666,5.17496476 28.750407,5.25694379 C28.6957079,5.34663741 28.5420669,5.26089403 28.5116733,5.33882988 C28.4928516,5.37210482 28.541881,5.62701128 28.5569849,5.73794322 Z M8.22702113,8.82688903 C8.24830594,8.43172592 9.05485136,7.71984677 9.60556085,7.70980852 C9.96400999,7.71980029 9.87450227,7.84806681 9.96977269,7.99036828 L8.22702113,8.82688903 Z M8.53746327,10.6320543 L8.53746327,10.6315896 C8.6060115,10.54013 8.6604783,10.5571392 8.72916595,10.6646786 C8.77800946,10.8172043 8.68757228,11.2341634 8.48169523,11.3233923 C8.36495411,11.3577826 8.20657285,11.3094967 8.11051238,11.1996337 C7.92973095,10.9671738 7.95886976,10.1880012 8.28650705,9.66601229 C8.32336044,9.61953891 8.35110504,9.57813113 8.36495411,9.57770969 C8.37880317,9.57729461 8.37950027,9.61805176 8.3614686,9.73456051 C8.32763599,9.96186179 8.29742829,10.2488814 8.31964257,10.5605783 C8.3323298,10.7250011 8.39260577,10.9261378 8.53746327,10.6320543 Z M12.6457096,9.84758376 L12.6457561,9.84767671 C12.1637807,11.3844118 9.19780346,12.1837538 9.07488138,10.3234246 C9.07488138,10.0771158 9.06391367,10.0074057 9.10276541,9.75180214 C9.13004528,9.43415662 9.25552339,9.2516092 9.34847014,9.32131927 C9.38945966,9.35347884 9.42482589,9.43480725 9.44257872,9.57576099 C9.45229166,9.80873202 9.48147694,10.1975283 9.57851334,10.3721752 C9.96995858,11.1131002 12.2747591,10.9516517 12.3460028,8.59628814 C12.3390783,8.54307613 12.3198383,8.51458795 12.2989253,8.50566506 C12.2511507,8.48763339 12.183439,8.56120075 12.1612247,8.63462868 C11.8181582,11.2359294 8.74682583,10.9053178 9.66560445,8.53703459 C9.97627896,8.32386122 9.84090202,9.24765897 9.96707723,9.49034293 C10.17077,9.87867445 10.5493421,9.82764668 11.0249507,9.61410153 C11.7988718,9.20318395 11.8382347,8.67143559 11.8022643,8.60855712 C11.8020784,8.60827827 11.8024038,8.60702349 11.8022643,8.60679113 C11.8021249,8.60655876 11.8007307,8.60693055 11.8005448,8.60679113 C11.7422207,8.56798586 11.6065185,8.73064267 11.441538,8.7984938 C11.2409124,8.85031161 11.0116593,8.87480308 10.8211184,8.64513166 C10.7596806,8.44771276 10.7758069,8.2022404 10.8211184,7.97591506 C10.8598308,7.69107975 11.1697617,7.39532319 11.441538,7.39207006 C11.8173682,7.3787322 11.8715561,7.68066971 12.0915611,7.82952393 C12.220943,7.84565019 12.321279,7.68782661 12.2954398,7.5681112 L11.8492954,4.74313416 C11.807237,4.50370333 11.9405226,4.38064184 12.0828241,4.3353303 C12.1261373,4.325385 12.1628512,4.30688859 12.1960797,4.30224125 L12.1959868,4.30224125 C12.2083043,4.30109366 12.2207279,4.3022761 12.2326078,4.30572676 C12.2386303,4.30747679 12.2444672,4.30981157 12.2500353,4.31269776 C12.2524519,4.31404549 12.2563092,4.31613679 12.2587258,4.31790278 C12.2616923,4.32013822 12.2645905,4.32246295 12.2674163,4.32487379 C12.2742768,4.33079168 12.280692,4.33720687 12.2866098,4.34406729 C12.2876323,4.34443908 12.2890265,4.34536855 12.2900953,4.34583328 C12.4236598,4.41238315 12.6612782,5.12133449 12.7728143,5.4698848 C12.6692716,5.59931315 12.5654036,5.51719469 12.452148,5.52044783 L12.7135607,7.48971062 C12.9848258,7.33114346 13.1208069,7.37631558 13.0917146,7.71278281 C13.1144401,7.85833742 13.332772,7.83942276 13.4524874,7.74238635 C13.6304804,7.24079922 13.9234021,7.2829041 13.9945064,7.60645173 C13.9992467,7.68327222 14.0914963,7.69981674 14.144383,7.6709103 C14.1556357,7.66454337 14.1651977,7.65557104 14.172267,7.64474579 C14.1756262,7.63878948 14.1779814,7.63232056 14.179238,7.62559876 L14.2175786,7.37287655 C14.2201346,7.35772623 14.2286392,7.34369127 14.2402576,7.33105051 C14.2888687,7.27983685 14.4095601,7.24507477 14.5592043,7.1986014 C14.5494914,7.50258374 14.5084554,7.79569132 14.4598907,8.08038721 C14.3758204,8.37158938 13.973268,8.44938581 13.7435966,8.28431238 C13.675699,8.21316164 13.5785697,8.24843493 13.5397179,8.30350588 C13.4491878,8.41350836 13.0360395,8.69035025 12.7415842,8.37321594 C12.7380466,8.37340783 12.7345404,8.3739844 12.7311277,8.37493546 C12.7302447,8.37530725 12.7284322,8.37632966 12.7276422,8.37670145 C12.7268521,8.37707324 12.7248538,8.37795623 12.7241567,8.37846744 C12.7234596,8.37897864 12.7213683,8.37962927 12.7206712,8.38018695 C12.6408299,8.4537543 12.8843039,9.05312142 12.6457096,9.84758376 Z M11.499955,8.24753025 L11.500048,8.24743409 C11.5418176,8.19648284 11.5538066,8.12619964 11.5314175,8.0635353 C11.5012098,7.98536029 11.4442799,7.95781153 11.3902779,7.95717986 C11.3825633,7.95709036 11.3751275,7.95805192 11.3675989,7.95901348 C11.3287936,7.96396553 11.2926373,7.9824756 11.2717243,8.00228379 C11.2671794,8.00664188 11.2630834,8.01147551 11.2595018,8.01670722 C11.2592694,8.017188 11.2580611,8.01805341 11.2577823,8.01853419 C11.2308277,8.0672854 11.1697152,8.13161391 11.1897917,8.19700015 C11.2318037,8.25589584 11.2662404,8.26777113 11.3361829,8.27094429 C11.3939493,8.27094429 11.4751382,8.28368499 11.4982355,8.252915 C11.4987467,8.25219382 11.4994903,8.25017454 11.499955,8.24930914 C11.5001409,8.24897259 11.4997691,8.24781872 11.499955,8.24753025 Z M21.3071848,6.46139425 C21.1363023,6.39052235 21.1427156,6.13352459 21.1521032,6.12330045 C21.1448998,6.06906602 21.1522891,5.92685749 21.2775813,5.92639276 C21.3005856,5.93280608 21.3206621,5.93931236 21.3333494,5.95604277 C21.3417146,5.97444623 21.3490109,6.01878183 21.3490109,6.04666585 C21.3490109,6.07352746 21.3664384,6.07966195 21.3803804,6.0954629 C21.4045466,6.11089206 21.3992951,6.10763892 21.4291775,6.10763892 C21.4558996,6.10229448 21.4687263,6.08997904 21.472723,6.05363686 C21.472723,6.02259264 21.4827148,5.99610282 21.4901505,5.9682188 C21.507671,5.94093893 21.5069739,5.9329455 21.5389476,5.93164425 C21.5651586,5.93164425 21.5749644,5.93433971 21.5894641,5.94382027 C21.6039173,5.96440798 21.6278047,6.00019248 21.6278047,6.03272384 C21.6247839,6.13491879 21.6992807,6.14616535 21.7184277,6.12683242 C21.7517956,6.10828955 21.725027,6.04866421 21.7341357,6.01181082 C21.7486354,5.95548509 21.7885561,5.91965412 21.8299638,5.91245075 C21.8713716,5.90524737 21.9145919,5.92588155 21.9380144,5.98039482 C21.941314,6.01032367 21.9502369,6.12018673 21.9502369,6.15290399 C21.968501,6.52273911 21.5365774,6.57079257 21.3071848,6.46139425 Z M25.005536,7.41479554 L25.0054431,7.41474906 C24.793478,7.41079883 24.3490067,7.00229786 24.2194389,6.76295998 C24.1704559,6.62563116 24.2023367,6.49109074 24.2455569,6.41264368 C24.3240505,6.36156944 24.4445559,6.30361714 24.5348537,6.35859515 C24.5348537,6.35859515 24.6284046,6.49006832 24.6098152,6.50670579 C24.7255339,6.56214853 24.7740521,6.53115079 24.7858099,6.48407326 C24.7937104,6.40167596 24.7531856,6.35181003 24.7527209,6.26100106 C24.7833933,6.10708124 24.9032946,6.03421099 25.0158996,6.03969485 C25.0835183,6.04299446 25.1487205,6.07492167 25.1884552,6.13380343 C25.2660658,6.22953858 25.2934851,6.4321625 25.3052428,6.56949132 C25.303988,6.63966612 25.1920337,6.55787298 25.1274822,6.57474281 C25.0629306,6.59161265 25.0471297,6.66597005 25.0421106,6.73335644 C25.0304457,6.91195362 25.0094863,7.19892671 25.005536,7.41479554 Z M23.5762474,10.3944824 L23.5762939,10.3944824 C23.6311324,8.72041853 23.2858353,7.11824893 22.9489033,5.35969643 C22.898805,5.09331104 22.9449066,4.74299474 23.0761009,4.31404549 C23.1291735,4.24405659 23.1578011,4.214546 23.177227,4.21119991 C23.209526,4.20562311 23.2144057,4.27194061 23.253908,4.34364903 C23.3589379,4.61087094 23.6945221,5.06017553 23.8289696,5.36838695 C23.8713998,5.61237217 23.4825106,5.24783501 23.5605858,5.66814021 C23.6253233,5.89042237 23.9449207,8.27427413 23.9579332,8.56807881 C23.9709457,8.86188348 24.0429795,9.16614467 23.9997592,9.66601229 C23.920801,10.0288764 23.7361158,10.3955049 23.5762474,10.3944824 Z M22.3773273,10.0355221 L22.3772808,10.0354756 C22.4770126,9.94852393 22.4989945,9.73061028 22.4870974,9.58059422 C22.3407062,8.02940592 22.2719256,6.67201159 22.047924,5.12086975 C22.0397911,4.84467849 22.1100589,4.5496655 22.2135086,4.38022358 C22.256543,4.28904282 22.2846129,4.25358363 22.3076637,4.25125996 C22.3372672,4.24823919 22.3578549,4.30061469 22.3913157,4.36628157 C22.5586199,4.62778725 22.8532611,5.30732093 22.7730016,5.38929997 C22.7183024,5.47904005 22.615178,5.4419543 22.5847844,5.47820353 C22.5660092,5.51189673 22.5557385,5.64267281 22.5708424,5.75355828 C22.8072524,6.89215596 22.9220417,8.11691528 22.8862572,9.6921768 C22.8810057,9.96093232 22.7011073,10.3075772 22.5987264,10.4694905 C22.2158787,11.1638956 21.8031022,11.4274926 21.3334423,11.4820061 C21.0526037,11.4822847 20.8354801,11.1842045 20.8977544,11.1143085 C21.4766732,10.8952795 22.0084681,10.4206934 22.3773273,10.0355221 Z M21.4620806,5.02676117 L21.4620806,5.02680764 C21.4165832,4.87809284 21.1345363,4.60529413 21.1640469,4.52489519 C21.1133909,4.37771402 21.2434234,4.30358898 21.361001,4.30707449 C21.3772667,4.30753922 21.3939971,4.30856163 21.4097981,4.3122795 C21.6153033,4.39825525 21.7603003,4.81479611 21.7130368,5.01807065 C21.6720938,5.26902687 21.5630673,5.54136085 21.4847131,5.50604108 C21.3995739,5.47443919 21.5438737,5.25587491 21.4620806,5.02676117 Z M25.6037878,7.40554733 L25.6038342,7.40554733 C25.6903212,7.42116239 25.6678746,7.79699257 25.6212618,7.79420417 C25.6416636,7.87906455 24.5716141,8.60423509 24.4953978,8.57495687 C24.4427435,8.61297209 24.3899962,8.28352233 24.4953978,8.18978553 L25.5845943,7.40731332 C25.5907351,7.40508969 25.5973443,7.40448157 25.6037878,7.40554733 Z M24.8555664,5.28961458 L24.8556594,5.289754 C24.7705202,5.18430591 24.6719037,5.00510458 24.6726937,4.90983416 C24.659077,4.73844035 24.6744132,4.50309918 24.6883552,4.29982464 C24.7245115,4.06843371 24.7909684,4.20432185 24.9009709,4.27542612 C25.1203253,4.44468215 25.1953798,4.53423634 25.4516804,4.8156791 C25.7543615,5.19397237 25.0743631,4.78421663 25.540584,5.274046 C25.5621223,5.2968054 25.5824885,5.32064608 25.6016035,5.34547557 L25.584176,5.249601 C25.5679568,5.01040254 25.5253872,4.76548786 25.5092145,4.52633587 C25.5070302,4.39063361 25.5785992,4.28490669 25.6451491,4.2265826 C25.6799576,4.1750901 25.7108624,4.16114809 25.7392577,4.16556306 C25.7676529,4.16997803 25.7922838,4.19274998 25.8142192,4.2143601 L26.3614432,5.22515601 C26.3969953,5.3174986 26.3455028,5.41718399 26.2864817,5.40640217 C26.2499536,5.39018296 26.2420531,5.38753398 26.1836361,5.33841162 C26.1285651,5.33171945 26.1406482,5.34686977 26.1452955,5.39938469 C26.1694152,5.52890598 26.1975781,6.07208679 26.1975781,6.08426281 L26.2236961,6.21847792 L26.8058216,7.07237971 C26.7139438,6.3827613 26.5978533,5.69133043 26.4677278,5.01244737 C26.4171648,4.74606198 26.3696225,4.46601343 26.5008169,4.34323077 C26.6423283,4.15668664 26.7565598,4.11690544 26.8197636,4.23169467 C26.9955724,4.48767002 27.3417061,5.38455968 27.2641885,5.46904828 C27.2123707,5.56046141 27.1073409,5.47908653 27.0794568,5.55795184 C27.0616575,5.59183093 27.1182156,5.94428501 27.1369444,6.0546128 C27.2052138,6.33717092 27.2504789,6.69483001 27.295558,6.93295958 C27.324511,7.08567109 27.3882259,7.58358683 27.4349782,8.00649454 C27.6716206,8.34119579 27.9771366,8.77381644 28.2157309,9.17413809 C28.3050527,9.28446588 28.3534315,10.0844121 28.2122454,10.1587695 C27.9843864,9.74947847 27.743329,9.34520658 27.4942317,8.94753391 L27.4942317,9.59411798 C27.4976707,9.86278056 26.9841864,10.430081 27.0010098,10.2877331 C27.0244788,9.57195018 26.9921334,8.8250301 26.9208432,8.06751409 L26.4293873,7.35475194 C26.4540182,8.21822724 26.5087638,9.77029854 26.3980178,10.0664734 C26.2948004,10.3200786 26.1804294,10.4486239 26.0041559,10.5474728 C25.7462287,10.7237463 25.4844906,10.6886124 25.2652292,10.4951902 C25.1305494,10.4234818 25.0223129,10.337692 24.9306209,10.2058935 C24.8360476,10.1055575 24.6420678,10.0666128 24.5646431,10.2930311 C24.4543153,10.4162785 24.4511551,11.0393005 24.2160928,11.2829139 C24.1157103,11.4037447 23.93386,11.5106335 23.7002383,11.338682 C23.4437053,11.2082777 23.3370954,11.0394864 23.2052969,10.7757965 C23.1149991,10.615231 22.937982,9.86868267 23.337746,9.41816978 L23.342161,9.39995222 C23.3195285,9.51613565 23.2163576,10.1826568 23.5799652,10.6799219 C23.756657,10.8526634 23.9156424,10.7764471 23.9720611,10.6868929 C24.1909042,10.2855953 24.3365983,9.70300509 24.6586588,9.39200527 C24.7754463,9.28455883 24.8848911,9.24152448 25.0490351,9.39200527 C25.0490351,9.39200527 25.3696549,9.89484718 25.449868,9.92705323 C25.5601493,10.0323154 25.7252227,9.93750974 25.7252227,9.93750974 C25.8332733,9.890804 25.947319,9.39851154 25.9569854,9.02779343 C25.8887625,8.16106499 25.8708238,7.3679039 25.8036233,6.50256966 C25.4952759,6.09231329 25.1792005,5.68792268 24.8555664,5.28961458 Z M27.5587832,5.68254696 C27.5172825,5.52109846 27.2617719,5.22571369 27.2886335,5.13880848 C27.2423925,4.9794048 27.3592266,4.89807639 27.4663942,4.90179426 C27.4817182,4.90234278 27.4969254,4.90468236 27.5117057,4.90876527 C27.6991328,5.00189791 27.8095071,5.52481633 27.7888264,5.67380997 C27.7515548,5.946051 27.6511258,6.24018099 27.5796963,6.20188693 C27.5020857,6.16772899 27.5960549,5.79747562 27.5587832,5.68254696 Z M19.4333784,11.0438084 L19.4333784,11.0439014 C19.4333784,11.0351179 19.3711041,10.9830677 19.4141849,10.8434617 C19.4218065,10.7314609 19.3767273,10.6704413 19.2834553,10.6831286 C19.2131875,10.7210973 19.151285,10.7464718 19.1161511,10.6657011 C19.1023021,10.6060757 19.09719,10.5762398 19.1422692,10.5419425 C19.2161618,10.4338919 19.4460656,10.2787637 19.4507129,10.2787637 C19.474446,10.2668756 19.5009,10.2614726 19.527394,10.2631022 C19.6004966,10.267006 19.6575195,10.3182661 19.6528721,10.3136188 C19.6703926,10.4190204 19.5846957,10.5181016 19.6110461,10.6586836 C19.6340969,10.7153346 19.6518962,10.7784919 19.7557177,10.7545117 C19.9244625,10.6217372 20.0802413,10.6131397 20.2489396,10.604635 C20.378275,10.6124426 20.3830153,10.8313322 20.3012222,10.8329587 C19.9896647,10.9006704 19.8510346,10.9832536 19.6285666,11.068207 C19.5231649,11.1296448 19.4333784,11.0525454 19.4333784,11.0438084 Z M20.4852567,8.82293879 L20.4853962,8.82279937 C20.4722442,8.83553308 20.4371568,8.84440949 20.3825506,8.93433547 C20.3039176,9.06390324 20.1864329,9.36221584 20.1803914,9.56172603 C19.5865546,9.75259218 18.9729667,9.8365231 18.3487363,9.91199586 C18.131845,10.021673 18.023655,10.1675065 18.0681765,10.3320222 C18.1388625,10.5087605 18.5942551,10.6862888 18.6223715,10.7049711 C18.7135987,10.7622727 18.8211381,10.8967202 18.596207,11.170309 C17.623984,11.1274605 16.8719983,10.7119885 16.6111897,10.1280971 C16.5326497,10.0671705 16.4476035,10.1293518 16.393369,10.2082636 C16.013821,10.6975353 15.6410116,11.1385212 14.9939163,11.3724217 C14.6080479,11.4688074 14.2114906,11.3131681 14.0249464,11.0604459 C13.9059281,10.9233494 13.9025356,10.7711956 13.8628938,10.7276036 C13.8612672,10.7258841 13.8595477,10.7237463 13.8576888,10.7223521 C13.6491162,10.8146017 11.8543145,11.5777875 12.0818017,11.222545 C12.5180473,10.7550694 13.2769575,10.411817 13.9447799,9.95033639 C13.9929727,9.79576595 14.0800639,9.27363758 14.3438467,9.10331266 L14.3455662,9.10331266 L14.3455662,9.10507865 L14.3472858,9.10679817 L14.3472858,9.10856416 C14.3507713,9.15434043 14.3019742,9.4210976 14.3072257,9.53904703 C14.3090846,9.6035056 14.3048091,9.64356565 14.3072257,9.65927365 C14.3077804,9.66044451 14.3083536,9.66160649 14.3089452,9.66275915 L14.3089452,9.66452514 C14.3094949,9.66513627 14.3100685,9.66572539 14.3106647,9.66629113 L14.3141502,9.66629113 C14.3147148,9.6656941 14.315288,9.66510537 14.3158698,9.66452514 C14.3164258,9.66392007 14.3169992,9.66333117 14.3175893,9.66275915 L14.3193088,9.66103964 C14.3198665,9.66048196 14.3239097,9.65820476 14.3245138,9.65755413 C14.3814902,9.6192136 15.1791127,8.99042884 15.2412476,8.79663486 C15.3177892,8.68858427 15.2688063,8.42033995 15.2656461,8.39580201 L15.2656461,8.39403602 C15.1136317,8.00235841 14.900226,7.96824696 14.8212212,7.77361646 C14.7500705,7.51513155 14.7814865,7.21979325 14.9292718,7.13753538 C15.0604662,7.01842412 15.2164308,7.03352797 15.3597547,7.16365342 C15.5234339,7.31027692 15.6679661,7.59683174 15.7100245,7.81023748 C15.6826052,7.89272772 15.5049375,7.76181223 15.4364358,7.79457595 L15.4347163,7.79634194 C15.5483437,7.91447726 15.599232,8.05152724 15.6403609,8.21808782 C15.7459484,8.66511521 15.71351,8.83873974 15.6072719,9.12780413 C15.247475,9.88471599 14.7879463,10.1110413 14.3856263,10.3912758 L14.3839068,10.3930418 L14.3839068,10.3947613 C14.3754022,10.4238071 14.3785623,10.5902748 14.5180754,10.684058 L14.5197949,10.685824 C14.5760277,10.7388501 14.7857621,10.76534 15.0286784,10.6875435 C15.5054023,10.4275715 15.9993678,9.94898867 16.2450725,9.41538138 C16.3163627,9.01176012 16.2192798,8.58429801 16.1143429,8.21111681 C15.9587036,7.85155231 15.7749478,7.34118171 15.7692781,7.3171085 C15.7631436,7.0896678 15.7810358,7.01061659 15.8808142,6.89712861 C15.9399748,6.85520963 15.9664181,6.81635789 15.9888648,6.79953453 C15.9905607,6.79831539 15.9922967,6.79715292 15.9940698,6.79604902 C15.9968117,6.79456187 15.999786,6.79195937 16.0027603,6.79081128 L16.0134492,6.79081128 C16.0143787,6.79089048 16.0160052,6.79075106 16.0169347,6.79081128 C16.0459806,6.79572371 16.0914315,6.83754975 16.1946954,6.94072064 C16.4839921,7.43533677 16.6687238,8.07759881 16.6966078,8.64513166 C16.6869413,8.75550593 16.7482862,8.8340924 16.7959214,8.84729084 C16.7982264,8.84795072 16.8005512,8.84853966 16.8028924,8.84905683 C16.8040541,8.84907952 16.8052162,8.84907952 16.8063779,8.84905683 L16.8133489,8.84905683 C16.8150978,8.84850997 16.8168333,8.84792113 16.8185539,8.84729084 L16.8220394,8.84729084 L16.8255249,8.84557133 L16.8272445,8.84380534 L16.828964,8.84380534 C16.8558256,8.51500621 17.6548888,8.05677874 18.3870303,7.98985708 C18.4990312,7.9655515 18.4437279,7.75075156 18.4619919,7.64130676 C18.418121,7.23485063 18.6903156,6.86561966 19.0720014,6.83610907 C19.5913879,6.91292956 19.7632464,7.19051503 19.7725411,7.61342274 C19.7164012,8.42614912 18.8713759,8.56463978 18.3957209,8.62947013 C18.3662567,8.64062374 18.3422765,8.65298566 18.3329818,8.66609115 L18.3312623,8.66957666 L18.3295428,8.67134264 L18.3295428,8.67654766 C18.3295485,8.67712082 18.3295485,8.67769402 18.3295428,8.67826718 L18.3295428,8.68523818 L18.3312623,8.68700417 L18.3312623,8.68872369 L18.3329818,8.69048968 L18.3347013,8.69397518 L18.3364208,8.69569469 L18.3381404,8.69746068 C18.3388375,8.69815778 18.3407893,8.70020261 18.3416259,8.70094618 C18.352733,8.70986907 18.370997,8.71934964 18.3956279,8.72883021 L20.3876162,8.73752073 L20.4886958,8.79677428 C20.4901324,8.80246563 20.4907119,8.80833944 20.4904907,8.8142018 L20.4904907,8.8176873 C20.49009,8.81805909 20.4888352,8.81922092 20.4886958,8.81945329 C20.4885564,8.81968566 20.4871622,8.82098691 20.4869763,8.82117281 L20.4852567,8.82293879 Z M18.84233,7.58241778 L18.8423765,7.58247299 C18.8421441,7.5841293 18.8408428,7.58705544 18.840657,7.58871175 C18.8354519,7.64844928 18.8840166,7.73126471 18.9626496,7.78537079 C19.0456045,7.8423478 19.1336716,7.84842093 19.1717797,7.80607464 C19.1757301,7.80173564 19.1792394,7.7968624 19.1822363,7.79155434 C19.1828426,7.79019387 19.183416,7.78881305 19.1839558,7.78741357 C19.1842811,7.78647499 19.18535,7.78426658 19.1856753,7.78327279 L19.1873948,7.77708924 C19.1878131,7.77554336 19.1906015,7.77250679 19.1908803,7.77090569 C19.1911591,7.76930459 19.1906479,7.76632324 19.1908803,7.76466693 C19.1971542,7.70487419 19.1482177,7.62250045 19.0688877,7.56795268 C19.0140956,7.53029927 18.9571657,7.5127424 18.913806,7.51826343 C18.8938225,7.5208031 18.8758838,7.52925027 18.863243,7.54106528 C18.8601063,7.54422787 18.8571848,7.54768006 18.854506,7.5513896 L18.8527865,7.55343238 C18.8514388,7.55619289 18.8504164,7.55939509 18.849301,7.56171392 C18.8460329,7.56811174 18.8436775,7.57510732 18.84233,7.58241778 Z M18.0460087,9.56720989 L18.0461481,9.56734931 C18.262807,9.49122592 18.1484825,9.31011918 17.9171845,9.29548007 C17.6331393,9.26615537 17.3060132,9.25992794 17.0841028,9.1996055 C17.0829411,9.1995828 17.081779,9.1995828 17.0806173,9.1996055 C17.0737857,9.19965197 17.0679765,9.19914076 17.0614703,9.1996055 C16.9279058,9.20899312 16.8449043,9.30472827 16.8523401,9.41570669 C16.9049944,9.90753442 17.2747831,10.1366946 17.4065351,10.2313144 C17.4615131,10.260035 17.5352663,10.3084602 17.5860617,10.3010245 C17.5892219,10.3004668 17.5935439,10.3002809 17.5965182,10.2992585 C17.6001637,10.2978653 17.6036655,10.2961221 17.6069747,10.2940535 C17.6081175,10.293428 17.60928,10.292839 17.6104602,10.2922875 L17.6121798,10.2905215 C17.6127918,10.2899885 17.6133663,10.289414 17.6138993,10.288802 L17.6156188,10.287036 L17.6173383,10.28527 C17.6198574,10.2825191 17.6221864,10.2796 17.6243093,10.276533 C17.6481966,10.2396796 17.6541452,10.1593736 17.6260288,10.0063833 C17.6269583,9.69756771 17.8322312,9.64040546 18.0460087,9.56720989 Z M13.3719955,8.88753678 L13.3719955,8.88758326 C13.337187,8.76559065 13.4144257,8.71934964 13.5009591,8.7133081 C13.5296021,8.71164565 13.5583369,8.71399199 13.5863307,8.72027911 C13.7655321,8.78864144 13.8710266,9.17186089 13.851229,9.28139864 C13.8154909,9.48137357 13.7207782,9.6963594 13.6525553,9.66828948 C13.5781979,9.64319386 13.6673338,9.37281176 13.6316423,9.28836964 C13.6165384,9.08365443 13.3667905,8.97602209 13.3719955,8.88753678 Z M17.3865515,7.6394943 L17.3866445,7.6394943 C17.2157619,7.56862241 17.2221752,7.31162464 17.2315628,7.3014005 C17.2243594,7.24716607 17.2317487,7.10495755 17.3570409,7.10449281 C17.3799988,7.11085966 17.4018413,7.11736594 17.4145285,7.13409635 C17.4228937,7.15245333 17.4284705,7.19683541 17.4284705,7.22471943 C17.4284705,7.25158104 17.4476175,7.25780848 17.4615596,7.27351648 C17.4854004,7.28899211 17.4787547,7.28573897 17.5086371,7.28573897 C17.5353593,7.28039454 17.5481859,7.26807909 17.5521826,7.23169044 C17.5521826,7.2006927 17.5621744,7.17420287 17.5696102,7.14631885 C17.5875953,7.1189925 17.588153,7.11099908 17.6201267,7.10969783 C17.6463842,7.10969783 17.6544241,7.11239329 17.6689238,7.12192033 C17.683377,7.14250803 17.7072643,7.17829253 17.7072643,7.21082389 C17.7042435,7.31301884 17.7787403,7.3242654 17.7978874,7.30493248 C17.8312088,7.28634313 17.8044401,7.22499827 17.8135489,7.18814489 C17.8280486,7.13237684 17.8679692,7.09775417 17.909377,7.0905508 C17.9507848,7.08334743 17.994005,7.1039816 18.0174276,7.15849487 C18.0206807,7.1884702 18.0296036,7.29833326 18.0296036,7.33105051 C18.1626569,7.68448053 17.6159441,7.74889263 17.3865515,7.6394943 Z M19.3288598,5.11348049 L19.3289992,5.11343401 C19.2484608,5.004361 19.0848745,4.81623678 19.0588494,4.70386416 C19.0248309,4.5353517 19.0129338,4.42530275 19.0361704,4.22286473 C19.053505,4.13688899 19.0998854,4.10273106 19.158163,4.09738662 C19.2552924,4.08809194 19.3824436,4.16151988 19.4492258,4.20892272 L19.9319447,4.6184461 C19.986684,4.68464373 20.0384298,4.75326077 20.0870264,4.82409078 C20.0613266,4.66845145 20.0601183,4.50249503 20.1480459,4.3030313 C20.2955989,4.10737839 20.2932752,4.13493711 20.3885456,4.26994226 C20.6840234,4.68504244 20.9341431,4.99306797 21.0159362,5.44627632 C21.0508377,5.71001273 20.7989055,5.20503303 20.8642936,5.65889201 C20.8907834,5.7687086 20.9314476,6.13231628 20.9688587,6.56163732 C21.1721797,6.86255242 21.3437129,7.12396516 21.3940901,7.21691191 C21.5336031,7.47581508 21.9712894,8.14888896 22.2880984,8.83074632 C22.3725405,8.94483846 22.4045142,9.75728599 22.2602143,9.8258807 C21.8866293,9.07931 21.4813695,8.34901426 21.0455397,7.63698474 C21.0546021,7.80075691 21.0627349,7.95718629 21.0664528,8.08833416 C21.0717507,8.40421369 21.1509878,9.49629152 21.0925708,10.0315254 C21.0027378,10.4184162 20.7468554,10.6826174 20.5871729,10.6763435 C20.6400131,9.77871022 20.6224461,8.71763013 20.5645403,7.86530843 C20.538097,7.47655865 20.4965498,7.08622878 20.4407817,6.68720838 C20.0834479,6.14983675 19.7134269,5.63040383 19.3288598,5.11348049 Z M20.1770923,5.08294748 L20.1771477,5.08294748 C20.0661061,5.1096232 19.8330129,5.03150145 20.0609607,5.25898862 C20.0968127,5.29235651 20.1801907,5.38651156 20.280886,5.50297384 C20.2569294,5.40788932 20.2344113,5.31196827 20.2082415,5.2153966 C20.2004404,5.17064274 20.1881578,5.12663245 20.1770923,5.08294748 Z" id="Combined-Shape" fill="#FFFFFF" fill-rule="nonzero"></path>
        <path d="M4,1 C2.34314575,1 1,2.34314575 1,4 L1,20 C1,21.6568542 2.34314575,23 4,23 L32,23 C33.6568542,23 35,21.6568542 35,20 L35,4 C35,2.34314575 33.6568542,1 32,1 L4,1 Z M4,0 L32,0 C34.209139,0 36,1.790861 36,4 L36,20 C36,22.209139 34.209139,24 32,24 L4,24 C1.790861,24 0,22.209139 0,20 L0,4 C0,1.790861 1.790861,0 4,0 Z" id="Mask" fill="#031619" fill-rule="nonzero" opacity="0.2"></path>
    </g>
</svg>