<?xml version="1.0" encoding="UTF-8"?>
<svg width="36px" height="24px" viewBox="0 0 36 24" version="1.1" xmlns="http://www.w3.org/2000/svg" xmlns:xlink="http://www.w3.org/1999/xlink">
    <!-- Generator: Sketch 55.2 (78181) - https://sketchapp.com -->
    <title>Flag / MY</title>
    <desc>Created with Sketch.</desc>
    <g id="Flag-/-MY" stroke="none" stroke-width="1" fill="none" fill-rule="evenodd">
        <path d="M4,0 L32,0 C34.209139,0 36,1.790861 36,4 L36,20 C36,22.209139 34.209139,24 32,24 L4,24 C1.790861,24 0,22.209139 0,20 L0,4 C0,1.790861 1.790861,0 4,0 Z" id="Mask" fill="#FFFFFF"></path>
        <path d="M35.8739825,21 C35.4299397,22.7252272 33.8638394,24 32,24 L4,24 C2.13616057,24 0.570060278,22.7252272 0.126017485,21 L35.8739825,21 L35.8739825,21 Z" id="Path" fill="#CC0001"></path>
        <path d="M4,0 L32,0 C33.8638394,0 35.4299397,1.27477279 35.8739825,3 L0.126017485,3 C0.570060278,1.27477279 2.13616057,0 4,0 Z" id="Path" fill="#CC0001"></path>
        <polygon id="Path" fill="#CC0001" fill-rule="nonzero" points="0 5 36 5 36 7 0 7"></polygon>
        <polygon id="Path" fill="#CC0001" fill-rule="nonzero" points="0 9 36 9 36 11 0 11"></polygon>
        <polygon id="Path" fill="#CC0001" fill-rule="nonzero" points="0 13 36 13 36 15 0 15"></polygon>
        <polygon id="Path" fill="#CC0001" fill-rule="nonzero" points="0 17 36 17 36 19 0 19"></polygon>
        <path d="M4,0 L17,0 L17,13 L0,13 L0,4 C0,1.790861 1.790861,0 4,0 Z" id="Rectangle" fill="#010066"></path>
        <polygon id="Shape" fill="#FFCC00" fill-rule="nonzero" points="11.86 7.902 11.165 9.272 11.185 7.736 9.933 8.626 10.664 7.274 9.142 7.479 10.418 6.622 8.975 6.096 10.502 5.931 9.468 4.794 10.897 5.358 10.51 3.87 11.513 5.034 11.861 3.537 12.209 5.034 13.212 3.87 12.825 5.358 14.254 4.794 13.22 5.93 14.747 6.095 13.304 6.621 14.579 7.478 13.057 7.273 13.789 8.625 12.536 7.735 12.556 9.272"></polygon>
        <path d="M11.082,3.743 C9.89719603,2.21997173 7.87575669,1.61774701 6.05062401,2.24405866 C4.22549134,2.8703703 2.99975292,4.58689498 2.99975292,6.5165 C2.99975292,8.44610502 4.22549134,10.1626297 6.05062401,10.7889413 C7.87575669,11.415253 9.89719603,10.8130283 11.082,9.29 C10.444,9.754 9.642,10.03 8.772,10.03 C6.692,10.03 5.007,8.457 5.007,6.517 C5.007,4.577 6.693,3.004 8.771,3.004 C9.642,3.004 10.444,3.28 11.081,3.744 L11.082,3.743 Z" id="Shape" fill="#FFCC00" fill-rule="nonzero"></path>
        <path d="M4,1 C2.34314575,1 1,2.34314575 1,4 L1,20 C1,21.6568542 2.34314575,23 4,23 L32,23 C33.6568542,23 35,21.6568542 35,20 L35,4 C35,2.34314575 33.6568542,1 32,1 L4,1 Z M4,0 L32,0 C34.209139,0 36,1.790861 36,4 L36,20 C36,22.209139 34.209139,24 32,24 L4,24 C1.790861,24 0,22.209139 0,20 L0,4 C0,1.790861 1.790861,0 4,0 Z" id="Mask" fill="#031619" fill-rule="nonzero" opacity="0.2"></path>
    </g>
</svg>