<?xml version="1.0" encoding="UTF-8"?>
<svg width="36px" height="24px" viewBox="0 0 36 24" version="1.1" xmlns="http://www.w3.org/2000/svg" xmlns:xlink="http://www.w3.org/1999/xlink">
    <!-- Generator: Sketch 55.2 (78181) - https://sketchapp.com -->
    <title>Flag / CY</title>
    <desc>Created with Sketch.</desc>
    <g id="Flag-/-CY" stroke="none" stroke-width="1" fill="none" fill-rule="evenodd">
        <path d="M4,0 L32,0 C34.209139,0 36,1.790861 36,4 L36,20 C36,22.209139 34.209139,24 32,24 L4,24 C1.790861,24 0,22.209139 0,20 L0,4 C0,1.790861 1.790861,0 4,0 Z" id="Mask" fill="#F7F7F7"></path>
        <path d="M21.237,18.712 C20.8437733,18.8428915 20.4188915,18.6302267 20.288,18.237 C20.1571086,17.8437733 20.3697733,17.4188915 20.763,17.288 C21.4605449,17.0371253 22.125597,16.7037599 22.744,16.295 C23.484,15.802 24.036,15.251 24.329,14.665 C24.447431,14.4230965 24.68648,14.263272 24.9552818,14.2462775 C25.2240836,14.2292831 25.4813578,14.3577285 25.6293118,14.5827903 C25.7772658,14.8078521 25.793178,15.0949672 25.671,15.335 C25.244,16.189 24.515,16.918 23.576,17.544 C23.066,17.884 22.522,18.174 21.98,18.415 C21.7369582,18.5251992 21.489036,18.6243014 21.237,18.712 Z M14.763,18.712 C14.510964,18.6243014 14.2630418,18.5251992 14.02,18.415 C13.4644148,18.1701423 12.9305152,17.8787723 12.424,17.544 C11.484,16.918 10.756,16.189 10.329,15.335 C10.206822,15.0949672 10.2227342,14.8078521 10.3706882,14.5827903 C10.5186422,14.3577285 10.7759164,14.2292831 11.0447182,14.2462775 C11.31352,14.263272 11.552569,14.4230965 11.671,14.665 C11.964,15.251 12.515,15.802 13.256,16.296 C13.8744519,16.7044122 14.5395021,17.0374409 15.237,17.288 C15.4913731,17.3726719 15.6812516,17.5866185 15.7351101,17.849248 C15.7889686,18.1118776 15.6986247,18.3832904 15.4981101,18.561248 C15.2975955,18.7392056 15.0173731,18.7966719 14.763,18.712 L14.763,18.712 Z M18,19 C17.4477153,19 17,18.5522847 17,18 C17,17.4477153 17.4477153,17 18,17 C18.5522847,17 19,17.4477153 19,18 C19,18.5522847 18.5522847,19 18,19 Z" id="Shape" fill="#445128" fill-rule="nonzero"></path>
        <path d="M26.335,4 C26.702,4 26.869,4.26 26.7,4.594 L26.157,5.665 C25.9455019,6.0395123 25.633852,6.34769942 25.257,6.555 L24.172,7.092 C23.84,7.256 23.362,7.596 23.093,7.861 L22.907,8.045 C22.643,8.306 22.691,8.647 23.029,8.815 L24.114,9.351 C24.445,9.514 24.452,9.777 24.114,9.944 L23.029,10.48 C22.697,10.644 22.129,10.777 21.764,10.777 L21.951,10.777 C21.583,10.777 21.076,10.984 20.808,11.249 L20.621,11.434 C20.357,11.694 19.881,12.036 19.542,12.203 L18.458,12.739 C18.126,12.903 17.557,13.036 17.192,13.036 L17.379,13.036 C17.012,13.036 16.505,13.243 16.236,13.508 L16.049,13.693 C15.785,13.953 15.279,14.069 14.943,13.958 L12.772,13.243 C12.424,13.128 12.012,12.777 11.842,12.443 L11.3,11.37 C11.134,11.042 11,10.48 11,10.107 L11,10.317 C11,9.947 11.262,9.517 11.6,9.351 L12.685,8.815 C13.017,8.651 13.586,8.518 13.951,8.518 L13.764,8.518 C14.131,8.518 14.56,8.258 14.729,7.924 L15.271,6.852 C15.437,6.525 15.864,6.259 16.232,6.259 L21.768,6.259 C22.133,6.259 22.691,6.129 23.029,5.962 L24.114,5.426 C24.445,5.262 24.924,4.922 25.192,4.657 L25.379,4.472 C25.643,4.212 26.157,4 26.522,4 L26.335,4 Z" id="Shape" fill="#E7832C" fill-rule="nonzero"></path>
        <path d="M4,1 C2.34314575,1 1,2.34314575 1,4 L1,20 C1,21.6568542 2.34314575,23 4,23 L32,23 C33.6568542,23 35,21.6568542 35,20 L35,4 C35,2.34314575 33.6568542,1 32,1 L4,1 Z M4,0 L32,0 C34.209139,0 36,1.790861 36,4 L36,20 C36,22.209139 34.209139,24 32,24 L4,24 C1.790861,24 0,22.209139 0,20 L0,4 C0,1.790861 1.790861,0 4,0 Z" id="Mask" fill="#031619" fill-rule="nonzero" opacity="0.2"></path>
    </g>
</svg>