<?xml version="1.0" encoding="UTF-8"?>
<svg width="36px" height="24px" viewBox="0 0 36 24" version="1.1" xmlns="http://www.w3.org/2000/svg" xmlns:xlink="http://www.w3.org/1999/xlink">
    <!-- Generator: Sketch 55.2 (78181) - https://sketchapp.com -->
    <title>Flag / AO</title>
    <desc>Created with Sketch.</desc>
    <g id="Flag-/-AO" stroke="none" stroke-width="1" fill="none" fill-rule="evenodd">
        <path d="M4,0 L32,0 C34.209139,0 36,1.790861 36,4 L36,20 C36,22.209139 34.209139,24 32,24 L4,24 C1.790861,24 0,22.209139 0,20 L0,4 C0,1.790861 1.790861,0 4,0 Z" id="Mask" fill="#000000"></path>
        <path d="M4,0 L32,0 C34.209139,0 36,1.790861 36,4 L36,12 L0,12 L0,4 C0,1.790861 1.790861,0 4,0 Z" id="Rectangle" fill="#CC092F"></path>
        <path d="M4,1 C2.34314575,1 1,2.34314575 1,4 L1,20 C1,21.6568542 2.34314575,23 4,23 L32,23 C33.6568542,23 35,21.6568542 35,20 L35,4 C35,2.34314575 33.6568542,1 32,1 L4,1 Z M4,0 L32,0 C34.209139,0 36,1.790861 36,4 L36,20 C36,22.209139 34.209139,24 32,24 L4,24 C1.790861,24 0,22.209139 0,20 L0,4 C0,1.790861 1.790861,0 4,0 Z" id="Mask" fill="#031619" fill-rule="nonzero" opacity="0.2"></path>
        <path d="M14.81104,8.4432 L16.2768,8.4432 L16.72128,7.06172 L17.17768,8.4432 L18.64328,8.4432 L17.46596,9.32024 L17.92232,10.72564 L16.72128,9.87268 L15.53204,10.72564 L15.98844,9.32024 L14.81104,8.4432 Z M20.16876,15.99956 L19.01568,15.09836 C20.18076,14.1494 20.93776,12.6958 20.93776,11.07416 C20.93776,8.59952 19.172,6.5212 16.84132,6.02868 L17.02148,5.18768 C17.34588,5.2598 17.72644,5.39636 18.03876,5.50432 L18.33916,5 C18.66316,5.156 19.02388,5.31212 19.324,5.50432 L19.09588,6.04504 C19.39628,6.23736 19.75888,6.53508 19.96052,6.76952 L20.4116,6.41716 C20.65192,6.68132 20.94032,6.95744 21.14452,7.246 L20.73608,7.66648 C20.99984,8.05368 21.1018,8.23188 21.29624,8.67796 L21.86932,8.54356 C21.97756,8.87988 22.14188,9.29164 22.20212,9.63988 L21.65948,9.85316 C21.72428,10.1238 21.8082,10.59652 21.8028,10.99416 C21.80236,11.01808 21.80056,11.0452 21.80056,11.06928 L22.36724,11.15012 C22.34324,11.4986 22.33136,11.89512 22.25908,12.24344 L21.67052,12.24344 C21.58652,12.60364 21.47812,13.04424 21.34612,13.38044 L21.83844,13.66896 C21.6824,13.98116 21.52644,14.35364 21.32212,14.654 L20.78156,14.42588 C20.57716,14.72608 20.34916,15.01428 20.09684,15.27872 L20.44508,15.73512 C20.34916,15.81912 20.265,15.90332 20.16876,15.99956 Z M17.63428,15.89136 L18.50516,16.41616 C18.42396,16.49044 18.18068,16.6164 18.1162,16.64192 L18.2586,17.18856 C17.92232,17.29688 17.5618,17.45288 17.18964,17.52504 L16.97344,16.98452 C16.62504,17.05652 16.2768,17.10452 15.91636,17.10452 L15.84408,17.66908 C15.50784,17.64516 15.0994,17.66908 14.72696,17.585 L14.72696,17.0206 C14.39052,16.96036 14.0662,16.87636 13.754,16.76812 L13.4776,17.261 C13.18932,17.1406 12.80496,16.9964 12.49248,16.80436 L12.6968,16.2638 C12.4444,16.13152 12.2162,15.96344 12,15.795 L12.5406,15.11028 C13.42964,15.81916 14.54672,16.2394 15.77208,16.2394 C16.42092,16.2394 17.05736,16.13152 17.63428,15.8914 L17.63428,15.89136 Z M21.2644,17.28376 L15.5152,12.90852 L15.4628,12.98316 L21.1972,17.36608 L20.85684,17.79196 L15.26672,14.20636 C13.75316,13.25732 13.81324,12.5126 14.1256,11.70772 L14.38992,11.05904 C14.53412,11.89996 15.39884,12.5368 16.29984,13.24536 L21.3764,17.14524 L21.2644,17.28376 Z M22.70776,18.58776 L22.70776,18.5878 C22.731523,18.5878212 22.7543194,18.5783936 22.7711261,18.5615944 C22.7879328,18.5447952 22.7973706,18.522003 22.79736,18.49824 C22.79736,18.44896 22.75724,18.40896 22.70776,18.40896 C22.6840888,18.40896 22.6613883,18.4183688 22.6446578,18.4351144 C22.6279272,18.4518599 22.6185388,18.4745688 22.6185594,18.49824 C22.6184749,18.5219527 22.6278352,18.5447234 22.6445727,18.5615209 C22.6613101,18.5783184 22.6840471,18.5877602 22.70776,18.58776 Z M22.36416,18.33548 C22.4135563,18.3354579 22.4535821,18.2953963 22.45356,18.246 C22.4535379,18.1966037 22.4134763,18.1565779 22.36408,18.1566 C22.3146837,18.1566221 22.2746579,18.1966837 22.27468,18.24608 C22.2747901,18.2954398 22.3148001,18.335414 22.36416,18.33548 Z M22.01256,18.05524 C22.06192,18.05524 22.10192,18.01524 22.10192,17.966 C22.100474,17.9176667 22.0608749,17.8792346 22.01252,17.8792346 C21.9641651,17.8792346 21.924566,17.9176667 21.92312,17.966 C21.92312,18.01524 21.96328,18.05524 22.01256,18.05524 Z M23.19472,18.55124 L23.19472,18.5512 C23.4854,18.77148 23.53816,19.09592 23.34456,19.3316 C23.34456,19.3316 23.22476,19.46384 23.04424,19.44 C22.59996,19.37984 22.58816,18.99512 22.46796,18.91112 L20.97156,17.86172 L21.47212,17.21664 L23.19472,18.55124 Z" id="Combined-Shape" fill="#FFCB00"></path>
    </g>
</svg>