<?xml version="1.0" encoding="UTF-8"?>
<svg width="36px" height="24px" viewBox="0 0 36 24" version="1.1" xmlns="http://www.w3.org/2000/svg" xmlns:xlink="http://www.w3.org/1999/xlink">
    <!-- Generator: Sketch 55.2 (78181) - https://sketchapp.com -->
    <title>Flag / BO</title>
    <desc>Created with Sketch.</desc>
    <g id="Flag-/-BO" stroke="none" stroke-width="1" fill="none" fill-rule="evenodd">
        <path d="M4,0 L32,0 C34.209139,0 36,1.790861 36,4 L36,20 C36,22.209139 34.209139,24 32,24 L4,24 C1.790861,24 0,22.209139 0,20 L0,4 C0,1.790861 1.790861,0 4,0 Z" id="Mask" fill="#FCE300"></path>
        <path d="M4,0 L32,0 C34.209139,0 36,1.790861 36,4 L36,8 L0,8 L0,4 C0,1.790861 1.790861,0 4,0 Z" id="Rectangle" fill="#E70000"></path>
        <path d="M0,16 L36,16 L36,20 C36,22.209139 34.209139,24 32,24 L4,24 C1.790861,24 0,22.209139 0,20 L0,16 Z" id="Rectangle" fill="#007C2A"></path>
        <circle id="Oval" fill="#00A8E2" fill-rule="nonzero" cx="18" cy="12" r="2"></circle>
        <circle id="Oval" fill="#007C2A" fill-rule="nonzero" cx="18" cy="12" r="1"></circle>
        <circle id="Oval-Copy" fill="#493522" fill-rule="nonzero" cx="18" cy="10" r="1"></circle>
        <path d="M4,1 C2.34314575,1 1,2.34314575 1,4 L1,20 C1,21.6568542 2.34314575,23 4,23 L32,23 C33.6568542,23 35,21.6568542 35,20 L35,4 C35,2.34314575 33.6568542,1 32,1 L4,1 Z M4,0 L32,0 C34.209139,0 36,1.790861 36,4 L36,20 C36,22.209139 34.209139,24 32,24 L4,24 C1.790861,24 0,22.209139 0,20 L0,4 C0,1.790861 1.790861,0 4,0 Z" id="Mask" fill="#031619" fill-rule="nonzero" opacity="0.2"></path>
        <path d="M20.5,10 L20.5,12 C20.5,13.3807119 19.3807119,14.5 18,14.5 C16.6192881,14.5 15.5,13.3807119 15.5,12 L15.5,10 C15.5,9.72385763 15.2761424,9.5 15,9.5 C14.7238576,9.5 14.5,9.72385763 14.5,10 L14.5,12 C14.5,13.9329966 16.0670034,15.5 18,15.5 C19.9329966,15.5 21.5,13.9329966 21.5,12 L21.5,10 C21.5,9.72385763 21.2761424,9.5 21,9.5 C20.7238576,9.5 20.5,9.72385763 20.5,10 Z" id="Rectangle" fill="#E70000" fill-rule="nonzero"></path>
    </g>
</svg>