<?xml version="1.0" encoding="UTF-8"?>
<svg width="36px" height="24px" viewBox="0 0 36 24" version="1.1" xmlns="http://www.w3.org/2000/svg" xmlns:xlink="http://www.w3.org/1999/xlink">
    <!-- Generator: Sketch 55.2 (78181) - https://sketchapp.com -->
    <title>Flag / KP</title>
    <desc>Created with Sketch.</desc>
    <g id="Flag-/-KP" stroke="none" stroke-width="1" fill="none" fill-rule="evenodd">
        <path d="M36,20 C36,22.209139 34.209139,24 32,24 L4,24 C1.790861,24 0,22.209139 0,20 L36,20 Z" id="Rectangle-13" fill="#004FA8"></path>
        <polygon id="Rectangle-13-Copy" fill="#FFFFFF" points="0 4 36 4 36 20 0 20"></polygon>
        <polygon id="Rectangle-13-Copy" fill="#FF000F" points="0 5 36 5 36 19 0 19"></polygon>
        <circle id="Oval" fill="#FFFFFF" cx="10" cy="12" r="5"></circle>
        <polygon id="Star" fill="#FF000F" points="10.0402496 13.829604 7.23422104 15.836068 8.27537116 12.5473448 5.5 10.4986844 8.94949475 10.4726057 10.0402496 7.2 11.1310045 10.4726057 14.5804993 10.4986844 11.8051281 12.5473448 12.8462782 15.836068"></polygon>
        <path d="M4,0 L32,0 C34.209139,0 36,1.790861 36,4 L0,4 C0,1.790861 1.790861,0 4,0 Z" id="Rectangle-13-Copy-2" fill="#004FA8"></path>
        <path d="M4,1 C2.34314575,1 1,2.34314575 1,4 L1,20 C1,21.6568542 2.34314575,23 4,23 L32,23 C33.6568542,23 35,21.6568542 35,20 L35,4 C35,2.34314575 33.6568542,1 32,1 L4,1 Z M4,0 L32,0 C34.209139,0 36,1.790861 36,4 L36,20 C36,22.209139 34.209139,24 32,24 L4,24 C1.790861,24 0,22.209139 0,20 L0,4 C0,1.790861 1.790861,0 4,0 Z" id="Mask" fill="#031619" fill-rule="nonzero" opacity="0.2"></path>
    </g>
</svg>