<?xml version="1.0" encoding="UTF-8"?>
<svg width="36px" height="24px" viewBox="0 0 36 24" version="1.1" xmlns="http://www.w3.org/2000/svg" xmlns:xlink="http://www.w3.org/1999/xlink">
    <!-- Generator: Sketch 55.2 (78181) - https://sketchapp.com -->
    <title>Flag / PY</title>
    <desc>Created with Sketch.</desc>
    <g id="Flag-/-PY" stroke="none" stroke-width="1" fill="none" fill-rule="evenodd">
        <path d="M4,0 L32,0 C34.209139,0 36,1.790861 36,4 L36,20 C36,22.209139 34.209139,24 32,24 L4,24 C1.790861,24 0,22.209139 0,20 L0,4 C0,1.790861 1.790861,0 4,0 Z" id="Mask" fill="#FFFFFF"></path>
        <path d="M0,16 L36,16 L36,20 C36,22.209139 34.209139,24 32,24 L4,24 C1.790861,24 0,22.209139 0,20 L0,16 Z" id="Rectangle-13" fill="#0036AF"></path>
        <path d="M18,15.25 C19.7949254,15.25 21.25,13.7949254 21.25,12 C21.25,10.2050746 19.7949254,8.75 18,8.75 C16.2050746,8.75 14.75,10.2050746 14.75,12 C14.75,13.7949254 16.2050746,15.25 18,15.25 Z M18,14.75 C16.4812169,14.75 15.25,13.5187831 15.25,12 C15.25,10.4812169 16.4812169,9.25 18,9.25 C19.5187831,9.25 20.75,10.4812169 20.75,12 C20.75,13.5187831 19.5187831,14.75 18,14.75 Z" id="Oval" fill="#323232" fill-rule="nonzero"></path>
        <path d="M18,14.25 C19.2426407,14.25 20.25,13.2426407 20.25,12 C20.25,10.7573593 19.2426407,9.75 18,9.75 C16.7573593,9.75 15.75,10.7573593 15.75,12 C15.75,13.2426407 16.7573593,14.25 18,14.25 Z M18,13.75 C17.0335017,13.75 16.25,12.9664983 16.25,12 C16.25,11.0335017 17.0335017,10.25 18,10.25 C18.9664983,10.25 19.75,11.0335017 19.75,12 C19.75,12.9664983 18.9664983,13.75 18,13.75 Z" id="Oval" fill="#323232" fill-rule="nonzero"></path>
        <circle id="Oval" fill="#006836" cx="18" cy="12" r="1"></circle>
        <path d="M4,0 L32,0 C34.209139,0 36,1.790861 36,4 L36,8 L0,8 L0,4 C0,1.790861 1.790861,0 4,0 Z" id="Rectangle-13-Copy-2" fill="#E70000"></path>
        <path d="M4,1 C2.34314575,1 1,2.34314575 1,4 L1,20 C1,21.6568542 2.34314575,23 4,23 L32,23 C33.6568542,23 35,21.6568542 35,20 L35,4 C35,2.34314575 33.6568542,1 32,1 L4,1 Z M4,0 L32,0 C34.209139,0 36,1.790861 36,4 L36,20 C36,22.209139 34.209139,24 32,24 L4,24 C1.790861,24 0,22.209139 0,20 L0,4 C0,1.790861 1.790861,0 4,0 Z" id="Mask" fill="#031619" fill-rule="nonzero" opacity="0.2"></path>
    </g>
</svg>