<?xml version="1.0" encoding="UTF-8"?>
<svg width="36px" height="24px" viewBox="0 0 36 24" version="1.1" xmlns="http://www.w3.org/2000/svg" xmlns:xlink="http://www.w3.org/1999/xlink">
    <!-- Generator: Sketch 55.2 (78181) - https://sketchapp.com -->
    <title>Flag / MA</title>
    <desc>Created with Sketch.</desc>
    <g id="Flag-/-MA" stroke="none" stroke-width="1" fill="none" fill-rule="evenodd">
        <path d="M4,0 L32,0 C34.209139,0 36,1.790861 36,4 L36,20 C36,22.209139 34.209139,24 32,24 L4,24 C1.790861,24 0,22.209139 0,20 L0,4 C0,1.790861 1.790861,0 4,0 Z" id="Mask" fill="#D20023"></path>
        <path d="M4,1 C2.34314575,1 1,2.34314575 1,4 L1,20 C1,21.6568542 2.34314575,23 4,23 L32,23 C33.6568542,23 35,21.6568542 35,20 L35,4 C35,2.34314575 33.6568542,1 32,1 L4,1 Z M4,0 L32,0 C34.209139,0 36,1.790861 36,4 L36,20 C36,22.209139 34.209139,24 32,24 L4,24 C1.790861,24 0,22.209139 0,20 L0,4 C0,1.790861 1.790861,0 4,0 Z" id="Mask" fill="#031619" fill-rule="nonzero" opacity="0.2"></path>
        <path d="M16.1908634,14.9112433 L17.2744178,14.0877419 L16.617548,13.5885209 L16.1908634,14.9112433 Z M19.7055199,14.9305591 L19.286537,13.5633517 L18.5965499,14.0877419 L19.7055199,14.9305591 Z M20.6835859,11.4967742 L19.4899532,11.4967742 L19.715438,12.2325666 L20.6835859,11.4967742 Z M17.9902158,9.33325088 L17.5503695,10.6967742 L18.4080697,10.6967742 L17.9902158,9.33325088 Z M15.1873818,11.4967742 L16.2027762,12.2684739 L16.4517116,11.4967742 L15.1873818,11.4967742 Z M17.9354839,13.5853317 L19.0367779,12.7483483 L18.653231,11.4967742 L17.292305,11.4967742 L16.8778642,12.7815408 L17.9354839,13.5853317 Z M18.0097842,6.66674912 L19.2447919,10.6967742 L23.0583496,10.6967742 L19.9651971,13.0475701 L21.1977059,17.0694409 L17.9354839,14.5901521 L14.6478463,17.0887567 L15.9424601,13.075454 L12.8126182,10.6967742 L16.7097761,10.6967742 L18.0097842,6.66674912 Z" id="Path-14" fill="#00642E" fill-rule="nonzero"></path>
    </g>
</svg>