<?xml version="1.0" encoding="UTF-8"?>
<svg width="36px" height="24px" viewBox="0 0 36 24" version="1.1" xmlns="http://www.w3.org/2000/svg" xmlns:xlink="http://www.w3.org/1999/xlink">
    <!-- Generator: Sketch 55.2 (78181) - https://sketchapp.com -->
    <title>Flag / KM</title>
    <desc>Created with Sketch.</desc>
    <g id="Flag-/-KM" stroke="none" stroke-width="1" fill="none" fill-rule="evenodd">
        <path d="M4,0 L32,0 C34.209139,0 36,1.790861 36,4 L36,20 C36,22.209139 34.209139,24 32,24 L4,24 C1.790861,24 0,22.209139 0,20 L0,4 C0,1.790861 1.790861,0 4,0 Z" id="Mask" fill="#FFC400"></path>
        <rect id="Rectangle" fill="#FFFFFF" x="0" y="6" width="36" height="6"></rect>
        <path d="M0,12 L36,12 L36,20 C36,22.209139 34.209139,24 32,24 L4,24 C1.790861,24 0,22.209139 0,20 L0,12 Z" id="Rectangle" fill="#2475CA"></path>
        <rect id="Rectangle-Copy" fill="#E00017" x="0" y="12" width="36" height="6"></rect>
        <path d="M6.96909012e-07,20.0023869 L6.96909012e-07,3.99761309 C0.000690031536,2.81716923 0.512713906,1.7563281 1.32657265,1.02458939 L16.5290007,12 L1.32657265,22.9754106 C0.512713906,22.2436719 0.000690031536,21.1828308 6.96909012e-07,20.0023869 Z" id="Path" fill="#00911F"></path>
        <path d="M8,7.10001812 C5.71775968,7.56328845 4,9.58104209 4,12 C4,14.4189579 5.71775968,16.4367116 8,16.8999819 C7.67689006,16.9655697 7.34246584,17 7,17 C4.23857625,17 2,14.7614237 2,12 C2,9.23857625 4.23857625,7 7,7 C7.34246584,7 7.67689006,7.03443026 8,7.10001812 Z" id="Path" fill="#FFFFFF"></path>
        <path d="M4,1 C2.34314575,1 1,2.34314575 1,4 L1,20 C1,21.6568542 2.34314575,23 4,23 L32,23 C33.6568542,23 35,21.6568542 35,20 L35,4 C35,2.34314575 33.6568542,1 32,1 L4,1 Z M4,0 L32,0 C34.209139,0 36,1.790861 36,4 L36,20 C36,22.209139 34.209139,24 32,24 L4,24 C1.790861,24 0,22.209139 0,20 L0,4 C0,1.790861 1.790861,0 4,0 Z" id="Mask" fill="#031619" fill-rule="nonzero" opacity="0.2"></path>
        <path d="M7.5,11.5 C7.22385763,11.5 7,11.2761424 7,11 C7,10.7238576 7.22385763,10.5 7.5,10.5 C7.77614237,10.5 8,10.7238576 8,11 C8,11.2761424 7.77614237,11.5 7.5,11.5 Z M7.5,13.5 C7.22385763,13.5 7,13.2761424 7,13 C7,12.7238576 7.22385763,12.5 7.5,12.5 C7.77614237,12.5 8,12.7238576 8,13 C8,13.2761424 7.77614237,13.5 7.5,13.5 Z M7.5,15.5 C7.22385763,15.5 7,15.2761424 7,15 C7,14.7238576 7.22385763,14.5 7.5,14.5 C7.77614237,14.5 8,14.7238576 8,15 C8,15.2761424 7.77614237,15.5 7.5,15.5 Z M7.5,9.5 C7.22385763,9.5 7,9.27614237 7,9 C7,8.72385763 7.22385763,8.5 7.5,8.5 C7.77614237,8.5 8,8.72385763 8,9 C8,9.27614237 7.77614237,9.5 7.5,9.5 Z" id="Combined-Shape" fill="#FFFFFF"></path>
    </g>
</svg>