<?xml version="1.0" encoding="UTF-8"?>
<svg width="36px" height="24px" viewBox="0 0 36 24" version="1.1" xmlns="http://www.w3.org/2000/svg" xmlns:xlink="http://www.w3.org/1999/xlink">
    <!-- Generator: Sketch 55.2 (78181) - https://sketchapp.com -->
    <title>Flag / SG</title>
    <desc>Created with Sketch.</desc>
    <g id="Flag-/-SG" stroke="none" stroke-width="1" fill="none" fill-rule="evenodd">
        <path d="M4,0 L32,0 C34.209139,0 36,1.790861 36,4 L36,20 C36,22.209139 34.209139,24 32,24 L4,24 C1.790861,24 0,22.209139 0,20 L0,4 C0,1.790861 1.790861,0 4,0 Z" id="Mask" fill="#FFFFFF"></path>
        <path d="M4,0 L32,0 C34.209139,0 36,1.790861 36,4 L36,12 L0,12 L0,4 C0,1.790861 1.790861,0 4,0 Z" id="Rectangle-path" fill="#ED2939" fill-rule="nonzero"></path>
        <path d="M9.32435268,10.2608729 C8.8580215,10.4238828 8.35676788,10.5125001 7.83481658,10.5125001 C5.3426316,10.5125001 3.3223165,8.49218498 3.3223165,6 C3.3223165,4.387839 4.18239416,2.8981408 5.57856654,2.09206029 C6.72713351,1.42893484 8.09495911,1.31133228 9.32129531,1.7392526 C7.04936888,1.83334664 5.23637492,3.7049496 5.23637492,6 C5.23637492,8.2960798 7.05099562,10.1683322 9.32435268,10.2608729 L9.32435268,10.2608729 Z" id="Path" fill="#FFFFFF" fill-rule="nonzero"></path>
        <polygon id="star" fill="#FFFFFF" fill-rule="nonzero" points="8.3932925 6.10886992 7.78028883 5.63861875 7.16743992 6.10909308 7.40338225 5.35080725 6.78842892 4.8833775 7.54725333 4.88498417 7.78004083 4.12562225 8.01307783 4.88489983 8.77190167 4.8830205 8.15710167 5.35067333"></polygon>
        <polygon id="star" fill="#FFFFFF" fill-rule="nonzero" points="13.2031969 6.10886992 12.5901932 5.63861875 11.9773443 6.10909308 12.2132867 5.35080725 11.5983333 4.8833775 12.3571577 4.88498417 12.5899452 4.12562225 12.8229822 4.88489983 13.5818061 4.8830205 12.9670061 5.35067333"></polygon>
        <polygon id="star" fill="#FFFFFF" fill-rule="nonzero" points="10.8006969 4.32377683 10.1876933 3.85352567 9.57484433 4.324 9.81078667 3.56571417 9.19583333 3.09828442 9.95465775 3.09989108 10.1874452 2.34052917 10.4204822 3.09980675 11.1793061 3.09792742 10.5645061 3.56558025"></polygon>
        <polygon id="star" fill="#FFFFFF" fill-rule="nonzero" points="9.29328858 8.96511017 8.68028492 8.494859 8.067436 8.96533333 8.30337833 8.2070475 7.688425 7.73961775 8.44724942 7.74122442 8.68003692 6.9818625 8.91307392 7.74114008 9.67189775 7.73926075 9.05709775 8.20691358"></polygon>
        <polygon id="star" fill="#FFFFFF" fill-rule="nonzero" points="12.3031969 8.96511017 11.6901932 8.494859 11.0773443 8.96533333 11.3132867 8.2070475 10.6983333 7.73961775 11.4571577 7.74122442 11.6899452 6.9818625 11.9229822 7.74114008 12.6818061 7.73926075 12.0670061 8.20691358"></polygon>
        <path d="M4,1 C2.34314575,1 1,2.34314575 1,4 L1,20 C1,21.6568542 2.34314575,23 4,23 L32,23 C33.6568542,23 35,21.6568542 35,20 L35,4 C35,2.34314575 33.6568542,1 32,1 L4,1 Z M4,0 L32,0 C34.209139,0 36,1.790861 36,4 L36,20 C36,22.209139 34.209139,24 32,24 L4,24 C1.790861,24 0,22.209139 0,20 L0,4 C0,1.790861 1.790861,0 4,0 Z" id="Mask" fill="#031619" fill-rule="nonzero" opacity="0.2"></path>
    </g>
</svg>