<?xml version="1.0" encoding="UTF-8"?>
<svg width="36px" height="24px" viewBox="0 0 36 24" version="1.1" xmlns="http://www.w3.org/2000/svg" xmlns:xlink="http://www.w3.org/1999/xlink">
    <!-- Generator: Sketch 55.2 (78181) - https://sketchapp.com -->
    <title>Flag / MK</title>
    <desc>Created with Sketch.</desc>
    <g id="Flag-/-MK" stroke="none" stroke-width="1" fill="none" fill-rule="evenodd">
        <path d="M4,0 L32,0 C34.209139,0 36,1.790861 36,4 L36,20 C36,22.209139 34.209139,24 32,24 L4,24 C1.790861,24 0,22.209139 0,20 L0,4 C0,1.790861 1.790861,0 4,0 Z" id="Mask" fill="#D20000"></path>
        <path d="M4,7.15746906e-15 L6.106,7.15746906e-15 L15.037,7.738 L14.024,9.195 L0.903756962,1.46736503 C1.63731037,0.571629833 2.75189953,7.15746906e-15 4,7.15746906e-15 L4,7.15746906e-15 Z M16,1.07101827e-14 L20,1.07101827e-14 L19,7 L17,7 L16,1.07101827e-14 Z M32,8.04564748e-15 C33.3107712,8.04564748e-15 34.4742865,0.630477492 35.2038311,1.60471763 L22.495,9.195 L21.482,7.738 L30.413,8.04564748e-15 L32,8.04564748e-15 L32,8.04564748e-15 Z M36,10.0028381 L36,13.9971619 L23,13 L23,11 L36,10.0028381 Z M34.8739,22.7822159 C34.1467445,23.533182 33.1278879,24 32,24 L30.102,24 L21.482,16.531 L22.495,15.074 L34.8739,22.7822159 L34.8739,22.7822159 Z M20,24 L16,24 L17,17 L19,17 L20,24 Z M4,24 C2.87484056,24 1.85818545,23.5354377 1.13138222,22.7876608 L14.024,15.074 L15.037,16.531 L6.417,24 L4,24 Z M-3.87245791e-13,13.9971538 L-3.87245791e-13,10.0028462 L12.963,11 L12.963,13 L-3.87245791e-13,13.9971538 Z" id="Shape" fill="#FFE600"></path>
        <circle id="Oval" fill="#D20000" fill-rule="nonzero" cx="18" cy="12" r="6"></circle>
        <circle id="Oval" fill="#FFE600" fill-rule="nonzero" cx="18" cy="12" r="4"></circle>
        <path d="M4,1 C2.34314575,1 1,2.34314575 1,4 L1,20 C1,21.6568542 2.34314575,23 4,23 L32,23 C33.6568542,23 35,21.6568542 35,20 L35,4 C35,2.34314575 33.6568542,1 32,1 L4,1 Z M4,0 L32,0 C34.209139,0 36,1.790861 36,4 L36,20 C36,22.209139 34.209139,24 32,24 L4,24 C1.790861,24 0,22.209139 0,20 L0,4 C0,1.790861 1.790861,0 4,0 Z" id="Mask" fill="#031619" fill-rule="nonzero" opacity="0.2"></path>
    </g>
</svg>