<?xml version="1.0" encoding="UTF-8"?>
<svg width="36px" height="24px" viewBox="0 0 36 24" version="1.1" xmlns="http://www.w3.org/2000/svg" xmlns:xlink="http://www.w3.org/1999/xlink">
    <!-- Generator: Sketch 55.2 (78181) - https://sketchapp.com -->
    <title>Flag / VE</title>
    <desc>Created with Sketch.</desc>
    <g id="Flag-/-VE" stroke="none" stroke-width="1" fill="none" fill-rule="evenodd">
        <path d="M4,0 L32,0 C34.209139,0 36,1.790861 36,4 L36,20 C36,22.209139 34.209139,24 32,24 L4,24 C1.790861,24 0,22.209139 0,20 L0,4 C0,1.790861 1.790861,0 4,0 Z" id="Mask" fill="#FFCB00"></path>
        <path d="M0,16 L36,16 L36,20 C36,22.209139 34.209139,24 32,24 L4,24 C1.790861,24 0,22.209139 0,20 L0,16 Z" id="Rectangle" fill="#E1001F"></path>
        <polygon id="Shape" fill="#002282" fill-rule="nonzero" points="0 8 36 8 36 16 0 16"></polygon>
        <path d="M4,1 C2.34314575,1 1,2.34314575 1,4 L1,20 C1,21.6568542 2.34314575,23 4,23 L32,23 C33.6568542,23 35,21.6568542 35,20 L35,4 C35,2.34314575 33.6568542,1 32,1 L4,1 Z M4,0 L32,0 C34.209139,0 36,1.790861 36,4 L36,20 C36,22.209139 34.209139,24 32,24 L4,24 C1.790861,24 0,22.209139 0,20 L0,4 C0,1.790861 1.790861,0 4,0 Z" id="Mask" fill="#031619" fill-rule="nonzero" opacity="0.2"></path>
        <path d="M21.7679744,10.9781972 L21.6272802,11.6401113 L21.3520409,11.0219136 L20.6790463,11.0926482 L21.1819336,10.6398464 L20.9066942,10.0216487 L21.4927351,10.3599995 L21.9956224,9.90719772 L21.8549282,10.5691118 L22.440969,10.9074626 L21.7679744,10.9781972 Z M16.6040855,10.7543865 L16.6982642,10.0842705 L16.0900488,9.78762403 L16.7564698,9.67011602 L16.8506485,9 L17.1683406,9.59749208 L17.8347617,9.47998407 L17.3646852,9.96676249 L17.6823774,10.5642546 L17.074162,10.2676081 L16.6040855,10.7543865 L16.6040855,10.7543865 Z M14.7264854,11.6401113 L14.5857912,10.9781972 L13.9127966,10.9074626 L14.4988374,10.5691118 L14.3581432,9.90719772 L14.8610305,10.3599995 L15.4470713,10.0216487 L15.171832,10.6398464 L15.6747193,11.0926482 L15.0017247,11.0219136 L14.7264854,11.6401113 L14.7264854,11.6401113 Z M13.3122584,12.4395441 L13.2650541,13.1145974 L12.9064568,12.5407218 L12.2498561,12.7044308 L12.6848316,12.1860472 L12.3262343,11.6121717 L12.9536612,11.8656686 L13.3886366,11.3472851 L13.3414323,12.0223383 L13.9688591,12.2758352 L13.3122584,12.4395441 L13.3122584,12.4395441 Z M12.2095376,14.3495126 L12.3960618,15 L11.8628137,14.5833809 L11.3018026,14.9617876 L11.5332482,14.3258961 L11,13.909277 L11.6762894,13.9328935 L11.907735,13.297002 L12.0942592,13.9474893 L12.7705487,13.9711059 L12.2095376,14.3495126 L12.2095376,14.3495126 Z M23.9577038,15 L24.144228,14.3495126 L23.5832169,13.9711059 L24.2595063,13.9474893 L24.4460306,13.297002 L24.6774762,13.9328935 L25.3537656,13.909277 L24.8205174,14.3258961 L25.051963,14.9617876 L24.4909519,14.5833809 L23.9577038,15 L23.9577038,15 Z M23.0887115,13.1145974 L23.0415072,12.4395441 L22.3849065,12.2758352 L23.0123333,12.0223383 L22.965129,11.3472851 L23.4001044,11.8656686 L24.0275313,11.6121717 L23.668934,12.1860472 L24.1039095,12.7044308 L23.4473087,12.5407218 L23.0887115,13.1145974 L23.0887115,13.1145974 Z M18.9890804,9.96676249 L18.5190039,9.47998407 L19.185425,9.59749208 L19.5031171,9 L19.5972958,9.67011602 L20.2637168,9.78762403 L19.6555014,10.0842705 L19.7496801,10.7543865 L19.2796036,10.2676081 L18.6713882,10.5642546 L18.9890804,9.96676249 L18.9890804,9.96676249 Z" id="Shape" fill="#FFFFFF" fill-rule="nonzero"></path>
        <ellipse id="Oval" fill="#BE6F00" cx="5" cy="4.5" rx="2" ry="2.5"></ellipse>
    </g>
</svg>