<?xml version="1.0" encoding="UTF-8"?>
<svg width="36px" height="24px" viewBox="0 0 36 24" version="1.1" xmlns="http://www.w3.org/2000/svg" xmlns:xlink="http://www.w3.org/1999/xlink">
    <!-- Generator: Sketch 55.2 (78181) - https://sketchapp.com -->
    <title>Flag / SY</title>
    <desc>Created with Sketch.</desc>
    <g id="Flag-/-SY" stroke="none" stroke-width="1" fill="none" fill-rule="evenodd">
        <path d="M4,0 L32,0 C34.209139,0 36,1.790861 36,4 L36,20 C36,22.209139 34.209139,24 32,24 L4,24 C1.790861,24 0,22.209139 0,20 L0,4 C0,1.790861 1.790861,0 4,0 Z" id="Mask" fill="#E00017"></path>
        <path d="M0,12 L36,12 L36,20 C36,22.209139 34.209139,24 32,24 L4,24 C1.790861,24 0,22.209139 0,20 L0,12 Z" id="Rectangle" fill="#000000"></path>
        <rect id="Rectangle" fill="#FFFFFF" x="0" y="8" width="36" height="8"></rect>
        <g id="Group" transform="translate(8.500000, 9.000000)" fill="#007D35">
            <polygon id="Star-Copy" points="2.9630563 4.32661011 1.1317868 5.636068 1.81126186 3.48978246 -5.59552404e-14 2.15278641 2.25120819 2.1357669 2.9630563 1.15463195e-14 3.67490441 2.1357669 5.9261126 2.15278641 4.11485074 3.48978246 4.7943258 5.636068"></polygon>
            <polygon id="Star-Copy-2" points="15.9630563 4.32661011 14.1317868 5.636068 14.8112619 3.48978246 13 2.15278641 15.2512082 2.1357669 15.9630563 1.15463195e-14 16.6749044 2.1357669 18.9261126 2.15278641 17.1148507 3.48978246 17.7943258 5.636068"></polygon>
        </g>
        <path d="M4,1 C2.34314575,1 1,2.34314575 1,4 L1,20 C1,21.6568542 2.34314575,23 4,23 L32,23 C33.6568542,23 35,21.6568542 35,20 L35,4 C35,2.34314575 33.6568542,1 32,1 L4,1 Z M4,0 L32,0 C34.209139,0 36,1.790861 36,4 L36,20 C36,22.209139 34.209139,24 32,24 L4,24 C1.790861,24 0,22.209139 0,20 L0,4 C0,1.790861 1.790861,0 4,0 Z" id="Mask" fill="#031619" fill-rule="nonzero" opacity="0.2"></path>
    </g>
</svg>