<?xml version="1.0" encoding="UTF-8"?>
<svg width="36px" height="24px" viewBox="0 0 36 24" version="1.1" xmlns="http://www.w3.org/2000/svg" xmlns:xlink="http://www.w3.org/1999/xlink">
    <!-- Generator: Sketch 55.2 (78181) - https://sketchapp.com -->
    <title>Flag / PK</title>
    <desc>Created with Sketch.</desc>
    <g id="Flag-/-PK" stroke="none" stroke-width="1" fill="none" fill-rule="evenodd">
        <path d="M4,0 L32,0 C34.209139,0 36,1.790861 36,4 L36,20 C36,22.209139 34.209139,24 32,24 L4,24 C1.790861,24 0,22.209139 0,20 L0,4 C0,1.790861 1.790861,0 4,0 Z" id="Mask" fill="#004317"></path>
        <path d="M11,0 L11,24 L4,24 C1.790861,24 0,22.209139 0,20 L0,4 C0,1.790861 1.790861,0 4,0 L11,0 Z" id="Path" fill="#FFFFFF"></path>
        <path d="M28.168,7.625 C27.207,6.927 26,6.511 24.689,6.511 C21.559,6.511 19.022,8.879 19.022,11.8 C19.022,14.721 21.559,17.089 24.688,17.089 C25.9366145,17.0949993 27.1549838,16.7049811 28.168,15.975 C26.3844511,18.2679546 23.3412825,19.1747075 20.5935936,18.2318959 C17.8459048,17.2890842 16.0005635,14.7049419 16.0005635,11.8 C16.0005635,8.89505808 17.8459048,6.31091579 20.5935936,5.36810415 C23.3412825,4.42529251 26.3844511,5.33204538 28.168,7.625 Z M28.5,13 C27.6715729,13 27,12.3284271 27,11.5 C27,10.6715729 27.6715729,10 28.5,10 C29.3284271,10 30,10.6715729 30,11.5 C30,12.3284271 29.3284271,13 28.5,13 Z" id="Combined-Shape" fill="#FFFFFF" fill-rule="nonzero" transform="translate(23.000282, 11.800000) rotate(-44.000000) translate(-23.000282, -11.800000) "></path>
        <path d="M4,1 C2.34314575,1 1,2.34314575 1,4 L1,20 C1,21.6568542 2.34314575,23 4,23 L32,23 C33.6568542,23 35,21.6568542 35,20 L35,4 C35,2.34314575 33.6568542,1 32,1 L4,1 Z M4,0 L32,0 C34.209139,0 36,1.790861 36,4 L36,20 C36,22.209139 34.209139,24 32,24 L4,24 C1.790861,24 0,22.209139 0,20 L0,4 C0,1.790861 1.790861,0 4,0 Z" id="Mask" fill="#031619" fill-rule="nonzero" opacity="0.2"></path>
    </g>
</svg>