<?xml version="1.0" encoding="UTF-8"?>
<svg width="36px" height="24px" viewBox="0 0 36 24" version="1.1" xmlns="http://www.w3.org/2000/svg" xmlns:xlink="http://www.w3.org/1999/xlink">
    <!-- Generator: Sketch 55.2 (78181) - https://sketchapp.com -->
    <title>Flag / GQ</title>
    <desc>Created with Sketch.</desc>
    <g id="Flag-/-GQ" stroke="none" stroke-width="1" fill="none" fill-rule="evenodd">
        <path d="M4,0 L32,0 C34.209139,0 36,1.790861 36,4 L36,20 C36,22.209139 34.209139,24 32,24 L4,24 C1.790861,24 0,22.209139 0,20 L0,4 C0,1.790861 1.790861,0 4,0 Z" id="Mask" fill="#FFFFFF"></path>
        <path d="M16,9 L20,9 L20,14 L18,15 L16,14 L16,9 Z M17,10 L17,13.3333333 L18,14 L19,13.3333333 L19,10 L17,10 Z" id="Shape" fill="#C09300" fill-rule="nonzero"></path>
        <path d="M4,0 L32,0 C34.209139,0 36,1.790861 36,4 L36,8 L0,8 L0,4 C0,1.790861 1.790861,0 4,0 Z" id="Path" fill="#009D00"></path>
        <path d="M36,16 L36,20 C36,22.209139 34.209139,24 32,24 L4,24 C1.790861,24 0,22.209139 0,20 L0,16 L36,16 Z" id="Path" fill="#F70000"></path>
        <path d="M6.96909012e-07,20.0023869 L6.96909012e-07,3.99761309 C0.000690031536,2.81716923 0.512713906,1.7563281 1.32657265,1.02458939 L8.5290007,12 L1.32657265,22.9754106 C0.512713906,22.2436719 0.000690031536,21.1828308 6.96909012e-07,20.0023869 Z" id="Path" fill="#0074D5"></path>
        <path d="M4,1 C2.34314575,1 1,2.34314575 1,4 L1,20 C1,21.6568542 2.34314575,23 4,23 L32,23 C33.6568542,23 35,21.6568542 35,20 L35,4 C35,2.34314575 33.6568542,1 32,1 L4,1 Z M4,0 L32,0 C34.209139,0 36,1.790861 36,4 L36,20 C36,22.209139 34.209139,24 32,24 L4,24 C1.790861,24 0,22.209139 0,20 L0,4 C0,1.790861 1.790861,0 4,0 Z" id="Mask" fill="#031619" fill-rule="nonzero" opacity="0.2"></path>
    </g>
</svg>