<?xml version="1.0" encoding="UTF-8"?>
<svg width="36px" height="24px" viewBox="0 0 36 24" version="1.1" xmlns="http://www.w3.org/2000/svg" xmlns:xlink="http://www.w3.org/1999/xlink">
    <!-- Generator: Sketch 55.2 (78181) - https://sketchapp.com -->
    <title>Flag / UY</title>
    <desc>Created with Sketch.</desc>
    <g id="Flag-/-UY" stroke="none" stroke-width="1" fill="none" fill-rule="evenodd">
        <path d="M4,0 L32,0 C34.209139,0 36,1.790861 36,4 L36,20 C36,22.209139 34.209139,24 32,24 L4,24 C1.790861,24 0,22.209139 0,20 L0,4 C0,1.790861 1.790861,0 4,0 Z" id="Mask" fill="#FFFFFF"></path>
        <path d="M35.8739825,3 C35.956247,3.31961992 36,3.65470043 36,4 L36,5 L15,5 L15,3 L35.8739825,3 L35.8739825,3 Z" id="Path" fill="#0036AF"></path>
        <polygon id="Path" fill="#0036AF" fill-rule="nonzero" points="15 8 36 8 36 10 15 10"></polygon>
        <polygon id="Path" fill="#0036AF" fill-rule="nonzero" points="0 13 36 13 36 15 0 15"></polygon>
        <polygon id="Path" fill="#0036AF" fill-rule="nonzero" points="0 18 36 18 36 20 0 20"></polygon>
        <path d="M4,1 C2.34314575,1 1,2.34314575 1,4 L1,20 C1,21.6568542 2.34314575,23 4,23 L32,23 C33.6568542,23 35,21.6568542 35,20 L35,4 C35,2.34314575 33.6568542,1 32,1 L4,1 Z M4,0 L32,0 C34.209139,0 36,1.790861 36,4 L36,20 C36,22.209139 34.209139,24 32,24 L4,24 C1.790861,24 0,22.209139 0,20 L0,4 C0,1.790861 1.790861,0 4,0 Z" id="Mask" fill="#031619" fill-rule="nonzero" opacity="0.2"></path>
        <polygon id="Star" fill="#FFD000" points="8 9 7.16835324 10.9125904 7.18652671 8.82709092 5.64885899 10.236068 6.51371035 8.33826121 4.53589838 9 6.09788697 7.61803399 4.02191242 7.41811385 6.01095621 6.79094307 4.19577393 5.76393202 6.26794919 6 5.0274207 4.32347757 6.8244295 5.38196601 6.37305343 3.34581817 7.58417662 5.0437048 8 3 8.41582338 5.0437048 9.62694657 3.34581817 9.1755705 5.38196601 10.9725793 4.32347757 9.73205081 6 11.8042261 5.76393202 9.98904379 6.79094307 11.9780876 7.41811385 9.90211303 7.61803399 11.4641016 9 9.48628965 8.33826121 10.351141 10.236068 8.81347329 8.82709092 8.83164676 10.9125904"></polygon>
    </g>
</svg>