<?xml version="1.0" encoding="UTF-8"?>
<svg width="36px" height="24px" viewBox="0 0 36 24" version="1.1" xmlns="http://www.w3.org/2000/svg" xmlns:xlink="http://www.w3.org/1999/xlink">
    <!-- Generator: Sketch 55.2 (78181) - https://sketchapp.com -->
    <title>Flag / AG</title>
    <desc>Created with Sketch.</desc>
    <g id="Flag-/-AG" stroke="none" stroke-width="1" fill="none" fill-rule="evenodd">
        <path d="M4,0 L32,0 C34.209139,0 36,1.790861 36,4 L36,20 C36,22.209139 34.209139,24 32,24 L4,24 C1.790861,24 0,22.209139 0,20 L0,4 C0,1.790861 1.790861,0 4,0 Z" id="Mask" fill="#FFFFFF"></path>
        <path d="M4,0 L32,0 C34.209139,0 36,1.790861 36,4 L36,9 L0,9 L0,4 C0,1.790861 1.790861,0 4,0 Z" id="Path" fill="#000000"></path>
        <polygon id="Path" fill="#FCD116" fill-rule="nonzero" points="10.1362955 9 13.9883581 8.26271522 10.5957254 6.03117314 14.5726175 6.85218817 12.2922078 3.4922078 15.6521882 5.77261751 14.8311731 1.7957254 17.0627152 5.18835808 17.826087 1.2 18.5894587 5.18835808 20.8210008 1.7957254 19.9999857 5.77261751 23.3599661 3.4922078 21.0795564 6.85218817 25.0564485 6.03117314 21.6638158 8.26271522 25.5158784 9 10.1362955 9"></polygon>
        <polygon id="Path" fill="#0072C6" points="36 9 36 14 0 14 0 9"></polygon>
        <path d="M4,24 C1.790861,24 0,22.209139 0,20 L0,4 C0,2.9809634 0.381061748,2.05092855 1.00846315,1.34461753 L18,24 L4,24 L4,24 Z" id="Path" fill="#CE1126"></path>
        <path d="M34.9915369,1.34461753 C35.6189383,2.05092855 36,2.9809634 36,4 L36,20 C36,22.209139 34.209139,24 32,24 L18,24 L34.9915369,1.34461753 Z" id="Path" fill="#CE1126"></path>
        <path d="M4,1 C2.34314575,1 1,2.34314575 1,4 L1,20 C1,21.6568542 2.34314575,23 4,23 L32,23 C33.6568542,23 35,21.6568542 35,20 L35,4 C35,2.34314575 33.6568542,1 32,1 L4,1 Z M4,0 L32,0 C34.209139,0 36,1.790861 36,4 L36,20 C36,22.209139 34.209139,24 32,24 L4,24 C1.790861,24 0,22.209139 0,20 L0,4 C0,1.790861 1.790861,0 4,0 Z" id="Mask" fill="#031619" fill-rule="nonzero" opacity="0.2"></path>
    </g>
</svg>