<?xml version="1.0" encoding="UTF-8"?>
<svg width="36px" height="24px" viewBox="0 0 36 24" version="1.1" xmlns="http://www.w3.org/2000/svg" xmlns:xlink="http://www.w3.org/1999/xlink">
    <!-- Generator: Sketch 55.2 (78181) - https://sketchapp.com -->
    <title>Flag / ES</title>
    <desc>Created with Sketch.</desc>
    <g id="Flag-/-ES" stroke="none" stroke-width="1" fill="none" fill-rule="evenodd">
        <path d="M4,0 L32,0 C34.209139,0 36,1.790861 36,4 L36,20 C36,22.209139 34.209139,24 32,24 L4,24 C1.790861,24 0,22.209139 0,20 L0,4 C0,1.790861 1.790861,0 4,0 Z" id="Mask" fill="#C60B1E"></path>
        <rect id="Rectangle-path" fill="#FFC400" fill-rule="nonzero" x="0" y="6" width="36" height="12"></rect>
        <path d="M8,10 L8,8 L12,8 L12,10 L13,10 L13,14 L10,16 L7,14 L7,10 L8,10 Z M9,11 L9,13 L11,13 L11,11 L9,11 Z" id="Combined-Shape" fill="#9E0817" fill-rule="nonzero"></path>
        <path d="M15,10 C15.5522847,10 16,10.4477153 16,11 L16,14 C16,14.5522847 15.5522847,15 15,15 C14.4477153,15 14,14.5522847 14,14 L14,11 C14,10.4477153 14.4477153,10 15,10 Z" id="Path" fill="#9E0817" fill-rule="nonzero"></path>
        <path d="M5,10 C5.55228475,10 6,10.4477153 6,11 L6,14 C6,14.5522847 5.55228475,15 5,15 C4.44771525,15 4,14.5522847 4,14 L4,11 C4,10.4477153 4.44771525,10 5,10 Z" id="Path" fill="#9E0817" fill-rule="nonzero"></path>
        <path d="M4,1 C2.34314575,1 1,2.34314575 1,4 L1,20 C1,21.6568542 2.34314575,23 4,23 L32,23 C33.6568542,23 35,21.6568542 35,20 L35,4 C35,2.34314575 33.6568542,1 32,1 L4,1 Z M4,0 L32,0 C34.209139,0 36,1.790861 36,4 L36,20 C36,22.209139 34.209139,24 32,24 L4,24 C1.790861,24 0,22.209139 0,20 L0,4 C0,1.790861 1.790861,0 4,0 Z" id="Mask" fill="#031619" fill-rule="nonzero" opacity="0.2"></path>
    </g>
</svg>