<?xml version="1.0" encoding="UTF-8"?>
<svg width="36px" height="24px" viewBox="0 0 36 24" version="1.1" xmlns="http://www.w3.org/2000/svg" xmlns:xlink="http://www.w3.org/1999/xlink">
    <!-- Generator: Sketch 55.2 (78181) - https://sketchapp.com -->
    <title>Flag / KI</title>
    <desc>Created with Sketch.</desc>
    <g id="Flag-/-KI" stroke="none" stroke-width="1" fill="none" fill-rule="evenodd">
        <path d="M4,0 L32,0 C34.209139,0 36,1.790861 36,4 L36,20 C36,22.209139 34.209139,24 32,24 L4,24 C1.790861,24 0,22.209139 0,20 L0,4 C0,1.790861 1.790861,0 4,0 Z" id="Mask" fill="#CE1126"></path>
        <path d="M36,13 L36,20 C36,22.209139 34.209139,24 32,24 L4,24 C1.790861,24 0,22.209139 0,20 L0,13 L36,13 Z" id="Path" fill="#003F87"></path>
        <path d="M36,18.857136 L36,20 C36,20.1941843 35.9861629,20.3851368 35.959421,20.5719252 C34.7729473,20.5945984 33.5864737,21.600336 32.4,21.600336 C31.2,21.600336 30,20.571536 28.8,20.571536 C27.6,20.571536 26.4,21.600336 25.2,21.600336 C24,21.600336 22.8,20.571536 21.6,20.571536 C20.4,20.571536 19.2,21.600336 18,21.600336 C16.8,21.600336 15.6,20.571536 14.4,20.571536 C13.2,20.571536 12,21.600336 10.8,21.600336 C9.6,21.600336 8.4,20.571536 7.2,20.571536 C6,20.571536 4.8,21.600336 3.6,21.600336 C2.41352633,21.600336 1.22705266,20.5945984 0.0405789883,20.5719252 C0.0138370646,20.3851368 0,20.1941843 0,20 L0,18.857136 C1.2,18.857136 2.4,19.885936 3.6,19.885936 C4.8,19.885936 6,18.857136 7.2,18.857136 C8.4,18.857136 9.6,19.885936 10.8,19.885936 C12,19.885936 13.2,18.857136 14.4,18.857136 C15.6,18.857136 16.8,19.885936 18,19.885936 C19.2,19.885936 20.4,18.857136 21.6,18.857136 C22.8,18.857136 24,19.885936 25.2,19.885936 C26.4,19.885936 27.6,18.857136 28.8,18.857136 C30,18.857136 31.2,19.885936 32.4,19.885936 C33.6,19.885936 34.8,18.857136 36,18.857136 Z" id="Path" fill="#FFFFFF"></path>
        <path d="M22.8916557,11.5332559 C23.4587716,11.6171086 24.0523672,11.7162951 24.376,12.09432 C23.9212785,11.9721948 23.3973518,12.4074247 22.9015876,12.6594443 L24.0456,13.12712 L12.3296,13.12712 L13.4840252,12.6553369 C12.9170057,12.5714942 12.3235721,12.4722739 12,12.09432 C12.4546619,12.2164292 12.9785108,11.7813295 13.4742173,11.5292949 L12.3296,11.06152 L13.5741279,11.0129798 C13.0651262,10.7390561 12.535635,10.4415179 12.3728,9.97752 C12.7576031,10.2468304 13.3999024,10.0185831 13.9508908,9.95045403 L13.036,9.11992 L14.2183065,9.49898565 C13.8316746,9.06904782 13.4341505,8.60988336 13.4472,8.11672 C13.7162099,8.50109382 14.397031,8.50376459 14.9378075,8.62748118 L14.364,7.53768 L15.3532232,8.30390636 C15.1429743,7.76755324 14.9316054,7.19983179 15.0936,6.73512 C15.2157631,7.19039844 15.8540782,7.42330588 16.3201903,7.72654686 L16.1536,6.5048 L16.8134668,7.55148658 C16.7920617,6.97800363 16.7818664,6.37650683 17.1136,6 C17.0726393,6.46835179 17.5932007,6.90414135 17.9276065,7.34731161 L18.188,6.14608 L18.454428,7.37514951 C18.6437395,6.82520121 18.8524409,6.24849663 19.2624,6 C19.0650531,6.42344567 19.4096563,7.0049629 19.5741479,7.53306324 L20.2224,6.5048 L20.054056,7.73940786 C20.4117549,7.28800882 20.7963432,6.82079228 21.2824,6.73512 C20.948445,7.06912708 21.0637087,7.739641 21.0331512,8.29553185 L22.0112,7.53768 L21.4323519,8.63774635 C21.9182562,8.33669318 22.4343891,8.03113427 22.9288,8.11672 C22.5006836,8.31619515 22.3787479,8.98630023 22.1599133,9.49813383 L23.3392,9.11992 L22.4178219,9.9566743 C22.9762988,9.84111711 23.5641264,9.73166051 24.0032,9.97752 C23.5331976,10.0186387 23.1993273,10.6073338 22.8193832,11.0136799 L24.0456,11.06152 L22.8916557,11.5332559 L22.8916557,11.5332559 Z" id="Path" fill="#FCD116" fill-rule="nonzero"></path>
        <path d="M0,17.142968 C1.2,17.142968 2.4,18.171768 3.6,18.171768 C4.8,18.171768 6,17.142968 7.2,17.142968 C8.4,17.142968 9.6,18.171768 10.8,18.171768 C12,18.171768 13.2,17.142968 14.4,17.142968 C15.6,17.142968 16.8,18.171768 18,18.171768 C19.2,18.171768 20.4,17.142968 21.6,17.142968 C22.8,17.142968 24,18.171768 25.2,18.171768 C26.4,18.171768 27.6,17.142968 28.8,17.142968 C30,17.142968 31.2,18.171768 32.4,18.171768 C33.6,18.171768 34.8,17.142968 36,17.142968 L36,15.428568 C34.8,15.428568 33.6,16.457368 32.4,16.457368 C31.2,16.457368 30,15.428568 28.8,15.428568 C27.6,15.428568 26.4,16.457368 25.2,16.457368 C24,16.457368 22.8,15.428568 21.6,15.428568 C20.4,15.428568 19.2,16.457368 18,16.457368 C16.8,16.457368 15.6,15.428568 14.4,15.428568 C13.2,15.428568 12,16.457368 10.8,16.457368 C9.6,16.457368 8.4,15.428568 7.2,15.428568 C6,15.428568 4.8,16.457368 3.6,16.457368 C2.4,16.457368 1.2,15.428568 0,15.428568 L0,17.142968 Z" id="w" fill="#FFFFFF" fill-rule="nonzero"></path>
        <path d="M0,13.7144 C1.2,13.7144 2.4,14.7432 3.6,14.7432 C4.8,14.7432 6,13.7144 7.2,13.7144 C8.4,13.7144 9.6,14.7432 10.8,14.7432 C12,14.7432 13.2,13.7144 14.4,13.7144 C15.6,13.7144 16.8,14.7432 18,14.7432 C19.2,14.7432 20.4,13.7144 21.6,13.7144 C22.8,13.7144 24,14.7432 25.2,14.7432 C26.4,14.7432 27.6,13.7144 28.8,13.7144 C30,13.7144 31.2,14.7432 32.4,14.7432 C33.6,14.7432 34.8,13.7144 36,13.7144 L36,12 C34.8,12 33.6,13.0288 32.4,13.0288 C31.2,13.0288 30,12 28.8,12 C27.6,12 26.4,13.0288 25.2,13.0288 C24,13.0288 22.8,12 21.6,12 C20.4,12 19.2,13.0288 18,13.0288 C16.8,13.0288 15.6,12 14.4,12 C13.2,12 12,13.0288 10.8,13.0288 C9.6,13.0288 8.4,12 7.2,12 C6,12 4.8,13.0288 3.6,13.0288 C2.4,13.0288 1.2,12 0,12 L0,13.7144 Z" id="w" fill="#FFFFFF" fill-rule="nonzero"></path>
        <path d="M17.1817898,2.99592731 L17.1824,2.99352 C17.1935165,2.98481314 17.2045297,2.97605771 17.2154451,2.96725645 L16.9272,2.96432 C16.26,2.46056 15.4184,2.26824 14.5536,2.13624 C13.7368,2.0116 12.5616,1.736 12,1.18392 C13.2976,1.55656 15.2504,1.67184 16.0992,1.78432 C16.7358838,1.86872568 17.2799714,2.12659883 17.5213908,2.68987305 C18.1421012,2.0726002 18.5805996,1.37775352 20.3624,1.37064 C21.584,1.36584 22.784,1.17144 23.9952,1 C23.04,1.5396 21.0376,2.23832 19.3824,2.33448 C19.2310039,2.34343078 18.9759468,2.69528037 18.6937478,3.02706445 L21.136,3.07736 C20.65889,3.16552817 20.2099716,3.32206783 19.7841493,3.48961218 C20.053499,3.45203044 20.2891276,3.41247589 20.568,3.45632 C20.708,3.47816 20.8712,3.62752 20.86,3.70256 L19.2843113,3.69211698 C18.6626972,3.94671321 18.0899259,4.17365493 17.548,4.17032 C16.7768,4.16552 15.9688,3.79968 15.552,3.27328 L14.6552,3.26544 C14.4728,3.2552 14.248,2.97488 14.3712,2.90776 L15.2416,2.88144 C15.5464,2.6312 15.9936,2.58 16.5832,2.9836 L17.1817898,2.99592731 L17.1817898,2.99592731 Z" id="Path" fill="#FCD116" fill-rule="nonzero"></path>
        <path d="M4,1 C2.34314575,1 1,2.34314575 1,4 L1,20 C1,21.6568542 2.34314575,23 4,23 L32,23 C33.6568542,23 35,21.6568542 35,20 L35,4 C35,2.34314575 33.6568542,1 32,1 L4,1 Z M4,0 L32,0 C34.209139,0 36,1.790861 36,4 L36,20 C36,22.209139 34.209139,24 32,24 L4,24 C1.790861,24 0,22.209139 0,20 L0,4 C0,1.790861 1.790861,0 4,0 Z" id="Mask" fill="#031619" fill-rule="nonzero" opacity="0.2"></path>
    </g>
</svg>