<?xml version="1.0" encoding="UTF-8"?>
<svg width="36px" height="24px" viewBox="0 0 36 24" version="1.1" xmlns="http://www.w3.org/2000/svg" xmlns:xlink="http://www.w3.org/1999/xlink">
    <!-- Generator: Sketch 55.2 (78181) - https://sketchapp.com -->
    <title>Flag / VU</title>
    <desc>Created with Sketch.</desc>
    <g id="Flag-/-VU" stroke="none" stroke-width="1" fill="none" fill-rule="evenodd">
        <path d="M4,0 L32,0 C34.209139,0 36,1.790861 36,4 L36,20 C36,22.209139 34.209139,24 32,24 L4,24 C1.790861,24 0,22.209139 0,20 L0,4 C0,1.790861 1.790861,0 4,0 Z" id="Mask" fill="#E5002C"></path>
        <path d="M0,12 L36,12 L36,20 C36,22.209139 34.209139,24 32,24 L4,24 C1.790861,24 0,22.209139 0,20 L0,12 Z" id="Rectangle-path" fill="#009837" fill-rule="nonzero"></path>
        <rect id="Rectangle" fill="#000000" x="0" y="10" width="36" height="4"></rect>
        <path d="M6.96909012e-07,20.0023869 L6.96909012e-07,3.99761309 C0.000690031536,2.81716923 0.512713906,1.7563281 1.32657265,1.02458939 L19.0000007,12 L1.32657265,22.9754106 C0.512713906,22.2436719 0.000690031536,21.1828308 6.96909012e-07,20.0023869 Z" id="Path" fill="#000000"></path>
        <path d="M36,11.5 L36,12.5 L15.1433981,12.5 L0.388512922,21.7218032 C0.241939636,21.4149167 0.133330531,21.0864225 0.0687636577,20.7423989 L14.0566019,12 L0.0687636577,3.25760111 C0.133330531,2.91357747 0.241939636,2.58508334 0.388512922,2.27819676 L15.1433981,11.5 L36,11.5 L36,11.5 Z" id="Path" fill="#FFCD00"></path>
        <circle id="Oval" fill="#FFCD00" cx="5" cy="12" r="2"></circle>
        <path d="M4,1 C2.34314575,1 1,2.34314575 1,4 L1,20 C1,21.6568542 2.34314575,23 4,23 L32,23 C33.6568542,23 35,21.6568542 35,20 L35,4 C35,2.34314575 33.6568542,1 32,1 L4,1 Z M4,0 L32,0 C34.209139,0 36,1.790861 36,4 L36,20 C36,22.209139 34.209139,24 32,24 L4,24 C1.790861,24 0,22.209139 0,20 L0,4 C0,1.790861 1.790861,0 4,0 Z" id="Mask" fill="#031619" fill-rule="nonzero" opacity="0.2"></path>
    </g>
</svg>