<?xml version="1.0" encoding="UTF-8"?>
<svg width="36px" height="24px" viewBox="0 0 36 24" version="1.1" xmlns="http://www.w3.org/2000/svg" xmlns:xlink="http://www.w3.org/1999/xlink">
    <!-- Generator: Sketch 55.2 (78181) - https://sketchapp.com -->
    <title>Flag / MR</title>
    <desc>Created with Sketch.</desc>
    <g id="Flag-/-MR" stroke="none" stroke-width="1" fill="none" fill-rule="evenodd">
        <path d="M4,0 L32,0 C34.209139,0 36,1.790861 36,4 L36,20 C36,22.209139 34.209139,24 32,24 L4,24 C1.790861,24 0,22.209139 0,20 L0,4 C0,1.790861 1.790861,0 4,0 Z" id="Mask" fill="#00642E"></path>
        <path d="M36,20 C36,22.209139 34.209139,24 32,24 L4,24 C1.790861,24 0,22.209139 0,20 L36,20 Z" id="Rectangle" fill="#DF0038"></path>
        <path d="M4,0 L32,0 C34.209139,0 36,1.790861 36,4 L0,4 C0,1.790861 1.790861,0 4,0 Z" id="Rectangle" fill="#DF0038"></path>
        <path d="M4,1 C2.34314575,1 1,2.34314575 1,4 L1,20 C1,21.6568542 2.34314575,23 4,23 L32,23 C33.6568542,23 35,21.6568542 35,20 L35,4 C35,2.34314575 33.6568542,1 32,1 L4,1 Z M4,0 L32,0 C34.209139,0 36,1.790861 36,4 L36,20 C36,22.209139 34.209139,24 32,24 L4,24 C1.790861,24 0,22.209139 0,20 L0,4 C0,1.790861 1.790861,0 4,0 Z" id="Mask" fill="#031619" fill-rule="nonzero" opacity="0.2"></path>
        <path d="M25.0525837,8.86072022 C25.2069125,9.4479227 25.2897231,10.0690023 25.2897231,10.7051383 C25.2897231,14.7365092 22.0262324,18 17.9948616,18 C13.9634905,18 10.7,14.7327451 10.7,10.7051383 C10.7,10.0690023 10.7828106,9.45168682 10.9371395,8.86072022 C10.9559601,12.7415264 14.1102911,15.8808013 17.9948616,15.8808013 C21.879432,15.8808013 25.0337631,12.7415264 25.0525837,8.86072022 Z M17.9948615,6 L18.6287385,7.95062221 L20.6797698,7.95069702 L19.0204965,9.15632536 L19.654226,11.1069956 L17.9948615,9.90149285 L16.3354966,11.1069956 L16.9692262,9.15632536 L15.3099536,7.95069702 L17.3609844,7.95062221 L17.9948615,6 Z" id="Shape" fill="#FFC400" fill-rule="nonzero"></path>
    </g>
</svg>