<?xml version="1.0" encoding="UTF-8"?>
<svg width="36px" height="24px" viewBox="0 0 36 24" version="1.1" xmlns="http://www.w3.org/2000/svg" xmlns:xlink="http://www.w3.org/1999/xlink">
    <!-- Generator: Sketch 55.2 (78181) - https://sketchapp.com -->
    <title>Flag / BI</title>
    <desc>Created with Sketch.</desc>
    <g id="Flag-/-BI" stroke="none" stroke-width="1" fill="none" fill-rule="evenodd">
        <path d="M4,0 L32,0 C34.209139,0 36,1.790861 36,4 L36,20 C36,22.209139 34.209139,24 32,24 L4,24 C1.790861,24 0,22.209139 0,20 L0,4 C0,1.790861 1.790861,0 4,0 Z" id="Mask" fill="#FF0019"></path>
        <path d="M34.5277118,0.899731681 C35.4262751,1.63322949 36,2.74961443 36,4 L36,20 C36,21.2503856 35.4262751,22.3667705 34.5277118,23.1002683 L18,13 L1.47228821,23.1002683 C0.573724904,22.3667705 0,21.2503856 0,20 L0,4 C0,2.74961443 0.573724904,1.63322949 1.47228821,0.899731681 L18,11 L34.5277118,0.899731681 L34.5277118,0.899731681 Z" id="Path" fill="#00B918"></path>
        <path d="M33.5310106,0.30346374 C34.437404,0.679289348 35.1756734,1.37877531 35.601652,2.25775458 L20.5454545,12 L35.601652,21.7422454 C35.1756734,22.6212247 34.437404,23.3207107 33.5310106,23.6965363 L18,13.6470588 L2.46898942,23.6965363 C1.56259604,23.3207107 0.824326556,22.6212247 0.398347991,21.7422454 L15.4545455,12 L0.398347991,2.25775458 C0.824326556,1.37877531 1.56259604,0.679289348 2.46898942,0.30346374 L18,10.3529412 L33.5310106,0.30346374 L33.5310106,0.30346374 Z" id="Path" fill="#FFFFFF"></path>
        <circle id="Oval" fill="#FFFFFF" cx="18" cy="12" r="7"></circle>
        <polygon id="Star" fill="#E00017" points="17.4267346 9.99292487 16.2679492 10 16.8534691 9 16.2679492 8 17.4267346 8.00707513 18 7 18.5732654 8.00707513 19.7320508 8 19.1465309 9 19.7320508 10 18.5732654 9.99292487 18 11"></polygon>
        <polygon id="Star-Copy" fill="#E00017" points="20.4267346 14.9929249 19.2679492 15 19.8534691 14 19.2679492 13 20.4267346 13.0070751 21 12 21.5732654 13.0070751 22.7320508 13 22.1465309 14 22.7320508 15 21.5732654 14.9929249 21 16"></polygon>
        <polygon id="Star-Copy" fill="#E00017" points="14.4267346 14.9929249 13.2679492 15 13.8534691 14 13.2679492 13 14.4267346 13.0070751 15 12 15.5732654 13.0070751 16.7320508 13 16.1465309 14 16.7320508 15 15.5732654 14.9929249 15 16"></polygon>
        <path d="M4,1 C2.34314575,1 1,2.34314575 1,4 L1,20 C1,21.6568542 2.34314575,23 4,23 L32,23 C33.6568542,23 35,21.6568542 35,20 L35,4 C35,2.34314575 33.6568542,1 32,1 L4,1 Z M4,0 L32,0 C34.209139,0 36,1.790861 36,4 L36,20 C36,22.209139 34.209139,24 32,24 L4,24 C1.790861,24 0,22.209139 0,20 L0,4 C0,1.790861 1.790861,0 4,0 Z" id="Mask" fill="#031619" fill-rule="nonzero" opacity="0.2"></path>
    </g>
</svg>