<?xml version="1.0" encoding="UTF-8"?>
<svg width="36px" height="24px" viewBox="0 0 36 24" version="1.1" xmlns="http://www.w3.org/2000/svg" xmlns:xlink="http://www.w3.org/1999/xlink">
    <!-- Generator: Sketch 55.2 (78181) - https://sketchapp.com -->
    <title>Flag / AF</title>
    <desc>Created with Sketch.</desc>
    <g id="Flag-/-AF" stroke="none" stroke-width="1" fill="none" fill-rule="evenodd">
        <path d="M4,0 L32,0 C34.209139,0 36,1.790861 36,4 L36,20 C36,22.209139 34.209139,24 32,24 L4,24 C1.790861,24 0,22.209139 0,20 L0,4 C0,1.790861 1.790861,0 4,0 Z" id="Mask" fill="#E60000"></path>
        <path d="M4,0 L12,0 L12,24 L4,24 C1.790861,24 0,22.209139 0,20 L0,4 C0,1.790861 1.790861,0 4,0 Z" id="Rectangle-9" fill="#000000"></path>
        <path d="M24,0 L32,0 C34.209139,0 36,1.790861 36,4 L36,20 C36,22.209139 34.209139,24 32,24 L24,24 L24,0 Z" id="Rectangle-9-Copy" fill="#007D2C"></path>
        <path d="M4,1 C2.34314575,1 1,2.34314575 1,4 L1,20 C1,21.6568542 2.34314575,23 4,23 L32,23 C33.6568542,23 35,21.6568542 35,20 L35,4 C35,2.34314575 33.6568542,1 32,1 L4,1 Z M4,0 L32,0 C34.209139,0 36,1.790861 36,4 L36,20 C36,22.209139 34.209139,24 32,24 L4,24 C1.790861,24 0,22.209139 0,20 L0,4 C0,1.790861 1.790861,0 4,0 Z" id="Mask" fill="#031619" fill-rule="nonzero" opacity="0.2"></path>
        <path d="M18,21 C13.0294373,21 9,16.9705627 9,12 C9,7.02943725 13.0294373,3 18,3 C22.9705627,3 27,7.02943725 27,12 C27,16.9705627 22.9705627,21 18,21 Z M18,18 C21.8659932,18 25,14.8659932 25,11 C25,7.13400675 21.8659932,4 18,4 C14.1340068,4 11,7.13400675 11,11 C11,14.8659932 14.1340068,18 18,18 Z" id="Combined-Shape" fill="#FFFFFF"></path>
        <path d="M19,9.66666667 L20,10.3333333 L20,9 L21,8 L21,11.5 L21,16 L20,16 L16,16 L15,16 L15,11.5 L15,8 L16,9 L16,10.3333333 L17,9.66666667 L17,7 L18,6 L19,7 L19,9.66666667 Z M17,15 L19,15 L19,12 L17,12 L17,15 Z" id="Combined-Shape" fill="#FFFFFF" fill-rule="nonzero"></path>
    </g>
</svg>