<?xml version="1.0" encoding="UTF-8"?>
<svg width="36px" height="24px" viewBox="0 0 36 24" version="1.1" xmlns="http://www.w3.org/2000/svg" xmlns:xlink="http://www.w3.org/1999/xlink">
    <!-- Generator: Sketch 55.2 (78181) - https://sketchapp.com -->
    <title>Flag / BY</title>
    <desc>Created with Sketch.</desc>
    <g id="Flag-/-BY" stroke="none" stroke-width="1" fill="none" fill-rule="evenodd">
        <path d="M4,0 L32,0 C34.209139,0 36,1.790861 36,4 L36,20 C36,22.209139 34.209139,24 32,24 L4,24 C1.790861,24 0,22.209139 0,20 L0,4 C0,1.790861 1.790861,0 4,0 Z" id="Mask" fill="#E0000A"></path>
        <path d="M8,16 L36,16 L36,20 C36,22.209139 34.209139,24 32,24 L8,24 L8,16 Z" id="Path" fill="#007F22" fill-rule="nonzero"></path>
        <path d="M4,1 C2.34314575,1 1,2.34314575 1,4 L1,20 C1,21.6568542 2.34314575,23 4,23 L32,23 C33.6568542,23 35,21.6568542 35,20 L35,4 C35,2.34314575 33.6568542,1 32,1 L4,1 Z M4,0 L32,0 C34.209139,0 36,1.790861 36,4 L36,20 C36,22.209139 34.209139,24 32,24 L4,24 C1.790861,24 0,22.209139 0,20 L0,4 C0,1.790861 1.790861,0 4,0 Z" id="Mask" fill="#031619" fill-rule="nonzero" opacity="0.2"></path>
        <path d="M7,2.5 C6.87203884,2.5 6.74407768,2.54881554 6.64644661,2.64644661 L5.64644661,3.64644661 C5.45118446,3.84170876 5.45118446,4.15829124 5.64644661,4.35355339 L6.64644661,5.35355339 C6.74407768,5.45118446 6.87203884,5.5 7,5.5 L7,6.88196601 L6.4472136,5.7763932 C6.36251759,5.60700119 6.18938603,5.5 6,5.5 L5,5.5 C4.7847848,5.5 4.59371537,5.63771505 4.52565835,5.84188612 L4,7.41886117 L3.47434165,5.84188612 C3.40628463,5.63771505 3.2152152,5.5 3,5.5 L2,5.5 C1.81061397,5.5 1.63748241,5.60700119 1.5527864,5.7763932 L1,6.88196601 L1,5.5 C1.12796116,5.5 1.25592232,5.45118446 1.35355339,5.35355339 L2.35355339,4.35355339 C2.54881554,4.15829124 2.54881554,3.84170876 2.35355339,3.64644661 L1.35355339,2.64644661 C1.3466055,2.63949872 1.339504,2.63279805 1.33225983,2.6263446 C1.83062975,1.66042769 2.8381893,1 4,1 L7,1 L7,2.5 L7,2.5 Z M7,3.70710678 L7,4.29289322 L6.70710678,4 L7,3.70710678 L7,3.70710678 Z M7,9.70710678 L7,10.2928932 L6.70710678,10 L7,9.70710678 L7,9.70710678 Z M7,11.5 L7,12.5 C6.87203884,12.5 6.74407768,12.5488155 6.64644661,12.6464466 L5.64644661,13.6464466 C5.45118446,13.8417088 5.45118446,14.1582912 5.64644661,14.3535534 L6.64644661,15.3535534 C6.6724747,15.3795815 6.70065845,15.4021401 6.73042319,15.4212292 L5.69098301,17.5001095 L5.36037961,17.5001095 L4.47434165,14.8419956 C4.32239226,14.3861475 3.67760774,14.3861475 3.52565835,14.8419956 L2.63962039,17.5001095 L2.30901699,17.5001095 L1.26957681,15.4212292 C1.29934155,15.4021401 1.3275253,15.3795815 1.35355339,15.3535534 L2.35355339,14.3535534 C2.54881554,14.1582912 2.54881554,13.8417088 2.35355339,13.6464466 L1.35355339,12.6464466 C1.25592232,12.5488155 1.12796116,12.5 1,12.5 L1,11.5 C1.12796116,11.5 1.25592232,11.4511845 1.35355339,11.3535534 L2.35355339,10.3535534 C2.54881554,10.1582912 2.54881554,9.84170876 2.35355339,9.64644661 L1.35355339,8.64644661 C1.32753739,8.62043061 1.29936772,8.59788088 1.26961828,8.57879743 L2.30901699,6.5 L2.63962039,6.5 L3.52565835,9.15811388 C3.67760774,9.61396204 4.32239226,9.61396204 4.47434165,9.15811388 L5.36037961,6.5 L5.69098301,6.5 L6.73038172,8.57879743 C6.70063228,8.59788088 6.67246261,8.62043061 6.64644661,8.64644661 L5.64644661,9.64644661 C5.45118446,9.84170876 5.45118446,10.1582912 5.64644661,10.3535534 L6.64644661,11.3535534 C6.74407768,11.4511845 6.87203884,11.5 7,11.5 L7,11.5 Z M7,13.7071068 L7,14.2928932 L6.70710678,14 L7,13.7071068 L7,13.7071068 Z M7,17.1181435 L7,18.5 C6.87203884,18.5 6.74407768,18.5488155 6.64644661,18.6464466 L5.64644661,19.6464466 C5.45118446,19.8417088 5.45118446,20.1582912 5.64644661,20.3535534 L6.64644661,21.3535534 C6.74407768,21.4511845 6.87203884,21.5 7,21.5 L7,23 L4,23 C2.8381893,23 1.83062975,22.3395723 1.33225983,21.3736554 C1.339504,21.367202 1.3466055,21.3605013 1.35355339,21.3535534 L2.35355339,20.3535534 C2.54881554,20.1582912 2.54881554,19.8417088 2.35355339,19.6464466 L1.35355339,18.6464466 C1.25592232,18.5488155 1.12796116,18.5 1,18.5 L1,17.1181435 L1.5527864,18.2237163 C1.63748241,18.3931083 1.81061397,18.5001095 2,18.5001095 L3,18.5001095 C3.2152152,18.5001095 3.40628463,18.3623945 3.47434165,18.1582234 L4,16.5812484 L4.52565835,18.1582234 C4.59371537,18.3623945 4.7847848,18.5001095 5,18.5001095 L6,18.5001095 C6.18938603,18.5001095 6.36251759,18.3931083 6.4472136,18.2237163 L7,17.1181435 L7,17.1181435 Z M7,19.7071068 L7,20.2928932 L6.70710678,20 L7,19.7071068 L7,19.7071068 Z M1.01289409,20.2799991 C1.00436153,20.1878118 1,20.0944152 1,20 L1,19.7071068 L1.29289322,20 L1.01289409,20.2799991 L1.01289409,20.2799991 Z M1,14.2928932 L1,13.7071068 L1.29289322,14 L1,14.2928932 L1,14.2928932 Z M1,10.2928932 L1,9.70710678 L1.29289322,10 L1,10.2928932 L1,10.2928932 Z M1,4.29289322 L1,4 C1,3.90558477 1.00436153,3.81218823 1.01289409,3.72000087 L1.29289322,4 L1,4.29289322 Z M3.64644661,10.6464466 L2.64644661,11.6464466 C2.45118446,11.8417088 2.45118446,12.1582912 2.64644661,12.3535534 L3.64644661,13.3535534 C3.84170876,13.5488155 4.15829124,13.5488155 4.35355339,13.3535534 L5.35355339,12.3535534 C5.54881554,12.1582912 5.54881554,11.8417088 5.35355339,11.6464466 L4.35355339,10.6464466 C4.15829124,10.4511845 3.84170876,10.4511845 3.64644661,10.6464466 Z M4.29289322,12 L4,12.2928932 L3.70710678,12 L4,11.7071068 L4.29289322,12 Z M3.64644661,19.6464466 L2.64644661,20.6464466 C2.45118446,20.8417088 2.45118446,21.1582912 2.64644661,21.3535534 L3.64644661,22.3535534 C3.84170876,22.5488155 4.15829124,22.5488155 4.35355339,22.3535534 L5.35355339,21.3535534 C5.54881554,21.1582912 5.54881554,20.8417088 5.35355339,20.6464466 L4.35355339,19.6464466 C4.15829124,19.4511845 3.84170876,19.4511845 3.64644661,19.6464466 Z M4.29289322,21 L4,21.2928932 L3.70710678,21 L4,20.7071068 L4.29289322,21 Z M3.64644661,1.64644661 L2.64644661,2.64644661 C2.45118446,2.84170876 2.45118446,3.15829124 2.64644661,3.35355339 L3.64644661,4.35355339 C3.84170876,4.54881554 4.15829124,4.54881554 4.35355339,4.35355339 L5.35355339,3.35355339 C5.54881554,3.15829124 5.54881554,2.84170876 5.35355339,2.64644661 L4.35355339,1.64644661 C4.15829124,1.45118446 3.84170876,1.45118446 3.64644661,1.64644661 Z M4.29289322,3 L4,3.29289322 L3.70710678,3 L4,2.70710678 L4.29289322,3 Z" id="Shape" fill="#FFFFFF"></path>
    </g>
</svg>