<?xml version="1.0" encoding="UTF-8"?>
<svg width="36px" height="24px" viewBox="0 0 36 24" version="1.1" xmlns="http://www.w3.org/2000/svg" xmlns:xlink="http://www.w3.org/1999/xlink">
    <!-- Generator: Sketch 55.2 (78181) - https://sketchapp.com -->
    <title>Flag / ZW</title>
    <desc>Created with Sketch.</desc>
    <g id="Flag-/-ZW" stroke="none" stroke-width="1" fill="none" fill-rule="evenodd">
        <path d="M4,0 L32,0 C34.209139,0 36,1.790861 36,4 L36,20 C36,22.209139 34.209139,24 32,24 L4,24 C1.790861,24 0,22.209139 0,20 L0,4 C0,1.790861 1.790861,0 4,0 Z" id="Mask" fill="#006700"></path>
        <rect id="Rectangle" fill="#FFD100" x="0" y="4" width="36" height="3"></rect>
        <rect id="Rectangle-Copy-3" fill="#FFD100" x="0" y="17" width="36" height="3"></rect>
        <rect id="Rectangle-Copy" fill="#E00017" x="0" y="7" width="36" height="10"></rect>
        <rect id="Rectangle-Copy-2" fill="#000000" x="0" y="10" width="36" height="4"></rect>
        <path d="M6.96909012e-07,20.0023869 L6.96909012e-07,3.99761309 C0.000690031536,2.81716923 0.512713906,1.7563281 1.32657265,1.02458939 L16.5290007,12 L1.32657265,22.9754106 C0.512713906,22.2436719 0.000690031536,21.1828308 6.96909012e-07,20.0023869 Z" id="Path" fill="#000000"></path>
        <path d="M0.577829642,1.92793583 L14.5290007,12 L0.577829643,22.0720642 C0.211514944,21.468363 0.000443119228,20.7600084 6.96909051e-07,20.0023869 L6.96909051e-07,3.99761309 C0.000443119228,3.23999163 0.211514944,2.53163703 0.577829642,1.92793583 L0.577829642,1.92793583 Z" id="Path" fill="#FFFFFF"></path>
        <polygon id="star-copy-2" fill="#E70000" fill-rule="nonzero" points="8.28206236 15.9989874 5.50056057 13.8652225 2.71976096 16 3.79034839 12.5592776 1 10.4383149 4.44316288 10.4456051 5.49943527 7 6.55683977 10.4452225 10 10.436695 7.21034736 12.55867"></polygon>
        <path d="M4,1 C2.34314575,1 1,2.34314575 1,4 L1,20 C1,21.6568542 2.34314575,23 4,23 L32,23 C33.6568542,23 35,21.6568542 35,20 L35,4 C35,2.34314575 33.6568542,1 32,1 L4,1 Z M4,0 L32,0 C34.209139,0 36,1.790861 36,4 L36,20 C36,22.209139 34.209139,24 32,24 L4,24 C1.790861,24 0,22.209139 0,20 L0,4 C0,1.790861 1.790861,0 4,0 Z" id="Mask" fill="#031619" fill-rule="nonzero" opacity="0.2"></path>
        <polygon id="Path-15" fill="#FFD100" points="7 15 7 13 8 12 5 10 5 9 3 9 4 10 4 12 3 14 4 15"></polygon>
    </g>
</svg>