<?xml version="1.0" encoding="UTF-8"?>
<svg width="36px" height="24px" viewBox="0 0 36 24" version="1.1" xmlns="http://www.w3.org/2000/svg" xmlns:xlink="http://www.w3.org/1999/xlink">
    <!-- Generator: Sketch 55.2 (78181) - https://sketchapp.com -->
    <title>Flag / BT</title>
    <desc>Created with Sketch.</desc>
    <g id="Flag-/-BT" stroke="none" stroke-width="1" fill="none" fill-rule="evenodd">
        <path d="M4,0 L32,0 C34.209139,0 36,1.790861 36,4 L36,20 C36,22.209139 34.209139,24 32,24 L4,24 C1.790861,24 0,22.209139 0,20 L0,4 C0,1.790861 1.790861,0 4,0 Z" id="Mask" fill="#FFD520"></path>
        <path d="M34.5823215,0.94511903 C35.449455,1.67885504 36,2.77513418 36,4 L36,20 C36,22.209139 34.209139,24 32,24 L4,24 C3.01572682,24 2.11448654,23.6444939 1.41767854,23.054881 L34.5823215,0.94511903 L34.5823215,0.94511903 Z" id="Path" fill="#FF4E12"></path>
        <path d="M24.7797879,7.31239803 C25.1600282,7.29679991 26.2884201,7.7526648 26.54208,7.9066 C26.5575996,7.91602111 26.5733648,7.9252537 26.5893507,7.93428671 C26.5827776,7.57435441 26.8299214,7.61822148 26.8585972,7.26788463 L26.666939,7.16140787 C26.5177007,7.32696 26.2597043,7.32696 26.10768,7.32696 C26.35868,7.18532 26.25568,6.85692 25.99168,6.81828 C25.93388,6.95352 25.74704,7.15312 25.61816,7.2304 C25.6735913,7.10114943 25.6173338,6.87193784 25.5559203,6.76756345 C25.4135192,6.8417559 25.0226508,7.08436323 24.7797879,7.31239803 L24.7797879,7.31239803 Z M27.487288,5.61859756 C27.8570891,5.17464408 27.4190656,5.00075774 27.96176,4.51964 C28.42544,4.10872 28.05024,3.83484 28.48992,3.51512 C28.6316,3.41212 28.9406,3.20604 28.96644,3 C29.15312,3.4636 28.38676,3.528 28.43828,4.27496 C28.4691311,4.72230075 28.1865527,4.71211299 28.0502453,5.37692217 C28.1662067,5.29203061 28.2680888,5.24039758 28.33548,5.13768 C28.606,4.72556 29.179,5.20848 29.662,4.84148 C29.57832,5.36304 28.928,5.17628 28.64468,5.51116 C28.5060674,5.67495892 28.379777,5.79562521 28.2296233,5.86409023 C28.4381546,5.84489998 28.6220083,5.87631721 28.79924,5.7688 C29.58476,5.29228 29.9004,5.86536 30.60224,5.64 C30.41544,6.09072 29.37872,5.7044 28.92808,6.03924 C28.6670064,6.23311688 28.0259425,6.42270145 27.690076,6.4279118 C27.7600251,6.51282219 27.6545182,6.57943597 27.5187289,6.53785587 L27.5178809,6.53983441 C27.7462764,6.65355489 27.6168331,6.77783141 27.4406469,6.7200473 L27.4401693,6.72116151 C27.6273588,6.81202265 27.5855265,6.91236422 27.4719717,6.92147531 C27.8218937,7.39487006 27.3165495,7.75908697 27.3325686,8.1666822 C27.4474829,8.17423093 27.5564552,8.16589913 27.65208,8.1384 C28.14876,7.99556 27.92424,7.62328 27.70224,7.55888 C28.04824,7.41076 28.38124,7.71344 28.28992,8.04824 C28.75992,7.86796 28.55424,7.42368 28.31592,7.45584 C28.57356,7.25624 28.93196,7.55892 28.91876,7.89372 C29.65012,7.95812 30.01596,8.32516 29.72844,8.66648 C29.7806,7.98392 28.72296,8.12556 28.17444,8.28012 C27.7375698,8.40319683 27.2509858,8.38738441 26.8664687,8.25871731 C26.8618322,8.53441715 26.8759258,8.86511645 26.6098,9.05904 C26.75144,8.7242 26.6678,8.38936 26.62264,8.18332 C26.6201925,8.17212876 26.6178927,8.16117625 26.6157362,8.15045529 C26.6085172,8.14650164 26.6013646,8.14249645 26.59428,8.13844 C26.2463736,7.93923856 25.7153159,7.77805576 25.0506101,7.6058963 C25.1434323,7.70779217 25.2274571,7.81012362 25.32848,7.81644 C25.53448,7.82932 25.65048,8.11264 25.9208,8.14484 C26.1171806,8.16818961 26.2728027,8.31377273 26.3458264,8.4706441 C26.4271897,8.58735782 26.4102341,8.75758888 26.3058882,8.86686915 C26.5282318,9.03290638 26.4753318,9.52568498 26.204,9.58736 C26.2924981,9.39272455 26.0862474,9.31053077 26.011022,9.15710394 C25.9113945,9.30436162 25.6777834,9.42988545 25.82444,9.63208 C25.5876664,9.55031224 25.5408253,9.3304118 25.6088799,9.13204671 C25.4385891,9.29626674 25.2257865,9.40029603 24.96144,9.25896 C25.195258,9.24781922 25.2557702,8.93797956 25.4511972,8.84617064 C25.3923131,8.8095712 25.3430457,8.76640624 25.30896,8.71772 C25.02464,8.31176 24.60064,8.06092 24.13696,8.08668 C24.1443252,8.05669816 24.1525498,8.0288003 24.1615638,8.0028785 C24.0969412,7.98478732 24.0143962,7.94446612 23.9169211,7.89029321 L23.825496,7.96033425 C23.8131387,7.76379091 23.5448699,7.7745616 23.5093532,7.65146931 C23.2254454,7.48554447 22.8863778,7.30089867 22.524166,7.18717505 C22.3605227,7.19607233 22.1897134,7.17285371 22.0366167,7.13770252 C21.9778037,7.20544316 21.8943842,7.3228093 21.8406014,7.41401406 C22.2224377,7.61791268 22.438476,8.35810311 22.95248,8.49892 C23.42248,8.62772 23.39032,9.14928 23.841,9.27164 C23.3582,9.4004 23.3002,8.8724 22.70768,8.65348 C22.1841139,8.45997125 22.1133085,7.91427358 21.7481402,7.67458507 C21.7207095,7.80754752 21.7143349,7.93641465 21.7249941,8.06265055 C22.258487,8.47155371 22.2850235,9.02905303 22.81096,9.18168 C23.21012,9.2976 23.63516,9.43924 23.85396,9.67104 C24.07296,9.90288 25.02596,10.0574 25.30928,9.993 C25.5926,9.92864 26.19796,9.68396 26.4426,9.85136 C26.5198,9.68392 26.6486,9.45212 26.80312,9.28472 C26.7865923,9.405512 26.7964233,9.5126968 26.8208149,9.60933657 C26.8066915,9.54628431 26.79924,9.48071204 26.79924,9.4134 C26.79924,8.9206 27.19876,8.521 27.69176,8.521 C28.1576661,8.521 28.5401957,8.87817489 28.5805601,9.33360091 C29.0398829,9.3636269 28.9441257,9.87518047 29.1148,9.90928 C29.3208,10.15396 29.30144,10.52104 28.97312,10.55968 C28.86364,10.90736 28.574,11.13916 28.2648,11.09408 C28.06528,11.31304 27.81412,11.3774 27.60812,11.32588 C27.46644,11.34524 27.21524,11.28084 27.14444,11.20356 C26.9126,11.18424 26.72596,11.0748 26.57128,10.84296 C26.36528,10.80432 26.14628,10.97176 25.68276,11.29372 C25.4791489,11.4351112 25.1836288,11.4697045 24.892197,11.4476704 C24.8962076,11.7293971 25.2707925,12.0947732 25.0194,12.37528 C25.02592,12.195 24.83924,11.90524 24.62672,11.81508 C24.74256,12.02756 24.38188,12.18212 24.54288,12.51052 C24.20808,12.4268 24.0664,12.0018 24.27888,11.53176 C24.1372,11.76996 23.87972,11.87304 23.70588,11.76356 C23.9865375,11.6793628 24.0323264,11.3897126 23.9797576,11.1802913 C23.7297888,11.0228291 23.3863067,11.1054574 23.1265666,11.3017186 C23.1895319,12.0175444 23.0242773,12.8091178 22.59176,13.37996 C22.37144,13.67072 22.43728,13.75344 22.15392,14.04964 C22.04524,14.16328 21.92208,14.30724 21.96076,14.71932 C22.14108,14.65492 22.3986,14.82236 22.45008,14.96404 C22.57888,14.89964 22.75928,14.9254 22.82356,15.00264 C23.0424,14.89964 23.22276,14.95112 23.41588,15.1572 C23.5834,15.13144 23.76372,15.1572 23.93108,15.33748 C24.02124,15.1572 24.20156,15.0928 24.33024,15.13144 C24.3174,14.89964 24.54924,14.73224 24.75524,14.82236 C24.69088,14.51328 24.97424,14.28144 25.24476,14.3716 C25.4764,14.19132 25.94008,14.17844 26.17192,14.44888 C25.75976,14.333 25.77272,14.77088 25.42492,14.7322 C25.51508,14.9898 25.28324,15.13788 25.05156,15.22156 C25.19956,15.15076 25.36056,15.06704 25.41208,15.15716 C25.54088,15.04452 25.7984,15.08636 25.86288,15.14432 C26.0334,15.0896 26.19776,15.13144 26.27488,15.33748 C26.50676,15.47916 26.66128,15.83972 26.49392,16.1102 C26.4424,15.82688 26.24924,15.83976 26.17192,15.72384 C25.99156,15.78824 25.81124,15.78824 25.75976,15.67232 C25.7270383,15.7050544 25.6696222,15.736489 25.6015501,15.7591902 C25.6177979,15.7584792 25.634137,15.75812 25.65056,15.75812 C26.2592,15.75812 26.75272,16.25156 26.75272,16.86028 C26.75272,17.46896 26.25924,17.96228 25.65056,17.96228 C25.0963895,17.96228 24.637656,17.5533071 24.5599868,17.0206566 C24.5670419,17.1214494 24.5370835,17.2283301 24.51056,17.30788 C24.8454,17.35936 24.56208,17.65556 25.14156,17.84872 C24.8584,17.93888 24.30456,17.84872 24.22724,17.50104 C23.94392,17.48824 23.75072,17.20488 23.76372,16.90852 C23.54472,16.70252 23.51256,16.40636 23.81524,16.20032 C23.55756,16.2776 23.41588,15.86552 23.0424,16.03292 C22.85672,16.1162 22.3664,15.97496 22.37288,15.80108 C22.29552,15.92988 21.82556,15.8784 21.76104,15.65948 C21.60652,15.74316 21.24584,15.60148 21.25236,15.389 C21.05268,15.47916 20.78236,15.3182 20.79516,15.11212 C20.7590986,15.1071428 20.729282,15.0968765 20.7047362,15.0825293 C20.6537822,15.272309 20.5439284,15.5122305 20.33164,15.51744 C20.49264,15.23412 20.2608,15.02164 20.35096,14.99592 C20.04832,14.8864 19.85516,15.55608 19.48164,15.20192 C19.83264,15.23092 19.73596,14.64496 20.2608,14.60952 C19.73596,14.558 19.86812,14.34876 19.59764,14.33908 C19.67164,14.22636 19.86484,14.24248 20.00964,14.35516 C20.152471,14.4662876 20.2779135,14.1791399 20.5430717,14.3487881 L20.54404,14.34588 C20.433448,14.2229152 20.4753589,14.0530293 20.5578362,13.8921903 C20.3971696,13.8823675 20.2757294,13.8459277 20.1859271,13.7945335 C20.1198662,13.8389065 20.020403,13.8572406 19.8872,13.8306 C19.8022304,13.8136137 19.7315219,13.779438 19.6749583,13.7345987 C19.6297013,13.749266 19.5719426,13.7562798 19.50108,13.75344 C19.1135046,13.7379344 18.900136,13.6508872 18.7906363,13.539728 C18.7358101,13.561299 18.6675326,13.571595 18.58644,13.56668 C18.3219481,13.5506757 18.1422607,13.4828077 18.0216092,13.3926792 C17.7416033,13.3923873 17.5463415,13.3087389 17.4167741,13.1938203 C17.2196917,13.221516 17.0645192,13.1575552 16.9492949,13.0580981 C16.5477358,13.1469452 16.3500978,13.0504603 16.2588674,12.9073639 C16.2106357,12.975997 16.1267266,13.0239498 15.99172,13.02584 C15.8543153,13.0277756 15.7558821,12.9942304 15.6861059,12.9425109 C15.6614678,13.0228692 15.6030845,13.0940302 15.49564,13.13536 C15.3554043,13.1892865 15.2422792,13.1720616 15.1538963,13.1220003 C15.1502131,13.2149077 15.1028228,13.3122353 15.01948,13.3928 C14.9595705,13.4506997 14.8928464,13.4658691 14.8285294,13.4569389 C14.8319976,13.5015506 14.8215341,13.551747 14.79408,13.6052 C14.7509519,13.6891997 14.695412,13.7331747 14.6370579,13.7530728 C14.6711981,13.8072445 14.6820342,13.8930837 14.66848,14.00748 C14.6594713,14.0835936 14.6267818,14.1326046 14.5836899,14.1616834 C14.628617,14.2188697 14.6198983,14.3263533 14.56852,14.50036 C14.5325593,14.6221268 14.4648914,14.7591738 14.4989579,14.9103859 C14.5088309,14.9327872 14.5191396,14.9549721 14.52988,14.97692 C14.591532,15.1029156 14.6414327,15.220013 14.6813709,15.329558 C14.7647442,15.3472895 14.8478543,15.3724572 14.91616,15.40176 C14.95476,15.34704 15.04812,15.25044 15.14796,15.25364 C15.08356,15.13128 15.14152,14.7836 15.31536,14.68056 C15.354,14.4584 15.47952,14.25236 15.77252,14.23624 C16.05588,14.21692 16.33276,14.2942 16.50008,14.51312 C16.39708,14.48736 16.16532,14.5904 16.01076,14.56464 C15.99792,14.67408 15.87556,14.8222 15.76608,14.86728 C15.8176,14.94456 15.79832,15.15708 15.66952,15.22788 C15.78544,15.14416 16.03656,15.01536 16.12672,15.05404 C16.17824,14.97676 16.46792,14.93812 16.57744,14.99604 C16.84792,14.85436 17.2536,15.07972 17.22144,15.50472 C17.1733012,15.4482528 17.1115897,15.4243966 17.0464498,15.4143936 C17.3607889,15.5432577 17.5822,15.8522893 17.5822,16.21304 C17.5822,16.68956 17.19588,17.07588 16.71936,17.07588 C16.6063391,17.07588 16.4983924,17.0541479 16.3994707,17.0146345 C16.4680783,17.0452663 16.5329946,17.0637057 16.59024,17.0694 C16.44856,17.15324 15.96572,17.16608 15.82404,17.01788 C15.68236,16.86988 15.354,16.87624 15.25096,16.60588 C15.151907,16.6215523 14.9389325,16.6329519 14.7691701,16.5171517 C14.6926284,16.8834123 14.5721889,17.2150288 14.68444,17.72012 C14.92912,17.7716 15.05788,17.9776 15.04504,18.1966 C15.18984,18.20292 15.29288,18.33812 15.2414,18.5958 C15.36372,18.57328 15.52152,18.6086 15.62452,18.7116 C15.71468,18.54428 16.01092,18.5056 16.16544,18.6988 C16.50024,18.67292 16.66768,18.94344 16.65484,19.27828 C16.83504,19.60028 16.77068,19.99312 16.57752,20.24412 C16.59684,20.10896 16.57752,19.9158 16.5712,19.79996 C16.5592,19.5868 16.262,19.54232 16.29424,19.36844 C16.13968,19.38128 15.99156,19.29764 15.94008,19.1818 C15.84992,19.25896 15.72112,19.2848 15.61168,19.24612 C15.78552,19.32344 15.92076,19.63244 15.86924,19.83844 C15.9594,19.99312 15.94004,20.27644 15.8306,20.39876 C15.8112261,20.4931476 15.7718228,20.5647964 15.7168399,20.6116366 C15.7180343,20.6316715 15.71864,20.651865 15.71864,20.6722 C15.71864,21.22536 15.27016,21.67388 14.71696,21.67388 C14.16372,21.67388 13.71524,21.22536 13.71524,20.6722 C13.71524,20.6382078 13.7169326,20.6046112 13.720238,20.5714897 C13.7169062,20.6047407 13.7152,20.638471 13.7152,20.6726 C13.68944,20.46644 13.4288,20.26344 13.461,20.0896 C13.30648,19.61308 13.5254,19.16876 14.15644,19.07876 C14.112495,18.9761686 14.1810918,18.8714538 14.2294198,18.7623098 C14.0961859,18.6769489 14.1366237,18.5420314 14.24648,18.5054 C14.0724024,18.5488518 13.988355,18.376291 14.1277257,18.2947549 C14.1271029,18.293752 14.1264789,18.2927484 14.1258536,18.2917439 C13.8860104,18.3570752 13.8199621,18.0678603 13.937697,18.0164045 C13.9357795,18.0138097 13.9338554,18.0112111 13.9319247,18.0086086 C13.5941386,18.0127246 13.7180616,18.4918161 13.48668,18.46672 C13.56392,18.29284 13.37076,18.16084 13.39652,18.01604 C13.26132,18.19304 12.8846,18.29936 12.7526,18.13836 C13.07456,18.11252 13.02304,17.739 13.1776,17.73268 C13.51236,17.71868 13.31284,17.46868 13.15824,17.45584 C13.00376,17.44284 12.95864,17.42352 13.08744,17.34636 C13.1916183,17.2837689 13.4307016,17.3013824 13.5795889,17.3615106 C13.6482287,17.1833627 13.6658282,16.9873406 13.6517595,16.8019097 C13.519693,16.8700628 13.3381247,16.8430486 13.2801067,16.7835371 C13.2110879,16.819471 13.1145196,16.8295474 12.9951603,16.7958849 C12.6059343,17.1093516 12.0512579,17.2485153 11.87688,17.65544 C11.68744,18.09744 11.28448,18.00312 10.79508,18.65996 C10.47296,19.09248 10.04816,18.80164 9.50728,19.23948 C9.61198165,18.7653196 10.0111156,19.021423 10.4400344,18.4138876 C10.3693947,18.4354415 10.2985285,18.4493515 10.22856,18.45392 C9.63616,18.4926 9.42364,19.20724 8.91496,19.0076 C9.39144,18.9176 9.39144,18.3766 9.76492,18.20928 C9.49444,18.1126 9.3528,18.72444 9.00512,18.72444 C8.6574,18.72444 8.49,19.27812 8.065,19.23944 C7.64,19.20092 7.59528,19.9136 6.745,19.92212 C6.0946,19.92844 5.28976,20.68828 5,20.35996 C5.63104,20.2698 5.88568,19.92012 6.26208,19.53564 C6.86736,18.91764 7.54992,19.19444 7.78168,18.64712 C7.5048,18.8338 7.18288,18.92392 6.86736,18.91764 C6.47128,18.90944 6.03672,19.54864 5.5924,19.26528 C5.84996,19.23312 6.0174,19.12364 6.28784,18.84028 C6.56476,18.55012 6.97116,18.73764 7.29236,18.44112 C7.7946,17.97744 8.22604,18.3638 8.70896,17.78428 C8.57372,17.71996 8.28396,17.76496 8.01352,17.9066 C7.74304,18.04828 7.39536,17.80996 7.08628,17.97744 C7.12488,17.5976 7.84608,17.81496 8.29684,17.55244 C8.80556,17.25628 9.22732,17.34312 9.62976,17.3786 C9.06956,17.37544 8.85064,16.84408 8.07796,16.9986 C7.74096,17.06612 7.47268,16.53508 7.13784,16.80544 C7.14744,16.60596 7.49844,16.44492 7.85904,16.63812 C8.2196,16.83128 8.36496,16.46908 9.08248,16.92144 C9.37868,17.10812 9.88736,16.80544 10.20928,17.00512 C10.16744,16.8828 9.98392,16.80544 9.76824,16.8216 C9.87722108,16.598479 10.4652786,16.5781591 10.8882223,16.7237475 C10.8108333,16.6112398 10.7824,16.481538 10.7824,16.38032 C10.9851263,16.4575905 11.2566097,16.3285671 11.4991927,16.3513274 C11.3738651,16.2668762 11.3127444,16.1411044 11.30408,16.0328 C11.5206233,16.1049645 11.632269,15.9149473 11.7929979,15.8157377 C11.5716605,15.7757502 11.3628881,15.6833564 11.31052,15.5562 C11.6083454,15.6505309 11.726326,15.2970683 12.0656876,15.2482118 C12.0368764,15.0884007 12.1984251,14.8077435 12.4079759,14.7053737 C12.344175,14.6407616 12.3074923,14.5293439 12.32772,14.3844 C12.3624901,14.1352255 12.410867,13.9934356 12.5226268,13.9169294 C12.4994175,13.9145921 12.4772755,13.9115467 12.45652,13.90784 C12.24388,13.86988 11.67416,14.24268 11.43916,13.8692 C11.9788921,14.0226391 12.3185763,13.3412309 12.7905691,13.2328011 C12.7316966,13.1064038 12.7107147,12.9323666 12.73972,12.78736 C12.7818757,12.5766106 12.9875137,12.4135558 13.1634255,12.4344451 C13.0443736,12.2898902 13.0842139,12.0661283 13.17124,12.02748 C13.1574312,11.9216129 13.1929656,11.8494722 13.258152,11.8037043 C13.1751117,11.7560315 13.1127484,11.7133535 13.04244,11.73768 C12.87504,11.79564 12.69476,11.60568 12.48868,11.76348 C12.49832,11.493 12.82996,11.64756 13.17124,11.37708 C13.329046,11.2520648 13.5929644,11.2278827 13.8511369,11.4400037 C13.8203163,11.3367349 13.8427508,11.2099587 13.93096,11.11332 C14.0553574,10.9770717 14.3378966,10.9334734 14.4875652,11.0928854 C14.491121,11.090827 14.4946801,11.088779 14.4982427,11.0867414 C14.4227037,10.8877768 14.5452807,10.6437756 14.71664,10.5788 C14.8499528,10.5282222 15.0620534,10.5301697 15.1912311,10.6385363 C15.168936,10.5065831 15.2077306,10.3702018 15.10308,10.30176 C14.93564,10.19228 14.79076,10.06996 14.84548,9.87676 C14.9324,10.09892 15.19924,10.0978 15.425,10.14076 C15.6063169,10.1752966 15.7731281,10.3458311 15.8265552,10.5262777 C15.8775134,10.4533787 15.9624073,10.4035283 16.07504,10.41128 C16.2124594,10.4207343 16.3147529,10.4838509 16.3538137,10.5775835 C16.4129304,10.4946729 16.5140194,10.4415873 16.64056,10.46848 C16.7650594,10.4949295 16.8534122,10.5625726 16.8862588,10.6502584 C16.9500793,10.5773485 17.049663,10.5354699 17.16864,10.56704 C17.2541506,10.5897259 17.3212274,10.6314157 17.3637253,10.6846882 C17.3814636,10.5605834 17.3988729,10.4408452 17.34396,10.392 C17.22796,10.28896 17.17648,10.14084 17.26016,9.97988 C17.26664,10.09576 17.42764,10.21168 17.59496,10.27608 C17.76244,10.34048 17.66576,10.67528 17.92976,10.80408 C18.0252512,10.8506418 18.0843253,10.9668719 18.0677865,11.0757895 C18.1399677,11.003297 18.2678487,10.9571012 18.41912,11.02304 C18.6474313,11.1225874 18.6948102,11.3074215 18.6238725,11.4030308 L18.6260268,11.4038548 C18.6653393,11.3388709 18.833225,11.2617607 19.08872,11.32556 C19.3767017,11.3975834 19.4621292,11.5753311 19.4632871,11.7247815 C19.4648002,11.7252835 19.4663116,11.7257838 19.4678215,11.7262824 C19.49432,11.6525889 19.6152544,11.6255515 19.70072,11.65404 C19.7803183,11.6805508 19.8947039,11.7507152 19.9039088,11.8321866 C19.9101212,11.8330344 19.9162931,11.8338419 19.9224247,11.8346092 C19.9441359,11.7633871 19.9131864,11.6650966 19.75864,11.61544 C19.4978,11.53176 19.40448,11.36432 19.4688,11.2098 C19.54928,11.403 19.8938,11.45448 20.07412,11.4094 C20.1429984,11.3921842 20.2400129,11.3946922 20.332915,11.4172806 C20.2522066,11.3100883 20.1995637,11.1897369 20.19648,11.11312 C20.1943238,11.0598769 20.2041452,10.9981864 20.2278061,10.9322397 C20.0343451,11.0001207 19.7985794,10.971438 19.64272,10.86872 C19.54352,10.8034 19.33052,10.61116 19.1212,10.70128 C19.27572,10.36648 19.73288,10.6884 19.88104,10.43728 C19.903178,10.3997637 19.9279834,10.3619899 19.9560034,10.3270942 C19.8655272,10.3075938 19.782797,10.2658511 19.73256,10.19884 C19.5971266,10.0182902 19.5756396,9.78710627 19.6680852,9.64281588 C19.5437106,9.6271764 19.4230939,9.56880605 19.3349557,9.47772 C19.197708,9.33602878 19.1706111,9.13342615 19.2697447,8.99137442 C19.1377761,9.08512134 18.9611205,9.10776282 18.83124,9.11704 C18.65104,9.12992 18.42552,9.31664 18.36772,9.65792 C18.09072,9.12344 18.59304,9.00756 18.63804,8.6534 C18.6656481,8.43694149 18.7959118,8.20244407 18.9602672,8.14146648 C18.8669109,8.10220933 18.8096057,7.98192315 18.80552,7.81644 C18.8018597,7.67095625 18.8413747,7.57478639 18.912408,7.53139789 C18.8676043,7.45815397 18.8641728,7.34544761 18.90472,7.21532 C18.9506368,7.06793555 19.0246953,6.98866532 19.1124265,6.97701038 C19.0822166,6.899159 19.1038792,6.7951584 19.1764078,6.68248 C19.1805073,6.67611774 19.1846529,6.66990771 19.1888428,6.66384963 C19.1505476,6.66933008 19.1169816,6.67579535 19.08892,6.68328 C18.7026,6.78632 17.7496,6.36776 17.18292,6.87644 C17.2578507,6.4804444 17.7597463,6.37352184 18.4963288,6.40415049 C18.7655171,6.1130412 19.1699075,5.99959671 19.5718627,5.98536189 C19.4472865,5.90222534 19.3908633,5.76519884 19.46044,5.53956 C19.6160996,6.01046594 20.248519,5.7761642 20.6698519,5.93607428 C20.6964322,5.91099023 20.7221769,5.88729886 20.747086,5.86500017 C19.759717,5.40233479 18.7887978,5.24877389 18.58672,5.49828 C18.36788,5.76876 18.78636,5.9104 18.90872,5.85888 C18.79292,6.16152 18.12304,5.89752 18.3034,5.421 C18.46672,4.98928 19.24356,4.84148 20.3254,5.27936 C20.3088765,5.08794603 20.3354942,4.9392424 20.3910543,4.82761314 C20.1364781,4.77324593 19.9260779,4.7799147 19.80988,4.82856 C19.9328344,4.67161319 20.1822159,4.65704702 20.4695532,4.71235183 C20.5258063,4.65091929 20.5947741,4.60847513 20.6707457,4.58275249 C20.3476996,4.45016637 19.9216679,4.23667783 19.4668,4.4582 C19.5621713,4.1838845 19.9623982,4.14735013 20.3252091,4.24693072 C20.549867,3.92701509 21.243396,4.04340367 21.88332,4.51308 C21.898906,4.3926607 21.9273735,4.29433245 21.9648385,4.21493848 C21.8125545,4.08575875 21.6458674,3.97960696 21.38132,3.96568 C21.5435134,3.87056753 21.7884204,3.92616654 22.056854,4.07333616 C22.078724,4.0488321 22.1018742,4.0277528 22.1259437,4.0098049 C21.8442547,3.81948821 21.5077162,3.67090892 21.04628,3.6952 C21.49064,3.39256 22.56596,3.79824 22.9908,4.23608 C23.2739841,4.52787599 23.9041856,4.36268795 24.2240123,4.99852922 C25.300041,5.17705201 25.8380554,5.43627696 25.8380554,5.77620406 C25.8380554,6.07045183 26.221032,6.08250631 26.9869852,5.8123675 L27.20136,5.62748 C27.2141097,5.65382346 27.2223261,5.68588633 27.2258553,5.72379196 C27.3092418,5.69149601 27.396386,5.65643121 27.487288,5.61859756 L27.487288,5.61859756 Z M23.5060613,4.93207845 C23.3144382,4.83210562 23.1370625,4.70544672 22.96512,4.62244 C22.7481227,4.51768154 22.5494334,4.33151347 22.3214042,4.1531348 C22.2998895,4.1676606 22.2807328,4.18380572 22.2637659,4.20139769 C22.5261312,4.38132284 22.7962195,4.63022788 23.0234877,4.89760891 L23.5060613,4.93207845 L23.5060613,4.93207845 Z M22.6609352,4.88132062 C22.5927607,4.78834033 22.5426872,4.65848518 22.373,4.55164 C22.2964049,4.50343335 22.2291837,4.4492936 22.1656974,4.39389614 C22.1348187,4.53646354 22.1600314,4.70997502 22.2090431,4.88132062 L22.6609352,4.88132062 L22.6609352,4.88132062 Z M21.6920857,5.15545558 C21.5638037,5.00151543 21.364267,4.79002835 21.0653687,4.69791743 C20.953884,4.72919716 20.8744796,4.76564328 20.8212629,4.80576526 C21.1363058,4.90862004 21.4547063,5.05599121 21.6775212,5.16678637 C21.6822732,5.16314651 21.687128,5.15936959 21.6920857,5.15545558 L21.6920857,5.15545558 Z M21.4422503,5.34429793 C21.2091909,5.15435955 20.9645491,5.02004374 20.7350058,4.93118535 C20.7024102,5.11654085 21.00479,5.33842118 21.25256,5.49828 L21.25252,5.49828 C21.2729207,5.51022245 21.2925476,5.5219438 21.3114209,5.53344703 C21.362565,5.48100714 21.4046332,5.4056244 21.4422503,5.34429793 L21.4422503,5.34429793 Z M25.6634556,6.7389682 C25.6866595,6.73702946 25.7102028,6.73612373 25.7340077,6.73617683 C25.7092613,6.73526382 25.685744,6.73619428 25.6634556,6.7389682 L25.6634556,6.7389682 Z M27.2068176,8.15255895 C27.1098835,7.94344177 27.1257623,7.62584546 27.1958,7.42996 C27.1506,7.58448 27.0348,7.7648 26.9446,7.88068 C26.9072171,7.92874258 26.8880396,7.99268376 26.8779372,8.06664642 C26.986498,8.10602028 27.0980471,8.13551096 27.2068176,8.15255895 L27.2068176,8.15255895 Z M25.3727736,15.793425 C25.2887439,15.7898967 25.2094602,15.7658744 25.15456,15.71096 C25.1331911,15.796362 25.0926013,15.8765244 25.0382579,15.9437156 C25.1392211,15.8761338 25.2519722,15.8247914 25.3727736,15.793425 L25.3727736,15.793425 Z M24.8664067,16.085778 C24.8044526,16.1177402 24.7362884,16.13596 24.66508,16.13596 C24.72956,16.31624 24.54924,16.6254 24.40756,16.77988 C24.4978392,16.8276332 24.5399447,16.8994833 24.5546433,16.978273 C24.5505165,16.9395075 24.5484,16.9001411 24.5484,16.86028 C24.5484,16.5583784 24.669785,16.2848332 24.8664067,16.085778 L24.8664067,16.085778 Z M27.5865743,10.2997486 C27.5213158,10.2920889 27.4582123,10.2773907 27.3980429,10.2564337 C27.4477385,10.2957364 27.4879564,10.3378034 27.51144,10.37936 C27.5324567,10.3488021 27.5580046,10.3222086 27.5865743,10.2997486 L27.5865743,10.2997486 Z M27.1310007,10.1077894 C27.0479129,10.0406137 26.9771278,9.95882898 26.922549,9.86634256 C26.9425879,9.91997345 26.95128,10.0150198 26.95128,10.06384 C27.0040164,10.0676069 27.066661,10.0834921 27.1310007,10.1077894 L27.1310007,10.1077894 Z M28.5426918,9.68284813 C28.488026,9.85570732 28.3821626,10.0058092 28.2428983,10.1153457 C28.2732244,10.1740252 28.291499,10.2639331 28.24876,10.3794 C28.30028,10.12824 28.51596,10.0574 28.68344,10.0574 C28.5533191,9.96841356 28.5560476,9.82488193 28.5426918,9.68284813 L28.5426918,9.68284813 Z M21.6623485,4.81219635 C21.1531285,4.29955711 20.7175591,4.11866337 20.3997877,4.26949554 C20.4826451,4.29693833 20.5621943,4.33137373 20.63412,4.37152 C20.9722843,4.56021365 21.2621529,4.5031154 21.6623485,4.81219635 L21.6623485,4.81219635 Z" id="Shape" fill="#FFFFFF" fill-rule="nonzero"></path>
        <path d="M4,1 C2.34314575,1 1,2.34314575 1,4 L1,20 C1,21.6568542 2.34314575,23 4,23 L32,23 C33.6568542,23 35,21.6568542 35,20 L35,4 C35,2.34314575 33.6568542,1 32,1 L4,1 Z M4,0 L32,0 C34.209139,0 36,1.790861 36,4 L36,20 C36,22.209139 34.209139,24 32,24 L4,24 C1.790861,24 0,22.209139 0,20 L0,4 C0,1.790861 1.790861,0 4,0 Z" id="Mask" fill="#031619" fill-rule="nonzero" opacity="0.2"></path>
    </g>
</svg>