<?xml version="1.0" encoding="UTF-8"?>
<svg width="36px" height="24px" viewBox="0 0 36 24" version="1.1" xmlns="http://www.w3.org/2000/svg" xmlns:xlink="http://www.w3.org/1999/xlink">
    <!-- Generator: Sketch 55.2 (78181) - https://sketchapp.com -->
    <title>Flag / JO</title>
    <desc>Created with Sketch.</desc>
    <g id="Flag-/-JO" stroke="none" stroke-width="1" fill="none" fill-rule="evenodd">
        <path d="M4,0 L32,0 C34.209139,0 36,1.790861 36,4 L36,20 C36,22.209139 34.209139,24 32,24 L4,24 C1.790861,24 0,22.209139 0,20 L0,4 C0,1.790861 1.790861,0 4,0 Z" id="Mask" fill="#000000"></path>
        <path d="M0,12 L36,12 L36,20 C36,22.209139 34.209139,24 32,24 L4,24 C1.790861,24 0,22.209139 0,20 L0,12 Z" id="Rectangle" fill="#007D35"></path>
        <rect id="Rectangle" fill="#FFFFFF" x="0" y="8" width="36" height="8"></rect>
        <path d="M6.96909012e-07,20.0023869 L6.96909012e-07,3.99761309 C0.000690031536,2.81716923 0.512713906,1.7563281 1.32657265,1.02458939 L17.0000007,12 L1.32657265,22.9754106 C0.512713906,22.2436719 0.000690031536,21.1828308 6.96909012e-07,20.0023869 Z" id="Path" fill="#E00017"></path>
        <polygon id="Star" fill="#FFFFFF" points="7 13 6.13223252 13.8019377 6.21816852 12.6234898 5.05014418 12.4450419 6.02507209 11.7774791 5.43633704 10.7530204 6.56611626 11.0990311 7 10 7.43388374 11.0990311 8.56366296 10.7530204 7.97492791 11.7774791 8.94985582 12.4450419 7.78183148 12.6234898 7.86776748 13.8019377"></polygon>
        <path d="M4,1 C2.34314575,1 1,2.34314575 1,4 L1,20 C1,21.6568542 2.34314575,23 4,23 L32,23 C33.6568542,23 35,21.6568542 35,20 L35,4 C35,2.34314575 33.6568542,1 32,1 L4,1 Z M4,0 L32,0 C34.209139,0 36,1.790861 36,4 L36,20 C36,22.209139 34.209139,24 32,24 L4,24 C1.790861,24 0,22.209139 0,20 L0,4 C0,1.790861 1.790861,0 4,0 Z" id="Mask" fill="#031619" fill-rule="nonzero" opacity="0.2"></path>
    </g>
</svg>