<?xml version="1.0" encoding="UTF-8"?>
<svg width="36px" height="24px" viewBox="0 0 36 24" version="1.1" xmlns="http://www.w3.org/2000/svg" xmlns:xlink="http://www.w3.org/1999/xlink">
    <!-- Generator: Sketch 55.2 (78181) - https://sketchapp.com -->
    <title>Flag / TG</title>
    <desc>Created with Sketch.</desc>
    <g id="Flag-/-TG" stroke="none" stroke-width="1" fill="none" fill-rule="evenodd">
        <path d="M4,0 L32,0 C34.209139,0 36,1.790861 36,4 L36,20 C36,22.209139 34.209139,24 32,24 L4,24 C1.790861,24 0,22.209139 0,20 L0,4 C0,1.790861 1.790861,0 4,0 Z" id="Mask" fill="#006C4C"></path>
        <rect id="Rectangle" fill="#FFCD00" x="0" y="4" width="36" height="5"></rect>
        <rect id="Rectangle-Copy" fill="#FFCD00" x="0" y="15" width="36" height="5"></rect>
        <path d="M15,0 L15,15 L0,15 L0,4 C0,1.790861 1.790861,0 4,0 L15,0 Z" id="Path" fill="#E5002C"></path>
        <polygon id="Star" fill="#FFFFFF" points="7.73158001 9.90898175 4.80730274 12 5.8923279 8.57268688 3 6.4376941 6.59485969 6.41051635 7.73158001 3 8.86830032 6.41051635 12.46316 6.4376941 9.57083212 8.57268688 10.6558573 12"></polygon>
        <path d="M4,1 C2.34314575,1 1,2.34314575 1,4 L1,20 C1,21.6568542 2.34314575,23 4,23 L32,23 C33.6568542,23 35,21.6568542 35,20 L35,4 C35,2.34314575 33.6568542,1 32,1 L4,1 Z M4,0 L32,0 C34.209139,0 36,1.790861 36,4 L36,20 C36,22.209139 34.209139,24 32,24 L4,24 C1.790861,24 0,22.209139 0,20 L0,4 C0,1.790861 1.790861,0 4,0 Z" id="Mask" fill="#031619" fill-rule="nonzero" opacity="0.2"></path>
    </g>
</svg>