<?xml version="1.0" encoding="UTF-8"?>
<svg width="36px" height="24px" viewBox="0 0 36 24" version="1.1" xmlns="http://www.w3.org/2000/svg" xmlns:xlink="http://www.w3.org/1999/xlink">
    <!-- Generator: Sketch 55.2 (78181) - https://sketchapp.com -->
    <title>Flag / NO</title>
    <desc>Created with Sketch.</desc>
    <g id="Flag-/-NO" stroke="none" stroke-width="1" fill="none" fill-rule="evenodd">
        <path d="M4,0 L32,0 C34.209139,0 36,1.790861 36,4 L36,20 C36,22.209139 34.209139,24 32,24 L4,24 C1.790861,24 0,22.209139 0,20 L0,4 C0,1.790861 1.790861,0 4,0 Z" id="Mask" fill="#EF2B2D"></path>
        <polygon id="Path" fill="#FFFFFF" fill-rule="nonzero" points="16 9 36 9 36 15 16 15 16 24 10 24 10 15 0 15 0 9 10 9 10 0 16 0"></polygon>
        <polygon id="Path" fill="#002868" fill-rule="nonzero" points="14.5 10.5 36 10.5 36 13.5 14.5 13.5 14.5 24 11.5 24 11.5 13.5 0 13.5 0 10.5 11.5 10.5 11.5 0 14.5 0"></polygon>
        <path d="M4,1 C2.34314575,1 1,2.34314575 1,4 L1,20 C1,21.6568542 2.34314575,23 4,23 L32,23 C33.6568542,23 35,21.6568542 35,20 L35,4 C35,2.34314575 33.6568542,1 32,1 L4,1 Z M4,0 L32,0 C34.209139,0 36,1.790861 36,4 L36,20 C36,22.209139 34.209139,24 32,24 L4,24 C1.790861,24 0,22.209139 0,20 L0,4 C0,1.790861 1.790861,0 4,0 Z" id="Mask" fill="#031619" fill-rule="nonzero" opacity="0.2"></path>
    </g>
</svg>