<?xml version="1.0" encoding="UTF-8"?>
<svg width="36px" height="24px" viewBox="0 0 36 24" version="1.1" xmlns="http://www.w3.org/2000/svg" xmlns:xlink="http://www.w3.org/1999/xlink">
    <!-- Generator: Sketch 55.2 (78181) - https://sketchapp.com -->
    <title>Flag / TM</title>
    <desc>Created with Sketch.</desc>
    <g id="Flag-/-TM" stroke="none" stroke-width="1" fill="none" fill-rule="evenodd">
        <path d="M4,0 L32,0 C34.209139,0 36,1.790861 36,4 L36,20 C36,22.209139 34.209139,24 32,24 L4,24 C1.790861,24 0,22.209139 0,20 L0,4 C0,1.790861 1.790861,0 4,0 Z" id="Mask" fill="#008733"></path>
        <path d="M4,1 C2.34314575,1 1,2.34314575 1,4 L1,20 C1,21.6568542 2.34314575,23 4,23 L32,23 C33.6568542,23 35,21.6568542 35,20 L35,4 C35,2.34314575 33.6568542,1 32,1 L4,1 Z M4,0 L32,0 C34.209139,0 36,1.790861 36,4 L36,20 C36,22.209139 34.209139,24 32,24 L4,24 C1.790861,24 0,22.209139 0,20 L0,4 C0,1.790861 1.790861,0 4,0 Z" id="Mask" fill="#031619" fill-rule="nonzero" opacity="0.2"></path>
        <rect id="Rectangle" fill="#E40025" x="5" y="0" width="6" height="24"></rect>
        <path d="M21.2,4.07001268 C19.6024318,4.39430191 18.4,5.80672946 18.4,7.5 C18.4,9.19327054 19.6024318,10.6056981 21.2,10.9299873 C20.973823,10.9758988 20.7397261,11 20.5,11 C18.5670034,11 17,9.43299662 17,7.5 C17,5.56700338 18.5670034,4 20.5,4 C20.7397261,4 20.973823,4.02410118 21.2,4.07001268 Z" id="Path" fill="#FFFFFF" transform="translate(19.100000, 7.500000) scale(-1, 1) rotate(-39.000000) translate(-19.100000, -7.500000) "></path>
        <circle id="Oval" fill="#FFFFFF" cx="17.5" cy="4.5" r="1"></circle>
        <circle id="Oval-Copy" fill="#FFFFFF" cx="15.5" cy="6.5" r="1"></circle>
        <circle id="Oval-Copy-2" fill="#FFFFFF" cx="15.5" cy="4.5" r="1"></circle>
        <circle id="Oval-Copy-3" fill="#FFFFFF" cx="15.5" cy="2.5" r="1"></circle>
        <circle id="Oval-Copy-4" fill="#FFFFFF" cx="13.5" cy="4.5" r="1"></circle>
    </g>
</svg>