<?xml version="1.0" encoding="UTF-8"?>
<svg width="36px" height="24px" viewBox="0 0 36 24" version="1.1" xmlns="http://www.w3.org/2000/svg" xmlns:xlink="http://www.w3.org/1999/xlink">
    <!-- Generator: Sketch 55.2 (78181) - https://sketchapp.com -->
    <title>Flag / SB</title>
    <desc>Created with Sketch.</desc>
    <g id="Flag-/-SB" stroke="none" stroke-width="1" fill="none" fill-rule="evenodd">
        <path d="M4,0 L32,0 C34.209139,0 36,1.790861 36,4 L36,20 C36,22.209139 34.209139,24 32,24 L4,24 C1.790861,24 0,22.209139 0,20 L0,4 C0,1.790861 1.790861,0 4,0 Z" id="Mask" fill="#0050C1"></path>
        <path d="M34.5823215,0.94511903 C35.449455,1.67885504 36,2.77513418 36,4 L36,20 C36,22.209139 34.209139,24 32,24 L4,24 C3.01572682,24 2.11448654,23.6444939 1.41767854,23.054881 L34.5823215,0.94511903 L34.5823215,0.94511903 Z" id="Path" fill="#005D2E"></path>
        <path d="M33.5310106,0.30346374 C34.437404,0.679289348 35.1756734,1.37877531 35.601652,2.25775458 L2.46898942,23.6965363 C1.56259604,23.3207107 0.824326556,22.6212247 0.398347991,21.7422454 L33.5310106,0.30346374 L33.5310106,0.30346374 Z" id="Path" fill="#FFD000"></path>
        <polygon id="star" fill="#FFFFFF" fill-rule="nonzero" points="6.22310136 5.98302281 4.99198554 5.03860162 3.7611805 5.983471 4.2350314 4.46058013 3 3.52182528 4.52397253 3.52505201 4.99148747 2 5.45950349 3.52488264 6.98347485 3.52110831 5.74875139 4.46031118"></polygon>
        <polygon id="star-copy-2" fill="#FFFFFF" fill-rule="nonzero" points="13.2231014 5.98302281 11.9919855 5.03860162 10.7611805 5.983471 11.2350314 4.46058013 10 3.52182528 11.5239725 3.52505201 11.9914875 2 12.4595035 3.52488264 13.9834748 3.52110831 12.7487514 4.46031118"></polygon>
        <polygon id="star-copy-4" fill="#FFFFFF" fill-rule="nonzero" points="9.72310136 8.98302281 8.49198554 8.03860162 7.2611805 8.983471 7.7350314 7.46058013 6.5 6.52182528 8.02397253 6.52505201 8.49148747 5 8.95950349 6.52488264 10.4834748 6.52110831 9.24875139 7.46031118"></polygon>
        <polygon id="star-copy" fill="#FFFFFF" fill-rule="nonzero" points="6.22310136 11.9830228 4.99198554 11.0386016 3.7611805 11.983471 4.2350314 10.4605801 3 9.52182528 4.52397253 9.52505201 4.99148747 8 5.45950349 9.52488264 6.98347485 9.52110831 5.74875139 10.4603112"></polygon>
        <polygon id="star-copy-3" fill="#FFFFFF" fill-rule="nonzero" points="13.2231014 11.9830228 11.9919855 11.0386016 10.7611805 11.983471 11.2350314 10.4605801 10 9.52182528 11.5239725 9.52505201 11.9914875 8 12.4595035 9.52488264 13.9834748 9.52110831 12.7487514 10.4603112"></polygon>
        <path d="M4,1 C2.34314575,1 1,2.34314575 1,4 L1,20 C1,21.6568542 2.34314575,23 4,23 L32,23 C33.6568542,23 35,21.6568542 35,20 L35,4 C35,2.34314575 33.6568542,1 32,1 L4,1 Z M4,0 L32,0 C34.209139,0 36,1.790861 36,4 L36,20 C36,22.209139 34.209139,24 32,24 L4,24 C1.790861,24 0,22.209139 0,20 L0,4 C0,1.790861 1.790861,0 4,0 Z" id="Mask" fill="#031619" fill-rule="nonzero" opacity="0.2"></path>
    </g>
</svg>