<?xml version="1.0" encoding="UTF-8"?>
<svg width="36px" height="24px" viewBox="0 0 36 24" version="1.1" xmlns="http://www.w3.org/2000/svg" xmlns:xlink="http://www.w3.org/1999/xlink">
    <!-- Generator: Sketch 55.2 (78181) - https://sketchapp.com -->
    <title>Flag / PG</title>
    <desc>Created with Sketch.</desc>
    <g id="Flag-/-PG" stroke="none" stroke-width="1" fill="none" fill-rule="evenodd">
        <path d="M4,0 L32,0 C34.209139,0 36,1.790861 36,4 L36,20 C36,22.209139 34.209139,24 32,24 L4,24 C1.790861,24 0,22.209139 0,20 L0,4 C0,1.790861 1.790861,0 4,0 Z" id="Mask" fill="#CE1126"></path>
        <path d="M29.0612193,11.2995656 C29.4445277,11.8420198 29.7202285,12.4424372 29.7202285,13.0428546 C29.7202285,15.1366046 27.7102285,15.2203546 27.1797981,14.7737158 C27.6543673,14.8295771 29.3014785,14.8853546 29.3014785,13.0428546 C29.3014785,12.657542 29.2025868,12.2868801 29.043101,11.9385283 C28.8933185,12.9025107 28.18446,13.324857 27.5846035,13.4895354 C26.8727285,13.6849658 26.2166731,13.1405908 26.1469094,13.0289104 C27.3752706,13.4755908 28.2127285,12.9312158 28.6314785,11.9122296 C28.686321,11.725765 28.7131515,11.5428918 28.7182726,11.3658047 C28.160955,10.5395934 27.3459522,9.8907588 26.9298535,9.55061884 C26.9240553,9.65266077 26.9044199,9.73472958 26.8447981,9.73472958 C26.6912423,9.73472958 26.0771035,9.28809083 26.0212844,9.35785458 C25.9654648,9.42761833 26.2446035,10.0138683 26.1887844,10.0417992 C26.1329648,10.0697296 25.9514785,9.88824333 25.9514785,10.0417992 C25.9514785,10.1953546 26.5377285,10.8514104 26.6075344,10.9630492 C26.5517148,11.0328546 26.4819094,10.9351604 26.3283535,10.9491046 C26.2864785,11.0607854 26.9564785,11.8842992 26.9006594,11.8982854 C26.8448398,11.9122717 26.5516731,11.7726604 26.4679231,11.7587158 C26.4818673,11.8703546 26.6633535,12.0797296 26.7471035,12.3170354 C25.4908535,11.9401604 24.8487844,11.1166046 24.6254231,10.9072296 C24.5137423,10.9072296 24.6533535,11.2422296 24.5696035,11.2422296 C24.4858535,11.2422296 24.1229231,10.9351604 23.9275344,10.7257854 C23.8577706,10.7118408 23.9694094,11.0328546 23.8856594,11.1864104 C23.8158956,11.1864104 23.1597981,10.6420771 22.7271035,10.1674658 C22.2944094,9.69285458 22.3781594,8.79953541 22.3362844,8.88328541 C22.2944094,8.96703541 21.9035481,9.49742416 21.7500344,9.60910458 C21.6942148,9.60910458 21.8337844,8.98097958 21.7081594,9.03679916 C21.5825344,9.09261833 21.1916731,9.53929916 21.0660481,9.62304916 C20.9962423,9.58117416 21.2056594,9.06468791 21.0660481,9.12054916 C20.9264369,9.17641041 20.5077285,9.66492416 20.4379231,9.65097958 C20.3402285,9.49746583 20.5216731,9.26016041 20.4937844,9.13453541 C20.3262844,9.20429916 20.0750344,9.53929916 20.0191731,9.48347958 C19.9772981,9.31597958 20.1029231,9.20434083 20.0610481,9.09266041 C19.9074923,9.10660458 19.4608535,9.49742416 19.4189785,9.44160458 C19.3771035,9.38578541 19.5446035,9.19035458 19.5306594,9.02285458 C19.3910898,9.10660458 19.0141731,9.58117416 19.0002285,9.45554916 C18.9862844,9.32992416 19.6144094,8.15746583 19.8097981,7.93410458 C20.0051869,7.71074333 20.4797981,7.05468791 21.1497981,7.06867416 C21.8197981,7.08266041 22.3790806,7.69499833 22.6154231,7.38972958 C22.9504231,6.95703541 21.9035481,6.64992416 21.7919094,6.58016041 C21.6802706,6.51039666 21.6662844,6.39871583 21.5127285,6.31496583 C21.3591731,6.23121583 20.6752285,5.97996583 20.7171035,5.93809083 C20.7589785,5.89621583 21.4150344,6.03578541 21.5825344,6.02184083 C21.7500344,6.00789666 22.1966731,5.84039666 22.3921035,5.89621583 C22.5875344,5.95203541 22.6154231,6.04977166 22.7550344,6.18934083 C22.8946456,6.32891041 23.3133535,6.60809083 23.4947981,6.60809083 C23.6762423,6.60809083 23.7460481,6.34285458 23.8019094,6.07766041 C23.8577706,5.81246583 23.5227285,5.18434083 23.9554231,4.40266087 C24.3881173,3.62098025 25.5606594,2.9230915 25.6444094,3.0068415 C25.7281594,3.0905915 25.2954231,3.69082775 25.3652285,3.70477212 C25.4769094,3.67688337 25.5885898,3.64895275 25.6164785,3.69082775 C25.6514023,3.78852212 25.4489785,4.12352212 25.5047981,4.08164712 C25.5606173,4.03977212 25.7909719,4.06070962 25.8119094,4.12352212 C25.8398398,4.23516087 25.5257773,4.493404 25.5466731,4.59809166 C25.6304231,4.62598 25.7839785,4.58410541 25.8677285,4.69578583 C25.8537844,4.82141083 25.5047981,4.98891041 25.5187844,5.04472958 C25.5327706,5.10054916 25.7490969,5.20523666 25.7421035,5.25410458 C25.7212081,5.44254208 25.0860481,5.88222958 25.1558535,5.93800708 C26.3562844,5.21218791 27.6962844,5.93800708 27.5985481,5.92406291 C27.5426869,5.93800708 26.9704231,6.16136833 27.1519094,6.16136833 C27.3333956,6.16136833 28.4081594,7.02679916 28.3104231,7.02679916 C28.2126869,7.02679916 27.8777285,7.09660458 28.0591731,7.09660458 C28.2406173,7.09660458 29.0921035,8.42266041 29.0083535,8.39472958 C28.9246035,8.36679916 28.6733535,8.25516041 28.7989785,8.33891041 C28.9246035,8.42266041 29.3433535,9.60910458 29.2177285,9.56722958 C29.0921035,9.52535458 28.5896035,9.05074333 28.6314785,9.20429916 C28.6733535,9.35785458 28.8547981,9.70688291 28.7012844,9.65102166 C28.5477706,9.59516041 28.3662844,9.32996583 28.4360481,9.53934083 C28.5051331,9.74667878 28.9575517,9.94034258 29.0612193,11.2995651 L29.0612193,11.2995656 Z M28.6624466,10.7947889 C28.4658585,9.90518635 27.8242171,9.26634318 27.7939785,9.24617416 C27.7521035,9.21824333 27.7660481,9.45554916 27.6544094,9.45554916 C27.5427706,9.45554916 27.0262844,9.13449333 26.9564785,9.16242416 C26.9378373,9.16988285 26.9321384,9.2141709 26.9308746,9.27508616 C27.2675049,9.4932748 28.0226691,10.0612125 28.6624466,10.7947889 L28.6624466,10.7947889 Z" id="Shape" fill="#FCD116" fill-rule="nonzero"></path>
        <path d="M34.5823215,23.054881 C33.8855135,23.6444939 32.9842732,24 32,24 L4,24 C1.790861,24 0,22.209139 0,20 L0,4 C0,2.77513418 0.550545,1.67885504 1.41767854,0.94511903 L34.5823215,23.054881 L34.5823215,23.054881 Z" id="Path" fill="#000000"></path>
        <path d="M10.3855833,18.0042917 L10.862875,16.4688333 L11.3401667,18.021 L10.0833333,17.0696667 L11.6424167,17.0696667 L10.3855833,18.0042917 Z M9.22575,8 L10.1802917,11.1043333 L7.66666667,9.20166667 L10.7848333,9.20166667 L8.27120833,11.0709167 L9.22575,8 Z M5.55908333,12.6876667 L6.513625,15.792 L4,13.8893333 L7.11816667,13.8893333 L4.60454167,15.7585833 L5.55908333,12.6876667 Z M12.875,12.3543333 L13.8295417,15.4586667 L11.3159167,13.556 L14.4340833,13.556 L11.9204583,15.42525 L12.875,12.3543333 Z M9.22575,19.021 L10.1802917,22.1253333 L7.66666667,20.2226667 L10.7848333,20.2226667 L8.27120833,22.0919167 L9.22575,19.021 Z" id="Shape" fill="#FFFFFF" fill-rule="nonzero"></path>
        <path d="M4,1 C2.34314575,1 1,2.34314575 1,4 L1,20 C1,21.6568542 2.34314575,23 4,23 L32,23 C33.6568542,23 35,21.6568542 35,20 L35,4 C35,2.34314575 33.6568542,1 32,1 L4,1 Z M4,0 L32,0 C34.209139,0 36,1.790861 36,4 L36,20 C36,22.209139 34.209139,24 32,24 L4,24 C1.790861,24 0,22.209139 0,20 L0,4 C0,1.790861 1.790861,0 4,0 Z" id="Mask" fill="#031619" fill-rule="nonzero" opacity="0.2"></path>
    </g>
</svg>