<?xml version="1.0" encoding="UTF-8"?>
<svg width="36px" height="24px" viewBox="0 0 36 24" version="1.1" xmlns="http://www.w3.org/2000/svg" xmlns:xlink="http://www.w3.org/1999/xlink">
    <!-- Generator: Sketch 55.2 (78181) - https://sketchapp.com -->
    <title>Flag / MM</title>
    <desc>Created with Sketch.</desc>
    <g id="Flag-/-MM" stroke="none" stroke-width="1" fill="none" fill-rule="evenodd">
        <path d="M0,16 L36,16 L36,20 C36,22.209139 34.209139,24 32,24 L4,24 C1.790861,24 0,22.209139 0,20 L0,16 Z" id="Rectangle-13" fill="#FE002E"></path>
        <polygon id="Rectangle-13-Copy" fill="#00B601" points="0 8 36 8 36 16 0 16"></polygon>
        <path d="M4,0 L32,0 C34.209139,0 36,1.790861 36,4 L36,8 L0,8 L0,4 C0,1.790861 1.790861,0 4,0 Z" id="Rectangle-13-Copy-2" fill="#FFCA00"></path>
        <path d="M4,1 C2.34314575,1 1,2.34314575 1,4 L1,20 C1,21.6568542 2.34314575,23 4,23 L32,23 C33.6568542,23 35,21.6568542 35,20 L35,4 C35,2.34314575 33.6568542,1 32,1 L4,1 Z M4,0 L32,0 C34.209139,0 36,1.790861 36,4 L36,20 C36,22.209139 34.209139,24 32,24 L4,24 C1.790861,24 0,22.209139 0,20 L0,4 C0,1.790861 1.790861,0 4,0 Z" id="Mask" fill="#031619" fill-rule="nonzero" opacity="0.2"></path>
        <polygon id="Star" fill="#FFFFFF" points="18.010075 15.6961906 13.0595764 19.236068 14.8964116 13.4339818 10 9.81966012 16.0857252 9.773651 18.010075 4 19.9344248 9.773651 26.0201499 9.81966012 21.1237383 13.4339818 22.9605736 19.236068"></polygon>
    </g>
</svg>