<?xml version="1.0" encoding="UTF-8"?>
<svg width="36px" height="24px" viewBox="0 0 36 24" version="1.1" xmlns="http://www.w3.org/2000/svg" xmlns:xlink="http://www.w3.org/1999/xlink">
    <!-- Generator: Sketch 55.2 (78181) - https://sketchapp.com -->
    <title>Flag / VN</title>
    <desc>Created with Sketch.</desc>
    <g id="Flag-/-VN" stroke="none" stroke-width="1" fill="none" fill-rule="evenodd">
        <path d="M4,0 L32,0 C34.209139,0 36,1.790861 36,4 L36,20 C36,22.209139 34.209139,24 32,24 L4,24 C1.790861,24 0,22.209139 0,20 L0,4 C0,1.790861 1.790861,0 4,0 Z" id="Mask" fill="#D2143B"></path>
        <polygon id="star-copy-2" fill="#FFF714" fill-rule="nonzero" points="21.7011539 17.9903853 17.9924849 15.1453654 14.284752 17.9917355 15.7122019 13.4041057 11.9917374 10.5761553 16.5826213 10.5858757 17.9909845 5.9917355 19.4008571 10.5853654 23.9917374 10.5739955 20.2722006 13.4032955"></polygon>
        <path d="M4,1 C2.34314575,1 1,2.34314575 1,4 L1,20 C1,21.6568542 2.34314575,23 4,23 L32,23 C33.6568542,23 35,21.6568542 35,20 L35,4 C35,2.34314575 33.6568542,1 32,1 L4,1 Z M4,0 L32,0 C34.209139,0 36,1.790861 36,4 L36,20 C36,22.209139 34.209139,24 32,24 L4,24 C1.790861,24 0,22.209139 0,20 L0,4 C0,1.790861 1.790861,0 4,0 Z" id="Mask" fill="#031619" fill-rule="nonzero" opacity="0.2"></path>
    </g>
</svg>