<?xml version="1.0" encoding="UTF-8"?>
<svg width="36px" height="24px" viewBox="0 0 36 24" version="1.1" xmlns="http://www.w3.org/2000/svg" xmlns:xlink="http://www.w3.org/1999/xlink">
    <!-- Generator: Sketch 55.2 (78181) - https://sketchapp.com -->
    <title>Flag / AU</title>
    <desc>Created with Sketch.</desc>
    <g id="Flag-/-AU" stroke="none" stroke-width="1" fill="none" fill-rule="evenodd">
        <path d="M4,0 L32,0 C34.209139,0 36,1.790861 36,4 L36,20 C36,22.209139 34.209139,24 32,24 L4,24 C1.790861,24 0,22.209139 0,20 L0,4 C0,1.790861 1.790861,0 4,0 Z" id="Mask" fill="#273C83"></path>
        <path d="M15.349,0 L16,0 L16,2.558 L10.545,6.101 L16,9.643 L16,12 L15.04,12 L8.25,7.591 L1.46,12 L0,12 L0,9.968 L5.955,6.101 L0.316281479,2.4384369 C0.654816439,1.64083503 1.24482828,0.975787703 1.98683277,0.542779134 L8.25,4.61 L15.349,0 Z" id="Path" fill="#FFFFFF"></path>
        <path d="M0,11.892 L0,10.7 L7.082,6.1 L0.599718636,1.89228362 C0.777896692,1.60544616 0.991357966,1.3428133 1.23403724,1.11045027 L8,5.504 L16,0.31 L16,1.503 L8.918,6.1 L16,10.7 L16,11.892 L8,6.697 L0,11.892 Z" id="Path" fill="#DC1E35"></path>
        <polygon id="Shape" fill="#F7F7F7" fill-rule="nonzero" points="10 4 16 4 16 8 10 8 10 12 6 12 6 8 0 8 0 4 6 4 6 0 10 0"></polygon>
        <polygon id="Shape" fill="#DC1E35" fill-rule="nonzero" points="9 5 9 0 7 0 7 5 0 5 0 7 7 7 7 12 9 12 9 7 16 7 16 5"></polygon>
        <path d="M23.5,7 C22.9641016,7 22.4689111,6.71410163 22.2009619,6.25000001 C21.9330127,5.78589839 21.9330127,5.21410161 22.2009619,4.74999999 C22.4689111,4.28589837 22.9641016,4 23.5,4 C24.3284271,4 25,4.67157288 25,5.5 C25,6.32842712 24.3284271,7 23.5,7 L23.5,7 Z" id="Path" fill="#F7F7F7" fill-rule="nonzero"></path>
        <path d="M20.5,12 C19.6715729,12 19,11.3284271 19,10.5 C19,9.67157288 19.6715729,9 20.5,9 C21.3284271,9 22,9.67157288 22,10.5 C22,11.3284271 21.3284271,12 20.5,12 Z" id="Path" fill="#F7F7F7" fill-rule="nonzero"></path>
        <path d="M23.5,20 C22.6715729,20 22,19.3284271 22,18.5 C22,17.6715729 22.6715729,17 23.5,17 C24.3284271,17 25,17.6715729 25,18.5 C25,19.3284271 24.3284271,20 23.5,20 Z" id="Path" fill="#F7F7F7" fill-rule="nonzero"></path>
        <path d="M27,11 C26.4477153,11 26,10.5522847 26,10 C26,9.44771525 26.4477153,9 27,9 C27.5522847,9 28,9.44771525 28,10 C28,10.5522847 27.5522847,11 27,11 Z" id="Path" fill="#F7F7F7" fill-rule="nonzero"></path>
        <path d="M8,20 C6.8954305,20 6,19.1045695 6,18 C6,16.8954305 6.8954305,16 8,16 C9.1045695,16 10,16.8954305 10,18 C10,19.1045695 9.1045695,20 8,20 Z" id="Path" fill="#F7F7F7" fill-rule="nonzero"></path>
        <path d="M4,1 C2.34314575,1 1,2.34314575 1,4 L1,20 C1,21.6568542 2.34314575,23 4,23 L32,23 C33.6568542,23 35,21.6568542 35,20 L35,4 C35,2.34314575 33.6568542,1 32,1 L4,1 Z M4,0 L32,0 C34.209139,0 36,1.790861 36,4 L36,20 C36,22.209139 34.209139,24 32,24 L4,24 C1.790861,24 0,22.209139 0,20 L0,4 C0,1.790861 1.790861,0 4,0 Z" id="Mask" fill="#031619" fill-rule="nonzero" opacity="0.2"></path>
    </g>
</svg>