<?xml version="1.0" encoding="UTF-8"?>
<svg width="36px" height="24px" viewBox="0 0 36 24" version="1.1" xmlns="http://www.w3.org/2000/svg" xmlns:xlink="http://www.w3.org/1999/xlink">
    <!-- Generator: Sketch 55.2 (78181) - https://sketchapp.com -->
    <title>Flag / HR</title>
    <desc>Created with Sketch.</desc>
    <g id="Flag-/-HR" stroke="none" stroke-width="1" fill="none" fill-rule="evenodd">
        <path d="M4,0 L32,0 C34.209139,0 36,1.790861 36,4 L36,20 C36,22.209139 34.209139,24 32,24 L4,24 C1.790861,24 0,22.209139 0,20 L0,4 C0,1.790861 1.790861,0 4,0 Z" id="Mask" fill="#F7F7F7"></path>
        <path d="M0,16 L36,16 L36,20 C36,22.209139 34.209139,24 32,24 L4,24 C1.790861,24 0,22.209139 0,20 L0,16 Z" id="Rectangle" fill="#171796"></path>
        <path d="M4,0 L32,0 C34.209139,0 36,1.790861 36,4 L36,8 L0,8 L0,4 C0,1.790861 1.790861,0 4,0 Z" id="Rectangle" fill="#FF0000"></path>
        <polygon id="Shape" fill="#FFFFFF" fill-rule="nonzero" points="12 7 24 7 24 16 18 20 12 16"></polygon>
        <path d="M13,9 L15,9 L15,11 L13,11 L13,9 Z M13,13 L15,13 L15,15 L13,15 L13,13 Z M17,9 L19,9 L19,11 L17,11 L17,9 Z M17,13 L19,13 L19,15 L17,15 L17,13 Z M21,9 L23,9 L23,11 L21,11 L21,9 Z M21,13 L23,13 L23,15 L21,15 L21,13 Z M15,11 L17,11 L17,13 L15,13 L15,11 Z M15,15 L17,15 L17,17 L15,17 L15,15 Z M19,11 L21,11 L21,13 L19,13 L19,11 Z M19,15 L21,15 L21,17 L19,17 L19,15 Z" id="Shape" fill="#EE1C25" fill-rule="nonzero"></path>
        <polygon id="Shape" fill="#121278" fill-rule="nonzero" points="18 3 20 6 16 6"></polygon>
        <path d="M15,3 L17,6 L13,6 L15,3 Z M21,3 L23,6 L19,6 L21,3 Z" id="Shape" fill="#171796" fill-rule="nonzero"></path>
        <path d="M4,1 C2.34314575,1 1,2.34314575 1,4 L1,20 C1,21.6568542 2.34314575,23 4,23 L32,23 C33.6568542,23 35,21.6568542 35,20 L35,4 C35,2.34314575 33.6568542,1 32,1 L4,1 Z M4,0 L32,0 C34.209139,0 36,1.790861 36,4 L36,20 C36,22.209139 34.209139,24 32,24 L4,24 C1.790861,24 0,22.209139 0,20 L0,4 C0,1.790861 1.790861,0 4,0 Z" id="Mask" fill="#031619" fill-rule="nonzero" opacity="0.2"></path>
    </g>
</svg>