<?xml version="1.0" encoding="UTF-8"?>
<svg width="36px" height="24px" viewBox="0 0 36 24" version="1.1" xmlns="http://www.w3.org/2000/svg" xmlns:xlink="http://www.w3.org/1999/xlink">
    <!-- Generator: Sketch 55.2 (78181) - https://sketchapp.com -->
    <title>Flag / CG</title>
    <desc>Created with Sketch.</desc>
    <g id="Flag-/-CG" stroke="none" stroke-width="1" fill="none" fill-rule="evenodd">
        <path d="M4,0 L32,0 C34.209139,0 36,1.790861 36,4 L36,20 C36,22.209139 34.209139,24 32,24 L4,24 C1.790861,24 0,22.209139 0,20 L0,4 C0,1.790861 1.790861,0 4,0 Z" id="Mask" fill="#EF0000"></path>
        <path d="M24,0 L1.17157288,22.8284271 C0.44771525,22.1045695 0,21.1045695 0,20 L0,4 C0,1.790861 1.790861,0 4,0 L24,0 Z" id="Path" fill="#009837"></path>
        <path d="M24,0 L32,0 C33.1045695,0 34.1045695,0.44771525 34.8284271,1.17157288 L12,24 L4,24 C2.8954305,24 1.8954305,23.5522847 1.17157288,22.8284271 L24,0 Z" id="Path" fill="#FFDE00"></path>
        <path d="M4,1 C2.34314575,1 1,2.34314575 1,4 L1,20 C1,21.6568542 2.34314575,23 4,23 L32,23 C33.6568542,23 35,21.6568542 35,20 L35,4 C35,2.34314575 33.6568542,1 32,1 L4,1 Z M4,0 L32,0 C34.209139,0 36,1.790861 36,4 L36,20 C36,22.209139 34.209139,24 32,24 L4,24 C1.790861,24 0,22.209139 0,20 L0,4 C0,1.790861 1.790861,0 4,0 Z" id="Mask" fill="#031619" fill-rule="nonzero" opacity="0.2"></path>
    </g>
</svg>