<?xml version="1.0" encoding="UTF-8"?>
<svg width="36px" height="24px" viewBox="0 0 36 24" version="1.1" xmlns="http://www.w3.org/2000/svg" xmlns:xlink="http://www.w3.org/1999/xlink">
    <!-- Generator: Sketch 55.2 (78181) - https://sketchapp.com -->
    <title>Flag / ZM</title>
    <desc>Created with Sketch.</desc>
    <g id="Flag-/-ZM" stroke="none" stroke-width="1" fill="none" fill-rule="evenodd">
        <path d="M4,0 L32,0 C34.209139,0 36,1.790861 36,4 L36,20 C36,22.209139 34.209139,24 32,24 L4,24 C1.790861,24 0,22.209139 0,20 L0,4 C0,1.790861 1.790861,0 4,0 Z" id="Mask" fill="#008D00"></path>
        <polygon id="Path" fill="#F20000" points="26 24 21 24 21 8 26 8"></polygon>
        <polygon id="Path" fill="#000000" points="31 24 26 24 26 8 31 8"></polygon>
        <path d="M36,8 L36,20 C36,22.209139 34.209139,24 32,24 L31,24 L31,8 L36,8 Z" id="Path" fill="#FF7600"></path>
        <path d="M4,1 C2.34314575,1 1,2.34314575 1,4 L1,20 C1,21.6568542 2.34314575,23 4,23 L32,23 C33.6568542,23 35,21.6568542 35,20 L35,4 C35,2.34314575 33.6568542,1 32,1 L4,1 Z M4,0 L32,0 C34.209139,0 36,1.790861 36,4 L36,20 C36,22.209139 34.209139,24 32,24 L4,24 C1.790861,24 0,22.209139 0,20 L0,4 C0,1.790861 1.790861,0 4,0 Z" id="Mask" fill="#031619" fill-rule="nonzero" opacity="0.2"></path>
        <path d="M28.2196699,6.28033009 C28.5125631,6.5732233 28.9874369,6.5732233 29.2803301,6.28033009 L30.5606602,5 L33.25,5 C33.6642136,5 34,4.66421356 34,4.25 C34,3.83578644 33.6642136,3.5 33.25,3.5 L30.25,3.5 C30.0510876,3.5 29.8603222,3.57901763 29.7196699,3.71966991 L28.75,4.68933983 L27.7803301,3.71966991 C27.6396778,3.57901763 27.4489124,3.5 27.25,3.5 L24.25,3.5 C23.8357864,3.5 23.5,3.83578644 23.5,4.25 C23.5,4.66421356 23.8357864,5 24.25,5 L26.9393398,5 L28.2196699,6.28033009 Z" id="Path-5" fill="#FF7600" fill-rule="nonzero"></path>
    </g>
</svg>