<?xml version="1.0" encoding="UTF-8"?>
<svg width="36px" height="24px" viewBox="0 0 36 24" version="1.1" xmlns="http://www.w3.org/2000/svg" xmlns:xlink="http://www.w3.org/1999/xlink">
    <!-- Generator: Sketch 55.2 (78181) - https://sketchapp.com -->
    <title>Flag / KN</title>
    <desc>Created with Sketch.</desc>
    <g id="Flag-/-KN" stroke="none" stroke-width="1" fill="none" fill-rule="evenodd">
        <path d="M4,0 L32,0 C34.209139,0 36,1.790861 36,4 L36,20 C36,22.209139 34.209139,24 32,24 L4,24 C1.790861,24 0,22.209139 0,20 L0,4 C0,1.790861 1.790861,0 4,0 Z" id="Mask" fill="#00A23D"></path>
        <path d="M34.5823215,0.94511903 C35.449455,1.67885504 36,2.77513418 36,4 L36,20 C36,22.209139 34.209139,24 32,24 L4,24 C3.01572682,24 2.11448654,23.6444939 1.41767854,23.054881 L34.5823215,0.94511903 L34.5823215,0.94511903 Z" id="Path" fill="#E00017"></path>
        <path d="M29.4,0 L32,0 C34.209139,0 36,1.790861 36,4 L36,5.61764706 L6.23809524,24 L4,24 C1.790861,24 0,22.209139 0,20 L0,18.375 L29.4,0 Z" id="Path" fill="#FFD000"></path>
        <path d="M32,0 C34.209139,0 36,1.790861 36,4 L4,24 C1.790861,24 0,22.209139 0,20 L32,0 Z" id="Path" fill="#000000"></path>
        <path d="M12.7576029,16.5272557 L12.1392993,18.1022969 L11.6890195,16.4712536 L10,16.3699265 L11.4120702,15.4376648 L10.9865023,13.8 L12.3094895,14.8548739 L13.7354936,13.9440685 L13.1410745,15.5282781 L14.4479613,16.6030342 L12.7576029,16.5272557 Z M23.7576029,9.52725572 L23.1392993,11.1022969 L22.6890195,9.47125364 L21,9.36992645 L22.4120702,8.4376648 L21.9865023,6.8 L23.3094895,7.85487386 L24.7354936,6.94406853 L24.1410745,8.52827808 L25.4479613,9.60303423 L23.7576029,9.52725572 Z" id="Combined-Shape" fill="#FFFFFF"></path>
        <path d="M4,1 C2.34314575,1 1,2.34314575 1,4 L1,20 C1,21.6568542 2.34314575,23 4,23 L32,23 C33.6568542,23 35,21.6568542 35,20 L35,4 C35,2.34314575 33.6568542,1 32,1 L4,1 Z M4,0 L32,0 C34.209139,0 36,1.790861 36,4 L36,20 C36,22.209139 34.209139,24 32,24 L4,24 C1.790861,24 0,22.209139 0,20 L0,4 C0,1.790861 1.790861,0 4,0 Z" id="Mask" fill="#031619" fill-rule="nonzero" opacity="0.2"></path>
    </g>
</svg>