<?xml version="1.0" encoding="UTF-8"?>
<svg width="36px" height="24px" viewBox="0 0 36 24" version="1.1" xmlns="http://www.w3.org/2000/svg" xmlns:xlink="http://www.w3.org/1999/xlink">
    <!-- Generator: Sketch 55.2 (78181) - https://sketchapp.com -->
    <title>Flag / NP</title>
    <desc>Created with Sketch.</desc>
    <g id="Flag-/-NP" stroke="none" stroke-width="1" fill="none" fill-rule="evenodd">
        <path d="M4,0 L32,0 C34.209139,0 36,1.790861 36,4 L36,20 C36,22.209139 34.209139,24 32,24 L4,24 C1.790861,24 0,22.209139 0,20 L0,4 C0,1.790861 1.790861,0 4,0 Z" id="Mask"></path>
        <path d="M4,24 C1.790861,24 0,22.209139 0,20 L0,4 C0,2.7592583 0.56490907,1.65045819 1.45155518,0.916771693 L19,12 L7,12 L19,24 L4,24 Z" id="Path" fill="#002A84"></path>
        <path d="M1.3541756,23 C1.22888809,22.889419 1.11058104,22.7711119 1,22.6458244 L1,2 L15,11 L4,11 L16,23 L1.3541756,23 Z" id="Path" fill="#F00035"></path>
        <path d="M4.80181864,10.4045455 C6.60181864,10.4045455 8.06090955,8.94545455 8.06090955,7.14545455 C7.77454591,7.87363636 7.25636409,8.47636364 6.59636409,8.86909091 L6.31818227,8.66181818 L6.86363682,8.25272727 L6.20363682,8.08363636 L6.55272773,7.49181818 L5.87090955,7.59 L5.97181864,6.91363636 L5.38000045,7.26818182 L5.21090955,6.6 L4.80181864,7.14545455 L4.39272773,6.6 L4.22090955,7.26545455 L3.63181864,6.91636364 L3.73272773,7.59818182 L3.05090955,7.49727273 L3.405455,8.08909091 L2.74000045,8.25818182 L3.285455,8.66727273 L3.01272773,8.87727273 C2.36636409,8.49545455 1.84000045,7.90636364 1.545455,7.15363636 C1.545455,8.95363636 3.00454591,10.4127273 4.80454591,10.4127273 L4.80181864,10.4045455 Z" id="Path" fill="#FFFFFF" fill-rule="nonzero"></path>
        <polygon id="Path" fill="#FFFFFF" fill-rule="nonzero" points="3.23090909 16.0045451 1.76909091 15.8245451 2.65545455 16.9972724 1.3 17.5754542 2.65545455 18.1481815 1.76909091 19.3209087 3.23090909 19.1409087 3.05090909 20.6054542 4.22363636 19.7190905 4.80181818 21.0772724 5.37454545 19.7190905 6.55272727 20.6081815 6.37272727 19.1463633 7.83454545 19.3290905 6.94818182 18.1563633 8.30363636 17.583636 6.94818182 17.0054542 7.83454545 15.8327269 6.37272727 16.0099996 6.55272727 14.5481815 5.38 15.4345451 4.80181818 14.073636 4.22909091 15.4290905 3.05090909 14.5427269"></polygon>
        <path d="M4,1 C2.34314575,1 1,2.34314575 1,4 L1,20 C1,21.6568542 2.34314575,23 4,23 L32,23 C33.6568542,23 35,21.6568542 35,20 L35,4 C35,2.34314575 33.6568542,1 32,1 L4,1 Z M4,0 L32,0 C34.209139,0 36,1.790861 36,4 L36,20 C36,22.209139 34.209139,24 32,24 L4,24 C1.790861,24 0,22.209139 0,20 L0,4 C0,1.790861 1.790861,0 4,0 Z" id="Mask" fill="#031619" fill-rule="nonzero" opacity="0.2"></path>
    </g>
</svg>