<?xml version="1.0" encoding="UTF-8"?>
<svg width="36px" height="24px" viewBox="0 0 36 24" version="1.1" xmlns="http://www.w3.org/2000/svg" xmlns:xlink="http://www.w3.org/1999/xlink">
    <!-- Generator: Sketch 55.2 (78181) - https://sketchapp.com -->
    <title>Flag / NR</title>
    <desc>Created with Sketch.</desc>
    <g id="Flag-/-NR" stroke="none" stroke-width="1" fill="none" fill-rule="evenodd">
        <path d="M4,0 L32,0 C34.209139,0 36,1.790861 36,4 L36,20 C36,22.209139 34.209139,24 32,24 L4,24 C1.790861,24 0,22.209139 0,20 L0,4 C0,1.790861 1.790861,0 4,0 Z" id="Mask" fill="#002A84"></path>
        <rect id="Rectangle" fill="#FFC400" x="0" y="11" width="36" height="2"></rect>
        <path d="M4,1 C2.34314575,1 1,2.34314575 1,4 L1,20 C1,21.6568542 2.34314575,23 4,23 L32,23 C33.6568542,23 35,21.6568542 35,20 L35,4 C35,2.34314575 33.6568542,1 32,1 L4,1 Z M4,0 L32,0 C34.209139,0 36,1.790861 36,4 L36,20 C36,22.209139 34.209139,24 32,24 L4,24 C1.790861,24 0,22.209139 0,20 L0,4 C0,1.790861 1.790861,0 4,0 Z" id="Mask" fill="#031619" fill-rule="nonzero" opacity="0.2"></path>
        <polygon id="Star" fill="#FFFFFF" points="9 18.6052595 8.22354286 19.8977775 8.19737026 18.3901955 6.87867966 19.1213203 7.6098045 17.8026297 6.10222252 17.7764571 7.39474051 17 6.10222252 16.2235429 7.6098045 16.1973703 6.87867966 14.8786797 8.19737026 15.6098045 8.22354286 14.1022225 9 15.3947405 9.77645714 14.1022225 9.80262974 15.6098045 11.1213203 14.8786797 10.3901955 16.1973703 11.8977775 16.2235429 10.6052595 17 11.8977775 17.7764571 10.3901955 17.8026297 11.1213203 19.1213203 9.80262974 18.3901955 9.77645714 19.8977775"></polygon>
    </g>
</svg>