<?xml version="1.0" encoding="UTF-8"?>
<svg width="36px" height="24px" viewBox="0 0 36 24" version="1.1" xmlns="http://www.w3.org/2000/svg" xmlns:xlink="http://www.w3.org/1999/xlink">
    <!-- Generator: Sketch 55.2 (78181) - https://sketchapp.com -->
    <title>Flag / AR</title>
    <desc>Created with Sketch.</desc>
    <g id="Flag-/-AR" stroke="none" stroke-width="1" fill="none" fill-rule="evenodd">
        <g id="Rectangle-13-+-Rectangle-13-Copy-+-Rectangle-13-Copy-2-Mask">
            <path d="M4,0 L32,0 C34.209139,0 36,1.790861 36,4 L36,20 C36,22.209139 34.209139,24 32,24 L4,24 C1.790861,24 0,22.209139 0,20 L0,4 C0,1.790861 1.790861,0 4,0 Z" id="Mask" fill="#FFFFFF"></path>
            <path d="M36,20 C36,22.209139 34.209139,24 32,24 L4,24 C1.790861,24 0,22.209139 0,20 L0,17 L36,17 L36,20 Z" id="Path" fill="#75ADE0"></path>
            <path d="M4,0 L32,0 C34.209139,0 36,1.790861 36,4 L36,7 L0,7 L0,4 C0,1.790861 1.790861,0 4,0 Z" id="Path" fill="#75ADE0"></path>
            <path d="M18,16 C15.790861,16 14,14.209139 14,12 C14,9.790861 15.790861,8 18,8 C20.209139,8 22,9.790861 22,12 C22,14.209139 20.209139,16 18,16 Z" id="Shape" fill="#A85904" fill-rule="nonzero"></path>
            <path d="M18,14 C19.1045695,14 20,13.1045695 20,12 C20,10.8954305 19.1045695,10 18,10 C16.8954305,10 16,10.8954305 16,12 C16,13.1045695 16.8954305,14 18,14 Z" id="Shape" fill="#F6B506" fill-rule="nonzero"></path>
        </g>
        <path d="M4,1 C2.34314575,1 1,2.34314575 1,4 L1,20 C1,21.6568542 2.34314575,23 4,23 L32,23 C33.6568542,23 35,21.6568542 35,20 L35,4 C35,2.34314575 33.6568542,1 32,1 L4,1 Z M4,0 L32,0 C34.209139,0 36,1.790861 36,4 L36,20 C36,22.209139 34.209139,24 32,24 L4,24 C1.790861,24 0,22.209139 0,20 L0,4 C0,1.790861 1.790861,0 4,0 Z" id="Mask" fill="#031619" fill-rule="nonzero" opacity="0.2"></path>
    </g>
</svg>