<?xml version="1.0" encoding="UTF-8"?>
<svg width="36px" height="24px" viewBox="0 0 36 24" version="1.1" xmlns="http://www.w3.org/2000/svg" xmlns:xlink="http://www.w3.org/1999/xlink">
    <!-- Generator: Sketch 55.2 (78181) - https://sketchapp.com -->
    <title>Flag / ME</title>
    <desc>Created with Sketch.</desc>
    <g id="Flag-/-ME" stroke="none" stroke-width="1" fill="none" fill-rule="evenodd">
        <path d="M4,0 L32,0 C34.209139,0 36,1.790861 36,4 L36,20 C36,22.209139 34.209139,24 32,24 L4,24 C1.790861,24 0,22.209139 0,20 L0,4 C0,1.790861 1.790861,0 4,0 Z" id="Mask" fill="#D9B105"></path>
        <rect id="Rectangle" fill="#D60000" x="2" y="2" width="32" height="20"></rect>
        <path d="M4,1 C2.34314575,1 1,2.34314575 1,4 L1,20 C1,21.6568542 2.34314575,23 4,23 L32,23 C33.6568542,23 35,21.6568542 35,20 L35,4 C35,2.34314575 33.6568542,1 32,1 L4,1 Z M4,0 L32,0 C34.209139,0 36,1.790861 36,4 L36,20 C36,22.209139 34.209139,24 32,24 L4,24 C1.790861,24 0,22.209139 0,20 L0,4 C0,1.790861 1.790861,0 4,0 Z" id="Mask" fill="#031619" fill-rule="nonzero" opacity="0.2"></path>
        <path d="M22.8424959,11.7809777 L22.8337472,11.7767729 C22.7062469,11.8120389 22.8052631,11.8167862 22.8052631,11.8167862 C22.8052631,11.8167862 22.8553815,11.809733 23.1130269,11.7522223 C23.3706723,11.694915 23.760701,11.4907112 23.8662956,11.4243839 C23.971958,11.3580567 23.9880312,11.3329636 23.9737213,11.4727391 C23.9593436,11.612379 23.8108872,11.9117332 23.5728416,12.0515766 C23.334796,12.1912843 22.9055,12.2631049 22.794412,12.2683948 C22.6835275,12.2738203 22.7120794,12.2898935 22.7621978,12.2934201 C22.8122485,12.2970145 22.9358152,12.2970145 23.1379844,12.2738203 C23.3400859,12.2504227 23.6622952,12.1357403 23.6622952,12.1357403 C23.6622952,12.1357403 23.6460864,12.478092 23.3615846,12.6519127 C23.0771505,12.8257335 22.5116056,12.8418745 22.5116056,12.8418745 C22.5116056,12.8418745 22.5742706,12.8598466 22.7765077,12.8616099 C22.978677,12.8634411 23.2488689,12.797046 23.2488689,12.797046 C23.2488689,12.797046 23.25599,12.8114237 23.25599,12.8598466 C23.25599,12.9082696 23.2435112,13.1143045 22.9464628,13.2647955 C22.6492788,13.4152865 22.321983,13.3114552 22.321983,13.3114552 C22.321983,13.3114552 22.3488394,13.3347172 22.4329353,13.365168 C22.5170312,13.3956867 22.7460569,13.4440418 22.7460569,13.4440418 C22.7461247,13.6266791 22.5866816,13.7265091 22.4633183,13.7684214 C22.2521969,13.8399707 22.012388,13.7898523 21.8888891,13.764827 C21.7653902,13.7397339 21.8351762,13.7808323 21.9515541,13.8310864 C22.0677963,13.8812049 22.2342248,13.8902926 22.2342248,13.8902926 C22.2088604,14.0234219 21.9466711,14.1379008 21.8477906,14.1589926 C21.5971306,14.2127733 21.4129334,14.1787958 21.3377897,14.1501083 C21.2626459,14.1214207 21.2768202,14.1553982 21.30015,14.1787958 C21.3448429,14.2236244 21.4206648,14.2349502 21.4206648,14.3064317 C21.4206648,14.3266418 21.422496,14.3996832 21.050236,14.4239625 C20.6778404,14.4482418 20.5545449,14.2416643 20.4897775,14.1807626 C20.4250101,14.1198609 20.4290793,14.1523463 20.4453559,14.1766934 C20.4614969,14.2009727 20.5262643,14.2739463 20.5828934,14.3549903 C20.6395225,14.4360343 20.6112418,14.5131448 20.3643797,14.5050065 C20.183777,14.4991062 20.0640081,14.3088732 20.0125333,14.2070765 L20.0079894,14.2130446 C20.071943,14.4599745 20.2444752,14.6622794 20.5198893,14.7815735 C20.6577659,14.8413901 20.808189,14.860176 20.870854,14.8696707 C20.933519,14.8791654 20.8802809,14.9545126 20.8802809,14.9545126 L20.8143606,15.0488493 C20.8143606,15.0488493 20.8237874,15.0771299 20.9240921,15.1054105 C21.0243968,15.133759 21.1466072,15.1555968 21.2500994,15.1840131 C21.3534559,15.2122937 21.2218187,15.2972034 21.1623412,15.3286037 C21.1027959,15.3600719 21.1183943,15.3946597 21.1497947,15.42606 C21.1810594,15.4575282 21.2970303,15.5235842 21.3565078,15.5423701 C21.4161888,15.5612917 21.4066941,15.5926242 21.3472166,15.6177851 C21.2876034,15.6428782 21.2616287,15.6405046 21.2616287,15.6405046 C21.2616287,15.6405046 21.1864171,15.6317559 21.2886207,15.7079848 C21.3906887,15.784078 21.6282596,15.9696315 21.6753262,16.0046941 C21.7223928,16.0398244 21.7787506,16.0856703 21.8056748,16.0856703 C21.8327347,16.0856703 21.8640672,16.0632221 21.8327347,16.009238 C21.8011988,15.955186 21.7607107,15.8428095 21.6572863,15.7305007 C21.5537941,15.6180564 21.6167304,15.4021877 21.6932983,15.3526796 C21.7696628,15.3032393 21.7516907,15.2763151 21.7516907,15.2268748 C21.7516907,15.1773668 21.828123,15.0963906 21.8550473,15.0738746 C21.882175,15.0512907 21.9135753,15.0649224 21.9405674,15.0018505 C21.9675594,14.938982 22.0169997,14.8310816 22.1923803,14.7006651 C22.3678288,14.5701808 22.6061457,14.5612287 22.6061457,14.5612287 C22.6061457,14.5612287 22.6659623,14.5617034 22.7016352,14.5617034 C22.7373082,14.5617034 22.7636899,14.5570239 22.7791527,14.5273869 C22.7946833,14.4978855 22.8412073,14.4216566 22.8412073,14.4216566 C22.8412073,14.4216566 22.8660292,14.3966991 22.8226926,14.3966991 C22.7792205,14.3966991 22.7063826,14.4030063 22.690852,14.3966991 C22.6753214,14.3905276 22.6722695,14.3610262 22.6831206,14.3236578 C22.6939717,14.2863572 22.7280169,14.1586535 22.738868,14.1275923 C22.7497869,14.0964632 22.7699292,14.0762531 22.7978708,14.0979552 C22.8257445,14.1197252 22.8613496,14.1416309 22.8769481,14.1493623 C22.8924787,14.1570937 22.9187925,14.1648929 22.9172327,14.1368835 C22.9156729,14.1088742 22.914113,14.034273 22.914113,14.0170469 C22.914113,13.9999564 22.9234043,13.9657077 22.9638245,13.971947 C23.004177,13.9782542 23.1514126,14.0233541 23.1839659,14.034273 C23.2166548,14.0450562 23.2476482,14.0466161 23.2134673,14.0995151 C23.179422,14.1525498 23.1701986,14.1743197 23.1638914,14.1882227 C23.1577198,14.2021935 23.1577198,14.2037533 23.1840337,14.2099249 C23.2104832,14.2162999 23.2662985,14.2224036 23.2833211,14.227151 C23.3003438,14.2317627 23.3175699,14.2380699 23.3035313,14.2799822 C23.2895605,14.3220301 23.2584993,14.4060582 23.2508357,14.4480383 C23.2430365,14.4899506 23.2197745,14.516468 23.1825417,14.5071767 C23.1453089,14.4978177 23.1205549,14.4666208 23.1050921,14.4588894 C23.0894258,14.4512258 23.0770827,14.4479705 23.0785747,14.4759799 C23.0800668,14.504057 23.0755229,14.6347448 23.0755229,14.6347448 C23.0755229,14.6347448 23.1065841,14.6487156 23.1250309,14.6642462 C23.1436812,14.6798446 23.1498528,14.7062941 23.1498528,14.7062941 C23.3796923,14.797511 23.541916,15.0840475 23.5320822,15.3113098 C23.5274705,15.4186677 23.522791,15.4325029 23.5576501,15.4698035 C23.5924414,15.5071719 23.6062765,15.5909965 23.6016648,15.6190059 C23.5971209,15.6468796 23.5901355,15.6818065 23.6062765,15.6935392 C23.6226209,15.705272 23.6713152,15.7704463 23.6713152,15.8147323 C23.6713152,15.8588826 23.6458151,15.9824493 23.6226209,16.0266675 C23.5993589,16.0710213 23.44134,16.1547781 23.2206561,16.2504711 C23.00004,16.3460285 22.4493475,16.5277163 22.2427022,16.5905169 C22.0359213,16.6534532 21.817611,16.6651181 21.6642717,16.5439929 C21.5109323,16.4228677 21.490044,16.3808876 21.2973016,16.299301 C21.2248706,16.2687145 21.1273465,16.2299219 21.0395205,16.1991319 C20.8930987,16.1478605 20.7652594,16.1104921 20.7652594,16.1104921 C20.7620719,16.1484031 20.7561716,16.1978433 20.7296543,16.227616 C20.6796037,16.2841773 20.6137512,16.1836013 20.3913039,16.0263962 C20.1687889,15.869259 19.9995798,15.8127655 19.9995798,15.8127655 C19.9995798,15.8127655 19.9525811,15.8850609 19.8931036,15.9604081 C19.8335583,16.0359587 19.7802523,15.9573562 19.507551,15.5800776 C19.2918179,15.281605 19.0073161,15.0086324 18.8980592,14.9079208 C18.8712028,14.9194501 18.8442785,14.9313185 18.8174899,14.9432546 C18.8230511,14.9589887 18.8284767,14.9747228 18.8334275,14.9904569 C18.858385,15.0685847 18.8990087,15.1186353 18.9520434,15.2278243 C19.0051459,15.337149 19.0863933,15.3621065 19.1801196,15.5089352 C19.2738458,15.6556961 19.2862567,15.7555261 19.2956158,15.9054745 C19.3050427,16.0553551 19.2206755,16.0866197 19.2206755,16.0866197 C19.2206755,16.0866197 19.3580773,16.2207663 19.3987011,16.3207997 C19.439257,16.4206975 19.4612305,16.6237484 19.4612305,16.6237484 C19.4612305,16.6237484 19.4830683,16.6329718 19.5329154,16.7361249 C19.5828982,16.839278 19.6735726,16.8547408 19.8046672,16.9859711 C19.9357619,17.1170658 20.0825906,17.1732879 20.1512915,17.213776 C20.2199925,17.2544676 20.2012065,17.2950235 20.1824884,17.348126 C20.1637025,17.4011607 20.0699762,17.4542632 19.9607194,17.4948869 C19.8513947,17.535375 19.8138907,17.5198444 19.7390182,17.5167247 C19.6640779,17.5136728 19.7233519,17.5729469 19.7546166,17.6040759 C19.7858135,17.6354084 19.8264372,17.7445975 19.8202657,17.8664009 C19.8138907,17.9882043 19.7233519,17.9599915 19.6109754,17.9413412 C19.4985989,17.9226909 19.3673686,17.8664009 19.3673686,17.8664009 L19.3799151,17.9008531 C19.3923939,17.9351696 19.3986333,17.9600593 19.3986333,18.0570409 C19.3986333,18.1537511 19.382967,18.2006142 19.3548898,18.2255039 C19.3268127,18.2505292 19.2705227,18.1974946 19.2298989,18.1850158 C19.189343,18.1724014 19.1206421,18.1319133 19.0207443,18.1100755 C18.9208465,18.0881699 18.8833424,18.0444943 18.8833424,18.0444943 C18.8833424,18.0444943 18.9082999,18.0756233 18.9146749,18.1443921 C18.9207787,18.213093 18.917659,18.3161105 18.9020606,18.3755201 C18.8863943,18.4347942 18.8427187,18.5066148 18.7740178,18.5690763 C18.7053847,18.6315379 18.6897184,18.6033929 18.6397356,18.5254007 C18.5898206,18.4472729 18.4866675,18.3473073 18.4866675,18.3473073 C18.4866675,18.3473073 18.480496,18.3723326 18.411795,18.5940338 C18.3430941,18.815735 18.1182732,19 18.1182732,19 C18.1182732,19 17.8934524,18.8158029 17.8247514,18.5940338 C17.7560505,18.3723326 17.7498111,18.3473073 17.7498111,18.3473073 C17.7498111,18.3473073 17.6467937,18.4472729 17.5968109,18.5254007 C17.5468959,18.6034607 17.5312974,18.6316057 17.4625965,18.5690763 C17.3938956,18.5066148 17.3501522,18.4347264 17.3346216,18.3755201 C17.3189553,18.3161105 17.3157678,18.2131608 17.322075,18.1443921 C17.3283144,18.0756233 17.3532719,18.0444943 17.3532719,18.0444943 C17.3532719,18.0444943 17.3158356,18.0881699 17.2159378,18.1100755 C17.1160401,18.1319133 17.0473391,18.1723336 17.0067154,18.1850158 C16.9661595,18.1974946 16.9099373,18.2505292 16.8817923,18.2255039 C16.8536473,18.2006142 16.8380489,18.153819 16.8380489,18.0570409 C16.8380489,17.9600593 16.8442882,17.9351696 16.856767,17.9008531 L16.8692457,17.8664009 C16.8692457,17.8664009 16.7380833,17.9226909 16.6257067,17.9413412 C16.5132624,17.9600593 16.4226558,17.9882721 16.4164164,17.8664009 C16.4101771,17.7445975 16.4508008,17.6354084 16.4819977,17.6040759 C16.5131945,17.5729469 16.5725364,17.5136728 16.4975961,17.5167247 C16.422588,17.5198444 16.3851518,17.5354428 16.2758271,17.4948869 C16.1665024,17.4542632 16.0727762,17.4011607 16.0541259,17.348126 C16.03534,17.2950235 16.0166218,17.2545354 16.0853228,17.213776 C16.1540237,17.1733557 16.3007168,17.1171336 16.4319471,16.9859711 C16.5630417,16.8547408 16.6536483,16.839278 16.7036311,16.7361249 C16.753546,16.6330396 16.7754517,16.6237484 16.7754517,16.6237484 C16.7754517,16.6237484 16.7973573,16.4206975 16.8379132,16.3207997 C16.878537,16.2208341 17.0159388,16.0866197 17.0159388,16.0866197 C17.0159388,16.0866197 16.9316395,16.0553551 16.9409985,15.9054745 C16.9504254,15.7555261 16.9629041,15.6556961 17.0565626,15.5089352 C17.1502888,15.3620386 17.2314006,15.3370812 17.2845031,15.2278243 C17.3376056,15.1186353 17.3781615,15.0685847 17.4031868,14.9904569 C17.4088837,14.9724848 17.4145805,14.9560725 17.4197347,14.9415592 C17.3997281,14.9323357 17.3796536,14.9233158 17.3593756,14.9142958 C17.2493727,15.0159569 16.9660916,15.28798 16.7510367,15.585571 C16.4784033,15.9626461 16.4250973,16.0413165 16.365552,15.9658336 C16.3060745,15.8903508 16.2590757,15.8181232 16.2590757,15.8181232 C16.2590757,15.8181232 16.0898667,15.8746845 15.8673516,16.0318218 C15.6448366,16.1890947 15.5790519,16.2896706 15.5289335,16.2329737 C15.478815,16.1764125 15.4819347,16.0601024 15.4819347,16.0601024 C15.4819347,16.0601024 15.2877003,16.1513193 15.2156084,16.1984537 C15.1435165,16.2456559 15.0181187,16.3430444 14.97112,16.4027932 C14.924189,16.462542 14.8457899,16.5097442 14.8113378,16.5536911 C14.7768177,16.5977736 14.7235796,16.7329374 14.6891274,16.7611502 C14.6546752,16.789363 14.6233427,16.8335134 14.5982496,16.8617262 C14.5732243,16.8900746 14.5199183,16.9435162 14.5199183,16.9435162 C14.5199183,16.9435162 14.5262255,17 14.513679,17.0251706 C14.5011324,17.0503316 14.4698677,17.0724407 14.4698677,17.0911588 C14.4698677,17.1100125 14.4384674,17.1257466 14.5043199,17.1696935 C14.5701046,17.2136404 14.5888905,17.2452442 14.6923149,17.2986179 C14.7956715,17.3520595 14.8426703,17.3520595 14.8395506,17.3834598 C14.8364309,17.414928 14.7941117,17.4293057 14.7612193,17.4431408 C14.6905516,17.4730491 14.5983174,17.4798989 14.5879411,17.487359 C14.5660354,17.503093 14.557558,17.6097728 14.557558,17.6569072 C14.557558,17.7040415 14.5669171,17.7606028 14.5450115,17.7637903 C14.523038,17.7669778 14.4384674,17.7354419 14.3851615,17.7009219 C14.3318555,17.666334 14.3161893,17.6411053 14.2566439,17.6757609 C14.1970986,17.7102809 14.1375533,17.7323222 14.1155798,17.7009219 C14.0936742,17.6694537 14.1313139,17.6034656 14.1313139,17.5405971 C14.1313139,17.4776608 14.1407408,17.3205914 14.1155798,17.2796285 C14.0905545,17.2388692 14.0623417,17.2168957 14.0216502,17.2356817 C13.9808908,17.2546032 13.8837736,17.2702695 13.8336551,17.2419888 C13.7835367,17.2136404 13.7051376,17.1729488 13.6988982,17.131986 C13.6926589,17.0911588 13.683232,17.0314778 13.683232,17.0314778 C13.683232,17.0314778 13.5641414,17.0063169 13.5014763,16.955995 C13.4387435,16.9057409 13.3886929,16.8272062 13.3949323,16.7580305 C13.4011038,16.6889227 13.426197,16.6826155 13.426197,16.6826155 C13.426197,16.6826155 13.2883204,16.5977736 13.2757738,16.503437 C13.2632951,16.4091004 13.2507485,16.3682732 13.2883882,16.2990297 C13.3258923,16.2299219 13.3854376,16.1733606 13.4387435,16.1324656 C13.4919816,16.0917062 13.5202623,16.1041849 13.5265017,16.0885187 C13.532741,16.0727846 13.5295535,16.053863 13.4857423,16.0162233 C13.4418632,15.978448 13.2820132,15.7584423 13.2601076,15.5635975 C13.2381341,15.3686171 13.2601076,15.2618018 13.2601076,15.2618018 C13.2601076,15.2618018 13.2725863,15.2177192 13.2287751,15.2021208 C13.184896,15.1864546 13.1003254,15.1297576 13.0815394,15.032437 C13.0626857,14.9350485 13.1065647,14.8720444 13.1065647,14.8720444 C13.1065647,14.8720444 13.1316579,14.8469513 13.0877788,14.8154831 C13.0438997,14.784015 12.7242675,14.5293536 12.6647222,14.0297291 C12.6051769,13.5298332 12.5800837,13.2125068 12.4829665,13.0363802 C12.3858493,12.8603892 12.2980234,12.8226139 12.2228796,12.8006404 C12.1476681,12.7785991 12.1320018,12.7219701 12.1946668,12.6780232 C12.2573996,12.6340085 12.3126045,12.6234965 12.3147069,12.6208515 L12.2714382,12.4551012 L12.1474646,12.5281426 C12.1474646,12.5281426 12.1119951,12.5518115 12.096261,12.5123407 C12.080527,12.4728699 12.0195574,12.3345864 12.0096558,12.3070518 C11.999822,12.2793815 11.9880215,12.2517112 12.0273567,12.2418096 C12.0667597,12.231908 12.1908011,12.1983375 12.1908011,12.1983375 C12.1908011,12.1983375 12.1513981,12.1292974 12.1258302,12.0817561 C12.1002624,12.0344183 12.0549591,11.9949475 12.1041959,11.9733131 C12.1533649,11.9514753 12.2852734,11.8962704 12.3128758,11.8843342 C12.3403426,11.8724659 12.3620448,11.8744326 12.3640115,11.9140391 C12.3659783,11.9533743 12.3777788,12.0303491 12.3797456,12.0482534 C12.3817124,12.0660221 12.3836791,12.1015594 12.4428175,12.0718545 C12.5017525,12.0422175 12.5115863,12.0323159 12.5293549,12.020651 C12.5471236,12.0087148 12.5746582,12.0008477 12.584492,12.0540859 C12.5884255,12.0753811 12.5970385,12.1099689 12.6063976,12.1456419 C12.6898831,12.174126 12.9360671,12.2546275 13.1018174,12.2737525 C13.3039866,12.2969467 13.4274855,12.2969467 13.477604,12.2933523 C13.5277224,12.2898257 13.5563421,12.2737525 13.4453898,12.2683269 C13.3344375,12.263037 12.904938,12.1912843 12.6669602,12.0515087 C12.4289824,11.9117332 12.2804582,11.612379 12.2660805,11.4726713 C12.2518385,11.3328957 12.2678438,11.357921 12.3734384,11.4243161 C12.479033,11.4906434 12.8691973,11.6948472 13.1268427,11.7521545 C13.3844881,11.8096652 13.4346065,11.8167184 13.4346065,11.8167184 C13.4346065,11.8167184 13.524128,11.8167184 13.3970347,11.7809777 C13.2700092,11.7451013 12.828031,11.6160412 12.5166727,11.3633466 C12.2053823,11.1107198 12.1445484,10.9082115 12.1194552,10.7988868 C12.0944299,10.6895621 12.0836467,10.6035673 12.164216,10.6663001 C12.2447852,10.7288973 12.4862897,10.9188591 12.6509549,11.0103473 C12.8156201,11.1016998 12.9677387,11.1448329 13.0571245,11.169926 C13.1466459,11.1948835 13.2182631,11.2110245 13.1323361,11.1769792 C13.0463412,11.1430018 12.7654338,11.0443247 12.5489547,10.8275743 C12.3324077,10.6106883 12.1612997,10.285834 12.1577731,10.0863097 C12.1542465,9.88678541 12.1684208,9.90102746 12.2325778,9.95094245 C12.296667,10.0007896 12.5246754,10.2823074 12.6529216,10.3891228 C12.7811679,10.4960737 12.9878132,10.638562 13.0911019,10.6990568 C13.1943907,10.7596873 13.3404734,10.8273709 13.1374225,10.6884092 C12.9343038,10.5495832 12.5495651,10.2217448 12.3928347,9.79780653 C12.2360366,9.37386827 12.2645885,9.12456462 12.2681151,9.08177066 C12.2717095,9.03904452 12.3073146,8.95352442 12.3429876,9.03199132 C12.3785927,9.11025476 12.6350852,9.62330755 12.8417305,9.84412709 C13.0483758,10.0649466 12.9984608,10.0222883 13.0447814,10.0578934 C13.0911019,10.0934986 13.169501,10.1576556 13.0697389,10.0328681 C12.9699767,9.90828412 12.7633992,9.61971312 12.656516,9.33473655 C12.5496329,9.04969215 12.5211488,8.76464775 12.5175544,8.60079639 C12.5140278,8.43701285 12.585238,8.20907228 12.6173165,8.14138865 C12.6494628,8.07356938 12.6814735,8.02372221 12.692189,8.10205347 C12.7029044,8.18045255 12.8667558,8.68631649 12.9558025,8.93209353 C13.044917,9.17800621 13.2230104,9.45586176 13.2586155,9.50930335 C13.2942885,9.56274494 13.3869296,9.67315471 13.2871674,9.48794028 C13.1874053,9.30265803 12.995002,8.75766237 12.9700445,8.24108298 C12.9451549,7.72450359 13.0163651,7.43952701 13.0875753,7.29703872 C13.1588534,7.15448261 13.2205011,7.10395725 13.2205011,7.10395725 C13.2205011,7.10395725 13.2083615,7.45661747 13.313617,7.96322742 C13.4188047,8.4699052 13.5726188,8.7373844 13.5726188,8.7373844 C13.5726188,8.7373844 13.6373183,8.81035794 13.5928289,8.68875799 C13.5628528,8.60703576 13.5011373,8.4269756 13.4728566,8.12192452 C13.443084,7.80188538 13.4395574,7.43769589 13.5329445,7.12776182 C13.6346734,6.79015749 13.8112748,6.61755744 13.8112748,6.61755744 C13.8604438,7.10185486 13.85061,7.72599561 14.0282964,8.23185956 C14.0613923,8.20222253 14.105407,8.14722111 14.1229721,8.25905508 C14.1553219,8.42534794 14.2200893,8.7373844 14.4386709,9.13460188 C14.6571846,9.53181935 14.7462313,9.58451492 14.7462313,9.58451492 C14.7462313,9.58451492 14.7866515,9.48719427 14.815,9.43456651 C14.8433484,9.38187094 14.8595573,9.35345467 14.8959762,9.4264282 C14.9323952,9.49940174 15.0537916,9.77908841 15.3209318,10.0871235 C15.5880719,10.3950909 15.737749,10.5451071 15.7296785,10.7760995 C15.7215402,11.0071598 15.6001437,11.1246906 15.4382591,11.2300817 C15.2764423,11.3355407 15.2480939,11.392102 15.2723053,11.5178389 C15.2966525,11.643508 15.4422604,11.6879974 15.5677939,11.6921344 C15.6932596,11.6961358 15.8511428,11.6839283 15.9077719,11.7164137 C15.964401,11.7488991 15.9684702,11.8298754 16.0250993,11.8865723 C16.0817962,11.9434048 16.1060076,11.9757546 16.1587032,11.9839607 C16.1787099,11.9870126 16.1947153,11.9889115 16.2067193,11.9900645 L16.2067193,11.9943371 C16.2195371,11.3816578 15.9823053,11.1086852 15.9823053,11.1086852 L16.6422546,10.3333075 C16.6749435,10.3493807 16.7076324,10.3645044 16.7403213,10.3788142 C16.744933,10.370269 16.7510367,10.3611134 16.7587681,10.3512118 C16.8465941,10.2390387 16.8754173,10.1439561 16.8754173,10.0001792 C16.8425249,10.0034346 16.7767402,10.0271713 16.7169236,10.0151673 C16.6570392,10.0032311 16.7019356,9.94321105 16.7198399,9.88624286 C16.737812,9.82913903 16.7557163,9.6312424 16.7437801,9.55623429 C16.7318439,9.48122617 16.7258758,9.45118224 16.7258758,9.45118224 C16.7258758,9.45118224 16.630115,9.55623429 16.5703662,9.55623429 C16.5105496,9.55623429 16.5164499,9.49628205 16.5074977,9.43022608 C16.4940695,9.33080303 16.4471386,9.20520174 16.3698924,9.13622954 C16.3698924,9.13622954 16.2653151,9.20832142 16.1456141,9.20832142 C16.0259131,9.20832142 15.8644354,9.17529344 15.7358501,9.0523371 C15.6072647,8.92938076 15.610181,8.89933682 15.610181,8.89933682 C15.610181,8.89933682 15.3709146,8.98329708 15.1884807,8.99238486 C15.0060469,9.00133701 14.8116769,8.97129307 14.7189679,8.77936453 C14.626259,8.587436 14.74596,8.4104277 14.7668483,8.38038376 C14.7877366,8.35033982 14.8475532,8.32639962 14.8475532,8.38038376 C14.8475532,8.4343679 14.8445692,8.57828039 14.9552502,8.65037228 C15.0659313,8.72232853 15.1526721,8.71927666 15.2573173,8.68631649 C15.3619624,8.65335633 15.5085199,8.61130838 15.6759656,8.6353164 C15.8262531,8.65681511 15.8464633,8.66868348 15.8491082,8.67092152 C15.841309,8.66291884 15.7049245,8.52307551 15.5713205,8.48231613 C15.433783,8.440336 15.3530103,8.49730418 15.3081139,8.55128832 C15.2632854,8.60527246 15.2243571,8.69235241 15.1884807,8.56627638 C15.1526043,8.440336 15.1734927,8.29635568 15.2333093,8.20330764 C15.2931937,8.11032742 15.4218468,8.05030737 15.5564003,8.06536324 C15.6909537,8.0803513 15.7387663,8.10130746 15.7387663,8.10130746 C15.7387663,8.10130746 15.8076028,7.90639487 15.9810845,7.87038284 C16.1927485,7.82643595 16.4261824,7.90598796 16.609091,8.00832724 C16.609091,8.00832724 16.7527322,8.04142304 16.8992897,7.99937509 C16.9951861,7.97184047 17.0910826,7.91344808 17.1459484,7.87655439 C17.1292648,7.82040004 17.0965081,7.71690783 17.0965081,7.71690783 C17.0965081,7.71690783 17.054528,7.70415781 17.0107167,7.68767772 C16.9669055,7.67126546 16.9760611,7.6566165 16.9705677,7.62012973 C16.9650744,7.58371078 17.0528325,7.5200963 17.0528325,7.5200963 C17.0528325,7.5200963 17.0653791,7.41043254 16.9212631,7.33522097 C16.7771472,7.2600094 16.7927456,7.27255596 16.7927456,7.27255596 C16.7927456,7.27255596 16.7081071,7.28822221 16.6736549,7.26312908 C16.6392028,7.23803595 16.6392028,7.2223697 16.6392028,7.2223697 C16.6392028,7.2223697 16.5753848,7.20141355 16.5519194,7.1628922 C16.5284539,7.12443867 16.5242491,7.06882687 16.5412717,7.02393051 C16.5583622,6.97896634 16.5796574,6.97042111 16.556192,6.94899022 C16.5327943,6.92762715 16.5114312,6.87635578 16.509261,6.83993683 C16.5071586,6.80351788 16.5071586,6.79504047 16.5071586,6.79504047 C16.5071586,6.79504047 16.4580575,6.77781438 16.4602277,6.70300972 C16.4623301,6.62806943 16.502886,6.59809331 16.5263515,6.59165048 C16.5497491,6.58527547 16.5647372,6.58527547 16.5647372,6.58527547 C16.5647372,6.58527547 16.5690098,6.54031129 16.6073277,6.48049469 C16.6457134,6.42054246 16.6713491,6.39490677 16.6713491,6.39490677 C16.6713491,6.39490677 16.6436788,6.37367934 16.6585991,6.32444255 C16.6735193,6.27520576 16.7076324,6.24522964 16.7417455,6.23444638 C16.7758586,6.22379875 16.8122097,6.23444638 16.8122097,6.23444638 C16.8122097,6.23444638 16.9251966,6.16601673 16.9785704,6.13821083 C17.0319442,6.11047275 17.044762,6.10402992 17.044762,6.10402992 C17.044762,6.10402992 17.0468644,6.05689552 17.0660572,6.03125984 C17.0852501,6.00555634 17.1300108,5.99484089 17.1534763,5.99484089 C17.1770096,5.99484089 17.2025774,6.00772655 17.2025774,6.00772655 C17.2025774,6.00772655 17.3945738,5.95842194 17.4734476,5.9456041 C17.5523892,5.93271844 17.5566619,5.92634343 17.5566619,5.92634343 C17.5566619,5.92634343 17.727363,5.84502812 17.7934868,5.83221028 C17.8596105,5.81946026 17.8766332,5.81518764 17.8766332,5.81518764 C17.8766332,5.81518764 17.8190546,5.7295319 17.8148498,5.63329636 C17.8105772,5.53699299 17.8682914,5.45778008 17.9365176,5.41708852 C17.9775483,5.38684112 18.0259712,5.37863499 18.0259712,5.37863499 L18.0387891,5.30172794 L17.9064737,5.31881839 L17.895826,5.11549622 L18.0216308,5.12410927 L18.0025057,5 L18.2640169,5.00298405 L18.2448918,5.12716113 L18.3696793,5.11135924 L18.3590995,5.31766547 L18.2309211,5.30477981 L18.2323453,5.37103923 C18.2448918,5.37890627 18.2655767,5.38270415 18.304098,5.40555924 C18.3723242,5.44618299 18.4362778,5.53699299 18.4319374,5.63329636 C18.4277326,5.7295319 18.3586926,5.81308524 18.3586926,5.81308524 C18.3586926,5.81308524 18.3778176,5.81946026 18.4440092,5.8322781 C18.5100652,5.84509594 18.6806306,5.92641125 18.6806306,5.92641125 C18.6806306,5.92641125 18.6849711,5.93285408 18.7639127,5.94567192 C18.8427865,5.95848976 19.0348507,6.00779437 19.0348507,6.00779437 C19.0348507,6.00779437 19.0604186,5.99490871 19.083884,5.99490871 C19.1073495,5.99490871 19.152178,6.00562416 19.1713709,6.03132766 C19.1905637,6.05703116 19.1926661,6.10409774 19.1926661,6.10409774 C19.1926661,6.10409774 19.205484,6.11047275 19.2588577,6.13827865 C19.3121637,6.16608455 19.4252184,6.2345142 19.4252184,6.2345142 C19.4252184,6.2345142 19.4614339,6.22386657 19.495547,6.2345142 C19.5296601,6.24536528 19.563841,6.27527358 19.5787613,6.32451037 C19.5936815,6.37374716 19.5660112,6.39497459 19.5660112,6.39497459 C19.5660112,6.39497459 19.5915113,6.42061028 19.6300326,6.48056251 C19.6684183,6.54037911 19.6726909,6.58534329 19.6726909,6.58534329 C19.6726909,6.58534329 19.6875434,6.58534329 19.710941,6.5917183 C19.7344743,6.59816113 19.7749624,6.62813725 19.7771326,6.70307754 C19.7793707,6.7778822 19.7303373,6.79510829 19.7303373,6.79510829 C19.7303373,6.79510829 19.7303373,6.80351788 19.7281671,6.84000465 C19.7260647,6.87635578 19.7047016,6.92769497 19.681304,6.94905804 C19.6577029,6.97048893 19.6792016,6.97903416 19.6961564,7.02399833 C19.7133147,7.06889469 19.7089743,7.12450649 19.6855766,7.16296002 C19.6621111,7.20148137 19.5982254,7.22243752 19.5982254,7.22243752 C19.5982254,7.22243752 19.5982254,7.23810377 19.5637732,7.2631969 C19.5292532,7.28829003 19.4446826,7.27262378 19.4446826,7.27262378 C19.4446826,7.27262378 19.4603488,7.26007722 19.316165,7.33528879 C19.1719134,7.41050036 19.1845956,7.52016412 19.1845956,7.52016412 C19.1845956,7.52016412 19.2723538,7.58371078 19.2669282,7.62019755 C19.2614349,7.65668432 19.2705227,7.67133328 19.2267114,7.68774554 C19.1829002,7.70422563 19.1409879,7.71697565 19.1409879,7.71697565 C19.1409879,7.71697565 19.1081633,7.82053568 19.0914798,7.87662221 C19.1463456,7.9135159 19.2423098,7.97190829 19.3382741,7.99944291 C19.4847637,8.04149086 19.6283371,8.00839506 19.6283371,8.00839506 C19.8113814,7.90605578 20.0448153,7.82650377 20.2564114,7.87045066 C20.4298253,7.90646269 20.4987297,8.10137528 20.4987297,8.10137528 C20.4987297,8.10137528 20.5464744,8.08041912 20.6810957,8.06543106 C20.8157169,8.05037519 20.9442345,8.11039524 21.0041189,8.20337546 C21.0639355,8.2964235 21.0848238,8.44040382 21.0489474,8.5663442 C21.0130032,8.69242023 20.9741428,8.60534028 20.9293142,8.55135614 C20.8844857,8.497372 20.8036451,8.44040382 20.6660398,8.48238394 C20.5324358,8.52314333 20.3960513,8.66298666 20.3882521,8.67098934 C20.3908292,8.6687513 20.411175,8.65688293 20.5613947,8.63538422 C20.7289083,8.6113762 20.8754657,8.65342415 20.9801109,8.68638431 C21.0848238,8.71934448 21.1714968,8.72239635 21.2821779,8.6504401 C21.3929268,8.57841603 21.3898749,8.43450354 21.3898749,8.38045158 C21.3898749,8.32639962 21.4496237,8.35040764 21.4706476,8.38045158 C21.4914682,8.41049552 21.6111692,8.587436 21.5184602,8.77943235 C21.4257513,8.97136089 21.2313134,9.00140483 21.0488796,8.99245268 C20.8663779,8.9833649 20.6271794,8.89940464 20.6271794,8.89940464 C20.6271794,8.89940464 20.6301634,8.92944858 20.5015103,9.05240492 C20.3729249,9.17536126 20.2114472,9.20838924 20.0918819,9.20838924 C19.972113,9.20838924 19.8674679,9.13629736 19.8674679,9.13629736 C19.7902217,9.20520174 19.7434264,9.33080303 19.7299304,9.4302939 C19.7209104,9.49634987 19.7270142,9.55630211 19.6670619,9.55630211 C19.6073132,9.55630211 19.5114845,9.45125005 19.5114845,9.45125005 C19.5114845,9.45125005 19.5055843,9.48129399 19.4935802,9.55630211 C19.4816441,9.63131022 19.4996162,9.82920685 19.5175883,9.88631068 C19.5354926,9.94327887 19.5803889,10.0032989 19.5205723,10.0152351 C19.4607557,10.0272391 19.3949032,10.0035024 19.3620787,10.0002471 C19.3620787,10.1440239 19.3908341,10.2391065 19.47866,10.3512796 C19.4870018,10.3618594 19.4933768,10.3716254 19.4979885,10.3805775 C19.5321694,10.3657929 19.5662147,10.3501267 19.6003278,10.3333753 L20.2602771,11.108753 C20.2602771,11.108753 20.0241304,11.380437 20.0357953,11.9897932 C20.0474602,11.9885046 20.0625161,11.9868092 20.0810308,11.9839607 C20.1337263,11.9756868 20.1580056,11.9434048 20.2145669,11.8865723 C20.2712638,11.8298754 20.2752652,11.7488991 20.3319621,11.7164137 C20.3885912,11.6839961 20.5464066,11.6962036 20.6720079,11.6921344 C20.7973379,11.6880653 20.9430815,11.6435758 20.9673608,11.5178389 C20.9917758,11.3921698 20.9633595,11.3355407 20.8014071,11.2300817 C20.6395225,11.1247584 20.5181938,11.0071598 20.5100555,10.7760995 C20.5019172,10.5451071 20.6516621,10.3951587 20.9187344,10.0871235 C21.1859423,9.77908841 21.3074067,9.49940174 21.34369,9.4264282 C21.3801767,9.35345467 21.3963855,9.38187094 21.4246662,9.43456651 C21.4530825,9.48719427 21.4935706,9.58451492 21.4935706,9.58451492 C21.4935706,9.58451492 21.5824816,9.53181935 21.801131,9.13460188 C22.0195768,8.7373844 22.0843442,8.42528012 22.1167618,8.25905508 C22.1342592,8.14722111 22.1782061,8.20215472 22.2114375,8.23185956 C22.3889206,7.72599561 22.3791546,7.10192268 22.4283914,6.61755744 C22.4283914,6.61755744 22.6049928,6.79015749 22.7067217,7.12776182 C22.8001766,7.43776371 22.79665,7.80188538 22.7668774,8.12192452 C22.7385967,8.4269756 22.6768134,8.60696795 22.6467694,8.68875799 C22.6024156,8.81035794 22.6671152,8.7373844 22.6671152,8.7373844 C22.6671152,8.7373844 22.8207937,8.4699052 22.926117,7.96322742 C23.0313725,7.45661747 23.0191651,7.10395725 23.0191651,7.10395725 C23.0191651,7.10395725 23.0808806,7.15448261 23.1520908,7.29703872 C23.2233689,7.43952701 23.2945791,7.72450359 23.2696895,8.24108298 C23.2446641,8.75759455 23.0523287,9.30265803 22.9525665,9.48794028 C22.8528722,9.67315471 22.9455133,9.56274494 22.9810506,9.50930335 C23.0167914,9.45586176 23.194817,9.17793839 23.2838637,8.93209353 C23.3729782,8.68631649 23.5368974,8.18045255 23.5474772,8.10205347 C23.5582605,8.02379003 23.590339,8.07356938 23.6223497,8.14138865 C23.654496,8.20900446 23.7257062,8.43694503 23.7221118,8.60079639 C23.7185852,8.76464775 23.6900333,9.04969215 23.5832858,9.33473655 C23.4763348,9.61964531 23.2697573,9.90828412 23.1699951,10.0328681 C23.0700973,10.1576556 23.1485642,10.0934986 23.194817,10.0578934 C23.2411375,10.0222883 23.1912226,10.0650145 23.3979357,9.84412709 C23.6044454,9.62330755 23.8610735,9.11025476 23.8966786,9.03199132 C23.9322837,8.95352442 23.9679567,9.03904452 23.9714833,9.08177066 C23.9750099,9.12456462 24.0035618,9.37386827 23.8468315,9.79780653 C23.6899655,10.2217448 23.3052946,10.5495832 23.1022437,10.6884092 C22.8991928,10.8273709 23.0452077,10.7596873 23.1485642,10.6990568 C23.251853,10.638562 23.4584983,10.4960737 23.5867445,10.3891228 C23.714923,10.2823074 23.9429314,10.0007896 24.0070884,9.95094245 C24.0712454,9.90102746 24.0854875,9.88685323 24.081893,10.0863097 C24.0782308,10.285834 23.9071906,10.6107561 23.6907115,10.8275743 C23.4741646,11.0443247 23.1931215,11.1430018 23.1073301,11.1769792 C23.0213353,11.2110245 23.0929524,11.1948835 23.1824061,11.169926 C23.2718597,11.1447651 23.4239783,11.1016998 23.5887113,11.0103473 C23.7533087,10.9189269 23.9948809,10.7288973 24.0753824,10.6663001 C24.1558839,10.6035673 24.1451006,10.6895621 24.1201431,10.7988868 C24.0949822,10.9082115 24.0342161,11.110652 23.7228578,11.3633466 C23.4114996,11.6159734 22.9695892,11.7451013 22.8424959,11.7809777 Z M12.6628232,12.4306863 L12.6627554,12.4313645 C12.6641118,12.4306863 12.6654682,12.4300081 12.6668246,12.4286517 C12.645258,12.3899269 12.6288458,12.3513377 12.616367,12.3157326 C12.6120266,12.3167499 12.6071436,12.3175637 12.6017859,12.3181741 C12.5644175,12.3221076 12.5171474,12.3358749 12.5013456,12.3358749 C12.4856793,12.3358749 12.479779,12.3477433 12.4915796,12.3754136 C12.5033801,12.403016 12.5486834,12.4957928 12.5486834,12.4957928 C12.5486834,12.4957928 12.6352886,12.4464882 12.6628232,12.4306863 Z M16.1338135,14.4632298 L16.1344239,14.4629586 C16.1785064,14.3802191 16.2185198,14.2825593 16.2415784,14.2228783 C16.238323,14.2186057 16.2349321,14.2141297 16.2316089,14.2095858 L16.228218,14.2049062 C16.1774213,14.3060926 16.0571099,14.4989706 15.8752865,14.5049387 C15.6284243,14.513077 15.6000759,14.4359665 15.6567728,14.3549225 C15.7134019,14.2738784 15.7781693,14.2008371 15.7943103,14.1766256 C15.8105191,14.1522785 15.8145882,14.1198609 15.7498208,14.1806948 C15.6850534,14.2415965 15.561758,14.448174 15.1894302,14.4238947 C14.8171024,14.3996154 14.8190013,14.3266418 14.8190013,14.3063639 C14.8190013,14.2348824 14.8948233,14.2235565 14.9395162,14.178728 C14.9627782,14.1553304 14.9771559,14.1213529 14.9019443,14.1500404 C14.8267327,14.178728 14.6424678,14.2127055 14.3919434,14.1589248 C14.2931307,14.137833 14.0309414,14.0233541 14.0054414,13.8902248 C14.0054414,13.8902248 14.1718698,13.881137 14.2881121,13.8310186 C14.4044899,13.7806967 14.4742082,13.739666 14.3507771,13.7647592 C14.2272104,13.7897845 13.9874692,13.8399707 13.77628,13.7683536 C13.6530524,13.7264413 13.4936093,13.6266113 13.4936093,13.443974 C13.4936093,13.443974 13.722635,13.3956189 13.8067309,13.3651002 C13.8908268,13.3346494 13.9176832,13.3113873 13.9176832,13.3113873 C13.9176832,13.3113873 13.590184,13.4152865 13.2932034,13.2647277 C12.9962228,13.1142367 12.9836084,12.9082018 12.9836084,12.8597788 C12.9836084,12.8113559 12.9907972,12.7969782 12.9907972,12.7969782 C12.9907972,12.7969782 13.2609892,12.8633054 13.4631585,12.8615421 C13.6653277,12.8597788 13.7279927,12.8418067 13.7279927,12.8418067 C13.7279927,12.8418067 13.1625156,12.8256657 12.8780138,12.6518449 C12.8123647,12.6116281 12.7609577,12.5625269 12.7208087,12.5106452 C12.7121278,12.5281426 12.7029044,12.5478102 12.698564,12.5694445 C12.6887302,12.6188169 12.6768618,12.6799899 12.706431,12.867578 C12.7360002,13.0550983 12.7940535,13.2966706 12.8918489,13.4595724 C12.9896443,13.6225422 13.2015117,13.9647582 13.244916,14.0951068 C13.288456,14.2254555 13.3372859,14.5024972 13.3372859,14.5730971 C13.3372859,14.6437647 13.3427793,14.7197901 13.3427793,14.7197901 C13.3427793,14.7197901 13.4785534,14.8229433 13.505749,14.8936109 C13.5328767,14.9642108 13.5382344,15.0043598 13.5302317,15.0417282 C13.522229,15.0790966 13.5195841,15.1111752 13.5195841,15.1111752 C13.5195841,15.1111752 13.6316893,15.2607845 13.6851988,15.335657 C13.7386403,15.4103938 13.8080873,15.5734313 13.8240926,15.6882493 C13.8401658,15.8031352 13.8481685,15.8807204 13.8481685,15.8807204 C13.8481685,15.8807204 13.8748893,15.8860782 14.1073059,15.896658 C14.3397904,15.9073734 14.5231059,15.8997776 14.6390768,15.8935383 C14.7549799,15.8872989 14.9304962,15.836977 15.0308009,15.761562 C15.1310378,15.6860791 15.1341575,15.6797719 15.1341575,15.6797719 C15.1341575,15.6797719 14.9711878,15.6483038 14.9116425,15.6232785 C14.8520971,15.5981854 14.8427381,15.5666494 14.9022834,15.5477956 C14.9618287,15.5289419 15.0777319,15.4629537 15.1090644,15.4314856 C15.1403969,15.4000853 15.1560631,15.3654296 15.0965178,15.3340971 C15.0370403,15.3025611 14.9054031,15.2176514 15.0088275,15.1894386 C15.1122519,15.1610901 15.2343944,15.1391167 15.3346991,15.1109039 C15.4350038,15.0825554 15.4443628,15.0543426 15.4443628,15.0543426 L15.3785781,14.9599382 C15.3785781,14.9599382 15.32534,14.8844553 15.388005,14.8750285 C15.45067,14.8656694 15.6010932,14.8467478 15.7389697,14.7870669 C15.8768463,14.7273859 16.0648413,14.5922221 16.1338135,14.4632298 Z M19.1368509,6.40901318 L19.1370543,6.40901318 C19.170964,6.47317021 19.2503125,6.6476692 19.2381051,6.81864158 C19.2256263,6.98954614 19.1262711,7.01803024 19.0996859,7.04122443 C19.0730329,7.0643508 19.0836128,7.08930829 19.1262711,7.12491341 C19.1688616,7.16051853 19.2451583,7.13922328 19.3037541,7.11602908 C19.3622821,7.09283489 19.4245402,7.07682955 19.4245402,7.07682955 C19.4245402,7.07682955 19.4102982,7.0625875 19.3943607,7.03410341 C19.3782875,7.00561931 19.3782875,6.95746763 19.3907662,6.87737307 C19.4031772,6.79721069 19.4156559,6.71182623 19.4031772,6.66550567 C19.3906984,6.61911728 19.3925295,6.56933794 19.3091118,6.47486569 C19.2256263,6.38052909 19.0853761,6.31474439 19.0853761,6.31474439 C19.0853761,6.31474439 19.1032125,6.34492397 19.1368509,6.40901318 Z M18.3718495,6.87404992 L18.3712391,6.87404992 C18.3393641,6.95536523 18.2532336,7.00446638 18.2532336,7.00446638 C18.2532336,7.00446638 18.2813786,7.00819644 18.3247151,7.0309159 C18.3680516,7.05363536 18.4132871,7.08761281 18.4887021,7.09141069 C18.5640493,7.09520857 18.5979589,7.07438805 18.6469245,7.04034278 C18.6958222,7.00636532 18.7504845,6.98378151 18.7504845,6.98378151 C18.7504845,6.98378151 18.7260696,6.92518566 18.7316986,6.85906187 C18.7373276,6.79287026 18.7732039,6.70965601 18.7732039,6.6417011 C18.7732039,6.57361055 18.7391587,6.43376722 18.590431,6.29772176 C18.4415677,6.1616763 18.3379399,6.13895684 18.3379399,6.13895684 C18.3448574,6.28958344 18.3719851,6.40928446 18.3925344,6.54905998 C18.4170171,6.71535283 18.4038602,6.79287026 18.3718495,6.87404992 Z M17.6461833,6.29772176 L17.6465224,6.29772176 C17.4979982,6.43376722 17.4640886,6.57361055 17.4634104,6.6417011 C17.4634104,6.70972383 17.4991511,6.79293808 17.5047801,6.85906187 C17.5104769,6.92518566 17.4859942,6.98378151 17.4859942,6.98378151 C17.4859942,6.98378151 17.5405887,7.00636532 17.589622,7.04034278 C17.6385875,7.07438805 17.6724972,7.09514075 17.7478444,7.09141069 C17.8232594,7.08761281 17.8684949,7.05356754 17.9117636,7.0309159 C17.9551679,7.00826426 17.9833807,7.00446638 17.9833807,7.00446638 C17.9833807,7.00446638 17.8967755,6.95536523 17.864697,6.87404992 C17.8326863,6.79287026 17.8195294,6.71535283 17.8439443,6.54905998 C17.8646292,6.40928446 17.8917569,6.28958344 17.8986066,6.13895684 C17.8986066,6.13895684 17.7950466,6.16174412 17.6461833,6.29772176 Z M17.1097329,7.12491341 L17.1091903,7.12491341 C17.1519164,7.08930829 17.1627675,7.0643508 17.136318,7.04129225 C17.1097329,7.01803024 17.0103098,6.98961396 16.9978311,6.8187094 C16.9853523,6.6476692 17.0652434,6.47317021 17.0990174,6.40901318 C17.1327236,6.34492397 17.1504922,6.31474439 17.1504922,6.31474439 C17.1504922,6.31474439 17.010242,6.38052909 16.9267565,6.47486569 C16.8433388,6.56933794 16.8451021,6.61911728 16.8326911,6.66550567 C16.8202124,6.71182623 16.8326911,6.79721069 16.8451021,6.87737307 C16.8575808,6.95753545 16.8575808,7.00568713 16.8415755,7.03410341 C16.8255701,7.06265532 16.8113959,7.07682955 16.8113959,7.07682955 C16.8113959,7.07682955 16.8735183,7.09283489 16.9321142,7.11602908 C16.9907779,7.13922328 17.0670745,7.16051853 17.1097329,7.12491341 Z M19.0927684,8.55440801 L19.0930396,8.55522184 C19.2395293,8.47383872 19.2870027,8.37143162 19.2870027,8.37143162 C19.2870027,8.37143162 19.1164373,8.31439561 19.0326805,8.14342323 C19.0030435,8.08286062 18.9959224,8.02758791 18.9991099,7.98133517 L18.9926671,7.98350538 C18.7209831,8.07194171 18.4029107,8.10761465 18.1189514,8.10761465 C17.8345174,8.10761465 17.5163094,8.07214517 17.2440828,7.98350538 L17.23764,7.98133517 C17.2407597,8.02758791 17.2336387,8.08286062 17.2040016,8.14342323 C17.1202448,8.31439561 16.9497472,8.37143162 16.9497472,8.37143162 C16.9497472,8.37143162 16.9976276,8.4734318 17.144185,8.55440801 C17.2907425,8.63538422 17.3744993,8.61734429 17.3685312,8.67736435 C17.3624953,8.7373844 17.2309259,8.7824164 17.2309259,8.7824164 C17.2309259,8.7824164 17.365615,8.92639671 17.4701923,8.99245268 C17.5749052,9.05844083 17.6975225,9.10042096 17.6975225,9.10042096 C17.6975225,9.10042096 17.739367,9.10645688 17.7154946,9.17244503 C17.6915544,9.23843318 17.6497099,9.28339736 17.6167497,9.30143728 C17.5838574,9.31940939 17.5658853,9.32544531 17.5658853,9.32544531 C17.5658853,9.32544531 17.7483191,9.52042571 17.8290919,9.58342981 C17.9097968,9.64643392 17.9546932,9.66739007 18.02041,9.69444996 C18.0863304,9.72144203 18.0533702,9.82941031 18.0385178,9.87749417 C18.0235975,9.9254424 17.9666972,9.99143055 17.9338048,10.0004505 C17.9009125,10.0094705 17.8889763,10.0334107 17.9308208,10.0994666 C17.9622889,10.1490425 18.068087,10.281697 18.1175272,10.3534498 L18.1205791,10.35189 C18.1703584,10.2796625 18.2747323,10.1487034 18.3060648,10.0994666 C18.3479093,10.0334107 18.3358375,10.0094705 18.3030808,10.0004505 C18.2701206,9.99143055 18.213288,9.92537458 18.1983678,9.87749417 C18.1835154,9.82941031 18.1504874,9.72144203 18.2163399,9.69444996 C18.2820568,9.66739007 18.3269531,9.64643392 18.4077259,9.58342981 C18.4884986,9.52042571 18.6709325,9.32544531 18.6709325,9.32544531 C18.6709325,9.32544531 18.6528926,9.31940939 18.6200002,9.30143728 C18.5871757,9.28339736 18.5453312,9.23843318 18.5213232,9.17244503 C18.4974508,9.10645688 18.5392275,9.10042096 18.5392275,9.10042096 C18.5392275,9.10042096 18.6620482,9.05844083 18.7666255,8.99245268 C18.8713384,8.92639671 19.0058919,8.7824164 19.0058919,8.7824164 C19.0058919,8.7824164 18.8744581,8.7373844 18.8684222,8.67736435 C18.8624541,8.61741211 18.9461431,8.63545204 19.0927684,8.55440801 Z" id="Shape" fill="#D9B105" fill-rule="nonzero"></path>
    </g>
</svg>