<?xml version="1.0" encoding="UTF-8"?>
<svg width="36px" height="24px" viewBox="0 0 36 24" version="1.1" xmlns="http://www.w3.org/2000/svg" xmlns:xlink="http://www.w3.org/1999/xlink">
    <!-- Generator: Sketch 55.2 (78181) - https://sketchapp.com -->
    <title>Flag / GE</title>
    <desc>Created with Sketch.</desc>
    <g id="Flag-/-GE" stroke="none" stroke-width="1" fill="none" fill-rule="evenodd">
        <path d="M4,0 L32,0 C34.209139,0 36,1.790861 36,4 L36,20 C36,22.209139 34.209139,24 32,24 L4,24 C1.790861,24 0,22.209139 0,20 L0,4 C0,1.790861 1.790861,0 4,0 Z" id="Mask" fill="#F7F7F7"></path>
        <polygon id="Shape" fill="#FF0000" fill-rule="nonzero" points="20 10 36 10 36 14 20 14 20 24 16 24 16 14 0 14 0 10 16 10 16 0 20 0"></polygon>
        <path d="M10,5 L12,5 L12,7 L10,7 L10,9 L8,9 L8,7 L6,7 L6,5 L8,5 L8,3 L10,3 L10,5 Z M28,5 L30,5 L30,7 L28,7 L28,9 L26,9 L26,7 L24,7 L24,5 L26,5 L26,3 L28,3 L28,5 Z M10,17 L12,17 L12,19 L10,19 L10,21 L8,21 L8,19 L6,19 L6,17 L8,17 L8,15 L10,15 L10,17 Z M28,17 L30,17 L30,19 L28,19 L28,21 L26,21 L26,19 L24,19 L24,17 L26,17 L26,15 L28,15 L28,17 Z" id="Shape" fill="#FF0000" fill-rule="nonzero"></path>
        <path d="M4,1 C2.34314575,1 1,2.34314575 1,4 L1,20 C1,21.6568542 2.34314575,23 4,23 L32,23 C33.6568542,23 35,21.6568542 35,20 L35,4 C35,2.34314575 33.6568542,1 32,1 L4,1 Z M4,0 L32,0 C34.209139,0 36,1.790861 36,4 L36,20 C36,22.209139 34.209139,24 32,24 L4,24 C1.790861,24 0,22.209139 0,20 L0,4 C0,1.790861 1.790861,0 4,0 Z" id="Mask" fill="#031619" fill-rule="nonzero" opacity="0.2"></path>
    </g>
</svg>