<?xml version="1.0" encoding="UTF-8"?>
<svg width="36px" height="24px" viewBox="0 0 36 24" version="1.1" xmlns="http://www.w3.org/2000/svg" xmlns:xlink="http://www.w3.org/1999/xlink">
    <!-- Generator: Sketch 55.2 (78181) - https://sketchapp.com -->
    <title>Flag / TJ</title>
    <desc>Created with Sketch.</desc>
    <g id="Flag-/-TJ" stroke="none" stroke-width="1" fill="none" fill-rule="evenodd">
        <path d="M4,0 L32,0 C34.209139,0 36,1.790861 36,4 L36,20 C36,22.209139 34.209139,24 32,24 L4,24 C1.790861,24 0,22.209139 0,20 L0,4 C0,1.790861 1.790861,0 4,0 Z" id="Mask" fill="#DE0000"></path>
        <path d="M0,12 L36,12 L36,20 C36,22.209139 34.209139,24 32,24 L4,24 C1.790861,24 0,22.209139 0,20 L0,12 Z" id="Rectangle" fill="#006900"></path>
        <rect id="Rectangle" fill="#FFFFFF" x="0" y="7" width="36" height="10"></rect>
        <path d="M18.2369963,12.8965369 L18.2341707,12.8965369 C17.9485461,13.8501752 16.9733139,14.0730267 16.5297527,13.2943253 C16.4245461,14.2103 15.0124195,14.4026356 14.9180336,13.4605869 C15.1733594,13.643921 15.4988704,13.6995038 15.8005656,13.6112843 C16.1022607,13.5230647 16.3465449,13.3008662 16.4628736,13.0088555 C16.7369961,13.2659863 17.1337656,13.3442547 17.4849989,13.210484 C17.8362321,13.0767133 18.0804109,12.7543335 18.1140322,12.3799954 L18.1140322,11.6034375 C18.109605,11.4592168 18.0101382,11.3353914 17.8702643,11.2999727 C17.7303903,11.264554 17.5839793,11.3261185 17.5114479,11.4508518 C17.4070342,11.1360509 17.5179648,10.7898542 17.7858904,10.5943608 C18.053816,10.3988673 18.4173511,10.3988673 18.6852767,10.5943608 C18.9532022,10.7898542 19.0641329,11.1360509 18.9597192,11.4508518 C18.8871877,11.3261185 18.7407768,11.264554 18.6009028,11.2999727 C18.4610288,11.3353914 18.3615621,11.4592168 18.3571349,11.6034375 L18.3571349,12.3799954 C18.3907562,12.7543335 18.6349349,13.0767133 18.9861682,13.210484 C19.3374014,13.3442547 19.734171,13.2659863 20.0082935,13.0088555 C20.1246222,13.3008662 20.3689064,13.5230647 20.6706015,13.6112843 C20.9722966,13.6995038 21.2978076,13.643921 21.5531334,13.4605869 C21.4587475,14.4026356 20.0466209,14.2103 19.9414144,13.2943253 C19.4978532,14.0730267 18.522621,13.8501752 18.2369963,12.8965369 Z M17.6847232,11.1133529 C17.9023259,11.068872 18.1240347,11.1682766 18.2355835,11.3603349 C18.3471323,11.1682766 18.5688411,11.068872 18.7864439,11.1133529 C18.7486338,10.8380884 18.5134326,10.6329858 18.2355835,10.6329858 C17.9577344,10.6329858 17.7225333,10.8380884 17.6847232,11.1133529 Z M18.2355835,8.2 L18.6156159,9.36961937 L17.6206782,8.64675484 L18.8504888,8.64675484 L17.8555512,9.36961937 L18.2355835,8.2 Z M16.4252444,8.68507891 L16.8052768,9.85469828 L15.8103391,9.13183374 L17.0401497,9.13183374 L16.045212,9.85469828 L16.4252444,8.68507891 Z M15.0999842,10.0103391 L15.4800166,11.1799585 L14.4850789,10.457094 L15.7148895,10.457094 L14.7199518,11.1799585 L15.0999842,10.0103391 Z M14.6149053,11.8206782 L14.9949376,12.9902976 L14,12.2674331 L15.2298106,12.2674331 L14.2348729,12.9902976 L14.6149053,11.8206782 Z M20.0459226,8.68507891 L20.425955,9.85469828 L19.4310174,9.13183374 L20.6608279,9.13183374 L19.6658903,9.85469828 L20.0459226,8.68507891 Z M21.3711829,10.0103391 L21.7512152,11.1799585 L20.7562776,10.457094 L21.9860881,10.457094 L20.9911505,11.1799585 L21.3711829,10.0103391 Z M21.8562618,11.8206782 L22.2362941,12.9902976 L21.2413565,12.2674331 L22.471167,12.2674331 L21.4762294,12.9902976 L21.8562618,11.8206782 Z M17.1711093,14.0528264 C16.9740849,14.4781526 16.580287,14.5512127 16.2358312,14.2078767 C16.2358312,14.2078767 16.3742937,14.1100383 16.5225372,14.0830668 C16.4947407,13.9647637 16.551738,13.8011194 16.6320731,13.7126197 C16.7163185,13.7701988 16.8338897,13.8856002 16.8637913,14.0197049 C17.0714398,13.992824 17.1711093,14.0528471 17.1711093,14.0528471 L17.1711093,14.0528264 Z M18.7124451,14.0046707 C18.4488024,14.3922446 18.0483638,14.4002159 17.7644022,14.0053803 C17.7644022,14.0053803 17.9169463,13.9313902 18.0676031,13.928914 C18.0594383,13.8076639 18.1423179,13.6554827 18.2359897,13.581243 C18.3097367,13.6517699 18.4069508,13.7847732 18.4146199,13.9219569 C18.6238743,13.9292417 18.7124451,14.0046911 18.7124451,14.0046911 L18.7124451,14.0046707 Z M20.2410558,14.2081014 C19.9178301,14.5475807 19.5214366,14.4902505 19.3055467,14.0544513 C19.3055467,14.0544513 19.4681017,14.006284 19.6171515,14.0283692 C19.6288364,13.9074075 19.7353866,13.7707504 19.8398955,13.712752 C19.9011761,13.7943445 19.9754389,13.9414006 19.960671,14.0780025 C20.1659474,14.1192587 20.2410558,14.208121 20.2410558,14.208121 L20.2410558,14.2081014 Z M15.7859969,15.2 L15.6679446,14.8034054 C17.3433787,14.3046872 19.1277884,14.3046872 20.8032225,14.8034054 L20.6851701,15.2 C19.0867674,14.7242114 17.3843996,14.7242114 15.7859969,15.2 Z" id="Shape" fill="#F8C300" fill-rule="nonzero"></path>
        <path d="M4,1 C2.34314575,1 1,2.34314575 1,4 L1,20 C1,21.6568542 2.34314575,23 4,23 L32,23 C33.6568542,23 35,21.6568542 35,20 L35,4 C35,2.34314575 33.6568542,1 32,1 L4,1 Z M4,0 L32,0 C34.209139,0 36,1.790861 36,4 L36,20 C36,22.209139 34.209139,24 32,24 L4,24 C1.790861,24 0,22.209139 0,20 L0,4 C0,1.790861 1.790861,0 4,0 Z" id="Mask" fill="#031619" fill-rule="nonzero" opacity="0.2"></path>
    </g>
</svg>