<?xml version="1.0" encoding="UTF-8"?>
<svg width="36px" height="24px" viewBox="0 0 36 24" version="1.1" xmlns="http://www.w3.org/2000/svg" xmlns:xlink="http://www.w3.org/1999/xlink">
    <!-- Generator: Sketch 55.2 (78181) - https://sketchapp.com -->
    <title>Flag / BN</title>
    <desc>Created with Sketch.</desc>
    <g id="Flag-/-BN" stroke="none" stroke-width="1" fill="none" fill-rule="evenodd">
        <g id="Rectangle-13-+-Rectangle-13-Copy-+-Rectangle-13-Copy-2-Mask">
            <path d="M4,0 L32,0 C34.209139,0 36,1.790861 36,4 L36,20 C36,22.209139 34.209139,24 32,24 L4,24 C1.790861,24 0,22.209139 0,20 L0,4 C0,1.790861 1.790861,0 4,0 Z" id="Mask" fill="#F7E017"></path>
            <path d="M36,18 L36,20 C36,21.0221784 35.6165849,21.9548054 34.9857268,22.6619089 L0,11 L0,6 L36,18 Z" id="Path" fill="#000000"></path>
            <path d="M36,13 L36,18 L0,6 L0,4 C0,2.97782163 0.383415064,2.04519464 1.01427317,1.33809106 L36,13 Z" id="Path" fill="#FFFFFF"></path>
        </g>
        <path d="M17.1966535,19.0213333 C16.5513202,18.9356667 15.9596535,18.7303333 15.5486535,18.449 C15.4689868,18.3943333 15.3939868,18.3496667 15.3823202,18.3496667 C15.3703202,18.3496667 15.3606535,18.4103333 15.3606535,18.4853333 C15.3606535,18.6976667 15.2753202,18.8046667 15.0606535,18.8603333 C14.8553202,18.9136667 14.5419868,18.806 14.2879868,18.5953333 C14.0249868,18.377 13.7213202,18.2103333 13.4643202,18.1436667 C13.2526535,18.0883333 12.9716535,18.0973333 12.7686535,18.1653333 C12.6743202,18.197 12.5669868,18.2416667 12.5296535,18.2646667 C12.4926535,18.2876667 12.4509868,18.3063333 12.4376535,18.3063333 C12.4016535,18.3063333 12.4066535,18.078 12.4443202,18.005 C12.4939868,17.9093333 12.6163202,17.815 12.7589868,17.763 C12.8309868,17.7366667 12.8899868,17.703 12.8899868,17.688 C12.8899868,17.673 12.8656535,17.618 12.8359868,17.5663333 C12.7393202,17.397 12.7789868,17.233 12.9476535,17.104 C13.1203202,16.972 13.4126535,16.9493333 13.6709868,17.0476667 C13.7359868,17.0723333 13.7966535,17.0926667 13.8056535,17.0926667 C13.8396535,17.0926667 13.8189868,17.045 13.7253202,16.9086667 C13.6173202,16.7506667 13.5959868,16.6726667 13.6093202,16.4846667 C13.6266535,16.2466667 13.8206535,16.052 14.0583202,16.0346667 C14.2523202,16.0206667 14.3729868,16.086 14.6593202,16.3586667 C15.5143202,17.174 16.4439868,17.6233333 17.5283202,17.745 C17.8019868,17.7756667 18.3526535,17.7593333 18.6756535,17.7106667 C19.6513202,17.5636667 20.6343202,17.073 21.4019868,16.35 C21.6146535,16.1496667 21.7169868,16.0966667 21.8913202,16.096 C22.0429868,16.0953333 22.1493202,16.1443333 22.2579868,16.2643333 C22.3569868,16.3743333 22.3906535,16.4786667 22.3799868,16.6456667 C22.3729868,16.7526667 22.3556535,16.8053333 22.2919868,16.909 C22.1979868,17.062 22.2139868,17.076 22.3999868,17.004 C22.6513202,16.906 22.9609868,16.9513333 23.1279868,17.11 C23.2749868,17.2496667 23.2889868,17.3893333 23.1746535,17.5786667 C23.1329868,17.648 23.0989868,17.713 23.0989868,17.7233333 C23.0989868,17.7423333 23.1306535,17.7513333 23.2833202,17.776 C23.4829868,17.808 23.5973202,17.9563333 23.5973202,18.183 C23.5973202,18.251 23.5889868,18.3063333 23.5786535,18.3063333 C23.5686535,18.3063333 23.4929868,18.2786667 23.4106535,18.2446667 C23.1779868,18.1486667 23.0456535,18.124 22.7736535,18.1256667 C22.5666535,18.127 22.4953202,18.1366667 22.3509868,18.1836667 C22.1299868,18.256 21.8936535,18.3953333 21.7009868,18.567 C21.4886535,18.7563333 21.3549868,18.816 21.1483202,18.8143333 C20.9563202,18.8123333 20.8249868,18.7566667 20.7556535,18.647 C20.7186535,18.5883333 20.7133202,18.5526667 20.7223202,18.42 C20.7283202,18.3336667 20.7269868,18.263 20.7199868,18.263 C20.7126535,18.263 20.6379868,18.3103333 20.5536535,18.3686667 C20.3323202,18.5206667 20.1913202,18.596 19.9379868,18.6963333 C19.1653202,19.002 18.0503202,19.1343333 17.1966535,19.0213333 L17.1966535,19.0213333 Z M17.5499868,17.5363333 C16.2639868,17.41289 15.0335202,16.7430667 14.2853535,15.6811 C13.4730202,14.5732667 13.2170202,13.1105333 13.4649868,11.7731 C13.5967702,11.1642 13.8626202,10.5549 14.3164535,10.1213 C13.9547868,10.8880667 13.8325868,11.7669333 14.0254568,12.5976333 C14.3250902,14.2560667 15.7266568,15.6599667 17.4034568,15.9028333 C18.0667902,16.0948667 18.7530235,15.892048 19.3866568,15.6863867 C20.7844902,15.1937533 21.8492902,13.8669533 21.9792235,12.3837533 C22.0904335,11.5811533 21.9672158,10.74662 21.6056568,10.0198867 C21.8117402,10.12886 22.0718902,10.55612 22.2252902,10.8434533 C22.7587235,11.8768867 22.7830902,13.1152867 22.4690435,14.21812 C22.0430435,15.6213533 20.9702102,16.85072 19.5520102,17.29752 C18.9084102,17.50779 18.2239435,17.5719033 17.5500768,17.53645 L17.5499868,17.5363333 Z M11.0726535,15.694 L11.0726302,15.6940007 C11.1315835,15.7013807 11.1815502,15.735635 11.2347902,15.7591207 C11.3883268,15.8238807 11.5491502,15.87697 11.7151235,15.8972307 C11.9420902,15.9158573 12.1728068,15.8919573 12.3918902,15.8301773 C12.4934335,15.803724 12.5891635,15.7572833 12.6915435,15.734924 C12.7650708,15.7204107 12.8379702,15.792804 12.7977402,15.865284 C12.7565135,15.9765673 12.6283102,16.0086673 12.5277102,16.0440473 C12.3467768,16.1092673 12.1553768,16.1439507 11.9629102,16.1433807 C11.9316128,16.14427 11.8190835,16.1432033 11.9028602,16.1434033 C11.6597935,16.1492967 11.4135435,16.1139667 11.1871602,16.02322 C11.0926968,15.98124 10.9879935,15.9383367 10.9272268,15.85057 C10.8954502,15.7637333 10.9883735,15.6808077 11.0726535,15.694 Z M11.1663202,15.348 L11.1663435,15.348004 C11.2220235,15.3565507 11.2665502,15.3938377 11.3160402,15.4177373 C11.4477402,15.4798407 11.5864835,15.5334203 11.7317068,15.5521107 C11.9647735,15.572234 12.2026768,15.5343407 12.4188402,15.4449573 C12.4783535,15.426594 12.5338202,15.3856773 12.5981135,15.388854 C12.6685345,15.393224 12.6913105,15.4745473 12.6614368,15.5304407 C12.6229435,15.6321873 12.5097402,15.6670507 12.4173002,15.7030073 C12.2660735,15.765228 12.1033635,15.7975773 11.9398002,15.7973773 C11.9127162,15.7982667 11.8145735,15.7972 11.8876302,15.7974 C11.6952635,15.80313 11.5008168,15.77318 11.3217968,15.70156 C11.2188335,15.65709 11.1087635,15.6065333 11.0432635,15.5115867 C11.0077302,15.4333567 11.0811268,15.3353143 11.1663202,15.348 Z M11.2813202,15.0163333 L11.2813465,15.0163267 C11.3363665,15.02758 11.3765932,15.070794 11.4253932,15.0956533 C11.5598798,15.1659267 11.7059698,15.2311283 11.8609932,15.2258933 C12.0403932,15.2267267 12.2182565,15.1815333 12.3778932,15.1002867 C12.4252898,15.0821103 12.4770598,15.037296 12.5291865,15.0664333 C12.5789645,15.0912 12.5705942,15.1546467 12.5572202,15.1987667 C12.5292635,15.2934833 12.4318435,15.3352567 12.3488802,15.3713367 C12.2246068,15.43114 12.0881535,15.46494 11.9500135,15.4655033 C12.0105002,15.46713 11.8121402,15.4654367 11.8968568,15.4657367 C11.6787568,15.4729867 11.4536302,15.4176533 11.2759902,15.2877433 C11.2331068,15.2523333 11.1812558,15.2135 11.1703602,15.15572 C11.1580602,15.08996 11.2082935,15.0075683 11.2813202,15.0163333 Z M10.0563202,10.1206647 L10.0563018,10.1206647 L10.0563062,10.1206647 L10.0870065,10.12775 C10.3012865,10.2861833 10.3481265,10.59619 10.3011198,10.8440833 C10.4835132,11.0508833 10.6248698,11.3009533 10.6640198,11.57695 C10.7173532,11.7715167 10.9615732,11.81737 11.1093198,11.9275167 C11.2626432,11.99893 11.3825965,12.11871 11.4653865,12.25943 C11.5955352,12.18493 11.4430625,11.9500167 11.4329485,11.8222967 C11.3866585,11.58923 11.2017618,11.4240233 11.1293118,11.20223 C11.0057518,10.9460433 11.3472918,10.9991 11.4346852,11.14635 C11.5794852,11.33515 11.7376452,11.5154533 11.9076185,11.6829833 C12.1135518,11.8561167 12.3889085,11.9961667 12.4785852,12.2667833 C12.4903348,13.1499833 12.4986032,14.03365 12.5113482,14.9169833 C12.4785482,15.0740167 12.1858348,15.0974367 12.0281482,15.1351033 C11.7620815,15.1797433 11.5109048,15.0629233 11.2796148,14.9468667 C11.2885792,14.4346 11.2933175,13.9220333 11.2780482,13.4098333 C11.2586082,13.2218667 11.2913615,13.0152 11.1991115,12.8433667 C10.9410448,12.4868667 10.5151782,12.2711667 10.3146782,11.8677667 C10.1509448,11.4549 10.0810415,11.0107 10.0247782,10.5721 C10.0306502,10.4297067 9.94773682,10.2293533 10.0563202,10.1206647 Z M10.3866535,10.1703333 L10.3866868,10.1703333 C10.4472368,10.17323 10.4850235,10.23048 10.5106768,10.2786633 C10.5981502,10.46623 10.6014782,10.6794633 10.5968668,10.88273 C10.7114702,10.9579333 10.7813368,11.0821767 10.8482235,11.19815 C10.9085702,11.3194467 10.9738805,11.4454167 10.9849468,11.58255 C11.1177135,11.6124333 11.2315635,11.6998933 11.3227135,11.79786 C11.3892335,11.8621033 11.4008385,11.9558133 11.4234035,12.04069 C11.4449068,12.1070933 11.4219455,12.0720573 11.3915168,12.0395233 C11.2469168,11.9101433 11.0643568,11.8351567 10.9019835,11.73177 C10.8327735,11.68164 10.7260135,11.6480567 10.7250168,11.5466 C10.6840402,11.2767 10.5480668,11.0308167 10.3724835,10.8252667 C10.3988002,10.6764633 10.3855635,10.5212367 10.3369535,10.3783 C10.2912502,10.3121267 10.2878902,10.1862823 10.3866535,10.1703333 Z M10.6629868,10.25133 L10.6629902,10.25133 C10.7025968,10.2533433 10.7346268,10.282558 10.7614568,10.3089833 C10.8680102,10.42897 10.9194092,10.5934767 10.9149868,10.7526833 C10.8934402,10.8967333 10.9477435,11.04583 11.0463468,11.1510833 C11.0682402,11.25445 11.1176402,11.3495867 11.1693602,11.4408267 C11.2169468,11.5285333 11.2877482,11.6028833 11.3195002,11.6989633 C11.2393735,11.62792 11.1496568,11.56368 11.0471335,11.52972 C11.0298335,11.4259433 10.9870602,11.3285633 10.9419468,11.2342167 C10.8699735,11.09302 10.7909302,10.9480267 10.6645602,10.8480167 C10.6672468,10.70099 10.6620872,10.5524033 10.6291268,10.40855 C10.6073368,10.3566233 10.5941802,10.271758 10.6629868,10.25133 Z M10.9773202,10.2963333 L10.9773185,10.2963423 C10.9892855,10.2946963 11.0005978,10.300451 11.0100535,10.3071797 C11.0566902,10.344033 11.0812258,10.4006897 11.1028368,10.454523 C11.1585935,10.6052297 11.1828998,10.7656463 11.1961935,10.9251563 C11.2072868,10.954185 11.1793015,10.944559 11.1602635,10.9479067 C11.1079268,10.9530467 11.0596445,10.9905 11.0473802,11.0425933 C11.0048772,10.9719567 10.9750368,10.89049 10.9779168,10.8070967 C10.9909902,10.6896633 10.9744668,10.5692933 10.9307102,10.4595633 C10.9250322,10.4279567 10.8893652,10.396682 10.8971068,10.3675767 C10.9171402,10.33854 10.9399068,10.3029467 10.9773202,10.2963333 Z M24.9379868,15.694 C25.0222668,15.6808077 25.1151902,15.7637333 25.0834135,15.85057 C25.0226468,15.9383367 24.9179435,15.98124 24.8234802,16.02322 C24.5970968,16.1139667 24.3508468,16.1492967 24.1077802,16.1434033 C24.1915568,16.1432033 24.0790275,16.14427 24.0477302,16.1433807 C23.8552635,16.1439507 23.6638635,16.1092673 23.4829302,16.0440473 C23.3823302,16.0086673 23.2541268,15.9765673 23.2129002,15.865284 C23.1726702,15.792804 23.2455695,15.7204107 23.3190968,15.734924 C23.4214768,15.7572833 23.5172068,15.803724 23.6187502,15.8301773 C23.8378335,15.8919573 24.0685502,15.9158573 24.2955168,15.8972307 C24.4614902,15.87697 24.6223135,15.8238807 24.7758502,15.7591207 C24.8290902,15.735635 24.8790568,15.7013807 24.9380102,15.6940007 L24.9379868,15.694 Z M24.8443202,15.348 C24.9295135,15.3353143 25.0029102,15.4333567 24.9673768,15.5115867 C24.9018768,15.6065333 24.7918068,15.65709 24.6888435,15.70156 C24.5098235,15.77318 24.3153768,15.80313 24.1230102,15.7974 C24.1960668,15.7972 24.0979242,15.7982667 24.0708402,15.7973773 C23.9072768,15.7975773 23.7445668,15.765228 23.5933402,15.7030073 C23.5009002,15.6670507 23.3876968,15.6321873 23.3492035,15.5304407 C23.3193298,15.4745473 23.3421058,15.393224 23.4125268,15.388854 C23.4768202,15.3856773 23.5322868,15.426594 23.5918002,15.4449573 C23.8079635,15.5343407 24.0458668,15.572234 24.2789335,15.5521107 C24.4241568,15.5334203 24.5629002,15.4798407 24.6946002,15.4177373 C24.7440902,15.3938377 24.7886168,15.3565507 24.8442968,15.348004 L24.8443202,15.348 Z M24.7293202,15.0163333 C24.8023468,15.0075683 24.8525802,15.08996 24.8402802,15.15572 C24.8293845,15.2135 24.7775335,15.2523333 24.7346502,15.2877433 C24.5570102,15.4176533 24.3318835,15.4729867 24.1137835,15.4657367 C24.1985002,15.4654367 24.0001402,15.46713 24.0606268,15.4655033 C23.9224868,15.46494 23.7860335,15.43114 23.6617602,15.3713367 C23.5787968,15.3352567 23.4813768,15.2934833 23.4534202,15.1987667 C23.4400462,15.1546467 23.4316758,15.0912 23.4814538,15.0664333 C23.5335805,15.037296 23.5853505,15.0821103 23.6327472,15.1002867 C23.7923838,15.1815333 23.9702472,15.2267267 24.1496472,15.2258933 C24.3046705,15.2311283 24.4507605,15.1659267 24.5852472,15.0956533 C24.6340472,15.070794 24.6742738,15.02758 24.7292938,15.0163267 L24.7293202,15.0163333 Z M25.9543202,10.1206647 C26.0629035,10.2293533 25.9799902,10.4297067 25.9858622,10.5721 C25.9295988,11.0107 25.8596955,11.4549 25.6959622,11.8677667 C25.4954622,12.2711667 25.0695955,12.4868667 24.8115288,12.8433667 C24.7192788,13.0152 24.7520322,13.2218667 24.7325922,13.4098333 C24.7173228,13.9220333 24.7220612,14.4346 24.7310255,14.9468667 C24.4997355,15.0629233 24.2485588,15.1797433 23.9824922,15.1351033 C23.8248055,15.0974367 23.5320922,15.0740167 23.4992922,14.9169833 C23.5120372,14.03365 23.5203055,13.1499833 23.5320552,12.2667833 C23.6217318,11.9961667 23.8970885,11.8561167 24.1030218,11.6829833 C24.2729952,11.5154533 24.4311552,11.33515 24.5759552,11.14635 C24.6633485,10.9991 25.0048885,10.9460433 24.8813285,11.20223 C24.8088785,11.4240233 24.6239818,11.58923 24.5776918,11.8222967 C24.5675778,11.9500167 24.4151052,12.18493 24.5452538,12.25943 C24.6280438,12.11871 24.7479972,11.99893 24.9013205,11.9275167 C25.0490672,11.81737 25.2932872,11.7715167 25.3466205,11.57695 C25.3857705,11.3009533 25.5271272,11.0508833 25.7095205,10.8440833 C25.6625138,10.59619 25.7093538,10.2861833 25.9236338,10.12775 L25.9543342,10.1206647 L25.9543385,10.1206647 L25.9543202,10.1206647 Z M25.6239868,10.1703333 C25.7227502,10.1862823 25.7193902,10.3121267 25.6736868,10.3783 C25.6250768,10.5212367 25.6118402,10.6764633 25.6381568,10.8252667 C25.4625735,11.0308167 25.3266002,11.2767 25.2856235,11.5466 C25.2846268,11.6480567 25.1778668,11.68164 25.1086568,11.73177 C24.9462835,11.8351567 24.7637235,11.9101433 24.6191235,12.0395233 C24.5886948,12.0720573 24.5657335,12.1070933 24.5872368,12.04069 C24.6098018,11.9558133 24.6214068,11.8621033 24.6879268,11.79786 C24.7790768,11.6998933 24.8929268,11.6124333 25.0256935,11.58255 C25.0367598,11.4454167 25.1020702,11.3194467 25.1624168,11.19815 C25.2293035,11.0821767 25.2991702,10.9579333 25.4137735,10.88273 C25.4091622,10.6794633 25.4124902,10.46623 25.4999635,10.2786633 C25.5256168,10.23048 25.5634035,10.17323 25.6239535,10.1703333 L25.6239868,10.1703333 Z M25.3476535,10.25133 C25.4164602,10.271758 25.4033035,10.3566233 25.3815135,10.40855 C25.3485532,10.5524033 25.3433935,10.70099 25.3460802,10.8480167 C25.2197102,10.9480267 25.1406668,11.09302 25.0686935,11.2342167 C25.0235802,11.3285633 24.9808068,11.4259433 24.9635068,11.52972 C24.8609835,11.56368 24.7712668,11.62792 24.6911402,11.6989633 C24.7228922,11.6028833 24.7936935,11.5285333 24.8412802,11.4408267 C24.8930002,11.3495867 24.9424002,11.25445 24.9642935,11.1510833 C25.0628968,11.04583 25.1172002,10.8967333 25.0956535,10.7526833 C25.0912312,10.5934767 25.1426302,10.42897 25.2491835,10.3089833 C25.2760135,10.282558 25.3080435,10.2533433 25.3476502,10.25133 L25.3476535,10.25133 Z M25.0333202,10.2963333 C25.0707335,10.3029467 25.0935002,10.33854 25.1135335,10.3675767 C25.1212752,10.396682 25.0856082,10.4279567 25.0799302,10.4595633 C25.0361735,10.5692933 25.0196502,10.6896633 25.0327235,10.8070967 C25.0356035,10.89049 25.0057632,10.9719567 24.9632602,11.0425933 C24.9509958,10.9905 24.9027135,10.9530467 24.8503768,10.9479067 C24.8313388,10.944559 24.8033535,10.954185 24.8144468,10.9251563 C24.8277405,10.7656463 24.8520468,10.6052297 24.9078035,10.454523 C24.9294145,10.4006897 24.9539502,10.344033 25.0005868,10.3071797 C25.0100425,10.300451 25.0213548,10.2946963 25.0333218,10.2963423 L25.0333202,10.2963333 Z M18.1687308,5.19241442 L18.1687654,5.20556276 L19.0486535,5.659 L18.4883202,5.84066667 L18.8986535,6.38933333 L18.1709424,6.03385606 L18.1729868,6.81166667 L17.9583202,6.81066667 L17.9583202,5.18479478 C17.9004117,5.16650314 17.8639868,5.13525271 17.8639868,5.10066667 C17.8639868,5.046 17.9549868,5 18.0779868,5 C18.2009868,5 18.2913202,5.046 18.2913202,5.10066667 C18.2913202,5.14068253 18.2429177,5.17623323 18.1687308,5.19241442 Z M17.9033202,8.56729766 L17.9033202,7.818 L18.0566535,7.93366667 L18.2276535,7.79833333 L18.2276535,8.56710629 C18.2354555,8.55717574 18.2425186,8.54497102 18.2483202,8.531 C18.2836535,8.446 18.4143202,8.32966667 18.5539868,8.259 C18.8556535,8.106 19.3776535,8.10133333 19.7969868,8.24766667 C19.9736535,8.30966667 20.1696535,8.42033333 20.3563202,8.56433333 C20.5436535,8.70833333 20.9266535,8.901 21.1529868,8.96533333 C21.3819868,9.03033333 21.7856535,9.04666667 21.9926535,8.99966667 C22.0779868,8.98033333 22.1579868,8.96433333 22.1706535,8.96433333 C22.2469868,8.96433333 22.1169868,9.21866667 21.9643202,9.36766667 C21.6853202,9.64033333 21.3223202,9.639 20.8116535,9.36366667 C20.4933202,9.19233333 20.1126535,9.09866667 20.1126535,9.192 C20.1126535,9.21133333 20.1326535,9.22433333 20.1623202,9.22433333 C20.2729868,9.22433333 20.4866535,9.29866667 20.7846535,9.44 C21.1069868,9.59333333 21.2879868,9.658 21.3953202,9.658 C21.4733202,9.658 21.4756535,9.70633333 21.4029868,9.813 C21.3259868,9.92666667 21.1953202,9.983 21.0106535,9.98266667 C20.8343202,9.982 20.7363202,9.94333333 20.5786535,9.81233333 C20.3149868,9.593 19.6579868,9.34833333 19.6833202,9.479 C19.6883202,9.505 19.7199868,9.521 19.7876535,9.53133333 C20.0163202,9.56633333 20.2846535,9.69433333 20.5593202,9.9 C20.6439868,9.96366667 20.7319868,10.0263333 20.7543202,10.0396667 C20.7919868,10.0616667 20.7926535,10.0683333 20.7629868,10.124 C20.7136535,10.216 20.5893202,10.2873333 20.4546535,10.3013333 C20.2803202,10.3193333 20.1286535,10.2673333 19.9716535,10.136 C19.6403202,9.85866667 19.3279868,9.658 19.2279868,9.658 C19.1463202,9.658 19.1829868,9.703 19.3269868,9.77933333 C19.5163202,9.87966667 19.7109868,10.0153333 19.8543202,10.147 C19.9219868,10.2096667 19.9983202,10.2716667 20.0236535,10.2853333 C20.0836535,10.3173333 20.0813202,10.3643333 20.0153202,10.4506667 C19.9479868,10.5386667 19.8366535,10.5773333 19.6923202,10.562 C19.4043202,10.5316667 19.1796535,10.3926667 18.8266535,10.0263333 C18.6886535,9.88333333 18.5656535,9.76633333 18.5529868,9.76633333 C18.5059868,9.76633333 18.5336535,9.83 18.6246535,9.932 C18.7373202,10.058 18.7589868,10.129 18.7163202,10.2313333 C18.6786535,10.322 18.6159868,10.343 18.4873202,10.3083333 C18.3556535,10.2726667 18.3349868,10.305 18.4213202,10.4123333 C18.5499868,10.5726667 18.5309868,10.769 18.3733202,10.904 C18.3243202,10.9456667 18.2729868,10.98 18.2589868,10.98 C18.2453202,10.98 18.2106535,10.9443333 18.1816535,10.9006667 C18.0803202,10.7466667 17.9913202,10.7476667 17.8926535,10.9033333 C17.8583202,10.9576667 17.8293202,11.0016667 17.8283202,11.0013371 C17.8269868,11.001 17.7806535,10.9676667 17.7256535,10.927 C17.6136535,10.845 17.5766535,10.7666667 17.5766535,10.6116667 C17.5766535,10.5323333 17.5913202,10.4893333 17.6436535,10.4173333 C17.7206535,10.3106667 17.7066535,10.277 17.5976535,10.3083333 C17.4223202,10.3586667 17.3386535,10.3126667 17.3326535,10.1633333 C17.3299868,10.0903333 17.3453202,10.0593333 17.4436535,9.94133333 C17.5223202,9.84666667 17.5509868,9.797 17.5353202,9.78133333 C17.5199868,9.766 17.4269868,9.84666667 17.2359868,10.041 C17.0836535,10.196 16.9123202,10.3543333 16.8553202,10.393 C16.5273202,10.6143333 16.2139868,10.6486667 16.0709868,10.4783333 C15.9976535,10.3913333 16.0016535,10.3423333 16.0863202,10.2896667 C16.1253202,10.2656667 16.1909868,10.2103333 16.2326535,10.1666667 C16.3309868,10.0643333 16.6239868,9.853 16.7693202,9.77966667 C16.8873202,9.72 16.9153202,9.67966667 16.8386535,9.67966667 C16.7393202,9.67966667 16.4206535,9.887 16.1789868,10.109 C16.1079868,10.1746667 16.0056535,10.2476667 15.9519868,10.2713333 C15.8313202,10.3246667 15.5943202,10.3443333 15.4889868,10.3096667 C15.4146535,10.285 15.2789868,10.157 15.2789868,10.1113333 C15.2789868,10.0993333 15.3099868,10.0726667 15.3476535,10.0523333 C15.3853202,10.0323333 15.4529868,9.98333333 15.4976535,9.94433333 C15.6909868,9.77466667 16.0573202,9.6 16.3479868,9.539 C16.4403202,9.51966667 16.4063202,9.473 16.3033202,9.47766667 C16.1036535,9.48633333 15.7073202,9.672 15.4706535,9.86733333 C15.1933202,10.096 14.7749868,10.0743333 14.6403202,9.82433333 C14.6169868,9.78133333 14.6033202,9.741 14.6099868,9.73466667 C14.6163202,9.72833333 14.6986535,9.70366667 14.7929868,9.67966667 C14.8949868,9.654 15.0969868,9.57033333 15.2899868,9.474 C15.5936535,9.32266667 15.6836535,9.29033333 15.8926535,9.25666667 C15.9866535,9.24166667 15.9916535,9.19566667 15.9003202,9.185 C15.7826535,9.171 15.6023202,9.23 15.2836535,9.38666667 C14.8743202,9.588 14.7596535,9.62266667 14.5439868,9.61 C14.3473202,9.598 14.2363202,9.54766667 14.0766535,9.39666667 C13.9723202,9.29766667 13.8243202,9.04633333 13.8533202,9.01733333 C13.8603202,9.01033333 13.9083202,9.01733333 13.9599868,9.03233333 C14.0173202,9.04933333 14.1816535,9.06066667 14.3796535,9.061 C14.6566535,9.06166667 14.7303202,9.05433333 14.8779868,9.01166667 C15.1249868,8.94033333 15.4533202,8.77333333 15.6779868,8.60566667 C16.1076535,8.28433333 16.4579868,8.15533333 16.9046535,8.15333333 C17.3169868,8.15166667 17.5793202,8.247 17.8116535,8.48266667 C17.8455596,8.51700377 17.8772984,8.54613934 17.9033202,8.56729766 L17.9033202,8.56729766 Z M17.8609868,15.8966667 C17.4112202,15.8538467 17.0054202,15.526 16.8666868,15.0966667 C16.8741612,15.02271 16.9662435,15.1380433 17.0097435,15.1458033 C17.0914202,15.1911567 17.1797368,15.2284767 17.2737802,15.2342667 C17.3923502,15.2852333 17.4656635,15.4020867 17.5788335,15.46303 C17.6313802,15.5039567 17.8173135,15.5843967 17.7827735,15.454223 C17.7392068,15.386223 17.7092502,15.300083 17.7467535,15.2221797 C17.8098135,15.0838363 17.9068135,14.9633863 18.0044402,14.8479797 C18.0761968,14.823981 18.1242368,14.9655197 18.1755668,15.0132063 C18.2465935,15.122493 18.3322468,15.2558497 18.2904668,15.3916063 C18.2498068,15.4418963 18.2230802,15.5931797 18.3318302,15.5423363 C18.4658735,15.483363 18.5756902,15.3842763 18.6868635,15.291753 C18.7841402,15.2238063 18.9086602,15.2190063 19.0106135,15.159423 C19.0578702,15.1474493 19.1563002,15.0529363 19.1768168,15.1053397 C19.1209535,15.2549263 19.0274102,15.3888997 18.9274102,15.512373 C18.7654502,15.697383 18.5463435,15.8365297 18.3012102,15.875773 C18.1563468,15.9022937 18.0076768,15.9078903 17.8609768,15.8966887 L17.8609868,15.8966667 Z M18.3896535,15.3713333 C18.3995598,15.28107 18.3789985,15.1888833 18.3328868,15.1068367 C18.2621202,14.9626433 18.1621768,14.8346267 18.0647002,14.7081367 C17.9727902,14.6543033 17.9217968,14.8300767 17.8606835,14.8805167 C17.7654635,15.02308 17.6459035,15.1690567 17.6401168,15.3483833 C17.5865468,15.4317567 17.4866368,15.2803467 17.4435768,15.2305267 C17.3613335,15.1141567 17.2990568,14.9765067 17.3092535,14.83096 C17.2995112,14.59644 17.3444902,14.3629267 17.4299335,14.1449267 C17.4944268,13.95884 17.5991168,13.77806 17.5884802,13.57476 C17.5959522,13.4217433 17.5648985,13.25282 17.4409402,13.1499267 C17.3230068,13.0574 17.5173268,13.03768 17.5790468,13.08566 C17.6846668,13.0927457 17.7417968,13.2672633 17.8382835,13.22406 C17.8767235,13.1329067 17.8843635,13.0241667 17.9636002,12.9530767 C18.0413935,12.8465467 18.1227002,12.9982833 18.1493168,13.0693433 C18.2042068,13.1317533 18.1462135,13.28623 18.2353735,13.2902833 C18.3422468,13.2153733 18.4184502,13.0895267 18.5551002,13.0621267 C18.6105102,13.030515 18.7052135,13.0579053 18.6321468,13.12162 C18.5310168,13.21643 18.4446068,13.33496 18.4261935,13.4759867 C18.3952642,13.6529 18.4394975,13.83232 18.5166068,13.9916533 C18.6648335,14.3046567 18.7794535,14.6581867 18.7044768,15.0064533 C18.6697035,15.1612533 18.5645368,15.2946333 18.4367668,15.3844867 C18.4206102,15.3942447 18.3951035,15.3935507 18.3896535,15.371329 L18.3896535,15.3713333 Z M18.2296535,13.0183333 C18.1811135,12.93087 18.1221935,12.8446567 18.0405535,12.7851833 C17.9611802,12.7850167 17.9121935,12.8851333 17.8582868,12.9375867 C17.8204868,13.00792 17.7745602,13.12554 17.6814435,13.0335733 C17.5333035,12.9471467 17.5070902,12.7577467 17.5080435,12.60164 C17.4987265,12.3486133 17.6006102,12.1125067 17.6911202,11.8820733 C17.7487035,11.7378167 17.7345168,11.5754367 17.6993888,11.4276067 C17.6551688,11.25788 17.5189322,11.14017 17.4140522,11.0077733 C17.4211855,10.9565567 17.5552188,10.9845447 17.6056622,10.9942807 C17.7176222,11.0226593 17.7845422,11.1217773 17.8680055,11.1918107 C17.9273988,11.1738317 17.9031555,11.0538273 17.9308022,10.9973773 C17.9328455,10.917974 18.0385688,10.813284 18.0821588,10.926974 C18.1474522,10.9992207 18.0800722,11.1424507 18.1644455,11.187454 C18.2448222,11.157693 18.2844755,11.069844 18.3599988,11.0301207 C18.4343155,10.9794407 18.5392522,10.9737873 18.6192688,11.0135717 C18.6474302,11.087325 18.5312622,11.1487317 18.4976155,11.2128083 C18.3625488,11.3796617 18.3150955,11.6098083 18.3729455,11.8165417 C18.4188088,11.978705 18.5000555,12.1300683 18.5280988,12.297675 C18.5618522,12.4860917 18.5607332,12.683975 18.5119645,12.8696417 C18.4828128,12.9823617 18.3852278,13.0576483 18.2844378,13.1044683 C18.2595705,13.0813257 18.2464545,13.0473283 18.2296512,13.0183683 L18.2296535,13.0183333 Z M17.1683202,6.839 C17.5826535,7.178 18.5449868,7.12366667 18.9499868,6.82266667 C18.9243202,7.296 19.1296535,7.581 19.2813202,7.91733333 L18.8633202,7.61733333 L18.6166535,7.89066667 L18.3326535,7.55833333 L18.0593202,7.83166667 L17.7749868,7.569 L17.4963202,7.88 L17.2389868,7.57433333 L16.8689868,7.91733333 C17.0233202,7.581 17.1343202,7.276 17.1683202,6.839 L17.1683202,6.839 Z M17.9036535,6.616 L17.9036535,6.85066667 L18.2273202,6.85166667 C18.2273202,6.77333333 18.2266535,6.695 18.2266535,6.617 C18.3689868,6.61933333 18.5189868,6.622 18.6546535,6.64833333 C18.7573202,6.66833333 18.8506535,6.70133333 18.9269868,6.757 C18.5636535,7.15466667 17.2089868,7.036 17.1969868,6.75166667 C17.2709868,6.69933333 17.3596535,6.66766667 17.4573202,6.64833333 C17.5983202,6.62066667 17.7549868,6.61866667 17.9036535,6.616 Z" id="Shape" fill="#CF1126" fill-rule="nonzero"></path>
        <path d="M4,1 C2.34314575,1 1,2.34314575 1,4 L1,20 C1,21.6568542 2.34314575,23 4,23 L32,23 C33.6568542,23 35,21.6568542 35,20 L35,4 C35,2.34314575 33.6568542,1 32,1 L4,1 Z M4,0 L32,0 C34.209139,0 36,1.790861 36,4 L36,20 C36,22.209139 34.209139,24 32,24 L4,24 C1.790861,24 0,22.209139 0,20 L0,4 C0,1.790861 1.790861,0 4,0 Z" id="Mask" fill="#031619" fill-rule="nonzero" opacity="0.2"></path>
    </g>
</svg>