<?xml version="1.0" encoding="UTF-8"?>
<svg width="36px" height="24px" viewBox="0 0 36 24" version="1.1" xmlns="http://www.w3.org/2000/svg" xmlns:xlink="http://www.w3.org/1999/xlink">
    <!-- Generator: Sketch 55.2 (78181) - https://sketchapp.com -->
    <title>Flag / LR</title>
    <desc>Created with Sketch.</desc>
    <g id="Flag-/-LR" stroke="none" stroke-width="1" fill="none" fill-rule="evenodd">
        <path d="M4,0 L32,0 C34.209139,0 36,1.790861 36,4 L36,20 C36,22.209139 34.209139,24 32,24 L4,24 C1.790861,24 0,22.209139 0,20 L0,4 C0,1.790861 1.790861,0 4,0 Z" id="Mask" fill="#FFFFFF"></path>
        <path d="M35.8739825,21 C35.4299397,22.7252272 33.8638394,24 32,24 L4,24 C2.13616057,24 0.570060278,22.7252272 0.126017485,21 L35.8739825,21 L35.8739825,21 Z" id="Path" fill="#D00029"></path>
        <path d="M4,0 L32,0 C33.8638394,0 35.4299397,1.27477279 35.8739825,3 L0.126017485,3 C0.570060278,1.27477279 2.13616057,0 4,0 Z" id="Path" fill="#D00029"></path>
        <polygon id="Path" fill="#D00029" fill-rule="nonzero" points="0 5 36 5 36 7 0 7"></polygon>
        <polygon id="Path" fill="#D00029" fill-rule="nonzero" points="0 9 36 9 36 11 0 11"></polygon>
        <polygon id="Path" fill="#D00029" fill-rule="nonzero" points="0 13 36 13 36 15 0 15"></polygon>
        <polygon id="Path" fill="#D00029" fill-rule="nonzero" points="0 17 36 17 36 19 0 19"></polygon>
        <path d="M4,0 L11,0 L11,11 L0,11 L0,4 C0,1.790861 1.790861,0 4,0 Z" id="Rectangle" fill="#00276C"></path>
        <polygon id="Star" fill="#FFFFFF" points="5.57849496 7.08720889 3.55227364 8.536068 4.30408372 6.16129492 2.3 4.68196602 4.7908655 4.66313465 5.57849496 2.3 6.36612443 4.66313465 8.85698993 4.68196602 6.85290621 6.16129492 7.60471629 8.536068"></polygon>
        <path d="M4,1 C2.34314575,1 1,2.34314575 1,4 L1,20 C1,21.6568542 2.34314575,23 4,23 L32,23 C33.6568542,23 35,21.6568542 35,20 L35,4 C35,2.34314575 33.6568542,1 32,1 L4,1 Z M4,0 L32,0 C34.209139,0 36,1.790861 36,4 L36,20 C36,22.209139 34.209139,24 32,24 L4,24 C1.790861,24 0,22.209139 0,20 L0,4 C0,1.790861 1.790861,0 4,0 Z" id="Mask" fill="#031619" fill-rule="nonzero" opacity="0.2"></path>
    </g>
</svg>