<?xml version="1.0" encoding="UTF-8"?>
<svg width="36px" height="24px" viewBox="0 0 36 24" version="1.1" xmlns="http://www.w3.org/2000/svg" xmlns:xlink="http://www.w3.org/1999/xlink">
    <!-- Generator: Sketch 55.2 (78181) - https://sketchapp.com -->
    <title>Flag / CN</title>
    <desc>Created with Sketch.</desc>
    <g id="Flag-/-CN" stroke="none" stroke-width="1" fill="none" fill-rule="evenodd">
        <g id="Rectangle-13-+-Rectangle-13-Copy-+-Rectangle-13-Copy-2-Mask">
            <path d="M4,0 L32,0 C34.209139,0 36,1.790861 36,4 L36,20 C36,22.209139 34.209139,24 32,24 L4,24 C1.790861,24 0,22.209139 0,20 L0,4 C0,1.790861 1.790861,0 4,0 Z" id="Mask" fill="#DE2910"></path>
            <polygon id="s" fill="#FFDE00" fill-rule="nonzero" points="6 2.4 8.116026 8.9124612 2.5761948 4.8875388 9.4238052 4.8875388 3.883974 8.9124612"></polygon>
            <polygon id="s" fill="#FFDE00" fill-rule="nonzero" transform="translate(12.044841, 2.294548) rotate(23.036243) translate(-12.044841, -2.294548) " points="12.0448405 1.20913768 12.7501825 3.37995808 10.9035721 2.03831728 13.1861089 2.03831728 11.3394985 3.37995808"></polygon>
            <polygon id="s" fill="#FFDE00" fill-rule="nonzero" transform="translate(14.482248, 4.720212) rotate(45.869898) translate(-14.482248, -4.720212) " points="14.482248 3.63480207 15.18759 5.80562247 13.3409796 4.46398167 15.6235164 4.46398167 13.776906 5.80562247"></polygon>
            <polygon id="s" fill="#FFDE00" fill-rule="nonzero" transform="translate(14.507642, 8.360705) rotate(69.945396) translate(-14.507642, -8.360705) " points="14.5076418 7.27529518 15.2129838 9.44611558 13.3663734 8.10447478 15.6489102 8.10447478 13.8022998 9.44611558"></polygon>
            <polygon id="s" fill="#FFDE00" fill-rule="nonzero" transform="translate(12.040429, 10.692779) rotate(20.659808) translate(-12.040429, -10.692779) " points="12.0404294 9.60736907 12.7457714 11.7781895 10.899161 10.4365487 13.1816978 10.4365487 11.3350874 11.7781895"></polygon>
        </g>
        <path d="M4,1 C2.34314575,1 1,2.34314575 1,4 L1,20 C1,21.6568542 2.34314575,23 4,23 L32,23 C33.6568542,23 35,21.6568542 35,20 L35,4 C35,2.34314575 33.6568542,1 32,1 L4,1 Z M4,0 L32,0 C34.209139,0 36,1.790861 36,4 L36,20 C36,22.209139 34.209139,24 32,24 L4,24 C1.790861,24 0,22.209139 0,20 L0,4 C0,1.790861 1.790861,0 4,0 Z" id="Mask" fill="#031619" fill-rule="nonzero" opacity="0.2"></path>
    </g>
</svg>