<?xml version="1.0" encoding="UTF-8"?>
<svg width="36px" height="24px" viewBox="0 0 36 24" version="1.1" xmlns="http://www.w3.org/2000/svg" xmlns:xlink="http://www.w3.org/1999/xlink">
    <!-- Generator: Sketch 55.2 (78181) - https://sketchapp.com -->
    <title>Flag / IQ</title>
    <desc>Created with Sketch.</desc>
    <g id="Flag-/-IQ" stroke="none" stroke-width="1" fill="none" fill-rule="evenodd">
        <path d="M4,0 L32,0 C34.209139,0 36,1.790861 36,4 L36,20 C36,22.209139 34.209139,24 32,24 L4,24 C1.790861,24 0,22.209139 0,20 L0,4 C0,1.790861 1.790861,0 4,0 Z" id="Mask" fill="#F7F7F7"></path>
        <path d="M0,16 L36,16 L36,20 C36,22.209139 34.209139,24 32,24 L4,24 C1.790861,24 0,22.209139 0,20 L0,16 Z" id="Rectangle" fill="#000000"></path>
        <path d="M4,0 L32,0 C34.209139,0 36,1.790861 36,4 L36,8 L0,8 L0,4 C0,1.790861 1.790861,0 4,0 Z" id="Rectangle" fill="#E00017"></path>
        <path d="M4,1 C2.34314575,1 1,2.34314575 1,4 L1,20 C1,21.6568542 2.34314575,23 4,23 L32,23 C33.6568542,23 35,21.6568542 35,20 L35,4 C35,2.34314575 33.6568542,1 32,1 L4,1 Z M4,0 L32,0 C34.209139,0 36,1.790861 36,4 L36,20 C36,22.209139 34.209139,24 32,24 L4,24 C1.790861,24 0,22.209139 0,20 L0,4 C0,1.790861 1.790861,0 4,0 Z" id="Mask" fill="#031619" fill-rule="nonzero" opacity="0.2"></path>
        <path d="M23.3113472,10.1649386 C23.2458796,10.1303276 23.1721993,10.0748328 23.1476783,10.0412777 C23.1108381,9.98988919 23.1321913,9.98777733 23.2841277,10.0290759 C23.5560879,10.1029908 23.7316066,10.0740115 23.9057174,9.92665082 L24.059179,9.79724095 L24.23986,9.88922403 C24.339352,9.93943929 24.4449448,9.97428492 24.4754494,9.96618947 C24.5537054,9.94554021 24.7159664,9.73740502 24.7106867,9.66536725 C24.7043511,9.57619998 24.7795567,9.59872645 24.8158102,9.69634115 C24.8879653,9.88758148 24.7829591,10.1072145 24.5969984,10.1560219 C24.5063059,10.179487 24.4224183,10.1709222 24.284913,10.1231708 C24.1161991,10.0642735 24.0873371,10.0652121 24.0027455,10.1299757 C23.8129131,10.2754591 23.5486964,10.2889515 23.3112298,10.1651733 L23.3113472,10.1649386 Z M23.9840908,9.5499191 C23.9180366,9.46579682 23.8386073,9.14819707 23.8644189,9.07029304 C23.8869454,9.00271363 23.911349,8.98816528 23.9716543,9.00846257 C24.079359,9.04213495 24.1042319,9.1164019 24.0881584,9.36794747 C24.0756045,9.57291487 24.0452173,9.62676721 23.9842081,9.54980177 L23.9840908,9.5499191 Z M16.0627519,9.32277721 C16.0410467,9.47530017 16.3355334,9.85871944 16.468463,9.9279414 C16.3781225,9.96841865 16.2657248,9.94999857 16.1828931,9.99552081 C15.7196926,10.4587213 14.0279782,12.1080812 13.7190605,12.5022944 C14.6341983,12.5203625 15.648828,12.4898579 16.5067111,12.4506712 C16.5058898,11.8288469 17.0954497,11.7969344 17.4898976,11.5704964 C17.6928704,11.890208 18.2026491,11.865687 18.2663568,12.3468383 L18.26753,14.4171616 L10.4494375,14.4171616 C10.3119322,15.0244376 9.76378808,15.4877555 9,15.2971018 C9.23629327,15.0502492 9.63414356,14.965423 9.77669387,14.6243582 C9.89683504,13.8775823 9.53664619,13.4163763 9.30387268,12.9928317 C9.68916915,12.8526279 9.74759718,12.8175476 10.1392292,12.5543869 C9.86421859,13.3897434 10.8549139,13.297995 11.5885494,13.278871 C11.6120144,12.9952956 11.6002819,12.6605663 11.3813528,12.6190331 C11.6624643,12.5169601 11.7091598,12.4819971 12.1580467,12.1013937 L12.1580467,13.2268958 L17.5714387,13.2151633 C17.5714387,12.8629526 17.6647123,12.2972097 17.3860646,12.2972097 C17.119736,12.2972097 17.3735108,13.0214591 17.1666662,13.0214591 L12.9863637,13.0214591 L12.9836652,12.3028413 C13.1596532,12.1268533 13.1397079,12.1409323 14.350271,10.9304866 C14.4708814,10.8096415 15.3200824,10.0425683 16.0632212,9.32160395 L16.0627519,9.32277721 Z M26.5117483,9.29180331 C26.8035364,9.44901929 27.0346674,9.66724446 27.3919231,9.75781963 C27.3503899,9.90564958 27.2187509,9.96431226 27.1842572,10.120003 L27.1842572,13.2760551 C27.5833981,13.3640492 27.6674031,13.1378459 27.8573528,13.0173527 C27.9092106,13.522673 28.2311514,14.018138 28.2196535,14.4135245 L26.511279,14.4135245 L26.5115136,9.2894568 L26.5117483,9.29180331 Z M24.2342284,10.9826964 L24.8555835,10.4379547 L24.8555835,13.1932234 L25.3030624,13.1925195 L25.2892181,10.1024042 C25.4708377,9.9205499 25.8265682,9.65656785 25.9155008,9.47377494 L25.9155008,14.4084795 L21.9917889,14.4098874 C21.9339475,13.385637 21.9240921,12.3250158 23.1181123,12.5530963 L23.1181123,12.135066 C23.0829147,12.0646708 23.0162739,12.1523129 23.0010216,12.0593912 C23.190502,11.8696761 23.2547963,11.8212207 23.7680948,11.3728032 L23.7774808,13.1913462 L24.2300047,13.1918155 C24.230122,13.1920502 24.2342284,11.0533262 24.2342284,10.982579 L24.2342284,10.9826964 Z M22.7615605,13.1651827 C22.8455655,13.2913074 23.1316047,13.2890783 23.1182296,13.076602 C23.0712995,12.9014353 22.6939811,12.9681934 22.7615605,13.1651827 Z M11.4029407,15.2372658 C11.2706252,15.2372658 11.1633623,15.1300029 11.1633623,14.9976874 C11.1633623,14.865372 11.2706252,14.7581091 11.4029407,14.7581091 C11.5352561,14.7581091 11.642519,14.865372 11.642519,14.9976874 C11.642519,15.1300029 11.5352561,15.2372658 11.4029407,15.2372658 Z M18.7971367,9.29696563 C19.0890422,9.45418161 19.3200558,9.67123352 19.6773115,9.7627473 C19.6358957,9.91057725 19.5041393,9.96923993 19.4698803,10.1249307 L19.4698803,13.2821561 C19.8687865,13.3701501 19.9529088,13.1437121 20.1428585,13.0233363 C20.1944817,13.528774 20.5165398,14.023887 20.5051593,14.4195081 L18.796902,14.4195081 L18.7971367,9.29555772 L18.7971367,9.29696563 Z" id="Shape" fill="#007A3D" fill-rule="nonzero"></path>
    </g>
</svg>