<?xml version="1.0" encoding="UTF-8"?>
<svg width="36px" height="24px" viewBox="0 0 36 24" version="1.1" xmlns="http://www.w3.org/2000/svg" xmlns:xlink="http://www.w3.org/1999/xlink">
    <!-- Generator: Sketch 55.2 (78181) - https://sketchapp.com -->
    <title>Flag / AD</title>
    <desc>Created with Sketch.</desc>
    <g id="Flag-/-AD" stroke="none" stroke-width="1" fill="none" fill-rule="evenodd">
        <path d="M4,0 L32,0 C34.209139,0 36,1.790861 36,4 L36,20 C36,22.209139 34.209139,24 32,24 L4,24 C1.790861,24 0,22.209139 0,20 L0,4 C0,1.790861 1.790861,0 4,0 Z" id="Mask" fill="#FFDF00"></path>
        <path d="M4,0 L12,0 L12,24 L4,24 C1.790861,24 0,22.209139 0,20 L0,4 C0,1.790861 1.790861,0 4,0 Z" id="Rectangle-9" fill="#0A0FAF"></path>
        <path d="M24,0 L32,0 C34.209139,0 36,1.790861 36,4 L36,20 C36,22.209139 34.209139,24 32,24 L24,24 L24,0 Z" id="Rectangle-9-Copy" fill="#E30033"></path>
        <path d="M4,1 C2.34314575,1 1,2.34314575 1,4 L1,20 C1,21.6568542 2.34314575,23 4,23 L32,23 C33.6568542,23 35,21.6568542 35,20 L35,4 C35,2.34314575 33.6568542,1 32,1 L4,1 Z M4,0 L32,0 C34.209139,0 36,1.790861 36,4 L36,20 C36,22.209139 34.209139,24 32,24 L4,24 C1.790861,24 0,22.209139 0,20 L0,4 C0,1.790861 1.790861,0 4,0 Z" id="Mask" fill="#031619" fill-rule="nonzero" opacity="0.2"></path>
        <path d="M15,8 L17,8 L17,7 L19,7 L19,8 L21,8 L21,7 L23,7 L23,9 L22,9 L22,16 L18,17 L14,16 L14,9 L13,9 L13,7 L15,7 L15,8 Z" id="Combined-Shape" fill="#B49262"></path>
        <rect id="Rectangle" fill="#FFDF00" x="15" y="9" width="6" height="6"></rect>
        <rect id="Rectangle-Copy-3" fill="#E30033" x="19" y="12" width="2" height="1"></rect>
        <rect id="Rectangle-Copy-7" fill="#E30033" x="19" y="14" width="2" height="1"></rect>
        <rect id="Rectangle-Copy-4" fill="#E30033" x="19" y="9" width="1" height="2"></rect>
        <rect id="Rectangle-Copy-5" fill="#E30033" x="15" y="9" width="3" height="3"></rect>
        <rect id="Rectangle-Copy-4" fill="#FFDF00" x="16" y="10" width="1" height="1"></rect>
        <rect id="Rectangle-Copy-6" fill="#E30033" x="16" y="13" width="1" height="2"></rect>
    </g>
</svg>