<?xml version="1.0" encoding="UTF-8"?>
<svg width="36px" height="24px" viewBox="0 0 36 24" version="1.1" xmlns="http://www.w3.org/2000/svg" xmlns:xlink="http://www.w3.org/1999/xlink">
    <!-- Generator: Sketch 55.2 (78181) - https://sketchapp.com -->
    <title>Flag / HT</title>
    <desc>Created with Sketch.</desc>
    <g id="Flag-/-HT" stroke="none" stroke-width="1" fill="none" fill-rule="evenodd">
        <path d="M4,0 L32,0 C34.209139,0 36,1.790861 36,4 L36,20 C36,22.209139 34.209139,24 32,24 L4,24 C1.790861,24 0,22.209139 0,20 L0,4 C0,1.790861 1.790861,0 4,0 Z" id="Mask" fill="#041BA6"></path>
        <path d="M0,12 L36,12 L36,20 C36,22.209139 34.209139,24 32,24 L4,24 C1.790861,24 0,22.209139 0,20 L0,12 Z" id="Rectangle" fill="#E5002C"></path>
        <rect id="Rectangle" fill="#FFFFFF" x="15" y="9" width="6" height="6"></rect>
        <path d="M4,1 C2.34314575,1 1,2.34314575 1,4 L1,20 C1,21.6568542 2.34314575,23 4,23 L32,23 C33.6568542,23 35,21.6568542 35,20 L35,4 C35,2.34314575 33.6568542,1 32,1 L4,1 Z M4,0 L32,0 C34.209139,0 36,1.790861 36,4 L36,20 C36,22.209139 34.209139,24 32,24 L4,24 C1.790861,24 0,22.209139 0,20 L0,4 C0,1.790861 1.790861,0 4,0 Z" id="Mask" fill="#031619" fill-rule="nonzero" opacity="0.2"></path>
        <polygon id="Path-13" fill="#041BA6" transform="translate(17.000000, 11.000000) scale(-1, 1) translate(-17.000000, -11.000000) " points="16 12 18 10 18 12"></polygon>
        <polygon id="Path-10" fill="#006D00" points="15 15 15 14 18 13 21 14 21 15"></polygon>
        <polygon id="Path-11" fill="#E0A000" points="16 12 20 12 20 13 18 14 16 13"></polygon>
        <polygon id="Path-12" fill="#006D00" points="18 10 19 10 18 11 17 10"></polygon>
        <polygon id="Path-13" fill="#041BA6" points="18 12 20 10 20 12"></polygon>
    </g>
</svg>