<?xml version="1.0" encoding="UTF-8"?>
<svg width="36px" height="24px" viewBox="0 0 36 24" version="1.1" xmlns="http://www.w3.org/2000/svg" xmlns:xlink="http://www.w3.org/1999/xlink">
    <!-- Generator: Sketch 55.2 (78181) - https://sketchapp.com -->
    <title>Flag / WS</title>
    <desc>Created with Sketch.</desc>
    <g id="Flag-/-WS" stroke="none" stroke-width="1" fill="none" fill-rule="evenodd">
        <path d="M4,0 L32,0 C34.209139,0 36,1.790861 36,4 L36,20 C36,22.209139 34.209139,24 32,24 L4,24 C1.790861,24 0,22.209139 0,20 L0,4 C0,1.790861 1.790861,0 4,0 Z" id="Mask" fill="#E00017"></path>
        <path d="M0,0 L14,0 C16.209139,0 18,1.790861 18,4 L18,12 L0,12 L0,0 Z" id="Path" fill="#002A84" transform="translate(9.000000, 6.000000) scale(-1, 1) translate(-9.000000, -6.000000) "></path>
        <path d="M10.125253,7.46303282 L10.4335959,6.47108677 L10.7419387,7.47382684 L9.92999168,6.85924074 L10.9372001,6.85924074 L10.125253,7.46303282 Z M9.37597052,1 L9.99262928,3.00548014 L8.36876211,1.77630794 L10.3831789,1.77630794 L8.75931176,2.9838921 L9.37597052,1 Z M7.00720841,4.02835468 L7.62386718,6.03383482 L6,4.80466263 L8.01441683,4.80466263 L6.39054965,6.01224678 L7.00720841,4.02835468 Z M11.733481,3.81301267 L12.3501398,5.81849281 L10.7262726,4.58932062 L12.7406894,4.58932062 L11.1168222,5.79690477 L11.733481,3.81301267 Z M9.37597052,8.11985286 L9.99262928,10.125333 L8.36876211,8.89616081 L10.3831789,8.89616081 L8.75931176,10.103745 L9.37597052,8.11985286 Z" id="Shape" fill="#FFFFFF" fill-rule="nonzero"></path>
        <path d="M4,1 C2.34314575,1 1,2.34314575 1,4 L1,20 C1,21.6568542 2.34314575,23 4,23 L32,23 C33.6568542,23 35,21.6568542 35,20 L35,4 C35,2.34314575 33.6568542,1 32,1 L4,1 Z M4,0 L32,0 C34.209139,0 36,1.790861 36,4 L36,20 C36,22.209139 34.209139,24 32,24 L4,24 C1.790861,24 0,22.209139 0,20 L0,4 C0,1.790861 1.790861,0 4,0 Z" id="Mask" fill="#031619" fill-rule="nonzero" opacity="0.2"></path>
    </g>
</svg>