<?xml version="1.0" encoding="UTF-8"?>
<svg width="36px" height="24px" viewBox="0 0 36 24" version="1.1" xmlns="http://www.w3.org/2000/svg" xmlns:xlink="http://www.w3.org/1999/xlink">
    <!-- Generator: Sketch 55.2 (78181) - https://sketchapp.com -->
    <title>Flag / EC</title>
    <desc>Created with Sketch.</desc>
    <g id="Flag-/-EC" stroke="none" stroke-width="1" fill="none" fill-rule="evenodd">
        <path d="M4,0 L32,0 C34.209139,0 36,1.790861 36,4 L36,20 C36,22.209139 34.209139,24 32,24 L4,24 C1.790861,24 0,22.209139 0,20 L0,4 C0,1.790861 1.790861,0 4,0 Z" id="Mask" fill="#004EA8"></path>
        <path d="M36,20 C36,22.209139 34.209139,24 32,24 L4,24 C1.790861,24 0,22.209139 0,20 L0,18 L36,18 L36,20 Z" id="Path" fill="#FF0006"></path>
        <path d="M4,0 L32,0 C34.209139,0 36,1.790861 36,4 L36,12 L0,12 L0,4 C0,1.790861 1.790861,0 4,0 Z" id="Path" fill="#FFDD00"></path>
        <path d="M4,1 C2.34314575,1 1,2.34314575 1,4 L1,20 C1,21.6568542 2.34314575,23 4,23 L32,23 C33.6568542,23 35,21.6568542 35,20 L35,4 C35,2.34314575 33.6568542,1 32,1 L4,1 Z M4,0 L32,0 C34.209139,0 36,1.790861 36,4 L36,20 C36,22.209139 34.209139,24 32,24 L4,24 C1.790861,24 0,22.209139 0,20 L0,4 C0,1.790861 1.790861,0 4,0 Z" id="Mask" fill="#031619" fill-rule="nonzero" opacity="0.2"></path>
        <ellipse id="Oval" fill="#FFDD00" cx="18" cy="12" rx="5" ry="6"></ellipse>
        <path d="M14.1260175,11 L21.8739825,11 C21.956247,11.3835439 22,11.7856405 22,12.2 C22,14.8509668 20.209139,17 18,17 C15.790861,17 14,14.8509668 14,12.2 C14,11.7856405 14.043753,11.3835439 14.1260175,11 L14.1260175,11 Z" id="Path" fill="#FF0006"></path>
        <path d="M15.0945131,13 L20.9054869,13 C20.5724548,14.7252272 19.3978796,16 18,16 C16.6021204,16 15.4275452,14.7252272 15.0945131,13 L15.0945131,13 Z" id="Path" fill="#4AC128"></path>
        <path d="M15,12 C15,9.790861 16.3431458,8 18,8 C19.6568542,8 21,9.790861 21,12 L18,12 L17,10 L16,12 L15,12 L15,12 Z" id="Path" fill="#74D4EA"></path>
        <path d="M15.0945131,13 C15.0328148,12.6803801 15,12.3452996 15,12 L16,12 L17,10 L18,12 L21,12 C21,12.3452996 20.9671852,12.6803801 20.9054869,13 L15.0945131,13 L15.0945131,13 Z" id="Path" fill="#4F7377"></path>
        <circle id="Oval" fill="#FFDD00" cx="18.5" cy="9.5" r="1"></circle>
        <path d="M17.6464466,7.35355339 C17.8417088,7.54881554 18.1582912,7.54881554 18.3535534,7.35355339 L19.2071068,6.5 L21,6.5 C21.2761424,6.5 21.5,6.27614237 21.5,6 C21.5,5.72385763 21.2761424,5.5 21,5.5 L19,5.5 C18.8673918,5.5 18.7402148,5.55267842 18.6464466,5.64644661 L18,6.29289322 L17.3535534,5.64644661 C17.2597852,5.55267842 17.1326082,5.5 17,5.5 L15,5.5 C14.7238576,5.5 14.5,5.72385763 14.5,6 C14.5,6.27614237 14.7238576,6.5 15,6.5 L16.7928932,6.5 L17.6464466,7.35355339 Z" id="Path-5" fill="#543A07" fill-rule="nonzero"></path>
    </g>
</svg>