<?xml version="1.0" encoding="UTF-8"?>
<svg width="36px" height="24px" viewBox="0 0 36 24" version="1.1" xmlns="http://www.w3.org/2000/svg" xmlns:xlink="http://www.w3.org/1999/xlink">
    <!-- Generator: Sketch 55.2 (78181) - https://sketchapp.com -->
    <title>Flag / TL</title>
    <desc>Created with Sketch.</desc>
    <g id="Flag-/-TL" stroke="none" stroke-width="1" fill="none" fill-rule="evenodd">
        <path d="M4,0 L32,0 C34.209139,0 36,1.790861 36,4 L36,20 C36,22.209139 34.209139,24 32,24 L4,24 C1.790861,24 0,22.209139 0,20 L0,4 C0,1.790861 1.790861,0 4,0 Z" id="Mask" fill="#EF0000"></path>
        <path d="M6.96909012e-07,20.0023869 L6.96909012e-07,3.99761309 C0.000690031536,2.81716923 0.512713906,1.7563281 1.32657265,1.02458939 L19.0000007,12 L1.32657265,22.9754106 C0.512713906,22.2436719 0.000690031536,21.1828308 6.96909012e-07,20.0023869 Z" id="Path" fill="#FFC500"></path>
        <path d="M6.9690941e-07,20.0023869 L6.9690941e-07,3.99761309 C0.000690031537,2.81716923 0.512713906,1.7563281 1.32657265,1.02458939 L13.0000007,12 L1.32657265,22.9754106 C0.512713906,22.2436719 0.000690031537,21.1828308 6.9690941e-07,20.0023869 Z" id="Path" fill="#000000"></path>
        <polygon id="Star-Copy" fill="#FFFFFF" transform="translate(5.463056, 11.818034) rotate(-24.000000) translate(-5.463056, -11.818034) " points="5.46305631 13.3266101 3.63178681 14.636068 4.31126187 12.4897825 2.50000001 11.1527864 4.7512082 11.1357669 5.46305631 9 6.17490442 11.1357669 8.42611261 11.1527864 6.61485075 12.4897825 7.29432581 14.636068"></polygon>
        <path d="M4,1 C2.34314575,1 1,2.34314575 1,4 L1,20 C1,21.6568542 2.34314575,23 4,23 L32,23 C33.6568542,23 35,21.6568542 35,20 L35,4 C35,2.34314575 33.6568542,1 32,1 L4,1 Z M4,0 L32,0 C34.209139,0 36,1.790861 36,4 L36,20 C36,22.209139 34.209139,24 32,24 L4,24 C1.790861,24 0,22.209139 0,20 L0,4 C0,1.790861 1.790861,0 4,0 Z" id="Mask" fill="#031619" fill-rule="nonzero" opacity="0.2"></path>
    </g>
</svg>