<?xml version="1.0" encoding="UTF-8"?>
<svg width="36px" height="24px" viewBox="0 0 36 24" version="1.1" xmlns="http://www.w3.org/2000/svg" xmlns:xlink="http://www.w3.org/1999/xlink">
    <!-- Generator: Sketch 55.2 (78181) - https://sketchapp.com -->
    <title>Flag / TN</title>
    <desc>Created with Sketch.</desc>
    <g id="Flag-/-TN" stroke="none" stroke-width="1" fill="none" fill-rule="evenodd">
        <path d="M4,0 L32,0 C34.209139,0 36,1.790861 36,4 L36,20 C36,22.209139 34.209139,24 32,24 L4,24 C1.790861,24 0,22.209139 0,20 L0,4 C0,1.790861 1.790861,0 4,0 Z" id="Mask" fill="#FC0000"></path>
        <circle id="Oval" fill="#FFFFFF" cx="18" cy="12" r="8"></circle>
        <path d="M23.0939033,8.29376784 C22.2176923,7.6573524 21.117186,7.27805608 19.9218555,7.27805608 C17.0680155,7.27805608 14.7548551,9.43712739 14.7548551,12.1004075 C14.7548551,14.7636876 17.0680155,16.9227589 19.9209438,16.9227589 C21.059393,16.9282289 22.1702656,16.572622 23.0939033,15.9070472 C21.467717,17.9976943 18.6930471,18.8244444 16.187787,17.964817 C13.6825268,17.1051897 11.9999999,14.7490463 11.9999999,12.1004075 C11.9999999,9.45176867 13.6825268,7.09562531 16.187787,6.23599796 C18.6930471,5.37637061 21.467717,6.20312066 23.0939033,8.29376784 Z M20.661301,13.1945315 C19.905966,13.1945315 19.293646,12.5822115 19.293646,11.8268765 C19.293646,11.0715415 19.905966,10.4592215 20.661301,10.4592215 C21.416636,10.4592215 22.028956,11.0715415 22.028956,11.8268765 C22.028956,12.5822115 21.416636,13.1945315 20.661301,13.1945315 Z" id="Combined-Shape" fill="#FC0000" fill-rule="nonzero"></path>
        <path d="M4,1 C2.34314575,1 1,2.34314575 1,4 L1,20 C1,21.6568542 2.34314575,23 4,23 L32,23 C33.6568542,23 35,21.6568542 35,20 L35,4 C35,2.34314575 33.6568542,1 32,1 L4,1 Z M4,0 L32,0 C34.209139,0 36,1.790861 36,4 L36,20 C36,22.209139 34.209139,24 32,24 L4,24 C1.790861,24 0,22.209139 0,20 L0,4 C0,1.790861 1.790861,0 4,0 Z" id="Mask" fill="#031619" fill-rule="nonzero" opacity="0.2"></path>
    </g>
</svg>