<?xml version="1.0" encoding="UTF-8"?>
<svg width="36px" height="24px" viewBox="0 0 36 24" version="1.1" xmlns="http://www.w3.org/2000/svg" xmlns:xlink="http://www.w3.org/1999/xlink">
    <!-- Generator: Sketch 55.2 (78181) - https://sketchapp.com -->
    <title>Flag / US</title>
    <desc>Created with Sketch.</desc>
    <g id="Flag-/-US" stroke="none" stroke-width="1" fill="none" fill-rule="evenodd">
        <path d="M4,0 L32,0 C34.209139,0 36,1.790861 36,4 L36,20 C36,22.209139 34.209139,24 32,24 L4,24 C1.790861,24 0,22.209139 0,20 L0,4 C0,1.790861 1.790861,0 4,0 Z" id="Mask" fill="#ED2939"></path>
        <path d="M36,20 C36,20.3452996 35.956247,20.6803801 35.8739825,21 L0.126017485,21 C0.0437530031,20.6803801 0,20.3452996 0,20 L0,19 L36,19 L36,20 Z" id="Path" fill="#F7F7F7"></path>
        <path d="M35.8739825,3 C35.956247,3.31961992 36,3.65470043 36,4 L36,5 L0,5 L0,4 C0,3.65470043 0.0437530031,3.31961992 0.126017485,3 L35.8739825,3 L35.8739825,3 Z" id="Path" fill="#F7F7F7"></path>
        <polygon id="Path" fill="#F7F7F7" fill-rule="nonzero" points="0 7 36 7 36 9 0 9"></polygon>
        <polygon id="Path" fill="#F7F7F7" fill-rule="nonzero" points="0 11 36 11 36 13 0 13"></polygon>
        <polygon id="Path" fill="#F7F7F7" fill-rule="nonzero" points="0 15 36 15 36 17 0 17"></polygon>
        <path d="M4,0 L18,0 L18,14 L0,14 L0,4 C0,1.790861 1.790861,0 4,0 Z" id="Rectangle" fill="#0066B3"></path>
        <path d="M3,4 C2.44771525,4 2,3.55228475 2,3 C2,2.44771525 2.44771525,2 3,2 C3.55228475,2 4,2.44771525 4,3 C4,3.55228475 3.55228475,4 3,4 Z M6,6 C5.44771525,6 5,5.55228475 5,5 C5,4.44771525 5.44771525,4 6,4 C6.55228475,4 7,4.44771525 7,5 C7,5.55228475 6.55228475,6 6,6 Z M6,10 C5.44771525,10 5,9.55228475 5,9 C5,8.44771525 5.44771525,8 6,8 C6.55228475,8 7,8.44771525 7,9 C7,9.55228475 6.55228475,10 6,10 Z M12,6 C11.4477153,6 11,5.55228475 11,5 C11,4.44771525 11.4477153,4 12,4 C12.5522847,4 13,4.44771525 13,5 C13,5.55228475 12.5522847,6 12,6 Z M12,10 C11.4477153,10 11,9.55228475 11,9 C11,8.44771525 11.4477153,8 12,8 C12.5522847,8 13,8.44771525 13,9 C13,9.55228475 12.5522847,10 12,10 Z M9,4 C8.44771525,4 8,3.55228475 8,3 C8,2.44771525 8.44771525,2 9,2 C9.55228475,2 10,2.44771525 10,3 C10,3.55228475 9.55228475,4 9,4 Z M15,4 C14.4477153,4 14,3.55228475 14,3 C14,2.44771525 14.4477153,2 15,2 C15.5522847,2 16,2.44771525 16,3 C16,3.55228475 15.5522847,4 15,4 Z M9,8 C8.44771525,8 8,7.55228475 8,7 C8,6.44771525 8.44771525,6 9,6 C9.55228475,6 10,6.44771525 10,7 C10,7.55228475 9.55228475,8 9,8 Z M9,12 C8.44771525,12 8,11.5522847 8,11 C8,10.4477153 8.44771525,10 9,10 C9.55228475,10 10,10.4477153 10,11 C10,11.5522847 9.55228475,12 9,12 Z M15,8 C14.4477153,8 14,7.55228475 14,7 C14,6.44771525 14.4477153,6 15,6 C15.5522847,6 16,6.44771525 16,7 C16,7.55228475 15.5522847,8 15,8 Z M15,12 C14.4477153,12 14,11.5522847 14,11 C14,10.4477153 14.4477153,10 15,10 C15.5522847,10 16,10.4477153 16,11 C16,11.5522847 15.5522847,12 15,12 Z M3,8 C2.44771525,8 2,7.55228475 2,7 C2,6.44771525 2.44771525,6 3,6 C3.55228475,6 4,6.44771525 4,7 C4,7.55228475 3.55228475,8 3,8 Z M3,12 C2.44771525,12 2,11.5522847 2,11 C2,10.4477153 2.44771525,10 3,10 C3.55228475,10 4,10.4477153 4,11 C4,11.5522847 3.55228475,12 3,12 Z" id="Shape" fill="#F7F7F7" fill-rule="nonzero"></path>
        <path d="M4,1 C2.34314575,1 1,2.34314575 1,4 L1,20 C1,21.6568542 2.34314575,23 4,23 L32,23 C33.6568542,23 35,21.6568542 35,20 L35,4 C35,2.34314575 33.6568542,1 32,1 L4,1 Z M4,0 L32,0 C34.209139,0 36,1.790861 36,4 L36,20 C36,22.209139 34.209139,24 32,24 L4,24 C1.790861,24 0,22.209139 0,20 L0,4 C0,1.790861 1.790861,0 4,0 Z" id="Mask" fill="#031619" fill-rule="nonzero" opacity="0.2"></path>
    </g>
</svg>