<?xml version="1.0" encoding="UTF-8"?>
<svg width="36px" height="24px" viewBox="0 0 36 24" version="1.1" xmlns="http://www.w3.org/2000/svg" xmlns:xlink="http://www.w3.org/1999/xlink">
    <!-- Generator: Sketch 55.2 (78181) - https://sketchapp.com -->
    <title>Flag / LS</title>
    <desc>Created with Sketch.</desc>
    <g id="Flag-/-LS" stroke="none" stroke-width="1" fill="none" fill-rule="evenodd">
        <path d="M4,0 L32,0 C34.209139,0 36,1.790861 36,4 L36,20 C36,22.209139 34.209139,24 32,24 L4,24 C1.790861,24 0,22.209139 0,20 L0,4 C0,1.790861 1.790861,0 4,0 Z" id="Mask" fill="#FFFFFF"></path>
        <path d="M17.7259936,8.53264223 C17.2959054,8.6327112 17.020908,8.9843249 16.9550383,9.58287985 C16.9372663,9.74437729 16.9465434,9.9332077 16.9802594,10.1433919 C17.0185087,10.3818366 17.0864778,10.6385321 17.1757036,10.9014042 C17.2265827,11.0513013 17.2811459,11.1937356 17.3356485,11.3238145 C17.3411745,11.3370031 17.3465818,11.3497805 17.3518591,11.362132 L17.6424115,10.9708821 L17.6454106,10.1745647 L17.2203628,10.1745647 L17.7340305,9.63643507 L17.7259936,8.53264223 L17.7259936,8.53264223 Z M17.7256933,8.16139043 L17.7324973,8.15366609 C17.7369645,8.1485946 17.7448727,8.14022379 17.7557747,8.12963841 C17.7737776,8.11215832 17.7938434,8.09469684 17.815571,8.07833596 C17.8781062,8.03124682 17.9418641,8.0021099 18.0049936,8.00074968 L18.0397875,8 L18.0399815,8.00290914 C18.0931696,8.01002911 18.14719,8.03506239 18.2007003,8.07230633 C18.2223992,8.08740908 18.2425056,8.10353401 18.2605938,8.11967918 C18.2715537,8.12946172 18.2795249,8.13720115 18.2840406,8.14189446 L18.2942421,8.15249725 L18.2942293,8.15868566 C18.9461805,8.25476763 19.3156796,8.69842632 19.430105,9.50379823 C19.4591192,9.70801146 19.4515087,9.93701466 19.4129077,10.1869505 C19.3715004,10.4550576 19.2959622,10.7385291 19.1961569,11.0268386 C19.1418204,11.1838014 19.0836524,11.3324347 19.0254195,11.4682875 C19.0049685,11.5159981 18.9859296,11.5587864 18.968773,11.596087 C18.958303,11.61885 18.9506631,11.6349748 18.9463236,11.6438926 L18.9328485,11.6386325 L20.6615294,13.9250352 L20.9583503,13.7959572 L21.581957,15.0667323 L21.5568587,15.0846818 C21.5541039,15.086652 21.5488758,15.0902833 21.5411868,15.0954647 C21.5285493,15.1039809 21.5134759,15.1138249 21.495979,15.1248858 C21.4462129,15.1563463 21.3869028,15.1913407 21.318148,15.2289805 C21.1221373,15.3362865 20.8895491,15.4435017 20.6211831,15.5435109 C19.8832276,15.8185171 19.0196861,15.9878045 18.0365347,15.9994957 C17.1175615,16.0103453 16.2567573,15.8455207 15.4795048,15.5640904 C15.2160668,15.4687039 14.9813603,15.3664736 14.7782982,15.2641876 C14.707123,15.2283354 14.644956,15.1950156 14.5921615,15.165076 C14.573624,15.1545634 14.5575666,15.1452139 14.5440351,15.1371336 C14.5358337,15.1322361 14.5302495,15.1288197 14.5273281,15.1269903 L14.5,15.1098778 L15.103091,13.8233661 L15.4380957,13.9391532 L17.103714,11.6962773 L17.0780582,11.6422227 C17.0737847,11.6332189 17.0662426,11.6169064 17.0558975,11.59387 C17.0389334,11.5560943 17.0201047,11.5127775 16.9998772,11.4645015 C16.9422703,11.3270136 16.8847238,11.1767914 16.8309673,11.018417 C16.7356523,10.7376054 16.6626349,10.4618446 16.620801,10.2010532 C16.5822821,9.96092797 16.5714492,9.74042983 16.5931691,9.54305744 C16.6797421,8.75637225 17.0984705,8.26895802 17.7256933,8.16139043 Z M18.2934683,8.52744731 L18.2912154,9.61920407 L18.8591559,10.1525249 L18.4272321,10.1525249 L18.4302359,10.9738627 L18.692547,11.3208029 C18.7469386,11.1936563 18.8013547,11.0544318 18.8521333,10.9077465 C18.9453109,10.6385828 19.0154196,10.3754861 19.0531196,10.1313836 C19.0866531,9.91425931 19.0931096,9.71997869 19.0696709,9.55500795 C18.9810038,8.93093311 18.7454441,8.613694 18.2934684,8.52744731 L18.2934683,8.52744731 Z" id="Shape" fill="#000000" fill-rule="nonzero"></path>
        <path d="M0,17 L36,17 L36,20 C36,22.209139 34.209139,24 32,24 L4,24 C1.790861,24 0,22.209139 0,20 L0,17 Z" id="Rectangle" fill="#009543"></path>
        <path d="M4,0 L32,0 C34.209139,0 36,1.790861 36,4 L36,7 L0,7 L0,4 C0,1.790861 1.790861,0 4,0 Z" id="Rectangle" fill="#00209F"></path>
        <path d="M4,1 C2.34314575,1 1,2.34314575 1,4 L1,20 C1,21.6568542 2.34314575,23 4,23 L32,23 C33.6568542,23 35,21.6568542 35,20 L35,4 C35,2.34314575 33.6568542,1 32,1 L4,1 Z M4,0 L32,0 C34.209139,0 36,1.790861 36,4 L36,20 C36,22.209139 34.209139,24 32,24 L4,24 C1.790861,24 0,22.209139 0,20 L0,4 C0,1.790861 1.790861,0 4,0 Z" id="Mask" fill="#031619" fill-rule="nonzero" opacity="0.2"></path>
    </g>
</svg>