<?xml version="1.0" encoding="UTF-8"?>
<svg width="36px" height="24px" viewBox="0 0 36 24" version="1.1" xmlns="http://www.w3.org/2000/svg" xmlns:xlink="http://www.w3.org/1999/xlink">
    <!-- Generator: Sketch 55.2 (78181) - https://sketchapp.com -->
    <title>Flag / CV</title>
    <desc>Created with Sketch.</desc>
    <g id="Flag-/-CV" stroke="none" stroke-width="1" fill="none" fill-rule="evenodd">
        <path d="M4,0 L32,0 C34.209139,0 36,1.790861 36,4 L36,20 C36,22.209139 34.209139,24 32,24 L4,24 C1.790861,24 0,22.209139 0,20 L0,4 C0,1.790861 1.790861,0 4,0 Z" id="Mask" fill="#003893"></path>
        <rect id="Rectangle" fill="#FFFFFF" x="0" y="12" width="36" height="6"></rect>
        <rect id="Rectangle" fill="#CF2027" x="0" y="14" width="36" height="2"></rect>
        <path d="M13.5781901,8.82917961 L13.8476069,8 L14.1170237,8.82917961 L14.9888747,8.82917961 L14.2835324,9.34164079 L14.5529492,10.1708204 L13.8476069,9.65835921 L13.1422646,10.1708204 L13.4116814,9.34164079 L12.7063391,8.82917961 L13.5781901,8.82917961 Z M13.5781901,20.8291796 L13.8476069,20 L14.1170237,20.8291796 L14.9888747,20.8291796 L14.2835324,21.3416408 L14.5529492,22.1708204 L13.8476069,21.6583592 L13.1422646,22.1708204 L13.4116814,21.3416408 L12.7063391,20.8291796 L13.5781901,20.8291796 Z M19.8233628,12.9750776 L20.6952138,12.9750776 L19.9898715,13.4875388 L20.2592883,14.3167184 L19.553946,13.8042572 L18.8486037,14.3167184 L19.1180205,13.4875388 L18.4126782,12.9750776 L19.2845292,12.9750776 L19.553946,12.145898 L19.8233628,12.9750776 Z M8.41068461,16.6832816 L9.28253564,16.6832816 L8.57719334,17.1957428 L8.84661012,18.0249224 L8.14126782,17.5124612 L7.43592552,18.0249224 L7.7053423,17.1957428 L7,16.6832816 L7.87185103,16.6832816 L8.14126782,15.854102 L8.41068461,16.6832816 Z M17.8102439,20.1957428 L18.0796607,21.0249224 L17.3743184,20.5124612 L16.6689761,21.0249224 L16.9383929,20.1957428 L16.2330506,19.6832816 L17.1049016,19.6832816 L17.3743184,18.854102 L17.6437352,19.6832816 L18.5155863,19.6832816 L17.8102439,20.1957428 Z M10.7568209,10.4875388 L11.0262377,11.3167184 L10.3208954,10.8042572 L9.6155531,11.3167184 L9.88496989,10.4875388 L9.17962758,9.97507764 L10.0514786,9.97507764 L10.3208954,9.14589803 L10.5903122,9.97507764 L11.4621632,9.97507764 L10.7568209,10.4875388 Z M10.3208954,20.5124612 L9.6155531,21.0249224 L9.88496989,20.1957428 L9.17962758,19.6832816 L10.0514786,19.6832816 L10.3208954,18.854102 L10.5903122,19.6832816 L11.4621632,19.6832816 L10.7568209,20.1957428 L11.0262377,21.0249224 L10.3208954,20.5124612 Z M17.3743184,10.8042572 L16.6689761,11.3167184 L16.9383929,10.4875388 L16.2330506,9.97507764 L17.1049016,9.97507764 L17.3743184,9.14589803 L17.6437352,9.97507764 L18.5155863,9.97507764 L17.8102439,10.4875388 L18.0796607,11.3167184 L17.3743184,10.8042572 Z M7.7053423,13.4875388 L7,12.9750776 L7.87185103,12.9750776 L8.14126782,12.145898 L8.41068461,12.9750776 L9.28253564,12.9750776 L8.57719334,13.4875388 L8.84661012,14.3167184 L8.14126782,13.8042572 L7.43592552,14.3167184 L7.7053423,13.4875388 Z M19.1180205,17.1957428 L18.4126782,16.6832816 L19.2845292,16.6832816 L19.553946,15.854102 L19.8233628,16.6832816 L20.6952138,16.6832816 L19.9898715,17.1957428 L20.2592883,18.0249224 L19.553946,17.5124612 L18.8486037,18.0249224 L19.1180205,17.1957428 Z" id="Shape" fill="#F7D116" fill-rule="nonzero"></path>
        <path d="M4,1 C2.34314575,1 1,2.34314575 1,4 L1,20 C1,21.6568542 2.34314575,23 4,23 L32,23 C33.6568542,23 35,21.6568542 35,20 L35,4 C35,2.34314575 33.6568542,1 32,1 L4,1 Z M4,0 L32,0 C34.209139,0 36,1.790861 36,4 L36,20 C36,22.209139 34.209139,24 32,24 L4,24 C1.790861,24 0,22.209139 0,20 L0,4 C0,1.790861 1.790861,0 4,0 Z" id="Mask" fill="#031619" fill-rule="nonzero" opacity="0.2"></path>
    </g>
</svg>