<?xml version="1.0" encoding="UTF-8"?>
<svg width="36px" height="24px" viewBox="0 0 36 24" version="1.1" xmlns="http://www.w3.org/2000/svg" xmlns:xlink="http://www.w3.org/1999/xlink">
    <!-- Generator: Sketch 55.2 (78181) - https://sketchapp.com -->
    <title>Flag / VA</title>
    <desc>Created with Sketch.</desc>
    <g id="Flag-/-VA" stroke="none" stroke-width="1" fill="none" fill-rule="evenodd">
        <path d="M4,0 L32,0 C34.209139,0 36,1.790861 36,4 L36,20 C36,22.209139 34.209139,24 32,24 L4,24 C1.790861,24 0,22.209139 0,20 L0,4 C0,1.790861 1.790861,0 4,0 Z" id="Mask" fill="#FFE000"></path>
        <path d="M18,0 L32,0 C34.209139,0 36,1.790861 36,4 L36,20 C36,22.209139 34.209139,24 32,24 L18,24 L18,0 Z" id="Rectangle-9-Copy" fill="#FFFFFF"></path>
        <path d="M4,1 C2.34314575,1 1,2.34314575 1,4 L1,20 C1,21.6568542 2.34314575,23 4,23 L32,23 C33.6568542,23 35,21.6568542 35,20 L35,4 C35,2.34314575 33.6568542,1 32,1 L4,1 Z M4,0 L32,0 C34.209139,0 36,1.790861 36,4 L36,20 C36,22.209139 34.209139,24 32,24 L4,24 C1.790861,24 0,22.209139 0,20 L0,4 C0,1.790861 1.790861,0 4,0 Z" id="Mask" fill="#031619" fill-rule="nonzero" opacity="0.2"></path>
        <path d="M26.3541805,7.75099722 C26.3358656,7.75099722 26.3175508,7.75099722 26.2992359,7.73268237 C26.2992359,7.71436752 26.2809211,7.69605267 26.2809211,7.6777252 L26.2809211,7.42129205 C26.2809211,7.4029772 26.2809211,7.38466235 26.2992359,7.36633487 C26.3175508,7.34802002 26.3358656,7.34802002 26.3541805,7.34802002 L26.5739839,7.38466235 L26.5373542,7.07326824 C26.5373542,7.05495086 26.5373542,7.03663475 26.5556691,7.01831737 C26.5739839,7.01831737 26.5923114,7 26.6106263,7 L26.8487446,7 C26.8670594,7 26.8853743,7 26.9037017,7.01831737 C26.9220166,7.03663475 26.9220166,7.05495086 26.9220166,7.07326824 L26.9037017,7.38466235 L27.1235052,7.34802002 C27.14182,7.34802002 27.1601349,7.34802002 27.1784497,7.36633487 C27.1784497,7.38466235 27.1967646,7.4029772 27.1967646,7.42129205 L27.1967646,7.69605267 C27.1967646,7.71436752 27.1967646,7.73268237 27.1784497,7.75099722 C27.1601349,7.76931207 27.14182,7.76931207 27.1235052,7.76931207 L26.9403314,7.73268237 L26.9586463,8.19060412 L26.9220166,8.19060412 C26.7937874,8.17228927 26.7022131,8.17228927 26.5923114,8.19060412 L26.5556691,8.19060412 L26.5739839,7.71436752 L26.3541805,7.75099722 Z M25.2917929,10.4069661 C25.2734655,10.3886512 25.2551506,10.3703364 25.2002061,10.3337067 L25.2002061,10.1322181 C25.2002061,9.96735919 25.2185209,9.80251291 25.2551506,9.65596886 C25.2734655,9.61933916 25.3101078,9.58270946 25.3467375,9.56438199 C25.7863444,9.41785056 26.2442788,9.34457854 26.7205154,9.34457854 C27.1967646,9.34457854 27.6546863,9.41785056 28.0942932,9.56438199 C28.1492504,9.58270946 28.1858801,9.61933916 28.1858801,9.65596886 C28.2225098,9.80251291 28.2408373,9.96735919 28.2408373,10.1322181 L28.2408373,10.3337067 C28.2408373,10.3703364 28.2225098,10.3886512 28.204195,10.4069661 C28.1858801,10.4252936 28.1675653,10.4252936 28.1492504,10.4252936 L28.1309356,10.4252936 C27.691316,10.3153918 27.2333943,10.2604347 26.7571577,10.2604347 C26.2809085,10.2604347 25.8229867,10.3153918 25.3833672,10.4252936 C25.3467375,10.4252936 25.3101078,10.4252936 25.2917929,10.4069661 Z M25.5665536,9.17973226 C25.5482261,9.17973226 25.5115964,9.16141741 25.5115964,9.16141741 C25.4932815,9.14308994 25.4932815,9.10646024 25.5115964,9.08814539 C25.786357,8.61189617 26.2259639,8.35546302 26.7571577,8.35546302 C27.2883515,8.35546302 27.7279584,8.61189617 28.002719,9.08814539 C28.0210338,9.10646024 28.0210338,9.14308994 28.002719,9.16141741 C27.9844041,9.17973226 27.9477618,9.17973226 27.929447,9.17973226 C27.5447972,9.08814539 27.1601349,9.03318822 26.7571577,9.03318822 C26.3541805,9.03318822 25.9512033,9.08814539 25.5665536,9.17973226 Z M30.5487861,11.4693663 L30.7869044,11.2495502 L30.7869044,11.2129205 L30.640373,11.0297467 L30.6037307,11.0297467 L30.3472975,11.2495502 C30.3289827,11.2678777 30.3106678,11.2678777 30.292353,11.2678777 C30.2740255,11.2678777 30.2557106,11.2495502 30.2373958,11.2312353 L30.0175923,10.9748022 L29.9809626,10.9748022 L29.7977889,11.1213336 L29.7977889,11.1579759 L30.0175923,11.4144091 C30.0359072,11.4510388 30.0359072,11.505996 29.9992775,11.5426257 L29.7428317,11.7624291 L29.7428317,11.7990714 L29.8893758,11.9822326 L29.9260055,11.9822326 L30.1824386,11.7441143 C30.2190809,11.7257994 30.2740255,11.7257994 30.3106678,11.7624291 L30.6586878,12.1837212 C30.6770027,12.2203635 30.6770027,12.275308 30.640373,12.3119503 L29.9443203,12.861459 C29.9260055,12.8797738 29.9076906,12.8797738 29.8893758,12.8797738 C29.8710609,12.8797738 29.8527334,12.861459 29.8344186,12.8431441 L29.0101493,11.8357011 L29.0101493,12.0555046 C29.0101493,12.4767966 28.8269882,12.9347184 28.5522276,13.1911641 C28.0759784,13.630771 27.7096435,13.4842396 27.3982532,13.282751 C27.343296,13.2461087 27.2700366,13.1911641 27.2150794,13.1178921 L27.14182,13.1728493 L28.5155979,14.1802797 C28.5339127,14.1985945 28.5705424,14.1985945 28.6071721,14.1802797 C29.0834214,13.8322596 29.7245169,13.7956299 30.2373958,14.0886928 C30.2373958,14.0337482 30.2557106,13.9971185 30.292353,13.9604762 C30.3289827,13.8872042 30.4022547,13.8505745 30.4755141,13.8505745 C30.5487861,13.8322596 30.6220581,13.8505745 30.6770027,13.9055317 C30.7869044,14.0154334 30.8052193,14.1802797 30.713645,14.3085089 C30.6953175,14.3451386 30.640373,14.3817683 30.6037307,14.4000831 C31.0250227,14.8763323 31.0982947,15.5540575 30.8052193,16.1218936 C30.8418616,16.1402085 30.8601764,16.1585233 30.8968061,16.1768382 C30.9700782,16.2134805 30.988393,16.2867399 31.0067079,16.3600119 C31.0250227,16.433284 31.0067079,16.5065434 30.9517633,16.5615005 C30.915121,16.6347726 30.8418616,16.6714023 30.7685896,16.6714023 C30.6953175,16.6897171 30.6220581,16.6714023 30.567101,16.6164577 C30.5487861,16.5981302 30.5304713,16.5798154 30.5121564,16.5431857 C30.0175923,16.9827926 29.3032248,17.0743795 28.7354013,16.7446743 C28.7354013,16.7996188 28.7170865,16.8362485 28.6804442,16.8728909 C28.6254996,16.9461629 28.5339127,16.9827926 28.4606407,16.9827926 C28.3873687,16.9827926 28.3324241,16.9644777 28.277467,16.9278354 C28.2042076,16.8912057 28.1858801,16.8179337 28.1675653,16.7446743 C28.1492504,16.6714023 28.1675653,16.5981302 28.2225224,16.5431857 C28.2591521,16.5065434 28.2957944,16.4699137 28.3324241,16.4515988 C27.9477618,16.0119919 27.8378601,15.3892113 28.0759784,14.8397026 C28.0943058,14.8030603 28.0759784,14.7664306 28.0576635,14.7481158 L26.720528,13.557499 L25.3833798,14.7481158 C25.365065,14.7664306 25.3467501,14.8030603 25.365065,14.8397026 C25.6031833,15.3892113 25.4932815,16.0119919 25.1086192,16.4515988 C25.1452615,16.4699137 25.1818912,16.5065434 25.2185209,16.5431857 C25.2551632,16.5981302 25.2734781,16.6714023 25.2734781,16.7446743 C25.2551632,16.8179337 25.2185209,16.8728909 25.1635764,16.9278354 C25.0353598,17.0377371 24.852186,17.0194223 24.7605992,16.8912057 C24.7422843,16.854576 24.705642,16.8179337 24.705642,16.7629891 C24.1378185,17.0743795 23.4051361,17.0011074 22.9288995,16.5615005 C22.9288995,16.5798154 22.8922572,16.6164451 22.8739424,16.6347726 C22.8189852,16.6714023 22.7457258,16.6897171 22.6724538,16.6897171 C22.5991818,16.6714023 22.5442372,16.6347726 22.48928,16.5798154 C22.3793783,16.4515988 22.3976932,16.2684251 22.5259224,16.1768382 C22.5442372,16.1402085 22.5808669,16.1402085 22.6175092,16.1218936 C22.3061189,15.5540575 22.3976932,14.8763323 22.8189852,14.4000831 C22.7823555,14.3817683 22.7457258,14.3451386 22.7090835,14.3085089 C22.6724538,14.2535517 22.6541389,14.1802797 22.6541389,14.1070203 C22.6724538,14.0337482 22.7090835,13.9787911 22.7640407,13.9238465 C22.8922572,13.8139448 23.075431,13.8322596 23.1670178,13.9604762 C23.1853327,13.9971185 23.2219624,14.0337482 23.2219624,14.0886928 C23.7348413,13.7956299 24.3759368,13.8322596 24.852186,14.1802797 C24.8705009,14.1985945 24.9071306,14.1985945 24.9437729,14.1802797 L26.3175508,13.1728493 L26.2442788,13.1178921 C26.1893342,13.1911641 26.134377,13.2461087 26.061105,13.282751 C25.7680422,13.4842396 25.3833798,13.630771 24.9071306,13.1911641 C24.6323826,12.9347184 24.4492088,12.4767966 24.4492088,12.0555046 L24.4492088,11.8357011 L23.6249396,12.8431441 C23.6066247,12.861459 23.5883099,12.8797738 23.569995,12.8797738 C23.5516676,12.8797738 23.5333527,12.8797738 23.5150379,12.861459 L22.8189852,12.3119503 C22.8006704,12.2936229 22.7823555,12.275308 22.7823555,12.2569932 C22.7823555,12.2386783 22.7823555,12.2203635 22.8006704,12.202036 L23.148703,11.780744 C23.1853327,11.7441143 23.2402773,11.7257994 23.2769196,11.7624291 L23.496723,12.00056 L23.5333527,12.00056 L23.6798968,11.8173863 L23.6798968,11.780744 L23.423451,11.5609405 C23.4051361,11.5426257 23.3868213,11.5243108 23.3868213,11.505996 C23.3868213,11.4876811 23.3868213,11.4693536 23.4051361,11.4510388 L23.6249396,11.1946056 C23.6432544,11.1762908 23.6432544,11.1579759 23.6249396,11.1579759 L23.4417658,11.0114319 C23.423451,10.993117 23.4051361,10.993117 23.4051361,11.0114319 L23.1853327,11.2678777 C23.1670178,11.2861925 23.148703,11.3045074 23.1303755,11.3045074 C23.1120607,11.3045074 23.0937458,11.3045074 23.075431,11.2861925 L22.8189852,11.0663891 L22.7823555,11.0663891 L22.6358241,11.2495502 L22.6358241,11.2861925 L22.8922572,11.505996 C22.9105721,11.5243108 22.9288995,11.5426257 22.9288995,11.5609405 C22.9288995,11.579268 22.9288995,11.5975828 22.9105721,11.6158977 L22.5625521,12.0371897 C22.5259224,12.0738194 22.4709652,12.0921343 22.4343355,12.0555046 L21.7382828,11.4876811 C21.7016531,11.4510388 21.6833345,11.3960942 21.719968,11.3594519 L22.6724538,10.1871626 L22.6358241,10.1505329 C22.5808669,10.1505329 22.5259224,10.1322181 22.4709652,10.0955758 C22.3610635,10.0040015 22.3427486,9.82082776 22.4343355,9.71092604 C22.5259224,9.60102431 22.7090835,9.58270946 22.8189852,9.67428371 C22.8739424,9.72924089 22.8922572,9.78418544 22.9105721,9.83914261 L24.4858385,11.1213336 C24.5041534,10.9381599 24.5224809,10.7183564 24.5224809,10.4252936 L24.5224809,10.3153918 C24.5224809,10.0955758 24.5407957,9.58270946 24.5041534,9.52775229 C24.3209923,9.52775229 24.1744482,9.80251291 24.1011888,9.93072949 C24.0828613,9.94904434 24.0645465,9.98567404 24.0279168,9.98567404 C23.9912871,9.98567404 23.9546448,9.98567404 23.9363299,9.96735919 L23.5150379,9.65596886 C23.4784082,9.63765401 23.4600933,9.58270946 23.4784082,9.52775229 C23.5883099,9.27131914 23.7348413,9.10646024 23.8997002,9.05151569 C24.0462316,8.99655852 24.1744482,9.05151569 24.1744482,9.05151569 C24.1927757,9.06983054 24.7239695,9.45448026 24.852186,9.63765401 C25.0170323,9.89409978 25.0170323,10.0955758 25.0170323,10.9015302 C25.0170323,11.1213336 25.0170323,11.3594519 24.9987175,11.5609405 L26.0427902,12.4035246 C26.1710067,12.0738194 26.2076491,11.7441143 26.2259639,11.6158977 C26.0427902,11.5975828 25.8596164,11.579268 25.6947701,11.5426257 C25.5848684,11.505996 25.4932815,11.4510388 25.4566518,11.3411371 C25.4200095,11.2495502 25.3833798,11.1213336 25.3284226,10.9564873 C25.3284226,10.9381725 25.3284226,10.9015302 25.3467375,10.8649005 C25.365065,10.8465856 25.3833798,10.8099433 25.4200095,10.8099433 C25.8229867,10.7000416 26.2625936,10.645097 26.7022005,10.645097 C27.14182,10.645097 27.5814269,10.7000416 27.9844041,10.8099433 C28.0210338,10.8099433 28.0393487,10.8282581 28.0576635,10.8649005 C28.0759784,10.8832153 28.0943058,10.919845 28.0759784,10.9564873 C28.0210338,11.1213336 27.9844041,11.2495502 27.9477618,11.3411371 C27.9111321,11.4510388 27.8195452,11.5243108 27.7096435,11.5426257 C27.5447846,11.579268 27.3616235,11.5975828 27.1784497,11.6158977 C27.1967646,11.7441143 27.2333943,12.0738194 27.3616235,12.4035246 L28.4056962,11.5609405 C28.4056962,11.3594519 28.3873687,11.1213336 28.3873687,10.9015302 C28.3873687,10.0955758 28.3873687,9.89409978 28.5522276,9.63765401 C28.6804442,9.43616541 29.2116379,9.06983054 29.2299528,9.05151569 C29.2482803,9.05151569 29.358182,8.99655852 29.5230283,9.05151569 C29.6878872,9.10646024 29.8344186,9.27131914 29.9443203,9.52775229 C29.9626352,9.56438199 29.9443203,9.61933916 29.9076906,9.65596886 L29.4863986,9.96735919 C29.4680837,9.98567404 29.4314414,9.98567404 29.3948117,9.98567404 C29.358182,9.98567404 29.3398545,9.96735919 29.3215397,9.93072949 C29.2665951,9.80251291 29.1017362,9.52775229 28.9368899,9.52775229 C28.9002476,9.60102431 28.9185625,10.0955758 28.9185625,10.3153918 L28.9185625,10.4252936 C28.9368899,10.7183564 28.9368899,10.9381599 28.9552048,11.1213336 L30.5304713,9.83914261 C30.5487861,9.76587059 30.567101,9.71092604 30.6220581,9.67428371 C30.7502747,9.58270946 30.915121,9.60102431 31.0067079,9.71092604 C31.0982947,9.83914261 31.0799799,10.0040015 30.9700782,10.0955758 C30.9334485,10.1322181 30.8601764,10.1505329 30.8052193,10.1505329 L30.7685896,10.1871626 L31.7210754,11.3594519 C31.7393902,11.3777794 31.7393902,11.3960942 31.7393902,11.4144091 C31.7393902,11.4327239 31.7210754,11.4510388 31.7027605,11.4693663 L31.0067079,12.0371897 C30.9700782,12.0555046 30.915121,12.0555046 30.8784913,12.0188749 L30.5304713,11.5975828 C30.5121564,11.5609405 30.5121564,11.505996 30.5487861,11.4693663 Z M28.3873687,13.0995773 C28.4789556,12.9164035 28.4789556,12.4951115 28.4606407,12.1104617 L27.6363715,12.7881869 C27.8561749,13.0446327 28.2042076,13.136207 28.3324241,13.1178921 C28.3690538,13.1178921 28.3873687,13.0995773 28.3873687,13.0995773 Z M28.4606407,15.425841 C28.4606407,16.0119919 28.9185625,16.4882285 29.5047134,16.4699137 C30.0725369,16.4699137 30.5487861,15.9936771 30.5487861,15.425841 C30.5487861,14.8580175 30.0908644,14.3817683 29.5047134,14.3817683 C28.9368899,14.3817683 28.4606407,14.8397026 28.4606407,15.425841 Z M26.7388428,11.6342125 C26.7388428,11.854016 26.6838857,12.3119503 26.5190394,12.7149149 L26.647256,12.8248166 L26.7388428,12.8980887 L26.8304297,12.8248166 L26.9586463,12.7149149 C26.7937874,12.3119503 26.7571577,11.854016 26.7388428,11.6342125 Z M25.8413016,12.7881869 L24.9987175,12.1104617 C24.9987175,12.5134263 24.9987175,12.9164035 25.0903043,13.0995773 C25.0903043,13.0995773 25.1086192,13.1178921 25.1452615,13.1178921 C25.2734781,13.1178921 25.6214981,13.0446327 25.8413016,12.7881869 Z M25.0353598,15.425841 C25.0353598,14.8580175 24.5591106,14.3817683 23.9912871,14.3817683 C23.423451,14.3817683 22.9472144,14.8580175 22.9472144,15.425841 C22.9472144,15.9936771 23.4051361,16.4699137 23.9912871,16.4699137 C24.5591106,16.4699137 25.0353598,16.0119919 25.0353598,15.425841 Z" id="Shape" fill="#A08A00" fill-rule="nonzero"></path>
    </g>
</svg>