<?xml version="1.0" encoding="UTF-8"?>
<svg id="_레이어_1" data-name="레이어 1" xmlns="http://www.w3.org/2000/svg" viewBox="0 0 36 24">
  <defs>
    <style>
      .cls-1, .cls-2 {
        fill: #c9072a;
      }

      .cls-1, .cls-2, .cls-3, .cls-4, .cls-5, .cls-6, .cls-7, .cls-8 {
        stroke-width: 0px;
      }

      .cls-1, .cls-5, .cls-6 {
        fill-rule: evenodd;
      }

      .cls-3 {
        fill: #fdc301;
      }

      .cls-4, .cls-5 {
        fill: #fff;
      }

      .cls-6 {
        fill: #001b69;
      }

      .cls-7 {
        fill: #9cf;
      }

      .cls-8 {
        fill: #f90;
      }
    </style>
  </defs>
  <g id="Flag-_-FJ" data-name="Flag-/-FJ">
    <path id="Mask" class="cls-6" d="m4,0h28c2.209,0,4,1.791,4,4v16c0,2.209-1.791,4-4,4H4c-2.209,0-4-1.791-4-4V4C0,1.791,1.791,0,4,0Z"/>
    <path id="Combined-Shape" class="cls-6" d="m16,0v12H0V4C0,1.791,1.791,0,4,0h12Z"/>
    <path id="Path" class="cls-5" d="m15.349,0h.651v2.558l-5.455,3.543,5.455,3.542v2.357h-.96l-6.79-4.409L1.46,12H0v-2.032l5.955-3.867L.316,2.438c.339-.798.929-1.463,1.671-1.896l6.263,4.067L15.349,0Z"/>
    <path id="Path-2" data-name="Path" class="cls-1" d="m0,11.892v-1.192l7.082-4.6L.6,1.892c.178-.287.392-.549.634-.782l6.766,4.394L16,.31v1.193l-7.082,4.597,7.082,4.6v1.192l-8-5.195L0,11.892Z"/>
    <polygon id="Shape" class="cls-4" points="10 4 16 4 16 8 10 8 10 12 6 12 6 8 0 8 0 4 6 4 6 0 10 0 10 4"/>
    <polygon id="Shape-2" data-name="Shape" class="cls-2" points="9 5 9 0 7 0 7 5 0 5 0 7 7 7 7 12 9 12 9 7 16 7 16 5 9 5"/>
  </g>
  <g>
    <path class="cls-4" d="m21.447,7.375c0,5.971.692,8.029,2.078,9.415.826.82,1.193,1.129,2.477,1.973,1.284-.844,1.65-1.153,2.477-1.973,1.386-1.386,2.078-3.444,2.078-9.415-1.008.432-1.582.641-2.414.628-.744-.012-1.532-.357-2.141-.628-.609.271-1.398.616-2.141.628-.831.013-1.405-.196-2.414-.628h.002Z"/>
    <g>
      <g>
        <path class="cls-8" d="m26.146,10.365c.214.48.9,1.01,1.089,1.269-.24.26-.288.231-.257.714.418-.417.425-.46.694-.397.588.56.105,1.762-.381,2.023-.486.279-.398-.01-1.127.34.334.272.721-.04,1.037.044.172.194-.082.549.052.883.28-.025.246-.564.311-.759.204-.714,1.432-1.213,1.494-1.869.259-.116.518-.036.832.132-.156-.614-.676-.607-.815-.799-.33-.482-.624-1.032-1.331-1.174-.537-.108-.497.033-.84-.191-.214-.158-.864-.46-.76-.216h0Z"/>
        <ellipse class="cls-4" cx="27.577" cy="10.91" rx=".112" ry=".107"/>
      </g>
      <g>
        <path class="cls-8" d="m24.43,12.401c.345-.404.516-1.231.669-1.511.353.081.349.135.782-.118-.581-.157-.625-.144-.692-.399.244-.757,1.584-.912,2.054-.624.486.28.177.34.842.791.096-.409-.374-.589-.444-.895.1-.236.547-.188.794-.456-.155-.224-.638.056-.849.092-.758.161-1.794-.641-2.431-.387-.228-.164-.275-.419-.266-.763-.497.419-.248.853-.361,1.059-.293.504-.666,1.008-.468,1.671.151.503.262.403.216.797-.048.255-.022.943.156.742h-.002Z"/>
        <ellipse class="cls-4" cx="24.268" cy="10.939" rx=".112" ry=".107"/>
      </g>
      <g>
        <path class="cls-8" d="m27.234,12.685c-.541-.072-1.371.216-1.703.236-.11-.33-.059-.355-.51-.577.159.556.194.584,0,.771-.806.192-1.638-.821-1.623-1.353,0-.54.214-.32.275-1.095-.417.133-.335.609-.573.825-.263.04-.451-.349-.82-.412-.121.242.38.491.522.645.538.535.353,1.795.911,2.184-.029.271-.234.441-.547.612.633.189.894-.239,1.138-.254.604-.022,1.249.021,1.742-.482.373-.383.226-.423.605-.588.253-.093.858-.469.585-.51h0v-.002Z"/>
        <ellipse class="cls-4" cx="26.007" cy="13.574" rx=".112" ry=".107"/>
      </g>
    </g>
    <path class="cls-7" d="m22.589,15.522c.265.504.577.909.936,1.267.826.82,1.193,1.129,2.477,1.973,1.284-.844,1.65-1.153,2.477-1.973.359-.359.67-.763.936-1.267h-6.825Z"/>
    <path class="cls-3" d="m21.257,7.138c0,6.22.721,8.363,2.165,9.806.861.854,1.243,1.176,2.58,2.056,1.337-.879,1.718-1.2,2.58-2.056,1.443-1.443,2.165-3.587,2.165-9.806-1.05.45-1.648.668-2.515.654-.775-.012-1.595-.371-2.231-.654-.635.283-1.456.642-2.231.654-.866.014-1.465-.205-2.515-.654h.002Zm.285.332c.988.425,1.549.63,2.364.617.728-.012,1.5-.351,2.097-.617.597.266,1.369.607,2.097.617.814.013,1.376-.193,2.364-.617,0,5.872-.677,7.894-2.035,9.257-.81.807-1.168,1.111-2.425,1.94-1.257-.83-1.615-1.133-2.425-1.94-1.357-1.363-2.035-3.386-2.035-9.257h0Z"/>
  </g>
</svg>