<?xml version="1.0" encoding="UTF-8"?>
<svg width="36px" height="24px" viewBox="0 0 36 24" version="1.1" xmlns="http://www.w3.org/2000/svg" xmlns:xlink="http://www.w3.org/1999/xlink">
    <!-- Generator: Sketch 55.2 (78181) - https://sketchapp.com -->
    <title>Flag / BZ</title>
    <desc>Created with Sketch.</desc>
    <g id="Flag-/-BZ" stroke="none" stroke-width="1" fill="none" fill-rule="evenodd">
        <path d="M4,0 L32,0 C34.209139,0 36,1.790861 36,4 L36,20 C36,22.209139 34.209139,24 32,24 L4,24 C1.790861,24 0,22.209139 0,20 L0,4 C0,1.790861 1.790861,0 4,0 Z" id="Mask" fill="#CE1126"></path>
        <path d="M35.4648706,1.99999889 C35.8052112,2.58834587 36,3.27142525 36,3.99999889 L36,19.9999989 C36,20.7285747 35.8052112,21.4116541 35.4648706,21.9999989 L0.535125519,21.9999989 C0.194788818,21.4116541 0,20.7285747 0,19.9999989 L0,3.99999889 C0,3.27142525 0.194788818,2.58834587 0.535129425,1.99999889 L35.4648745,1.99999889 L35.4648706,1.99999889 Z" id="Path" fill="#003F87"></path>
        <circle id="Oval" fill="#F7F7F7" fill-rule="nonzero" cx="18" cy="12" r="9"></circle>
        <path d="M23.7636693,11.298393 C23.8399766,11.16429 23.9332716,11.0405955 24.0412427,10.9303744 C24.4783009,10.5456848 25.0402344,10.3328816 25.6224752,10.3315645 L25.8532665,10.3315645 L25.8532665,10.5623558 C25.8488724,11.1440256 25.6364628,11.7049195 25.2544566,12.1435883 C24.832129,12.5155955 24.292024,12.7265567 23.7293625,12.7392795 C23.5962736,13.6492984 23.2476868,14.5143497 22.7126331,15.2623902 C22.8293352,15.2360731 22.9485455,15.222479 23.0681765,15.2218458 C23.647748,15.262023 24.1940104,15.5075094 24.6088646,15.9142198 L24.7710423,16.0795163 L24.6088646,16.241694 C24.1955882,16.6511692 23.6486395,16.8980712 23.0681765,16.9371868 C22.5542198,16.9091986 22.0640002,16.7117947 21.6740721,16.3758025 C20.9801917,16.9433892 20.1631112,17.3407146 19.2881886,17.5359968 C19.4132968,17.609497 19.5285734,17.6985744 19.6312568,17.8010949 C20.0128074,18.2388074 20.2252047,18.798563 20.2300668,19.3792087 L20.2300668,19.61 L19.9961566,19.61 C19.4163796,19.6054978 18.8574844,19.393007 18.4211617,19.01119 C18.0835439,18.6398895 17.8784539,18.1671953 17.8379458,17.6669864 C16.7042072,17.6330144 15.6063696,17.2616391 14.6848371,16.6003562 C14.7844746,16.8287551 14.8374916,17.0747539 14.8407772,17.3239182 C14.8019373,17.9044504 14.5549939,18.4514911 14.1452844,18.8646064 L13.9831067,19.0267841 L13.8178102,18.8646064 C13.4081006,18.4514911 13.1611572,17.9044504 13.1223173,17.3239182 C13.1567695,16.7570425 13.3936124,16.2213791 13.7897409,15.8144181 C13.0414174,15.004422 12.5413196,13.9966493 12.3488545,12.9108136 C12.2622598,13.0874673 12.1486143,13.2495173 12.0120239,13.3911091 C11.5737232,13.7712913 11.0141065,13.98253 10.4339101,13.9868002 L10.2,13.9868002 L10.2,13.7560089 C10.2043942,13.1743391 10.4168037,12.6134452 10.79881,12.1747764 C11.2076642,11.8133222 11.7287189,11.604019 12.2740032,11.582204 C12.3318018,10.5411637 12.6713717,9.53538985 13.2564258,8.67236187 C13.0145724,8.78348219 12.7522103,8.84296508 12.4860818,8.84701477 C11.9062388,8.80792163 11.3596174,8.56227395 10.9453936,8.15464076 L10.7832159,7.98934426 L10.9453936,7.82716657 C11.3581851,7.41698661 11.905411,7.16995953 12.4860818,7.13167375 C13.0507155,7.16651331 13.5846005,7.40084793 13.9924631,7.79285974 C14.7562111,7.04048033 15.7157432,6.51749214 16.7619591,6.28335964 C16.6383778,6.20900983 16.524234,6.11999856 16.4220097,6.01826149 C16.0400035,5.57959267 15.8275939,5.01869877 15.8231998,4.43702894 L15.8231998,4.2 L16.0508723,4.2 C16.6315793,4.2094836 17.1907861,4.42125423 17.6321048,4.79880996 C17.9697226,5.17011048 18.1748127,5.64280468 18.2153208,6.14301356 C19.4003291,6.18057862 20.5444986,6.58485183 21.4900627,7.30008905 C21.4704558,7.19725707 21.4600188,7.09288714 21.4588747,6.98820886 C21.5015728,6.41075959 21.749362,5.86761465 22.1574863,5.45687715 L22.319664,5.29469945 L22.4849605,5.45687715 C22.8939692,5.87047428 23.1407885,6.41724005 23.1804533,6.99756527 C23.1520534,7.52047145 22.9476078,8.01839554 22.6003562,8.41038251 C23.2474274,9.2471287 23.6500844,10.2467544 23.7636693,11.298393 Z M23.0182757,10.9241368 C23.0817585,10.9939546 23.1391462,11.0690803 23.1898098,11.1486905 C23.0642826,10.2985026 22.7299566,9.49269112 22.2167436,8.80335155 C21.8098456,9.1781407 21.2846714,9.39880214 20.7321939,9.42711192 C20.1532494,9.39325785 19.6055762,9.15316678 19.188387,8.75033192 L19.0262093,8.58815422 L19.188387,8.42285772 C19.6019841,8.01384908 20.1487499,7.76702971 20.7290751,7.72736491 C20.9060808,7.73023922 21.0816515,7.75967622 21.249915,7.81469136 C20.3876056,7.13192235 19.3300515,6.74189464 18.2309148,6.70127909 C18.2229773,7.27572524 18.0106881,7.82856186 17.6321048,8.26068002 C17.1957821,8.64249695 16.6368869,8.85498779 16.0571099,8.85948998 L15.8231998,8.85948998 L15.8231998,8.62869864 C15.8275939,8.04702882 16.0400035,7.48613491 16.4220097,7.0474661 C16.4853694,6.98426263 16.5542578,6.92685566 16.6278506,6.875932 C15.7766649,7.11163434 14.9995572,7.56029599 14.3698381,8.17959118 C14.7075047,8.56509605 14.9062526,9.0526325 14.9343412,9.5643392 C14.8960554,10.14501 14.6490284,10.6922359 14.2388484,11.1050273 L14.0766707,11.267205 L13.9113742,11.1050273 C13.5670342,10.7477767 13.3340546,10.298072 13.2408318,9.81072455 C12.9998111,10.3672042 12.8573449,10.961341 12.8197936,11.56661 C13.3549461,11.5922213 13.8649185,11.8014972 14.2637988,12.1591824 C14.6458051,12.5978512 14.8582146,13.1587451 14.8626088,13.7404149 L14.8626088,13.9712062 L14.6286986,13.9712062 C14.0485023,13.966936 13.4888856,13.7556973 13.0505849,13.3755151 L13.0131593,13.3318519 C13.2387279,14.109726 13.6411427,14.824893 14.1889476,15.4214491 C14.5759587,15.0846843 15.064507,14.8870693 15.5768144,14.8600648 C16.1579615,14.9000899 16.7055903,15.1467994 17.1206213,15.5555576 L17.2796802,15.7208541 L17.1206213,15.8830318 C16.7348369,16.2541407 16.2412595,16.4932855 15.7109229,16.5660494 C16.3689905,16.8952792 17.0901117,17.0792821 17.8254706,17.1056021 C17.833408,16.531156 18.0456973,15.9783193 18.4242805,15.5462012 C18.8622245,15.1629852 19.423585,14.950399 20.0055131,14.9473912 L20.2331856,14.9473912 L20.2331856,15.1594697 C20.2287914,15.7411396 20.0163819,16.3020335 19.6343756,16.7407023 C19.5710159,16.8039058 19.5021276,16.8613127 19.4285347,16.9122364 C20.1024804,16.727556 20.7324636,16.4093827 21.281103,15.9765958 C20.8976976,15.5695313 20.6692359,15.0408688 20.635511,14.4826897 C20.6746042,13.9028468 20.9202519,13.3562254 21.327885,12.9420016 L21.4931815,12.7798239 L21.658478,12.9420016 C22.0661112,13.3562254 22.3117589,13.9028468 22.3508521,14.4826897 C22.3490646,14.6379305 22.3259779,14.7921914 22.2822384,14.9411536 C22.7558215,14.2838226 23.0678187,13.5241307 23.1929286,12.7236855 C22.6775711,12.689715 22.1886723,12.4831689 21.8050617,12.1373507 C21.4230555,11.6986819 21.210646,11.137788 21.2062518,10.5561182 L21.2062518,10.3253269 L21.4370431,10.3253269 C22.018559,10.3305432 22.5791776,10.5428485 23.0182757,10.9241368 Z M23.1180773,12.2340336 C23.0790303,11.4584481 22.4590139,10.8384317 21.6834285,10.7993847 C21.7248613,11.1681737 21.8783381,11.5154015 22.1231795,11.7942825 C22.4011735,12.0405097 22.7488607,12.1941896 23.1180773,12.2340336 Z M21.4807063,15.4963003 C21.7100899,15.2103727 21.8461696,14.8609199 21.8705566,14.4951649 C21.8486959,14.1250783 21.7124761,13.7709068 21.4807063,13.4815543 C21.250075,13.7667597 21.1138354,14.116623 21.0908561,14.4826897 C21.1112739,14.8530871 21.2476573,15.2076842 21.4807063,15.4963003 Z M18.3120036,16.8685732 C19.0864997,16.8309565 19.705917,16.2115392 19.7435337,15.4370431 C18.9690376,15.4746598 18.3496203,16.0940771 18.3120036,16.8685732 Z M14.5694414,15.7333293 L14.5632038,15.7333293 C14.850158,15.96899 15.2032914,16.1095894 15.5736956,16.1356547 C15.9437823,16.1137941 16.2979538,15.9775743 16.5873062,15.7458045 C16.2989729,15.511818 15.9444014,15.3743533 15.5736956,15.3528355 C15.2075948,15.3724958 14.8566557,15.5054603 14.5694414,15.7333293 Z M12.938308,12.0624995 C12.9816506,12.4261252 13.1350868,12.7678202 13.3780591,13.0418033 C13.6552519,13.2892762 14.0033583,13.4431414 14.3729569,13.4815543 C14.3284633,13.1182486 14.1751742,12.7768813 13.9332058,12.5022506 C13.6543248,12.2574092 13.307097,12.1039323 12.938308,12.0624995 Z M14.4665209,9.567458 L14.4665209,9.57681441 C14.4465772,9.2034827 14.310251,8.84576273 14.0766707,8.5538474 C13.8436217,8.84246355 13.7072382,9.19706061 13.6868205,9.567458 C13.7072382,9.9378554 13.8436217,10.2924525 14.0766707,10.5810686 C14.3084405,10.2917162 14.4446603,9.93754468 14.4665209,9.567458 Z M17.7443817,6.93207043 C17.375934,6.97132369 17.0290695,7.12512209 16.7526027,7.37182149 C16.5059033,7.64828833 16.3521049,7.99515281 16.3128516,8.36360049 C16.6814649,8.32496637 17.0285115,8.17108723 17.3046306,7.92384942 C17.55133,7.64738259 17.7051284,7.30051811 17.7443817,6.93207043 Z M21.7426857,8.56944141 L21.7426857,8.57879781 C21.4560927,8.34298698 21.1025708,8.20332401 20.7321939,8.17959118 C20.3618412,8.20021747 20.007306,8.33657718 19.7185833,8.56944141 C20.0079357,8.80121117 20.3621072,8.93743098 20.7321939,8.95929164 C21.1011982,8.93679624 21.4541887,8.80061163 21.7426857,8.56944141 Z M22.319664,5.96524185 L22.319664,5.97459826 C22.0856504,6.26317986 21.9472233,6.6174225 21.9235762,6.98820886 C21.9460716,7.35721315 22.0822562,7.71020364 22.3134264,7.99870067 C22.5469904,7.71132562 22.6844426,7.35787714 22.7063955,6.98820886 C22.6886009,6.61496645 22.5532378,6.25690921 22.319664,5.96524185 Z M16.3128516,4.69277069 C16.3508593,5.06155091 16.5048205,5.40878271 16.7526027,5.68454969 C17.0287219,5.93178749 17.3757685,6.08566663 17.7443817,6.12430075 C17.7057476,5.7556875 17.5518684,5.40864092 17.3046306,5.13252176 C17.0288637,4.88473958 16.6816319,4.73077832 16.3128516,4.69277069 Z M11.4787088,7.98622546 C11.7673249,8.21927445 12.121922,8.35565794 12.4923194,8.37607569 C12.8627168,8.35565794 13.2173138,8.21927445 13.50593,7.98622546 C13.2165776,7.7544557 12.862406,7.61823589 12.4923194,7.59637523 C12.1221002,7.61762229 11.7677483,7.75391146 11.4787088,7.98622546 Z M11.6907873,13.0542785 L11.6845497,13.0542785 C11.9321929,12.7735253 12.0859382,12.4224191 12.1243007,12.0500243 C11.7555118,12.0914571 11.408284,12.244934 11.129403,12.4897753 C10.8827036,12.7662422 10.7289052,13.1131067 10.6896519,13.4815543 C11.0599879,13.4479333 11.4103008,13.2984228 11.6907873,13.0542785 Z M13.9737503,18.33441 C14.4931177,17.7596582 14.4931177,16.8850595 13.9737503,16.3103076 C13.4500009,16.8833658 13.4500009,17.7613518 13.9737503,18.33441 Z M19.7435337,19.1172293 C19.705917,18.3427332 19.0864997,17.7233159 18.3120036,17.6856993 C18.3496203,18.4601953 18.9690376,19.0796126 19.7435337,19.1172293 Z M24.0849059,16.0732787 C23.5091271,15.5534784 22.6334635,15.5534784 22.0576847,16.0732787 C22.6334635,16.593079 23.5091271,16.593079 24.0849059,16.0732787 Z M25.3667335,10.8149787 C24.9985825,10.8498736 24.6506343,10.9993059 24.3718357,11.2422546 C24.1265436,11.5196271 23.9729539,11.8660208 23.9320846,12.2340336 C24.2998712,12.1977183 24.6474045,12.0484641 24.9269824,11.8067577 C25.1736818,11.5302909 25.3274802,11.1834264 25.3667335,10.8149787 Z" id="Shape" fill="#007F00" fill-rule="nonzero"></path>
        <path d="M4,1 C2.34314575,1 1,2.34314575 1,4 L1,20 C1,21.6568542 2.34314575,23 4,23 L32,23 C33.6568542,23 35,21.6568542 35,20 L35,4 C35,2.34314575 33.6568542,1 32,1 L4,1 Z M4,0 L32,0 C34.209139,0 36,1.790861 36,4 L36,20 C36,22.209139 34.209139,24 32,24 L4,24 C1.790861,24 0,22.209139 0,20 L0,4 C0,1.790861 1.790861,0 4,0 Z" id="Mask" fill="#031619" fill-rule="nonzero" opacity="0.2"></path>
    </g>
</svg>