<?xml version="1.0" encoding="UTF-8"?>
<svg width="36px" height="24px" viewBox="0 0 36 24" version="1.1" xmlns="http://www.w3.org/2000/svg" xmlns:xlink="http://www.w3.org/1999/xlink">
    <!-- Generator: Sketch 55.2 (78181) - https://sketchapp.com -->
    <title>Flag / SZ</title>
    <desc>Created with Sketch.</desc>
    <g id="Flag-/-SZ" stroke="none" stroke-width="1" fill="none" fill-rule="evenodd">
        <path d="M4,0 L32,0 C34.209139,0 36,1.790861 36,4 L36,20 C36,22.209139 34.209139,24 32,24 L4,24 C1.790861,24 0,22.209139 0,20 L0,4 C0,1.790861 1.790861,0 4,0 Z" id="Mask" fill="#385DBF"></path>
        <rect id="Rectangle" fill="#FFD800" x="0" y="5" width="36" height="14"></rect>
        <rect id="Rectangle" fill="#C10000" x="0" y="7" width="36" height="10"></rect>
        <path d="M6,12 L30,12 L30,12.5 L6,12.5 L6,12 Z M8,11 L28,11 L28,11.5 L8,11.5 L8,11 Z M12,10 L28,10 L28,10.5 L12,10.5 L12,10 Z" id="Combined-Shape" fill="#E2C600"></path>
        <path d="M4,1 C2.34314575,1 1,2.34314575 1,4 L1,20 C1,21.6568542 2.34314575,23 4,23 L32,23 C33.6568542,23 35,21.6568542 35,20 L35,4 C35,2.34314575 33.6568542,1 32,1 L4,1 Z M4,0 L32,0 C34.209139,0 36,1.790861 36,4 L36,20 C36,22.209139 34.209139,24 32,24 L4,24 C1.790861,24 0,22.209139 0,20 L0,4 C0,1.790861 1.790861,0 4,0 Z" id="Mask" fill="#031619" fill-rule="nonzero" opacity="0.2"></path>
        <path d="M18,16 C13.7657778,16 11,12 11,12 C11,12 13.7657778,8 18,8 L18,16 Z" id="Path" fill="#000000"></path>
        <path d="M18,16 L18,8 C22.2342222,8 25,12 25,12 C25,12 22.2342222,16 18,16 Z" id="Path" fill="#FFFFFF"></path>
        <path d="M19.5,11 C19.7761424,11 20,11.2238576 20,11.5 L20,12.5 C20,12.7761424 19.7761424,13 19.5,13 C19.2238576,13 19,12.7761424 19,12.5 L19,11.5 C19,11.2238576 19.2238576,11 19.5,11 Z" id="Rectangle" fill="#000000"></path>
        <path d="M21.5,11 C21.7761424,11 22,11.2238576 22,11.5 L22,12.5 C22,12.7761424 21.7761424,13 21.5,13 C21.2238576,13 21,12.7761424 21,12.5 L21,11.5 C21,11.2238576 21.2238576,11 21.5,11 Z" id="Rectangle" fill="#000000"></path>
        <path d="M14.5,11 C14.7761424,11 15,11.2238576 15,11.5 L15,12.5 C15,12.7761424 14.7761424,13 14.5,13 C14.2238576,13 14,12.7761424 14,12.5 L14,11.5 C14,11.2238576 14.2238576,11 14.5,11 Z" id="Rectangle" fill="#FFFFFF"></path>
        <path d="M16.5,11 C16.7761424,11 17,11.2238576 17,11.5 L17,12.5 C17,12.7761424 16.7761424,13 16.5,13 C16.2238576,13 16,12.7761424 16,12.5 L16,11.5 C16,11.2238576 16.2238576,11 16.5,11 Z" id="Rectangle" fill="#FFFFFF"></path>
    </g>
</svg>