<?xml version="1.0" encoding="UTF-8"?>
<svg width="36px" height="24px" viewBox="0 0 36 24" version="1.1" xmlns="http://www.w3.org/2000/svg" xmlns:xlink="http://www.w3.org/1999/xlink">
    <!-- Generator: Sketch 55.2 (78181) - https://sketchapp.com -->
    <title>Flag / MH</title>
    <desc>Created with Sketch.</desc>
    <g id="Flag-/-MH" stroke="none" stroke-width="1" fill="none" fill-rule="evenodd">
        <path d="M4,0 L32,0 C34.209139,0 36,1.790861 36,4 L36,20 C36,22.209139 34.209139,24 32,24 L4,24 C1.790861,24 0,22.209139 0,20 L0,4 C0,1.790861 1.790861,0 4,0 Z" id="Mask" fill="#003799"></path>
        <path d="M35.1420254,1.5243178 C35.6793441,2.20532325 36,3.06521502 36,4 L36,5 L0.912778088,22.543611 C0.894269041,22.521172 0.875999897,22.4985277 0.857974583,22.4756822 L35.1420254,1.5243178 L35.1420254,1.5243178 Z" id="Path" fill="#EC6F00"></path>
        <path d="M36,5 L36,9 L0.977336722,22.6199246 C0.955506187,22.5947601 0.933984674,22.5693202 0.912778088,22.543611 L36,5 Z" id="Path" fill="#FFFFFF"></path>
        <path d="M4,1 C2.34314575,1 1,2.34314575 1,4 L1,20 C1,21.6568542 2.34314575,23 4,23 L32,23 C33.6568542,23 35,21.6568542 35,20 L35,4 C35,2.34314575 33.6568542,1 32,1 L4,1 Z M4,0 L32,0 C34.209139,0 36,1.790861 36,4 L36,20 C36,22.209139 34.209139,24 32,24 L4,24 C1.790861,24 0,22.209139 0,20 L0,4 C0,1.790861 1.790861,0 4,0 Z" id="Mask" fill="#031619" fill-rule="nonzero" opacity="0.2"></path>
        <polygon id="Path" fill="#FFFFFF" fill-rule="nonzero" points="8.23175391 6.46277037 8.5 2 8.76824609 6.46277037 9.70454384 4.0045812 9.28627977 6.60175271 10.827 4.46951777 9.75079049 6.8699381 11.790875 5.20912504 10.1300619 7.24920951 12.5304822 6.173 10.3982473 7.71372023 12.9954188 7.29545616 10.5372296 8.23175391 15 8.5 10.5372296 8.76824609 12.9954188 9.70454384 10.3982473 9.28627977 12.5304822 10.827 10.1300619 9.75079049 11.790875 11.790875 9.75079049 10.1300619 10.827 12.5304822 9.28627977 10.3982473 9.70454384 12.9954188 8.76824609 10.5372296 8.5 15 8.23175391 10.5372296 7.29545616 12.9954188 7.71372023 10.3982473 6.173 12.5304822 7.24920951 10.1300619 5.20912504 11.790875 6.8699381 9.75079049 4.46951777 10.827 6.60175271 9.28627977 4.0045812 9.70454384 6.46277037 8.76824609 2 8.5 6.46277037 8.23175391 4.0045812 7.29545616 6.60175271 7.71372023 4.46951777 6.173 6.8699381 7.24920951 5.20912504 5.20912504 7.24920951 6.8699381 6.173 4.46951777 7.71372023 6.60175271 7.29545616 4.0045812"></polygon>
    </g>
</svg>