<?xml version="1.0" encoding="UTF-8"?>
<svg width="36px" height="24px" viewBox="0 0 36 24" version="1.1" xmlns="http://www.w3.org/2000/svg" xmlns:xlink="http://www.w3.org/1999/xlink">
    <!-- Generator: Sketch 55.2 (78181) - https://sketchapp.com -->
    <title>Flag / SM</title>
    <desc>Created with Sketch.</desc>
    <g id="Flag-/-SM" stroke="none" stroke-width="1" fill="none" fill-rule="evenodd">
        <path d="M4,0 L32,0 C34.209139,0 36,1.790861 36,4 L36,20 C36,22.209139 34.209139,24 32,24 L4,24 C1.790861,24 0,22.209139 0,20 L0,4 C0,1.790861 1.790861,0 4,0 Z" id="Mask" fill="#FFFFFF"></path>
        <path d="M0,12 L36,12 L36,20 C36,22.209139 34.209139,24 32,24 L4,24 C1.790861,24 0,22.209139 0,20 L0,12 Z" id="Rectangle-path" fill="#38B8E9" fill-rule="nonzero"></path>
        <path d="M20.0931586,16.7804173 C20.0704112,16.9059334 20.0550221,16.9977133 20.0406567,17.087849 C20.2997025,17.1296266 20.4262102,17.2517998 20.6239618,17.2517998 C20.8218841,17.2517998 21.0197681,17.2296392 21.217633,17.0779439 C21.195825,17.3366288 20.970329,17.5331077 20.970329,17.5331077 C21.2713297,17.5464428 21.5638876,17.4825619 21.5638876,17.4825619 C21.1681955,17.9376674 20.6787531,18.180415 20.0305171,17.8405068 C19.7337198,17.6848032 19.4280818,17.861839 19.1401618,17.861839 C18.7444877,17.861839 18.8434768,17.5345149 18.8929902,17.3624505 C18.6831378,17.4048065 18.4985978,17.428663 18.2530795,17.432729 C17.9808588,17.432729 17.7322942,17.407774 17.5077398,17.3624505 C17.5572331,17.5345149 17.656223,17.861839 17.2605491,17.861839 C16.9726292,17.861839 16.6669911,17.6848033 16.3701938,17.8405068 C15.7219578,18.180415 15.2325537,17.937667 14.8368048,17.4825619 C14.8368048,17.4825619 15.1294004,17.5464427 15.4303819,17.5331077 C15.4303819,17.5331077 15.2048674,17.3366272 15.1830603,17.0779439 C15.3809444,17.229639 15.5787343,17.2517998 15.7767508,17.2517998 C15.9744848,17.2517998 16.10101,17.1296269 16.3599616,17.087849 C16.3484632,17.0152329 16.3362412,16.9415505 16.3200397,16.8500214 C14.3848005,16.2686769 13,14.7650955 13,12.9874113 C13,11.4899658 13.9924899,10.1406852 15.5591287,9.4131822 C15.7598151,9.31998906 15.9462403,9.56560651 15.8025041,9.7338323 C15.2764175,10.3495531 15.0428016,11.2893182 15.0428016,12.5754177 C15.0428016,14.6307186 16.4200028,16.28336 18.0984207,16.28336 C19.7768386,16.28336 21.1540398,14.6307186 21.1540398,12.5754177 C21.1540398,11.2893182 20.9204239,10.3495531 20.3943373,9.7338323 C20.2506011,9.56560651 20.4370263,9.31998906 20.6377127,9.4131822 C22.2043515,10.1406852 23.1968414,11.4899658 23.1968414,12.9874113 C23.1968414,14.6981166 21.9144271,16.154985 20.0931586,16.7804173 L20.0931586,16.7804173 Z M20.9300183,12.2705425 C20.9300183,13.9147233 19.5163744,16.2668803 18.0984207,16.2668803 L18.0889687,16.2668803 C16.674718,16.2576367 15.2668231,13.9099728 15.2668231,12.2705425 C15.2668231,11.2609282 15.7289424,10.321954 16.5541778,9.81564459 C16.2458981,9.32525713 16.0169947,8.75378317 16.0169947,8.48020142 C16.0169947,7.99482594 16.6609445,7.65217824 17.543518,7.54823464 C17.5739243,7.44980892 17.6296919,7.36130537 17.704881,7.29164007 L17.704881,7.11163438 C17.5922475,7.04194901 17.5173381,6.91686002 17.5173381,6.77454795 C17.5173381,6.63223588 17.5922475,6.50714689 17.704881,6.43746153 L17.704881,6.39551385 C17.704881,6.17755764 17.8805891,6 18.0984207,6 C18.3162523,6 18.4919604,6.17755764 18.4919604,6.39551385 L18.4919604,6.43746153 C18.6045939,6.50714689 18.6795033,6.63223588 18.6795033,6.77454795 C18.6795033,6.91686002 18.6045939,7.04194901 18.4919604,7.11163438 L18.4919604,7.29164007 C18.5671495,7.36130537 18.6229171,7.44980892 18.6533234,7.54823464 C19.5358969,7.65217824 20.1798467,7.99482594 20.1798467,8.48020142 C20.1798467,8.75378317 19.9509433,9.32525713 19.6426636,9.81564459 C20.467899,10.321954 20.9300183,11.2609282 20.9300183,12.2705425 Z M19.7678531,12.2705425 C19.7678531,11.3020499 19.1967749,10.5813687 18.0984207,10.5813687 C17.0000665,10.5813687 16.4289883,11.3020499 16.4289883,12.2705425 C16.4289883,13.9520611 17.4643167,15.8459894 18.0932227,15.8549126 L18.0950376,15.8549126 C18.7257909,15.8500459 19.7678531,13.9560202 19.7678531,12.2705425 Z M18.2050947,6.77454795 C18.1578522,6.75436308 18.1196866,6.71703002 18.0984207,6.6703718 C18.0771548,6.71703002 18.0389892,6.75436308 17.9917467,6.77454795 C18.0389892,6.79473282 18.0771548,6.83206589 18.0984207,6.8787241 C18.1196866,6.83206589 18.1578522,6.79473282 18.2050947,6.77454795 Z" id="Shape" fill="#E29D00" fill-rule="nonzero"></path>
        <path d="M4,1 C2.34314575,1 1,2.34314575 1,4 L1,20 C1,21.6568542 2.34314575,23 4,23 L32,23 C33.6568542,23 35,21.6568542 35,20 L35,4 C35,2.34314575 33.6568542,1 32,1 L4,1 Z M4,0 L32,0 C34.209139,0 36,1.790861 36,4 L36,20 C36,22.209139 34.209139,24 32,24 L4,24 C1.790861,24 0,22.209139 0,20 L0,4 C0,1.790861 1.790861,0 4,0 Z" id="Mask" fill="#031619" fill-rule="nonzero" opacity="0.2"></path>
    </g>
</svg>