<?xml version="1.0" encoding="UTF-8"?>
<svg width="36px" height="24px" viewBox="0 0 36 24" version="1.1" xmlns="http://www.w3.org/2000/svg" xmlns:xlink="http://www.w3.org/1999/xlink">
    <!-- Generator: Sketch 55.2 (78181) - https://sketchapp.com -->
    <title>Flag / GB</title>
    <desc>Created with Sketch.</desc>
    <g id="Flag-/-GB" stroke="none" stroke-width="1" fill="none" fill-rule="evenodd">
        <path d="M4,0 L32,0 C34.209139,0 36,1.790861 36,4 L36,20 C36,22.209139 34.209139,24 32,24 L4,24 C1.790861,24 0,22.209139 0,20 L0,4 C0,1.790861 1.790861,0 4,0 Z" id="Mask" fill="#00247D"></path>
        <path d="M32.2941651,0.0106522125 C34.0221056,0.13625111 35.4455488,1.35949786 35.8704403,2.98633807 L22.0666625,12 L35.8704403,21.0136619 C35.4455488,22.6405021 34.0221056,23.8637489 32.2941651,23.9893478 L18,14.6554702 L3.70583488,23.9893478 C1.97789441,23.8637489 0.554451223,22.6405021 0.129559725,21.0136619 L13.9333375,12 L0.129559725,2.98633807 C0.554451223,1.35949786 1.97789441,0.13625111 3.70583488,0.0106522125 L18,9.34452978 L32.2941651,0.0106522125 Z" id="Path" fill="#FFFFFF"></path>
        <path d="M33.090878,0.150560287 C33.6466458,0.307746693 34.1532422,0.582048225 34.5823215,0.94511903 L19.3416408,11.1055728 L18,10.2111456 L33.090878,0.150560287 L33.090878,0.150560287 Z" id="Path" fill="#CF142B"></path>
        <path d="M35.5241165,21.89389 C35.2849855,22.337927 34.9643834,22.7315945 34.5823215,23.054881 L19.3416408,12.8944272 L20.6832816,12 L35.5241165,21.89389 L35.5241165,21.89389 Z" id="Path" fill="#CF142B"></path>
        <path d="M2.909122,23.8494397 C2.3533542,23.6922533 1.84675776,23.4179518 1.41767854,23.054881 L16.6583592,12.8944272 L18,13.7888544 L2.909122,23.8494397 L2.909122,23.8494397 Z" id="Path" fill="#CF142B"></path>
        <path d="M0.475883465,2.10611003 C0.715014461,1.66207302 1.03561663,1.26840555 1.41767854,0.94511903 L16.6583592,11.1055728 L15.3167184,12 L0.475883465,2.10611003 L0.475883465,2.10611003 Z" id="Path" fill="#CF142B"></path>
        <polygon id="Path" fill="#FFFFFF" fill-rule="nonzero" points="21 9 36 9 36 15 21 15 21 24 15 24 15 15 2.84217094e-14 15 2.84217094e-14 9 15 9 15 5.32907052e-15 21 5.32907052e-15"></polygon>
        <polygon id="Path" fill="#CF142B" fill-rule="nonzero" points="19.8 10 36 10 36 14 19.8 14 19.8 24 16.2 24 16.2 14 2.84217094e-14 14 2.84217094e-14 10 16.2 10 16.2 5.32907052e-15 19.8 5.32907052e-15"></polygon>
        <path d="M4,1 C2.34314575,1 1,2.34314575 1,4 L1,20 C1,21.6568542 2.34314575,23 4,23 L32,23 C33.6568542,23 35,21.6568542 35,20 L35,4 C35,2.34314575 33.6568542,1 32,1 L4,1 Z M4,0 L32,0 C34.209139,0 36,1.790861 36,4 L36,20 C36,22.209139 34.209139,24 32,24 L4,24 C1.790861,24 0,22.209139 0,20 L0,4 C0,1.790861 1.790861,0 4,0 Z" id="Mask" fill="#031619" fill-rule="nonzero" opacity="0.2"></path>
    </g>
</svg>