<?xml version="1.0" encoding="UTF-8"?>
<svg width="36px" height="24px" viewBox="0 0 36 24" version="1.1" xmlns="http://www.w3.org/2000/svg" xmlns:xlink="http://www.w3.org/1999/xlink">
    <!-- Generator: Sketch 55.2 (78181) - https://sketchapp.com -->
    <title>Flag / JM</title>
    <desc>Created with Sketch.</desc>
    <g id="Flag-/-JM" stroke="none" stroke-width="1" fill="none" fill-rule="evenodd">
        <path d="M4,0 L32,0 C34.209139,0 36,1.790861 36,4 L36,20 C36,22.209139 34.209139,24 32,24 L4,24 C1.790861,24 0,22.209139 0,20 L0,4 C0,1.790861 1.790861,0 4,0 Z" id="Mask" fill="#000000"></path>
        <path d="M4,0 L32,0 C33.0190366,0 33.9490715,0.381061748 34.6553825,1.00846315 L20,12 L34.6553825,22.9915369 C33.9490715,23.6189383 33.0190366,24 32,24 L4,24 C2.9809634,24 2.05092855,23.6189383 1.34461753,22.9915369 L16,12 L1.34461753,1.00846315 C2.05092855,0.381061748 2.9809634,0 4,0 Z" id="Path" fill="#009F27"></path>
        <path d="M32,0 C33.5894038,0 34.962293,0.927009768 35.6074892,2.26985118 L21.8604651,11.7209302 L35.8915946,20.928859 C35.4727846,22.6900678 33.8893678,24 32,24 L18,14.375 L4,24 C2.11063217,24 0.527215403,22.6900678 0.108405365,20.928859 L14.1395349,11.7209302 L0.392510802,2.26985118 C1.03770705,0.927009768 2.41059616,0 4,0 L18,9.1875 L32,0 Z" id="Path" fill="#FFD000"></path>
        <path d="M4,1 C2.34314575,1 1,2.34314575 1,4 L1,20 C1,21.6568542 2.34314575,23 4,23 L32,23 C33.6568542,23 35,21.6568542 35,20 L35,4 C35,2.34314575 33.6568542,1 32,1 L4,1 Z M4,0 L32,0 C34.209139,0 36,1.790861 36,4 L36,20 C36,22.209139 34.209139,24 32,24 L4,24 C1.790861,24 0,22.209139 0,20 L0,4 C0,1.790861 1.790861,0 4,0 Z" id="Mask" fill="#031619" fill-rule="nonzero" opacity="0.2"></path>
    </g>
</svg>