<?xml version="1.0" encoding="UTF-8"?>
<svg width="36px" height="24px" viewBox="0 0 36 24" version="1.1" xmlns="http://www.w3.org/2000/svg" xmlns:xlink="http://www.w3.org/1999/xlink">
    <!-- Generator: Sketch 55.2 (78181) - https://sketchapp.com -->
    <title>Flag / ER</title>
    <desc>Created with Sketch.</desc>
    <g id="Flag-/-ER" stroke="none" stroke-width="1" fill="none" fill-rule="evenodd">
        <path d="M4,0 L32,0 C34.209139,0 36,1.790861 36,4 L36,20 C36,22.209139 34.209139,24 32,24 L4,24 C1.790861,24 0,22.209139 0,20 L0,4 C0,1.790861 1.790861,0 4,0 Z" id="Mask" fill="#238AE4"></path>
        <path d="M4,0 L32,0 C34.209139,0 36,1.790861 36,4 L36,12 L0,12 L0,4 C0,1.790861 1.790861,0 4,0 Z" id="Path" fill="#00B100"></path>
        <path d="M6.96909012e-07,20.0023869 L6.96909012e-07,3.99761309 C0.000690031536,2.81716923 0.512713906,1.7563281 1.32657265,1.02458939 L36.0000007,12 L1.32657265,22.9754106 C0.512713906,22.2436719 0.000690031536,21.1828308 6.96909012e-07,20.0023869 Z" id="Path" fill="#FF002C"></path>
        <path d="M4,1 C2.34314575,1 1,2.34314575 1,4 L1,20 C1,21.6568542 2.34314575,23 4,23 L32,23 C33.6568542,23 35,21.6568542 35,20 L35,4 C35,2.34314575 33.6568542,1 32,1 L4,1 Z M4,0 L32,0 C34.209139,0 36,1.790861 36,4 L36,20 C36,22.209139 34.209139,24 32,24 L4,24 C1.790861,24 0,22.209139 0,20 L0,4 C0,1.790861 1.790861,0 4,0 Z" id="Mask" fill="#031619" fill-rule="nonzero" opacity="0.2"></path>
        <path d="M9.87606543,16.4381916 C9.47056769,16.5501562 9.23809141,16.8647543 9.24404474,17.16157 L11.2400139,17.1535566 C11.2579493,16.8346077 10.9955545,16.5396236 10.5960862,16.4234616 C12.5503067,16.3830877 14.2480104,15.6510849 14.5565028,15.1813999 C14.2512157,15.0489054 13.8982277,15.2621485 13.6465943,15.2130732 C14.2440414,14.9369413 16.0340179,13.7783754 15.7430029,12.5363138 C15.5167845,13.2261869 14.8314907,13.7969976 14.5396365,13.9502521 C15.2082917,12.9349426 16.1213305,11.8778852 15.3291856,11.0593332 C15.3691784,11.5337494 15.027714,12.0558679 14.8769027,12.0950965 C15.2647696,11.0223173 15.6348543,9.6753893 14.7944752,8.78746052 C14.9048361,9.10839377 14.8602641,10.0137238 14.7083071,10.0544034 C14.6615223,9.32491938 14.5370412,7.79054443 13.7687857,7.81237265 C14.0127864,8.0295847 14.1195603,8.62245248 14.1249794,9.22127396 C13.9498975,8.81104387 13.7509262,8.50216956 13.3253557,8.1992482 C12.9810675,7.53898796 12.3685085,6.99191286 11.755873,6.6 C11.8246387,7.08059864 11.8815751,7.45976575 12.5525964,7.95822361 C12.2027375,7.93647191 11.852954,7.27323519 11.4790534,7.25484145 C11.1816274,7.24049286 10.9482351,7.52433403 10.462218,7.36100534 C10.5160245,7.5214337 10.742777,7.59248946 10.7906302,7.71116992 C10.6865275,7.78306517 10.4393977,7.69995047 10.2339392,7.59294747 C10.5165587,7.97791485 10.9544934,8.20428513 11.3262574,8.1278871 C11.7683896,8.04286461 12.242425,8.08781818 12.6945556,8.34509916 C12.5790801,8.40440131 12.1296209,8.40401945 11.8412012,8.36791954 C12.1033664,8.63336659 12.2792121,8.80928875 12.7350822,8.80638842 C13.1422592,8.80371766 13.3557315,8.58917637 13.4602922,8.72205275 C13.7156657,9.02466878 13.887542,9.32713214 14.1011669,9.68340271 C13.6292692,9.73553057 13.771533,9.14968442 13.2459808,8.85004487 C12.9506918,9.46123024 13.5856128,10.1857531 14.0178237,10.4869189 C14.0236244,10.9463 14.0907877,11.3306575 14.2856366,11.6804402 C14.4169867,11.9270362 14.5868032,12.1794326 14.5227691,12.7359713 C14.2640379,12.5475325 14.011184,11.9120008 14.1042199,11.4075135 C13.7803863,11.4958182 13.6537682,12.0652549 13.806412,12.3519203 C13.920437,12.5701245 13.9965297,12.9877577 13.8650273,13.1744409 C13.7368829,13.3483784 13.7234503,13.3289159 13.7251293,13.7022062 C13.7297086,13.9256 13.6049225,14.1897504 13.4016772,14.3739147 C13.4441123,14.216539 13.4925004,13.9457489 13.445486,13.7764669 C13.2848288,14.0490125 12.881773,14.3310216 12.7548499,14.6240214 C12.6302161,14.917708 12.5986186,15.4263932 11.9954474,15.5436996 C11.2194832,15.6977174 10.9516696,15.8321966 10.4523722,16.0365099 C10.3969626,15.6572666 10.5628097,14.8664196 10.8799274,14.9115255 C11.1895647,14.9666302 12.1283234,14.5880738 11.7925074,13.7972268 C11.7261836,14.0464944 11.5049268,14.2897317 11.2657342,14.3004932 C11.5241601,13.9652113 11.9853728,13.6180232 11.7607576,13.0562181 C11.635895,13.2950291 11.439519,13.581618 11.1417111,13.7428858 C11.460965,13.1310898 11.1788036,12.9480702 10.7997126,13.4519469 C10.6565328,13.6463386 10.5700602,14.0358849 10.4790843,14.5306037 C10.3301808,14.1282347 10.3400262,13.5985612 10.1635703,13.1684876 C9.97925285,12.703382 10.4081816,12.5805806 10.6100533,12.6179015 C11.1043134,12.7498622 11.9303446,12.7497857 11.8689816,11.9332184 C11.6555097,12.2094269 11.2811508,12.2947551 10.8768744,12.1953071 C11.3309128,11.8637655 11.6893969,11.2401397 11.183459,10.9145506 C11.166592,11.2598309 10.8993891,11.6469353 10.5426605,11.8252232 C10.4591647,11.5339024 10.4591647,11.2247224 10.5307546,10.8857773 C10.3315548,11.0954332 10.1860853,11.5316889 10.0703813,12.0276283 C10.0616803,11.537413 10.1544117,11.1841955 10.2231774,10.9205035 C10.3274331,10.5353073 10.5865457,10.7859482 10.9831906,10.81434 C11.3651815,10.8360152 11.8911155,10.6249091 11.7905993,10.1069127 C11.6601656,10.311837 11.3924285,10.3915934 11.1188908,10.3699182 C11.4482197,10.1704127 12.0220072,9.81589761 11.7073323,9.27057801 C11.5751427,9.47710477 11.5323261,9.65378952 11.1497245,9.7171372 C11.2499351,9.48664486 11.2665737,9.16075083 11.5635422,9.03161463 C11.0337921,8.92613756 10.7304889,9.27378368 10.5763188,9.81826341 C10.513811,9.44077566 10.4393977,9.30179366 10.4245907,9.02566131 C10.7109503,8.70762764 10.740945,8.08545238 10.1209829,7.94631734 C10.0841954,8.26725096 10.0951095,8.34372551 10.1656307,8.60505127 C9.87461564,8.43218248 9.46446208,8.33678003 9.19138272,8.58123911 C9.37638659,8.78089728 9.66274623,8.95666639 10.1041154,8.73892019 C9.99985972,9.08000193 9.72868816,9.02161616 9.35608505,8.8915632 C9.58382973,9.31934717 9.87125768,9.39536446 10.1884511,9.34606041 C10.3545275,9.78391862 10.3618544,10.1166055 9.87652343,10.7542749 C9.89896195,10.3580119 9.87079967,10.0627986 9.55597204,9.74239953 C9.28617412,9.47817345 9.06690161,9.7536955 9.48850343,10.3411445 C9.23274877,10.1527823 8.94326036,9.77048641 8.85610051,9.38826632 C8.77176521,9.86046932 8.84770524,10.4170087 9.10910751,10.7290126 C8.98546626,10.8611252 8.84488106,10.7149689 8.63690414,10.3917457 C8.7155922,11.4261357 9.15688489,11.6257173 9.74998223,11.3951496 C9.76684929,11.9629074 9.76684929,12.4886126 9.80058341,13.1744409 C9.45476931,12.6769744 9.0163762,12.3058976 8.77176521,12.2131667 C8.69590096,12.4914364 8.98264246,12.8539649 9.14284201,13.0563703 C8.89830642,13.0057692 8.36703007,12.6010344 8.36703007,12.6010344 C8.31360472,13.0620187 8.90960239,13.4892685 9.29464629,13.680378 C8.8421334,13.6606868 8.6424756,13.4892685 8.35016301,13.2081746 C8.355811,14.4871003 9.73586245,14.2650032 9.99451707,14.0682457 C10.0282516,14.6979006 10.0763343,15.4257821 10.1100688,16.0554381 C9.71991141,15.9873589 9.75059253,15.8700517 9.41676048,15.8391417 C8.49021332,15.8030414 7.7552344,14.7269035 7.51184401,13.9352932 C7.44200922,14.0655742 7.49741889,14.2018851 7.43353781,14.3619323 C7.28310717,13.9733778 7.090929,13.4715616 6.83319002,13.238017 C6.89882661,13.46454 6.90577209,13.6947266 6.88295171,14.1180839 C6.79449474,13.8437836 6.71221991,13.7596767 6.70626659,13.4376748 C6.71191457,13.1904685 6.94477233,13.0080588 6.93187428,12.6603366 C6.92233381,12.4064901 6.69077354,11.8562855 6.65673371,11.4303335 C6.54461687,11.8687266 6.47424831,12.3308554 6.30252435,12.6022558 C6.38785218,12.1340975 6.36049826,11.8110273 6.50485329,11.4959705 C6.67161646,11.1642758 6.81342264,10.8681472 6.70237448,10.5333992 C6.59590525,10.6626888 6.63253969,10.7801475 6.3650393,11.0942887 C6.30693561,10.7526717 6.71092241,10.2059019 7.10298757,9.98609526 C7.37950215,9.84039659 7.72806353,9.31927102 7.50100604,8.96208519 C7.24097778,9.14884456 7.12420512,9.40116437 6.75686814,9.83230704 C7.01888109,8.8080674 7.69967168,8.5401015 8.51471305,8.53659088 C8.69506147,8.53575064 9.05865901,8.47064858 9.16070122,8.23199016 C8.9309726,8.32067632 8.65934304,8.33197191 8.41763162,8.28358387 C8.5935534,8.02531073 8.9640199,8.05889218 9.30922332,8.05736587 C9.58001302,8.056068 10.00276,8.01935741 10.1736449,7.63370321 C9.84332384,7.77680651 9.32815121,7.80657237 9.00378349,7.7052166 C9.51964256,7.43793752 10.3276619,7.40916419 10.7420898,7.05838894 C10.2697342,6.70585856 9.0877373,7.14051148 8.34115745,7.65255459 C8.54982119,7.46175006 8.87960733,7.12326256 9.06155896,6.85003053 C8.65323742,6.65426485 7.62060289,7.79825325 7.26486647,8.47797554 C6.92698964,8.66877969 6.7918236,8.96788546 6.6606262,9.1766261 C6.84066965,8.56826416 6.85974984,8.1268188 7.00995129,7.62584209 C5.85173696,8.02454739 6.33315971,10.1645359 6.08122889,10.6765028 C6.11087996,10.1112628 6.08686899,9.3851368 5.85415602,9.01070205 C5.49741244,9.28286577 5.46862411,10.884709 5.80355485,12.2182805 C5.68260761,11.8613997 5.45432878,11.5282544 5.38109065,11.0939068 C4.8531112,12.0568596 5.69059852,13.1929104 6.3909048,14.0903024 C5.86368861,13.8156967 5.34241037,13.2250417 5,12.729866 C5.09450969,14.4533658 6.89432383,14.811468 7.17373799,15.2350537 C6.79449474,15.058522 6.06946778,14.7091966 5.76181444,15.0752361 C6.26265349,15.1908639 6.66215288,15.3245032 6.98407829,15.5355332 C7.45116783,16.1187086 8.33566175,16.373776 9.87606543,16.4381916 L9.87606543,16.4381916 Z" id="Path" fill="#FFC726" fill-rule="nonzero"></path>
    </g>
</svg>