<?xml version="1.0" encoding="UTF-8"?>
<svg width="36px" height="24px" viewBox="0 0 36 24" version="1.1" xmlns="http://www.w3.org/2000/svg" xmlns:xlink="http://www.w3.org/1999/xlink">
    <!-- Generator: Sketch 55.2 (78181) - https://sketchapp.com -->
    <title>Flag / LI</title>
    <desc>Created with Sketch.</desc>
    <g id="Flag-/-LI" stroke="none" stroke-width="1" fill="none" fill-rule="evenodd">
        <path d="M4,0 L32,0 C34.209139,0 36,1.790861 36,4 L36,20 C36,22.209139 34.209139,24 32,24 L4,24 C1.790861,24 0,22.209139 0,20 L0,4 C0,1.790861 1.790861,0 4,0 Z" id="Mask" fill="#002A84"></path>
        <path d="M0,12 L36,12 L36,20 C36,22.209139 34.209139,24 32,24 L4,24 C1.790861,24 0,22.209139 0,20 L0,12 Z" id="Rectangle-path" fill="#E00017" fill-rule="nonzero"></path>
        <path d="M4,1 C2.34314575,1 1,2.34314575 1,4 L1,20 C1,21.6568542 2.34314575,23 4,23 L32,23 C33.6568542,23 35,21.6568542 35,20 L35,4 C35,2.34314575 33.6568542,1 32,1 L4,1 Z M4,0 L32,0 C34.209139,0 36,1.790861 36,4 L36,20 C36,22.209139 34.209139,24 32,24 L4,24 C1.790861,24 0,22.209139 0,20 L0,4 C0,1.790861 1.790861,0 4,0 Z" id="Mask" fill="#031619" fill-rule="nonzero" opacity="0.2"></path>
        <path d="M6,5.08535285 L6,4 L8,4 L8,5.08535285 C8.15638946,5.03007711 8.32468229,5 8.5,5 C9.32842712,5 10,5.67157288 10,6.5 C10,7.15310941 9.58259619,7.70872894 9,7.91464715 L9,9 L5,9 L5,7.91464715 C4.41740381,7.70872894 4,7.15310941 4,6.5 C4,5.67157288 4.67157288,5 5.5,5 C5.67531771,5 5.84361054,5.03007711 6,5.08535285 L6,5.08535285 Z" id="Path" fill="#FFD700"></path>
    </g>
</svg>