<?xml version="1.0" encoding="UTF-8"?>
<svg width="36px" height="24px" viewBox="0 0 36 24" version="1.1" xmlns="http://www.w3.org/2000/svg" xmlns:xlink="http://www.w3.org/1999/xlink">
    <!-- Generator: Sketch 55.2 (78181) - https://sketchapp.com -->
    <title>Flag / FJ</title>
    <desc>Created with Sketch.</desc>
    <g id="Flag-/-FJ" stroke="none" stroke-width="1" fill="none" fill-rule="evenodd">
        <path d="M4,0 L32,0 C34.209139,0 36,1.790861 36,4 L36,20 C36,22.209139 34.209139,24 32,24 L4,24 C1.790861,24 0,22.209139 0,20 L0,4 C0,1.790861 1.790861,0 4,0 Z" id="Mask" fill="#45C1E9"></path>
        <g id="Group-2" transform="translate(21.000000, 7.000000)">
            <path d="M0,0 L10,0 L10,9 C8,11 6.33333333,12 5,12 C3.66666667,12 2,11 0,9 L0,0 Z" id="Path-7" fill="#FFFFFF"></path>
            <path d="M10,3 L6,3 L6,6 L10,6 L10,8 L6,8 L6,11.8328157 C5.64809064,11.9442719 5.3147573,12 5,12 C4.6852427,12 4.35190936,11.9442719 4,11.8328157 L4,8 L0,8 L0,6 L4,6 L4,3 L0,3 L0,0 L10,0 L10,3 Z" id="Path" fill="#DA0025"></path>
        </g>
        <path d="M16,0 L16,12 L0,12 L0,4 C0,1.790861 1.790861,0 4,0 L16,0 Z" id="Combined-Shape" fill="#00206D"></path>
        <path d="M15.349,0 L16,0 L16,2.558 L10.545,6.101 L16,9.643 L16,12 L15.04,12 L8.25,7.591 L1.46,12 L0,12 L0,9.968 L5.955,6.101 L0.316281479,2.4384369 C0.654816439,1.64083503 1.24482828,0.975787703 1.98683277,0.542779134 L8.25,4.61 L15.349,0 Z" id="Path" fill="#FFFFFF"></path>
        <path d="M0,11.892 L0,10.7 L7.082,6.1 L0.599718636,1.89228362 C0.777896692,1.60544616 0.991357966,1.3428133 1.23403724,1.11045027 L8,5.504 L16,0.31 L16,1.503 L8.918,6.1 L16,10.7 L16,11.892 L8,6.697 L0,11.892 Z" id="Path" fill="#DC1E35"></path>
        <polygon id="Shape" fill="#F7F7F7" fill-rule="nonzero" points="10 4 16 4 16 8 10 8 10 12 6 12 6 8 0 8 0 4 6 4 6 0 10 0"></polygon>
        <polygon id="Shape" fill="#DC1E35" fill-rule="nonzero" points="9 5 9 0 7 0 7 5 0 5 0 7 7 7 7 12 9 12 9 7 16 7 16 5"></polygon>
        <path d="M4,1 C2.34314575,1 1,2.34314575 1,4 L1,20 C1,21.6568542 2.34314575,23 4,23 L32,23 C33.6568542,23 35,21.6568542 35,20 L35,4 C35,2.34314575 33.6568542,1 32,1 L4,1 Z M4,0 L32,0 C34.209139,0 36,1.790861 36,4 L36,20 C36,22.209139 34.209139,24 32,24 L4,24 C1.790861,24 0,22.209139 0,20 L0,4 C0,1.790861 1.790861,0 4,0 Z" id="Mask" fill="#031619" fill-rule="nonzero" opacity="0.2"></path>
    </g>
</svg>