<?xml version="1.0" encoding="UTF-8"?>
<svg width="36px" height="24px" viewBox="0 0 36 24" version="1.1" xmlns="http://www.w3.org/2000/svg" xmlns:xlink="http://www.w3.org/1999/xlink">
    <!-- Generator: Sketch 55.2 (78181) - https://sketchapp.com -->
    <title>Flag / MW</title>
    <desc>Created with Sketch.</desc>
    <g id="Flag-/-MW" stroke="none" stroke-width="1" fill="none" fill-rule="evenodd">
        <path d="M0,16 L36,16 L36,20 C36,22.209139 34.209139,24 32,24 L4,24 C1.790861,24 0,22.209139 0,20 L0,16 Z" id="Rectangle-13" fill="#00A11B"></path>
        <polygon id="Rectangle-13-Copy" fill="#E00017" points="0 8 36 8 36 16 0 16"></polygon>
        <path d="M4,0 L32,0 C34.209139,0 36,1.790861 36,4 L36,8 L0,8 L0,4 C0,1.790861 1.790861,0 4,0 Z" id="Rectangle-13-Copy-2" fill="#000000"></path>
        <path d="M4,1 C2.34314575,1 1,2.34314575 1,4 L1,20 C1,21.6568542 2.34314575,23 4,23 L32,23 C33.6568542,23 35,21.6568542 35,20 L35,4 C35,2.34314575 33.6568542,1 32,1 L4,1 Z M4,0 L32,0 C34.209139,0 36,1.790861 36,4 L36,20 C36,22.209139 34.209139,24 32,24 L4,24 C1.790861,24 0,22.209139 0,20 L0,4 C0,1.790861 1.790861,0 4,0 Z" id="Mask" fill="#031619" fill-rule="nonzero" opacity="0.2"></path>
        <path d="M21.8030937,7 L14.0551286,7 C14.4991714,5.27477279 16.0652717,4 17.9291111,4 C19.7929506,4 21.3590509,5.27477279 21.8030937,7 L21.8030937,7 Z" id="Path" fill="#E00017"></path>
        <path d="M24.8582223,1 C24.3729926,4.39229414 21.4555831,7 17.9291111,7 C14.4026392,7 11.4852297,4.39229414 11,1 L13.0291293,1 C13.4923996,3.28224032 15.5101532,5 17.9291111,5 C20.3480691,5 22.3658227,3.28224032 22.829093,1 L24.8582223,1 L24.8582223,1 Z" id="Path" fill="#E00017" fill-rule="nonzero" transform="translate(17.929111, 4.000000) scale(1, -1) translate(-17.929111, -4.000000) "></path>
    </g>
</svg>