<?xml version="1.0" encoding="UTF-8"?>
<svg width="36px" height="24px" viewBox="0 0 36 24" version="1.1" xmlns="http://www.w3.org/2000/svg" xmlns:xlink="http://www.w3.org/1999/xlink">
    <!-- Generator: Sketch 55.2 (78181) - https://sketchapp.com -->
    <title>Flag / IR</title>
    <desc>Created with Sketch.</desc>
    <g id="Flag-/-IR" stroke="none" stroke-width="1" fill="none" fill-rule="evenodd">
        <path d="M4,0 L32,0 C34.209139,0 36,1.790861 36,4 L36,20 C36,22.209139 34.209139,24 32,24 L4,24 C1.790861,24 0,22.209139 0,20 L0,4 C0,1.790861 1.790861,0 4,0 Z" id="Mask" fill="#F7F7F7"></path>
        <path d="M0,16 L36,16 L36,20 C36,22.209139 34.209139,24 32,24 L4,24 C1.790861,24 0,22.209139 0,20 L0,16 Z" id="Rectangle" fill="#EE0000"></path>
        <path d="M4,0 L32,0 C34.209139,0 36,1.790861 36,4 L36,8 L0,8 L0,4 C0,1.790861 1.790861,0 4,0 Z" id="Rectangle" fill="#00A32F"></path>
        <path d="M4,1 C2.34314575,1 1,2.34314575 1,4 L1,20 C1,21.6568542 2.34314575,23 4,23 L32,23 C33.6568542,23 35,21.6568542 35,20 L35,4 C35,2.34314575 33.6568542,1 32,1 L4,1 Z M4,0 L32,0 C34.209139,0 36,1.790861 36,4 L36,20 C36,22.209139 34.209139,24 32,24 L4,24 C1.790861,24 0,22.209139 0,20 L0,4 C0,1.790861 1.790861,0 4,0 Z" id="Mask" fill="#031619" fill-rule="nonzero" opacity="0.2"></path>
        <path d="M18.0351656,14.3709454 L17.9345212,11.885644 L17.9345212,9.92999503 C18.0910912,9.85491269 18.226171,9.74151615 18.327238,9.6003177 C18.428305,9.74151615 18.5633848,9.85491269 18.7199548,9.92999503 L18.7199548,11.885644 L18.6193104,14.3709454 C19.0000597,14.094406 19.3243914,13.7355342 19.5636135,13.3101969 C20.1810917,12.212319 20.1256385,10.8598714 19.4203532,9.81622979 C20.516163,10.7590845 20.7947225,12.3440472 20.0860664,13.6040395 C19.7897634,14.1308669 19.3552723,14.5397169 18.8494542,14.804491 C19.2587133,14.954027 19.7001368,15.0242067 20.1510154,15.0024717 C19.632094,15.1710796 19.0954726,15.1926874 18.5903337,15.0864928 L18.5861202,15.1905389 L18.327238,15.54686 L18.0683558,15.1905389 L18.0641423,15.0864928 C17.5590034,15.1926874 17.022382,15.1710796 16.5034606,15.0024717 C16.9543392,15.0242067 17.3957627,14.954027 17.8050218,14.804491 C17.2992037,14.5397169 16.8647126,14.1308669 16.5684096,13.6040395 C15.8597535,12.3440472 16.138313,10.7590845 17.2341228,9.81622979 C16.5288375,10.8598714 16.4733842,12.212319 17.0908625,13.3101969 C17.3300846,13.7355342 17.6544162,14.094406 18.0351656,14.3709454 Z M20.3845447,14.4203169 C20.9177478,13.7151994 21.1484159,12.8268723 21.0256332,11.9514177 C20.9028506,11.0759631 20.4367126,10.2853632 19.7301109,9.75412853 C20.7345136,10.0056533 21.4859457,10.8413075 21.6297557,11.8666894 C21.7735657,12.8920714 21.2810044,13.9021958 20.3845447,14.4203169 Z M16.2699313,14.4203169 C15.3734716,13.9021958 14.8809103,12.8920714 15.0247203,11.8666894 C15.1685303,10.8413075 15.9199624,10.0056533 16.9243651,9.75412853 C16.2177634,10.2853632 15.7516254,11.0759631 15.6288427,11.9514177 C15.5060601,12.8268723 15.7367282,13.7151994 16.2699313,14.4203169 Z M18.3141569,9.16453755 L18.3198443,9.14331367 C18.3210616,9.14541498 18.3222939,9.14750377 18.3235412,9.14957994 C18.3247884,9.14750377 18.3260207,9.14541498 18.327238,9.14331367 L18.3329255,9.16453755 C18.4313921,9.31492957 18.6102672,9.39372798 18.7890058,9.36318554 C18.9759735,9.33123692 19.1233543,9.18638651 19.1585357,9 C19.2487667,9.22621059 19.1553452,9.48414584 18.9411828,9.60010835 C18.7288891,9.71505896 18.4646168,9.65440697 18.3235412,9.45930951 C18.1824655,9.65440697 17.9181932,9.71505896 17.7058995,9.60010835 C17.4917371,9.48414584 17.3983157,9.22621059 17.4885466,9 C17.523728,9.18638651 17.6711088,9.33123692 17.8580765,9.36318554 C18.0368151,9.39372798 18.2156902,9.31492957 18.3141569,9.16453755 Z" id="Shape" fill="#DA0000" fill-rule="nonzero"></path>
    </g>
</svg>