<?xml version="1.0" encoding="UTF-8"?>
<svg width="36px" height="24px" viewBox="0 0 36 24" version="1.1" xmlns="http://www.w3.org/2000/svg" xmlns:xlink="http://www.w3.org/1999/xlink">
    <!-- Generator: Sketch 55.2 (78181) - https://sketchapp.com -->
    <title>Flag / PH</title>
    <desc>Created with Sketch.</desc>
    <g id="Flag-/-PH" stroke="none" stroke-width="1" fill="none" fill-rule="evenodd">
        <path d="M4,0 L32,0 C34.209139,0 36,1.790861 36,4 L36,20 C36,22.209139 34.209139,24 32,24 L4,24 C1.790861,24 0,22.209139 0,20 L0,4 C0,1.790861 1.790861,0 4,0 Z" id="Mask" fill="#0036AF"></path>
        <path d="M0,12 L36,12 L36,20 C36,22.209139 34.209139,24 32,24 L4,24 C1.790861,24 0,22.209139 0,20 L0,12 Z" id="Rectangle" fill="#E00017"></path>
        <path d="M6.96909012e-07,20.0023869 L6.96909012e-07,3.99761309 C0.000690031536,2.81716923 0.512713906,1.7563281 1.32657265,1.02458939 L18.0000007,12 L1.32657265,22.9754106 C0.512713906,22.2436719 0.000690031536,21.1828308 6.96909012e-07,20.0023869 Z" id="Path" fill="#FFFFFF"></path>
        <path d="M4,1 C2.34314575,1 1,2.34314575 1,4 L1,20 C1,21.6568542 2.34314575,23 4,23 L32,23 C33.6568542,23 35,21.6568542 35,20 L35,4 C35,2.34314575 33.6568542,1 32,1 L4,1 Z M4,0 L32,0 C34.209139,0 36,1.790861 36,4 L36,20 C36,22.209139 34.209139,24 32,24 L4,24 C1.790861,24 0,22.209139 0,20 L0,4 C0,1.790861 1.790861,0 4,0 Z" id="Mask" fill="#031619" fill-rule="nonzero" opacity="0.2"></path>
        <path d="M1.5140579,4 L2.09656107,4.50338075 L2.77099415,4.13210918 L2.47225334,4.84165512 L3.03376616,5.36834942 L2.26662931,5.30349174 L1.93923064,6.00027823 L1.7638557,5.25064845 L1,5.15459212 L1.65874941,4.75615212 L1.5140579,4 Z M14.6275894,10.9775173 L14.6432729,11.747228 L15.3704631,12.0000002 L14.6432729,12.252772 L14.6275894,13.0224831 L14.1624742,12.4089931 L13.4255864,12.631929 L13.8653205,12.0000002 L13.4255864,11.3680714 L14.1624742,11.5910072 L14.6275894,10.9775173 Z M1.93923064,17.9997222 L2.26662931,18.6965087 L3.03376616,18.631651 L2.47225334,19.1583453 L2.77099415,19.8678912 L2.09656107,19.4966196 L1.5140579,20 L1.65874941,19.2438475 L1,18.8454083 L1.7638557,18.7493519 L1.93923064,17.9997222 Z M6.5670373,7.91461263 L6.81828878,8.1658645 L6.69368462,10.0688897 C6.73603921,10.0716202 6.77798122,10.0757267 6.819566,10.0811452 L7.04834767,8.34459961 L7.2533827,8.54963426 L6.9446822,10.1018257 C7.19855237,10.1520608 7.43440404,10.2521167 7.64200629,10.3911229 L8.52138356,9.07511829 L8.81144631,9.07511829 L7.7449062,10.4649157 C7.77840655,10.4906603 7.81098653,10.5175098 7.84270187,10.5453462 L9.1004896,9.11111929 L9.45591821,9.11111929 L9.45591821,9.46654828 L8.02169359,10.7243379 C8.04950024,10.7560146 8.07640317,10.7884204 8.10212485,10.8218755 L9.4919223,9.75558925 L9.4919223,10.0456516 L8.17616924,10.9247777 C8.31521877,11.1324144 8.41496665,11.3684251 8.46521292,11.6223576 L10.0174063,11.3136548 L10.222441,11.5186898 L8.48589306,11.7474719 C8.49131158,11.7890524 8.49543933,11.8309878 8.49814858,11.8733533 L10.4011742,11.7487487 L10.6524252,12.0000002 L10.4011742,12.2512517 L8.49814781,12.1266471 C8.49541726,12.1690021 8.49131081,12.2109395 8.48589229,12.2525285 L10.2224402,12.4813106 L10.0174056,12.6863456 L8.46521176,12.3776428 C8.41497903,12.6315153 8.31492113,12.8673669 8.17591457,13.0749669 L9.49192152,13.9543465 L9.49192152,14.2444088 L8.10212408,13.1778691 C8.07637762,13.2113671 8.04953004,13.2439471 8.02169359,13.2756624 L9.45591859,14.5334502 L9.45591859,14.8888788 L9.1004896,14.8888788 L7.84270226,13.4546542 C7.81102523,13.4824608 7.77861749,13.5093637 7.7451601,13.5350847 L8.81144631,14.9248817 L8.52138395,14.9248817 L7.64226019,13.6091314 C7.43462349,13.7481786 7.19861275,13.8479288 6.9446822,13.8981723 L7.2533827,15.4503661 L7.04834767,15.6554008 L6.819566,13.9188552 C6.77798548,13.9242737 6.73605237,13.9283589 6.69368462,13.9311107 L6.81828878,15.8341359 L6.5670373,16.085387 L6.31578621,15.8341359 L6.44039037,13.9311107 C6.39802726,13.9283802 6.35607248,13.9242737 6.31450899,13.9188552 L6.08572732,15.6554008 L5.88069228,15.4503661 L6.18939743,13.8984285 C5.93549668,13.8481931 5.69961947,13.7480067 5.49207295,13.6088775 L4.61269143,14.9248821 L4.32262868,14.9248821 L5.38916879,13.5350847 C5.35566418,13.5093146 5.32310162,13.48251 5.29137738,13.4546542 L4.03358965,14.8888788 L3.67816026,14.8888788 L3.67816026,14.5334502 L5.11238527,13.2756624 C5.084579,13.243973 5.0576753,13.2115932 5.03195478,13.178123 L3.64215733,14.2444088 L3.64215733,13.9543465 L4.95790614,13.0752227 C4.81883958,12.867545 4.71910447,12.6315625 4.6688671,12.3776428 L3.1166733,12.6863456 L2.91163846,12.4813106 L4.64818192,12.2527824 C4.64276341,12.2111953 4.63867824,12.1690253 4.6359264,12.1266471 L2.73290102,12.2512517 L2.48164974,12.0000002 L2.73290102,11.7487487 L4.63592679,11.8733533 C4.63865734,11.8309983 4.6427638,11.789059 4.64818231,11.7474719 L2.91163904,11.5186898 L3.11667388,11.3136548 L4.66886749,11.6223576 C4.7191006,11.3684851 4.81915385,11.1326334 4.95816042,10.9250312 L3.64215791,10.045652 L3.64215791,9.75558925 L5.03195517,10.8221313 C5.05769737,10.7886333 5.0845492,10.7560533 5.11238566,10.7243379 L3.67816084,9.46654828 L3.67816084,9.11111929 L4.03358965,9.11111929 L5.29137738,10.5453462 C5.3230544,10.5175396 5.35545789,10.4906367 5.38891489,10.4649157 L4.32262868,9.07511829 L4.61269143,9.07511829 L5.49181519,10.3908663 C5.69945188,10.2518211 5.93546263,10.1520708 6.18939743,10.101825 L5.88069228,8.54963348 L6.08572732,8.34459845 L6.31450899,10.0811444 C6.35608951,10.0757259 6.39802726,10.0716175 6.44039075,10.0688889 L6.31578621,8.16586372 L6.5670373,7.91461263 Z" id="Shape" fill="#FCD116" fill-rule="nonzero"></path>
    </g>
</svg>