<?xml version="1.0" encoding="UTF-8"?>
<svg width="36px" height="24px" viewBox="0 0 36 24" version="1.1" xmlns="http://www.w3.org/2000/svg" xmlns:xlink="http://www.w3.org/1999/xlink">
    <!-- Generator: Sketch 55.2 (78181) - https://sketchapp.com -->
    <title>Flag / ET</title>
    <desc>Created with Sketch.</desc>
    <g id="Flag-/-ET" stroke="none" stroke-width="1" fill="none" fill-rule="evenodd">
        <path d="M4,0 L32,0 C34.209139,0 36,1.790861 36,4 L36,20 C36,22.209139 34.209139,24 32,24 L4,24 C1.790861,24 0,22.209139 0,20 L0,4 C0,1.790861 1.790861,0 4,0 Z" id="Mask" fill="#FFDD00"></path>
        <path d="M4,0 L32,0 C34.209139,0 36,1.790861 36,4 L36,8 L0,8 L0,4 C0,1.790861 1.790861,0 4,0 Z" id="Path" fill="#008C1D"></path>
        <path d="M36,20 C36,22.209139 34.209139,24 32,24 L4,24 C1.790861,24 0,22.209139 0,20 L0,16 L36,16 L36,20 Z" id="Path" fill="#ED0000"></path>
        <path d="M4,1 C2.34314575,1 1,2.34314575 1,4 L1,20 C1,21.6568542 2.34314575,23 4,23 L32,23 C33.6568542,23 35,21.6568542 35,20 L35,4 C35,2.34314575 33.6568542,1 32,1 L4,1 Z M4,0 L32,0 C34.209139,0 36,1.790861 36,4 L36,20 C36,22.209139 34.209139,24 32,24 L4,24 C1.790861,24 0,22.209139 0,20 L0,4 C0,1.790861 1.790861,0 4,0 Z" id="Mask" fill="#031619" fill-rule="nonzero" opacity="0.2"></path>
        <circle id="Oval" fill="#0046B6" cx="18" cy="12" r="8"></circle>
        <path d="M18.0966093,7.42692858 L17.1761572,9.95817176 L19.0170614,9.95817176 L18.0966093,7.42692858 Z M13.7301547,10.3774661 L15.9998023,11.9662194 L16.5775307,10.3774661 L13.7301547,10.3774661 Z M15.1663382,15.4851741 L17.7310279,13.6898913 L16.2070819,12.6231291 L15.1663382,15.4851741 Z M21.0268804,15.4851741 L19.9861368,12.6231291 L18.4621907,13.6898913 L21.0268804,15.4851741 Z M22.4630639,10.3774661 L19.6156879,10.3774661 L20.1934164,11.9662194 L22.4630639,10.3774661 Z M17.0236866,10.3774661 L16.3554337,12.2151614 L18.0966093,13.4339843 L19.8377849,12.2151614 L19.169532,10.3774661 L17.0236866,10.3774661 Z M21.8750475,16.590705 L18.0966093,13.9457983 L14.3181711,16.590705 L15.8514504,12.374187 L12.4,9.95817176 L16.7300014,9.95817176 L18.0966093,6.2 L19.4632172,9.95817176 L23.7932186,9.95817176 L20.3417682,12.374187 L21.8750475,16.590705 Z" id="Path-6" fill="#FFDD00" fill-rule="nonzero"></path>
        <path d="M20.2157895,9.29535609 C20.1631258,9.35930488 20.0685927,9.36845325 20.0046439,9.31578954 C19.9406951,9.26312582 19.9315468,9.16859271 19.9842105,9.10464391 L21.3842105,7.40464391 C21.4368742,7.34069512 21.5314073,7.33154675 21.5953561,7.38421046 C21.6593049,7.43687418 21.6684532,7.53140729 21.6157895,7.59535609 L20.2157895,9.29535609 Z M12.4457164,13.6428636 C12.366815,13.6681121 12.2823848,13.6246178 12.2571364,13.5457164 C12.2318879,13.466815 12.2753822,13.3823848 12.3542836,13.3571364 L14.8542836,12.5571364 C14.933185,12.5318879 15.0176152,12.5753822 15.0428636,12.6542836 C15.0681121,12.733185 15.0246178,12.8176152 14.9457164,12.8428636 L12.4457164,13.6428636 Z M16.306066,9.09393398 C16.3646447,9.15251263 16.3646447,9.24748737 16.306066,9.30606602 C16.2474874,9.36464466 16.1525126,9.36464466 16.093934,9.30606602 L14.393934,7.60606602 C14.3353553,7.54748737 14.3353553,7.45251263 14.393934,7.39393398 C14.4525126,7.33535534 14.5474874,7.33535534 14.606066,7.39393398 L16.306066,9.09393398 Z M18.2466093,17.5 C18.2466093,17.5828427 18.179452,17.65 18.0966093,17.65 C18.0137666,17.65 17.9466093,17.5828427 17.9466093,17.5 L17.9466093,14.9946289 C17.9466093,14.9117862 18.0137666,14.8446289 18.0966093,14.8446289 C18.179452,14.8446289 18.2466093,14.9117862 18.2466093,14.9946289 L18.2466093,17.5 Z M23.5512615,13.359031 C23.6291165,13.3873419 23.6692799,13.4734064 23.640969,13.5512615 C23.6126581,13.6291165 23.5265936,13.6692799 23.4487385,13.640969 L21.2487385,12.840969 C21.1708835,12.8126581 21.1307201,12.7265936 21.159031,12.6487385 C21.1873419,12.5708835 21.2734064,12.5307201 21.3512615,12.559031 L23.5512615,13.359031 Z" id="Shape" fill="#FFDD00" fill-rule="nonzero"></path>
    </g>
</svg>