<?xml version="1.0" encoding="UTF-8"?>
<svg width="36px" height="24px" viewBox="0 0 36 24" version="1.1" xmlns="http://www.w3.org/2000/svg" xmlns:xlink="http://www.w3.org/1999/xlink">
    <!-- Generator: Sketch 55.2 (78181) - https://sketchapp.com -->
    <title>Flag / BB</title>
    <desc>Created with Sketch.</desc>
    <g id="Flag-/-BB" stroke="none" stroke-width="1" fill="none" fill-rule="evenodd">
        <path d="M4,0 L32,0 C34.209139,0 36,1.790861 36,4 L36,20 C36,22.209139 34.209139,24 32,24 L4,24 C1.790861,24 0,22.209139 0,20 L0,4 C0,1.790861 1.790861,0 4,0 Z" id="Mask" fill="#FFC726"></path>
        <path d="M4,0 L12,0 L12,24 L4,24 C1.790861,24 0,22.209139 0,20 L0,4 C0,1.790861 1.790861,0 4,0 Z" id="Rectangle-9" fill="#00267F"></path>
        <path d="M24,0 L32,0 C34.209139,0 36,1.790861 36,4 L36,20 C36,22.209139 34.209139,24 32,24 L24,24 L24,0 Z" id="Rectangle-9-Copy" fill="#00267F"></path>
        <path d="M4,1 C2.34314575,1 1,2.34314575 1,4 L1,20 C1,21.6568542 2.34314575,23 4,23 L32,23 C33.6568542,23 35,21.6568542 35,20 L35,4 C35,2.34314575 33.6568542,1 32,1 L4,1 Z M4,0 L32,0 C34.209139,0 36,1.790861 36,4 L36,20 C36,22.209139 34.209139,24 32,24 L4,24 C1.790861,24 0,22.209139 0,20 L0,4 C0,1.790861 1.790861,0 4,0 Z" id="Mask" fill="#031619" fill-rule="nonzero" opacity="0.2"></path>
        <path d="M18.5975672,17.628 L17.4024328,17.628 L17.4024328,14.472 C16.9229216,14.472 15.7642244,14.763 15.2861706,14.763 C15.2949155,12.0345 14.265934,9.735 13.0358202,7.7865 C12.9629462,7.689 13.011043,7.647 13.092662,7.668 C14.0196198,7.8165 14.9742697,8.3175 15.6272212,9.0135 C15.7030102,9.1095 15.223499,8.9085 15.1797745,8.9025 C14.8212343,8.7915 15.2861706,9.4215 15.3124053,9.5865 C15.6796905,10.794 15.9988788,11.961 16.1169347,13.35 C16.1169347,13.446 16.1315095,13.5165 16.175234,13.521 L17.4024328,13.3335 L17.4024328,8.8605 C17.1138516,8.853 16.6649475,8.931 16.4084309,9.018 C17.2348226,8.1705 17.621055,7.0635 18,6 C18.378945,7.0635 18.7651774,8.1705 19.5915691,9.018 C19.3350525,8.931 18.8861484,8.853 18.5975672,8.8605 L18.5975672,13.3335 L19.824766,13.521 C19.8684905,13.5165 19.8830653,13.446 19.8830653,13.35 C20.0011212,11.961 20.3203095,10.794 20.6875947,9.5865 C20.7138294,9.4215 21.1787657,8.7915 20.8202255,8.9025 C20.776501,8.9085 20.2969898,9.1095 20.3727788,9.0135 C21.0257303,8.3175 21.9803802,7.8165 22.907338,7.668 C22.988957,7.647 23.0370538,7.689 22.9641798,7.7865 C21.734066,9.735 20.7050845,12.0345 20.7138294,14.763 C20.2357756,14.763 19.0770784,14.472 18.5975672,14.472 C18.5975672,14.472 18.5975672,17.628 18.5975672,17.628 Z" id="Path" fill="#000000" fill-rule="nonzero"></path>
    </g>
</svg>