<?xml version="1.0" encoding="UTF-8"?>
<svg width="36px" height="24px" viewBox="0 0 36 24" version="1.1" xmlns="http://www.w3.org/2000/svg" xmlns:xlink="http://www.w3.org/1999/xlink">
    <!-- Generator: Sketch 55.2 (78181) - https://sketchapp.com -->
    <title>Flag / IL</title>
    <desc>Created with Sketch.</desc>
    <g id="Flag-/-IL" stroke="none" stroke-width="1" fill="none" fill-rule="evenodd">
        <path d="M4,0 L32,0 C34.209139,0 36,1.790861 36,4 L36,20 C36,22.209139 34.209139,24 32,24 L4,24 C1.790861,24 0,22.209139 0,20 L0,4 C0,1.790861 1.790861,0 4,0 Z" id="Mask" fill="#F7F7F7"></path>
        <path d="M36,20 C36,20.3452996 35.956247,20.6803801 35.8739825,21 L0.126017485,21 C0.0437530031,20.6803801 0,20.3452996 0,20 L0,17 L36,17 L36,20 Z" id="Path" fill="#0D5EAF"></path>
        <path d="M35.8739825,3 C35.956247,3.31961992 36,3.65470043 36,4 L36,7 L0,7 L0,4 C0,3.65470043 0.0437530031,3.31961992 0.126017485,3 L35.8739825,3 L35.8739825,3 Z" id="Path" fill="#0D5EAF"></path>
        <polygon id="bua" fill="#0D5EAF" fill-rule="nonzero" points="19.667 8.969 18 6 16.333 8.969 13 8.969 14.667 11.938 13 14.905 16.333 14.905 18 17.875 19.667 14.906 23 14.906 21.333 11.937 23 8.97 19.667 8.97"></polygon>
        <circle id="Oval" fill="#F7F7F7" fill-rule="nonzero" cx="18" cy="12" r="2"></circle>
        <path d="M4,1 C2.34314575,1 1,2.34314575 1,4 L1,20 C1,21.6568542 2.34314575,23 4,23 L32,23 C33.6568542,23 35,21.6568542 35,20 L35,4 C35,2.34314575 33.6568542,1 32,1 L4,1 Z M4,0 L32,0 C34.209139,0 36,1.790861 36,4 L36,20 C36,22.209139 34.209139,24 32,24 L4,24 C1.790861,24 0,22.209139 0,20 L0,4 C0,1.790861 1.790861,0 4,0 Z" id="Mask" fill="#031619" fill-rule="nonzero" opacity="0.2"></path>
    </g>
</svg>