<?xml version="1.0" encoding="UTF-8"?>
<svg width="36px" height="24px" viewBox="0 0 36 24" version="1.1" xmlns="http://www.w3.org/2000/svg" xmlns:xlink="http://www.w3.org/1999/xlink">
    <!-- Generator: Sketch 55.2 (78181) - https://sketchapp.com -->
    <title>Flag / MN</title>
    <desc>Created with Sketch.</desc>
    <g id="Flag-/-MN" stroke="none" stroke-width="1" fill="none" fill-rule="evenodd">
        <path d="M4,0 L32,0 C34.209139,0 36,1.790861 36,4 L36,20 C36,22.209139 34.209139,24 32,24 L4,24 C1.790861,24 0,22.209139 0,20 L0,4 C0,1.790861 1.790861,0 4,0 Z" id="Mask" fill="#0066B3"></path>
        <path d="M25,0 L32,0 C34.209139,0 36,1.790861 36,4 L36,20 C36,22.209139 34.209139,24 32,24 L25,24 L25,0 Z" id="Rectangle" fill="#DA2032"></path>
        <path d="M4,0 L11,0 L11,24 L4,24 C1.790861,24 0,22.209139 0,20 L0,4 C0,1.790861 1.790861,0 4,0 Z" id="Rectangle" fill="#DA2032"></path>
        <path d="M2,11.0814205 L3.59090909,11.0814205 L3.59090909,18.7177841 L2,18.7177841 L2,11.0814205 Z M7.40909091,11.0814205 L9,11.0814205 L9,18.7177841 L7.40909091,18.7177841 L7.40909091,11.0814205 Z M3.90909091,17.7632386 L7.09090909,17.7632386 L5.5,18.7177841 L3.90909091,17.7632386 Z M3.90909091,16.8086932 L7.09090909,16.8086932 L7.09090909,17.4450568 L3.90909091,17.4450568 L3.90909091,16.8086932 Z M3.90909091,11.0814205 L7.09090909,11.0814205 L5.5,12.0359659 L3.90909091,11.0814205 Z M3.90909091,12.3541477 L7.09090909,12.3541477 L7.09090909,12.9905114 L3.90909091,12.9905114 L3.90909091,12.3541477 Z M6.25566591,13.5013205 C6.76959318,13.7787432 7.09089318,14.3155477 7.09089318,14.8996023 C7.09089318,15.7782295 6.37857955,16.4905114 5.49998409,16.4905114 C5.0871127,16.4904587 4.75242255,16.1557828 4.75235227,15.7429114 C4.75240498,15.3300275 5.08710027,14.9953323 5.49998409,14.9952795 C6.01839773,14.9951523 6.43860455,14.5747386 6.43836591,14.0562932 C6.4380364,13.8565799 6.37403687,13.6621738 6.25566591,13.5013205 Z M5.49998409,15.4247295 C5.32425713,15.4247295 5.18180227,15.5671844 5.18180227,15.7429114 C5.18180227,15.9186383 5.32425713,16.0610932 5.49998409,16.0610932 C5.67571106,16.0610932 5.81816591,15.9186383 5.81816591,15.7429114 C5.81816591,15.5671844 5.67571106,15.4247295 5.49998409,15.4247295 Z M4.74430227,16.2978841 C4.230375,16.0204614 3.909075,15.4836568 3.909075,14.8996023 C3.909075,14.020975 4.62138864,13.3086932 5.49998409,13.3086932 C5.91285549,13.3087459 6.24754564,13.6434218 6.24761591,14.0562932 C6.2475632,14.469177 5.91286791,14.8038723 5.49998409,14.803925 C4.98157045,14.8040523 4.56136364,15.2244659 4.56160227,15.7429114 C4.56193178,15.9426246 4.62593131,16.1370307 4.74430227,16.2978841 Z M5.49998409,14.374475 C5.67571106,14.374475 5.81816591,14.2320201 5.81816591,14.0562932 C5.81816591,13.8805662 5.67571106,13.7381114 5.49998409,13.7381114 C5.32425713,13.7381114 5.18180227,13.8805662 5.18180227,14.0562932 C5.18180227,14.2320201 5.32425713,14.374475 5.49998409,14.374475 Z M3.75315,8.97839773 L3.75308636,8.97830227 C4.05558897,9.67466852 4.7419776,10.1255979 5.50120909,10.1267477 C6.25993028,10.1263916 6.94642918,9.67677794 7.24996818,8.98142045 C7.25002242,8.9920263 7.25002242,9.00263279 7.24996818,9.01323864 C7.24996818,9.97973695 6.46646649,10.7632386 5.49996818,10.7632386 C4.53346987,10.7632386 3.74996818,9.97973695 3.74996818,9.01323864 C3.75091267,9.00161469 3.75197333,8.99000047 3.75315,8.97839773 Z M5.50129659,9.80866932 C4.79838873,9.80866932 4.22856932,9.23884991 4.22856932,8.53594205 C4.22856932,7.83303418 4.79838873,7.26321477 5.50129659,7.26321477 C6.20420445,7.26321477 6.77402386,7.83303418 6.77402386,8.53594205 C6.77402386,9.23884991 6.20420445,9.80866932 5.50129659,9.80866932 Z M5.63373182,4.4 L5.6337,4.4 C5.52010909,4.50818182 5.50133636,4.64484091 5.50133636,4.72502273 C5.50133636,4.96162273 5.79155,5.11482727 5.79155,5.43845 C5.79155,5.66509091 5.66045909,5.68462727 5.66045909,5.99090909 C5.66841364,6.09781818 5.73157273,6.13886364 5.81955,6.15 C5.90741348,6.15 5.97864091,6.07877257 5.97864091,5.99090909 C5.97852458,5.95012432 5.9627491,5.91094189 5.93457273,5.88145455 C5.92954979,5.87577148 5.92412686,5.87045489 5.91834545,5.86554545 C5.88207273,5.82895455 5.83259545,5.81479545 5.83259545,5.71822727 C5.83259545,5.66852727 5.86505,5.62334545 5.89591364,5.53552727 C5.92486818,5.45025455 5.90386818,5.30770909 5.83498182,5.22355 C5.94628182,5.26653636 6.01500909,5.37325455 6.05000909,5.46902727 C6.08691818,5.58675455 6.05478182,5.65455909 6.10473636,5.7524 C6.1356,5.81571818 6.17298636,5.84196818 6.20782727,5.89478636 C6.24903182,5.95237727 6.29675909,6.08706364 6.29675909,6.14958636 C6.29675909,6.58890378 5.94062196,6.94504091 5.50130455,6.94504091 C5.06198713,6.94504091 4.70585,6.58890378 4.70585,6.14958636 C4.70585,6.08706364 4.75421364,5.95237727 4.79541818,5.89478636 C4.83025909,5.84196818 4.86700909,5.81571818 4.89787273,5.7524 C4.94846364,5.65455909 4.91632727,5.58675455 4.95323636,5.46902727 C4.98823636,5.37325455 5.05686818,5.26650455 5.16823182,5.22355 C5.09934545,5.30770909 5.07834545,5.45025455 5.1073,5.53552727 C5.13800455,5.62340909 5.17014091,5.66859091 5.17014091,5.71822727 C5.17045909,5.81479545 5.12066364,5.82895455 5.08439091,5.86554545 C5.0786095,5.87045489 5.07318658,5.87577148 5.06816364,5.88145455 C5.03998727,5.91094189 5.02421178,5.95012432 5.02409545,5.99090909 C5.02409545,6.07877257 5.09532288,6.15 5.18318636,6.15 C5.25986818,6.14045455 5.32795909,6.11293182 5.34227727,5.99090909 C5.34227727,5.75844545 5.25955,5.65974545 5.25955,5.57017727 C5.25955,5.30955455 5.44848636,5.24941818 5.44848636,5.06681364 C5.44371364,4.9607 5.39582727,4.83848636 5.40378182,4.72998636 C5.41650909,4.60112273 5.47559545,4.47175 5.63373182,4.4 Z" id="Shape" fill="#FFD900" fill-rule="nonzero"></path>
        <path d="M4,1 C2.34314575,1 1,2.34314575 1,4 L1,20 C1,21.6568542 2.34314575,23 4,23 L32,23 C33.6568542,23 35,21.6568542 35,20 L35,4 C35,2.34314575 33.6568542,1 32,1 L4,1 Z M4,0 L32,0 C34.209139,0 36,1.790861 36,4 L36,20 C36,22.209139 34.209139,24 32,24 L4,24 C1.790861,24 0,22.209139 0,20 L0,4 C0,1.790861 1.790861,0 4,0 Z" id="Mask" fill="#031619" fill-rule="nonzero" opacity="0.2"></path>
    </g>
</svg>