<?xml version="1.0" encoding="UTF-8"?>
<svg width="36px" height="24px" viewBox="0 0 36 24" version="1.1" xmlns="http://www.w3.org/2000/svg" xmlns:xlink="http://www.w3.org/1999/xlink">
    <!-- Generator: Sketch 55.2 (78181) - https://sketchapp.com -->
    <title>Flag / TT</title>
    <desc>Created with Sketch.</desc>
    <g id="Flag-/-TT" stroke="none" stroke-width="1" fill="none" fill-rule="evenodd">
        <path d="M4,0 L32,0 C34.209139,0 36,1.790861 36,4 L36,20 C36,22.209139 34.209139,24 32,24 L4,24 C1.790861,24 0,22.209139 0,20 L0,4 C0,1.790861 1.790861,0 4,0 Z" id="Mask" fill="#ED002C"></path>
        <path d="M8,0 L33.626676,23.6553932 C33.1296999,23.8768841 32.5792276,24 32,24 L28,24 L2.37332404,0.344606808 C2.8703001,0.123115935 3.42077241,0 4,0 L8,0 Z" id="Path" fill="#000000"></path>
        <path d="M28,24 L26,24 L1.21883732,1.1250806 C1.55285985,0.80188441 1.9430412,0.536374041 2.37332404,0.344606808 L28,24 Z" id="Path" fill="#FFFFFF"></path>
        <path d="M8,0 L10,0 L34.7811627,22.8749194 C34.4471401,23.1981156 34.0569588,23.463626 33.626676,23.6553932 L8,0 Z" id="Path" fill="#FFFFFF"></path>
        <path d="M4,1 C2.34314575,1 1,2.34314575 1,4 L1,20 C1,21.6568542 2.34314575,23 4,23 L32,23 C33.6568542,23 35,21.6568542 35,20 L35,4 C35,2.34314575 33.6568542,1 32,1 L4,1 Z M4,0 L32,0 C34.209139,0 36,1.790861 36,4 L36,20 C36,22.209139 34.209139,24 32,24 L4,24 C1.790861,24 0,22.209139 0,20 L0,4 C0,1.790861 1.790861,0 4,0 Z" id="Mask" fill="#031619" fill-rule="nonzero" opacity="0.2"></path>
    </g>
</svg>