<?xml version="1.0" encoding="UTF-8"?>
<svg width="36px" height="24px" viewBox="0 0 36 24" version="1.1" xmlns="http://www.w3.org/2000/svg" xmlns:xlink="http://www.w3.org/1999/xlink">
    <!-- Generator: Sketch 55.2 (78181) - https://sketchapp.com -->
    <title>Flag / DZ</title>
    <desc>Created with Sketch.</desc>
    <g id="Flag-/-DZ" stroke="none" stroke-width="1" fill="none" fill-rule="evenodd">
        <path d="M4,0 L32,0 C34.209139,0 36,1.790861 36,4 L36,20 C36,22.209139 34.209139,24 32,24 L4,24 C1.790861,24 0,22.209139 0,20 L0,4 C0,1.790861 1.790861,0 4,0 Z" id="Mask" fill="#00642E"></path>
        <path d="M25,0 L32,0 C34.209139,0 36,1.790861 36,4 L36,20 C36,22.209139 34.209139,24 32,24 L18,24 L18,0 L25,0 Z" id="Combined-Shape" fill="#FFFFFF"></path>
        <path d="M4,1 C2.34314575,1 1,2.34314575 1,4 L1,20 C1,21.6568542 2.34314575,23 4,23 L32,23 C33.6568542,23 35,21.6568542 35,20 L35,4 C35,2.34314575 33.6568542,1 32,1 L4,1 Z M4,0 L32,0 C34.209139,0 36,1.790861 36,4 L36,20 C36,22.209139 34.209139,24 32,24 L4,24 C1.790861,24 0,22.209139 0,20 L0,4 C0,1.790861 1.790861,0 4,0 Z" id="Mask" fill="#031619" fill-rule="nonzero" opacity="0.2"></path>
        <path d="M23.2187574,9.00660053 C21.8581989,6.65004415 19.0844615,5.50112449 16.4560644,6.20540137 C13.8276673,6.90967825 12,9.29154059 12,12.0126575 C12,14.7337744 13.8276673,17.1156368 16.4560644,17.8199136 C19.0844615,18.5241905 21.8581989,17.3752708 23.2187574,15.0187145 C21.9423355,16.6129649 19.7982824,17.2272908 17.8712659,16.5509073 C15.9442494,15.8745237 14.6545022,14.0549325 14.6545022,12.0126575 C14.6545022,9.97038246 15.9442494,8.15079129 17.8712659,7.47440772 C19.7982824,6.79802416 21.9423355,7.41235008 23.2187574,9.00660053 L23.2187574,9.00660053 Z M21.3730894,11.3377557 L23.4502237,12.0126575 L21.3730894,12.6875593 L21.3730895,14.8715876 L20.0893499,13.1046716 L18.0122156,13.7795734 L19.2959552,12.0126575 L18.0122156,10.2457416 L20.0893499,10.9206434 L21.3730894,9.15372742 L21.3730894,11.3377557 L21.3730894,11.3377557 Z" id="Combined-Shape" fill="#D21034" fill-rule="nonzero"></path>
    </g>
</svg>