<?xml version="1.0" encoding="UTF-8"?>
<svg width="36px" height="24px" viewBox="0 0 36 24" version="1.1" xmlns="http://www.w3.org/2000/svg" xmlns:xlink="http://www.w3.org/1999/xlink">
    <!-- Generator: Sketch 55.2 (78181) - https://sketchapp.com -->
    <title>Flag / KE</title>
    <desc>Created with Sketch.</desc>
    <g id="Flag-/-KE" stroke="none" stroke-width="1" fill="none" fill-rule="evenodd">
        <path d="M0,16 L36,16 L36,20 C36,22.209139 34.209139,24 32,24 L4,24 C1.790861,24 0,22.209139 0,20 L0,16 Z" id="Rectangle-13" fill="#006900"></path>
        <polygon id="Rectangle-13-Copy" fill="#FFFFFF" points="0 8 36 8 36 16 0 16"></polygon>
        <polygon id="Rectangle-13-Copy" fill="#CC0000" points="0 9 36 9 36 15 0 15"></polygon>
        <path d="M4,0 L32,0 C34.209139,0 36,1.790861 36,4 L36,8 L0,8 L0,4 C0,1.790861 1.790861,0 4,0 Z" id="Rectangle-13-Copy-2" fill="#000000"></path>
        <path d="M4,1 C2.34314575,1 1,2.34314575 1,4 L1,20 C1,21.6568542 2.34314575,23 4,23 L32,23 C33.6568542,23 35,21.6568542 35,20 L35,4 C35,2.34314575 33.6568542,1 32,1 L4,1 Z M4,0 L32,0 C34.209139,0 36,1.790861 36,4 L36,20 C36,22.209139 34.209139,24 32,24 L4,24 C1.790861,24 0,22.209139 0,20 L0,4 C0,1.790861 1.790861,0 4,0 Z" id="Mask" fill="#031619" fill-rule="nonzero" opacity="0.2"></path>
        <g id="Group" transform="translate(13.000000, 4.000000)" fill-rule="nonzero">
            <path d="M4.47372817,8.03571429 L1.78874852,3.38519311 C1.39671317,3.28014755 1.18147082,2.90733687 0.966228472,2.53452619 C0.822733574,2.28598574 0.248753982,1.29182392 0,-2.84217094e-14 C0.994375344,0.86133923 1.56835494,1.85550105 1.71184983,2.1040415 C1.92709218,2.47685218 2.14233453,2.84966286 2.03728897,3.24169821 L4.63942181,7.74872449 L7.24155464,3.24169821 C7.13650908,2.84966286 7.35175143,2.47685218 7.56699378,2.1040415 C7.71048868,1.85550105 8.28446827,0.86133923 9.27884361,-2.84217094e-14 C9.03008963,1.29182392 8.45611004,2.28598574 8.31261514,2.53452619 C8.09737279,2.90733687 7.88213045,3.28014755 7.49009509,3.38519311 L4.80511544,8.03571429 L8.7403393,14.8517219 L8.49179884,14.9952168 L4.63942181,8.32270408 L0.787044771,14.9952168 L0.538504317,14.8517219 L4.47372817,8.03571429 Z" id="Path" fill="#FFFFFF"></path>
            <path d="M1.91301874,11.4795918 C2.34350344,12.627551 3.77845242,14.9234694 4.63942181,14.9234694 C5.50039119,14.9234694 6.93534017,12.627551 7.36582487,11.4795918 L7.36582487,4.59183673 C6.93534017,3.44387755 5.50039119,1.14795918 4.63942181,1.14795918 C3.77845242,1.14795918 2.34350344,3.44387755 1.91301874,4.59183673 L1.91301874,11.4795918 Z" id="Path" fill="#BB0000"></path>
            <path d="M7.36582487,11.4795918 C6.93534017,10.3316327 6.64835038,9.18367347 6.64835038,8.03571429 C6.64835038,6.8877551 6.93534017,5.73979592 7.36582487,4.59183673 C7.79630956,5.73979592 8.08329936,6.8877551 8.08329936,8.03571429 C8.08329936,9.18367347 7.79630956,10.3316327 7.36582487,11.4795918 Z M1.91301874,11.4795918 C1.48253405,10.3316327 1.19554425,9.18367347 1.19554425,8.03571429 C1.19554425,6.8877551 1.48253405,5.73979592 1.91301874,4.59183673 C2.34350344,5.73979592 2.63049323,6.8877551 2.63049323,8.03571429 C2.63049323,9.18367347 2.34350344,10.3316327 1.91301874,11.4795918 Z" id="Shape" fill="#000000"></path>
            <path d="M4.63942181,8.89668367 C4.32242163,8.89668367 4.06544221,8.51121455 4.06544221,8.03571429 C4.06544221,7.56021402 4.32242163,7.1747449 4.63942181,7.1747449 C4.95642198,7.1747449 5.2134014,7.56021402 5.2134014,8.03571429 C5.2134014,8.51121455 4.95642198,8.89668367 4.63942181,8.89668367 Z M4.7829167,8.87515944 C4.7829167,8.87515944 5.3568963,10.0231186 5.3568963,11.8885523 C5.3568963,13.753986 4.7829167,14.9019452 4.7829167,14.9019452 L4.7829167,8.87515944 Z M4.49592691,7.19626913 C4.49592691,7.19626913 3.92194732,6.04830995 3.92194732,4.18287628 C3.92194732,2.3174426 4.49592691,1.16948342 4.49592691,1.16948342 L4.49592691,7.19626913 Z M4.49592691,8.87515944 L4.49592691,14.9019452 C4.49592691,14.9019452 3.92194732,13.753986 3.92194732,11.8885523 C3.92194732,10.0231186 4.49592691,8.87515944 4.49592691,8.87515944 Z M4.7829167,7.19626913 L4.7829167,1.16948342 C4.7829167,1.16948342 5.3568963,2.3174426 5.3568963,4.18287628 C5.3568963,6.04830995 4.7829167,7.19626913 4.7829167,7.19626913 Z" id="Shape" fill="#FFFFFF"></path>
        </g>
    </g>
</svg>