<?xml version="1.0" encoding="UTF-8"?>
<svg width="36px" height="24px" viewBox="0 0 36 24" version="1.1" xmlns="http://www.w3.org/2000/svg" xmlns:xlink="http://www.w3.org/1999/xlink">
    <!-- Generator: Sketch 55.2 (78181) - https://sketchapp.com -->
    <title>Flag / PA</title>
    <desc>Created with Sketch.</desc>
    <g id="Flag-/-PA" stroke="none" stroke-width="1" fill="none" fill-rule="evenodd">
        <path d="M4,0 L32,0 C34.209139,0 36,1.790861 36,4 L36,20 C36,22.209139 34.209139,24 32,24 L4,24 C1.790861,24 0,22.209139 0,20 L0,4 C0,1.790861 1.790861,0 4,0 Z" id="Mask" fill="#FFFFFF"></path>
        <path d="M4,24 C1.790861,24 0,22.209139 0,20 L0,12 L18,12 L18,24 L4,24 Z" id="Path" fill="#005298"></path>
        <polygon id="Star" fill="#FF000F" points="26.9630563 19.3266101 25.1317868 20.636068 25.8112619 18.4897825 24 17.1527864 26.2512082 17.1357669 26.9630563 15 27.6749044 17.1357669 29.9261126 17.1527864 28.1148507 18.4897825 28.7943258 20.636068"></polygon>
        <polygon id="Star-Copy" fill="#005298" points="8.9630563 7.32661011 7.1317868 8.636068 7.81126186 6.48978246 6 5.15278641 8.25120819 5.1357669 8.9630563 3 9.67490441 5.1357669 11.9261126 5.15278641 10.1148507 6.48978246 10.7943258 8.636068"></polygon>
        <path d="M18,0 L32,0 C34.209139,0 36,1.790861 36,4 L36,12 L18,12 L18,0 Z" id="Path" fill="#E5002C"></path>
        <path d="M4,1 C2.34314575,1 1,2.34314575 1,4 L1,20 C1,21.6568542 2.34314575,23 4,23 L32,23 C33.6568542,23 35,21.6568542 35,20 L35,4 C35,2.34314575 33.6568542,1 32,1 L4,1 Z M4,0 L32,0 C34.209139,0 36,1.790861 36,4 L36,20 C36,22.209139 34.209139,24 32,24 L4,24 C1.790861,24 0,22.209139 0,20 L0,4 C0,1.790861 1.790861,0 4,0 Z" id="Mask" fill="#031619" fill-rule="nonzero" opacity="0.2"></path>
    </g>
</svg>