<?xml version="1.0" encoding="UTF-8"?>
<svg width="36px" height="24px" viewBox="0 0 36 24" version="1.1" xmlns="http://www.w3.org/2000/svg" xmlns:xlink="http://www.w3.org/1999/xlink">
    <!-- Generator: Sketch 55.2 (78181) - https://sketchapp.com -->
    <title>Flag / ZA</title>
    <desc>Created with Sketch.</desc>
    <g id="Flag-/-ZA" stroke="none" stroke-width="1" fill="none" fill-rule="evenodd">
        <path d="M4,0 L32,0 C34.209139,0 36,1.790861 36,4 L36,20 C36,22.209139 34.209139,24 32,24 L4,24 C1.790861,24 0,22.209139 0,20 L0,4 C0,1.790861 1.790861,0 4,0 Z" id="Mask" fill="#F7F7F7"></path>
        <path d="M12.667,17 L36,17 L36,20 C36,22.209139 34.209139,24 32,24 L4,24 C3.7939379,24 3.59151508,23.9844184 3.39384548,23.9543691 L12.667,17 Z" id="Path" fill="#002395"></path>
        <path d="M36,7 L12.667,7 L3.39384548,0.0456308525 C3.59151508,0.0155815992 3.7939379,0 4,0 L32,0 C34.209139,0 36,1.790861 36,4 L36,7 Z" id="Path" fill="#CE1126"></path>
        <path d="M1.34461784,22.9915371 C0.5202839,22.2592986 0.000687905169,21.1915166 6.82536364e-07,20.0023621 L6.82536364e-07,3.99763783 C0.000687905169,2.80848336 0.5202839,1.74070143 1.34461784,1.00846287 L12.0000007,9 L36.0000007,9 L36.0000007,15 L12.0000007,15 L1.34461784,22.9915371 L1.34461784,22.9915371 Z" id="Path" fill="#007A4D"></path>
        <polygon id="Shape" fill="#FFB612" fill-rule="nonzero" points="10.0000007 12 6.82553946e-07 19 6.82553946e-07 5"></polygon>
        <polygon id="Shape" fill="#000000" fill-rule="nonzero" points="7.14300068 12 6.82553946e-07 17 6.82553946e-07 7"></polygon>
        <path d="M4,1 C2.34314575,1 1,2.34314575 1,4 L1,20 C1,21.6568542 2.34314575,23 4,23 L32,23 C33.6568542,23 35,21.6568542 35,20 L35,4 C35,2.34314575 33.6568542,1 32,1 L4,1 Z M4,0 L32,0 C34.209139,0 36,1.790861 36,4 L36,20 C36,22.209139 34.209139,24 32,24 L4,24 C1.790861,24 0,22.209139 0,20 L0,4 C0,1.790861 1.790861,0 4,0 Z" id="Mask" fill="#031619" fill-rule="nonzero" opacity="0.2"></path>
    </g>
</svg>