<?xml version="1.0" encoding="UTF-8"?>
<svg width="36px" height="24px" viewBox="0 0 36 24" version="1.1" xmlns="http://www.w3.org/2000/svg" xmlns:xlink="http://www.w3.org/1999/xlink">
    <!-- Generator: Sketch 55.2 (78181) - https://sketchapp.com -->
    <title>Flag / LY</title>
    <desc>Created with Sketch.</desc>
    <g id="Flag-/-LY" stroke="none" stroke-width="1" fill="none" fill-rule="evenodd">
        <path d="M4,0 L32,0 C34.209139,0 36,1.790861 36,4 L36,20 C36,22.209139 34.209139,24 32,24 L4,24 C1.790861,24 0,22.209139 0,20 L0,4 C0,1.790861 1.790861,0 4,0 Z" id="Mask" fill="#FC0000"></path>
        <path d="M0,18 L36,18 L36,20 C36,22.209139 34.209139,24 32,24 L4,24 C1.790861,24 0,22.209139 0,20 L0,18 Z" id="Rectangle" fill="#00A138"></path>
        <polygon id="Shape" fill="#000000" fill-rule="nonzero" points="0 6 36 6 36 18 0 18"></polygon>
        <path d="M4,1 C2.34314575,1 1,2.34314575 1,4 L1,20 C1,21.6568542 2.34314575,23 4,23 L32,23 C33.6568542,23 35,21.6568542 35,20 L35,4 C35,2.34314575 33.6568542,1 32,1 L4,1 Z M4,0 L32,0 C34.209139,0 36,1.790861 36,4 L36,20 C36,22.209139 34.209139,24 32,24 L4,24 C1.790861,24 0,22.209139 0,20 L0,4 C0,1.790861 1.790861,0 4,0 Z" id="Mask" fill="#031619" fill-rule="nonzero" opacity="0.2"></path>
        <g id="Group" transform="translate(15.000000, 8.500000)" fill="#FFFFFF" fill-rule="nonzero">
            <path d="M6.08371827,1.31270381 C5.19194382,0.166226496 3.6703595,-0.287149939 2.29651509,0.18425588 C0.922670688,0.655661699 2.87769808e-13,1.94773284 2.87769808e-13,3.40020381 C2.87769808e-13,4.85267477 0.922670688,6.14474591 2.29651509,6.61615173 C3.6703595,7.08755755 5.19194382,6.63418112 6.08371827,5.48770381 C5.57721018,5.85269437 4.96802553,6.04770348 4.34371827,6.04470381 C2.77921827,6.04470381 1.51071827,4.86070381 1.51071827,3.40020381 C1.51071827,1.93970381 2.77921827,0.755703805 4.34421827,0.755703805 C4.99971827,0.755703805 5.60321827,0.963703805 6.08371827,1.31270381 Z" id="Shape"></path>
            <circle id="Oval" cx="6.24971827" cy="3.25020381" r="1"></circle>
        </g>
    </g>
</svg>