<?xml version="1.0" encoding="UTF-8"?>
<svg width="36px" height="24px" viewBox="0 0 36 24" version="1.1" xmlns="http://www.w3.org/2000/svg" xmlns:xlink="http://www.w3.org/1999/xlink">
    <!-- Generator: Sketch 55.2 (78181) - https://sketchapp.com -->
    <title>Flag / GW</title>
    <desc>Created with Sketch.</desc>
    <g id="Flag-/-GW" stroke="none" stroke-width="1" fill="none" fill-rule="evenodd">
        <path d="M4,0 L32,0 C34.209139,0 36,1.790861 36,4 L36,20 C36,22.209139 34.209139,24 32,24 L4,24 C1.790861,24 0,22.209139 0,20 L0,4 C0,1.790861 1.790861,0 4,0 Z" id="Mask" fill="#FFD000"></path>
        <path d="M0,12 L36,12 L36,20 C36,22.209139 34.209139,24 32,24 L4,24 C1.790861,24 0,22.209139 0,20 L0,12 Z" id="Rectangle" fill="#00A23D"></path>
        <path d="M4,0 L14,0 L14,24 L4,24 C1.790861,24 0,22.209139 0,20 L0,4 C0,1.790861 1.790861,0 4,0 Z" id="Rectangle" fill="#DC0F14"></path>
        <polygon id="Star" fill="#000000" points="7.20422607 13.5548735 4.85308506 15.236068 5.72545348 12.4804823 3.4 10.763932 6.29029435 10.7420809 7.20422607 8 8.11815778 10.7420809 11.0084521 10.763932 8.68299865 12.4804823 9.55536707 15.236068"></polygon>
        <path d="M4,1 C2.34314575,1 1,2.34314575 1,4 L1,20 C1,21.6568542 2.34314575,23 4,23 L32,23 C33.6568542,23 35,21.6568542 35,20 L35,4 C35,2.34314575 33.6568542,1 32,1 L4,1 Z M4,0 L32,0 C34.209139,0 36,1.790861 36,4 L36,20 C36,22.209139 34.209139,24 32,24 L4,24 C1.790861,24 0,22.209139 0,20 L0,4 C0,1.790861 1.790861,0 4,0 Z" id="Mask" fill="#031619" fill-rule="nonzero" opacity="0.2"></path>
    </g>
</svg>