<?xml version="1.0" encoding="UTF-8"?>
<svg width="36px" height="24px" viewBox="0 0 36 24" version="1.1" xmlns="http://www.w3.org/2000/svg" xmlns:xlink="http://www.w3.org/1999/xlink">
    <!-- Generator: Sketch 55.2 (78181) - https://sketchapp.com -->
    <title>Flag / GD</title>
    <desc>Created with Sketch.</desc>
    <g id="Flag-/-GD" stroke="none" stroke-width="1" fill="none" fill-rule="evenodd">
        <path d="M4,0 L32,0 C34.209139,0 36,1.790861 36,4 L36,20 C36,22.209139 34.209139,24 32,24 L4,24 C1.790861,24 0,22.209139 0,20 L0,4 C0,1.790861 1.790861,0 4,0 Z" id="Mask" fill="#E00017"></path>
        <rect id="Rectangle" fill="#FFD000" x="4" y="4" width="28" height="16"></rect>
        <path d="M4,1 C2.34314575,1 1,2.34314575 1,4 L1,20 C1,21.6568542 2.34314575,23 4,23 L32,23 C33.6568542,23 35,21.6568542 35,20 L35,4 C35,2.34314575 33.6568542,1 32,1 L4,1 Z M4,0 L32,0 C34.209139,0 36,1.790861 36,4 L36,20 C36,22.209139 34.209139,24 32,24 L4,24 C1.790861,24 0,22.209139 0,20 L0,4 C0,1.790861 1.790861,0 4,0 Z" id="Mask" fill="#031619" fill-rule="nonzero" opacity="0.2"></path>
        <path d="M4,4 C13.3333333,9.33333333 18,12 18,12 C18,12 13.3333333,14.6666667 4,20 L4,4 Z" id="Path-8" fill="#007D5C"></path>
        <polygon id="Path-9" fill="#007D5C" points="32 4 18 12 32 20"></polygon>
        <circle id="Oval" fill="#E00017" cx="18" cy="12" r="3"></circle>
        <polygon id="Star" fill="#FFD000" points="18.0235093 13.0847903 16.4638948 14.2 17.0425749 12.3720997 15.5 11.2334369 17.4172585 11.2189421 18.0235093 9.4 18.6297602 11.2189421 20.5470187 11.2334369 19.0044438 12.3720997 19.5831239 14.2"></polygon>
        <path d="M18.0566084,2.98886221 L17.3417851,3.5 L17.6070135,2.66221235 L16.9,2.14032522 L17.7787435,2.13368177 L18.0566084,1.3 L18.3344734,2.13368177 L19.2132169,2.14032522 L18.5062034,2.66221235 L18.7714318,3.5 L18.0566084,2.98886221 Z M18.0566084,22.0888622 L17.3417851,22.6 L17.6070135,21.7622123 L16.9,21.2403252 L17.7787435,21.2336818 L18.0566084,20.4 L18.3344734,21.2336818 L19.2132169,21.2403252 L18.5062034,21.7622123 L18.7714318,22.6 L18.0566084,22.0888622 Z" id="Combined-Shape" fill="#FFD000"></path>
        <path d="M11.0566084,2.98886221 L10.3417851,3.5 L10.6070135,2.66221235 L9.9,2.14032522 L10.7787435,2.13368177 L11.0566084,1.3 L11.3344734,2.13368177 L12.2132169,2.14032522 L11.5062034,2.66221235 L11.7714318,3.5 L11.0566084,2.98886221 Z M11.0566084,22.0888622 L10.3417851,22.6 L10.6070135,21.7622123 L9.9,21.2403252 L10.7787435,21.2336818 L11.0566084,20.4 L11.3344734,21.2336818 L12.2132169,21.2403252 L11.5062034,21.7622123 L11.7714318,22.6 L11.0566084,22.0888622 Z" id="Combined-Shape" fill="#FFD000"></path>
        <path d="M25.0566084,2.98886221 L24.3417851,3.5 L24.6070135,2.66221235 L23.9,2.14032522 L24.7787435,2.13368177 L25.0566084,1.3 L25.3344734,2.13368177 L26.2132169,2.14032522 L25.5062034,2.66221235 L25.7714318,3.5 L25.0566084,2.98886221 Z M25.0566084,22.0888622 L24.3417851,22.6 L24.6070135,21.7622123 L23.9,21.2403252 L24.7787435,21.2336818 L25.0566084,20.4 L25.3344734,21.2336818 L26.2132169,21.2403252 L25.5062034,21.7622123 L25.7714318,22.6 L25.0566084,22.0888622 Z" id="Combined-Shape" fill="#FFD000"></path>
        <g id="Group" transform="translate(6.000000, 10.000000)" fill-rule="nonzero">
            <path d="M0.647912972,2.12529231 C0.980516049,2.74486154 1.6274822,3.41907692 2.19247913,3.65612308 C2.2015622,3.02695385 1.97832528,2.22055385 1.67304528,1.57809231 L0.647912972,2.12529231 L0.647912972,2.12529231 Z" id="Path" fill="#CE1126"></path>
            <path d="M0.0839498955,0 C0.566091434,1.00504615 -1.16648703,3.40283077 1.72008528,3.9648 C1.36399913,3.47889231 1.13441143,2.67692308 1.22125451,2.03298462 C1.82686682,2.26338462 2.46408528,2.9376 2.72158682,3.45304615 C3.47703297,0.709661538 0.783863742,0.876553846 0.0839498955,0 Z" id="Path" fill="#FCD116"></path>
        </g>
    </g>
</svg>