<?xml version="1.0" encoding="UTF-8"?>
<svg width="36px" height="24px" viewBox="0 0 36 24" version="1.1" xmlns="http://www.w3.org/2000/svg" xmlns:xlink="http://www.w3.org/1999/xlink">
    <!-- Generator: Sketch 55.2 (78181) - https://sketchapp.com -->
    <title>Flag / KR</title>
    <desc>Created with Sketch.</desc>
    <g id="Flag-/-KR" stroke="none" stroke-width="1" fill="none" fill-rule="evenodd">
        <path d="M4,0 L32,0 C34.209139,0 36,1.790861 36,4 L36,20 C36,22.209139 34.209139,24 32,24 L4,24 C1.790861,24 0,22.209139 0,20 L0,4 C0,1.790861 1.790861,0 4,0 Z" id="Mask" fill="#FFFFFF"></path>
        <path d="M13,12 C13,14.7614237 15.2385763,17 18,17 C20.7614237,17 23,14.7614237 23,12 L13,12 L13,12 Z" id="Shape" fill="#0066B3" fill-rule="nonzero"></path>
        <path d="M13,12 C13,9.23857625 15.2385763,7 18,7 C20.7614237,7 23,9.23857625 23,12 L13,12 Z" id="Shape" fill="#ED1C24" fill-rule="nonzero"></path>
        <path d="M23,6.417 L24.417,5 L27.963,8.545 L26.545,9.963 L23,6.417 Z M12.963,6.417 L9.417,9.963 L8,8.545 L11.545,5 L12.963,6.417 Z M23,17.545 L26.545,14 L27.963,15.417 L24.417,18.963 L23,17.545 Z M12.963,17.545 L11.545,18.963 L8,15.417 L9.417,14 L12.963,17.545 Z M25,4.417 L26.417,3 L29.963,6.545 L28.545,7.963 L25,4.417 Z M10.963,4.417 L7.417,7.963 L6,6.545 L9.545,3 L10.963,4.417 Z M25,19.545 L28.545,16 L29.963,17.417 L26.417,20.963 L25,19.545 Z M10.963,19.545 L9.545,20.963 L6,17.417 L7.417,16 L10.963,19.545 Z" id="Shape" fill="#333333" fill-rule="nonzero"></path>
        <path d="M4,1 C2.34314575,1 1,2.34314575 1,4 L1,20 C1,21.6568542 2.34314575,23 4,23 L32,23 C33.6568542,23 35,21.6568542 35,20 L35,4 C35,2.34314575 33.6568542,1 32,1 L4,1 Z M4,0 L32,0 C34.209139,0 36,1.790861 36,4 L36,20 C36,22.209139 34.209139,24 32,24 L4,24 C1.790861,24 0,22.209139 0,20 L0,4 C0,1.790861 1.790861,0 4,0 Z" id="Mask" fill="#031619" fill-rule="nonzero" opacity="0.2"></path>
    </g>
</svg>