<?xml version="1.0" encoding="UTF-8"?>
<svg width="36px" height="24px" viewBox="0 0 36 24" version="1.1" xmlns="http://www.w3.org/2000/svg" xmlns:xlink="http://www.w3.org/1999/xlink">
    <!-- Generator: Sketch 55.2 (78181) - https://sketchapp.com -->
    <title>Flag / CD</title>
    <desc>Created with Sketch.</desc>
    <g id="Flag-/-CD" stroke="none" stroke-width="1" fill="none" fill-rule="evenodd">
        <path d="M4,0 L32,0 C34.209139,0 36,1.790861 36,4 L36,20 C36,22.209139 34.209139,24 32,24 L4,24 C1.790861,24 0,22.209139 0,20 L0,4 C0,1.790861 1.790861,0 4,0 Z" id="Mask" fill="#007FFF"></path>
        <path d="M33.6005021,0.333054376 C35.0129578,0.950414285 36,2.35993911 36,4 L36,5 L2.39949788,23.6669456 C0.987042241,23.0495857 0,21.6400609 0,20 L0,19 L33.6005021,0.333054376 L33.6005021,0.333054376 Z" id="Path" fill="#FCD600"></path>
        <path d="M34.4673903,0.851449842 C35.4005191,1.58372833 36,2.72185603 36,4 L1.53260972,23.1485502 C0.599480889,22.4162717 0,21.278144 0,20 L34.4673903,0.851449842 Z" id="Path" fill="#E0000D"></path>
        <path d="M4,1 C2.34314575,1 1,2.34314575 1,4 L1,20 C1,21.6568542 2.34314575,23 4,23 L32,23 C33.6568542,23 35,21.6568542 35,20 L35,4 C35,2.34314575 33.6568542,1 32,1 L4,1 Z M4,0 L32,0 C34.209139,0 36,1.790861 36,4 L36,20 C36,22.209139 34.209139,24 32,24 L4,24 C1.790861,24 0,22.209139 0,20 L0,4 C0,1.790861 1.790861,0 4,0 Z" id="Mask" fill="#031619" fill-rule="nonzero" opacity="0.2"></path>
        <polygon id="Star" fill="#FFD000" points="6.73158001 8.90898175 3.80730274 11 4.8923279 7.57268688 2 5.4376941 5.59485969 5.41051635 6.73158001 2 7.86830032 5.41051635 11.46316 5.4376941 8.57083212 7.57268688 9.65585728 11"></polygon>
    </g>
</svg>