<?xml version="1.0" encoding="UTF-8"?>
<svg width="36px" height="24px" viewBox="0 0 36 24" version="1.1" xmlns="http://www.w3.org/2000/svg" xmlns:xlink="http://www.w3.org/1999/xlink">
    <!-- Generator: Sketch 55.2 (78181) - https://sketchapp.com -->
    <title>Flag / MX</title>
    <desc>Created with Sketch.</desc>
    <g id="Flag-/-MX" stroke="none" stroke-width="1" fill="none" fill-rule="evenodd">
        <g id="Rectangle-13-+-Rectangle-13-Copy-+-Rectangle-13-Copy-2-Mask">
            <path d="M4,0 L32,0 C34.209139,0 36,1.790861 36,4 L36,20 C36,22.209139 34.209139,24 32,24 L4,24 C1.790861,24 0,22.209139 0,20 L0,4 C0,1.790861 1.790861,0 4,0 Z" id="Mask" fill="#FFFFFF"></path>
            <path d="M4,0 L11,0 L11,24 L4,24 C1.790861,24 0,22.209139 0,20 L0,4 C0,1.790861 1.790861,0 4,0 Z" id="Rectangle" fill="#006847"></path>
            <path d="M25,0 L32,0 C34.209139,0 36,1.790861 36,4 L36,20 C36,22.209139 34.209139,24 32,24 L25,24 L25,0 Z" id="Rectangle-Copy" fill="#CE1126"></path>
            <path d="M20.5062106,15.757 C20.2022106,15.867 19.8732106,15.689 19.7722106,15.357 C19.6702106,15.027 19.8352106,14.669 20.1392106,14.559 C20.6832622,14.3450864 21.19856,14.0642593 21.6732106,13.723 C22.2462106,13.307 22.6732106,12.843 22.9002106,12.349 C23.0432106,12.037 23.3922106,11.911 23.6792106,12.067 C23.9662106,12.223 24.0822106,12.602 23.9392106,12.914 C23.6092106,13.634 23.0442106,14.247 22.3172106,14.774 C21.7578191,15.1768022 21.1496421,15.5070995 20.5072106,15.757 L20.5062106,15.757 Z M15.4942106,15.757 C14.8517792,15.5070995 14.2436021,15.1768022 13.6842106,14.774 C12.9562106,14.247 12.3922106,13.634 12.0612106,12.914 C11.9182106,12.602 12.0342106,12.223 12.3212106,12.067 C12.6082106,11.911 12.9572106,12.037 13.1012106,12.349 C13.3272106,12.843 13.7542106,13.307 14.3272106,13.723 C14.8018613,14.0642593 15.317159,14.3450864 15.8612106,14.559 C16.1652106,14.669 16.3302106,15.027 16.2282106,15.358 C16.1272106,15.688 15.7982106,15.868 15.4942106,15.758 L15.4942106,15.757 Z M18.0002106,16 C17.4479259,16 17.0002106,15.5522847 17.0002106,15 C17.0002106,14.4477153 17.4479259,14 18.0002106,14 C18.5524954,14 19.0002106,14.4477153 19.0002106,15 C19.0002106,15.5522847 18.5524954,16 18.0002106,16 Z" id="Shape" fill="#445128" fill-rule="nonzero"></path>
            <circle id="Oval" fill="#9A5111" fill-rule="nonzero" cx="18.0002106" cy="10" r="3"></circle>
        </g>
        <path d="M4,1 C2.34314575,1 1,2.34314575 1,4 L1,20 C1,21.6568542 2.34314575,23 4,23 L32,23 C33.6568542,23 35,21.6568542 35,20 L35,4 C35,2.34314575 33.6568542,1 32,1 L4,1 Z M4,0 L32,0 C34.209139,0 36,1.790861 36,4 L36,20 C36,22.209139 34.209139,24 32,24 L4,24 C1.790861,24 0,22.209139 0,20 L0,4 C0,1.790861 1.790861,0 4,0 Z" id="Mask" fill="#031619" fill-rule="nonzero" opacity="0.2"></path>
    </g>
</svg>