<?xml version="1.0" encoding="UTF-8"?>
<svg width="36px" height="24px" viewBox="0 0 36 24" version="1.1" xmlns="http://www.w3.org/2000/svg" xmlns:xlink="http://www.w3.org/1999/xlink">
    <!-- Generator: Sketch 55.2 (78181) - https://sketchapp.com -->
    <title>Flag / KZ</title>
    <desc>Created with Sketch.</desc>
    <g id="Flag-/-KZ" stroke="none" stroke-width="1" fill="none" fill-rule="evenodd">
        <path d="M4,0 L32,0 C34.209139,0 36,1.790861 36,4 L36,20 C36,22.209139 34.209139,24 32,24 L4,24 C1.790861,24 0,22.209139 0,20 L0,4 C0,1.790861 1.790861,0 4,0 Z" id="Mask" fill="#00AFCA"></path>
        <path d="M4,1 C2.34314575,1 1,2.34314575 1,4 L1,20 C1,21.6568542 2.34314575,23 4,23 L32,23 C33.6568542,23 35,21.6568542 35,20 L35,4 C35,2.34314575 33.6568542,1 32,1 L4,1 Z M4,0 L32,0 C34.209139,0 36,1.790861 36,4 L36,20 C36,22.209139 34.209139,24 32,24 L4,24 C1.790861,24 0,22.209139 0,20 L0,4 C0,1.790861 1.790861,0 4,0 Z" id="Mask" fill="#031619" fill-rule="nonzero" opacity="0.2"></path>
        <path d="M4,3 C4.55228475,3 5,3.44771525 5,4 L5,20 C5,20.5522847 4.55228475,21 4,21 C3.44771525,21 3,20.5522847 3,20 L3,4 C3,3.44771525 3.44771525,3 4,3 Z" id="Rectangle" fill="#FEC50C"></path>
        <circle id="Oval" fill="#FEC50C" cx="18" cy="12" r="4"></circle>
        <path d="M24.9291111,13 C24.4438815,16.3922941 21.5264719,19 18,19 C14.4735281,19 11.5561185,16.3922941 11.0708889,13 L13.1000181,13 C13.5632884,15.2822403 15.5810421,17 18,17 C20.4189579,17 22.4367116,15.2822403 22.8999819,13 L24.9291111,13 L24.9291111,13 Z" id="Path" fill="#FEC50C" fill-rule="nonzero"></path>
    </g>
</svg>