<?xml version="1.0" encoding="UTF-8"?>
<svg width="36px" height="24px" viewBox="0 0 36 24" version="1.1" xmlns="http://www.w3.org/2000/svg" xmlns:xlink="http://www.w3.org/1999/xlink">
    <!-- Generator: Sketch 55.2 (78181) - https://sketchapp.com -->
    <title>Flag / FM</title>
    <desc>Created with Sketch.</desc>
    <g id="Flag-/-FM" stroke="none" stroke-width="1" fill="none" fill-rule="evenodd">
        <path d="M4,0 L32,0 C34.209139,0 36,1.790861 36,4 L36,20 C36,22.209139 34.209139,24 32,24 L4,24 C1.790861,24 0,22.209139 0,20 L0,4 C0,1.790861 1.790861,0 4,0 Z" id="Mask" fill="#63B3E1"></path>
        <path d="M10.5547118,14.1398772 L10.5547118,12.5051565 L9,12 L10.5547118,11.4948435 L10.5547118,9.86012284 L11.5155765,11.1826397 L13.0702882,10.6774832 L12.1094235,12 L13.0702882,13.3225168 L11.5155765,12.8173603 L10.5547118,14.1398772 L10.5547118,14.1398772 Z M18.5051565,19.4452882 L18,21 L17.4948435,19.4452882 L15.8601228,19.4452882 L17.1826397,18.4844235 L16.6774832,16.9297118 L18,17.8905765 L19.3225168,16.9297118 L18.8173603,18.4844235 L20.1398772,19.4452882 L18.5051565,19.4452882 L18.5051565,19.4452882 Z M25.4452882,11.4948435 L27,12 L25.4452882,12.5051565 L25.4452882,14.1398772 L24.4844235,12.8173603 L22.9297118,13.3225168 L23.8905765,12 L22.9297118,10.6774832 L24.4844235,11.1826397 L25.4452882,9.86012284 L25.4452882,11.4948435 L25.4452882,11.4948435 Z M18,3 L18.5051565,4.55471176 L20.1398772,4.55471176 L18.8173603,5.51557647 L19.3225168,7.07028824 L18,6.10942353 L16.6774832,7.07028824 L17.1826397,5.51557647 L15.8601228,4.55471176 L17.4948435,4.55471176 L18,3 L18,3 Z" id="Shape" fill="#FFFFFF" fill-rule="nonzero"></path>
        <path d="M4,1 C2.34314575,1 1,2.34314575 1,4 L1,20 C1,21.6568542 2.34314575,23 4,23 L32,23 C33.6568542,23 35,21.6568542 35,20 L35,4 C35,2.34314575 33.6568542,1 32,1 L4,1 Z M4,0 L32,0 C34.209139,0 36,1.790861 36,4 L36,20 C36,22.209139 34.209139,24 32,24 L4,24 C1.790861,24 0,22.209139 0,20 L0,4 C0,1.790861 1.790861,0 4,0 Z" id="Mask" fill="#031619" fill-rule="nonzero" opacity="0.2"></path>
    </g>
</svg>