<svg width="36" height="24" viewBox="0 0 36 24" fill="none" xmlns="http://www.w3.org/2000/svg">
<path fill-rule="evenodd" clip-rule="evenodd" d="M3.375 0H32.625C34.489 0 36 1.46525 36 3.27273V20.7273C36 22.5347 34.489 24 32.625 24H3.375C1.51104 24 0 22.5347 0 20.7273V3.27273C0 1.46525 1.51104 0 3.375 0Z" fill="#178A9E"/>
<path fill-rule="evenodd" clip-rule="evenodd" d="M3.375 0H32.625C34.489 0 36 1.46525 36 3.27273V20.7273C36 22.5347 34.489 24 32.625 24H3.375C1.51104 24 0 22.5347 0 20.7273V3.27273C0 1.46525 1.51104 0 3.375 0Z" fill="white"/>
<mask id="mask0_76_14085" style="mask-type:luminance" maskUnits="userSpaceOnUse" x="0" y="0" width="36" height="24">
<path fill-rule="evenodd" clip-rule="evenodd" d="M3.375 0H32.625C34.489 0 36 1.46525 36 3.27273V20.7273C36 22.5347 34.489 24 32.625 24H3.375C1.51104 24 0 22.5347 0 20.7273V3.27273C0 1.46525 1.51104 0 3.375 0Z" fill="white"/>
</mask>
<g mask="url(#mask0_76_14085)">
<path d="M17.7794 11.344C17.7493 11.3541 17.7202 11.3662 17.6921 11.3802L17.4235 10.742L16.2702 9.00401L17.1988 10.8717L17.6172 11.4235C17.5909 11.441 17.5659 11.4603 17.5423 11.4811L17.1176 10.9341L15.5538 9.55379L16.9341 11.1176L17.4811 11.5423C17.4603 11.5659 17.441 11.5909 17.4235 11.6173L16.8717 11.1988L15.004 10.2703L16.742 11.4235L17.3802 11.6921C17.3662 11.7202 17.3541 11.7494 17.344 11.7794L16.7028 11.5181L14.6584 11.1046L16.6357 11.7687L17.3217 11.863C17.3155 11.8936 17.3114 11.9249 17.3094 11.9568L16.6223 11.8703L14.5405 12L16.6223 12.1297L17.3094 12.0432C17.3114 12.0751 17.3155 12.1064 17.3217 12.137L16.6357 12.2313L14.6584 12.8954L16.7028 12.4819L17.344 12.2206C17.3541 12.2507 17.3662 12.2798 17.3802 12.3079L16.742 12.5765L15.004 13.7298L16.8718 12.8012L17.4236 12.3828C17.441 12.4091 17.4603 12.4341 17.4811 12.4577L16.9341 12.8824L15.5538 14.4462L17.1176 13.0659L17.5423 12.5189C17.5659 12.5397 17.5909 12.559 17.6172 12.5765L17.1988 13.1283L16.2703 14.996L17.4235 13.258L17.6921 12.6198C17.7202 12.6338 17.7493 12.6459 17.7794 12.656L17.5181 13.2972L17.1046 15.3416L17.7687 13.3643L17.863 12.6783C17.8936 12.6845 17.9249 12.6886 17.9568 12.6906L17.8703 13.3777L18 15.4595L18.1297 13.3777L18.0432 12.6906C18.0751 12.6886 18.1064 12.6845 18.137 12.6783L18.2313 13.3643L18.8954 15.3416L18.4819 13.2972L18.2206 12.656C18.2506 12.6459 18.2798 12.6338 18.3079 12.6198L18.5765 13.258L19.7297 14.996L18.8012 13.1283L18.3827 12.5765C18.409 12.559 18.4341 12.5397 18.4577 12.5189L18.8824 13.0659L20.4462 14.4462L19.0659 12.8824L18.5189 12.4577C18.5397 12.4341 18.5589 12.4091 18.5764 12.3828L19.1282 12.8012L20.996 13.7297L19.258 12.5765L18.6198 12.3079C18.6338 12.2798 18.6459 12.2507 18.656 12.2206L19.2972 12.4819L21.3416 12.8954L19.3643 12.2313L18.6783 12.137C18.6845 12.1064 18.6886 12.0751 18.6906 12.0432L19.3777 12.1297L21.4595 12L19.3777 11.8703L18.6906 11.9568C18.6886 11.9249 18.6845 11.8936 18.6783 11.863L19.3643 11.7687L21.3416 11.1046L19.2972 11.5181L18.656 11.7794C18.6459 11.7494 18.6338 11.7202 18.6198 11.6921L19.258 11.4235L20.996 10.2703L19.1283 11.1988L18.5765 11.6173C18.559 11.5909 18.5397 11.5659 18.5189 11.5423L19.0659 11.1176L20.4462 9.55381L18.8824 10.9341L18.4577 11.4811C18.4341 11.4603 18.4091 11.441 18.3828 11.4235L18.8012 10.8717L19.7297 9.00401L18.5765 10.742L18.3079 11.3802C18.2798 11.3662 18.2506 11.3541 18.2205 11.344L18.4819 10.7028L18.8953 8.65841L18.2312 10.6357L18.1369 11.3217C18.1064 11.3155 18.0751 11.3114 18.0432 11.3094L18.1297 10.6223L18 8.54054L17.8703 10.6223L17.9568 11.3094C17.9249 11.3114 17.8936 11.3155 17.863 11.3217L17.7687 10.6357L17.1046 8.65844L17.5181 10.7029L17.7794 11.344Z" fill="#2C2C6F"/>
<path fill-rule="evenodd" clip-rule="evenodd" d="M18 16C20.2091 16 22 14.2091 22 12C22 9.79086 20.2091 8 18 8C15.7909 8 14 9.79086 14 12C14 14.2091 15.7909 16 18 16ZM18 15.4595C19.9106 15.4595 21.4595 13.9106 21.4595 12C21.4595 10.0894 19.9106 8.54054 18 8.54054C17.0447 8.54054 16.1798 8.92775 15.5538 9.55379C14.9278 10.1798 14.5405 11.0447 14.5405 12C14.5405 13.9106 16.0894 15.4595 18 15.4595Z" fill="#2C2C6F"/>
<path d="M0 16.3635H36V23.0453C36 23.5725 35.4963 23.9999 34.875 23.9999H1.125C0.50368 23.9999 0 23.5725 0 23.0453V16.3635Z" fill="#128807"/>
<path d="M1.125 0H34.875C35.4963 0 36 0.427365 36 0.954545V7.63636H0V0.954545C0 0.427365 0.50368 0 1.125 0Z" fill="#FF9933"/>
<path d="M3.375 0.5H32.625C34.2274 0.5 35.5 1.75578 35.5 3.27273V20.7273C35.5 22.2442 34.2274 23.5 32.625 23.5H3.375C1.77257 23.5 0.5 22.2442 0.5 20.7273V3.27273C0.5 1.75578 1.77257 0.5 3.375 0.5Z" stroke="#222E3A" stroke-opacity="0.25"/>
</g>
</svg>
