<?xml version="1.0" encoding="UTF-8"?>
<svg width="36px" height="24px" viewBox="0 0 36 24" version="1.1" xmlns="http://www.w3.org/2000/svg" xmlns:xlink="http://www.w3.org/1999/xlink">
    <!-- Generator: Sketch 55.2 (78181) - https://sketchapp.com -->
    <title>Flag / LK</title>
    <desc>Created with Sketch.</desc>
    <g id="Flag-/-LK" stroke="none" stroke-width="1" fill="none" fill-rule="evenodd">
        <path d="M4,0 L32,0 C34.209139,0 36,1.790861 36,4 L36,20 C36,22.209139 34.209139,24 32,24 L4,24 C1.790861,24 0,22.209139 0,20 L0,4 C0,1.790861 1.790861,0 4,0 Z" id="Mask" fill="#FFBC00"></path>
        <rect id="Rectangle" fill="#00554E" x="2" y="2" width="3" height="20"></rect>
        <rect id="Rectangle-Copy" fill="#FC6C00" x="5" y="2" width="3" height="20"></rect>
        <rect id="Rectangle-Copy-2" fill="#9A0039" x="10" y="2" width="24" height="20"></rect>
        <path d="M30.9847255,18.1268355 C30.9847255,18.1268355 31.2355472,18.6375035 31.5126605,18.8455562 C31.9232316,19.1538386 32.7650719,19.1315686 33.1223661,19.4912241 C33.5504993,19.9153357 33.0891456,20.4756648 33.0930011,20.5242929 L33.1164776,20.8202154 C33.1164776,20.8202154 32.8277902,20.8236946 32.7062386,20.8426452 C32.5234666,20.8711431 32.4521775,21.0198607 32.111892,20.9977715 C31.2563267,20.9422367 31.2908238,20.1714272 31.2424171,19.5127352 C31.1994488,19.2619098 31.1000234,18.9348808 31.0435219,18.6841403 C30.9950783,18.4691255 30.9847255,18.1268355 30.9847255,18.1268355 Z M13.3197983,18.1268355 C13.3197983,18.1268355 13.3094455,18.4691255 13.261002,18.6841403 C13.2045005,18.9348808 13.105075,19.2619098 13.0621067,19.5127352 C13.0137001,20.1714272 13.0481972,20.9422367 12.1926318,20.9977715 C11.8523463,21.0198607 11.7810572,20.8711431 11.5982852,20.8426452 C11.4767336,20.8236946 11.1880463,20.8202154 11.1880463,20.8202154 L11.2115227,20.5242929 C11.2153783,20.4756648 10.7540246,19.9153357 11.1821578,19.4912241 C11.539452,19.1315686 12.3812923,19.1538386 12.7918633,18.8455562 C13.0689766,18.6375035 13.3197983,18.1268355 13.3197983,18.1268355 Z M30.9847255,5.8731645 C30.9847255,5.8731645 30.9950783,5.53087452 31.0435219,5.31585971 C31.1000234,5.06511917 31.1994488,4.73809019 31.2424171,4.48726479 C31.2908238,3.82857279 31.2563267,3.05776331 32.111892,3.00222849 C32.4521775,2.98013926 32.5234666,3.12885689 32.7062386,3.15735483 C32.8277902,3.17630536 33.1164776,3.17978459 33.1164776,3.17978459 L33.0930011,3.47570713 C33.0891456,3.52433515 33.5504993,4.08466425 33.1223661,4.50877587 C32.7650719,4.86843137 31.9232316,4.84616136 31.5126605,5.15444382 C31.2355472,5.36249649 30.9847255,5.8731645 30.9847255,5.8731645 Z M13.3197983,5.8731645 C13.3197983,5.8731645 13.0689766,5.36249649 12.7918633,5.15444382 C12.3812923,4.84616136 11.539452,4.86843137 11.1821578,4.50877587 C10.7540246,4.08466425 11.2153783,3.52433515 11.2115227,3.47570713 L11.1880463,3.17978459 C11.1880463,3.17978459 11.4767336,3.17630536 11.5982852,3.15735483 C11.7810572,3.12885689 11.8523463,2.98013926 12.1926318,3.00222849 C13.0481972,3.05776331 13.0137001,3.82857279 13.0621067,4.48726479 C13.105075,4.73809019 13.2045005,5.06511917 13.261002,5.31585971 C13.3094455,5.53087452 13.3197983,5.8731645 13.3197983,5.8731645 Z M18.0583581,18.6249222 L18.0582404,18.6250938 C17.8724873,18.7323433 17.7779615,18.7436111 17.7779615,18.6584862 C17.7779615,18.5013491 17.9448279,18.1646351 18.0735225,18.0620735 C18.2062718,17.9562984 18.251321,17.9479737 18.6648067,17.9529962 C19.0458763,17.9576192 19.1371257,17.9439495 19.2788554,17.8609941 C19.7201344,17.60269 19.7632908,17.2119317 19.4515033,16.2975921 C19.106772,15.2866606 19.0483482,14.8553175 19.1828317,14.3139895 C19.2189363,14.1686662 19.2276794,14.0694606 19.2022618,14.0935326 C19.0328865,14.2539165 19.0274334,15.2046718 19.1930269,15.702943 C19.2320253,15.8202701 18.6184194,15.5127698 18.2321623,15.2214223 C17.4250184,14.6126127 17.0226787,13.7649799 17.1514986,12.9446864 C17.2943204,12.0352538 17.7945839,11.3217354 18.6552409,10.8000357 C19.084872,10.5396028 19.2325787,10.364837 19.1663516,10.1952846 C19.1023715,10.0314879 18.9907779,10.0001859 18.8426949,10.1045111 C18.7694872,10.1560871 18.7028735,10.2409315 18.6946709,10.2930498 C18.669951,10.4500283 18.5412971,10.3565356 18.4176424,10.0917306 C18.2890475,9.81634764 18.2206908,9.78561016 18.1990193,9.993423 C18.178059,10.1944401 18.0835886,10.2022287 17.9655015,10.0126753 C17.8694703,9.8585378 17.8596931,9.85426163 17.7379459,9.91315762 C17.6679777,9.94700538 17.5424893,9.98861038 17.4590764,10.0056136 L17.3074256,10.0365282 L17.3986345,9.86709751 C17.4488011,9.77391102 17.4829089,9.69109544 17.4744286,9.6830637 C17.46595,9.67503306 17.3964023,9.68721221 17.3198778,9.71012862 C17.2433458,9.7330443 17.0712772,9.76233549 16.9374948,9.77521933 L16.694255,9.79864417 L16.7612791,9.58670274 C16.7981412,9.47012093 16.8526743,9.29622594 16.882458,9.20026124 C16.9486298,8.98702847 17.0005009,8.96487653 17.2253188,9.0538385 C17.4565417,9.14532781 18.0588687,9.26162921 18.3014812,9.26162921 C18.5111831,9.26162921 18.5281624,9.28367416 18.4214205,9.41733112 C18.3202831,9.54396321 18.333237,9.56519388 18.4976831,9.54233612 C18.5782108,9.53114577 18.7728262,9.54785972 18.93017,9.57948232 C19.1331422,9.62027562 19.2310756,9.62293098 19.2673046,9.58862277 C19.3566171,9.50405871 19.1835633,9.13661092 18.899521,8.80780728 C18.7531352,8.63834711 18.5930981,8.42171629 18.5438871,8.32639725 L18.4544123,8.15309259 L18.4028437,8.28046628 C18.3744842,8.3505231 18.3512788,8.43940021 18.3512788,8.47797057 C18.3512788,8.53873272 18.3337277,8.53730856 18.2198946,8.46732923 C18.1476315,8.42290727 18.0604121,8.34930112 18.0260799,8.30376124 C17.9300322,8.1763728 17.890697,8.20469364 17.9129515,8.38521502 L17.9331996,8.54946926 L17.7796856,8.46439605 C17.6952581,8.4176091 17.6034596,8.33950911 17.5756914,8.2908405 C17.547924,8.24217927 17.3787775,8.05584319 17.199802,7.87676441 C17.0141226,7.69097807 16.8625294,7.4958277 16.8467581,7.42228796 C16.831561,7.35140469 16.7983696,7.23087877 16.7730044,7.15445382 C16.641207,6.75735696 16.7964366,6.45632073 17.1329846,6.45632073 C17.3923771,6.45632073 17.5588199,6.63208631 17.5250711,6.87035992 C17.5030224,7.02605408 17.5105343,7.04712758 17.5789899,7.02155691 C17.622733,7.00521598 17.7767746,6.98052969 17.9212972,6.96669727 C18.0658309,6.95286522 18.2421314,6.91382112 18.3130885,6.87993057 C18.3840456,6.84604075 18.5517311,6.81831171 18.6857312,6.81831171 C18.9766728,6.81831171 19.1656728,6.73456304 19.3110329,6.54123529 C19.4006516,6.42203761 19.4100784,6.37784071 19.3682502,6.27288831 L19.3181722,6.14724501 L19.5964919,6.1166529 C19.9568669,6.07704209 20.1145095,6.11278258 20.3045499,6.27716595 C20.5538404,6.49278953 20.6923565,6.43236239 20.6923565,6.10793454 C20.6923565,5.89405241 20.7079042,5.88655529 20.9949792,5.96205047 C21.1073402,5.99159993 21.2583859,6.0895164 21.3856637,6.21531465 L21.5931555,6.42040462 L21.6921862,6.23656266 C21.7466548,6.13545106 21.7912206,6.01999825 21.7912206,5.98000004 C21.7912206,5.92542081 21.8180398,5.91513034 21.8987188,5.93875477 C22.1171206,6.0027128 22.3442334,6.13412283 22.472404,6.2706982 C22.579227,6.38452725 22.6411521,6.41109225 22.7996728,6.41109225 C22.9597653,6.41109225 23.025771,6.38212943 23.1639882,6.25122855 L23.3327879,6.09136485 L23.3011749,6.27860118 C23.2623131,6.50875414 23.1727239,6.67745795 22.9775994,6.88792726 L22.8280258,7.04926677 L22.9231714,7.17133491 C23.1083563,7.40890382 23.1373546,7.59186767 23.1116991,8.36080287 C23.0983212,8.76179219 23.0796879,9.0971536 23.0702951,9.10605127 C23.0608979,9.11494673 22.9324063,9.01615953 22.7847586,8.88651679 C22.5388956,8.67062756 22.5112758,8.62636056 22.4565306,8.36046343 C22.4134331,8.15117846 22.3578098,8.03121336 22.257211,7.93063305 C22.1208142,7.79425727 22.1183249,7.79366326 22.146776,7.90423113 C22.2037829,8.1256399 22.2333268,8.44250053 22.2038198,8.51532818 C22.1787052,8.57730862 22.1387623,8.56207085 21.9574329,8.42135213 C21.8384086,8.32898472 21.728603,8.26516579 21.7134295,8.27953762 C21.6982507,8.29390835 21.773163,8.36295792 21.8798974,8.43298153 C21.9866355,8.50300515 22.0937784,8.61120065 22.1180013,8.67341352 L22.1620469,8.78653086 L22.2190244,8.65078932 C22.2503677,8.57614641 22.2690529,8.39751038 22.2605537,8.25383266 C22.2479429,8.040677 22.2557315,8.00640901 22.3028579,8.06764047 C22.3346284,8.10891156 22.3750425,8.23664682 22.3926721,8.35149455 C22.4361902,8.63502026 22.5108773,8.75999206 22.7418125,8.93573181 C22.9017784,9.05746052 22.9378594,9.11312816 22.9378594,9.23820327 C22.9378594,9.32251275 22.9616554,9.44880909 22.9907415,9.51886591 C23.100564,9.78339423 23.1256381,9.89843012 23.0661702,9.86497714 C22.680356,9.64792202 22.2271782,9.27644157 22.1645595,9.12589025 C22.1177357,9.01331528 22.1170125,9.01368423 22.014093,9.20219714 L21.9106829,9.39162136 L21.7608289,9.27006606 C21.6784121,9.20321176 21.5861067,9.10778941 21.555702,9.05801764 C21.5078919,8.97974423 21.5043563,8.98699047 21.52952,9.11168556 C21.5467829,9.19723472 21.5325007,9.3030394 21.4943953,9.37191926 L21.430179,9.48799191 L21.2723962,9.32956344 C21.1856073,9.24242778 21.092578,9.17113497 21.0656607,9.17113497 C21.0387382,9.17113497 21.0783822,9.2271273 21.1537556,9.29556441 C21.229129,9.36400153 21.3234814,9.46816437 21.363428,9.52703822 L21.4360527,9.6340789 L21.5300398,9.44837372 C21.5817302,9.34623643 21.6364016,9.26240659 21.6515324,9.26214833 C21.6666558,9.26186054 21.7295254,9.31253257 21.7912439,9.37474544 C21.852955,9.43695832 21.9168857,9.48786278 21.9333019,9.48786278 C21.9497166,9.48786278 21.9903609,9.41660317 22.0236179,9.32950441 L22.0840783,9.17114604 L22.2025823,9.30452259 C22.2677579,9.37788154 22.4248618,9.51004424 22.5516932,9.59822034 C22.7628524,9.74500834 22.7841986,9.77716261 22.8047138,9.97938581 C22.8175866,10.106254 22.8724057,10.2604691 22.9335301,10.3417642 L23.0399362,10.4832872 L22.8679266,10.4832872 C22.6380688,10.4832872 22.3748539,10.3742911 22.1854002,10.2006359 C22.0999986,10.1223592 22.0301263,10.0791194 22.0301263,10.1045495 C22.0301263,10.2400143 22.5346069,10.5229578 22.8192432,10.5471456 C22.9245904,10.5561001 23.017588,10.5938182 23.043836,10.6382402 C23.0684747,10.6799355 23.1741281,10.7727051 23.278623,10.8443927 L23.4686044,10.9747328 L23.255427,11.005008 C23.1381773,11.0216655 22.9811398,11.0226174 22.9064563,11.0071294 L22.7706668,10.9789698 L22.7643791,11.2310349 C22.7609202,11.3696727 22.7469169,11.4936856 22.7332579,11.5066208 C22.6968054,11.5411622 22.2246081,11.4007349 22.0841587,11.3135808 C21.983726,11.2512587 21.9597676,11.2493254 21.9420232,11.3021226 C21.9302831,11.3370477 21.832802,11.4432287 21.7253998,11.5380792 C21.5528293,11.6904826 21.5262499,11.7010052 21.4968444,11.6285723 C21.4785406,11.5834862 21.3976993,11.3866534 21.31719,11.1911415 C21.2366808,10.9956259 21.1817669,10.8188726 21.1951588,10.798354 C21.2085503,10.7778328 21.1985985,10.7488091 21.1730478,10.7338536 C21.105094,10.6940805 20.998153,10.8789776 20.9318631,11.1508444 C20.899993,11.2815719 20.8557271,11.399175 20.8334966,11.412185 C20.7875029,11.4391186 20.549078,11.1257667 20.549078,11.0383986 C20.549078,10.9171569 20.4661447,10.9889367 20.4133291,11.1558917 C20.3829052,11.252063 20.3112434,11.387063 20.2540778,11.4558875 L20.1501437,11.5810216 L20.0844885,11.3828311 C20.0483791,11.2738239 20.013351,11.1597768 20.0066431,11.1293898 C19.9837901,11.0258402 19.9279823,11.0108865 19.9279823,11.1083123 C19.9279823,11.3053996 19.7810467,11.5595936 19.6259056,11.6308975 L19.4741072,11.7006665 L19.4153072,11.487906 C19.3829692,11.3708851 19.3561123,11.2320997 19.3555884,11.1794907 L19.3546808,11.0838396 L19.1316782,11.1907585 C19.0090271,11.2495652 18.9011419,11.2905478 18.8919398,11.2818309 C18.8827344,11.2731162 18.9077052,11.2069593 18.9474267,11.1348215 C18.9871541,11.0626838 19.0199481,10.9725596 19.0199481,10.9345464 C19.0201104,10.8965332 19.0557181,10.8174665 19.0990811,10.7588362 C19.1598009,10.6767382 19.1625422,10.6570044 19.1110253,10.6729734 C19.0742333,10.6843741 19.0066632,10.8041694 18.9608687,10.9391768 C18.9150706,11.0741878 18.8339894,11.21881 18.7806794,11.2605608 C18.6348581,11.3747739 18.729893,11.3908566 19.0134409,11.2999502 C19.1889076,11.243693 19.2718147,11.2343537 19.2832046,11.2695625 C19.292244,11.2975181 19.3243289,11.396427 19.3545048,11.4893589 C19.3846796,11.5822908 19.3956114,11.699367 19.3787989,11.7495299 C19.3429403,11.8565344 19.4127131,11.8701931 19.4980076,11.7728632 C19.5307227,11.7355359 19.5851909,11.7049943 19.6190501,11.7049943 C19.6966409,11.7049943 19.9279967,11.4482657 19.9279967,11.3621705 C19.9279967,11.3267528 19.9494956,11.2977734 19.9757724,11.2977734 C20.0020493,11.2977734 20.0235482,11.3893992 20.0235482,11.5013838 C20.0235482,11.6133685 20.0434823,11.7049943 20.0678484,11.7049943 C20.1340127,11.7049943 20.4049154,11.3807657 20.4364436,11.2638371 C20.4515412,11.2078447 20.4753176,11.1620318 20.4892777,11.1620318 C20.5306373,11.1620318 20.64488,11.3105871 20.7136934,11.4538442 L20.7777953,11.5872946 L20.8782982,11.4312237 C20.9335747,11.3453831 20.9923685,11.2038859 21.0089518,11.1167871 C21.0255363,11.0296883 21.0564029,10.9278831 21.0775439,10.8905524 C21.1094362,10.8342424 21.121408,10.8380943 21.1478516,10.9131763 C21.1653806,10.962948 21.2316446,11.1258372 21.2951119,11.2751525 C21.3585755,11.4244789 21.4148652,11.602639 21.4202017,11.6710761 C21.4255387,11.7395132 21.4374676,11.7955055 21.4467084,11.7955055 C21.50397,11.7955055 21.89416,11.5051062 21.9357189,11.4315554 C21.9822623,11.3491918 21.9963047,11.3475278 22.1226638,11.4094123 C22.1978048,11.4462117 22.3545693,11.4965461 22.4710293,11.5212641 C22.5874894,11.5459803 22.7224155,11.5806106 22.7708591,11.5982167 C22.8423135,11.6241873 22.8525523,11.6144506 22.8250804,11.5466481 C22.8064612,11.5006802 22.8051662,11.3749779 22.8222173,11.26731 L22.8532149,11.0715546 L23.0835597,11.0715546 C23.2102509,11.0715546 23.3744313,11.0491148 23.4484027,11.0216869 C23.5742674,10.975018 23.5770899,10.9684875 23.4924078,10.9198816 C23.4426397,10.8913136 23.3458928,10.8215482 23.2774151,10.7648475 L23.1529082,10.661751 L24.2756694,10.6900441 C25.2467171,10.7145168 25.4500546,10.7075546 25.7806292,10.6385346 C26.0851262,10.5749573 26.3532075,10.5606323 27.0991569,10.5680793 C27.9722845,10.5767977 28.0632683,10.5697986 28.4474223,10.4643703 C28.9522314,10.3258173 29.1025871,10.2543585 29.258492,10.078888 C29.6186456,9.67355614 29.5050818,9.13957398 29.0151489,8.93432167 C28.7478793,8.82235104 28.1403611,8.81623011 27.625155,8.92031548 C26.5742289,9.13263324 25.5858773,9.11614472 24.9848895,8.87626985 C24.4136247,8.6482524 24.3329715,8.62703464 24.2082063,8.67195837 C24.0696829,8.72183715 23.9889795,8.84782357 23.9750907,9.03586421 C23.9696077,9.11019351 23.951916,9.1710634 23.9357824,9.17110029 C23.9196481,9.17115194 23.8497757,9.09374189 23.7805085,8.99908328 C23.6232426,8.78416809 23.6112885,8.49238151 23.7508672,8.27556621 L23.8468134,8.12653129 L23.7050948,7.95883472 C23.2103438,7.3734168 23.2184239,6.73055289 23.7265461,6.24744567 C24.0132965,5.97482252 24.5396819,5.72013787 24.9847132,5.63870992 C25.3959114,5.56347669 26.2599996,5.6099574 26.6644829,5.72907392 C27.2948024,5.91465734 28.1677086,6.42277957 28.8860973,7.0222546 C29.3572135,7.41535939 29.6224797,7.58752768 29.757048,7.58752768 C29.8594694,7.58752768 29.8696414,7.57254818 29.8435712,7.46012816 C29.8222863,7.36835845 29.8422356,7.29876283 29.9149046,7.21126928 C30.0729272,7.02100016 30.3431854,7.05186309 30.4644971,7.2740319 C30.6725867,7.65508668 30.4030296,8.05809713 29.9400672,8.05809417 C29.5776445,8.05809417 29.329708,7.94205473 28.9351127,7.58782653 C28.5179743,7.21336125 28.1526398,6.93225919 28.1214604,6.96178687 C28.0684713,7.0119645 28.2433219,7.52501964 28.3382092,7.59778826 C28.4789132,7.70569893 28.3668621,7.69919798 28.0977846,7.58384479 C27.8475791,7.47657905 27.6423821,7.3042226 27.5368283,7.11269165 L27.4621891,6.97724158 L27.3972275,7.15493678 C27.3615018,7.25266878 27.294891,7.37242358 27.2492035,7.42105898 C27.1587362,7.51732623 26.9041291,7.63273845 26.7821827,7.63273845 C26.7167049,7.63273845 26.719509,7.61441255 26.8016896,7.5051065 C26.854472,7.43490948 26.9227697,7.28301517 26.9534658,7.16756605 C27.0032155,6.98042565 26.998087,6.93574912 26.9061882,6.75596195 C26.8041358,6.55632511 26.668099,6.43983554 26.4136358,6.33421164 C26.2640216,6.27210945 26.252418,6.30128257 26.3536182,6.48505812 C26.4580507,6.67466313 26.4453882,7.02607622 26.3276184,7.20654595 C26.2162315,7.37725318 25.9960181,7.51801248 25.7693554,7.56340109 L25.6147862,7.59435478 L25.7329508,7.39860671 C25.8834369,7.14930508 25.8933875,6.81482325 25.7566387,6.60240588 C25.6389058,6.41951212 25.258231,6.18478784 25.0793884,6.18478784 C24.9507846,6.18478784 24.947163,6.19122976 24.9712667,6.37708621 C25.0075163,6.65663829 24.8053854,6.96617889 24.7403611,6.73069087 C24.6977839,6.57644338 24.4930739,6.51821446 24.2617551,6.59454717 C23.8279621,6.73770098 23.7163981,7.20655554 24.0407226,7.52346044 C24.1276849,7.60843035 24.2107385,7.67777508 24.2252914,7.6776644 C24.2398466,7.67750575 24.287508,7.61786079 24.3312031,7.54512168 C24.4856838,7.28797242 24.9128097,7.18134128 25.1640041,7.3372166 L25.2857328,7.41275606 L25.0792962,7.51141781 C24.813216,7.63855906 24.7213932,7.80826642 24.7961689,8.03463023 C24.8259065,8.12464003 24.884666,8.23900443 24.9267525,8.28877621 C24.9901202,8.36372498 25.0077513,8.36761005 25.029351,8.31140004 C25.0731457,8.19747839 25.3694815,7.94029187 25.4336498,7.96052563 C25.4668187,7.97098545 25.5001776,8.0185804 25.5077688,8.06628973 C25.5447047,8.29840183 25.5770508,8.34607795 25.7657039,8.44649592 C25.9466385,8.54280043 26.0263324,8.55437412 26.4958252,8.55248508 C26.7913567,8.55130074 27.2221611,8.51479652 27.4766871,8.4693747 C27.7263208,8.42482361 28.1670648,8.38678824 28.4561101,8.38484385 C28.9379112,8.38160444 29.0066029,8.39214175 29.281532,8.5114538 C30.180228,8.90147415 30.3329377,9.91369703 29.5863979,10.5321731 L29.3419038,10.7347284 L29.5323352,10.9889482 C29.63707,11.1287445 29.7806665,11.3826839 29.8514391,11.5532251 C29.9671908,11.8321536 29.9800119,11.920149 29.978905,12.4288984 C29.9775768,13.0581111 29.9400838,13.2315928 29.602167,14.1724233 C29.269482,15.0986801 29.2260377,15.6554672 29.4477011,16.152115 C29.5567378,16.3964579 29.7277291,16.5463783 29.8973443,16.5463783 C30.1720446,16.5463783 30.0604289,16.8796242 29.6991943,17.1379209 C29.4018328,17.3505485 29.3238339,17.4766825 29.3279906,17.7381338 C29.3309901,17.9261154 29.4030319,18.0907939 29.6333288,18.4361193 C29.6875206,18.5173812 29.718513,18.6168141 29.7021976,18.6570743 C29.6594728,18.7625949 29.2636304,18.7050308 29.1092161,18.5708278 C29.0268067,18.4992077 28.9861094,18.4862342 28.9708587,18.5267268 C28.8915338,18.737399 28.6104505,18.7782422 28.399092,18.6098151 L28.2630627,18.5014129 L28.1299924,18.6098151 C27.9538173,18.7533378 27.7416729,18.7527623 27.6418674,18.6085016 L27.5659516,18.4987712 L27.3952186,18.6085016 C27.1622579,18.7582246 27.0749451,18.7536238 27.1164339,18.5938006 C27.1941354,18.2945206 27.4838005,18.0791074 27.9458774,17.9770217 C28.486493,17.8575916 28.5094718,17.8188146 28.4632973,17.1040417 C28.4177316,16.3985665 28.3777739,16.3466179 27.4194182,15.746737 C26.9695906,15.4651889 26.7237018,15.27361 26.4684415,15.0058791 C25.9865888,14.500513 25.6959644,14.3671885 25.0135118,14.3384429 C24.1989371,14.3041303 23.7665979,14.4158493 22.5079143,14.9859188 C22.0480511,15.1941965 21.6109856,15.3786022 21.5366452,15.395715 L21.4014792,15.4268314 L21.5431277,15.1608568 C21.8949319,14.50032 22.127162,13.5804793 21.9975304,13.3611035 C21.9658096,13.3074208 21.9517544,13.3903024 21.9507028,13.6371542 C21.9483784,14.1894032 21.5982419,15.0563324 21.0180631,15.9465425 C20.662289,16.4923791 20.7549701,16.7862539 21.3022382,16.8476367 C21.4398208,16.86307 21.5523921,16.8901629 21.5523921,16.9078498 C21.5523921,16.9745934 21.2642324,17.3132481 21.1597153,17.3693364 C21.0997752,17.4015091 20.9324808,17.4690017 20.7879581,17.5193269 C20.5262638,17.6104509 20.525227,17.6115689 20.5348637,17.7912269 C20.5401914,17.8904458 20.5583132,18.0555707 20.5751349,18.1581655 C20.6005152,18.3129118 20.5838791,18.3774897 20.4775247,18.5370435 C20.3505347,18.7275609 20.3472473,18.7291083 20.1301996,18.7009325 C20.0096847,18.6852888 19.8729323,18.6397932 19.8263077,18.5998319 C19.748097,18.532802 19.7316048,18.534573 19.6133184,18.6226864 C19.4443748,18.7484662 19.179769,18.7483001 19.0380836,18.6222362 L18.9303198,18.5263638 L18.8016216,18.6222362 C18.6333236,18.747636 18.379672,18.749038 18.2880019,18.6250882 L18.2191958,18.5320567 L18.0583581,18.6249222 Z M24.7699843,18.6064746 L24.7699349,18.6064904 C24.6745383,18.6677994 24.5560786,18.7179659 24.5066905,18.7179659 C24.432967,18.7179659 24.4225186,18.6956922 24.4483037,18.5935365 C24.4925448,18.4182395 24.5353914,18.3491936 24.678678,18.222259 C24.7865599,18.126689 24.8638002,18.10772 25.2314436,18.0865174 C25.6176194,18.0642474 25.6715825,18.0497586 25.7912561,17.9362207 L25.9236955,17.8105663 L25.908025,17.1670383 C25.8894667,16.4061094 25.8575153,16.3159741 25.399829,15.733803 C24.9972901,15.2217698 24.8498232,14.9194792 24.8492033,14.6052492 L24.8487274,14.3611572 L25.1712072,14.3896765 C25.6521745,14.4322168 26.0168846,14.6197557 26.3878301,15.0152365 C26.5530104,15.1913231 26.8003639,15.4115623 26.9375333,15.5046528 L27.1869309,15.6739027 L27.0463597,15.8498232 C26.8703975,16.0700514 26.8610446,16.2684928 27.0184584,16.4417716 C27.1152385,16.548305 27.1690282,16.5680532 27.3528923,16.5643858 C27.5450261,16.5605782 27.5717331,16.5717206 27.5717331,16.654879 C27.5715892,16.7070379 27.4533471,16.8898541 27.3089832,17.0611332 C26.9666316,17.4673137 26.9082263,17.6467172 27.0144479,17.9658432 C27.2233491,18.5934631 26.9742689,18.9086512 26.5068422,18.6082275 L26.3361017,18.4984971 L26.2584814,18.6106957 C26.1933649,18.704812 26.1493598,18.7206711 25.9854819,18.7091103 C25.8494673,18.6995138 25.7741138,18.6678355 25.7374642,18.6048331 C25.7085136,18.5550613 25.6796615,18.5060584 25.673355,18.4959366 C25.6670459,18.4858162 25.6089468,18.5316254 25.5442472,18.5977418 C25.3959981,18.749252 25.2153476,18.7525173 25.06114,18.6064746 L24.9434329,18.4950027 L24.7699843,18.6064746 Z M14.9325873,16.9432339 L14.932577,16.9431605 C14.8916748,16.9984702 14.8368255,17.0437223 14.810697,17.0437223 C14.7654633,17.0437223 14.6247409,16.7752794 14.6247409,16.6889813 C14.6247409,16.6664788 14.5333697,16.6338885 14.4216913,16.6165632 L14.2186416,16.5850671 L14.3500258,16.4846528 C14.51795,16.3563162 14.5242665,16.2292746 14.3627241,16.2292746 C14.2974452,16.2292746 14.1759489,16.1716588 14.0927316,16.1012404 C13.9689017,15.9964578 13.9472393,15.9512684 13.9734453,15.8523816 C14.0134657,15.7013679 14.1594124,15.6918859 14.26611,15.8333646 L14.3428891,15.9351698 L14.4599248,15.8082168 C14.6092117,15.6462832 14.6207156,15.3202394 14.4840665,15.1239194 L14.3917987,14.9913619 L14.5082661,14.8602766 C14.6702229,14.6779953 14.6638769,14.5511865 14.4933504,14.5621772 C14.271023,14.5765037 14.1469699,14.515667 14.1469699,14.3923112 C14.1469699,14.2600976 14.2673814,14.2030899 14.3915341,14.2765227 C14.544325,14.3668903 14.6247346,14.3403146 14.6247346,14.199452 C14.6247346,14.0709051 14.6260518,14.0703295 14.8126277,14.1174965 C14.9170451,14.1438914 15.0097206,14.1983194 15.0212301,14.2400037 C15.0364457,14.2949666 15.0802183,14.3096952 15.1861743,14.2949666 C15.4494467,14.2583702 15.6273094,14.4242921 15.46314,14.553326 C15.4089445,14.5959401 15.3570107,14.5952576 15.2254567,14.5502047 C15.1328753,14.5184917 15.0432555,14.5056949 15.0262995,14.5217532 C14.9730153,14.5722334 15.0540264,14.7848611 15.167461,14.8922929 C15.2729078,14.9921574 15.2736457,14.9985034 15.1909338,15.0952355 C15.0154357,15.3004841 15.0194721,15.6529709 15.1992703,15.8232538 C15.3187927,15.9364708 15.3715131,15.9361682 15.4030025,15.8221248 C15.4323011,15.7160346 15.5900212,15.7016011 15.6739137,15.7973297 C15.7060337,15.8339852 15.7172952,15.9053813 15.6993877,15.9588168 C15.660869,16.0737863 15.4074351,16.2291819 15.2577877,16.2291819 C15.1075375,16.2294144 15.1233065,16.3355438 15.2937776,16.4713886 L15.4372635,16.5857382 L15.2221122,16.6162935 C15.0433186,16.6416848 15.0069609,16.6633977 15.0069609,16.7447593 C15.0069609,16.7986116 14.9734894,16.8879241 14.9325873,16.9432339 Z M17.5765053,15.7972655 L17.5764898,15.7972891 C17.4787947,15.8357975 17.382046,15.8645345 17.3614972,15.8611401 C17.3409465,15.8577517 17.2721146,15.8457024 17.2085366,15.8343634 C17.1445601,15.8229627 16.9186833,15.6438286 16.7028125,15.4333113 C16.4882589,15.2240485 16.2862423,15.0528469 16.2539073,15.0528469 C16.1442913,15.0528469 16.0102949,15.1461588 16.0102949,15.2224952 C16.0102949,15.2923786 16.0036058,15.2921167 15.9266865,15.2192337 C15.8581412,15.1542979 15.843078,15.0580011 15.843078,14.6849158 C15.843078,14.2384899 15.8404806,14.2278677 15.7065137,14.1266897 C15.6139345,14.0567768 15.5880871,14.01294 15.6262553,13.9906013 C15.7152985,13.938483 15.764288,13.770816 15.7159699,13.6835106 C15.6892832,13.6353179 15.6890445,13.5745513 15.7153501,13.5300335 C15.7644615,13.4469341 15.7330746,13.2773242 15.6748981,13.3113771 C15.6540729,13.3235673 15.6486024,13.3754163 15.6627344,13.4266048 C15.6897492,13.5244254 15.471602,13.7859209 15.3629822,13.7859209 C15.252156,13.7859209 15.3514745,13.5570814 15.4922228,13.4881499 C15.5686562,13.4507159 15.6183435,13.4003974 15.6026394,13.376335 C15.5869367,13.3522682 15.6163976,13.2816284 15.6681212,13.2193602 C15.7558818,13.113692 15.7612796,12.8988469 15.6749003,12.9494046 C15.6540751,12.9615948 15.6477446,13.0103445 15.6608354,13.0577403 C15.6863891,13.1502995 15.464604,13.4239484 15.3640237,13.4239484 C15.2522272,13.4239484 15.3505569,13.195559 15.4922239,13.1261774 C15.5686573,13.0887434 15.6183446,13.0384241 15.6026405,13.0143624 C15.5869378,12.9902956 15.6163987,12.9196559 15.6681223,12.8573876 C15.7214751,12.7931455 15.7515363,12.7056963 15.7375998,12.6552382 C15.7138023,12.5690438 15.7069324,12.5697042 15.5139589,12.6768076 L15.3148755,12.7873017 L15.1728691,12.6774053 C15.0382702,12.573238 15.0364328,12.5674241 15.1376773,12.5658855 C15.1964257,12.564989 15.3423392,12.53947 15.4619317,12.5091774 L15.6793705,12.4541038 L16.4338059,13.1858116 C17.0007651,13.7356662 17.2020437,13.961067 17.2436949,14.0927353 C17.3235732,14.3452468 17.6318926,14.777147 17.9153371,15.0336026 C18.0500235,15.1554716 18.1602261,15.2766719 18.1602261,15.3029421 C18.1602261,15.3864731 17.7609856,15.7245485 17.5765053,15.7972655 Z M15.2698104,13.9923468 L15.2698104,13.9923476 C15.2698104,14.1182263 14.9502675,14.1304644 14.6845327,14.0147718 C14.5191569,13.9427706 14.4814831,13.9037981 14.4814831,13.8047342 C14.4814831,13.6850591 14.485405,13.6835386 14.7249774,13.7104113 C15.0217227,13.7436946 15.2698104,13.8720755 15.2698104,13.9923468 Z M15.5417289,13.9812783 L15.5417289,13.981276 C15.3825773,14.1256828 15.3412988,14.1327224 15.3412988,14.015447 C15.3412988,13.9403097 15.5635377,13.7408832 15.6472716,13.7408832 C15.7200771,13.7408832 15.6627418,13.8714778 15.5417289,13.9812783 Z M15.2838307,13.6256074 C15.267855,13.7313125 15.0978377,13.7629724 14.9190578,13.6935354 C14.857509,13.6696272 14.7305227,13.6410673 14.6368751,13.6300681 C14.4042649,13.6027434 14.3083666,13.4508565 14.4522952,13.3377281 C14.5304395,13.2763085 14.8549042,13.3330756 15.1262987,13.4556455 C15.2521118,13.5124643 15.2940831,13.5577496 15.2838307,13.6256074 L15.2838307,13.6256074 Z M15.2838307,13.2621886 L15.2838343,13.2621923 C15.267486,13.3705169 15.1458164,13.3935396 14.9352142,13.3281611 C14.8563837,13.3036848 14.6956788,13.2692578 14.5780934,13.2516476 C14.4200007,13.2279756 14.3495085,13.1915267 14.3075069,13.1117443 C14.186933,12.882713 14.3539581,12.8200979 14.7312127,12.9528805 C15.2365456,13.1307454 15.2984405,13.1653864 15.2838307,13.2621886 Z M15.5369325,12.9216449 L15.5369473,12.9216438 C15.3646502,13.0963257 15.290018,13.1032067 15.336056,12.9401774 C15.3744382,12.8042625 15.6755556,12.6080458 15.6755556,12.7189568 C15.6755556,12.753144 15.6131803,12.8443603 15.5369325,12.9216449 Z M15.2838307,12.8987698 L15.2838122,12.8987687 C15.2642577,13.0286007 15.1439421,13.0300286 14.7438862,12.9051896 C14.4939131,12.8271744 14.4057979,12.7781406 14.394982,12.7110243 C14.3751729,12.5880744 14.4918691,12.5562263 14.7564491,12.612381 C15.1170712,12.688924 15.3004524,12.7885045 15.2838307,12.8987698 Z M15.6365498,12.385556 L15.636534,12.3855785 C15.261198,12.552677 14.4684764,12.541911 14.1068543,12.3648098 C13.6658532,12.1488246 13.6536777,11.6398501 14.0868287,11.5265852 C14.2788024,11.4763891 14.4111495,11.521881 14.4551583,11.6531988 C14.4874601,11.7495841 14.4437502,11.885857 14.3805338,11.885857 C14.2959329,11.885857 14.3401888,12.0195914 14.4418391,12.071112 C14.7311721,12.2177672 15.4367211,12.1361548 15.4367211,11.9560355 C15.4367211,11.9174379 15.4166711,11.885857 15.3921664,11.885857 C15.3196339,11.885857 15.2841701,11.7152457 15.337196,11.6214061 C15.4064522,11.4988561 15.5219493,11.4683865 15.7028729,11.524936 C16.1386212,11.6611166 16.0986636,12.1798462 15.6365498,12.385556 Z M15.3491354,11.9867177 L15.3491343,11.9869531 C15.2471187,12.0835793 14.5560363,12.1074137 14.4611748,12.0175736 C14.4468812,12.0040367 14.4614434,11.9270805 14.4935353,11.8465601 C14.5430422,11.722341 14.5392973,11.6793875 14.4688162,11.5630824 C14.3946201,11.4406269 14.3857464,11.2702074 14.3857464,9.96761842 C14.3857464,7.67346793 14.5334014,6.59874438 14.9582878,5.79992399 C15.1833492,5.37680855 15.4373439,5.08124758 15.770944,4.85426025 C16.0299232,4.67805525 16.0439767,4.67878946 15.9437579,4.86329923 C15.6920323,5.32670435 15.5010437,7.25850598 15.4530503,9.82682554 C15.4251943,11.31716 15.415085,11.4649073 15.3341625,11.5636355 C15.2264024,11.6951045 15.2211632,11.8099522 15.3194044,11.8871668 C15.3642665,11.9224276 15.3758952,11.9613728 15.3491354,11.9867177 Z M19.231629,9.53760688 L19.2316696,9.53762016 C19.2026551,9.58208344 19.2007403,9.58204286 18.9959971,9.53270276 C18.9171629,9.51370462 18.7588193,9.49575579 18.6441228,9.49280786 L18.4355758,9.48745508 L18.5127386,9.37592794 C18.6176468,9.22429115 18.6132894,9.215972 18.4289383,9.215972 C18.111159,9.215972 17.4145386,9.07540086 17.1653477,8.96099957 C16.8844526,8.83204307 16.7030679,8.58671139 16.8122042,8.48335286 C16.8549659,8.44283812 16.9781704,8.47937554 17.3348632,8.63836113 C17.9525645,8.91365919 18.5517075,9.08021939 18.9244239,9.08021939 C19.0434002,9.08021939 19.0770414,9.1099238 19.1605539,9.288748 C19.2141193,9.40344077 19.2461053,9.51542542 19.231629,9.53760688 Z" id="Shape" fill="#FFBE29" fill-rule="nonzero"></path>
        <path d="M4,1 C2.34314575,1 1,2.34314575 1,4 L1,20 C1,21.6568542 2.34314575,23 4,23 L32,23 C33.6568542,23 35,21.6568542 35,20 L35,4 C35,2.34314575 33.6568542,1 32,1 L4,1 Z M4,0 L32,0 C34.209139,0 36,1.790861 36,4 L36,20 C36,22.209139 34.209139,24 32,24 L4,24 C1.790861,24 0,22.209139 0,20 L0,4 C0,1.790861 1.790861,0 4,0 Z" id="Mask" fill="#031619" fill-rule="nonzero" opacity="0.2"></path>
    </g>
</svg>