<?xml version="1.0" encoding="UTF-8"?>
<svg width="36px" height="24px" viewBox="0 0 36 24" version="1.1" xmlns="http://www.w3.org/2000/svg" xmlns:xlink="http://www.w3.org/1999/xlink">
    <!-- Generator: Sketch 55.2 (78181) - https://sketchapp.com -->
    <title>Flag / GY</title>
    <desc>Created with Sketch.</desc>
    <g id="Flag-/-GY" stroke="none" stroke-width="1" fill="none" fill-rule="evenodd">
        <path d="M4,0 L32,0 C34.209139,0 36,1.790861 36,4 L36,20 C36,22.209139 34.209139,24 32,24 L4,24 C1.790861,24 0,22.209139 0,20 L0,4 C0,1.790861 1.790861,0 4,0 Z" id="Mask" fill="#00A23D"></path>
        <path d="M6.9690941e-07,20.0023869 L6.9690941e-07,3.99761309 C0.000690031537,2.81716923 0.512713906,1.7563281 1.32657265,1.02458939 L36.0000007,12 L1.32657265,22.9754106 C0.512713906,22.2436719 0.000690031537,21.1828308 6.9690941e-07,20.0023869 Z" id="Path" fill="#FFFFFF"></path>
        <path d="M0.679265132,1.769303 L33,12 L0.679265132,22.230697 C0.250745707,21.5940362 0.000481790474,20.827424 0,20.0023869 L0,3.99761309 C0.000481790474,3.17257604 0.250745707,2.4059638 0.679265132,1.769303 Z" id="Path" fill="#FFD000"></path>
        <path d="M0,20.0023869 L0,3.99761309 C0.000689334627,2.81716923 0.512713209,1.7563281 1.32657195,1.02458939 L18,12 L1.32657195,22.9754106 C0.512713209,22.2436719 0.000689334627,21.1828308 0,20.0023869 Z" id="Path" fill="#000000"></path>
        <path d="M0.61284852,1.87129071 L16,12 L0.61284852,22.1287093 C0.224998556,21.5128683 0.000456336051,20.7838348 0,20.0023869 L0,3.99761309 C0.000456336051,3.2161652 0.224998556,2.48713169 0.61284852,1.87129071 L0.61284852,1.87129071 Z" id="Path" fill="#E00017"></path>
        <path d="M4,1 C2.34314575,1 1,2.34314575 1,4 L1,20 C1,21.6568542 2.34314575,23 4,23 L32,23 C33.6568542,23 35,21.6568542 35,20 L35,4 C35,2.34314575 33.6568542,1 32,1 L4,1 Z M4,0 L32,0 C34.209139,0 36,1.790861 36,4 L36,20 C36,22.209139 34.209139,24 32,24 L4,24 C1.790861,24 0,22.209139 0,20 L0,4 C0,1.790861 1.790861,0 4,0 Z" id="Mask" fill="#031619" fill-rule="nonzero" opacity="0.2"></path>
    </g>
</svg>