<?xml version="1.0" encoding="UTF-8"?>
<svg width="36px" height="24px" viewBox="0 0 36 24" version="1.1" xmlns="http://www.w3.org/2000/svg" xmlns:xlink="http://www.w3.org/1999/xlink">
    <!-- Generator: Sketch 55.2 (78181) - https://sketchapp.com -->
    <title>Flag / CF</title>
    <desc>Created with Sketch.</desc>
    <g id="Flag-/-CF" stroke="none" stroke-width="1" fill="none" fill-rule="evenodd">
        <path d="M4,0 L32,0 C34.209139,0 36,1.790861 36,4 L36,20 C36,22.209139 34.209139,24 32,24 L4,24 C1.790861,24 0,22.209139 0,20 L0,4 C0,1.790861 1.790861,0 4,0 Z" id="Mask" fill="#002F87"></path>
        <polygon id="Star" fill="#FFD000" points="5.10292445 4.07065856 3.80324566 5 4.28547907 3.47674972 3 2.52786405 4.59771542 2.51578504 5.10292445 1 5.60813348 2.51578504 7.2058489 2.52786405 5.92036983 3.47674972 6.40260323 5"></polygon>
        <path d="M36,18 L36,20 C36,22.209139 34.209139,24 32,24 L4,24 C1.790861,24 0,22.209139 0,20 L0,18 L36,18 Z" id="Path" fill="#FFCD00"></path>
        <rect id="Rectangle" fill="#FFFFFF" x="0" y="6" width="36" height="6"></rect>
        <rect id="Rectangle-Copy" fill="#009A00" x="0" y="12" width="36" height="6"></rect>
        <rect id="Rectangle" fill="#E5002C" x="15" y="0" width="6" height="24"></rect>
        <path d="M4,1 C2.34314575,1 1,2.34314575 1,4 L1,20 C1,21.6568542 2.34314575,23 4,23 L32,23 C33.6568542,23 35,21.6568542 35,20 L35,4 C35,2.34314575 33.6568542,1 32,1 L4,1 Z M4,0 L32,0 C34.209139,0 36,1.790861 36,4 L36,20 C36,22.209139 34.209139,24 32,24 L4,24 C1.790861,24 0,22.209139 0,20 L0,4 C0,1.790861 1.790861,0 4,0 Z" id="Mask" fill="#031619" fill-rule="nonzero" opacity="0.2"></path>
    </g>
</svg>