<?xml version="1.0" encoding="UTF-8"?>
<svg width="36px" height="24px" viewBox="0 0 36 24" version="1.1" xmlns="http://www.w3.org/2000/svg" xmlns:xlink="http://www.w3.org/1999/xlink">
    <!-- Generator: Sketch 55.2 (78181) - https://sketchapp.com -->
    <title>Flag / KG</title>
    <desc>Created with Sketch.</desc>
    <g id="Flag-/-KG" stroke="none" stroke-width="1" fill="none" fill-rule="evenodd">
        <path d="M4,0 L32,0 C34.209139,0 36,1.790861 36,4 L36,20 C36,22.209139 34.209139,24 32,24 L4,24 C1.790861,24 0,22.209139 0,20 L0,4 C0,1.790861 1.790861,0 4,0 Z" id="Mask" fill="#FF0000"></path>
        <path d="M4,1 C2.34314575,1 1,2.34314575 1,4 L1,20 C1,21.6568542 2.34314575,23 4,23 L32,23 C33.6568542,23 35,21.6568542 35,20 L35,4 C35,2.34314575 33.6568542,1 32,1 L4,1 Z M4,0 L32,0 C34.209139,0 36,1.790861 36,4 L36,20 C36,22.209139 34.209139,24 32,24 L4,24 C1.790861,24 0,22.209139 0,20 L0,4 C0,1.790861 1.790861,0 4,0 Z" id="Mask" fill="#031619" fill-rule="nonzero" opacity="0.2"></path>
        <path d="M18,17.8859747 L17.1906534,19.9589546 L16.815162,17.7654885 L15.605095,19.6331141 L15.6788314,17.4089624 L14.1175843,18.9947729 L14.6375297,16.8309929 L12.7890201,18.070065 L13.733888,16.0552419 L11.6737941,16.8968479 L13.0049014,15.1134688 L10.8175637,15.5231532 L12.4804147,14.0442299 L10.255383,14.0052203 L12.1819004,12.8913001 L10.0102679,12.4051934 L12.1215799,11.7018803 L10.0922534,10.7885778 L12.3019226,10.5246655 L10.4979829,9.22155798 L12.7155452,9.40785116 L11.2108459,7.76828792 L13.345514,8.39715967 L12.2016577,6.48826465 L14.166038,7.53396888 L13.4298543,5.43389247 L15.1435249,6.85361794 L14.8451532,4.64833751 L16.2379562,6.38396047 L16.3896118,4.16376047 L17.4045258,6.14422433 L18,4 L18.5954742,6.14422433 L19.6103882,4.16376047 L19.7620438,6.38396047 L21.1548468,4.64833751 L20.8564751,6.85361794 L22.5701457,5.43389247 L21.833962,7.53396888 L23.7983423,6.48826465 L22.654486,8.39715967 L24.7891541,7.76828792 L23.2844548,9.40785116 L25.5020171,9.22155798 L23.6980774,10.5246655 L25.9077466,10.7885778 L23.8784201,11.7018803 L25.9897321,12.4051934 L23.8180996,12.8913001 L25.744617,14.0052203 L23.5195853,14.0442299 L25.1824363,15.5231532 L22.9950986,15.1134688 L24.3262059,16.8968479 L22.266112,16.0552419 L23.2109799,18.070065 L21.3624703,16.8309929 L21.8824157,18.9947729 L20.3211686,17.4089624 L20.394905,19.6331141 L19.184838,17.7654885 L18.8093466,19.9589546 L18,17.8859747 Z M18,17 C20.7614237,17 23,14.7614237 23,12 C23,9.23857625 20.7614237,7 18,7 C15.2385763,7 13,9.23857625 13,12 C13,14.7614237 15.2385763,17 18,17 Z" id="Shape" fill="#FEFF00"></path>
        <path d="M17.3320452,15.944478 C17.4458472,15.2197941 17.6749544,14.5333787 18,13.9045985 C18.3250456,14.5333787 18.5541528,15.2197941 18.6679548,15.944478 C18.4507432,15.9809924 18.2275913,16 18,16 C17.7724087,16 17.5492568,15.9809924 17.3320452,15.944478 L17.3320452,15.944478 Z M16.8438553,15.8303752 C16.6425742,15.7697043 16.4479824,15.6936018 16.2614553,15.6034431 C16.3238523,14.5263869 16.6387836,13.517079 17.1479204,12.6338481 C17.3517135,12.873893 17.5390167,13.1283761 17.7080799,13.3955471 C17.2835228,14.1350565 16.9855883,14.9565254 16.8438553,15.8303752 L16.8438553,15.8303752 Z M15.7806961,15.3283743 C15.592086,15.2023618 15.4147886,15.0607436 15.2506499,14.9053656 C15.2668485,13.7265582 15.5852221,12.6207648 16.1318175,11.6619385 C16.3654502,11.8430408 16.5868726,12.0391417 16.7946404,12.2487971 C16.240997,13.16269 15.8835467,14.2086845 15.7806961,15.3283743 L15.7806961,15.3283743 Z M14.7770345,14.3695161 C14.2886118,13.7062868 14,12.8868479 14,12 C14,11.519031 14.0848887,11.0578887 14.2405011,10.6307385 C14.7678621,10.8162423 15.2652409,11.0653889 15.7234189,11.3689597 C15.203777,12.2652716 14.8706191,13.2831534 14.7770345,14.3695161 Z M14.4415121,10.1713716 C14.5621379,9.93710826 14.7052172,9.71629705 14.8679059,9.51178213 C15.458374,9.68146417 16.0156557,9.92956986 16.5277522,10.2441004 C16.3344694,10.4663066 16.1544979,10.7003984 15.9890795,10.945134 C15.509943,10.6288309 14.9910518,10.3678747 14.4415121,10.1713716 L14.4415121,10.1713716 Z M15.2416369,9.10319267 C15.465325,8.89013017 15.7136595,8.70271022 15.9819263,8.54564707 C16.5436511,8.71792685 17.0741835,8.96152346 17.5629621,9.26587539 C17.321126,9.45328004 17.091466,9.65564497 16.8753702,9.87158217 C16.3697341,9.55116753 15.8217236,9.29160504 15.2416369,9.10319267 L15.2416369,9.10319267 Z M16.6286902,8.24124788 C17.0564144,8.08516035 17.5182621,8 18,8 C18.4817379,8 18.9435856,8.08516035 19.3713098,8.24124788 C18.8867535,8.42984275 18.4274862,8.66904327 18,8.95235737 C17.5725138,8.66904327 17.1132465,8.42984275 16.6286902,8.24124788 L16.6286902,8.24124788 Z M20.0180737,8.54564707 C20.2863405,8.70271022 20.534675,8.89013017 20.7583631,9.10319267 C20.1782764,9.29160504 19.6302659,9.55116753 19.1246298,9.87158217 C18.908534,9.65564497 18.678874,9.45328004 18.4370379,9.26587539 C18.9258165,8.96152346 19.4563489,8.71792685 20.0180737,8.54564707 Z M21.1320941,9.51178213 C21.2947828,9.71629705 21.4378621,9.93710826 21.5584879,10.1713716 C21.0089482,10.3678747 20.490057,10.6288309 20.0109205,10.945134 C19.8455021,10.7003984 19.6655306,10.4663066 19.4722478,10.2441004 C19.9843443,9.92956986 20.541626,9.68146417 21.1320941,9.51178213 L21.1320941,9.51178213 Z M21.7594989,10.6307385 C21.9151113,11.0578887 22,11.519031 22,12 C22,12.8868479 21.7113882,13.7062868 21.2229655,14.3695161 C21.1293809,13.2831534 20.796223,12.2652716 20.2765811,11.3689597 C20.7347591,11.0653889 21.2321379,10.8162423 21.7594989,10.6307385 L21.7594989,10.6307385 Z M20.7493501,14.9053656 C20.5852114,15.0607436 20.407914,15.2023618 20.2193039,15.3283743 C20.1164533,14.2086845 19.759003,13.16269 19.2053596,12.2487971 C19.4131274,12.0391417 19.6345498,11.8430408 19.8681825,11.6619385 C20.4147779,12.6207648 20.7331515,13.7265582 20.7493501,14.9053656 L20.7493501,14.9053656 Z M19.7385447,15.6034431 C19.5520176,15.6936018 19.3574258,15.7697043 19.1561447,15.8303752 C19.0144117,14.9565254 18.7164772,14.1350565 18.2919201,13.3955471 C18.4609833,13.1283761 18.6482865,12.873893 18.8520796,12.6338481 C19.3612164,13.517079 19.6761477,14.5263869 19.7385447,15.6034431 L19.7385447,15.6034431 Z M17.4261704,12.1916373 C17.600917,11.9363742 17.7927424,11.6937252 18,11.4653367 C18.2072576,11.6937252 18.399083,11.9363742 18.5738296,12.1916373 C18.3672998,12.424531 18.1755343,12.6708155 18,12.9290238 C17.8244657,12.6708155 17.6327002,12.424531 17.4261704,12.1916373 L17.4261704,12.1916373 Z M16.3967912,11.2349113 C16.5646393,10.9856112 16.7486858,10.7481228 16.9474221,10.5239546 C17.194713,10.7025274 17.4294254,10.8974391 17.6499768,11.1071072 C17.4435461,11.3326997 17.2511952,11.5713911 17.0743154,11.8217902 C16.8609146,11.6126446 16.6346403,11.4165854 16.3967912,11.2349113 L16.3967912,11.2349113 Z M19.6032088,11.2349113 C19.3653597,11.4165854 19.1390854,11.6126446 18.9256846,11.8217902 C18.7488048,11.5713911 18.5564539,11.3326997 18.3500232,11.1071072 C18.5705746,10.8974391 18.805287,10.7025274 19.0525779,10.5239546 C19.2513142,10.7481228 19.4353607,10.9856112 19.6032088,11.2349113 Z M17.2958465,10.1591842 C17.5164969,9.94472466 17.7517602,9.74522043 18,9.56230765 C18.2482398,9.74522043 18.4835031,9.94472466 18.7041535,10.1591842 C18.4569948,10.3412711 18.2218104,10.5386701 18,10.7499815 C17.7781896,10.5386701 17.5430052,10.3412711 17.2958465,10.1591842 L17.2958465,10.1591842 Z" id="Shape" fill="#FEFF00"></path>
    </g>
</svg>