<?xml version="1.0" encoding="UTF-8"?>
<svg width="36px" height="24px" viewBox="0 0 36 24" version="1.1" xmlns="http://www.w3.org/2000/svg" xmlns:xlink="http://www.w3.org/1999/xlink">
    <!-- Generator: Sketch 55.2 (78181) - https://sketchapp.com -->
    <title>Flag / OM</title>
    <desc>Created with Sketch.</desc>
    <g id="Flag-/-OM" stroke="none" stroke-width="1" fill="none" fill-rule="evenodd">
        <path d="M4,0 L32,0 C34.209139,0 36,1.790861 36,4 L36,20 C36,22.209139 34.209139,24 32,24 L4,24 C1.790861,24 0,22.209139 0,20 L0,4 C0,1.790861 1.790861,0 4,0 Z" id="Mask" fill="#FFFFFF"></path>
        <path d="M0,12 L36,12 L36,20 C36,22.209139 34.209139,24 32,24 L4,24 C1.790861,24 0,22.209139 0,20 L0,12 Z" id="Rectangle" fill="#008300"></path>
        <rect id="Rectangle" fill="#EF0000" x="0" y="8" width="36" height="8"></rect>
        <path d="M4,0 L11,0 L11,24 L4,24 C1.790861,24 0,22.209139 0,20 L0,4 C0,1.790861 1.790861,0 4,0 Z" id="Rectangle" fill="#EF0000"></path>
        <path d="M5.5,4.79289322 L7.14644661,3.14644661 C7.34170876,2.95118446 7.65829124,2.95118446 7.85355339,3.14644661 C8.04881554,3.34170876 8.04881554,3.65829124 7.85355339,3.85355339 L6.20710678,5.5 L7.85355339,7.14644661 C8.04881554,7.34170876 8.04881554,7.65829124 7.85355339,7.85355339 C7.65829124,8.04881554 7.34170876,8.04881554 7.14644661,7.85355339 L5.5,6.20710678 L3.85355339,7.85355339 C3.65829124,8.04881554 3.34170876,8.04881554 3.14644661,7.85355339 C2.95118446,7.65829124 2.95118446,7.34170876 3.14644661,7.14644661 L4.79289322,5.5 L3.14644661,3.85355339 C2.95118446,3.65829124 2.95118446,3.34170876 3.14644661,3.14644661 C3.34170876,2.95118446 3.65829124,2.95118446 3.85355339,3.14644661 L5.5,4.79289322 Z" id="Path" fill="#FFFFFF" fill-rule="nonzero"></path>
        <path d="M4,1 C2.34314575,1 1,2.34314575 1,4 L1,20 C1,21.6568542 2.34314575,23 4,23 L32,23 C33.6568542,23 35,21.6568542 35,20 L35,4 C35,2.34314575 33.6568542,1 32,1 L4,1 Z M4,0 L32,0 C34.209139,0 36,1.790861 36,4 L36,20 C36,22.209139 34.209139,24 32,24 L4,24 C1.790861,24 0,22.209139 0,20 L0,4 C0,1.790861 1.790861,0 4,0 Z" id="Mask" fill="#031619" fill-rule="nonzero" opacity="0.2"></path>
    </g>
</svg>