<?xml version="1.0" encoding="UTF-8"?>
<svg width="36px" height="24px" viewBox="0 0 36 24" version="1.1" xmlns="http://www.w3.org/2000/svg" xmlns:xlink="http://www.w3.org/1999/xlink">
    <!-- Generator: Sketch 55.2 (78181) - https://sketchapp.com -->
    <title>Flag / BR</title>
    <desc>Created with Sketch.</desc>
    <g id="Flag-/-BR" stroke="none" stroke-width="1" fill="none" fill-rule="evenodd">
        <g id="Rectangle-13-+-Rectangle-13-Copy-+-Rectangle-13-Copy-2-Mask">
            <path d="M4,0 L32,0 C34.209139,0 36,1.790861 36,4 L36,20 C36,22.209139 34.209139,24 32,24 L4,24 C1.790861,24 0,22.209139 0,20 L0,4 C0,1.790861 1.790861,0 4,0 Z" id="Mask" fill="#009B3A"></path>
            <polygon id="Shape" fill="#FEDF00" fill-rule="nonzero" points="5 12 18 3 31 12 18 21"></polygon>
            <circle id="Oval" fill="#002776" fill-rule="nonzero" cx="18" cy="12" r="5"></circle>
            <path d="M13.864,9.19 C14.2591248,8.60957139 14.7714615,8.11835493 15.368,7.748 L22.998,12.153 C22.977717,12.8550436 22.8090175,13.5448371 22.503,14.177 L13.864,9.189 L13.864,9.19 Z" id="Shape" fill="#F7F7F7" fill-rule="nonzero"></path>
        </g>
        <path d="M4,1 C2.34314575,1 1,2.34314575 1,4 L1,20 C1,21.6568542 2.34314575,23 4,23 L32,23 C33.6568542,23 35,21.6568542 35,20 L35,4 C35,2.34314575 33.6568542,1 32,1 L4,1 Z M4,0 L32,0 C34.209139,0 36,1.790861 36,4 L36,20 C36,22.209139 34.209139,24 32,24 L4,24 C1.790861,24 0,22.209139 0,20 L0,4 C0,1.790861 1.790861,0 4,0 Z" id="Mask" fill="#031619" fill-rule="nonzero" opacity="0.2"></path>
    </g>
</svg>