<?xml version="1.0" encoding="UTF-8"?>
<svg xmlns="http://www.w3.org/2000/svg" xmlns:xlink="http://www.w3.org/1999/xlink" width="px" height="100px" viewBox="0 0 233 100" version="1.1">
<defs>
<clipPath id="clip1">
  <path d="M 227 51 L 232.777344 51 L 232.777344 57 L 227 57 Z M 227 51 "/>
</clipPath>
</defs>
<g id="surface1">
<path style=" stroke:none;fill-rule:nonzero;fill:rgb(85.882353%,5.098039%,8.235294%);fill-opacity:1;" d="M 16.921875 89.257812 C 18.234375 87.796875 19.621094 86.414062 21.082031 85.105469 C 20.796875 85.082031 20.347656 85.027344 19.855469 84.953125 C 18.800781 85.914062 17.453125 87.328125 16.242188 88.625 C 14.710938 90.28125 13.453125 91.726562 13.453125 91.734375 C 13.433594 91.746094 13.425781 91.773438 13.402344 91.789062 C 12.402344 92.066406 10.703125 92.535156 9.574219 92.839844 C 7.898438 93.304688 6.398438 93.195312 6.398438 94.285156 C 6.398438 94.285156 4.664062 95.21875 5.066406 96.605469 C 5.066406 96.605469 8.550781 93.824219 11.519531 93.355469 C 11.519531 93.355469 9.703125 94.539062 9.867188 96.148438 C 9.867188 96.148438 12.316406 92.472656 15.175781 94.703125 C 15.175781 94.703125 13.902344 92.964844 14.433594 92.007812 C 14.894531 91.492188 15.839844 90.425781 16.921875 89.257812 Z M 11.410156 45.875 C 11.261719 45.9375 11.101562 45.96875 10.941406 45.964844 C 10.417969 45.960938 9.949219 45.640625 9.757812 45.152344 C 9.730469 45.105469 9.714844 45.058594 9.703125 45.007812 L 9.328125 45.136719 C 9.460938 45.570312 9.757812 45.933594 10.160156 46.148438 C 10.558594 46.359375 11.027344 46.40625 11.460938 46.269531 C 11.671875 46.195312 11.863281 46.082031 12.023438 45.929688 C 12.519531 45.445312 12.6875 44.714844 12.453125 44.0625 L 11.585938 44.363281 C 11.644531 44.492188 11.675781 44.632812 11.679688 44.773438 C 11.679688 44.894531 11.65625 45.015625 11.609375 45.125 L 12.003906 45.367188 C 11.933594 45.476562 11.847656 45.578125 11.75 45.660156 C 11.652344 45.753906 11.535156 45.824219 11.410156 45.875 Z M 46.449219 43.0625 L 29.347656 47.242188 L 29.347656 47.222656 L 29.347656 47.242188 L 62.757812 32.75 L 35.230469 36.128906 L 49.960938 25.339844 L 34.171875 31.523438 L 36.558594 26.726562 L 25.261719 34.878906 L 25.167969 34.710938 L 41.183594 0 L 15.144531 30.902344 L 14.980469 14.054688 L 5.425781 36.574219 L 4.925781 29.933594 L 0.21875 47.207031 L 0.226562 47.207031 C 0.679688 46.886719 1.183594 46.640625 1.714844 46.476562 C 1.78125 46.457031 1.851562 46.441406 1.917969 46.421875 C 1.925781 46.421875 1.933594 46.410156 1.945312 46.410156 C 2.015625 46.394531 2.085938 46.378906 2.152344 46.367188 C 2.160156 46.367188 2.171875 46.359375 2.183594 46.359375 C 2.253906 46.347656 2.328125 46.339844 2.402344 46.332031 L 2.402344 46.324219 C 2.476562 46.316406 2.546875 46.316406 2.617188 46.308594 L 2.660156 46.308594 C 2.734375 46.300781 2.804688 46.300781 2.878906 46.308594 C 2.890625 46.308594 2.898438 46.3125 2.90625 46.316406 C 2.972656 46.316406 3.039062 46.324219 3.105469 46.332031 C 3.117188 46.335938 3.128906 46.335938 3.140625 46.332031 C 3.210938 46.34375 3.28125 46.355469 3.351562 46.375 C 3.367188 46.375 3.382812 46.378906 3.394531 46.382812 C 3.464844 46.402344 3.542969 46.421875 3.621094 46.445312 C 4.585938 46.792969 5.636719 46.792969 6.601562 46.445312 C 6.601562 46.445312 8.121094 47.421875 8.121094 48.238281 C 8.121094 48.238281 6.125 48.359375 6.125 47.46875 C 4.09375 46.933594 1.941406 47.082031 0 47.886719 L 7.53125 51.128906 C 7.53125 51.09375 7.125 49.683594 7.5625 49.203125 C 7.699219 49.03125 7.941406 48.976562 8.320312 49.105469 C 8.417969 49.152344 8.535156 49.144531 8.621094 49.078125 C 9.207031 48.476562 6.367188 43.21875 6.367188 43.21875 C 4.558594 43.183594 2.824219 43.9375 1.609375 45.28125 C 1.464844 45.4375 1.3125 45.601562 1.171875 45.78125 C 1.734375 44.820312 2.457031 43.964844 3.304688 43.25 C 4.082031 42.582031 4.996094 42.089844 5.980469 41.804688 C 6.273438 41.101562 5.898438 41.5625 6.5 41.1875 C 6.5 41.1875 6.5 41.179688 6.5 41.179688 C 7.125 37.222656 8.835938 33.515625 11.445312 30.480469 C 11.6875 30.210938 11.9375 29.9375 12.203125 29.675781 C 11.710938 30.59375 11.394531 31.601562 11.277344 32.636719 C 11.933594 31.6875 12.671875 30.796875 13.480469 29.976562 C 13.46875 29.992188 13.457031 30.011719 13.449219 30.03125 C 13.210938 30.53125 11.496094 34.21875 11.671875 35.289062 C 11.675781 35.296875 11.679688 35.304688 11.679688 35.316406 L 15.164062 32.117188 L 15.148438 32.128906 C 15.046875 32.265625 11.878906 36.558594 11.566406 38.03125 L 11.566406 38.042969 L 16.835938 34.273438 L 16.835938 34.28125 C 16.820312 34.3125 16.171875 35.214844 15.902344 35.707031 C 15.800781 35.863281 15.722656 36.039062 15.683594 36.21875 L 15.691406 36.25 L 18.527344 35.027344 C 18.527344 35.027344 18.40625 35.171875 18.207031 35.386719 L 17.148438 36.460938 L 16.890625 36.738281 L 14.96875 38.683594 L 14.929688 38.726562 L 13.46875 40.21875 L 12.53125 41.171875 C 12.179688 41.527344 11.886719 41.9375 11.671875 42.386719 C 11.640625 42.65625 11.777344 42.914062 12.011719 43.046875 C 12.402344 43.265625 12.714844 43.601562 12.902344 44.007812 C 13.007812 44.261719 13.0625 44.535156 13.058594 44.808594 C 13.0625 45.347656 12.839844 45.867188 12.449219 46.238281 C 11.664062 47 10.433594 47.039062 9.597656 46.339844 C 10.355469 47.21875 11.652344 47.382812 12.601562 46.714844 L 14.957031 44.992188 L 15.058594 44.914062 L 17.492188 43.128906 C 18.109375 43.875 18.648438 44.6875 19.097656 45.546875 C 17.65625 46.925781 15.1875 49.3125 12.730469 51.925781 C 11.261719 53.476562 9.800781 55.121094 8.550781 56.671875 L 9.429688 52.539062 L 9.5 52.195312 C 9.5 52.195312 9.5 52.195312 9.5 52.203125 C 9.492188 52.207031 9.484375 52.210938 9.476562 52.214844 C 9.476562 52.214844 9.464844 52.226562 9.464844 52.226562 C 9.464844 52.226562 9.445312 52.226562 9.441406 52.246094 C 9.433594 52.246094 9.429688 52.25 9.429688 52.257812 C 9.417969 52.261719 9.40625 52.265625 9.398438 52.273438 C 9.394531 52.28125 9.382812 52.289062 9.375 52.292969 C 9.363281 52.300781 9.351562 52.308594 9.339844 52.316406 C 9.328125 52.324219 9.320312 52.335938 9.308594 52.34375 C 9.296875 52.355469 9.292969 52.363281 9.273438 52.367188 C 9.261719 52.378906 9.25 52.394531 9.238281 52.402344 C 9.226562 52.410156 9.210938 52.429688 9.195312 52.433594 C 9.1875 52.453125 9.171875 52.464844 9.15625 52.476562 C 9.136719 52.488281 9.121094 52.5 9.105469 52.519531 C 9.089844 52.53125 9.078125 52.542969 9.0625 52.558594 C 9.042969 52.570312 9.023438 52.589844 9.007812 52.609375 C 8.984375 52.617188 8.976562 52.632812 8.953125 52.644531 C 8.9375 52.667969 8.917969 52.6875 8.894531 52.703125 C 8.878906 52.722656 8.859375 52.738281 8.84375 52.753906 C 8.816406 52.773438 8.796875 52.796875 8.777344 52.820312 C 8.757812 52.835938 8.742188 52.851562 8.71875 52.863281 C 8.699219 52.894531 8.671875 52.921875 8.640625 52.945312 C 8.625 52.957031 8.609375 52.972656 8.59375 52.988281 C 8.578125 53.003906 8.5625 53.019531 8.542969 53.03125 C 8.542969 53.039062 8.542969 53.039062 8.542969 53.039062 C 8.519531 53.0625 8.488281 53.09375 8.460938 53.125 C 8.4375 53.144531 8.417969 53.164062 8.402344 53.1875 C 8.371094 53.214844 8.34375 53.238281 8.316406 53.269531 L 8.25 53.335938 C 8.230469 53.363281 8.207031 53.382812 8.195312 53.402344 C 8.183594 53.414062 8.175781 53.421875 8.164062 53.433594 C 8.164062 53.433594 8.15625 53.445312 8.144531 53.453125 L 8.09375 53.507812 L 8.027344 53.582031 C 8.023438 53.589844 8.015625 53.597656 8.007812 53.601562 C 8 53.609375 7.988281 53.617188 7.980469 53.625 C 7.96875 53.648438 7.953125 53.667969 7.929688 53.679688 C 7.90625 53.71875 7.875 53.75 7.839844 53.78125 C 7.816406 53.816406 7.789062 53.839844 7.765625 53.875 C 7.742188 53.910156 7.699219 53.945312 7.671875 53.976562 C 7.644531 54.011719 7.621094 54.042969 7.59375 54.074219 C 7.566406 54.105469 7.53125 54.152344 7.496094 54.195312 C 7.460938 54.234375 7.445312 54.257812 7.417969 54.292969 C 7.390625 54.328125 7.351562 54.371094 7.316406 54.417969 C 7.289062 54.449219 7.261719 54.480469 7.238281 54.515625 C 7.203125 54.566406 7.167969 54.609375 7.128906 54.660156 C 7.101562 54.691406 7.078125 54.722656 7.058594 54.757812 C 7.015625 54.816406 6.964844 54.878906 6.917969 54.933594 C 6.902344 54.960938 6.878906 54.988281 6.867188 55.007812 C 6.804688 55.09375 6.734375 55.183594 6.675781 55.28125 L 6.664062 55.289062 C 6.601562 55.378906 6.539062 55.464844 6.480469 55.558594 C 6.460938 55.585938 6.445312 55.613281 6.425781 55.640625 C 6.382812 55.707031 6.332031 55.78125 6.285156 55.851562 L 6.21875 55.953125 C 6.175781 56.023438 6.136719 56.085938 6.089844 56.152344 C 6.0625 56.195312 6.042969 56.234375 6.019531 56.273438 C 5.984375 56.339844 5.9375 56.410156 5.894531 56.484375 C 5.875 56.527344 5.847656 56.566406 5.828125 56.609375 C 5.785156 56.675781 5.75 56.753906 5.703125 56.820312 C 5.675781 56.855469 5.648438 56.90625 5.625 56.945312 C 5.582031 57.027344 5.542969 57.097656 5.5 57.171875 C 5.480469 57.21875 5.457031 57.261719 5.433594 57.308594 C 5.238281 57.667969 5.046875 58.03125 4.859375 58.433594 L 4.859375 58.445312 L 3.890625 58.605469 C 4.082031 58.105469 4.273438 57.652344 4.480469 57.222656 L 2.902344 59.449219 L 4.480469 59.296875 C 2.800781 63.410156 2 67.832031 2.128906 72.277344 L 3.414062 71.460938 C 4.136719 75.351562 6.488281 78.742188 9.871094 80.777344 L 9.863281 80.738281 C 13.019531 82.765625 16.582031 84.066406 20.296875 84.542969 C 20.84375 84.609375 21.285156 84.652344 21.386719 84.664062 C 21.453125 84.675781 21.519531 84.679688 21.585938 84.683594 C 23.648438 84.863281 25.722656 84.804688 27.769531 84.507812 C 27.769531 84.582031 27.753906 84.65625 27.753906 84.734375 C 27.625 85.832031 28.3125 86.859375 29.375 87.15625 C 28.054688 89.53125 26.929688 92.003906 26.003906 94.558594 C 25.929688 94.800781 25.804688 95.027344 25.636719 95.21875 C 25.296875 95.292969 24.960938 95.386719 24.632812 95.503906 L 24.644531 95.496094 C 23.617188 95.15625 22.503906 95.199219 21.503906 95.617188 C 21.507812 95.621094 21.511719 95.628906 21.515625 95.632812 C 20.535156 96.070312 19.742188 96.839844 19.273438 97.808594 C 20 97.117188 20.941406 96.699219 21.9375 96.628906 C 20.847656 97.253906 18.957031 98.445312 18.738281 100.160156 C 18.738281 100.160156 25.304688 95.542969 28.535156 96.394531 C 28.535156 96.394531 28.066406 96.933594 29.179688 98.925781 L 29.6875 97.074219 C 30.273438 95.273438 28.023438 95.007812 27.078125 94.972656 C 27.082031 94.964844 27.082031 94.953125 27.078125 94.945312 C 27.078125 94.945312 27.183594 94.65625 27.367188 94.183594 C 28.265625 91.792969 29.363281 89.484375 30.644531 87.28125 C 30.667969 87.230469 30.6875 87.183594 30.703125 87.132812 L 30.4375 86.769531 C 30.546875 86.65625 30.644531 86.535156 30.730469 86.410156 C 31.019531 85.96875 31.175781 85.457031 31.1875 84.933594 C 31.167969 84.234375 30.996094 83.550781 30.683594 82.921875 L 31.527344 82.535156 C 31.570312 82.640625 31.617188 82.738281 31.660156 82.835938 C 31.671875 82.871094 31.683594 82.902344 31.695312 82.933594 C 31.71875 83 31.75 83.074219 31.773438 83.140625 C 31.785156 83.171875 31.796875 83.207031 31.8125 83.242188 C 31.835938 83.320312 31.855469 83.386719 31.882812 83.457031 C 31.882812 83.476562 31.898438 83.507812 31.90625 83.535156 L 36.710938 82.078125 L 35.648438 81.199219 L 35.597656 81.152344 L 35.574219 81.128906 L 17.414062 64.535156 C 17.414062 64.535156 17.421875 64.542969 17.421875 64.542969 L 17.421875 64.535156 C 22.46875 66.996094 28.363281 69.863281 38.355469 74.503906 C 48.203125 79.054688 54.433594 81.703125 57.648438 83.023438 C 57.675781 83.039062 57.703125 83.050781 57.726562 83.0625 L 58.929688 83.554688 C 59.617188 83.824219 60.261719 84.074219 60.296875 84.089844 C 60.351562 84.058594 60.417969 84.042969 60.472656 84.015625 L 23.746094 58.761719 Z M 21.039062 50.84375 L 15.5625 55.015625 L 19.492188 46.351562 L 19.492188 46.34375 C 20.15625 47.789062 20.675781 49.296875 21.042969 50.84375 Z M 40.585938 80.722656 L 40.722656 81.382812 L 47.121094 85.167969 L 48.738281 86.109375 L 47.851562 83.820312 C 53.132812 85.378906 57.433594 85.46875 60.289062 84.121094 C 55.3125 85.59375 42.96875 81.425781 40.585938 80.722656 Z M 40.585938 80.722656 "/>
<path style=" stroke:none;fill-rule:nonzero;fill:rgb(0%,0%,0%);fill-opacity:1;" d="M 6.125 47.488281 C 6.125 48.375 8.117188 48.257812 8.117188 48.257812 C 8.117188 47.445312 6.601562 46.464844 6.601562 46.464844 C 5.636719 46.8125 4.582031 46.8125 3.613281 46.464844 C 2.996094 46.265625 2.328125 46.273438 1.710938 46.484375 C 1.105469 46.917969 0.535156 47.398438 0 47.917969 C 1.9375 47.105469 4.089844 46.957031 6.125 47.488281 Z M 19.484375 46.355469 L 15.558594 55.019531 L 21.035156 50.839844 C 20.667969 49.296875 20.152344 47.796875 19.492188 46.355469 Z M 60.316406 84.109375 C 60.316406 84.109375 48.019531 79.484375 17.414062 64.554688 L 35.65625 81.210938 L 35.664062 81.210938 C 37.234375 80.261719 39.214844 80.328125 40.71875 81.382812 L 40.585938 80.722656 C 42.96875 81.425781 55.351562 85.613281 60.316406 84.109375 Z M 30.707031 82.933594 C 31.015625 83.558594 31.1875 84.246094 31.207031 84.945312 C 31.199219 85.46875 31.042969 85.980469 30.753906 86.417969 C 30.660156 86.542969 30.5625 86.664062 30.460938 86.78125 L 31.003906 87.53125 C 31.757812 86.890625 32.175781 85.933594 32.128906 84.945312 C 32.109375 84.105469 31.910156 83.285156 31.542969 82.535156 Z M 19.730469 84.933594 C 20.59375 85.070312 21.386719 85.144531 21.386719 85.144531 L 21.425781 84.683594 C 21.425781 84.683594 20.652344 84.617188 19.804688 84.476562 Z M 19.105469 45.570312 C 18.65625 44.707031 18.117188 43.894531 17.496094 43.144531 L 12.609375 46.734375 C 11.65625 47.402344 10.351562 47.238281 9.59375 46.351562 C 9.980469 46.679688 10.46875 46.855469 10.972656 46.855469 C 12.109375 46.871094 13.046875 45.960938 13.070312 44.820312 C 13.070312 44.546875 13.011719 44.28125 12.90625 44.03125 C 12.722656 43.621094 12.410156 43.28125 12.015625 43.066406 L 12.023438 43.066406 C 11.789062 42.933594 11.65625 42.675781 11.683594 42.40625 C 11.898438 41.957031 12.191406 41.546875 12.542969 41.191406 L 14.945312 38.746094 L 14.980469 38.703125 L 17.15625 36.484375 L 18.214844 35.410156 C 18.410156 35.195312 18.53125 35.046875 18.53125 35.046875 L 15.691406 36.261719 C 15.691406 36.261719 15.636719 36.230469 15.910156 35.722656 C 16.1875 35.214844 16.851562 34.285156 16.851562 34.285156 L 11.578125 38.058594 C 11.882812 36.578125 15.179688 32.140625 15.179688 32.140625 L 11.699219 35.332031 C 11.464844 34.21875 13.5 29.992188 13.5 29.992188 C 12.683594 30.8125 11.941406 31.703125 11.289062 32.660156 C 11.40625 31.621094 11.71875 30.613281 12.210938 29.691406 C 9.171875 32.851562 7.183594 36.871094 6.515625 41.207031 C 5.902344 41.59375 6.277344 41.125 5.988281 41.832031 C 3.953125 42.523438 2.238281 43.9375 1.171875 45.808594 C 2.394531 44.164062 4.328125 43.210938 6.371094 43.246094 C 6.371094 43.246094 9.832031 49.652344 8.328125 49.136719 C 6.824219 48.621094 7.539062 51.15625 7.539062 51.15625 L 4.707031 49.933594 C 5.585938 51.578125 5.890625 53.472656 5.5625 55.3125 C 4.890625 56.351562 4.328125 57.457031 3.890625 58.617188 L 4.859375 58.453125 C 5.050781 58.042969 5.234375 57.675781 5.425781 57.324219 C 5.453125 57.28125 5.480469 57.234375 5.5 57.1875 C 5.539062 57.113281 5.578125 57.039062 5.625 56.964844 L 5.703125 56.832031 C 5.742188 56.765625 5.777344 56.691406 5.824219 56.625 C 5.851562 56.578125 5.878906 56.539062 5.898438 56.492188 C 5.941406 56.425781 5.976562 56.355469 6.023438 56.292969 C 6.042969 56.25 6.066406 56.210938 6.089844 56.171875 C 6.136719 56.105469 6.179688 56.03125 6.222656 55.964844 C 6.242188 55.925781 6.265625 55.890625 6.289062 55.859375 C 6.332031 55.785156 6.378906 55.71875 6.429688 55.652344 C 6.441406 55.621094 6.460938 55.59375 6.484375 55.566406 C 6.542969 55.472656 6.601562 55.386719 6.667969 55.296875 C 6.667969 55.296875 6.675781 55.285156 6.675781 55.285156 C 6.742188 55.191406 6.804688 55.109375 6.863281 55.019531 C 6.882812 55 6.902344 54.96875 6.921875 54.945312 L 7.058594 54.761719 C 7.078125 54.730469 7.105469 54.703125 7.132812 54.675781 C 7.164062 54.628906 7.199219 54.578125 7.238281 54.523438 C 7.269531 54.496094 7.296875 54.464844 7.320312 54.429688 C 7.355469 54.386719 7.386719 54.34375 7.421875 54.304688 C 7.457031 54.265625 7.476562 54.238281 7.5 54.207031 L 7.597656 54.089844 C 7.628906 54.054688 7.648438 54.023438 7.675781 53.992188 C 7.707031 53.957031 7.738281 53.917969 7.769531 53.886719 C 7.792969 53.855469 7.824219 53.828125 7.847656 53.796875 C 7.871094 53.769531 7.910156 53.730469 7.933594 53.695312 C 7.957031 53.660156 7.984375 53.636719 8.011719 53.613281 C 8.039062 53.589844 8.066406 53.554688 8.097656 53.519531 C 8.128906 53.488281 8.140625 53.472656 8.164062 53.441406 C 8.191406 53.410156 8.226562 53.382812 8.253906 53.347656 C 8.277344 53.328125 8.300781 53.300781 8.320312 53.273438 C 8.347656 53.246094 8.375 53.222656 8.40625 53.203125 C 8.425781 53.179688 8.445312 53.15625 8.464844 53.136719 C 8.492188 53.109375 8.519531 53.074219 8.546875 53.050781 C 8.574219 53.027344 8.582031 53.015625 8.601562 53.003906 C 8.652344 52.957031 8.6875 52.921875 8.722656 52.878906 C 8.742188 52.863281 8.761719 52.851562 8.777344 52.832031 C 8.796875 52.808594 8.820312 52.785156 8.84375 52.765625 C 8.863281 52.75 8.878906 52.734375 8.898438 52.71875 C 8.921875 52.703125 8.941406 52.683594 8.957031 52.660156 C 8.980469 52.648438 8.988281 52.636719 9.011719 52.621094 C 9.027344 52.601562 9.042969 52.585938 9.066406 52.570312 C 9.078125 52.558594 9.089844 52.539062 9.105469 52.53125 C 9.125 52.519531 9.140625 52.503906 9.15625 52.488281 C 9.175781 52.480469 9.1875 52.464844 9.199219 52.449219 C 9.214844 52.449219 9.226562 52.429688 9.242188 52.417969 C 9.253906 52.40625 9.269531 52.394531 9.277344 52.378906 C 9.292969 52.378906 9.304688 52.367188 9.3125 52.355469 C 9.324219 52.347656 9.332031 52.339844 9.339844 52.328125 C 9.355469 52.324219 9.367188 52.316406 9.375 52.304688 C 9.386719 52.300781 9.394531 52.292969 9.402344 52.285156 C 9.410156 52.277344 9.421875 52.273438 9.433594 52.269531 C 9.433594 52.261719 9.4375 52.257812 9.445312 52.257812 C 9.445312 52.246094 9.460938 52.246094 9.46875 52.238281 C 9.476562 52.230469 9.480469 52.230469 9.480469 52.226562 C 9.480469 52.222656 9.492188 52.21875 9.503906 52.21875 C 9.515625 52.21875 9.503906 52.210938 9.503906 52.210938 L 9.433594 52.550781 L 8.554688 56.683594 C 11.851562 52.773438 15.371094 49.0625 19.105469 45.570312 Z M 9.332031 45.136719 L 9.710938 45.007812 C 9.722656 45.058594 9.738281 45.105469 9.761719 45.152344 C 9.957031 45.640625 10.425781 45.960938 10.949219 45.964844 C 11.109375 45.96875 11.269531 45.9375 11.414062 45.875 C 11.660156 45.773438 11.867188 45.597656 12.007812 45.375 L 11.613281 45.132812 C 11.664062 45.019531 11.6875 44.898438 11.683594 44.773438 C 11.683594 44.628906 11.652344 44.488281 11.59375 44.359375 L 12.460938 44.0625 C 12.707031 44.636719 12.609375 45.296875 12.214844 45.777344 C 11.816406 46.257812 11.183594 46.476562 10.578125 46.339844 C 9.972656 46.203125 9.492188 45.738281 9.335938 45.132812 Z M 9.332031 45.136719 "/>
<path style=" stroke:none;fill-rule:nonzero;fill:rgb(100%,100%,100%);fill-opacity:1;" d="M 89.390625 52.078125 C 88.539062 51.894531 87.671875 51.8125 86.800781 51.835938 L 84.335938 51.835938 L 84.335938 65.800781 L 84.597656 65.617188 L 86.625 64.183594 L 86.695312 64.132812 L 86.695312 60.183594 L 87.464844 60.183594 C 88.710938 60.246094 89.9375 59.84375 90.910156 59.054688 C 91.777344 58.285156 92.25 57.160156 92.203125 55.996094 C 92.234375 54.878906 91.796875 53.796875 91 53.015625 C 90.554688 52.566406 90 52.242188 89.390625 52.078125 Z M 87.335938 58.167969 L 86.6875 58.167969 L 86.6875 53.886719 L 87.417969 53.886719 C 89.277344 53.886719 90.21875 54.578125 90.21875 55.957031 C 90.21875 57.429688 89.253906 58.167969 87.335938 58.167969 Z M 102.5 59.847656 C 103.292969 59.632812 103.996094 59.167969 104.503906 58.519531 C 105.078125 57.792969 105.378906 56.886719 105.359375 55.957031 C 105.398438 54.777344 104.894531 53.644531 103.996094 52.882812 C 102.835938 52.089844 101.441406 51.71875 100.042969 51.835938 L 97.503906 51.835938 L 97.503906 65.800781 L 97.761719 65.617188 L 99.792969 64.183594 L 99.867188 64.132812 L 99.867188 60.136719 L 99.976562 60.136719 L 103.765625 65.582031 L 103.859375 65.714844 L 103.996094 65.617188 L 105.621094 64.4375 L 105.761719 64.339844 L 105.660156 64.203125 Z M 99.855469 58.167969 L 99.855469 53.886719 L 100.582031 53.886719 C 102.449219 53.886719 103.386719 54.578125 103.386719 55.957031 C 103.386719 57.429688 102.425781 58.164062 100.503906 58.167969 Z M 67.121094 52.25 C 66.0625 51.941406 64.964844 51.800781 63.867188 51.835938 L 60.882812 51.835938 L 60.882812 65.640625 L 63.835938 65.640625 C 64.917969 65.679688 65.996094 65.550781 67.039062 65.261719 C 69.296875 64.417969 70.964844 62.476562 71.457031 60.109375 C 71.949219 57.746094 71.199219 55.296875 69.46875 53.617188 C 68.796875 52.992188 67.992188 52.527344 67.121094 52.25 Z M 67.78125 62.1875 C 67.324219 62.605469 66.785156 62.921875 66.195312 63.113281 C 65.480469 63.320312 64.734375 63.414062 63.988281 63.394531 L 63.242188 63.394531 L 63.242188 54.082031 L 63.988281 54.082031 C 65.359375 53.984375 66.71875 54.40625 67.792969 55.265625 C 69.695312 57.179688 69.691406 60.28125 67.78125 62.191406 Z M 52.285156 53.828125 C 53.195312 53.835938 54.082031 54.09375 54.855469 54.570312 L 55 54.652344 L 55.082031 54.507812 L 56.066406 52.808594 L 56.148438 52.664062 L 56.003906 52.578125 C 54.921875 51.933594 53.6875 51.585938 52.429688 51.578125 C 50.292969 51.519531 48.25 52.449219 46.890625 54.101562 C 45.761719 55.40625 45.144531 57.074219 45.152344 58.800781 C 45.128906 60.6875 45.878906 62.503906 47.226562 63.820312 C 48.558594 65.167969 50.378906 65.914062 52.269531 65.882812 C 53.582031 65.878906 54.867188 65.53125 56.003906 64.871094 L 56.085938 64.820312 L 56.085938 64.683594 L 56.066406 64.640625 L 55.078125 62.933594 L 54.992188 62.78125 L 54.839844 62.878906 C 54.589844 63.046875 54.324219 63.1875 54.046875 63.304688 C 53.492188 63.542969 52.890625 63.65625 52.289062 63.636719 C 51.019531 63.660156 49.796875 63.148438 48.914062 62.230469 C 48.007812 61.3125 47.507812 60.0625 47.539062 58.769531 C 47.507812 57.464844 48.003906 56.199219 48.914062 55.261719 C 49.785156 54.328125 51.011719 53.808594 52.285156 53.828125 Z M 207.460938 54.085938 L 207.503906 54.035156 L 209.371094 52.125 L 209.652344 51.835938 L 201.671875 51.835938 L 201.671875 65.640625 L 207.5 65.640625 L 207.550781 65.59375 L 209.375 63.683594 L 209.648438 63.398438 L 204.03125 63.398438 L 204.03125 59.113281 L 205.765625 59.113281 L 205.8125 59.058594 L 207.707031 57.15625 L 207.988281 56.867188 L 204.035156 56.867188 L 204.035156 54.085938 Z M 167.078125 54.085938 L 170.164062 54.085938 L 170.164062 65.800781 L 170.425781 65.617188 L 172.449219 64.183594 L 172.523438 64.132812 L 172.523438 54.089844 L 175.605469 54.089844 L 175.605469 51.839844 L 167.078125 51.839844 Z M 117.160156 51.585938 C 115.25 51.558594 113.410156 52.316406 112.066406 53.675781 C 110.667969 55.046875 109.898438 56.9375 109.9375 58.898438 C 109.972656 60.863281 110.816406 62.71875 112.265625 64.039062 C 115.121094 66.589844 119.457031 66.488281 122.1875 63.804688 C 123.570312 62.492188 124.339844 60.660156 124.3125 58.753906 C 124.285156 54.804688 121.097656 51.609375 117.160156 51.582031 Z M 120.523438 62.230469 C 119.617188 63.15625 118.367188 63.667969 117.070312 63.640625 C 114.367188 63.625 112.191406 61.414062 112.207031 58.703125 C 112.222656 55.992188 114.425781 53.808594 117.128906 53.828125 C 118.414062 53.800781 119.652344 54.316406 120.539062 55.246094 C 121.460938 56.171875 121.960938 57.433594 121.929688 58.742188 C 121.949219 60.046875 121.445312 61.304688 120.527344 62.230469 Z M 223.738281 53.617188 C 223.058594 52.996094 222.257812 52.527344 221.382812 52.25 C 220.328125 51.9375 219.230469 51.800781 218.128906 51.835938 L 215.15625 51.835938 L 215.15625 65.640625 L 218.105469 65.640625 C 219.1875 65.679688 220.269531 65.550781 221.316406 65.261719 C 223.570312 64.414062 225.234375 62.472656 225.726562 60.109375 C 226.21875 57.746094 225.472656 55.296875 223.746094 53.617188 Z M 222.046875 62.1875 C 221.589844 62.601562 221.050781 62.917969 220.46875 63.113281 C 219.746094 63.320312 219 63.414062 218.25 63.394531 L 217.503906 63.394531 L 217.503906 54.082031 L 218.25 54.082031 C 219.625 53.984375 220.984375 54.40625 222.0625 55.265625 C 223.007812 56.164062 223.527344 57.425781 223.480469 58.734375 C 223.53125 60.042969 223.007812 61.304688 222.050781 62.191406 Z M 192.597656 59.84375 C 193.386719 59.628906 194.089844 59.164062 194.601562 58.519531 C 195.175781 57.792969 195.476562 56.882812 195.453125 55.957031 C 195.492188 54.777344 194.988281 53.644531 194.085938 52.882812 C 192.925781 52.089844 191.53125 51.71875 190.132812 51.835938 L 187.589844 51.835938 L 187.589844 65.796875 L 187.851562 65.617188 L 189.886719 64.183594 L 189.960938 64.132812 L 189.960938 60.136719 L 190.070312 60.136719 L 193.855469 65.582031 L 193.953125 65.714844 L 194.09375 65.617188 L 195.71875 64.4375 L 195.851562 64.339844 L 195.757812 64.203125 Z M 189.960938 58.167969 L 189.960938 53.886719 L 190.683594 53.886719 C 192.550781 53.886719 193.484375 54.578125 193.484375 55.957031 C 193.484375 57.429688 192.523438 58.164062 190.601562 58.167969 Z M 160.617188 51.886719 L 155.675781 56.96875 L 155.675781 51.683594 L 155.410156 51.875 L 153.382812 53.304688 L 153.3125 53.355469 L 153.3125 65.800781 L 153.582031 65.617188 L 155.609375 64.183594 L 155.675781 64.132812 L 155.675781 59.972656 L 155.914062 59.730469 L 160.636719 65.582031 L 160.726562 65.703125 L 160.855469 65.621094 L 162.59375 64.441406 L 162.746094 64.335938 L 162.625 64.191406 L 157.59375 58.117188 L 163.558594 52.132812 L 163.84375 51.84375 L 160.664062 51.84375 Z M 131.578125 53.308594 L 131.507812 53.359375 L 131.507812 60.707031 C 131.5625 61.5 131.441406 62.296875 131.160156 63.039062 C 130.953125 63.445312 130.515625 63.6875 130.058594 63.640625 C 129.597656 63.617188 129.152344 63.457031 128.78125 63.179688 L 128.632812 63.082031 L 128.542969 63.230469 L 127.539062 64.964844 L 127.460938 65.105469 L 127.597656 65.195312 C 128.339844 65.644531 129.191406 65.882812 130.058594 65.882812 C 131.140625 65.917969 132.179688 65.457031 132.882812 64.632812 C 133.257812 64.183594 133.523438 63.652344 133.660156 63.085938 C 133.832031 62.308594 133.90625 61.511719 133.882812 60.714844 L 133.882812 51.679688 L 133.613281 51.871094 Z M 146.085938 54.085938 L 146.136719 54.035156 L 148.003906 52.125 L 148.277344 51.835938 L 140.308594 51.835938 L 140.308594 65.640625 L 146.128906 65.640625 L 146.183594 65.59375 L 148.003906 63.683594 L 148.277344 63.398438 L 142.667969 63.398438 L 142.667969 59.113281 L 144.390625 59.113281 L 144.433594 59.058594 L 146.328125 57.15625 L 146.609375 56.867188 L 142.664062 56.867188 L 142.664062 54.085938 Z M 146.085938 54.085938 "/>
<g clip-path="url(#clip1)" clip-rule="nonzero">
<path style=" stroke:none;fill-rule:nonzero;fill:rgb(100%,100%,100%);fill-opacity:1;" d="M 230.371094 56.40625 C 229.042969 56.402344 227.972656 55.320312 227.976562 53.992188 C 227.980469 52.660156 229.054688 51.585938 230.382812 51.585938 C 231.707031 51.589844 232.78125 52.667969 232.78125 53.996094 C 232.78125 54.636719 232.527344 55.25 232.074219 55.703125 C 231.621094 56.15625 231.007812 56.410156 230.371094 56.40625 Z M 230.371094 51.949219 C 229.242188 51.949219 228.328125 52.863281 228.328125 53.996094 C 228.328125 55.128906 229.242188 56.042969 230.371094 56.042969 C 231.496094 56.042969 232.410156 55.128906 232.410156 53.996094 C 232.417969 53.449219 232.203125 52.925781 231.820312 52.539062 C 231.4375 52.152344 230.914062 51.9375 230.371094 51.941406 Z M 231.03125 55.386719 L 230.308594 54.296875 L 229.828125 54.296875 L 229.828125 55.386719 L 229.445312 55.386719 L 229.445312 52.617188 L 230.570312 52.617188 C 230.800781 52.605469 231.027344 52.6875 231.195312 52.847656 C 231.367188 53.007812 231.464844 53.226562 231.46875 53.460938 C 231.476562 53.875 231.171875 54.226562 230.761719 54.277344 L 231.5 55.378906 L 231.019531 55.378906 Z M 230.578125 52.964844 L 229.839844 52.964844 L 229.839844 53.941406 L 230.578125 53.941406 C 230.84375 53.941406 231.0625 53.722656 231.0625 53.453125 C 231.0625 53.183594 230.84375 52.964844 230.578125 52.964844 Z M 230.578125 52.964844 "/>
</g>
</g>
</svg>
