<?xml version="1.0" encoding="UTF-8"?>
<svg xmlns="http://www.w3.org/2000/svg" xmlns:xlink="http://www.w3.org/1999/xlink" width="px" height="100px" viewBox="0 0 311 100" version="1.1">
<g id="surface1">
<path style=" stroke:none;fill-rule:evenodd;fill:rgb(10.980392%,90.588235%,51.372549%);fill-opacity:1;" d="M 33.09375 31.535156 L 48.964844 31.535156 C 64.496094 31.535156 77.101562 38.402344 77.101562 56.304688 L 77.101562 98.980469 L 52.339844 98.980469 L 52.339844 59.457031 C 52.160156 55.921875 49.238281 53.148438 45.699219 53.152344 L 31.292969 53.152344 C 29.570312 53.09375 27.898438 53.726562 26.648438 54.910156 C 25.398438 56.097656 24.679688 57.734375 24.648438 59.457031 L 24.648438 98.867188 L 0 98.867188 L 0 1.019531 L 24.761719 1.019531 L 24.761719 32.886719 C 27.414062 31.851562 30.25 31.390625 33.09375 31.535156 Z M 215.324219 99.09375 L 190.5625 99.09375 L 190.5625 1.019531 L 215.324219 1.019531 Z M 140.472656 77.363281 C 144.011719 77.367188 146.933594 74.59375 147.113281 71.054688 L 147.113281 31.535156 L 171.988281 31.535156 L 171.988281 73.082031 C 172.546875 79.917969 170.136719 86.664062 165.375 91.597656 C 160.617188 96.535156 153.964844 99.183594 147.113281 98.867188 L 122.6875 98.867188 C 115.40625 99.804688 108.078125 97.476562 102.675781 92.503906 C 97.269531 87.53125 94.335938 80.421875 94.660156 73.082031 L 94.660156 31.535156 L 119.425781 31.535156 L 119.425781 71.054688 C 119.546875 74.617188 122.503906 77.425781 126.066406 77.363281 Z M 286.800781 31.535156 L 286.800781 71.054688 C 286.769531 72.777344 286.050781 74.417969 284.800781 75.601562 C 283.554688 76.789062 281.878906 77.421875 280.160156 77.363281 L 265.300781 77.363281 C 261.800781 77.363281 258.945312 74.554688 258.886719 71.054688 L 258.886719 31.535156 L 234.121094 31.535156 L 234.121094 72.96875 C 233.761719 80.328125 236.679688 87.46875 242.089844 92.46875 C 247.5 97.464844 254.84375 99.808594 262.148438 98.867188 L 286.351562 98.867188 C 293.210938 99.191406 299.875 96.523438 304.625 91.558594 C 309.371094 86.59375 311.738281 79.8125 311.113281 72.96875 L 311.113281 31.535156 Z M 286.800781 31.535156 "/>
</g>
</svg>
