<?xml version="1.0" encoding="UTF-8"?>
<svg xmlns="http://www.w3.org/2000/svg" xmlns:xlink="http://www.w3.org/1999/xlink" width="px" height="100px" viewBox="0 0 370 100" version="1.1">
<g id="surface1">
<path style=" stroke:none;fill-rule:nonzero;fill:rgb(89.803922%,3.529412%,7.843137%);fill-opacity:1;" d="M 350.207031 47.601562 L 370 100 C 364.167969 99.167969 358.335938 98.125 352.398438 97.183594 L 341.25 68.230469 L 329.792969 94.792969 C 324.171875 93.851562 318.648438 93.539062 313.023438 92.808594 L 333.125 46.976562 L 314.894531 0 L 331.769531 0 L 341.976562 26.246094 L 352.917969 0 L 369.996094 0 C 369.996094 0 350.207031 47.601562 350.207031 47.601562 Z M 301.566406 0 L 286.253906 0 L 286.253906 90.832031 C 291.253906 91.148438 296.460938 91.351562 301.566406 91.976562 Z M 273.023438 89.789062 C 259.066406 88.851562 245.105469 88.023438 230.835938 87.707031 L 230.835938 0 L 246.460938 0 L 246.460938 72.917969 C 255.421875 73.125 264.375 73.851562 273.023438 74.265625 Z M 214.167969 35.523438 L 214.167969 51.148438 L 192.8125 51.148438 L 192.8125 86.667969 L 177.398438 86.667969 L 177.398438 0 L 221.148438 0 L 221.148438 15.625 L 192.816406 15.625 L 192.816406 35.523438 L 214.171875 35.523438 Z M 151.148438 15.625 L 151.148438 87.5 C 145.9375 87.5 140.625 87.5 135.519531 87.707031 L 135.519531 15.625 L 119.375 15.625 L 119.375 0 L 167.394531 0 L 167.394531 15.625 Z M 102.5 51.976562 C 95.625 51.976562 87.5 51.976562 81.667969 52.292969 L 81.667969 75.519531 C 90.832031 74.894531 100 74.167969 109.269531 73.851562 L 109.269531 88.851562 L 66.042969 92.292969 L 66.042969 0 L 109.265625 0 L 109.265625 15.625 L 81.667969 15.625 L 81.667969 36.667969 C 87.710938 36.667969 96.980469 36.351562 102.5 36.351562 L 102.5 51.980469 Z M 15.933594 43.226562 L 15.933594 97.808594 C 10.3125 98.4375 5.308594 99.167969 0 100 L 0 0 L 14.898438 0 L 35.207031 56.773438 L 35.207031 0 L 50.832031 0 L 50.832031 93.539062 C 45.3125 94.480469 39.6875 94.792969 33.75 95.625 Z M 15.933594 43.226562 "/>
</g>
</svg>
