<svg xmlns="http://www.w3.org/2000/svg" width="165.53mm" height="44.34mm" viewBox="0 0 165.53 44.34"><path d="M118.466 30.375c-1.754-.363-3.056-1.047-4.21-2.213-1.547-1.564-2.311-3.516-2.316-5.918-.003-1.637.237-2.69.91-3.998.767-1.491 1.98-2.65 3.646-3.48 2.388-1.192 5.331-1.196 7.827-.01.925.44 1.569.883 2.353 1.623l.64.603-.473.487c-.26.268-.735.72-1.055 1.007l-.582.52-.423-.396c-1.255-1.174-2.89-1.86-4.435-1.86-2.594 0-4.815 1.787-5.345 4.3-.29 1.37.03 3.115.774 4.237 1.665 2.508 5.324 3.128 7.946 1.345.226-.154.654-.491.951-.75l.542-.472.305.294c.168.16.62.636 1.005 1.057l.7.763-.475.443c-1.203 1.12-2.598 1.94-3.908 2.296-.892.243-3.445.314-4.377.122zM128.994 24.266v-5.894h2.489l.025.753.024.753.234-.397c.597-1.015 1.895-1.583 2.95-1.29.601.167.598.12.115 1.462-.406 1.124-.458 1.223-.623 1.17a4.522 4.522 0 0 0-.636-.103c-.451-.046-.46-.042-.83.343-.723.755-.819 1.423-.82 5.763l-.003 3.333h-2.925v-5.893zM136.48 24.266v-5.894h2.925V30.16h-2.925zM137.254 17.203c-.99-.428-1.47-1.688-.993-2.61.29-.56 1.063-1.038 1.681-1.038 1.084 0 2.023 1.113 1.845 2.187-.076.457-.217.719-.568 1.056-.544.521-1.324.682-1.965.405zM142.416 25.557v-4.603h-1.463v-2.581h1.463V14.07h2.925v4.301h1.812l-.024 1.27-.024 1.269-.882.024-.882.025v9.2h-2.925zM148.439 24.266v-5.894h2.925V30.16h-2.925zM149.213 17.203c-1.257-.544-1.56-2.201-.57-3.114.794-.731 1.795-.71 2.561.056.46.46.637.956.555 1.56-.162 1.186-1.478 1.96-2.546 1.498zM158.473 30.286c-2.89-.546-4.966-3.026-4.96-5.926.002-1.064.18-1.841.635-2.761 1.072-2.171 3.323-3.479 5.988-3.479 1.392 0 2.657.347 3.725 1.022.611.386 1.755 1.531 1.638 1.64-.076.072-2.27 1.29-2.323 1.29-.017 0-.234-.165-.483-.368a5.092 5.092 0 0 0-.923-.58c-.426-.192-.664-.293-1.671-.292-1.46.002-1.817.24-2.638 1.06-.764.764-.965 1.272-.975 2.464-.006.834.005.89.319 1.523.614 1.243 1.7 1.868 3.248 1.87 1.12.002 2-.32 2.765-1.012l.338-.305 1.114.759c.613.417 1.114.782 1.114.811 0 .03-.118.197-.264.374-.608.738-1.923 1.528-3.048 1.831-.737.198-2.735.242-3.6.079zM57.468 30.337c-2.9-.675-5.224-2.934-6.086-5.917-.17-.585-.194-.868-.194-2.219 0-1.371.024-1.627.202-2.237 1.083-3.692 4.233-6.084 8.013-6.084 2.277 0 4.052.73 5.678 2.334 1.514 1.493 2.277 3.076 2.492 5.168.37 3.605-1.503 6.926-4.756 8.432-1.122.52-1.636.624-3.242.655-1.153.023-1.548-.001-2.107-.132zm3.01-2.802c1.287-.27 2.437-1.072 3.221-2.244.596-.891.794-1.553.845-2.835.048-1.215-.067-1.798-.554-2.793-.626-1.28-2.124-2.472-3.45-2.745-.663-.137-1.932-.116-2.544.042-2.295.592-3.84 2.719-3.84 5.284 0 1.6.473 2.8 1.508 3.83 1.301 1.294 3.063 1.829 4.815 1.461zM70.244 26.417v-8.049l1.441.024 1.441.023.026.628.025.628.404-.356c.54-.475 1.642-.995 2.38-1.121.756-.13 1.81-.057 2.567.178 1.22.379 2.541 1.555 3.161 2.814.801 1.628.9 3.834.249 5.574-.388 1.036-1.269 2.114-2.28 2.79-.843.564-1.514.783-2.574.84-1.372.073-2.347-.23-3.419-1.061l-.493-.384-.023 2.737-.023 2.783h-2.882zm7.335 1.046c.644-.315 1.368-1.1 1.615-1.753.238-.63.317-1.73.17-2.357-.35-1.484-1.423-2.437-2.866-2.546-1.674-.127-3.022.878-3.414 2.546-.134.567-.071 1.704.123 2.247.329.915 1.158 1.74 2.035 2.026.624.202 1.751.124 2.337-.163zM89.318 30.294c-.622-.113-1.332-.296-1.996-.638-.713-.368-1.747-1.361-2.178-2.094-1.078-1.831-1.108-4.436-.073-6.388.363-.685 1.451-1.82 2.133-2.223a7.739 7.739 0 0 1 1.237-.555c.618-.206.814-.23 1.936-.23.935-.001 1.387.037 1.806.152 2.656.732 4.326 2.947 4.407 5.843l.024.88-4.744.022-4.744.022.079.35c.198.884.889 1.724 1.732 2.106.439.2.687.25 1.37.28 1.07.045 1.797-.158 2.552-.713l.524-.386 1.222.58 1.221.581-.38.431c-.852.966-1.835 1.595-2.962 1.894-.598.16-2.552.198-3.166.086zm4.328-7.58c0-.509-.808-1.394-1.635-1.792-.52-.25-.622-.27-1.462-.265-1.103.005-1.668.197-2.325.788-.379.34-.941 1.137-.944 1.337 0 .035 1.432.064 3.183.064 2.809 0 3.183-.015 3.183-.132zM99.066 24.266v-5.894h2.926v1.214l.537-.382c1.36-.964 2.547-1.27 3.868-.995 1.065.222 2.1.969 2.59 1.87.455.835.487 1.215.488 5.843l.002 4.237h-2.914l-.031-3.85c-.028-3.486-.046-3.89-.19-4.27-.667-1.77-3.118-1.627-3.964.23-.332.727-.385 1.377-.385 4.729l-.001 3.161h-2.925v-5.893z" style="fill:#fff;fill-opacity:1;stroke-width:.051966;stroke-miterlimit:4"/><path d="M20.567 44.301c-3.483-.312-6.507-1.224-9.272-2.794C5.57 38.254 1.586 32.734.372 26.369c-.3-1.58-.352-2.185-.353-4.174 0-2.1.062-2.789.414-4.515C1.78 11.084 6.16 5.38 12.206 2.35 14.55 1.174 16.865.479 19.58.136c1.095-.138 3.79-.158 4.843-.036 3.781.44 7.05 1.624 10.07 3.646.692.464 1.976 1.446 2.168 1.658.118.13.106.145-2.013 2.264-1.172 1.173-2.16 2.121-2.195 2.108-.035-.014-.35-.24-.701-.503-2.303-1.73-5.04-2.796-7.983-3.11-1.13-.12-3.209-.048-4.349.152-4.039.71-7.657 2.915-10.09 6.151-1.726 2.297-2.757 4.81-3.14 7.657-.128.96-.144 2.934-.03 3.856.683 5.536 3.98 10.212 8.895 12.616 2.354 1.151 4.52 1.647 7.17 1.64 3.547-.01 6.747-1.087 9.623-3.24.297-.222.564-.412.591-.42.028-.01 1.012.944 2.188 2.118l2.138 2.135-.304.276c-.502.456-1.7 1.331-2.554 1.866-2.707 1.695-5.67 2.752-9.006 3.213-.703.097-3.668.178-4.333.118z" style="fill:#fc3e04;fill-opacity:1;stroke-width:.0384922;stroke-miterlimit:4"/><path d="M21.204 36.395c-1.372-.101-2.763-.4-4-.861l-.334-.125v-5.95l2.647-2.644 2.647-2.645 2.643 2.666 2.642 2.666v5.907l-.334.125c-1.791.67-4.042.998-5.911.86zM8.847 27.309a16.565 16.565 0 0 1-.844-3.362c-.105-.777-.106-2.796-.002-3.537.17-1.205.416-2.206.788-3.202l.124-.335 2.975.001h2.975l2.644 2.644 2.645 2.644-2.644 2.645-2.645 2.645H8.901l-.054-.143zM19.499 17.494l-2.629-2.629V8.922l.449-.166c1.434-.532 3.108-.816 4.809-.817 1.665-.001 2.882.188 4.445.69l.876.283v5.954l-2.629 2.629c-1.446 1.446-2.643 2.628-2.66 2.628-.018 0-1.215-1.183-2.661-2.629zM26.812 24.807l-2.644-2.644 2.644-2.645 2.644-2.645H35.4l.26.78c.515 1.553.708 2.773.71 4.48.002 1.732-.172 2.873-.677 4.443l-.283.876h-5.954Z" style="fill:#fc3e04;fill-opacity:1;stroke-width:.0384922;stroke-miterlimit:4"/><path d="m36.631 34.627-2.13-2.13.464-.615a16.125 16.125 0 0 0 3.195-8.153c.095-.949.043-3.078-.097-3.956-.434-2.72-1.6-5.424-3.243-7.515-.163-.208-.297-.395-.297-.415 0-.02.963-.998 2.14-2.172L38.8 7.537l.254.287c1.074 1.216 2.363 3.204 3.126 4.82 2.926 6.204 2.85 13.37-.207 19.47-.423.844-.872 1.6-1.504 2.53-.722 1.063-1.554 2.113-1.674 2.113-.02 0-.994-.959-2.165-2.13z" style="fill:#fc3e04;fill-opacity:1;stroke-width:.0384922;stroke-miterlimit:4"/></svg>