<?xml version="1.0" encoding="UTF-8"?>
<svg xmlns="http://www.w3.org/2000/svg" xmlns:xlink="http://www.w3.org/1999/xlink" width="px" height="100px" viewBox="0 0 433 100" version="1.1">
<g id="surface1">
<path style=" stroke:none;fill-rule:nonzero;fill:rgb(0.784314%,39.215686%,100%);fill-opacity:1;" d="M 110.648438 25.640625 C 110.648438 8.289062 92.574219 0.171875 70.8125 0.171875 C 47.945312 0.171875 26.554688 10.503906 18.808594 26.378906 C 16.597656 30.4375 15.492188 35.234375 15.492188 40.035156 C 15.492188 44.09375 16.597656 48.15625 18.808594 51.476562 C 22.128906 56.273438 28.03125 59.597656 36.882812 59.597656 C 47.578125 59.597656 56.0625 53.691406 56.0625 43.355469 C 56.0625 43.355469 56.0625 40.402344 52.742188 40.402344 C 50.160156 40.402344 49.421875 42.25 49.421875 43.355469 C 49.792969 51.476562 44.996094 57.75 36.511719 57.75 C 26.925781 57.75 22.867188 49.632812 22.867188 41.140625 C 22.867188 23.425781 36.144531 11.613281 50.160156 6.445312 C 56.800781 3.863281 63.4375 2.753906 70.445312 2.753906 C 86.304688 2.753906 99.214844 8.660156 99.214844 24.902344 C 99.214844 38.558594 87.78125 50 74.132812 51.105469 L 74.871094 49.261719 C 77.820312 39.296875 81.140625 28.589844 86.671875 20.472656 C 87.042969 20.101562 87.410156 19.363281 88.148438 18.257812 L 87.410156 17.148438 L 84.09375 19.363281 C 57.90625 39.664062 57.167969 96.875 22.5 96.875 C 21.390625 96.875 20.285156 96.875 18.808594 96.507812 C 11.433594 95.398438 7.746094 90.601562 7.746094 83.589844 C 7.746094 82.113281 8.113281 80.265625 8.113281 79.527344 C 8.113281 77.683594 6.640625 75.835938 4.792969 75.835938 L 4.425781 75.835938 C 1.476562 75.835938 0 78.421875 0 81.742188 C -0.367188 91.710938 7.375 97.613281 18.808594 98.722656 L 22.867188 98.722656 C 49.792969 98.722656 66.386719 78.421875 73.765625 53.320312 C 77.453125 52.953125 80.773438 52.214844 84.460938 51.105469 C 96.632812 48.894531 110.648438 40.402344 110.648438 25.640625 Z M 368.824219 31.542969 L 359.234375 31.542969 L 357.023438 36.710938 L 353.332031 45.203125 L 348.90625 45.203125 L 347.433594 48.15625 L 351.859375 48.15625 L 346.695312 59.964844 C 342.636719 68.457031 336.367188 76.945312 333.046875 76.945312 C 332.3125 76.945312 331.941406 76.574219 331.941406 75.835938 C 331.941406 75.097656 332.3125 74.359375 333.046875 72.148438 C 334.15625 69.5625 336 65.871094 337.472656 62.917969 C 339.320312 58.859375 342.636719 52.582031 342.636719 49.632812 C 342.636719 46.679688 340.792969 44.09375 336.738281 44.09375 C 332.3125 44.09375 328.253906 46.679688 324.566406 50.367188 L 326.777344 44.832031 L 317.925781 44.832031 L 310.550781 61.441406 C 307.601562 67.347656 301.699219 76.945312 298.011719 76.945312 C 297.273438 76.945312 296.902344 76.574219 296.902344 75.835938 C 296.902344 75.097656 297.273438 74.359375 297.640625 73.621094 C 298.011719 72.882812 302.4375 62.550781 302.4375 62.550781 L 310.550781 44.464844 L 300.960938 44.464844 L 293.214844 62.179688 C 291.003906 67.71875 284.734375 76.945312 281.042969 76.945312 C 280.308594 76.945312 279.9375 76.574219 279.570312 75.835938 L 279.570312 75.46875 C 279.570312 74.359375 280.308594 72.882812 280.675781 71.410156 L 283.996094 62.917969 L 292.476562 44.832031 L 282.886719 44.832031 L 281.042969 48.894531 C 279.570312 51.84375 277.355469 54.796875 273.300781 54.796875 C 271.453125 54.796875 270.71875 54.058594 270.347656 53.320312 C 269.609375 47.046875 265.921875 44.09375 260.019531 44.09375 C 251.90625 44.09375 246.375 48.894531 242.6875 54.429688 C 240.105469 58.488281 238.261719 62.550781 236.785156 66.980469 C 233.464844 72.515625 229.777344 76.945312 226.828125 76.945312 C 226.089844 76.945312 225.71875 76.574219 225.71875 75.46875 C 225.71875 74.359375 226.828125 72.515625 226.828125 71.410156 L 233.097656 58.121094 C 234.941406 54.058594 236.046875 51.476562 236.046875 48.523438 C 236.046875 45.570312 234.203125 43.726562 230.882812 43.726562 C 226.457031 43.726562 221.292969 46.308594 217.605469 50.738281 L 217.605469 48.523438 C 217.605469 45.203125 216.132812 43.726562 212.8125 43.726562 C 208.753906 43.726562 204.328125 46.308594 200.640625 50.738281 L 203.222656 44.464844 L 194.371094 44.464844 L 186.992188 61.074219 C 183.675781 68.824219 177.773438 76.574219 174.824219 76.574219 C 174.085938 76.574219 173.714844 76.207031 173.714844 75.097656 C 173.714844 73.621094 175.558594 69.933594 175.929688 68.457031 L 185.886719 46.308594 C 186.625 44.464844 181.832031 43.726562 175.929688 43.726562 C 169.660156 43.726562 163.390625 46.679688 158.964844 50.738281 C 155.644531 53.320312 153.429688 54.796875 151.957031 54.796875 C 151.21875 54.796875 151.21875 54.429688 151.21875 54.058594 C 151.21875 52.582031 154.539062 48.894531 154.539062 45.941406 C 154.539062 44.464844 153.800781 43.726562 151.957031 43.726562 C 148.636719 43.726562 144.210938 47.046875 141.261719 50.367188 L 143.839844 44.09375 L 135.359375 44.09375 L 127.980469 60.703125 C 124.664062 68.457031 118.761719 76.574219 115.441406 76.574219 C 114.703125 76.574219 114.335938 76.207031 114.335938 75.097656 C 114.335938 73.621094 115.8125 69.933594 116.917969 68.085938 L 126.875 45.941406 C 127.613281 44.09375 122.820312 43.355469 116.917969 43.355469 C 108.066406 43.355469 99.582031 49.261719 95.15625 55.535156 C 89.992188 62.179688 86.671875 69.195312 86.671875 74.730469 C 86.671875 79.160156 88.886719 82.113281 93.679688 82.113281 C 98.84375 82.113281 103.269531 78.050781 105.851562 74.730469 C 105.851562 75.46875 105.484375 75.835938 105.484375 76.574219 C 105.484375 79.898438 106.589844 82.113281 110.648438 82.113281 C 113.964844 82.113281 118.761719 79.160156 122.082031 74.730469 L 119.128906 81.375 L 128.351562 81.375 L 137.570312 60.703125 C 140.523438 54.058594 143.839844 50.367188 144.949219 50.367188 C 145.316406 50.367188 145.316406 50.367188 145.316406 50.738281 C 145.316406 51.476562 143.839844 53.320312 143.839844 55.167969 C 143.839844 57.011719 144.949219 58.121094 147.160156 58.121094 C 149.003906 58.121094 151.21875 57.011719 153.429688 55.90625 C 148.636719 62.179688 145.6875 68.824219 145.6875 74.359375 C 145.6875 78.789062 147.898438 81.742188 152.691406 81.742188 C 157.855469 81.742188 162.28125 76.945312 164.863281 73.992188 L 164.863281 76.207031 C 164.863281 79.160156 166.707031 81.742188 170.027344 81.742188 C 174.085938 81.742188 177.035156 79.160156 181.09375 74.359375 L 178.140625 81.003906 L 187.730469 81.003906 L 196.582031 61.074219 C 200.273438 52.582031 205.433594 47.785156 208.015625 47.785156 C 208.753906 47.785156 209.125 48.15625 209.125 48.894531 L 209.125 49.261719 C 209.125 50.367188 208.753906 51.105469 208.386719 52.214844 L 195.847656 81.003906 L 205.433594 81.003906 L 214.285156 60.703125 C 217.976562 52.214844 222.402344 47.785156 225.351562 47.785156 C 226.457031 47.785156 226.828125 48.15625 226.828125 49.261719 C 226.828125 50.367188 226.457031 51.476562 226.089844 52.582031 L 217.605469 72.515625 C 216.867188 74.359375 216.5 76.207031 216.132812 78.050781 C 216.132812 81.003906 217.605469 83.21875 222.03125 83.21875 C 227.566406 83.21875 231.621094 79.160156 236.417969 72.882812 L 236.417969 73.992188 C 236.785156 79.160156 239.734375 83.21875 247.113281 83.21875 C 255.964844 83.21875 262.972656 77.3125 267.027344 67.71875 C 268.503906 64.394531 269.609375 60.703125 269.980469 57.011719 C 271.085938 57.382812 272.191406 57.75 272.929688 57.75 C 274.40625 57.75 275.878906 57.382812 276.988281 56.644531 L 275.511719 59.964844 C 273.667969 63.65625 271.824219 67.71875 270.347656 71.039062 C 269.242188 72.882812 268.875 75.097656 268.503906 77.3125 C 268.503906 80.636719 270.347656 83.21875 274.40625 83.21875 C 278.460938 83.21875 283.625 79.527344 287.3125 74.359375 C 287.683594 75.46875 287.683594 76.574219 287.683594 77.683594 C 287.683594 80.636719 288.421875 83.21875 292.476562 83.21875 C 296.902344 83.21875 300.59375 79.898438 304.28125 75.835938 L 301.328125 82.480469 L 310.917969 82.480469 L 318.664062 65.132812 C 323.089844 55.167969 327.515625 49.261719 331.574219 49.261719 C 332.3125 49.261719 332.679688 49.632812 333.046875 50.367188 L 333.046875 50.738281 C 333.046875 52.582031 330.835938 57.011719 328.621094 61.441406 C 326.777344 65.503906 325.304688 68.824219 324.195312 71.039062 C 323.089844 73.253906 322.722656 75.46875 322.351562 77.683594 C 322.351562 80.636719 324.195312 82.851562 327.886719 82.851562 C 333.417969 82.851562 338.949219 77.3125 342.269531 73.253906 C 341.53125 75.097656 341.164062 77.3125 341.164062 79.160156 C 341.164062 84.695312 344.480469 87.648438 349.277344 87.648438 C 352.226562 87.648438 355.546875 86.542969 357.761719 84.695312 C 361.449219 82.113281 364.398438 78.421875 366.980469 74.730469 L 365.136719 73.253906 C 362.921875 76.574219 360.339844 79.527344 357.761719 81.375 C 356.285156 82.480469 354.808594 83.21875 352.964844 83.21875 C 351.121094 83.21875 349.644531 82.113281 349.644531 79.527344 C 349.644531 76.945312 350.753906 73.621094 352.597656 68.824219 C 352.597656 68.824219 355.179688 62.917969 357.761719 57.382812 C 359.972656 52.582031 361.816406 48.15625 362.1875 47.046875 L 368.457031 47.046875 L 369.5625 44.09375 L 363.292969 44.09375 Z M 97.738281 77.3125 C 96.261719 77.3125 95.527344 76.945312 95.527344 75.097656 C 95.527344 70.300781 99.582031 62.179688 104.378906 55.535156 C 107.695312 51.105469 112.121094 47.417969 116.917969 47.417969 L 111.015625 61.074219 C 106.222656 71.039062 101.425781 77.3125 97.738281 77.3125 Z M 157.121094 77.3125 C 155.644531 77.3125 154.90625 76.945312 154.90625 75.097656 C 154.90625 70.300781 158.964844 62.179688 163.757812 55.535156 C 167.078125 51.105469 171.503906 47.417969 176.296875 47.417969 L 170.398438 61.074219 C 165.601562 71.410156 160.808594 77.3125 157.121094 77.3125 Z M 262.601562 51.105469 C 262.234375 56.273438 257.808594 68.824219 252.644531 76.207031 C 250.433594 79.160156 248.585938 80.265625 247.113281 80.265625 C 244.898438 80.265625 244.160156 78.421875 244.53125 75.835938 C 244.898438 71.039062 248.957031 60.335938 254.121094 52.582031 C 256.703125 49.261719 258.175781 47.785156 260.019531 47.785156 C 262.234375 47.417969 262.601562 48.894531 262.601562 51.105469 Z M 410.871094 44.832031 L 419.722656 24.53125 L 409.394531 24.53125 L 400.542969 44.832031 L 378.414062 44.832031 L 374.726562 53.320312 L 396.855469 53.320312 L 388.003906 73.621094 L 398.332031 73.621094 L 407.183594 53.320312 L 429.3125 53.320312 L 433 44.832031 Z M 410.871094 44.832031 "/>
</g>
</svg>
