<?xml version="1.0" encoding="UTF-8"?>
<svg xmlns="http://www.w3.org/2000/svg" xmlns:xlink="http://www.w3.org/1999/xlink" width="px" height="100px" viewBox="0 0 349 100" version="1.1">
<defs>
<linearGradient id="linear0" gradientUnits="userSpaceOnUse" x1="432.90948" y1="-126.3625" x2="646.26062" y2="86.792999" gradientTransform="matrix(0.344814,0,0,-0.344965,-28.683072,52.148492)">
<stop offset="0.28" style="stop-color:rgb(98.039216%,8.627451%,37.647059%);stop-opacity:1;"/>
<stop offset="0.78" style="stop-color:rgb(100%,49.019608%,9.019608%);stop-opacity:1;"/>
</linearGradient>
</defs>
<g id="surface1">
<path style=" stroke:none;fill-rule:nonzero;fill:rgb(100%,100%,100%);fill-opacity:1;" d="M 231.558594 28.140625 L 242.246094 28.140625 C 248.679688 28.140625 252.796875 31.46875 252.796875 37.277344 C 252.796875 43.605469 248.679688 47.722656 242.246094 47.722656 L 231.558594 47.722656 Z M 249.960938 60.460938 C 261.03125 59.042969 270.164062 49.523438 270.164062 37.414062 C 270.164062 21.703125 259.476562 13.082031 242.246094 13.082031 L 214.433594 13.082031 L 214.433594 92.15625 L 231.558594 92.15625 L 231.558594 60.460938 L 252.796875 92.128906 L 272.617188 92.128906 Z M 59.464844 13.082031 L 59.464844 28.660156 L 76.832031 28.660156 L 76.832031 92.128906 L 94.226562 92.128906 L 94.226562 28.660156 L 111.59375 28.660156 L 111.59375 13.082031 Z M 27.292969 42.1875 C 22.140625 39.867188 20.203125 37.304688 20.203125 33.949219 C 20.203125 30.078125 23.421875 26.859375 28.574219 26.996094 C 33.070312 27.105469 36.5625 29.558594 39.015625 35.367188 L 53.820312 28.792969 C 49.703125 18.238281 41.332031 12.074219 27.835938 12.074219 C 13.550781 12.074219 3 21.484375 3 34.085938 C 3 42.707031 7.253906 49.523438 17.285156 54.570312 L 28.355469 60.109375 C 34.515625 63.21875 37.488281 65.507812 37.488281 70.007812 C 37.488281 74.890625 33.507812 78.382812 28.355469 78.382812 C 22.820312 78.382812 17.804688 75.273438 15.484375 68.34375 L 0 72.847656 C 3.597656 85.855469 14.285156 93.46875 28.191406 93.46875 C 43.242188 93.46875 54.828125 83.8125 54.828125 69.898438 C 54.828125 59.207031 49.050781 52.117188 37.953125 47.125 Z M 27.292969 42.1875 "/>
<path style=" stroke:none;fill-rule:nonzero;fill:url(#linear0);" d="M 209.800781 38.179688 L 169.695312 38.179688 L 157.289062 0.046875 L 144.882812 38.179688 L 104.777344 38.179688 L 136.949219 61.800781 C 136.949219 61.800781 152.679688 51.433594 171.738281 47.535156 C 143.628906 68.289062 128.359375 88.882812 128.359375 88.882812 L 124.84375 99.957031 L 157.289062 76.390625 L 189.734375 99.957031 L 177.355469 61.800781 Z M 209.800781 38.179688 "/>
<path style=" stroke:none;fill-rule:nonzero;fill:rgb(100%,100%,100%);fill-opacity:1;" d="M 349 46.101562 L 324.351562 46.101562 L 324.351562 21.441406 L 311.257812 21.441406 L 311.257812 46.101562 L 286.609375 46.101562 L 286.609375 58.804688 L 311.257812 58.804688 L 311.257812 83.464844 L 324.351562 83.464844 L 324.351562 58.804688 L 349 58.804688 Z M 349 46.101562 "/>
</g>
</svg>
