<svg xmlns="http://www.w3.org/2000/svg" xml:space="preserve" id="Camada_1" width="1000" height="366.33664" x="0px" y="0px" version="1.1" viewBox="0 0 1000 366.33665"><style>.st0{fill:#fff}</style><g id="g135" transform="translate(0 .1) scale(1.0001)"><path id="path11" d="M849.3 102.9h39.2c23.6 0 38.7 12.2 38.7 33.5 0 23.2-15.1 38.3-38.7 38.3h-39.2zm67.5 118.5c40.6-5.2 74.1-40.1 74.1-84.5 0-57.6-39.2-89.2-102.4-89.2h-102v289.9h62.8V221.4l77.9 116.1h72.7z" class="st0"/><path id="polygon13" d="M218.1 47.7v57.1h63.7v232.7h63.8V104.8h63.7V47.7z" class="st0"/><path id="path15" d="M100.1 154.4c-18.9-8.5-26-17.9-26-30.2 0-14.2 11.8-26 30.7-25.5 16.5.4 29.3 9.4 38.3 30.7l54.3-24.1C182.3 66.6 151.6 44 102.1 44 49.7 44 11 78.5 11 124.7c0 31.6 15.6 56.6 52.4 75.1l40.6 20.3c22.6 11.4 33.5 19.8 33.5 36.3 0 17.9-14.6 30.7-33.5 30.7-20.3 0-38.7-11.4-47.2-36.8L0 266.8c13.2 47.7 52.4 75.6 103.4 75.6 55.2 0 97.7-35.4 97.7-86.4 0-39.2-21.2-65.2-61.9-83.5z" class="st0"/><linearGradient id="path3144_1_" x1="432.90948" x2="646.26062" y1="-126.3625" y2="86.792999" gradientTransform="matrix(1.2647 0 0 -1.2647 -105.203 190.919)" gradientUnits="userSpaceOnUse"><stop id="stop8" offset="0.28" style="stop-color:#fa1660"/><stop id="stop10" offset="0.78" style="stop-color:#ff7d17"/></linearGradient><path id="path3144" d="M769.5 139.7H622.4L576.9-.1l-45.5 139.8H384.3l118 86.6s57.7-38 127.6-52.3c-103.1 76.1-159.1 151.6-159.1 151.6l-12.9 40.6 119-86.4 119 86.4-45.4-139.9z" style="fill:url(#path3144_1_)"/></g></svg>