<?xml version="1.0" encoding="UTF-8"?>
<svg xmlns="http://www.w3.org/2000/svg" xmlns:xlink="http://www.w3.org/1999/xlink" width="px" height="100px" viewBox="0 0 333 100" version="1.1">
<g id="surface1">
<path style=" stroke:none;fill-rule:evenodd;fill:rgb(98.039216%,98.039216%,98.039216%);fill-opacity:1;" d="M 0 50 C 0 22.433594 22.347656 0 49.8125 0 C 77.277344 0 99.625 22.433594 99.625 50 C 99.625 77.566406 77.277344 100 49.8125 100 C 22.347656 100 0 77.566406 0 50 Z M 5.179688 50 C 5.179688 74.707031 25.195312 94.816406 49.8125 94.816406 C 74.429688 94.816406 94.460938 74.710938 94.472656 50 C 94.472656 25.292969 74.441406 5.183594 49.824219 5.183594 C 25.207031 5.183594 5.179688 25.292969 5.179688 50 Z M 59.8125 63.546875 L 61.980469 63.546875 C 62.902344 63.546875 63.65625 64.265625 63.65625 65.15625 C 63.65625 66.046875 62.890625 66.765625 61.96875 66.765625 L 37.558594 66.765625 C 36.625 66.765625 35.871094 66.046875 35.871094 65.15625 C 35.871094 64.265625 36.625 63.546875 37.558594 63.546875 L 47.679688 63.546875 L 47.679688 60.023438 L 37.769531 60.023438 C 36.84375 60.023438 36.082031 59.304688 36.082031 58.425781 C 36.082031 57.535156 36.84375 56.816406 37.769531 56.816406 L 47.679688 56.816406 L 47.679688 54.367188 L 37.769531 54.367188 C 36.84375 54.367188 36.082031 53.648438 36.082031 52.757812 C 36.082031 51.882812 36.84375 51.164062 37.769531 51.164062 L 61.746094 51.164062 C 62.683594 51.164062 63.433594 51.882812 63.433594 52.757812 C 63.433594 53.648438 62.671875 54.367188 61.746094 54.367188 L 51.882812 54.367188 L 51.882812 56.816406 L 61.746094 56.816406 C 62.683594 56.816406 63.433594 57.535156 63.433594 58.425781 C 63.433594 59.304688 62.671875 60.023438 61.746094 60.023438 L 59.8125 60.023438 Z M 51.882812 63.546875 L 55.765625 63.546875 L 55.765625 60.023438 L 51.882812 60.023438 Z M 50.207031 40.695312 L 49.371094 40.695312 C 48.921875 40.695312 48.496094 40.875 48.179688 41.195312 C 47.867188 41.511719 47.691406 41.941406 47.695312 42.390625 L 47.695312 44.332031 L 37.78125 44.332031 C 36.09375 44.332031 36.082031 46.027344 36.082031 46.027344 L 36.09375 48.675781 C 36.09375 49.605469 36.84375 50.371094 37.78125 50.371094 L 38.605469 50.371094 C 39.542969 50.367188 40.296875 49.609375 40.296875 48.675781 L 40.296875 47.539062 L 59.257812 47.539062 L 59.257812 48.640625 C 59.257812 49.578125 60.007812 50.332031 60.933594 50.332031 L 61.757812 50.332031 C 62.691406 50.332031 63.445312 49.574219 63.445312 48.640625 L 63.445312 46.027344 C 63.445312 46.015625 63.433594 44.347656 61.757812 44.347656 L 51.894531 44.347656 L 51.894531 42.402344 C 51.894531 41.46875 51.140625 40.707031 50.207031 40.695312 Z M 63.027344 35.3125 L 63.25 35.425781 C 64.199219 35.984375 64.257812 36.929688 64.269531 37.121094 C 64.269531 37.144531 64.269531 37.152344 64.273438 37.15625 C 64.171875 39.050781 62.363281 39.199219 61.796875 39.023438 C 60.402344 38.730469 55.71875 36.636719 51.894531 31.636719 L 51.894531 37.464844 C 51.902344 38.398438 51.152344 39.15625 50.21875 39.160156 L 49.382812 39.160156 C 48.933594 39.160156 48.507812 38.980469 48.191406 38.660156 C 47.878906 38.34375 47.703125 37.914062 47.703125 37.464844 L 47.703125 31.636719 C 43.882812 36.636719 39.210938 38.730469 37.804688 39.023438 C 37.253906 39.199219 35.425781 39.050781 35.328125 37.15625 L 35.328125 37.152344 C 35.339844 36.355469 35.824219 35.636719 36.5625 35.324219 C 39.535156 34.027344 42.253906 31.253906 42.253906 31.253906 L 38.425781 31.253906 C 37.160156 31.25 36.136719 30.21875 36.144531 28.953125 L 36.144531 19.820312 C 36.144531 18.558594 37.15625 17.535156 38.425781 17.535156 L 47.695312 17.535156 L 47.695312 15.503906 L 37.585938 15.503906 C 36.648438 15.503906 35.894531 14.785156 35.894531 13.894531 C 35.894531 13.003906 36.660156 12.289062 37.585938 12.289062 L 47.695312 12.289062 L 47.695312 10.617188 C 47.695312 9.675781 48.441406 8.921875 49.371094 8.921875 L 50.207031 8.921875 C 51.121094 8.921875 51.882812 9.6875 51.882812 10.617188 L 51.882812 12.273438 L 61.980469 12.273438 C 62.917969 12.273438 63.667969 13.003906 63.667969 13.882812 C 63.667969 14.773438 62.902344 15.492188 61.980469 15.492188 L 51.882812 15.492188 L 51.882812 17.519531 L 61.140625 17.519531 C 62.40625 17.519531 63.433594 18.542969 63.433594 19.808594 L 63.433594 28.941406 C 63.433594 30.214844 62.410156 31.242188 61.140625 31.242188 L 57.332031 31.242188 C 57.332031 31.242188 60.058594 34.011719 63.027344 35.3125 Z M 42.527344 22.867188 L 47.679688 22.867188 L 47.679688 20.738281 L 40.804688 20.738281 C 40.605469 20.730469 40.417969 20.804688 40.277344 20.941406 C 40.136719 21.082031 40.058594 21.269531 40.0625 21.464844 L 40.0625 27.308594 C 40.0625 27.714844 40.332031 28.050781 40.804688 28.050781 L 47.679688 28.050781 L 47.679688 26.070312 L 42.527344 26.070312 C 41.605469 26.070312 40.839844 25.351562 40.839844 24.460938 C 40.839844 23.582031 41.605469 22.863281 42.527344 22.863281 Z M 51.882812 26.058594 L 51.882812 28.023438 L 58.773438 28.023438 C 59.242188 28.023438 59.492188 27.667969 59.492188 27.296875 L 59.492188 21.441406 C 59.492188 21.070312 59.144531 20.710938 58.773438 20.710938 L 51.886719 20.710938 L 51.886719 22.855469 L 57.027344 22.855469 C 57.960938 22.855469 58.710938 23.570312 58.710938 24.449219 C 58.710938 25.339844 57.949219 26.058594 57.027344 26.058594 Z M 192.003906 24.203125 C 177.964844 24.203125 166.585938 35.757812 166.585938 50 C 166.585938 64.253906 177.964844 75.796875 192.003906 75.796875 C 206.042969 75.796875 217.421875 64.242188 217.421875 50 C 217.433594 35.746094 206.058594 24.203125 192.003906 24.203125 Z M 192.105469 73.222656 C 181.796875 73.222656 173.429688 62.832031 173.429688 50 C 173.429688 37.179688 181.785156 26.773438 192.105469 26.773438 C 202.40625 26.773438 210.777344 37.171875 210.777344 50 C 210.777344 62.832031 202.421875 73.226562 192.105469 73.226562 Z M 282.152344 50 C 282.152344 35.757812 293.542969 24.203125 307.582031 24.203125 C 321.621094 24.203125 333.011719 35.746094 333 50 C 333 64.242188 321.621094 75.796875 307.582031 75.796875 C 293.542969 75.796875 282.152344 64.253906 282.152344 50 Z M 289.003906 50 C 289.003906 62.832031 297.375 73.226562 307.679688 73.226562 C 317.984375 73.226562 326.355469 62.828125 326.34375 50 C 326.34375 37.167969 317.984375 26.773438 307.679688 26.773438 C 297.363281 26.773438 289.003906 37.179688 289.003906 50 Z M 257.277344 27.40625 L 258.691406 27.40625 C 261.070312 27.40625 262.996094 29.351562 262.996094 31.726562 L 262.996094 49.183594 L 236.601562 49.183594 L 236.601562 31.726562 C 236.601562 29.335938 238.539062 27.40625 240.917969 27.40625 L 242.320312 27.40625 L 242.320312 26.019531 L 223.632812 26.019531 L 223.632812 27.40625 L 225.054688 27.40625 C 227.433594 27.40625 229.34375 29.351562 229.355469 31.726562 L 229.355469 68.511719 C 229.355469 70.898438 227.421875 72.828125 225.042969 72.828125 L 223.621094 72.828125 L 223.621094 74.203125 L 242.3125 74.203125 L 242.3125 72.828125 L 240.890625 72.828125 C 238.519531 72.8125 236.597656 70.886719 236.589844 68.511719 L 236.589844 52.113281 L 262.984375 52.113281 L 262.984375 68.496094 C 262.984375 70.886719 261.046875 72.816406 258.667969 72.816406 L 257.261719 72.816406 L 257.261719 74.191406 L 275.949219 74.191406 L 275.949219 72.816406 L 274.535156 72.816406 C 272.15625 72.804688 270.234375 70.875 270.230469 68.496094 L 270.230469 31.726562 C 270.230469 29.335938 272.167969 27.40625 274.558594 27.40625 L 275.964844 27.40625 L 275.964844 26.019531 L 257.277344 26.019531 Z M 115.773438 36.648438 L 117.082031 26.019531 L 158.648438 26.019531 L 159.953125 36.648438 L 158.820312 36.648438 C 158.820312 36.648438 156.121094 28.867188 152.78125 28.867188 L 141.460938 28.867188 L 141.460938 68.523438 C 141.472656 70.890625 143.386719 72.804688 145.75 72.816406 L 147.710938 72.816406 L 147.710938 74.191406 L 128.011719 74.191406 L 128.011719 72.816406 L 129.972656 72.816406 C 132.34375 72.816406 134.261719 70.894531 134.261719 68.523438 L 134.261719 28.867188 L 122.664062 28.867188 C 118.597656 28.867188 116.90625 36.648438 116.90625 36.648438 Z M 115.773438 36.648438 "/>
</g>
</svg>
