<svg xmlns="http://www.w3.org/2000/svg" width="793.7" height="192.7"><path fill="#fff" d="M498.567 48.224c-20.271 0-34.57 2.513-45.873 7.732-19.334 8.932-27.21 23.266-22.384 40.641 4.201 15.123 25.182 25.182 58.702 28.092 19.166 1.666 25.434 4.14 29.183 11.497 2.942 5.767 3.42 13.554 1.295 21.53-1.038 3.898-3.93 7.614-11.659 15.026-9.388 8.998-11.6 12.364-9.513 14.452 1.666 1.666 7.965-.778 16.228-6.275 11.62-7.725 21.363-18.62 26.511-29.673 4.796-10.293 6.667-17.487 4.535-17.487-2.636 0-6.6-5.202-6.6-8.663 0-4.109 3.334-8.178 6.68-8.178 2.214 0 2.389-1.39 2.389-18.789V79.341H482v18.13h15.542c8.703 0 15.543.501 15.543 1.174 0 6.88-24.287 9.03-35.66 3.158-13.833-7.14-14.06-22.076-.446-29.03 9.84-5.019 32.387-4.52 34.416.77.58 1.512 4.19 1.903 18.705 1.903h17.977V51.243l-17.852-1.498c-11.967-1.003-22.44-1.542-31.659-1.54v.019zm-125.336.367c-1.588 0-3.127 0-4.575.042-18.327.457-21.922.935-31.086 4.048-5.7 1.936-13.142 5.307-16.564 7.49-17.95 11.478-20.957 35.002-6.234 48.698 8.573 7.973 27.197 13.845 50 15.795 7.837.667 16.257 1.824 18.705 2.55 10.691 3.182 15.879 14.312 13.036 27.98-1.547 7.457-6.343 13.68-17.53 22.706-4.693 3.79-6.127 6.827-4.13 8.825 2.214 2.213 3.575 1.852 12.55-3.401 16.466-9.635 29.588-25.895 33.883-41.984 1.48-5.536 1.412-5.835-2.55-9.797-5.992-5.992-5.013-11.831 2.388-14.41l3.886-1.376v-36.43l-33.352.321-33.352.363v16.844l15.221.362c12.593.304 15.221.68 15.221 2.307 0 3.184-8.175 5.748-18.466 5.748-11.612 0-21.81-4.367-25.099-10.727-2.684-5.192-1.603-13.137 2.348-17.362 5.497-5.884 9.944-7.354 22.664-7.448 10.355-.084 12.343.292 15.795 2.834 3.637 2.686 5.328 2.915 21.53 2.915h17.614L424.77 63.5l-.404-11.982-17.488-1.7c-8.55-.823-22.524-1.297-33.646-1.214l-.002-.014zm295.329 2.146v19.558h11.659v37.563h-11.66v19.432h58.297v-19.432h-5.182c-4.319 0-5.182-.432-5.182-2.591 0-2.398.865-2.591 11.66-2.591h11.659v24.608h48.055l-.362-9.391-.406-9.392-8.542-.404c-7.732-.344-8.916-.78-12.67-4.656l-4.171-4.25 6.114-2.348c22.37-8.543 24.482-31.001 3.967-41.816l-6.72-3.522-48.252-.405-48.264-.363zm-546.73.084-58.618.321-58.618.363v29.798l14.578.363 14.577.366v-11.74h11.66v37.41l-5.505.405-5.506.404-.363 9.393-.365 9.391h58.492l-.363-9.391-.404-9.393-5.505-.404-5.505-.406v-37.41H93.34v11.66h28.497V66.366l-.007-15.545zm3.806.042.724 18.788 6.153.367 6.153.405v37.452H125.71v19.432h59.71l-.363-9.392-.404-9.391-5.507-.406c-4.451-.322-5.505-.88-5.505-2.916 0-2.305.98-2.51 11.66-2.51h11.659v24.61h47.93v-19.433l-8.098-.042c-7.282 0-8.595-.438-13.197-4.331l-5.1-4.332 5.1-1.62c11.762-3.725 19.992-13.054 19.992-22.635 0-6.046-2.512-10.952-8.299-16.033-8.483-7.448-13.065-8.015-63.878-8.015h-45.79l.015.002zm123.154 0v19.432h11.659v37.563h-11.66v19.432h58.297v-19.432h-11.66V70.407l5.506-.367 5.505-.404.405-9.392.363-9.391h-29.183l-29.232.01zm303.023 0 .725 18.788 6.802.367 6.8.405v37.452h-14.256v19.432h112.704v-23.322h-15.543c-12.955 0-15.543.326-15.543 1.944 0 1.622-2.662 1.943-16.186 1.943h-16.187v-11.66h24.734l-.362-10.039-.404-10.04-11.983-.363c-10.916-.34-11.982-.598-11.982-2.914 0-2.39.967-2.55 16.186-2.55 13.53 0 16.187.317 16.187 1.943 0 1.62 2.59 1.943 15.543 1.943h15.543V50.871h-56.394l-56.384-.008zm-378.15 21.894 10.687.362c9.25.326 10.73.724 11.133 2.835.694 3.627-2.027 4.633-12.428 4.655l-9.392.042v-7.894zm542.812.126h10.242c8.249 0 10.4.404 11.052 2.105 1.57 4.092-1.677 5.668-11.7 5.668h-9.594v-7.773zM401.7 102.43c3.249-.042 4.848.743 6.8 3.036 3.128 3.67 2.86 7.098-.89 10.849-3.856 3.855-7.626 4.074-11.093.607-4.716-4.716-2.336-13.987 3.684-14.41a31.36 31.36 0 0 1 1.496-.084l.003.002zm123.588.244c4.983 0 8.542 3.3 8.542 7.936 0 7.356-7.469 10.877-13.318 6.276-6.307-4.963-3.2-14.214 4.776-14.214v.002z"/></svg>