<svg xmlns="http://www.w3.org/2000/svg" xml:space="preserve" x="0px" y="0px" style="enable-background:new 0 0 1000 318.6" viewBox="0 0 1000 318.6"><path d="M306.9 892.9c-3.4-163.2-220.4-224-304-71.1 3.7 2.7 8.8 6.3 12.5 8.9-6.3 13.4-10.7 27-13 40.7C.9 880.4 0 889.6 0 899c0 84.6 68.8 153.4 153.5 153.4S306.9 983.7 306.9 899v-6.1zm-269 27.4c-2 16.6-.7 21.7-.7 23.7l-3.7 1.3c-1.5-2.7-4.9-12.4-6.5-25.3-4-49.3 29.7-93.8 81-102.2 47-6.9 92.1 22.3 102.6 63.2l-3.7 1.3c-1.1-1.1-3-4.4-10.2-11.7-56.9-56.8-146.1-30.8-158.8 49.7zm146 27.6c-7.6 10.9-20.1 18-34.4 18-23.2 0-41.9-18.7-41.9-41.9 0-22 17.1-40.1 38.9-41.7 13.5-.6 26.2 6.8 32.1 18.5 6.5 12.8 4.2 28.5-6 39.1 3.9 2.8 7.6 5.4 11.3 8zm87.4 1.6c-22.2 50.2-67.8 76.5-116.4 75.8-93.4-4.6-120.6-112.4-58.2-151.3l2.7 2.7c-1 1.5-4.8 4.3-10.5 15.7-6.8 13.8-8.9 27.6-8.1 36.3 4.9 75.2 110.3 90.7 146.6 16.1C273.7 842.8 151 739 42.3 818.3l-2.4-2.4c28.6-44.9 84.6-64.9 138-51.5C259.4 785 303.3 870 271.3 949.5zM455.9 833.1v70.8c0 28.2-17.3 49.2-48.8 49.2s-48.8-21-48.8-49.2v-70.8h25.6v68.8c0 17.1 8.1 26.9 23.2 26.9 15 0 23.2-9.8 23.2-26.9v-68.8h25.6zm95.4 83.8c0 20.5-16 35.1-41.9 35.1h-40.9V834h39.3c22.7 0 37.8 10.9 37.8 28.5 0 13.4-6.2 21.5-15.6 25.3 12.8 4.8 21.3 13.3 21.3 29.1zm-57-60.3v24.9h13.5c7.9 0 13.4-4.6 13.4-12.5s-5.5-12.5-13.4-12.5h-13.5v.1zm14.2 72.9c10.9 0 17.3-5 17.3-14.8s-6.2-14.8-17.3-14.8h-14.2v29.7l14.2-.1zm52.8-95.4H587v118h-25.6v-118zm87.7 47.7c20.3 7 30.7 16.1 30.7 34.4 0 24.4-18.7 38-40.9 38-20.5 0-36.1-9.1-42.7-25.9l20.5-15.1c3.7 10.7 13.4 17.1 23 17.1 8.5 0 14.5-4.6 14.5-12.1 0-7-4.6-11.5-21.5-17.6-18.3-6.6-31.8-15.7-31.8-35.2 0-18.9 15.7-33.2 38.4-33.2 18.1 0 32.1 7.2 38.7 21.6l-20.5 14.1c-3.9-8.8-9.9-13.7-19.3-13.7-7.8 0-13.5 4.2-13.5 10.2.2 6.9 6.7 11.1 24.4 17.4zM806.9 893c0 34.7-25 61-60.1 61-36 0-60.1-25.8-60.1-57 0-20.3 7.9-35 19.5-44.4l-4-4c8.9-9.2 25.3-16.6 44.6-16.6 35.1.1 60.1 26.7 60.1 61zm-26 0c0-21.3-13.5-36.7-34.1-36.7-11.9 0-20.9 4.6-26.3 10.5l4 4c-6.2 5.2-11.8 12.5-11.8 25.5 0 17.8 12.7 33.5 34.1 33.5 20.7-.1 34.1-15.4 34.1-36.8zm62.1-34.6v27.3h50.1v19.5H843V952h-25.6V834h80.9v24.3H843zm157 0h-33.1V952h-25.6v-93.6H908v-24.3h91.9l.1 24.3z" style="fill:#fff" transform="translate(0 -733.792)"/></svg>