<?xml version="1.0" encoding="UTF-8"?>
<svg xmlns="http://www.w3.org/2000/svg" xmlns:xlink="http://www.w3.org/1999/xlink" width="px" height="100px" viewBox="0 0 450 100" version="1.1">
<defs>
<clipPath id="clip1">
  <path d="M 366.777344 19.054688 L 441.667969 19.054688 L 441.667969 91.566406 L 366.777344 91.566406 Z M 366.777344 19.054688 "/>
</clipPath>
</defs>
<g id="surface1">
<path style=" stroke:none;fill-rule:evenodd;fill:rgb(0%,31.372549%,100%);fill-opacity:1;" d="M 231.160156 21.515625 C 231.132812 37.742188 235.21875 53.710938 243.035156 67.933594 C 244.324219 51.429688 249.636719 35.492188 258.503906 21.515625 L 286.871094 21.515625 C 272.613281 41.25 264.527344 64.769531 263.628906 89.101562 L 228.867188 89.101562 C 214.222656 69.566406 206.082031 45.925781 205.589844 21.515625 Z M 315.816406 21.515625 C 315.792969 37.742188 319.878906 53.710938 327.691406 67.933594 C 328.980469 51.429688 334.292969 35.492188 343.164062 21.515625 L 371.527344 21.515625 C 357.273438 41.25 349.183594 64.769531 348.289062 89.101562 L 313.523438 89.101562 C 298.882812 69.566406 290.742188 45.925781 290.25 21.515625 Z M 101.820312 89.101562 C 100.195312 65.066406 106.882812 41.207031 120.753906 21.515625 L 92.527344 21.515625 C 86.007812 33.058594 82.335938 45.992188 81.820312 59.238281 C 76.195312 44.457031 74.542969 28.460938 77.027344 12.839844 L 54.269531 12.839844 C 45.804688 26.828125 41.3125 42.855469 41.269531 59.203125 C 35.164062 41.519531 33.828125 22.535156 37.398438 4.167969 L 9.703125 4.167969 C 4.976562 35.6875 12.496094 68.6875 32.261719 95.492188 L 60.195312 95.492188 C 57.644531 82.882812 57.792969 69.871094 60.636719 57.324219 C 62.953125 68.671875 67.445312 79.460938 73.867188 89.101562 L 101.824219 89.101562 Z M 156.089844 70.285156 C 147.089844 70.285156 140.882812 63.578125 140.882812 55.308594 C 140.882812 47.039062 147.089844 40.328125 156.089844 40.328125 C 165.085938 40.328125 171.300781 47.039062 171.300781 55.308594 C 171.300781 63.578125 165.085938 70.285156 156.089844 70.285156 Z M 175.613281 21.515625 C 175.296875 23.234375 175.003906 24.953125 174.738281 26.679688 C 168.507812 21.699219 160.761719 19.007812 152.789062 19.054688 C 132.6875 19.054688 116.828125 35.132812 116.828125 55.308594 C 116.828125 75.484375 132.6875 91.5625 152.789062 91.5625 C 161.058594 91.5625 168.664062 88.804688 174.734375 83.9375 C 175.003906 85.664062 175.296875 87.378906 175.613281 89.097656 L 198.472656 89.097656 C 194.34375 66.757812 194.34375 43.855469 198.472656 21.515625 Z M 175.613281 21.515625 "/>
<g clip-path="url(#clip1)" clip-rule="nonzero">
<path style=" stroke:none;fill-rule:evenodd;fill:rgb(0%,31.372549%,100%);fill-opacity:1;" d="M 390.523438 47.492188 C 392.609375 40.574219 398.359375 37.160156 404.980469 37.160156 C 411.601562 37.160156 417.058594 40.757812 419.164062 47.492188 Z M 404.9375 19.054688 C 380.777344 19.054688 366.777344 36.464844 366.777344 54.972656 C 366.777344 75.035156 381.625 91.566406 407.679688 91.566406 C 418.886719 91.566406 430.179688 88.414062 437.277344 84.929688 L 437.277344 65.042969 C 430.109375 68.8125 420.300781 72.160156 410.886719 72.160156 C 399.675781 72.160156 392.617188 67.585938 390.597656 60.804688 L 441.472656 60.804688 C 443.5625 35.972656 428.554688 19.054688 404.9375 19.054688 Z M 404.9375 19.054688 "/>
</g>
</g>
</svg>
