<?xml version="1.0" encoding="UTF-8"?>
<svg id="_레이어_1" data-name=" 레이어 1" xmlns="http://www.w3.org/2000/svg" viewBox="0 0 36 24">
  <defs>
    <style>
      .cls-1, .cls-2, .cls-3, .cls-4, .cls-5 {
        stroke-width: 0px;
      }

      .cls-1, .cls-3 {
        fill: #fff;
      }

      .cls-2, .cls-5 {
        fill: #e50027;
      }

      .cls-3, .cls-4, .cls-5 {
        fill-rule: evenodd;
      }

      .cls-4 {
        fill: #001b69;
      }
    </style>
  </defs>
  <g id="Flag-_-AU" data-name="Flag- -AU">
    <path id="Mask" class="cls-4" d="m4,0h28c2.209,0,4,1.791,4,4v16c0,2.209-1.791,4-4,4H4c-2.209,0-4-1.791-4-4V4C0,1.791,1.791,0,4,0Z"/>
    <path id="Path" class="cls-3" d="m15.349,0h.651v2.558l-5.455,3.543,5.455,3.542v2.357h-.96l-6.79-4.409L1.46,12H0v-2.032l5.955-3.867L.316,2.438c.339-.798.929-1.463,1.671-1.896l6.263,4.067L15.349,0Z"/>
    <path id="Path-2" class="cls-5" d="m0,11.892v-1.192l7.082-4.6L.6,1.892c.178-.287.392-.549.634-.782l6.766,4.394L16,.31v1.193l-7.082,4.597,7.082,4.6v1.192l-8-5.195L0,11.892Z"/>
    <polygon id="Shape" class="cls-1" points="10 4 16 4 16 8 10 8 10 12 6 12 6 8 0 8 0 4 6 4 6 0 10 0 10 4"/>
    <polygon id="Shape-2" class="cls-2" points="9 5 9 0 7 0 7 5 0 5 0 7 7 7 7 12 9 12 9 7 16 7 16 5 9 5"/>
  </g>
  <g>
    <g id="_αCrucis" data-name=" αCrucis">
      <path id="Star7-2" class="cls-1" d="m26.311,17.953l.309.961.944-.357-.558.84.868.516-1.005.088.138.999-.696-.732-.696.732.138-.999-1.005-.088.868-.516-.558-.84.944.357.309-.961h-.003,0Z"/>
    </g>
    <g id="_βCrucis" data-name=" βCrucis">
      <path id="Star7-3" class="cls-1" d="m20.703,9.074l.309.961.944-.357-.558.84.868.516-1.005.088.138.999-.696-.732-.696.732.138-.999-1.005-.088.868-.516-.558-.84.944.357.309-.961h-.003,0Z"/>
    </g>
    <g id="_γCrucis" data-name=" γCrucis">
      <path id="Star7-4" class="cls-1" d="m26.311,3l.309.961.944-.357-.558.84.868.516-1.005.088.138.999-.696-.732-.696.732.138-.999-1.005-.088.868-.516-.558-.84.944.357.309-.961h-.003,0Z"/>
    </g>
    <g id="_δCrucis" data-name=" δCrucis">
      <path id="Star7-5" class="cls-1" d="m31.295,7.58l.309.961.944-.357-.558.84.868.516-1.005.088.138.999-.696-.732-.696.732.138-.999-1.005-.088.868-.516-.558-.84.944.357.309-.961h-.003,0Z"/>
    </g>
    <g id="_εCrucis" data-name=" εCrucis">
      <path id="Star5" class="cls-1" d="m28.553,12.079l.243.599.645.047-.494.417.154.628-.549-.34-.549.34.154-.628-.494-.417.645-.047s.243-.599.243-.599Z"/>
    </g>
  </g>
  <g id="Comwlth">
    <path id="Star7" class="cls-1" d="m8.001,15l.609,1.892,1.859-.703-1.1,1.656,1.709,1.015-1.98.173.272,1.968-1.369-1.441-1.369,1.441.272-1.968-1.98-.173,1.709-1.015-1.1-1.656,1.859.703.609-1.892h.002Z"/>
  </g>
</svg>