<?xml version="1.0" encoding="UTF-8"?>
<svg id="_레이어_1" data-name=" 레이어 1" xmlns="http://www.w3.org/2000/svg" xmlns:xlink="http://www.w3.org/1999/xlink" viewBox="0 0 36 24">
  <defs>
    <style>
      .cls-1, .cls-2, .cls-3, .cls-4, .cls-5, .cls-6 {
        stroke-width: 0px;
      }

      .cls-1, .cls-5 {
        fill: #009b3a;
      }

      .cls-2 {
        fill: #002776;
      }

      .cls-3 {
        fill: none;
      }

      .cls-7 {
        clip-path: url(#clippath-1);
      }

      .cls-4 {
        fill: #fff;
      }

      .cls-5 {
        fill-rule: evenodd;
      }

      .cls-6 {
        fill: #fedf00;
      }

      .cls-8 {
        clip-path: url(#clippath);
      }
    </style>
    <clipPath id="clippath">
      <circle class="cls-3" cx="18" cy="12" r="5"/>
    </clipPath>
    <clipPath id="clippath-1">
      <path class="cls-3" d="m19.551,11.325l.19-.437.393.171-.19.437-.393-.171Zm.324-.208l-.033.075.196.085.033-.075-.196-.085Z"/>
    </clipPath>
  </defs>
  <g id="Flag-_-BR" data-name="Flag- -BR">
    <g id="Rectangle-13-_-Rectangle-13-Copy-_-Rectangle-13-Copy-2-Mask" data-name="Rectangle-13- -Rectangle-13-Copy- -Rectangle-13-Copy-2-Mask">
      <path id="Mask" class="cls-5" d="m4,0h28c2.209,0,4,1.791,4,4v16c0,2.209-1.791,4-4,4H4c-2.209,0-4-1.791-4-4V4C0,1.791,1.791,0,4,0Z"/>
      <polygon id="Shape" class="cls-6" points="5 12 18 3 31 12 18 21 5 12"/>
    </g>
  </g>
  <g>
    <circle class="cls-2" cx="18" cy="12" r="5"/>
    <g class="cls-8">
      <path class="cls-4" d="m3,22.001c0-6.707,5.437-12.144,12.144-12.144s12.144,5.437,12.144,12.144h-.714c0-6.313-5.117-11.429-11.429-11.429S3.714,15.688,3.714,22.001h-.714Z"/>
    </g>
    <g>
      <path id="O" class="cls-5" d="m13.736,10.538c.117-.014.199-.132.183-.262s-.124-.224-.241-.21-.199.132-.183.262.124.224.241.21m-.011-.088c.069-.008.117-.082.107-.164s-.074-.142-.143-.133-.117.082-.107.164.074.142.143.133"/>
      <g id="R">
        <path id="P" class="cls-5" d="m14.123,10.495l.088-.006-.012-.176.19-.013c.082-.006.144-.077.139-.16s-.077-.144-.16-.139l-.271.019s.026.476.026.476Zm.07-.271l.183-.013c.034-.002.059-.032.057-.065s-.032-.059-.065-.057l-.183.013.009.122h-.001Z"/>
        <path class="cls-1" d="m14.528,10.467c-.005-.068-.015-.217-.117-.21l-.129.009c.149-.01.16.139.164.206"/>
      </g>
      <path id="D" class="cls-5" d="m14.727,10.458l.224-.004c.113-.002.202-.095.2-.207v-.068c-.003-.113-.096-.202-.209-.2l-.224.004.008.477h.001Zm.087-.09l.129-.002c.071-.001.128-.06.127-.131v-.041c-.002-.071-.061-.128-.132-.127l-.129.002.005.299Z"/>
      <path id="E" class="cls-1" d="m15.332,10.452l.429.015.003-.088-.346-.012.004-.122.272.009.003-.081-.272-.009.003-.095.326.011.003-.088-.407-.014-.017.476h0Z"/>
      <path id="M" class="cls-1" d="m15.937,10.478l.081.007.028-.325.066.333.074.007.123-.317-.028.325.081.007.041-.475-.118-.01-.123.317-.066-.333-.118-.01-.041.475h0Z"/>
      <path id="e" class="cls-1" d="m16.923,10.589l.352.06.014-.08-.271-.047.018-.107.221.038.014-.08-.221-.038.013-.074.263.045.014-.08-.343-.059-.072.423h-.002Z"/>
      <path id="P-2" class="cls-5" d="m17.827,10.767l.086.022.044-.171.184.048c.08.021.161-.027.182-.107s-.027-.161-.107-.182l-.263-.068-.126.46h0Zm.152-.234l.178.046c.033.008.066-.011.075-.044s-.011-.066-.044-.075l-.178-.046-.031.118h0Z"/>
      <g id="R-2">
        <path id="P-3" class="cls-5" d="m18.411,10.923l.084.027.053-.168.181.057c.079.025.163-.019.188-.098s-.019-.163-.098-.188l-.259-.082-.15.453h.001Zm.164-.226l.175.055c.032.01.067-.008.077-.04s-.008-.067-.04-.077l-.175-.055s-.037.117-.037.117Z"/>
        <path class="cls-1" d="m18.797,11.044c.02-.065.065-.207-.032-.238l-.123-.039c.143.045.098.188.077.252"/>
      </g>
      <path id="O-2" class="cls-5" d="m19.187,11.184c.111.041.238-.025.284-.148s-.006-.256-.117-.298-.238.025-.284.148.006.256.117.298m.031-.083c.065.024.141-.019.17-.096s0-.16-.065-.184-.141.019-.17.096,0,.16.065.184"/>
      <g id="G">
        <g class="cls-7">
          <path id="O-3" class="cls-5" d="m19.748,11.41c.108.047.239-.012.291-.133s.007-.256-.101-.303-.239.012-.291.133-.007.256.101.303m.035-.081c.064.028.142-.011.175-.087s.008-.16-.056-.187-.142.011-.175.087-.008.16.056.187"/>
        </g>
        <rect class="cls-1" x="19.909" y="11.183" width=".068" height=".18" transform="translate(1.653 25.067) rotate(-66.5)"/>
        <rect class="cls-1" x="19.842" y="11.339" width=".238" height=".068" transform="translate(1.571 25.144) rotate(-66.5)"/>
      </g>
      <g id="R-3">
        <path id="P-4" class="cls-5" d="m20.105,11.57l.079.039.079-.158.17.085c.074.037.164.007.2-.067s.007-.164-.067-.2l-.243-.121-.218.424h0Zm.197-.198l.164.082c.03.015.067.003.082-.027s.003-.067-.027-.082l-.164-.082-.055.109Z"/>
        <path class="cls-1" d="m20.466,11.751c.03-.061.097-.195.006-.24l-.116-.058c.134.067.067.2.037.261"/>
      </g>
      <path id="E-2" class="cls-1" d="m20.643,11.844l.373.211.043-.077-.302-.171.06-.106.237.134.04-.071-.237-.134.047-.083.284.161.043-.077-.355-.201-.234.414h.001Z"/>
      <path id="S" class="cls-1" d="m21.338,12.077c-.026.04,0,.085.058.121s.096.035.113.009c.052-.082-.249-.201-.156-.343.08-.122.217-.027.268.006s.134.118.07.216l-.087-.056c.027-.043-.003-.084-.049-.114-.044-.028-.08-.041-.107,0-.044.066.25.192.16.334-.067.105-.183.059-.26.01-.066-.042-.164-.141-.1-.241,0,0,.09.058.09.058Z"/>
      <path id="S-2" class="cls-1" d="m21.849,12.415c-.028.039-.004.085.051.124s.094.04.112.015c.056-.079-.238-.214-.138-.351.086-.118.218-.016.268.02s.128.125.059.219l-.084-.06c.03-.041.002-.084-.043-.116-.043-.031-.078-.045-.107-.005-.048.064.24.205.142.342-.072.101-.185.049-.26-.004-.064-.045-.157-.149-.087-.246l.087.062Z"/>
      <path id="O-4" class="cls-5" d="m22.332,12.963c.093.074.234.05.316-.053s.073-.246-.019-.319-.234-.05-.316.053-.073.246.019.319m.055-.069c.054.043.14.026.191-.039s.049-.152-.005-.195-.14-.026-.191.039-.049.152.005.195"/>
    </g>
    <g id="_αCMi" data-name=" αCMi">
      <g id="star1">
        <g id="star">
          <g id="c">
            <path id="t" class="cls-4" d="m13.918,10.888l-.066.204.102.033"/>
            <path id="t-2" class="cls-4" d="m13.918,10.888l.066.204-.102.033"/>
          </g>
          <g id="c-2">
            <path id="t-3" class="cls-4" d="m14.122,11.036h-.214v.107"/>
            <path id="t-4" class="cls-4" d="m14.122,11.036l-.173.126-.063-.087"/>
          </g>
          <g id="c-3">
            <path id="t-5" class="cls-4" d="m13.715,11.036l.173.126.063-.087"/>
            <path id="t-6" class="cls-4" d="m13.715,11.036h.214v.107"/>
          </g>
          <g id="c-4">
            <path id="t-7" class="cls-4" d="m14.044,11.275l-.066-.204-.102.033"/>
            <path id="t-8" class="cls-4" d="m14.044,11.275l-.173-.126.063-.087"/>
          </g>
          <g id="c-5">
            <path id="t-9" class="cls-4" d="m13.793,11.275l.173-.126-.063-.087"/>
            <path id="t-10" class="cls-4" d="m13.793,11.275l.066-.204.102.033"/>
          </g>
        </g>
      </g>
    </g>
    <g id="_αCMa" data-name=" αCMa">
      <g id="star1-2">
        <g id="star-2">
          <g id="c-6">
            <path id="t-11" class="cls-4" d="m14.361,12.99l-.066.204.102.033"/>
            <path id="t-12" class="cls-4" d="m14.361,12.99l.066.204-.102.033"/>
          </g>
          <g id="c-7">
            <path id="t-13" class="cls-4" d="m14.565,13.138h-.214v.107"/>
            <path id="t-14" class="cls-4" d="m14.565,13.138l-.173.126-.063-.087"/>
          </g>
          <g id="c-8">
            <path id="t-15" class="cls-4" d="m14.157,13.138l.173.126.063-.087"/>
            <path id="t-16" class="cls-4" d="m14.157,13.138h.214v.107"/>
          </g>
          <g id="c-9">
            <path id="t-17" class="cls-4" d="m14.487,13.378l-.066-.204-.102.033"/>
            <path id="t-18" class="cls-4" d="m14.487,13.378l-.173-.126.063-.087"/>
          </g>
          <g id="c-10">
            <path id="t-19" class="cls-4" d="m14.234,13.378l.173-.126-.063-.087"/>
            <path id="t-20" class="cls-4" d="m14.234,13.378l.066-.204.102.033"/>
          </g>
        </g>
      </g>
    </g>
    <g id="_βCMa" data-name=" βCMa">
      <g id="star2">
        <g id="star-3">
          <g id="c-11">
            <path id="t-21" class="cls-4" d="m13.749,13.475l-.055.17.085.028"/>
            <path id="t-22" class="cls-4" d="m13.749,13.475l.055.17-.085.028"/>
          </g>
          <g id="c-12">
            <path id="t-23" class="cls-4" d="m13.918,13.598h-.178v.089"/>
            <path id="t-24" class="cls-4" d="m13.918,13.598l-.144.105-.052-.072"/>
          </g>
          <g id="c-13">
            <path id="t-25" class="cls-4" d="m13.579,13.598l.144.105.052-.072"/>
            <path id="t-26" class="cls-4" d="m13.579,13.598h.178v.089"/>
          </g>
          <g id="c-14">
            <path id="t-27" class="cls-4" d="m13.853,13.798l-.055-.17-.085.028"/>
            <path id="t-28" class="cls-4" d="m13.853,13.798l-.144-.105.052-.072"/>
          </g>
          <g id="c-15">
            <path id="t-29" class="cls-4" d="m13.644,13.798l.144-.105-.052-.072"/>
            <path id="t-30" class="cls-4" d="m13.644,13.798l.055-.17.085.028"/>
          </g>
        </g>
      </g>
    </g>
    <g id="_γCMa" data-name=" γCMa">
      <g id="star4">
        <g id="star-4">
          <g id="c-16">
            <path id="t-31" class="cls-4" d="m14.85,12.796l-.031.097.048.016"/>
            <path id="t-32" class="cls-4" d="m14.85,12.796l.031.097-.048.016"/>
          </g>
          <g id="c-17">
            <path id="t-33" class="cls-4" d="m14.947,12.867h-.102v.051"/>
            <path id="t-34" class="cls-4" d="m14.947,12.867l-.082.06-.03-.041"/>
          </g>
          <g id="c-18">
            <path id="t-35" class="cls-4" d="m14.753,12.867l.082.06.03-.041"/>
            <path id="t-36" class="cls-4" d="m14.753,12.867h.102v.051"/>
          </g>
          <g id="c-19">
            <path id="t-37" class="cls-4" d="m14.91,12.981l-.031-.097-.048.016"/>
            <path id="t-38" class="cls-4" d="m14.91,12.981l-.082-.06.03-.041"/>
          </g>
          <g id="c-20">
            <path id="t-39" class="cls-4" d="m14.79,12.981l.082-.06-.03-.041"/>
            <path id="t-40" class="cls-4" d="m14.79,12.981l.031-.097.048.016"/>
          </g>
        </g>
      </g>
    </g>
    <g id="_δCMa" data-name=" δCMa">
      <g id="star2-2">
        <g id="star-5">
          <g id="c-21">
            <path id="t-41" class="cls-4" d="m15.402,13.523l-.055.17.085.028"/>
            <path id="t-42" class="cls-4" d="m15.402,13.523l.055.17-.085.028"/>
          </g>
          <g id="c-22">
            <path id="t-43" class="cls-4" d="m15.571,13.646h-.178v.089"/>
            <path id="t-44" class="cls-4" d="m15.571,13.646l-.144.105-.052-.072"/>
          </g>
          <g id="c-23">
            <path id="t-45" class="cls-4" d="m15.232,13.646l.144.105.052-.072"/>
            <path id="t-46" class="cls-4" d="m15.232,13.646h.178v.089"/>
          </g>
          <g id="c-24">
            <path id="t-47" class="cls-4" d="m15.507,13.845l-.055-.17-.085.028"/>
            <path id="t-48" class="cls-4" d="m15.507,13.845l-.144-.105.052-.072"/>
          </g>
          <g id="c-25">
            <path id="t-49" class="cls-4" d="m15.297,13.845l.144-.105-.052-.072"/>
            <path id="t-50" class="cls-4" d="m15.297,13.845l.055-.17.085.028"/>
          </g>
        </g>
      </g>
    </g>
    <g id="_εCMa" data-name=" εCMa">
      <g id="star3">
        <g id="star-6">
          <g id="c-26">
            <path id="t-51" class="cls-4" d="m15.252,14.054l-.044.136.068.022"/>
            <path id="t-52" class="cls-4" d="m15.252,14.054l.044.136-.068.022"/>
          </g>
          <g id="c-27">
            <path id="t-53" class="cls-4" d="m15.388,14.154h-.143v.071"/>
            <path id="t-54" class="cls-4" d="m15.388,14.154l-.115.084-.042-.058"/>
          </g>
          <g id="c-28">
            <path id="t-55" class="cls-4" d="m15.116,14.154l.115.084.042-.058"/>
            <path id="t-56" class="cls-4" d="m15.116,14.154h.143v.071"/>
          </g>
          <g id="c-29">
            <path id="t-57" class="cls-4" d="m15.336,14.313l-.044-.136-.068.022"/>
            <path id="t-58" class="cls-4" d="m15.336,14.313l-.115-.084.042-.058"/>
          </g>
          <g id="c-30">
            <path id="t-59" class="cls-4" d="m15.168,14.313l.115-.084-.042-.058"/>
            <path id="t-60" class="cls-4" d="m15.168,14.313l.044-.136.068.022"/>
          </g>
        </g>
      </g>
    </g>
    <g id="_αVir" data-name=" αVir">
      <g id="star1-3">
        <g id="star-7">
          <g id="c-31">
            <path id="t-61" class="cls-4" d="m19.552,10.235l-.066.204.102.033"/>
            <path id="t-62" class="cls-4" d="m19.552,10.235l.066.204-.102.033"/>
          </g>
          <g id="c-32">
            <path id="t-63" class="cls-4" d="m19.755,10.383h-.214v.107"/>
            <path id="t-64" class="cls-4" d="m19.755,10.383l-.173.126-.063-.087"/>
          </g>
          <g id="c-33">
            <path id="t-65" class="cls-4" d="m19.348,10.383l.173.126.063-.087"/>
            <path id="t-66" class="cls-4" d="m19.348,10.383h.214v.107"/>
          </g>
          <g id="c-34">
            <path id="t-67" class="cls-4" d="m19.677,10.622l-.066-.204-.102.033"/>
            <path id="t-68" class="cls-4" d="m19.677,10.622l-.173-.126.063-.087"/>
          </g>
          <g id="c-35">
            <path id="t-69" class="cls-4" d="m19.426,10.622l.173-.126-.063-.087"/>
            <path id="t-70" class="cls-4" d="m19.426,10.622l.066-.204.102.033"/>
          </g>
        </g>
      </g>
    </g>
    <g id="_αSco" data-name=" αSco">
      <g id="star1-4">
        <g id="star-8">
          <g id="c-36">
            <path id="t-71" class="cls-4" d="m21.504,13.541l-.066.204.102.033"/>
            <path id="t-72" class="cls-4" d="m21.504,13.541l.066.204-.102.033"/>
          </g>
          <g id="c-37">
            <path id="t-73" class="cls-4" d="m21.707,13.689h-.214v.107"/>
            <path id="t-74" class="cls-4" d="m21.707,13.689l-.173.126-.063-.087"/>
          </g>
          <g id="c-38">
            <path id="t-75" class="cls-4" d="m21.3,13.689l.173.126.063-.087"/>
            <path id="t-76" class="cls-4" d="m21.3,13.689h.214v.107"/>
          </g>
          <g id="c-39">
            <path id="t-77" class="cls-4" d="m21.629,13.928l-.066-.204-.102.033"/>
            <path id="t-78" class="cls-4" d="m21.629,13.928l-.173-.126.063-.087"/>
          </g>
          <g id="c-40">
            <path id="t-79" class="cls-4" d="m21.378,13.928l.173-.126-.063-.087"/>
            <path id="t-80" class="cls-4" d="m21.378,13.928l.066-.204.102.033"/>
          </g>
        </g>
      </g>
    </g>
    <g id="_βSco" data-name=" βSco">
      <g id="star3-2">
        <g id="star-9">
          <g id="c-41">
            <path id="t-81" class="cls-4" d="m22.198,13.66l-.044.136.068.022"/>
            <path id="t-82" class="cls-4" d="m22.198,13.66l.044.136-.068.022"/>
          </g>
          <g id="c-42">
            <path id="t-83" class="cls-4" d="m22.333,13.759h-.143v.071"/>
            <path id="t-84" class="cls-4" d="m22.333,13.759l-.115.084-.042-.058"/>
          </g>
          <g id="c-43">
            <path id="t-85" class="cls-4" d="m22.062,13.759l.115.084.042-.058"/>
            <path id="t-86" class="cls-4" d="m22.062,13.759h.143v.071"/>
          </g>
          <g id="c-44">
            <path id="t-87" class="cls-4" d="m22.282,13.918l-.044-.136-.068.022"/>
            <path id="t-88" class="cls-4" d="m22.282,13.918l-.115-.084.042-.058"/>
          </g>
          <g id="c-45">
            <path id="t-89" class="cls-4" d="m22.114,13.918l.115-.084-.042-.058"/>
            <path id="t-90" class="cls-4" d="m22.114,13.918l.044-.136.068.022"/>
          </g>
        </g>
      </g>
    </g>
    <g id="_εSco" data-name=" εSco">
      <g id="star2-3">
        <g id="star-10">
          <g id="c-46">
            <path id="t-91" class="cls-4" d="m21.708,14.019l-.055.17.085.028"/>
            <path id="t-92" class="cls-4" d="m21.708,14.019l.055.17-.085.028"/>
          </g>
          <g id="c-47">
            <path id="t-93" class="cls-4" d="m21.878,14.143h-.178v.089"/>
            <path id="t-94" class="cls-4" d="m21.878,14.143l-.144.105-.052-.072"/>
          </g>
          <g id="c-48">
            <path id="t-95" class="cls-4" d="m21.538,14.143l.144.105.052-.072"/>
            <path id="t-96" class="cls-4" d="m21.538,14.143h.178v.089"/>
          </g>
          <g id="c-49">
            <path id="t-97" class="cls-4" d="m21.813,14.342l-.055-.17-.085.028"/>
            <path id="t-98" class="cls-4" d="m21.813,14.342l-.144-.105.052-.072"/>
          </g>
          <g id="c-50">
            <path id="t-99" class="cls-4" d="m21.603,14.342l.144-.105-.052-.072"/>
            <path id="t-100" class="cls-4" d="m21.603,14.342l.055-.17.085.028"/>
          </g>
        </g>
      </g>
    </g>
    <g id="_θSco" data-name=" θSco">
      <g id="star2-4">
        <g id="star-11">
          <g id="c-51">
            <path id="t-101" class="cls-4" d="m20.504,15.067l-.055.17.085.028"/>
            <path id="t-102" class="cls-4" d="m20.504,15.067l.055.17-.085.028"/>
          </g>
          <g id="c-52">
            <path id="t-103" class="cls-4" d="m20.673,15.19h-.178v.089"/>
            <path id="t-104" class="cls-4" d="m20.673,15.19l-.144.105-.052-.072"/>
          </g>
          <g id="c-53">
            <path id="t-105" class="cls-4" d="m20.334,15.19l.144.105.052-.072"/>
            <path id="t-106" class="cls-4" d="m20.334,15.19h.178v.089"/>
          </g>
          <g id="c-54">
            <path id="t-107" class="cls-4" d="m20.609,15.39l-.055-.17-.085.028"/>
            <path id="t-108" class="cls-4" d="m20.609,15.39l-.144-.105.052-.072"/>
          </g>
          <g id="c-55">
            <path id="t-109" class="cls-4" d="m20.399,15.39l.144-.105-.052-.072"/>
            <path id="t-110" class="cls-4" d="m20.399,15.39l.055-.17.085.028"/>
          </g>
        </g>
      </g>
    </g>
    <g id="_ιSco" data-name=" ιSco">
      <g id="star3-3">
        <g id="star-12">
          <g id="c-56">
            <path id="t-111" class="cls-4" d="m20.497,15.606l-.044.136.068.022"/>
            <path id="t-112" class="cls-4" d="m20.497,15.606l.044.136-.068.022"/>
          </g>
          <g id="c-57">
            <path id="t-113" class="cls-4" d="m20.633,15.704h-.143v.071"/>
            <path id="t-114" class="cls-4" d="m20.633,15.704l-.115.084-.042-.058"/>
          </g>
          <g id="c-58">
            <path id="t-115" class="cls-4" d="m20.361,15.704l.115.084.042-.058"/>
            <path id="t-116" class="cls-4" d="m20.361,15.704h.143v.071"/>
          </g>
          <g id="c-59">
            <path id="t-117" class="cls-4" d="m20.581,15.865l-.044-.136-.068.022"/>
            <path id="t-118" class="cls-4" d="m20.581,15.865l-.115-.084.042-.058"/>
          </g>
          <g id="c-60">
            <path id="t-119" class="cls-4" d="m20.413,15.865l.115-.084-.042-.058"/>
            <path id="t-120" class="cls-4" d="m20.413,15.865l.044-.136.068.022"/>
          </g>
        </g>
      </g>
    </g>
    <g id="_κSco" data-name=" κSco">
      <g id="star3-4">
        <g id="star-13">
          <g id="c-61">
            <path id="t-121" class="cls-4" d="m21.001,14.708l-.044.136.068.022"/>
            <path id="t-122" class="cls-4" d="m21.001,14.708l.044.136-.068.022"/>
          </g>
          <g id="c-62">
            <path id="t-123" class="cls-4" d="m21.137,14.806h-.143v.071"/>
            <path id="t-124" class="cls-4" d="m21.137,14.806l-.115.084-.042-.058"/>
          </g>
          <g id="c-63">
            <path id="t-125" class="cls-4" d="m20.864,14.806l.115.084.042-.058"/>
            <path id="t-126" class="cls-4" d="m20.864,14.806h.143v.071"/>
          </g>
          <g id="c-64">
            <path id="t-127" class="cls-4" d="m21.085,14.967l-.044-.136-.068.022"/>
            <path id="t-128" class="cls-4" d="m21.085,14.967l-.115-.084.042-.058"/>
          </g>
          <g id="c-65">
            <path id="t-129" class="cls-4" d="m20.916,14.967l.115-.084-.042-.058"/>
            <path id="t-130" class="cls-4" d="m20.916,14.967l.044-.136.068.022"/>
          </g>
        </g>
      </g>
    </g>
    <g id="_λSco" data-name=" λSco">
      <g id="star2-5">
        <g id="star-14">
          <g id="c-66">
            <path id="t-131" class="cls-4" d="m21.402,14.421l-.055.17.085.028"/>
            <path id="t-132" class="cls-4" d="m21.402,14.421l.055.17-.085.028"/>
          </g>
          <g id="c-67">
            <path id="t-133" class="cls-4" d="m21.571,14.544h-.178v.089"/>
            <path id="t-134" class="cls-4" d="m21.571,14.544l-.144.105-.052-.072"/>
          </g>
          <g id="c-68">
            <path id="t-135" class="cls-4" d="m21.232,14.544l.144.105.052-.072"/>
            <path id="t-136" class="cls-4" d="m21.232,14.544h.178v.089"/>
          </g>
          <g id="c-69">
            <path id="t-137" class="cls-4" d="m21.507,14.743l-.055-.17-.085.028"/>
            <path id="t-138" class="cls-4" d="m21.507,14.743l-.144-.105.052-.072"/>
          </g>
          <g id="c-70">
            <path id="t-139" class="cls-4" d="m21.297,14.743l.144-.105-.052-.072"/>
            <path id="t-140" class="cls-4" d="m21.297,14.743l.055-.17.085.028"/>
          </g>
        </g>
      </g>
    </g>
    <g id="_μSco" data-name=" μSco">
      <g id="star3-5">
        <g id="star-15">
          <g id="c-71">
            <path id="t-141" class="cls-4" d="m20.483,14.612l-.044.136.068.022"/>
            <path id="t-142" class="cls-4" d="m20.483,14.612l.044.136-.068.022"/>
          </g>
          <g id="c-72">
            <path id="t-143" class="cls-4" d="m20.619,14.711h-.143v.071"/>
            <path id="t-144" class="cls-4" d="m20.619,14.711l-.115.084-.042-.058"/>
          </g>
          <g id="c-73">
            <path id="t-145" class="cls-4" d="m20.348,14.711l.115.084.042-.058"/>
            <path id="t-146" class="cls-4" d="m20.348,14.711h.143v.071"/>
          </g>
          <g id="c-74">
            <path id="t-147" class="cls-4" d="m20.567,14.871l-.044-.136-.068.022"/>
            <path id="t-148" class="cls-4" d="m20.567,14.871l-.115-.084.042-.058"/>
          </g>
          <g id="c-75">
            <path id="t-149" class="cls-4" d="m20.4,14.871l.115-.084-.042-.058"/>
            <path id="t-150" class="cls-4" d="m20.4,14.871l.044-.136.068.022"/>
          </g>
        </g>
      </g>
    </g>
    <g id="_αHya" data-name=" αHya">
      <g id="star2-6">
        <g id="star-16">
          <g id="c-76">
            <path id="t-151" class="cls-4" d="m16.096,12.026l-.055.17.085.028"/>
            <path id="t-152" class="cls-4" d="m16.096,12.026l.055.17-.085.028"/>
          </g>
          <g id="c-77">
            <path id="t-153" class="cls-4" d="m16.265,12.149h-.178v.089"/>
            <path id="t-154" class="cls-4" d="m16.265,12.149l-.144.105-.052-.072"/>
          </g>
          <g id="c-78">
            <path id="t-155" class="cls-4" d="m15.926,12.149l.144.105.052-.072"/>
            <path id="t-156" class="cls-4" d="m15.926,12.149h.178v.089"/>
          </g>
          <g id="c-79">
            <path id="t-157" class="cls-4" d="m16.201,12.348l-.055-.17-.085.028"/>
            <path id="t-158" class="cls-4" d="m16.201,12.348l-.144-.105.052-.072"/>
          </g>
          <g id="c-80">
            <path id="t-159" class="cls-4" d="m15.991,12.348l.144-.105-.052-.072"/>
            <path id="t-160" class="cls-4" d="m15.991,12.348l.055-.17.085.028"/>
          </g>
        </g>
      </g>
    </g>
    <g id="_γHya" data-name=" γHya">
      <g id="star3-6">
        <g id="star-17">
          <g id="c-81">
            <path id="t-161" class="cls-4" d="m19.361,11.606l-.044.136.068.022"/>
            <path id="t-162" class="cls-4" d="m19.361,11.606l.044.136-.068.022"/>
          </g>
          <g id="c-82">
            <path id="t-163" class="cls-4" d="m19.497,11.705h-.143v.071"/>
            <path id="t-164" class="cls-4" d="m19.497,11.705l-.115.084-.042-.058"/>
          </g>
          <g id="c-83">
            <path id="t-165" class="cls-4" d="m19.225,11.705l.115.084.042-.058"/>
            <path id="t-166" class="cls-4" d="m19.225,11.705h.143v.071"/>
          </g>
          <g id="c-84">
            <path id="t-167" class="cls-4" d="m19.445,11.864l-.044-.136-.068.022"/>
            <path id="t-168" class="cls-4" d="m19.445,11.864l-.115-.084.042-.058"/>
          </g>
          <g id="c-85">
            <path id="t-169" class="cls-4" d="m19.277,11.864l.115-.084-.042-.058"/>
            <path id="t-170" class="cls-4" d="m19.277,11.864l.044-.136.068.022"/>
          </g>
        </g>
      </g>
    </g>
    <g id="_αCru" data-name=" αCru">
      <g id="star1-5">
        <g id="star-18">
          <g id="c-86">
            <path id="t-171" class="cls-4" d="m18,14.031l-.066.204.102.033"/>
            <path id="t-172" class="cls-4" d="m18,14.031l.066.204-.102.033"/>
          </g>
          <g id="c-87">
            <path id="t-173" class="cls-4" d="m18.204,14.179h-.214v.107"/>
            <path id="t-174" class="cls-4" d="m18.204,14.179l-.173.126-.063-.087"/>
          </g>
          <g id="c-88">
            <path id="t-175" class="cls-4" d="m17.797,14.179l.173.126.063-.087"/>
            <path id="t-176" class="cls-4" d="m17.797,14.179h.214v.107"/>
          </g>
          <g id="c-89">
            <path id="t-177" class="cls-4" d="m18.126,14.419l-.066-.204-.102.033"/>
            <path id="t-178" class="cls-4" d="m18.126,14.419l-.173-.126.063-.087"/>
          </g>
          <g id="c-90">
            <path id="t-179" class="cls-4" d="m17.875,14.419l.173-.126-.063-.087"/>
            <path id="t-180" class="cls-4" d="m17.875,14.419l.066-.204.102.033"/>
          </g>
        </g>
      </g>
    </g>
    <g id="_βCru" data-name=" βCru">
      <g id="star2-7">
        <g id="star-19">
          <g id="c-91">
            <path id="t-181" class="cls-4" d="m18.579,13.073l-.055.17.085.028"/>
            <path id="t-182" class="cls-4" d="m18.579,13.073l.055.17-.085.028"/>
          </g>
          <g id="c-92">
            <path id="t-183" class="cls-4" d="m18.749,13.196h-.178v.089"/>
            <path id="t-184" class="cls-4" d="m18.749,13.196l-.144.105-.052-.072"/>
          </g>
          <g id="c-93">
            <path id="t-185" class="cls-4" d="m18.408,13.196l.144.105.052-.072"/>
            <path id="t-186" class="cls-4" d="m18.408,13.196h.178v.089"/>
          </g>
          <g id="c-94">
            <path id="t-187" class="cls-4" d="m18.684,13.397l-.055-.17-.085.028"/>
            <path id="t-188" class="cls-4" d="m18.684,13.397l-.144-.105.052-.072"/>
          </g>
          <g id="c-95">
            <path id="t-189" class="cls-4" d="m18.474,13.397l.144-.105-.052-.072"/>
            <path id="t-190" class="cls-4" d="m18.474,13.397l.055-.17.085.028"/>
          </g>
        </g>
      </g>
    </g>
    <g id="_γCru" data-name=" γCru">
      <g id="star2-8">
        <g id="star-20">
          <g id="c-96">
            <path id="t-191" class="cls-4" d="m18,12.625l-.055.17.085.028"/>
            <path id="t-192" class="cls-4" d="m18,12.625l.055.17-.085.028"/>
          </g>
          <g id="c-97">
            <path id="t-193" class="cls-4" d="m18.17,12.748h-.178v.089"/>
            <path id="t-194" class="cls-4" d="m18.17,12.748l-.144.105-.052-.072"/>
          </g>
          <g id="c-98">
            <path id="t-195" class="cls-4" d="m17.831,12.748l.144.105.052-.072"/>
            <path id="t-196" class="cls-4" d="m17.831,12.748h.178v.089"/>
          </g>
          <g id="c-99">
            <path id="t-197" class="cls-4" d="m18.105,12.947l-.055-.17-.085.028"/>
            <path id="t-198" class="cls-4" d="m18.105,12.947l-.144-.105.052-.072"/>
          </g>
          <g id="c-100">
            <path id="t-199" class="cls-4" d="m17.895,12.947l.144-.105-.052-.072"/>
            <path id="t-200" class="cls-4" d="m17.895,12.947l.055-.17.085.028"/>
          </g>
        </g>
      </g>
    </g>
    <g id="_δCru" data-name=" δCru">
      <g id="star3-7">
        <g id="star-21">
          <g id="c-101">
            <path id="t-201" class="cls-4" d="m17.497,13.109l-.044.136.068.022"/>
            <path id="t-202" class="cls-4" d="m17.497,13.109l.044.136-.068.022"/>
          </g>
          <g id="c-102">
            <path id="t-203" class="cls-4" d="m17.633,13.207h-.143v.071"/>
            <path id="t-204" class="cls-4" d="m17.633,13.207l-.115.084-.042-.058"/>
          </g>
          <g id="c-103">
            <path id="t-205" class="cls-4" d="m17.361,13.207l.115.084.042-.058"/>
            <path id="t-206" class="cls-4" d="m17.361,13.207h.143v.071"/>
          </g>
          <g id="c-104">
            <path id="t-207" class="cls-4" d="m17.58,13.368l-.044-.136-.068.022"/>
            <path id="t-208" class="cls-4" d="m17.58,13.368l-.115-.084.042-.058"/>
          </g>
          <g id="c-105">
            <path id="t-209" class="cls-4" d="m17.413,13.368l.115-.084-.042-.058"/>
            <path id="t-210" class="cls-4" d="m17.413,13.368l.044-.136.068.022"/>
          </g>
        </g>
      </g>
    </g>
    <g id="_εCru" data-name=" εCru">
      <g id="star4-2">
        <g id="star-22">
          <g id="c-106">
            <path id="t-211" class="cls-4" d="m17.749,13.497l-.031.097.048.016"/>
            <path id="t-212" class="cls-4" d="m17.749,13.497l.031.097-.048.016"/>
          </g>
          <g id="c-107">
            <path id="t-213" class="cls-4" d="m17.846,13.568h-.102v.051"/>
            <path id="t-214" class="cls-4" d="m17.846,13.568l-.082.06-.03-.041"/>
          </g>
          <g id="c-108">
            <path id="t-215" class="cls-4" d="m17.652,13.568l.082.06.03-.041"/>
            <path id="t-216" class="cls-4" d="m17.652,13.568h.102v.051"/>
          </g>
          <g id="c-109">
            <path id="t-217" class="cls-4" d="m17.809,13.681l-.031-.097-.048.016"/>
            <path id="t-218" class="cls-4" d="m17.809,13.681l-.082-.06.03-.041"/>
          </g>
          <g id="c-110">
            <path id="t-219" class="cls-4" d="m17.689,13.681l.082-.06-.03-.041"/>
            <path id="t-220" class="cls-4" d="m17.689,13.681l.031-.097.048.016"/>
          </g>
        </g>
      </g>
    </g>
    <g id="_αTrA" data-name=" αTrA">
      <g id="star2-9">
        <g id="star-23">
          <g id="c-111">
            <path id="t-221" class="cls-4" d="m19.497,15.189l-.055.17.085.028"/>
            <path id="t-222" class="cls-4" d="m19.497,15.189l.055.17-.085.028"/>
          </g>
          <g id="c-112">
            <path id="t-223" class="cls-4" d="m19.667,15.313h-.178v.089"/>
            <path id="t-224" class="cls-4" d="m19.667,15.313l-.144.105-.052-.072"/>
          </g>
          <g id="c-113">
            <path id="t-225" class="cls-4" d="m19.328,15.313l.144.105.052-.072"/>
            <path id="t-226" class="cls-4" d="m19.328,15.313h.178v.089"/>
          </g>
          <g id="c-114">
            <path id="t-227" class="cls-4" d="m19.602,15.512l-.055-.17-.085.028"/>
            <path id="t-228" class="cls-4" d="m19.602,15.512l-.144-.105.052-.072"/>
          </g>
          <g id="c-115">
            <path id="t-229" class="cls-4" d="m19.392,15.512l.144-.105-.052-.072"/>
            <path id="t-230" class="cls-4" d="m19.392,15.512l.055-.17.085.028"/>
          </g>
        </g>
      </g>
    </g>
    <g id="_βTrA" data-name=" βTrA">
      <g id="star3-8">
        <g id="star-24">
          <g id="c-116">
            <path id="t-231" class="cls-4" d="m19.925,14.782l-.044.136.068.022"/>
            <path id="t-232" class="cls-4" d="m19.925,14.782l.044.136-.068.022"/>
          </g>
          <g id="c-117">
            <path id="t-233" class="cls-4" d="m20.061,14.881h-.143v.071"/>
            <path id="t-234" class="cls-4" d="m20.061,14.881l-.115.084-.042-.058"/>
          </g>
          <g id="c-118">
            <path id="t-235" class="cls-4" d="m19.79,14.881l.115.084.042-.058"/>
            <path id="t-236" class="cls-4" d="m19.79,14.881h.143v.071"/>
          </g>
          <g id="c-119">
            <path id="t-237" class="cls-4" d="m20.009,15.041l-.044-.136-.068.022"/>
            <path id="t-238" class="cls-4" d="m20.009,15.041l-.115-.084.042-.058"/>
          </g>
          <g id="c-120">
            <path id="t-239" class="cls-4" d="m19.841,15.041l.115-.084-.042-.058"/>
            <path id="t-240" class="cls-4" d="m19.841,15.041l.044-.136.068.022"/>
          </g>
        </g>
      </g>
    </g>
    <g id="_γTrA" data-name=" γTrA">
      <g id="star3-9">
        <g id="star-25">
          <g id="c-121">
            <path id="t-241" class="cls-4" d="m19.102,14.66l-.044.136.068.022"/>
            <path id="t-242" class="cls-4" d="m19.102,14.66l.044.136-.068.022"/>
          </g>
          <g id="c-122">
            <path id="t-243" class="cls-4" d="m19.238,14.759h-.143v.071"/>
            <path id="t-244" class="cls-4" d="m19.238,14.759l-.115.084-.042-.058"/>
          </g>
          <g id="c-123">
            <path id="t-245" class="cls-4" d="m18.966,14.759l.115.084.042-.058"/>
            <path id="t-246" class="cls-4" d="m18.966,14.759h.143v.071"/>
          </g>
          <g id="c-124">
            <path id="t-247" class="cls-4" d="m19.186,14.919l-.044-.136-.068.022"/>
            <path id="t-248" class="cls-4" d="m19.186,14.919l-.115-.084.042-.058"/>
          </g>
          <g id="c-125">
            <path id="t-249" class="cls-4" d="m19.018,14.919l.115-.084-.042-.058"/>
            <path id="t-250" class="cls-4" d="m19.018,14.919l.044-.136.068.022"/>
          </g>
        </g>
      </g>
    </g>
    <g id="_αCar" data-name=" αCar">
      <g id="star1-6">
        <g id="star-26">
          <g id="c-126">
            <path id="t-251" class="cls-4" d="m15.994,14.439l-.066.204.102.033"/>
            <path id="t-252" class="cls-4" d="m15.994,14.439l.066.204-.102.033"/>
          </g>
          <g id="c-127">
            <path id="t-253" class="cls-4" d="m16.197,14.587h-.214v.107"/>
            <path id="t-254" class="cls-4" d="m16.197,14.587l-.173.126-.063-.087"/>
          </g>
          <g id="c-128">
            <path id="t-255" class="cls-4" d="m15.789,14.587l.173.126.063-.087"/>
            <path id="t-256" class="cls-4" d="m15.789,14.587h.214v.107"/>
          </g>
          <g id="c-129">
            <path id="t-257" class="cls-4" d="m16.12,14.826l-.066-.204-.102.033"/>
            <path id="t-258" class="cls-4" d="m16.12,14.826l-.173-.126.063-.087"/>
          </g>
          <g id="c-130">
            <path id="t-259" class="cls-4" d="m15.867,14.826l.173-.126-.063-.087"/>
            <path id="t-260" class="cls-4" d="m15.867,14.826l.066-.204.102.033"/>
          </g>
        </g>
      </g>
    </g>
    <g id="_σOct" data-name=" σOct">
      <g id="star5">
        <g id="star-27">
          <g id="c-131">
            <path id="t-261" class="cls-4" d="m18,15.841l-.022.068.034.011"/>
            <path id="t-262" class="cls-4" d="m18,15.841l.022.068-.034.011"/>
          </g>
          <g id="c-132">
            <path id="t-263" class="cls-4" d="m18.068,15.89h-.071v.036"/>
            <path id="t-264" class="cls-4" d="m18.068,15.89l-.058.042-.021-.029"/>
          </g>
          <g id="c-133">
            <path id="t-265" class="cls-4" d="m17.932,15.89l.058.042.021-.029"/>
            <path id="t-266" class="cls-4" d="m17.932,15.89h.071v.036"/>
          </g>
          <g id="c-134">
            <path id="t-267" class="cls-4" d="m18.042,15.97l-.022-.068-.034.011"/>
            <path id="t-268" class="cls-4" d="m18.042,15.97l-.058-.042.021-.029"/>
          </g>
          <g id="c-135">
            <path id="t-269" class="cls-4" d="m17.958,15.97l.058-.042-.021-.029"/>
            <path id="t-270" class="cls-4" d="m17.958,15.97l.022-.068.034.011"/>
          </g>
        </g>
      </g>
    </g>
  </g>
</svg>