<?xml version="1.0" encoding="UTF-8"?>
<svg id="_레이어_1" data-name="레이어 1" xmlns="http://www.w3.org/2000/svg" viewBox="0 0 36 24">
  <defs>
    <style>
      .cls-1 {
        fill-rule: evenodd;
      }

      .cls-1, .cls-2, .cls-3 {
        stroke-width: 0px;
      }

      .cls-1, .cls-3 {
        fill: #d52b1e;
      }

      .cls-2 {
        fill: #fff;
      }
    </style>
  </defs>
  <g id="Flag-_-CA" data-name="Flag-/-CA">
    <path id="Mask" class="cls-1" d="m4,0h28c2.209,0,4,1.791,4,4v16c0,2.209-1.791,4-4,4H4c-2.209,0-4-1.791-4-4V4C0,1.791,1.791,0,4,0Z"/>
    <rect id="Rectangle-Copy-2" class="cls-2" x="11" width="14" height="24"/>
  </g>
  <path class="cls-3" d="m20.508,13.716l2.568-2.08-.579-.27c-.081-.038-.121-.131-.093-.216l.508-1.561-1.479.314c-.083.017-.166-.026-.199-.104l-.287-.674-1.155,1.239c-.067.071-.18.074-.251.007-.044-.042-.064-.103-.052-.162l.557-2.871-.893.516c-.085.05-.193.021-.243-.063-.002-.003-.004-.007-.006-.01l-.906-1.78-.906,1.78c-.044.088-.15.123-.238.079-.004-.002-.007-.004-.01-.006l-.893-.516.557,2.871c.019.096-.044.189-.141.208-.059.011-.121-.008-.162-.052l-1.155-1.239-.287.674c-.033.078-.117.121-.199.104l-1.479-.314.508,1.561c.028.085-.012.177-.093.216l-.579.27,2.568,2.08c.059.048.081.128.055.199l-.317.873,2.345-.412c.141-.024.275.07.3.212.003.018.004.037.003.056l-.123,2.356h.491l-.123-2.356c-.007-.143.104-.264.247-.271.019,0,.037,0,.056.003l2.345.412-.317-.873c-.026-.071-.004-.151.055-.199Z"/>
</svg>