<?xml version="1.0" encoding="UTF-8"?>
<svg id="_레이어_1" data-name="레이어 1" xmlns="http://www.w3.org/2000/svg" viewBox="0 0 36 24">
  <defs>
    <style>
      .cls-1 {
        fill: #cf0921;
      }

      .cls-1, .cls-2, .cls-3 {
        fill-rule: evenodd;
        stroke-width: 0px;
      }

      .cls-2 {
        fill: #fff;
      }

      .cls-3 {
        fill: #002153;
      }
    </style>
  </defs>
  <g id="Flag-_-FR" data-name="Flag-/-FR">
    <path id="Mask" class="cls-2" d="m4,0h28c2.209,0,4,1.791,4,4v16c0,2.209-1.791,4-4,4H4c-2.209,0-4-1.791-4-4V4C0,1.791,1.791,0,4,0Z"/>
    <path id="Rectangle-9" class="cls-3" d="m4,0h8v24H4c-2.209,0-4-1.791-4-4V4C0,1.791,1.791,0,4,0Z"/>
    <path id="Rectangle-9-Copy" class="cls-1" d="m24,0h8c2.209,0,4,1.791,4,4v16c0,2.209-1.791,4-4,4h-8V0Z"/>
  </g>
</svg>