<?xml version="1.0" encoding="UTF-8"?>
<svg id="_레이어_1" data-name="레이어 1" xmlns="http://www.w3.org/2000/svg" viewBox="0 0 36 24">
  <defs>
    <style>
      .cls-1, .cls-2 {
        fill: #fff;
      }

      .cls-1, .cls-2, .cls-3 {
        stroke-width: 0px;
      }

      .cls-2, .cls-3 {
        fill-rule: evenodd;
      }

      .cls-3 {
        fill: #055eb1;
      }
    </style>
  </defs>
  <g id="Flag-_-GR" data-name="Flag-/-GR">
    <path id="Mask" class="cls-3" d="m4,0h28c2.209,0,4,1.791,4,4v16c0,2.209-1.791,4-4,4H4c-2.209,0-4-1.791-4-4V4C0,1.791,1.791,0,4,0Z"/>
    <path id="Path" class="cls-2" d="m35.862,3c.09.32.138.655.138,1v1H13v-2h22.862Z"/>
    <polygon id="Path-2" data-name="Path" class="cls-1" points="5.417 5.417 5.417 0 7.583 0 7.583 5.417 13 5.417 13 7.583 7.583 7.583 7.583 13 5.417 13 5.417 7.583 0 7.583 0 5.417 5.417 5.417"/>
    <polygon id="Path-3" data-name="Path" class="cls-1" points="13 8 36 8 36 10 13 10 13 8"/>
    <polygon id="Path-4" data-name="Path" class="cls-1" points="0 13 36 13 36 15 0 15 0 13"/>
    <polygon id="Path-5" data-name="Path" class="cls-1" points="0 18 36 18 36 20 0 20 0 18"/>
  </g>
</svg>