<?xml version="1.0" encoding="UTF-8"?>
<svg id="_레이어_1" data-name="레이어 1" xmlns="http://www.w3.org/2000/svg" xmlns:xlink="http://www.w3.org/1999/xlink" viewBox="0 0 36 24">
  <defs>
    <style>
      .cls-1 {
        fill: #f15b25;
      }

      .cls-1, .cls-2, .cls-3, .cls-4, .cls-5 {
        stroke-width: 0px;
      }

      .cls-2, .cls-3 {
        fill: #fff;
      }

      .cls-3 {
        fill-rule: evenodd;
      }

      .cls-4 {
        fill: #006934;
      }

      .cls-6 {
        mask: url(#mask);
      }

      .cls-5 {
        fill: #2c2c6f;
      }
    </style>
    <mask id="mask" x="0" y="0" width="36" height="24" maskUnits="userSpaceOnUse">
      <g id="mask0_76_14085" data-name="mask0 76 14085">
        <path class="cls-3" d="m3.375,0h29.25c1.864,0,3.375,1.465,3.375,3.273v17.455c0,1.807-1.511,3.273-3.375,3.273H3.375c-1.864,0-3.375-1.465-3.375-3.273V3.273C0,1.465,1.511,0,3.375,0Z"/>
      </g>
    </mask>
  </defs>
  <path class="cls-3" d="m3.375,0h29.25c1.864,0,3.375,1.465,3.375,3.273v17.455c0,1.807-1.511,3.273-3.375,3.273H3.375c-1.864,0-3.375-1.465-3.375-3.273V3.273C0,1.465,1.511,0,3.375,0Z"/>
  <g class="cls-6">
    <g>
      <path class="cls-4" d="m0,16.364h36v6.682c0,.527-.504.955-1.125.955H1.125c-.621,0-1.125-.427-1.125-.955v-6.682Z"/>
      <path class="cls-1" d="m1.125,0h33.75c.621,0,1.125.427,1.125.955v6.682H0V.955C0,.427.504,0,1.125,0Z"/>
    </g>
  </g>
  <g>
    <circle class="cls-5" cx="18" cy="12" r="4"/>
    <circle class="cls-2" cx="18" cy="12" r="3.459"/>
    <circle class="cls-5" cx="18" cy="12" r=".692"/>
    <g id="d">
      <g id="c">
        <g id="b">
          <g id="a">
            <path class="cls-5" d="m18,8.541l.13,2.082-.13,1.031-.13-1.031.13-2.082Z"/>
            <circle class="cls-5" cx="18.452" cy="8.57" r=".151"/>
          </g>
          <g id="a-2" data-name="a">
            <path class="cls-5" d="m18,15.459l-.13-2.082.13-1.031.13,1.031-.13,2.082Z"/>
            <circle class="cls-5" cx="17.548" cy="15.43" r=".151"/>
          </g>
        </g>
        <g id="b-2" data-name="b">
          <g id="a-3" data-name="a">
            <path class="cls-5" d="m18.895,8.658l-.413,2.044-.392.962.141-1.029.664-1.977Z"/>
            <circle class="cls-5" cx="19.324" cy="8.804" r=".151"/>
          </g>
          <g id="a-4" data-name="a">
            <path class="cls-5" d="m17.105,15.342l.413-2.044.392-.962-.141,1.029-.664,1.977Z"/>
            <circle class="cls-5" cx="16.676" cy="15.196" r=".151"/>
          </g>
        </g>
      </g>
      <g id="c-2" data-name="c">
        <g id="b-3" data-name="b">
          <g id="a-5" data-name="a">
            <path class="cls-5" d="m19.73,9.004l-.929,1.868-.628.828.403-.958,1.153-1.738Z"/>
            <circle class="cls-5" cx="20.106" cy="9.255" r=".151"/>
          </g>
          <g id="a-6" data-name="a">
            <path class="cls-5" d="m16.27,14.996l.929-1.868.628-.828-.403.958-1.153,1.738Z"/>
            <circle class="cls-5" cx="15.894" cy="14.745" r=".151"/>
          </g>
        </g>
        <g id="b-4" data-name="b">
          <g id="a-7" data-name="a">
            <path class="cls-5" d="m20.446,9.554l-1.38,1.564-.821.637.637-.821,1.564-1.38Z"/>
            <circle class="cls-5" cx="20.745" cy="9.894" r=".151"/>
          </g>
          <g id="a-8" data-name="a">
            <path class="cls-5" d="m15.554,14.446l1.38-1.564.821-.637-.637.821-1.564,1.38Z"/>
            <circle class="cls-5" cx="15.255" cy="14.106" r=".151"/>
          </g>
        </g>
      </g>
    </g>
    <g id="d-2" data-name="d">
      <g id="c-3" data-name="c">
        <g id="b-5" data-name="b">
          <g id="a-9" data-name="a">
            <path class="cls-5" d="m20.996,10.27l-1.738,1.153-.958.403.828-.628,1.868-.929Z"/>
            <circle class="cls-5" cx="21.196" cy="10.676" r=".151"/>
          </g>
          <g id="a-10" data-name="a">
            <path class="cls-5" d="m15.004,13.73l1.738-1.153.958-.403-.828.628-1.868.929Z"/>
            <circle class="cls-5" cx="14.804" cy="13.324" r=".151"/>
          </g>
        </g>
        <g id="b-6" data-name="b">
          <g id="a-11" data-name="a">
            <path class="cls-5" d="m21.342,11.105l-1.977.664-1.029.141.962-.392,2.044-.413Z"/>
            <circle class="cls-5" cx="21.43" cy="11.548" r=".151"/>
          </g>
          <g id="a-12" data-name="a">
            <path class="cls-5" d="m14.658,12.895l1.977-.664,1.029-.141-.962.392-2.044.413Z"/>
            <circle class="cls-5" cx="14.57" cy="12.452" r=".151"/>
          </g>
        </g>
      </g>
      <g id="c-4" data-name="c">
        <g id="b-7" data-name="b">
          <g id="a-13" data-name="a">
            <path class="cls-5" d="m21.459,12l-2.082.13-1.031-.13,1.031-.13,2.082.13Z"/>
            <circle class="cls-5" cx="21.43" cy="12.452" r=".151"/>
          </g>
          <g id="a-14" data-name="a">
            <path class="cls-5" d="m14.541,12l2.082-.13,1.031.13-1.031.13-2.082-.13Z"/>
            <circle class="cls-5" cx="14.57" cy="11.548" r=".151"/>
          </g>
        </g>
        <g id="b-8" data-name="b">
          <g id="a-15" data-name="a">
            <path class="cls-5" d="m21.342,12.895l-2.044-.413-.962-.392,1.029.141,1.977.664Z"/>
            <circle class="cls-5" cx="21.196" cy="13.324" r=".151"/>
          </g>
          <g id="a-16" data-name="a">
            <path class="cls-5" d="m14.658,11.105l2.044.413.962.392-1.029-.141-1.977-.664Z"/>
            <circle class="cls-5" cx="14.804" cy="10.676" r=".151"/>
          </g>
        </g>
      </g>
    </g>
    <g id="d-3" data-name="d">
      <g id="c-5" data-name="c">
        <g id="b-9" data-name="b">
          <g id="a-17" data-name="a">
            <path class="cls-5" d="m20.996,13.73l-1.868-.929-.828-.628.958.403,1.738,1.153Z"/>
            <circle class="cls-5" cx="20.745" cy="14.106" r=".151"/>
          </g>
          <g id="a-18" data-name="a">
            <path class="cls-5" d="m15.004,10.27l1.868.929.828.628-.958-.403-1.738-1.153Z"/>
            <circle class="cls-5" cx="15.255" cy="9.894" r=".151"/>
          </g>
        </g>
        <g id="b-10" data-name="b">
          <g id="a-19" data-name="a">
            <path class="cls-5" d="m20.446,14.446l-1.564-1.38-.637-.821.821.637,1.38,1.564Z"/>
            <circle class="cls-5" cx="20.106" cy="14.745" r=".151"/>
          </g>
          <g id="a-20" data-name="a">
            <path class="cls-5" d="m15.554,9.554l1.564,1.38.637.821-.821-.637-1.38-1.564Z"/>
            <circle class="cls-5" cx="15.894" cy="9.255" r=".151"/>
          </g>
        </g>
      </g>
      <g id="c-6" data-name="c">
        <g id="b-11" data-name="b">
          <g id="a-21" data-name="a">
            <path class="cls-5" d="m19.73,14.996l-1.153-1.738-.403-.958.628.828.929,1.868Z"/>
            <circle class="cls-5" cx="19.324" cy="15.196" r=".151"/>
          </g>
          <g id="a-22" data-name="a">
            <path class="cls-5" d="m16.27,9.004l1.153,1.738.403.958-.628-.828-.929-1.868Z"/>
            <circle class="cls-5" cx="16.676" cy="8.804" r=".151"/>
          </g>
        </g>
        <g id="b-12" data-name="b">
          <g id="a-23" data-name="a">
            <path class="cls-5" d="m18.895,15.342l-.664-1.977-.141-1.029.392.962.413,2.044Z"/>
            <circle class="cls-5" cx="18.452" cy="15.43" r=".151"/>
          </g>
          <g id="a-24" data-name="a">
            <path class="cls-5" d="m17.105,8.658l.664,1.977.141,1.029-.392-.962-.413-2.044Z"/>
            <circle class="cls-5" cx="17.548" cy="8.57" r=".151"/>
          </g>
        </g>
      </g>
    </g>
  </g>
</svg>