<?xml version="1.0" encoding="UTF-8"?>
<svg id="_레이어_1" data-name="레이어 1" xmlns="http://www.w3.org/2000/svg" viewBox="0 0 36 24">
  <defs>
    <style>
      .cls-1 {
        stroke-miterlimit: 50;
      }

      .cls-1, .cls-2 {
        stroke: #fff;
        stroke-width: .5px;
      }

      .cls-3, .cls-4, .cls-5, .cls-6 {
        stroke-width: 0px;
      }

      .cls-4 {
        fill: #0047a0;
      }

      .cls-5 {
        fill: #fff;
        fill-rule: evenodd;
      }

      .cls-6 {
        fill: #cd2e3a;
      }

      .cls-2 {
        stroke-miterlimit: 50;
      }
    </style>
  </defs>
  <g id="Flag-_-KR" data-name="Flag-/-KR">
    <path id="Mask" class="cls-5" d="m4,0h28c2.209,0,4,1.791,4,4v16c0,2.209-1.791,4-4,4H4c-2.209,0-4-1.791-4-4V4C0,1.791,1.791,0,4,0Z"/>
  </g>
  <g>
    <g id="b2">
      <path id="b" class="cls-3" d="m6.429,7.629l3.086-4.629.771.514-3.086,4.629-.771-.514Zm1.157.771l3.086-4.629.771.514-3.086,4.629-.771-.514Zm1.157.771l3.086-4.629.771.514-3.086,4.629-.771-.514Z"/>
      <path id="b-2" data-name="b" class="cls-3" d="m23.4,18.943l3.086-4.629.771.514-3.086,4.629-.771-.514Zm1.157.771l3.086-4.629.771.514-3.086,4.629-.771-.514Zm1.157.771l3.086-4.629.771.514-3.086,4.629-.771-.514Z"/>
    </g>
    <path class="cls-1" d="m24.557,16.371l3.857,2.571"/>
    <path class="cls-6" d="m13.371,8.914c1.704-2.556,5.158-3.247,7.714-1.543s3.247,5.158,1.543,7.714l-9.257-6.171Z"/>
    <path class="cls-4" d="m13.371,8.914c-1.704,2.556-1.013,6.01,1.543,7.714s6.01,1.013,7.714-1.543c.852-1.278.507-3.005-.771-3.857s-3.005-.507-3.857.771l-4.629-3.086Z"/>
    <circle class="cls-6" cx="15.686" cy="10.457" r="2.781"/>
  </g>
  <g>
    <g id="b2-2" data-name="b2">
      <path id="b-3" data-name="b" class="cls-3" d="m9.514,21l-3.086-4.629.771-.514,3.086,4.629-.771.514Zm1.157-.771l-3.086-4.629.771-.514,3.086,4.629-.771.514Zm1.157-.771l-3.086-4.629.771-.514,3.086,4.629-.771.514Z"/>
      <path id="b-4" data-name="b" class="cls-3" d="m26.486,9.686l-3.086-4.629.771-.514,3.086,4.629-.771.514Zm1.157-.771l-3.086-4.629.771-.514,3.086,4.629-.771.514Zm1.157-.771l-3.086-4.629.771-.514,3.086,4.629-.771.514Z"/>
    </g>
    <path class="cls-2" d="m8.936,18.043l1.157-.771m14.464-9.643l1.35-.9m1.157-.771l1.157-.771"/>
  </g>
</svg>