<?xml version="1.0" encoding="UTF-8"?>
<svg id="_레이어_1" data-name="레이어 1" xmlns="http://www.w3.org/2000/svg" viewBox="0 0 36 24">
  <defs>
    <style>
      .cls-1 {
        fill: #001a5b;
      }

      .cls-1, .cls-2, .cls-3 {
        stroke-width: 0px;
      }

      .cls-2 {
        fill: #fff;
      }

      .cls-3 {
        fill: #bb042b;
        fill-rule: evenodd;
      }
    </style>
  </defs>
  <g id="Flag-_-NO" data-name="Flag-/-NO">
    <path id="Mask" class="cls-3" d="m4,0h28c2.209,0,4,1.791,4,4v16c0,2.209-1.791,4-4,4H4c-2.209,0-4-1.791-4-4V4C0,1.791,1.791,0,4,0Z"/>
    <polygon id="Path" class="cls-2" points="16 9 36 9 36 15 16 15 16 24 10 24 10 15 0 15 0 9 10 9 10 0 16 0 16 9"/>
    <polygon id="Path-2" data-name="Path" class="cls-1" points="14.5 10.5 36 10.5 36 13.5 14.5 13.5 14.5 24 11.5 24 11.5 13.5 0 13.5 0 10.5 11.5 10.5 11.5 0 14.5 0 14.5 10.5"/>
  </g>
</svg>