<?xml version="1.0" encoding="UTF-8"?>
<svg width="36px" height="24px" viewBox="0 0 36 24" version="1.1" xmlns="http://www.w3.org/2000/svg" xmlns:xlink="http://www.w3.org/1999/xlink">
    <!-- Generator: Sketch 55.2 (78181) - https://sketchapp.com -->
    <title>Flag / TR</title>
    <desc>Created with Sketch.</desc>
    <g id="Flag-/-TR" stroke="none" stroke-width="1" fill="none" fill-rule="evenodd">
        <path d="M4,0 L32,0 C34.209139,0 36,1.790861 36,4 L36,20 C36,22.209139 34.209139,24 32,24 L4,24 C1.790861,24 0,22.209139 0,20 L0,4 C0,1.790861 1.790861,0 4,0 Z" id="Mask" fill="#E30A17"></path>
        <path d="M19.168,7.625 C17.3844511,5.33204538 14.3412825,4.42529251 11.5935936,5.36810415 C8.84590484,6.31091579 7.00056346,8.89505808 7.00056346,11.8 C7.00056346,14.7049419 8.84590484,17.2890842 11.5935936,18.2318959 C14.3412825,19.1747075 17.3844511,18.2679546 19.168,15.975 C18.1549838,16.7049811 16.9366145,17.0949993 15.688,17.089 C12.559,17.089 10.022,14.721 10.022,11.8 C10.022,8.879 12.559,6.511 15.689,6.511 C17,6.511 18.207,6.927 19.168,7.625 Z" id="Shape" fill="#FFFFFF" fill-rule="nonzero"></path>
        <circle id="Oval" fill="#FFFFFF" fill-rule="nonzero" cx="19.5" cy="11.5" r="1.5"></circle>
        <path d="M4,1 C2.34314575,1 1,2.34314575 1,4 L1,20 C1,21.6568542 2.34314575,23 4,23 L32,23 C33.6568542,23 35,21.6568542 35,20 L35,4 C35,2.34314575 33.6568542,1 32,1 L4,1 Z M4,0 L32,0 C34.209139,0 36,1.790861 36,4 L36,20 C36,22.209139 34.209139,24 32,24 L4,24 C1.790861,24 0,22.209139 0,20 L0,4 C0,1.790861 1.790861,0 4,0 Z" id="Mask" fill="#031619" fill-rule="nonzero" opacity="0.2"></path>
    </g>
</svg>