<svg xmlns="http://www.w3.org/2000/svg" width="200" height="246"><path d="M273.687-365.245a1.913 1.913 0 0 1-1.914 1.913h-23.81a1.912 1.912 0 0 1-1.913-1.913v-30.189c0-1.057.855-1.913 1.913-1.913h23.81c1.058 0 1.914.856 1.914 1.913v30.189z" style="fill:#fff;fill-opacity:1;fill-rule:nonzero;stroke:none" transform="matrix(7.23668 0 0 7.2321 -1780.584 2873.655)"/><path d="M271.755-393.459a2.126 2.126 0 0 0-2.125-2.127h-19.134a2.126 2.126 0 0 0-2.126 2.127v21.292h23.385v-21.292z" style="fill:#000;fill-opacity:1;fill-rule:nonzero;stroke:none" transform="matrix(7.23668 0 0 7.2321 -1780.584 2873.655)"/><path d="M248.37-372.167v4.218c0 1.175.951 2.127 2.126 2.127h19.134a2.126 2.126 0 0 0 2.125-2.127v-4.218H248.37z" style="fill:#fff;fill-opacity:1;fill-rule:nonzero;stroke:none" transform="matrix(7.23668 0 0 7.2321 -1780.584 2873.655)"/><path d="M271.755-367.949a2.126 2.126 0 0 1-2.125 2.127h-19.134a2.126 2.126 0 0 1-2.126-2.127v-25.51c0-1.174.951-2.127 2.126-2.127h19.134c1.174 0 2.125.953 2.125 2.127v25.51z" style="fill:none;stroke:#000;stroke-width:.75010997;stroke-linecap:butt;stroke-linejoin:miter;stroke-miterlimit:4;stroke-opacity:1;stroke-dasharray:none" transform="matrix(7.23668 0 0 7.2321 -1780.584 2873.655)"/><path d="M257.056-392.929a3.886 3.886 0 0 0-2.167-.673c-1.781 0-2.288 1.426-2.288 2.996 0 1.796.871 3.248 2.806 3.248 1.013 0 1.934-.377 2.804-.844l-.648 1.897c-.844.232-1.714.311-2.584.311-1.325 0-2.442-.223-3.481-1.116-1.001-.846-1.534-2.067-1.534-3.391 0-1.195.508-2.454 1.418-3.262.986-.841 2.349-1.154 3.621-1.154l1.964.169.089 1.819zM261.452-385.406c.43.174.908.197 1.364.197.727 0 1.404-.118 1.896-.715h.065l-.52 1.959h-5.752v-.039c.635-.4.545-1.129.545-1.801v-4.862c0-.673.09-1.413-.545-1.8v-.041h4.546c.193 0 .402 0 .545-.067h.038v1.885h-.038c-.352-.612-1.092-.545-1.728-.545h-.416v2.103h1.207c.184 0 .365-.011.482-.064h.065v1.817h-.065c-.183-.52-.781-.467-1.259-.467h-.43v2.44z" style="fill:#fff;fill-opacity:1;fill-rule:nonzero;stroke:none" transform="matrix(7.23668 0 0 7.2321 -1780.584 2873.655)"/><path d="m255.938-379.573 1.505 2.829c.452.804.87.923 1.742.874l1.792-.118c-.521-.428-.899-.975-1.247-1.559l-1.547-2.584c.858-.368 1.547-1.078 1.547-2.053 0-.871-.392-1.557-1.158-1.976-.583-.31-1.102-.297-1.739-.297h-3.846v.04c.638.403.548 1.14.548 1.815v4.833c0 .677.09 1.417-.548 1.816v.04h3.496v-.04c-.638-.399-.545-1.139-.545-1.816v-1.804zm.127-3.623c.258 0 .535.025.754.18.35.248.521.687.521 1.107 0 .818-.602 1.503-1.402 1.645v-2.932h.127" style="fill:#fff;fill-opacity:1;fill-rule:nonzero;stroke:none" transform="matrix(7.23668 0 0 7.2321 -1780.584 2873.655)"/><path d="M260.52-377.764c0 2.742 2.065 4.471 4.727 4.471 2.637 0 4.883-1.652 4.883-4.482 0-2.856-1.998-4.442-4.727-4.442-2.636 0-4.883 1.689-4.883 4.453zm2.522-.35c0-1.337.672-2.804 2.205-2.804 1.779 0 2.363 2.115 2.363 3.599 0 .634-.089 1.296-.48 1.817-.416.557-1.039.909-1.727.909-.739 0-1.39-.495-1.754-1.12-.364-.649-.607-1.649-.607-2.401" style="fill:#fff;fill-opacity:1;fill-rule:nonzero;stroke:none" transform="matrix(7.23668 0 0 7.2321 -1780.584 2873.655)"/><path d="M253.796-369.206h-1.332v.452h1.332v-.452zm-1.332-.389h1.332v-.431h-1.332v.431m0-.821h1.332v-.43h-1.332v.43m.779 2.051h-.369v.205c0 .849-.486 1.348-1.457 1.497l-.123-.43c.779-.095 1.17-.464 1.17-1.108v-.164h-.41v-2.871h2.152v2.871h-.553v1.026c0 .11.047.164.143.164h.205c.068 0 .109-.068.123-.205l.041-.349.41.123-.06.472c-.028.233-.159.348-.391.348h-.512c-.246 0-.369-.115-.369-.348v-1.231m-1.293.451-.287.431c-.287-.313-.539-.547-.758-.697-.137.601-.425 1.074-.861 1.415l-.309-.369c.602-.505.889-1.161.862-1.969h-.78v-.39h.801v-.738h-.656v-.39h.656v-.82h.389c.109.015.117.056.021.123v.697h.717v.39h-.717v.738h.821v.39h-.842c0 .22-.006.39-.02.513.273.123.594.348.963.676M257.628-370.846h1.887v1.087h-.41v-.698H255.7v.739h-.41v-1.128h1.867v-.595h.451c.137.028.143.082.02.164v.431zm-2.502 3.753c.671-.41.999-1.067.984-1.969l.473.082c.041.041.026.082-.041.123l-.104.738c.206.246.473.458.801.636v-1.989h-1.394v-.39h3.095v.39h-1.291v.759h1.436v.389h-1.436v.985c.206.055.411.082.616.082h1.353l-.082.389h-1.271c-.794 0-1.443-.287-1.95-.861-.205.451-.492.794-.861 1.025l-.328-.389M262.899-368.59v.471h.717v-.471h-.717zm.881-2.072h-1.086l.246.554h.512l.328-.554m.555 2.666v-1.784h-.902v.308h.675v.328h-.675v.308h.533v.963h-1.067v.206h-.349v-1.169h.533v-.308h-.697v-.328h.697v-.308h-.922v2.256h-.41v-2.584h.758l-.287-.554h-.616v-.389h1.375v-.431h.452c.136.028.142.082.019.164v.267h1.457v.389h-.637l-.41.554h.883v2.256c0 .22-.11.328-.328.328h-.369l-.022-.39h.227c.055 0 .082-.026.082-.082m-2.893-2.666-.41.39a3.247 3.247 0 0 0-.594-.779l.37-.328c.218.191.429.43.634.717m3.528 3.384-.061.39h-2.625c-.466 0-.835-.185-1.107-.554a2.088 2.088 0 0 1-.615.636l-.268-.451a3.74 3.74 0 0 0 .656-.41v-1.272h-.635v-.451h1.108v1.702c.205.273.485.41.84.41h2.707M266.774-367.462h2.237v-.964h-2.237v.964zm0 .676h-.41v-2.03h3.057v1.969h-.41v-.226h-2.237v.287m3.405-2.973-.205.471c-.93-.341-1.661-.881-2.194-1.62a3.065 3.065 0 0 1-1.025 1.21h2.275v.39h-2.297v-.369a3.78 3.78 0 0 1-.861.533l-.287-.39c.998-.465 1.654-1.087 1.969-1.866l.533.103c.096.014.089.055-.02.123.534.671 1.237 1.142 2.112 1.415" style="fill:#000;fill-opacity:1;fill-rule:nonzero;stroke:none" transform="matrix(7.23668 0 0 7.2321 -1780.584 2873.655)"/></svg>