<svg xmlns="http://www.w3.org/2000/svg" width="200" height="246"><path d="M324.995-365.691c0 1.351-1.132 2.445-2.529 2.445h-22.771c-1.397 0-2.529-1.094-2.529-2.445v-29.338c0-1.35 1.132-2.445 2.529-2.445h22.771c1.397 0 2.529 1.095 2.529 2.445v29.338z" style="fill:#fff;fill-opacity:1;fill-rule:nonzero;stroke:none" transform="matrix(7.18675 0 0 7.1871 -2135.657 2856.685)"/><path d="M323.041-393.138a2.126 2.126 0 0 0-2.126-2.127h-19.134a2.125 2.125 0 0 0-2.125 2.127v5.561h23.385v-5.561z" style="fill:#fff;fill-opacity:1;fill-rule:nonzero;stroke:none" transform="matrix(7.18675 0 0 7.1871 -2135.657 2856.685)"/><path d="M323.041-393.138a2.126 2.126 0 0 0-2.126-2.127h-19.134a2.125 2.125 0 0 0-2.125 2.127v5.561h23.385v-5.561z" style="fill:none;stroke:#000;stroke-width:.75010997;stroke-linecap:butt;stroke-linejoin:miter;stroke-miterlimit:4;stroke-opacity:1;stroke-dasharray:none" transform="matrix(7.18675 0 0 7.1871 -2135.657 2856.685)"/><path d="M305.487-393.168a2.591 2.591 0 0 0-1.446-.45c-1.186 0-1.524.951-1.524 1.998 0 1.197.58 2.165 1.87 2.165.676 0 1.289-.251 1.869-.563l-.432 1.265a6.456 6.456 0 0 1-1.722.208c-.882 0-1.627-.15-2.321-.745-.666-.564-1.022-1.378-1.022-2.26 0-.797.339-1.636.944-2.175.658-.561 1.569-.769 2.416-.769l1.309.113.059 1.213zM308.388-389.621c.286.116.604.131.909.131.484 0 .935-.078 1.264-.476h.043l-.347 1.306h-3.833v-.026c.422-.267.363-.753.363-1.201v-3.24c0-.45.059-.942-.363-1.202v-.026h3.029c.129 0 .27 0 .363-.044h.026v1.255h-.026c-.234-.407-.726-.363-1.152-.363h-.276v1.402h.803a.865.865 0 0 0 .322-.042h.044v1.211h-.044c-.122-.347-.521-.312-.839-.312h-.286v1.627zM312.718-391.099l1.003 1.886c.301.536.58.615 1.16.583l1.195-.079c-.346-.286-.598-.651-.832-1.041l-1.031-1.722c.573-.245 1.031-.718 1.031-1.368 0-.582-.26-1.039-.769-1.317-.391-.208-.737-.198-1.161-.198h-2.564v.026c.426.268.365.761.365 1.21v3.222c0 .451.061.944-.365 1.211v.026h2.331v-.026c-.427-.267-.363-.76-.363-1.211v-1.202zm.085-2.417c.172 0 .355.018.502.12.233.166.347.459.347.739 0 .545-.401 1.002-.934 1.097v-1.956h.085z" style="fill:#000;fill-opacity:1;fill-rule:nonzero;stroke:none" transform="matrix(7.18675 0 0 7.1871 -2135.657 2856.685)"/><path d="M315.611-391.525c0 1.828 1.377 2.98 3.153 2.98 1.758 0 3.255-1.101 3.255-2.987 0-1.905-1.333-2.962-3.152-2.962-1.758 0-3.256 1.126-3.256 2.969zm1.682-.233c0-.892.447-1.87 1.471-1.87 1.185 0 1.574 1.41 1.574 2.399 0 .423-.061.864-.32 1.211-.278.372-.692.607-1.151.607-.494 0-.928-.33-1.169-.747-.243-.432-.405-1.099-.405-1.6zM299.654-373.226v-13.14h23.387v13.14h-23.387z" style="fill:#000;fill-opacity:1;fill-rule:nonzero;stroke:none" transform="matrix(7.18675 0 0 7.1871 -2135.657 2856.685)"/><path d="M299.654-373.226v-13.14h23.387v13.14h-23.387z" style="fill:none;stroke:#000;stroke-width:.75010997;stroke-linecap:butt;stroke-linejoin:miter;stroke-miterlimit:4;stroke-opacity:1;stroke-dasharray:none" transform="matrix(7.18675 0 0 7.1871 -2135.657 2856.685)"/><path d="M299.602-372.107v4.333c0 1.206.953 2.184 2.13 2.184h19.182c1.176 0 2.13-.978 2.13-2.184v-4.333h-23.442z" style="fill:#fff;fill-opacity:1;fill-rule:nonzero;stroke:none" transform="matrix(7.18675 0 0 7.1871 -2135.657 2856.685)"/><path d="M299.602-372.107v4.333c0 1.206.953 2.184 2.13 2.184h19.182c1.176 0 2.13-.978 2.13-2.184v-4.333h-23.442z" style="fill:none;stroke:#000;stroke-width:.76120001;stroke-linecap:butt;stroke-linejoin:miter;stroke-miterlimit:4;stroke-opacity:1;stroke-dasharray:none" transform="matrix(7.18675 0 0 7.1871 -2135.657 2856.685)"/><path d="M304.228-369.271a5.107 5.107 0 0 1-.949 1.2c-.498.467-1.161.925-1.988 1.374a.347.347 0 0 0-.073.061c-.04.041-.067.062-.081.062-.032 0-.073-.034-.12-.098l-.416-.538c-.048-.069-.075-.111-.075-.129 0-.013.012-.045.034-.097a.494.494 0 0 0 .032-.184l.027-2.887a3.393 3.393 0 0 0-.051-.589l.814.117c.095.01.141.045.141.103a.276.276 0 0 1-.039.092.343.343 0 0 0-.043.174c0 .148-.002.582-.008 1.302-.006.718-.007 1.078-.007 1.083 0 .146.035.22.107.22.042 0 .16-.062.352-.185.217-.133.432-.286.644-.456.217-.174.431-.394.643-.656.191-.24.341-.458.446-.656l.61.687zM307.131-367.849a.78.78 0 0 0-.1-.006h-2.9a.991.991 0 0 0-.143.011v-.815c.041.006.09.011.143.011h2.9a.78.78 0 0 0 .1-.006v.805zM311.357-368.962l-1.538.037c.008.187.011.31.011.369 0 .587-.176 1.06-.527 1.419-.247.254-.621.504-1.125.755l-.621-.81c.447-.134.777-.307.988-.519.276-.287.407-.691.393-1.214l-1.583.092-.022-.882 3.983-.139.041.892zm-.609-1.296-2.825.082-.009-.837 2.802-.066.032.821zM314.082-369.46c0 .028-.025.05-.078.067a.59.59 0 0 0-.131.063 6.216 6.216 0 0 1-.758.686v2.241l-.646-.006v-1.768a7.07 7.07 0 0 1-1.099.589l-.39-.589a7.514 7.514 0 0 0 1.305-.671c.575-.369 1.002-.751 1.282-1.147l.437.43c.053.052.078.087.078.105zM318.053-369.372a10.766 10.766 0 0 1-1.707 1.708c-.585.461-1.147.792-1.683.995a.293.293 0 0 0-.073.096c-.03.059-.058.088-.082.088-.043 0-.079-.039-.109-.119l-.367-.902c.516-.061 1.105-.35 1.767-.866a10.17 10.17 0 0 0 1.754-1.8l.5.8zm-2.183-.702-.416.743a5.638 5.638 0 0 0-.662-.533 8.4 8.4 0 0 0-.722-.472l.393-.743c.317.178.785.513 1.407 1.005zM322.215-370.251c0 .026-.016.051-.049.081a.17.17 0 0 0-.062.085 12.343 12.343 0 0 1-1.25 2.151c-.419.575-.93 1.131-1.536 1.67l-.671-.606c.542-.46 1.032-.97 1.471-1.531.443-.564.747-1.059.913-1.488l-1.118.127c-.418.67-.867 1.21-1.345 1.622l-.586-.601c.274-.227.563-.546.87-.958.392-.533.697-1.09.91-1.668l.779.307c.059.022.089.056.089.103 0 .028-.026.057-.077.089a.55.55 0 0 0-.171.235l.942-.101c.03-.005.061-.025.096-.063.039-.037.066-.053.082-.053.037 0 .097.035.182.11l.063.052c-.076-.111-.153-.227-.234-.344l.248-.208c.085.104.226.308.426.613l-.177.164.102.085c.07.06.103.102.103.127zm.342-.674-.249.233a7.925 7.925 0 0 0-.425-.637l.252-.213c.08.106.22.311.422.617z" style="fill:#000;fill-opacity:1;fill-rule:nonzero;stroke:none" transform="matrix(7.18675 0 0 7.1871 -2135.657 2856.685)"/><path d="M304.268-378.055v.18h-.903v-.18h.903zm-1.489 0v.18h-.902v-.18h.902zm1.489-.722v.181h-.903v-.181h.903zm-1.489 0v.181h-.902v-.181h.902zm-.046-1.06v.451h.632v-.429c.165.151.362.316.587.497h-1.85c.21-.136.42-.309.631-.519zm0-1.083v.428h-.405a1.96 1.96 0 0 0-.25-.405c.257 0 .475-.008.655-.023zm1.242-.045a.977.977 0 0 1-.092.271 2.46 2.46 0 0 1-.112.202h-.406v-.451c.196 0 .399-.007.61-.022zm.789-.203-.272-.384h.406v.542h.633v-1.083h-2.142v-.203a.261.261 0 0 0 .089-.091c.03-.074-.03-.112-.181-.112h-.586v.406h-2.121v1.15h.632v-.36l.091.428h.472l-.293.136c.061.09.113.173.158.247h-1.127v.542h1.512a3.51 3.51 0 0 1-1.31.744c-.12.046-.241.084-.36.113l.225.61c.226-.091.444-.197.655-.317v1.692h.632v-.226h2.391v.113h.63v-1.579c.182.091.415.174.701.248l.202-.631c-.826-.195-1.406-.451-1.737-.767h1.557v-.542h-1.218a.9.9 0 0 1 .113-.202c.029 0 .051-.007.068-.023.074-.045.053-.097-.068-.158l-.294-.112.362-.069c.089.046.148.053.18.023.045-.03.045-.074 0-.135zm-3.542-.384h3.158c-.978.136-2.03.181-3.158.136v-.136zM309.502-378.101v.249h-1.715v-.249h1.715zm0-.721v.18h-1.715v-.18h1.715zm0-.722v.18h-1.715v-.18h1.715zm-.631-2.91h-.542v.541h-2.075v.587h1.85c-.557.556-1.28.992-2.166 1.308l.27.587c.376-.135.692-.293.948-.474v2.053h-1.015v.541h5.076v-.541h-1.083v-2.166c.346.196.684.354 1.014.474l.227-.631a6.022 6.022 0 0 1-1.625-.745 3.661 3.661 0 0 1-.496-.406h1.782v-.587h-2.075v-.36c.119-.106.09-.165-.09-.181zm.09 1.579c.346.316.684.58 1.015.79h-2.527c.33-.226.623-.467.88-.723v.655h.632v-.722zM315.93-381.923c.121.135.092.195-.089.18l-1.265.835.272.18-.272.181h1.4l.135-.135.407.406c.074.089.105.15.089.18-.015.03-.037.038-.068.023-.465.466-.962.932-1.488 1.398l-.475-.406c.468-.377.814-.67 1.039-.88h-1.195v2.211a.794.794 0 0 1-.023.181c-.061.195-.203.293-.428.293h-.655l-.068-.632h.406c.061 0 .098-.015.114-.045a.281.281 0 0 0 .021-.113v-1.895h-2.142v-.586h2.3a23.726 23.726 0 0 0-1.104-.632l.428-.451.767.406.698-.473h-2.661v-.588h3.293l.113-.112.451.474zM320.968-380.156h-1.31v.676h1.579v.587h-1.579v.925c.091.015.203.03.338.045h1.852l-.09.632h-1.805c-.151 0-.295-.016-.43-.045a2.5 2.5 0 0 1-1.353-.835c-.211.436-.557.796-1.037 1.083l-.43-.541c.438-.226.737-.513.902-.858.167-.361.264-.82.293-1.376l.588.18a.327.327 0 0 1 .114.068c.013.03.021.052.021.068-.015.029-.053.06-.113.09-.045.256-.09.503-.135.744.029.046.068.09.113.136.15.151.33.278.541.384v-1.963h-1.399v-.587h3.34v.587zm-1.241-2.211a.274.274 0 0 1-.09.091v.451h2.076v1.285h-.633v-.699h-3.564v.744h-.632v-1.33h2.075v-.655h.586c.151 0 .211.039.182.113z" style="fill:#fff;fill-opacity:1;fill-rule:nonzero;stroke:none" transform="matrix(7.18675 0 0 7.1871 -2135.657 2856.685)"/></svg>