<svg xmlns="http://www.w3.org/2000/svg" width="200" height="246"><path d="M230.37-365.025a1.912 1.912 0 0 1-1.912 1.914h-23.812a1.914 1.914 0 0 1-1.913-1.914v-30.19c0-1.057.856-1.914 1.913-1.914h23.812c1.058 0 1.912.857 1.912 1.914v30.19z" style="fill:#fff;fill-opacity:1;fill-rule:nonzero;stroke:none" transform="matrix(7.23668 0 0 7.23147 -1467.113 2871.825)"/><path d="M204.861-386.283v18.919c0 1.174.952 2.126 2.125 2.126h19.134a2.125 2.125 0 0 0 2.125-2.126v-18.919h-23.384z" style="fill:#000;fill-opacity:1;fill-rule:nonzero;stroke:none" transform="matrix(7.23668 0 0 7.23147 -1467.113 2871.825)"/><path d="M204.861-386.283v18.919c0 1.174.952 2.126 2.125 2.126h19.134a2.125 2.125 0 0 0 2.125-2.126v-18.919h-23.384z" style="fill:none;stroke:#000;stroke-width:.56260997;stroke-linecap:butt;stroke-linejoin:miter;stroke-miterlimit:4;stroke-opacity:1;stroke-dasharray:none" transform="matrix(7.23668 0 0 7.23147 -1467.113 2871.825)"/><path d="M228.245-392.876c0-1.175-.95-2.126-2.125-2.126h-19.134a2.125 2.125 0 0 0-2.125 2.126v5.562h23.384v-5.562z" style="fill:#000;fill-opacity:1;fill-rule:nonzero;stroke:none" transform="matrix(7.23668 0 0 7.23147 -1467.113 2871.825)"/><path d="M228.245-392.876c0-1.175-.95-2.126-2.125-2.126h-19.134a2.125 2.125 0 0 0-2.125 2.126v5.562h23.384v-5.562z" style="fill:none;stroke:#000;stroke-width:.56260997;stroke-linecap:butt;stroke-linejoin:miter;stroke-miterlimit:4;stroke-opacity:1;stroke-dasharray:none" transform="matrix(7.23668 0 0 7.23147 -1467.113 2871.825)"/><path d="M209.071-383.862a1.05 1.05 0 0 1-.166.204h-.238v-.204h.404zm-1.054 2.594c-.093 0-.579.013-.708.013.311-.16.441-.236.528-.288h.635c-.064.064-.109.115-.136.141-.103.089-.116.102-.145.128-.095.006-.108.006-.174.006m4.011-1.987c.008.192.022.619-.209 1.233-.058-.122-.189-.377-.319-.837.044-.071.103-.166.217-.396h.311m-2.066.799h-.875c.058-.052.108-.103.217-.211h.542l.116.211m.505 3.399c.268-.14.716-.383 1.287-.876.391.429.779.703 1.054.882l.817-1.207a3.19 3.19 0 0 1-1.033-.665c.282-.447.55-1.226.629-2.332h.266v-1.215h-1.379c.065-.261.086-.434.122-.651l-1.256-.045a4.586 4.586 0 0 1-.594 1.693v-.185h-.252c.296-.403.476-.702.656-1.01l-1.076-.466a6.083 6.083 0 0 1-.18.345h-.709v-.377h-1.228v.377h-.889v.965h.897v.166h-.999v.991h.948c-.551.345-.86.44-1.077.505l.526.913h-.461l.064 1.067c.348 0 .658-.012 1.411-.05 0 .083 0 .095-.008.108-.022.038-.116.07-.195.07h-.695l.196 1.003h1.431a.55.55 0 0 0 .382-.236c.087-.128.087-.325.087-.422v-.601c.152-.012.824-.057.962-.063.058-.007.095-.007.13-.013-.26.141-.471.211-.664.269l.83 1.06m.015-2.466.209-.224c.152.46.283.703.355.831-.275.262-.5.402-.701.511v-.978c-.253.02-.47.038-.759.051.325-.211.352-.249.418-.325v-.723l.478.857M218.188-383.888c.129.064.18.089.311.159-.377.02-.853.033-1.078.033.138-.179.166-.211.238-.287h.761l-.232.095zm1.091 1.988v.178h-2.558v-.178h2.558m-3.932-.748v3.597h1.374v-1.131h2.558c0 .128 0 .166-.151.166h-.962l.209.965h1.678c.396 0 .606-.191.606-.536v-3.061h-.238l.983-.563c-.334-.262-.513-.377-1.186-.772h1.228v-.959H218.7v-.244h-1.394v.244h-2.746v.959h1.619c-.059.083-.073.101-.209.287h-.891c-.079 0-.15 0-.367-.006l.071.977c.463-.019 2.689-.051 2.884-.064.57-.025 1.488-.076 2.066-.102.167.147.211.192.262.243h-4.648m3.932 1.61v.179h-2.558v-.179h2.558M225.554-382.118c0-.613-.571-1.118-1.264-1.118-.702 0-1.266.505-1.266 1.118 0 .62.564 1.119 1.266 1.119.693 0 1.264-.499 1.264-1.119zM212.303-377.526a7.123 7.123 0 0 0-.318-.958l.664-.065c.094.18.188.397.326.94l-.672.083zm.303.959v1.169h-2.21v.109c0 .108-.075.728-.276 1.149-.311.646-.883 1.004-1.77 1.285-.499.16-.846.217-1.158.275l-.577-1.138c1.352-.179 1.922-.415 2.125-.875.093-.218.172-.555.181-.69l.007-.115h-2.516v-1.169h6.194m-1.279-.953a4.667 4.667 0 0 0-.268-.926l.636-.058c.146.294.246.595.312.907l-.68.077m-.398-.639a3.9 3.9 0 0 1 .203.825l.65-.07v.382h-4.863v-1.137h4.01M219.85-376.14v1.291h-6.354v-1.291h6.354zM223.342-376.114c.615.211.94.351 1.36.594.223-.3.368-.568.541-1.022h-1.771c-.924.965-1.568 1.278-1.972 1.47l-.883-.888c1.331-.652 1.952-1.387 2.407-2.461l1.583.135c-.1.281-.145.37-.268.606h2.64c-.087.665-.276 2.039-1.518 3.311-.905.92-2.212 1.489-3.673 1.796l-.788-1.138c.434-.045 1.468-.141 2.725-.933-.31-.192-.867-.434-1.314-.632l.931-.838zM212.642-371.325a3.958 3.958 0 0 0-.738-.812l-.621.313c.282.243.556.607.716.863l.643-.364zm-5.672 3.323c.079-.09.187-.198.325-.371.028-.032.714-.907.809-1.023.389-.498.425-.517.542-.517.116 0 .209.096.369.262.021.019 2.298 2.504 2.739 2.978l1.075-1.215a9.325 9.325 0 0 1-.446-.415c-.349-.344-2.038-2.07-2.429-2.454-.644-.645-.846-.779-1.243-.779-.571 0-.816.274-1.792 1.342-.485.537-.818.849-.998 1.035l1.049 1.157m4.725-2.844a4.703 4.703 0 0 0-.715-.856l-.593.294c.304.364.585.786.679.927l.629-.365M219.923-369.881v1.291h-6.354v-1.291h6.354zM220.72-367.37c.353-.109 1.234-.377 2.363-1.38.925-.831 1.221-1.489 1.388-1.859h-3.296v-1.183h5.188c-.151.837-.396 1.662-1.235 2.786.83.499 1.597 1.074 2.305 1.713l-1.207 1.028a21.44 21.44 0 0 0-1.981-1.795c-1.3 1.202-2.283 1.572-2.745 1.745l-.78-1.055zM210.691-392.906a2.588 2.588 0 0 0-1.445-.45c-1.186 0-1.524.95-1.524 1.998 0 1.196.581 2.165 1.87 2.165.675 0 1.29-.25 1.87-.563l-.433 1.264a6.419 6.419 0 0 1-1.723.209c-.882 0-1.627-.151-2.32-.744-.666-.565-1.022-1.379-1.022-2.261 0-.797.339-1.636.944-2.175.658-.561 1.568-.769 2.416-.769l1.309.113.058 1.213zM213.592-389.359c.287.116.606.13.909.13.485 0 .937-.078 1.265-.476h.043l-.347 1.307h-3.833v-.026c.421-.267.362-.754.362-1.201v-3.24c0-.45.059-.943-.362-1.201v-.028h3.029c.129 0 .27 0 .363-.043h.025v1.255h-.025c-.234-.407-.726-.363-1.151-.363h-.278v1.401h.804a.861.861 0 0 0 .322-.042h.044v1.212h-.044c-.122-.348-.52-.312-.839-.312h-.287v1.627zM217.924-390.837l1.001 1.886c.301.535.58.615 1.162.582l1.193-.078c-.347-.286-.597-.651-.831-1.041l-1.03-1.723c.572-.244 1.03-.717 1.03-1.367 0-.582-.261-1.039-.77-1.318-.389-.208-.735-.198-1.159-.198h-2.565v.028c.425.267.365.759.365 1.209v3.221c0 .451.06.945-.365 1.212v.026h2.329v-.026c-.424-.267-.36-.761-.36-1.212v-1.201zm.084-2.417c.171 0 .354.018.503.12.232.165.346.458.346.738 0 .545-.4 1.002-.933 1.097v-1.955h.084" style="fill:#fff;fill-opacity:1;fill-rule:nonzero;stroke:none" transform="matrix(7.23668 0 0 7.23147 -1467.113 2871.825)"/><path d="M220.816-391.264c0 1.828 1.376 2.981 3.152 2.981 1.758 0 3.256-1.101 3.256-2.988 0-1.904-1.333-2.961-3.153-2.961-1.758 0-3.255 1.127-3.255 2.968zm1.681-.232c0-.893.449-1.871 1.471-1.871 1.186 0 1.577 1.411 1.577 2.4 0 .423-.062.863-.323 1.211-.276.372-.692.607-1.151.607-.492 0-.925-.33-1.167-.748-.245-.431-.407-1.098-.407-1.599" style="fill:#fff;fill-opacity:1;fill-rule:nonzero;stroke:none" transform="matrix(7.23668 0 0 7.23147 -1467.113 2871.825)"/></svg>