<svg xmlns="http://www.w3.org/2000/svg" width="143.602" height="215.404" viewBox="0 0 143.602 215.404"><path fill="#fff" d="M143.601 0H0v215.4h143.6V0Z"/><path fill="#1a1818" d="M141.516 2.312v210.789H2.085V2.312h139.431"/><path fill="#fff" d="M9.102 9.803h124.392v34.953H9.102zM9.046 52.377h124.463v128.495H9.046z"/><g fill="#fff"><path d="M9.07 205.498v-17.061h24.988v3.993H19.11v2.438h12.651v3.979H19.11v2.669h15.527v3.979ZM55.867 193.409a1.878 1.878 0 0 0-1.447-1.151 9.013 9.013 0 0 0-2.595-.318c-2.207 0-3.2.362-3.2 1 0 2.522 17.619.937 17.619 7.143 0 3.951-5.924 5.88-14.34 5.88-8.084 0-13.356-2.631-13.57-5.71h9.615a2.426 2.426 0 0 0 1.665 1.343 9.1 9.1 0 0 0 2.859.431c2.508 0 4.176-.445 4.176-1.252 0-2.583-17.633-.811-17.633-7.313 0-3.626 5.616-5.442 13.284-5.442 8.5 0 12.376 2.41 13.114 5.392ZM81.281 195.836h3.948c3.108 0 4.777-.452 4.777-1.625 0-1.2-1.7-1.78-4.046-1.78h-4.679Zm0 3.72v5.942H71.243v-17.062h14.471c10.2 0 13.566 1.563 13.566 4.878 0 1.972-1.567 3.611-5.146 4.183 3.231.651 5.193 1.053 5.193 4.494 0 2.222-.13 2.992 1.06 2.992v.514H90.208a6.623 6.623 0 0 1-.5-2.982c0-2.24-.684-2.96-5.363-2.96ZM115.483 192.431v2.855h4.183c2 0 3.452-.517 3.452-1.491 0-1.335-1.979-1.364-4.089-1.364Zm0 5.942v3.142h4.378c2.49 0 4.357-.289 4.357-1.56 0-1.491-2.334-1.585-5.544-1.585Zm-10.036 7.125v-17.062h14.646c6.9 0 12.386.927 12.386 4.306 0 1.759-2.052 3.04-4 3.7 3.315.481 5.095 2.077 5.095 3.908 0 3.8-5.222 5.146-13.193 5.146Z"/></g><g fill="#1a1818"><path d="M75.893 131.304c-2.077-7.689-6.2-12.187-12.075-13.758 3.655-4.273 5.732-10.885 2.935-21.27-3.93-14.5-13.906-21.531-26.032-18.3l-27.579 7.336-.565.145 22.84 84.5 18.447-4.918s-7.483-27.671-8.793-32.545l.9-.239c2.819-.731 4.878-.724 6.257.076 2.443 1.4 3.572 5.627 4.863 10.516l1.031 3.893c1.2 4.7 2.475 9.568 5.652 13.711l1.238 1.632 21.1-5.591-2.833-3.626c-1.426-1.823-4.972-12.624-7.386-21.562Zm-30.19-15.1s-2.367.633-4.7 1.248c-1.379-5.091-4.538-16.8-5.916-21.9 2.316-.6 4.7-1.238 4.7-1.238 2.233-.586 5.967-1.585 8.7 8.532.524 1.963 2.901 11.841-2.784 13.354ZM99.005 63.937l-24.845 6.6-2.985.789 22.83 84.512 18.856-5s-7.346-27.161-8.666-32.006c3.184-.858 8.109-2.149 8.109-2.149 14.71-3.926 20.333-15.328 15.784-32.1-5.906-21.873-19.063-23.295-29.083-20.646Zm7.686 37.5s-3.629.97-6.712 1.788c-1.342-4.994-4.57-16.888-5.906-21.885 2.736-.727 5.721-1.516 5.721-1.516 3.249-.872 6.962-.872 9.908 10.016 1.408 5.18-.057 10.818-3.011 11.6Z"/></g><g fill="#1a1818"><path d="M15.032 37.213H12.55V17.369h4.585a2.266 2.266 0 0 1 2.03 1.317 8.064 8.064 0 0 1 .745 3.876 8.937 8.937 0 0 1-.5 3.217 2.488 2.488 0 0 1-1.7 1.65v.054c.134.036.318.091.557.167a1.63 1.63 0 0 1 .716.492 3.342 3.342 0 0 1 .615 1.143 6.7 6.7 0 0 1 .261 2.1c0 .311.007.753.011 1.317s.018 1.154.04 1.762.054 1.161.09 1.672a6.355 6.355 0 0 0 .141 1.075H17.71a7.424 7.424 0 0 1-.257-1.9v-1.95c0-.586 0-1.147-.007-1.679a5.688 5.688 0 0 0-.17-1.386 1.983 1.983 0 0 0-.525-.952 1.494 1.494 0 0 0-1.071-.355h-.644Zm0-11.272h1.1a.792.792 0 0 0 .612-.271 2.069 2.069 0 0 0 .391-.7 4.749 4.749 0 0 0 .21-.948c.033-.347.054-.68.054-.991a4.313 4.313 0 0 0-.34-2.019 1.018 1.018 0 0 0-.926-.586h-1.1ZM20.833 37.213l3.282-19.844h3.268l3.221 19.844h-2.61l-.659-4.4h-3.383l-.673 4.4Zm4.78-16.023h-.036l-1.136 8.576h2.374ZM37.848 17.369v3.3H35.09v16.544h-2.482V20.665h-2.761v-3.3ZM38.998 37.213V17.369h2.479v19.844ZM43.575 37.213V17.369h3.347l3.155 13.743h.033V17.369h2.316v19.844h-3.267l-3.228-14.51h-.036v14.51ZM59.939 23.466c0-.456-.014-.9-.043-1.314a4.373 4.373 0 0 0-.2-1.1 1.939 1.939 0 0 0-.449-.76 1.112 1.112 0 0 0-.789-.286.963.963 0 0 0-.887.6 5.268 5.268 0 0 0-.463 1.625 18 18 0 0 0-.17 2.348c-.022.89-.029 1.809-.029 2.765 0 1.552.029 2.812.087 3.763a13.1 13.1 0 0 0 .275 2.215 1.948 1.948 0 0 0 .543 1.053 1.349 1.349 0 0 0 .868.275 1.933 1.933 0 0 0 .633-.1 4.436 4.436 0 0 0 .6-.275v-4.4h-1.337v-3.051h3.825v10.058c-.163.054-.387.119-.666.192s-.579.145-.894.221-.637.13-.955.181a6.907 6.907 0 0 1-.84.065 4.784 4.784 0 0 1-2.486-.561 3.465 3.465 0 0 1-1.4-1.817 11.287 11.287 0 0 1-.615-3.231c-.1-1.317-.141-2.917-.141-4.806q0-1.872.09-3.684a14.209 14.209 0 0 1 .492-3.231 5.26 5.26 0 0 1 1.248-2.294 3.134 3.134 0 0 1 2.374-.883 3.167 3.167 0 0 1 1.632.427 3.605 3.605 0 0 1 1.234 1.238 6.119 6.119 0 0 1 .738 2.008 12.017 12.017 0 0 1 .188 2.757ZM68.214 17.369h4.473a2.547 2.547 0 0 1 1.455.409 3.063 3.063 0 0 1 .97 1.2 6.476 6.476 0 0 1 .554 1.885 15.7 15.7 0 0 1 .177 2.443 16.862 16.862 0 0 1-.116 1.871 7.148 7.148 0 0 1-.445 1.9 3.863 3.863 0 0 1-1 1.469 2.524 2.524 0 0 1-1.744.59h-1.842v8.08h-2.482Zm2.482 8.713h1.379a.7.7 0 0 0 .51-.231 2.056 2.056 0 0 0 .394-.608 4.05 4.05 0 0 0 .257-.85 5.511 5.511 0 0 0 .087-.977c0-.405-.022-.789-.054-1.158a4.038 4.038 0 0 0-.213-.959 1.6 1.6 0 0 0-.431-.644 1 1 0 0 0-.688-.231h-1.241ZM77.33 37.213V17.369h6.469v3.054h-3.99v4.889h3.68v3.051h-3.68v5.8h4.129v3.054ZM85.558 37.213V17.369h3.351l3.155 13.743h.036V17.369h2.309v19.844h-3.264l-3.235-14.51h-.036v14.51ZM96.548 17.369h4.136a2.9 2.9 0 0 1 1.976.658 4.291 4.291 0 0 1 1.172 1.925 13.2 13.2 0 0 1 .565 3.09c.1 1.219.148 2.6.148 4.14v1.8c0 .688-.029 1.408-.08 2.157a17.075 17.075 0 0 1-.308 2.215 7.244 7.244 0 0 1-.662 1.94 4.081 4.081 0 0 1-1.151 1.386 2.841 2.841 0 0 1-1.759.536h-4.037Zm2.479 16.79h1.2a1.219 1.219 0 0 0 .912-.365 2.588 2.588 0 0 0 .546-1.194 12.417 12.417 0 0 0 .271-2.135q.076-1.3.076-3.173c0-.919-.011-1.788-.025-2.613a14.112 14.112 0 0 0-.192-2.186 4.18 4.18 0 0 0-.514-1.509 1.107 1.107 0 0 0-1-.561h-1.274ZM106.536 37.213V17.369h2.479v19.844ZM111.12 37.213V17.369h3.347l3.152 13.743h.032V17.369h2.32v19.844H116.7l-3.235-14.51h-.036v14.51ZM127.48 23.466c0-.456-.014-.9-.043-1.314a4.543 4.543 0 0 0-.2-1.1 1.908 1.908 0 0 0-.456-.76 1.088 1.088 0 0 0-.789-.286.967.967 0 0 0-.887.6 5.089 5.089 0 0 0-.456 1.625 18.543 18.543 0 0 0-.177 2.348c-.011.89-.022 1.809-.022 2.765 0 1.552.025 2.812.083 3.763a12.679 12.679 0 0 0 .279 2.215 1.948 1.948 0 0 0 .539 1.053 1.359 1.359 0 0 0 .872.275 1.965 1.965 0 0 0 .633-.1 4.6 4.6 0 0 0 .6-.275v-4.4h-1.35v-3.051h3.828v10.058c-.166.054-.387.119-.662.192s-.583.145-.9.221-.633.13-.952.181a6.8 6.8 0 0 1-.836.065 4.807 4.807 0 0 1-2.49-.561 3.488 3.488 0 0 1-1.4-1.817 11.411 11.411 0 0 1-.615-3.231c-.09-1.317-.134-2.917-.134-4.806 0-1.248.025-2.475.087-3.684a14.412 14.412 0 0 1 .492-3.231 5.292 5.292 0 0 1 1.245-2.294 3.515 3.515 0 0 1 4.009-.456 3.6 3.6 0 0 1 1.234 1.238 6.118 6.118 0 0 1 .738 2.008 12.227 12.227 0 0 1 .188 2.757Z"/></g></svg>