<svg xmlns="http://www.w3.org/2000/svg" width="148.583" height="175.141" viewBox="0 0 39.312583 46.339393"><path d="M35.837 0H3.475A3.475 3.475 0 0 0 0 3.475v39.389a3.475 3.475 0 0 0 3.475 3.475h32.362c1.92 0 3.444-1.556 3.476-3.475V3.475C39.28 1.555 37.757 0 35.837 0" style="fill:#0085ab;fill-opacity:1;fill-rule:nonzero;stroke:none;stroke-width:.352778"/><path d="M36.692 34.168a2.562 2.562 0 0 1-2.558 2.566H5.177a2.56 2.56 0 0 1-2.555-2.566V5.09a2.56 2.56 0 0 1 2.555-2.564h28.957a2.562 2.562 0 0 1 2.558 2.564" style="fill:#f8c52b;fill-opacity:1;fill-rule:nonzero;stroke:none;stroke-width:.352778"/><path d="M5.13 18.688h-.817v-.284c0-.18-.007-.292-.022-.337-.015-.045-.052-.067-.11-.067-.051 0-.084.02-.103.058-.018.038-.028.138-.028.298v1.503c0 .14.01.233.028.278.019.044.053.066.108.066.06 0 .101-.024.12-.074a.865.865 0 0 0 .033-.295v-.372h-.165v-.475h.955v1.68h-.513l-.074-.224a.573.573 0 0 1-.21.218.59.59 0 0 1-.3.073.784.784 0 0 1-.384-.1.748.748 0 0 1-.389-.556 3.802 3.802 0 0 1-.022-.485v-.93c0-.3.015-.517.048-.652.032-.136.124-.26.277-.373.153-.112.35-.169.594-.169.239 0 .436.049.594.148a.68.68 0 0 1 .306.348c.05.136.073.331.073.588M6.18 18.072v.696c.091 0 .155-.013.192-.04.037-.024.055-.105.055-.243v-.172c0-.1-.018-.164-.052-.196-.036-.03-.1-.045-.196-.045m-.814-.538h.577c.385 0 .645.015.78.046a.531.531 0 0 1 .334.227c.085.121.128.316.128.583 0 .244-.03.408-.09.492-.062.084-.18.134-.36.151.162.04.27.093.326.16.056.068.09.128.104.185.013.056.02.21.02.464v.826h-.757v-1.04c0-.169-.012-.272-.04-.313-.026-.039-.095-.06-.208-.06v1.413h-.814M8.396 19.549a40.066 40.066 0 0 1-.124-1.315c-.082.6-.133 1.038-.155 1.315Zm.433-2.015.466 3.134h-.832l-.045-.564h-.292l-.048.564h-.842l.415-3.134M11.256 18.9h-.815v-.546c0-.158-.008-.258-.026-.296-.018-.039-.055-.06-.114-.06-.068 0-.11.025-.128.072a1.098 1.098 0 0 0-.028.31v1.455c0 .153.01.253.028.3.018.045.059.068.12.068.062 0 .102-.023.12-.068.02-.047.028-.158.028-.33v-.393h.815v.122c0 .325-.022.555-.068.69a.719.719 0 0 1-.304.357c-.156.102-.35.153-.579.153-.24 0-.437-.043-.591-.13a.631.631 0 0 1-.307-.36c-.051-.152-.076-.381-.076-.69v-.913c0-.226.008-.396.023-.51a.706.706 0 0 1 .138-.325.777.777 0 0 1 .32-.247c.136-.06.292-.09.468-.09.241 0 .438.047.596.138.155.094.257.21.307.347.05.14.073.355.073.647" style="fill:#fff;fill-opacity:1;fill-rule:nonzero;stroke:none;stroke-width:.352778"/><g style="fill:#fff;fill-opacity:1"><path d="M16.406-14.719H2.344v4.14c0 .618.176 1.099.531 1.438.383.368.957.547 1.719.547h11.984V-10.5H5.047v-2.328h11.36ZM1.422-7.188v1.907h15.922v-1.907Zm7.969 4.97c1.34 0 2.406.144 3.187.421.695.25 1.047.567 1.047.938 0 .375-.352.695-1.047.953-.773.277-1.836.422-3.187.422C8.016.516 6.934.37 6.156.094 5.47-.164 5.125-.484 5.125-.86c0-.371.344-.688 1.031-.938.79-.277 1.867-.422 3.235-.422zm0-1.954c-2.23 0-3.993.348-5.282 1.031-1.156.618-1.734 1.38-1.734 2.282 0 .914.578 1.68 1.734 2.296 1.29.696 3.051 1.047 5.282 1.047 2.207 0 3.953-.351 5.234-1.046C15.77.82 16.344.054 16.344-.86c0-.903-.574-1.664-1.719-2.282-1.281-.683-3.027-1.03-5.234-1.03zm0 0" style="stroke:none" transform="matrix(.35278 0 0 .35278 3.71 43.534)"/></g><g style="fill:#fff;fill-opacity:1"><path d="M17.219-8.219h-1.266c.145-.633.258-1.406.344-2.312.07-.778.11-1.567.11-2.36v-1.828H2.343v1.938h11.36v.969c0 .699-.036 1.332-.095 1.89a10.65 10.65 0 0 1-.296 1.703H1.53v1.906H17.22zm-3.516 6.531v1.641H5.047v-1.64Zm-11.36-3.28v4.952c0 .59.157 1.047.47 1.36.32.32.769.484 1.343.484h12.25v-6.797h-2.703v1.422H5.047v-1.422Zm0 0" style="stroke:none" transform="matrix(.35278 0 0 .35278 12.139 43.534)"/></g><g style="fill:#fff;fill-opacity:1"><path d="M8.563-12.813v5.594H4.765v-5.593zm-6.5-1.906v7.39c0 .638.187 1.122.562 1.454.371.344.941.516 1.703.516h6.938v-1.125h2.578v4.5h2.703v-13.094h-2.703v2.031h-2.578v-1.672zm9.203 6.313v-2.719h2.578v2.719zM5.672-3.672H2.969v3.625c0 .652.176 1.133.531 1.438.371.289.992.437 1.86.437h11.328V-.094H5.671Zm0 0" style="stroke:none" transform="matrix(.35278 0 0 .35278 20.568 43.534)"/></g><g style="fill:#fff;fill-opacity:1"><path d="M1.531-14.719v1.875h2.282v5.078c0 1.543-.305 2.95-.907 4.22C2.344-2.337 1.57-1.38.594-.673L1.875.766a9.617 9.617 0 0 0 2.14-2.047 8.334 8.334 0 0 0 1.141-2.235c.196.73.551 1.446 1.063 2.141.539.73 1.258 1.441 2.156 2.14L9.969-.671a8.68 8.68 0 0 1-2.485-2.937c-.648-1.278-.968-2.676-.968-4.188v-5.047H8.75v-1.875zm8.485-.36v6.11H7.625v1.906h2.39V2h2.704v-17.078zm4.109 0V2h2.703v-17.078zm0 0" style="stroke:none" transform="matrix(.35278 0 0 .35278 28.997 43.534)"/></g><path d="M28.951 16.84c-.532.727-1.14 1.197-1.823 1.41-.68.21-1.778.316-3.285.316h-4.614v-8.17h4.448c1.729 0 2.904.083 3.532.248.627.163 1.21.598 1.742 1.302.534.704.8 1.502.8 2.394 0 .938-.266 1.772-.8 2.5m7.74 17.217v-.148l-4.75-11.34c2.288-1.03 3.869-2.473 4.75-4.324v-7.981a9.724 9.724 0 0 0-.726-1.348c-1.034-1.611-2.34-2.718-3.92-3.32-1.577-.602-3.664-.904-6.272-.904H12.047v32.042h7.182v-12.7h5.394l4.932 12.7h4.46a2.678 2.678 0 0 0 2.677-2.677" style="fill:#fff;fill-opacity:1;fill-rule:nonzero;stroke:none;stroke-width:.352778"/><path d="M33.22 23.398h-8.29v3.432h7.592v2.832H24.93v4.22h8.639v2.852H21.705v-16.21H33.22" style="fill:#b3b3b3;fill-opacity:1;fill-rule:nonzero;stroke:none;stroke-width:.352778"/></svg>