<?xml version="1.0" encoding="utf-8"?>
<!-- Generator: Adobe Illustrator 28.0.0, SVG Export Plug-In . SVG Version: 6.00 Build 0)  -->
<svg version="1.1" id="레이어_1" xmlns="http://www.w3.org/2000/svg" xmlns:xlink="http://www.w3.org/1999/xlink" x="0px"
	 y="0px" viewBox="0 0 150.7 174.7" style="enable-background:new 0 0 150.7 174.7;" xml:space="preserve">
<style type="text/css">
	.st0{fill:#42A13F;}
	.st1{fill:#FFFFFF;}
	.st2{fill:#9CA1AB;}
	.st3{fill:#211E1E;}
</style>
<path class="st0" d="M4.5,150.5h138.1V5H4.5L4.5,150.5z"/>
<path class="st1" d="M66.6,107.9l5.5-52.1l5.5,52.1L66.6,107.9z M116.5,141.2l-16.7-124H44.4L28.5,141.3l37.1-0.2v-9.2h13.3v9.3"/>
<path class="st2" d="M102.9,115.9V85.2H85.6v44h26.7v-13.3"/>
<path class="st1" d="M133.6,115.9V85.2h-18.7v44h28v-13.3"/>
<path class="st3" d="M141.3,131.3c0,4.4-3.6,8-8,8.1h-116c-4.4,0-8-3.6-8-8.1V17.1c0-4.5,3.6-8.1,8-8.1h116c4.4,0,8,3.6,8,8.1
	L141.3,131.3z M140,0H10.7C5.5,0,0,5.6,0,10.7v153.2c0,5.2,5.5,10.7,10.7,10.7H140c5.2,0,10.7-5.6,10.7-10.7V10.7
	C150.7,5.6,145.2,0,140,0"/>
<path class="st1" d="M36,161.1h-3.5v-6.9h-3.8v-2.1h3.8v-4.4H36L36,161.1z M22.2,163.8h14v2H21.8c-1.1,0-1.9-0.2-2.4-0.5
	c-0.4-0.3-0.7-0.8-0.7-1.5V160h3.5L22.2,163.8z M29.8,148.2v2h-4.5c0,1.8,0.6,3.3,1.8,4.7c1,1,2.3,1.9,3.9,2.6l-1.6,1.6
	c-1.2-0.5-2.3-1-3.3-1.7c-1.1-0.7-2-1.4-2.5-2.1c-0.5,0.7-1.4,1.4-2.5,2.1c-1.1,0.6-2.2,1.2-3.3,1.7l-1.4-1.6
	c1.6-0.6,2.9-1.5,3.8-2.6c1.1-1.3,1.7-2.8,1.7-4.7h-4.3v-2 M61.1,166h-3.5v-18.2h3.5V166z M49.6,156.8v-2h2.8v-7h3.4V166h-3.4v-9.2
	L49.6,156.8z M44.6,149.5v-1.8H48v1.8h3.3v2H48v2.9c0,2.2,0.4,4.1,1.2,5.7c0.7,1.3,1.6,2.4,2.8,3.2l-2.1,1.3
	c-0.8-0.6-1.6-1.3-2.2-2.1c-0.7-1-1.2-2.1-1.4-3.4c-0.3,1.2-0.8,2.4-1.5,3.4c-0.7,0.8-1.4,1.5-2.4,2.1l-1.9-1.3
	c1.2-0.8,2.2-1.9,2.8-3.2c0.8-1.6,1.2-3.5,1.2-5.7v-2.9h-3.2v-2 M85.5,166h-3.4v-18.2h3.4V166z M70.8,151.6
	c-0.4,1.1-0.7,2.6-0.7,4.4c0,2,0.2,3.6,0.7,4.7c0.5,1.3,1.2,1.9,2.1,1.9c0.9,0,1.6-0.6,2.1-1.9c0.5-1.2,0.7-2.8,0.7-4.7
	c0-1.8-0.2-3.3-0.7-4.4c-0.5-1.2-1.2-1.9-2.1-1.9C72,149.7,71.3,150.3,70.8,151.6 M77.7,150.2c1.1,1.5,1.6,3.5,1.6,5.8
	c0,2.5-0.5,4.5-1.6,6.1c-1.1,1.7-2.7,2.6-4.7,2.6c-2,0-3.6-0.9-4.8-2.6c-1-1.6-1.6-3.6-1.6-6.1c0-2.4,0.5-4.3,1.6-5.8
	c1-1.6,2.8-2.6,4.8-2.5C75,147.7,76.5,148.6,77.7,150.2 M104,156.3v-1.2c-0.4,0.1-0.9,0.1-1.3,0.1c-1.4,0.1-2.9,0-4.3-0.1v1.2
	L104,156.3z M97.2,161.9c-0.9,0.3-1.3,0.6-1.3,1c0,0.4,0.4,0.7,1.3,1c1,0.3,2.3,0.5,4,0.5c1.6,0,2.9-0.2,3.9-0.5
	c0.9-0.3,1.3-0.6,1.3-1c0-0.4-0.4-0.7-1.3-1c-1-0.3-2.3-0.5-3.9-0.5C99.5,161.5,98.2,161.6,97.2,161.9 M97.1,150.3
	c-0.9,0.3-1.3,0.7-1.3,1.2c0,0.5,0.4,0.8,1.3,1.1c1,0.3,2.3,0.5,4.1,0.5c1.7,0,3.1-0.2,4.1-0.5c0.9-0.3,1.3-0.7,1.3-1.1
	c0-0.5-0.4-0.9-1.3-1.2c-1-0.3-2.4-0.5-4.1-0.5S98,150,97.1,150.3 M107.7,160.5c1.5,0.7,2.2,1.5,2.2,2.5c0,1-0.7,1.8-2.2,2.4
	c-1.6,0.7-3.8,1.1-6.5,1.1c-2.7,0-4.9-0.4-6.5-1.1c-1.4-0.7-2.2-1.5-2.2-2.4c0-1,0.7-1.8,2.2-2.5c1.6-0.7,3.8-1.1,6.5-1.1
	C103.9,159.4,106,159.8,107.7,160.5 M92.8,153c-0.4-0.4-0.7-1-0.7-1.5c0-1.1,0.7-1.9,2.2-2.6c1.6-0.8,3.9-1.1,6.8-1.1
	c2.9,0,5.1,0.4,6.8,1.1c1.5,0.7,2.3,1.6,2.3,2.6c0,0.6-0.3,1.1-0.7,1.5c-0.5,0.5-1.2,0.9-2.1,1.3v2h3.8v2.1H91.1v-2.1h3.8v-2
	C94.1,154,93.4,153.6,92.8,153 M134.7,147.8v7.4h2.4v2.1h-2.4v8.7h-3.4v-18.2H134.7z M127,148.2v5.6c0,2.7-0.9,5-2.6,6.8
	c-1.6,1.7-4,3-7.2,4.1l-1.4-1.5c2.3-0.8,4.1-1.8,5.4-3.1c1.5-1.5,2.3-3.3,2.3-5.4v-4.4h-7.2v-2.1"/>
</svg>
