<?xml version="1.0" encoding="UTF-8"?>
<svg id="_레이어_1" data-name="레이어 1" xmlns="http://www.w3.org/2000/svg" viewBox="0 0 1001 1001.989">
  <defs>
    <style>
      .cls-1 {
        fill: #e6c300;
        stroke: #000;
        stroke-miterlimit: 10;
      }

      .cls-2 {
        fill: #e5c200;
      }

      .cls-2, .cls-3 {
        stroke-width: 0px;
      }

      .cls-3 {
        fill: #2d2d2f;
      }
    </style>
  </defs>
  <circle class="cls-1" cx="500.5" cy="501.489" r="500"/>
  <path class="cls-3" d="m365.101,461.283v5.408c0,29.328.011,58.656.032,87.984,0,2.656-.1,5.09-3.1,6.033-3.79,1.19-6.5-.842-6.542-5-.073-8.331-.019-16.663-.019-25,0-28.161-.003-56.323-.008-84.484,0-2.667-.5-5.778,3.1-6.38,3.41-.57,6.379-.534,8.688,3.53,17.273,30.406,34.869,60.629,52.367,90.907.908,1.572,1.841,3.13,2.967,5.044,1.6-1.8.984-3.657.987-5.282.044-29.327.046-58.654.005-87.983-.006-3.445.093-6.378,4.758-6.406,4.573-.028,4.918,2.713,4.913,6.264-.055,36.16-.042,72.32.038,108.479.017,4.724-1.537,6.51-6.356,6.457-17.494-.192-34.993-.112-52.489-.043-3.4.013-5.931-.542-6-4.717-.077-4.5,2.64-5.006,6.234-4.984,14.3.087,28.605.036,43.8.036-17.635-30.488-34.906-60.344-52.176-90.2l-1.199.337Z"/>
  <path class="cls-3" d="m631.296,496.62c15.024,10.694,20.033,22.3,16.317,37.591-3.438,14.141-13.431,21.344-26.778,24.523-14.427,3.435-29.173,1.713-43.788,2.02-2.7.057-3.746-1.8-3.823-4.256-.063-2-.01-4-.01-5.993v-104.388c0-6.155.242-6.471,6.555-6.366,12.285.2,24.647-.958,36.766,2.224,19.5,5.119,29.142,20.3,24.72,39.051-1.349,5.721-3.789,9.58-9.959,15.594Zm-48.8,3.649v38.438q0,12.447,12.276,12.451c9.648.013,19.306.283,28.574-3.222,10.547-3.988,15.714-11.021,15.79-21.758.076-10.7-4.992-17.987-15.419-22.1-2.783-1.1-5.669-1.946-8.4-3.146-2.773-1.216-3.049-3.986-.529-5.667,2.623-1.749,5.484-3.135,8.2-4.752,5.307-3.162,8.614-7.682,9.413-13.927,1.7-13.287-4.443-21.989-18.167-25.466-8.8-2.229-17.8-1.969-26.787-2.155-3.811-.079-5.122.768-5.051,4.879.264,15.471.105,30.949.104,46.425h-.004Z"/>
  <path class="cls-3" d="m324.032,485.576c-.356,12.7.825,27.543-1.61,42.284-4.932,29.847-33.554,44.1-60.484,29.953-11.964-6.283-16.171-17.513-18.547-29.813-1.033-5.741-1.528-11.567-1.478-17.4-.1-21.822.007-43.645-.12-65.467-.024-4.171,1.645-5.758,5.676-5.428,3.744.307,3.9,2.789,3.891,5.674-.04,21.489.006,42.979-.034,64.468.003,5.831.499,11.652,1.482,17.4,3.509,20.87,16.535,27.494,36.016,25.2,14.749-1.739,21.85-11.231,23.887-26.089,3.323-24.235.6-48.474,1.771-72.671.182-3.768-.925-4.764-4.683-4.713-15.989.215-31.983.045-47.975.128-3.561.018-6.331-.36-6.231-4.927.1-4.378,2.918-4.468,6.163-4.46,18.824.051,37.649.115,56.472-.043,4.339-.036,5.922,1.516,5.864,5.832-.169,12.65-.06,25.312-.06,40.072Z"/>
  <path class="cls-3" d="m471.976,500.371c.1,10.318-.291,20.66,2.275,30.806,3.536,13.982,12.3,21.19,26.737,21.639,9.31.29,18.3-.821,26.039-6.756,4.647-3.565,7.3-7.94,7-14.084-.3-6.318-.2-12.665-.01-18.99.091-2.977-.681-4.235-3.879-4.013-3.814.264-7.663-.029-11.492.091-3.428.107-5.383-1.04-5.324-4.818.054-3.485,1.823-4.6,5.061-4.558,7,.1,14,.126,20.993-.009,3.653-.071,5.055,1.444,5,5.065-.132,9-.246,18,.006,26.99.3,10.591-4.357,18.635-13.135,23.655-15.739,9-32.415,9.6-48.9,2.205-9.647-4.327-14.683-13.155-16.8-23.052-4.998-22.693-4.973-46.206.075-68.888,3.641-16.14,14.343-25.667,31.124-27.2,24.589-2.251,36.184,4.725,44.321,20.261,2.715,5.185,2.089,6.339-3.262,8.534-2.257.926-3.019.525-4.076-1.6-8.465-17.036-28.443-23.627-45.712-15.2-7.623,3.719-11.581,10.214-13.645,18.135-2.719,10.449-2.331,21.134-2.396,31.787Z"/>
  <path class="cls-3" d="m752.419,496.608c.057,15.2.253,26.691-2.942,37.915-5.067,17.8-15.672,26.47-34.046,27.577-5.152.382-10.333.065-15.4-.941-12.269-2.593-20.455-9.812-24.894-21.471-2.476-6.552-3.905-13.453-4.233-20.45-.812-15.969-1.517-31.957,1.287-47.825,4.242-24.01,18.671-35.5,45.021-33.042,20.207,1.881,30.951,13.709,34.066,35.525,1.254,8.792,1.082,17.604,1.141,22.712Zm-72.469,3.374c.1,8.981-.3,17.988,1.332,26.893,1.565,8.556,4.338,16.393,12.09,21.523,18.763,12.414,43.849,2.282,47.82-19.686,3.221-17.819,2.671-35.829.638-53.736-1.01-8.9-3.824-17.27-11.827-22.75-6.416-4.394-13.686-4.866-21.078-4.546-15.122.652-23.19,7.4-26.815,22.006-2.479,9.989-2.044,20.154-2.16,30.296Z"/>
  <path class="cls-3" d="m210.382,500.362c0,18.158-.038,36.317.033,54.476.014,3.393-.464,5.952-4.689,5.981-4.194.029-4.808-2.429-4.791-5.882.081-15.993-.07-31.988.114-47.978.042-3.669-.911-4.836-4.714-4.783-15.491.217-30.988.245-46.477-.017-4.024-.068-4.559,1.392-4.521,4.872.169,15.658.053,31.319.089,46.979.008,3.478.265,6.884-4.824,6.811-4.737-.069-4.587-3.216-4.585-6.555.03-36.151.025-72.302-.015-108.453,0-3.539.248-6.262,4.922-6.154,4.43.1,4.529,2.781,4.515,6.049-.064,14.326.049,28.654-.089,42.98-.03,3.107.618,4.315,4.073,4.272,15.824-.195,31.65-.198,47.477-.008,3.453.039,4.144-1.265,4.119-4.336-.115-13.993-.053-27.987-.045-41.981,0-3.3-.72-6.9,4.579-6.97,5.161-.071,4.856,3.229,4.848,6.72-.043,17.992-.049,35.984-.019,53.977Z"/>
  <path class="cls-3" d="m853.305,440.069c1.821.247,4.223-.982,5.315,1.471,1.229,2.763-1.438,3.8-2.832,5.2-15.9,15.906-31.8,31.816-47.886,47.529-2.694,2.632-2.643,3.9.017,6.507,17.733,17.369,35.291,34.915,52.851,52.459,1.7,1.7,5.263,3.449,2.359,6.337-2.508,2.5-6.077,1.7-9.142.252-.825-.565-1.554-1.259-2.159-2.055-18.545-18.443-37.088-36.888-55.63-55.334-4.664-4.642-4.655-5.232.134-9.993,16.538-16.445,33.068-32.898,49.591-49.358,2.125-2.13,4.159-3.812,7.382-3.015Z"/>
  <path class="cls-3" d="m791.29,500.146c0,18.308-.044,36.617.039,54.924.016,3.537-.807,5.823-4.915,5.748-3.891-.072-4.536-2.35-4.531-5.612.049-36.616.046-73.232-.008-109.849-.006-3.534.711-5.772,4.907-5.681,3.949.085,4.554,2.278,4.542,5.547-.069,18.308-.033,36.615-.034,54.923Z"/>
  <path class="cls-2" d="m582.5,500.269c0-15.476.16-30.954-.106-46.424-.071-4.111,1.24-4.958,5.051-4.879,8.985.186,17.988-.074,26.787,2.155,13.724,3.477,19.869,12.179,18.167,25.466-.8,6.245-4.106,10.765-9.413,13.927-2.714,1.617-5.575,3-8.2,4.752-2.52,1.681-2.244,4.451.529,5.667,2.735,1.2,5.621,2.048,8.4,3.146,10.427,4.112,15.5,11.4,15.419,22.1-.076,10.737-5.243,17.77-15.79,21.758-9.268,3.5-18.926,3.235-28.574,3.222q-12.276-.017-12.276-12.451l.006-38.439Z"/>
  <path class="cls-2" d="m679.949,499.981c.117-10.141-.318-20.306,2.161-30.3,3.625-14.606,11.693-21.354,26.815-22.006,7.392-.32,14.662.152,21.078,4.546,8,5.48,10.817,13.849,11.827,22.75,2.033,17.907,2.583,35.917-.638,53.736-3.971,21.968-29.057,32.1-47.82,19.686-7.752-5.13-10.525-12.967-12.09-21.523-1.629-8.9-1.232-17.907-1.333-26.889Z"/>
</svg>