<?xml version="1.0" encoding="UTF-8"?>
<svg id="_레이어_1" data-name="레이어 1" xmlns="http://www.w3.org/2000/svg" viewBox="0 0 2000 3000">
  <defs>
    <style>
      .cls-1 {
        fill: #121212;
      }

      .cls-1, .cls-2 {
        stroke-width: 0px;
      }

      .cls-2 {
        fill: #444;
      }
    </style>
  </defs>
  <rect class="cls-1" width="2000" height="3000"/>
  <g id="_레이어_1-2" data-name="레이어 1">
    <path class="cls-2" d="m759.467,1659.878v166.044c0,4.8-.178,9.067-5.511,10.667-6.756,2.133-11.556-1.422-11.556-8.889-.178-14.756,0-29.689,0-44.444v-150.222c0-4.8-.889-10.311,5.511-11.378,6.044-1.067,11.378-.889,15.467,6.222,30.756,54.044,62.044,107.733,93.156,161.6,1.6,2.844,3.2,5.511,5.333,8.889,2.844-3.2,1.778-6.578,1.778-9.422v-156.444c0-6.044.178-11.378,8.533-11.378,8.178,0,8.711,4.8,8.711,11.2-.178,64.356,0,128.533,0,192.889,0,8.356-2.667,11.556-11.378,11.556-31.111-.356-62.222-.178-93.333,0-6.044,0-10.489-.889-10.667-8.356-.178-8,4.622-8.889,11.022-8.889,25.422.178,50.844,0,77.867,0-31.289-54.222-62.044-107.2-92.8-160.356l-2.133.711Z"/>
    <path class="cls-2" d="m1232.711,1722.633c26.667,19.022,35.556,39.644,28.978,66.844-6.044,25.067-23.822,37.867-47.644,43.556-25.6,6.044-51.911,3.022-77.867,3.556-4.8.178-6.578-3.2-6.756-7.644-.178-3.556,0-7.111,0-10.667v-185.6c0-11.022.356-11.556,11.733-11.378,21.867.356,43.733-1.778,65.422,3.911,34.667,9.067,51.733,36.089,43.911,69.511-2.489,10.311-6.756,17.245-17.778,27.911Zm-86.756,6.578v68.267q0,22.044,21.867,22.222c17.067,0,34.311.533,50.844-5.689,18.667-7.111,27.911-19.556,28.089-38.756.178-19.022-8.889-32-27.378-39.289-4.978-1.956-10.133-3.378-14.933-5.511-4.978-2.133-5.333-7.111-.889-10.133,4.622-3.022,9.778-5.511,14.578-8.533,9.422-5.689,15.289-13.689,16.711-24.711,3.022-23.644-7.822-39.111-32.356-45.333-15.644-3.911-31.644-3.556-47.644-3.911-6.756-.178-9.067,1.422-9.067,8.711.533,27.555.178,55.111.178,82.667h0Z"/>
    <path class="cls-2" d="m686.578,1703.078c-.711,22.578,1.422,48.889-2.844,75.2-8.711,52.978-59.733,78.4-107.556,53.333-21.333-11.2-28.8-31.111-32.889-52.978-1.778-10.133-2.667-20.622-2.667-30.933-.178-38.756,0-77.511-.178-116.444,0-7.467,2.844-10.311,10.133-9.6,6.578.533,6.933,4.978,6.933,10.133v114.667c0,10.311.889,20.8,2.667,30.933,6.222,37.156,29.333,48.889,64,44.8,26.133-3.022,38.756-19.911,42.489-46.4,5.867-43.022,1.067-86.222,3.2-129.244.356-6.756-1.6-8.533-8.356-8.356-28.444.356-56.889,0-85.333.178-6.4,0-11.2-.711-11.022-8.711.178-7.822,5.156-8,11.022-8,33.422.178,66.844.178,100.444,0,7.644,0,10.489,2.667,10.489,10.311-.889,22.4-.533,44.8-.533,71.111Z"/>
    <path class="cls-2" d="m949.511,1729.389c.178,18.311-.533,36.8,4.089,54.756,6.222,24.889,21.867,37.689,47.467,38.4,16.533.533,32.533-1.422,46.222-12.089,8.178-6.4,12.978-14.044,12.444-25.067-.533-11.2-.356-22.578,0-33.778.178-5.333-1.244-7.467-6.933-7.111-6.756.533-13.689,0-20.444.178-6.044.178-9.6-1.778-9.422-8.533.178-6.222,3.2-8.178,9.067-8.178,12.444.178,24.889.178,37.333,0,6.578-.178,9.067,2.489,8.889,9.067-.178,16-.356,32,0,48,.533,18.844-7.822,33.067-23.289,42.133-27.911,16-57.6,17.067-86.933,3.911-17.067-7.644-26.133-23.467-29.867-41.067-8.889-40.356-8.889-82.133.178-122.489,6.4-28.622,25.422-45.689,55.289-48.356,43.733-4.089,64.356,8.356,78.756,36.089,4.8,9.244,3.733,11.2-5.867,15.111-4.089,1.6-5.333.889-7.289-2.844-15.111-30.222-50.489-41.956-81.244-27.022-13.511,6.578-20.622,18.133-24.178,32.178-4.8,18.667-4.089,37.689-4.267,56.711Z"/>
    <path class="cls-2" d="m1448,1722.633c.178,27.022.533,47.467-5.156,67.378-9.067,31.644-27.911,47.111-60.444,49.067-9.244.711-18.311.178-27.378-1.6-21.867-4.622-36.444-17.422-44.267-38.222-4.444-11.733-6.933-24-7.467-36.444-1.422-28.444-2.667-56.889,2.311-84.978,7.467-42.667,33.244-63.111,80-58.667,35.911,3.378,55.111,24.356,60.622,63.111,2.134,15.645,1.778,31.289,1.778,40.356Zm-128.711,6.044c.178,16-.533,32,2.311,47.822,2.844,15.289,7.644,29.156,21.511,38.222,33.422,22.044,77.867,4.089,84.978-35.022,5.689-31.644,4.8-63.644,1.067-95.467-1.778-15.822-6.756-30.756-20.978-40.533-11.378-7.822-24.356-8.711-37.511-8-26.844,1.244-41.244,13.156-47.644,39.111-4.444,17.778-3.555,35.733-3.733,53.867Z"/>
    <path class="cls-2" d="m484.444,1729.389v96.889c0,6.044-.889,10.667-8.356,10.667s-8.533-4.267-8.533-10.489c.178-28.444-.178-56.889.178-85.333,0-6.578-1.6-8.533-8.356-8.533-27.556.356-55.111.356-82.667,0-7.111-.178-8.178,2.489-8,8.711.356,27.911.178,55.644.178,83.556,0,6.222.533,12.267-8.533,12.089-8.356-.178-8.178-5.689-8.178-11.733v-192.889c0-6.222.356-11.2,8.711-11.022,7.822.178,8,4.978,8,10.667-.178,25.422,0,51.022-.178,76.444,0,5.511,1.067,7.644,7.289,7.644,28.089-.356,56.178-.356,84.444,0,6.222,0,7.289-2.311,7.289-7.644-.178-24.889-.178-49.778,0-74.667,0-5.867-1.244-12.267,8.178-12.444,9.244-.178,8.711,5.689,8.533,11.911,0,32.178,0,64.178,0,96.178Z"/>
    <path class="cls-2" d="m1627.378,1622.189c3.2.356,7.467-1.778,9.422,2.667,2.133,4.978-2.489,6.756-4.978,9.244-28.267,28.267-56.533,56.533-85.156,84.444-4.8,4.622-4.622,6.933,0,11.556,31.467,30.933,62.756,62.044,94.044,93.333,3.022,3.022,9.422,6.044,4.267,11.2-4.444,4.444-10.844,3.022-16.178.533-1.422-1.067-2.844-2.311-3.911-3.733-32.889-32.711-65.956-65.6-98.844-98.311-8.356-8.178-8.356-9.244.178-17.778,29.333-29.156,58.844-58.489,88.178-87.822,3.733-3.733,7.289-6.756,12.978-5.333Z"/>
    <path class="cls-2" d="m1517.156,1728.856v97.6c0,6.222-1.422,10.311-8.711,10.133-6.933-.178-8-4.089-8-9.956v-195.2c0-6.222,1.244-10.311,8.711-10.133,6.933.178,8.178,4.089,8,9.778v97.778Z"/>
  </g>
  <path class="cls-2" d="m1220.647,1414.068l-345.601-345.601h294.54c13.975,0,25.978,5.016,36.011,15.049,10.033,10.033,15.049,22.037,15.049,36.011v294.54Zm-363.875,68.798c-13.975,0-25.889-4.927-35.743-14.781-9.854-9.854-14.781-21.768-14.781-35.743v-302.065l-24.187-24.187c-3.942-3.942-6.002-8.51-6.181-13.706-.179-5.196,1.881-9.764,6.181-13.706,3.942-4.3,8.421-6.45,13.437-6.45s9.675,2.15,13.975,6.45l401.499,401.499c3.942,3.942,6.002,8.331,6.181,13.168.179,4.837-1.881,9.406-6.181,13.706-3.942,3.942-8.51,5.912-13.706,5.912s-9.764-1.971-13.706-5.912l-24.724-24.187h-302.065Zm210.155-92.984l-48.911-48.911-23.112,28.487-45.686-53.748c-2.867-3.225-6.271-4.658-10.212-4.3s-6.987,2.15-9.137,5.375l-39.774,52.673c-3.225,4.658-3.762,9.227-1.612,13.706s5.912,6.719,11.287,6.719h167.157Z"/>
</svg>