<?xml version="1.0" encoding="UTF-8"?>
<svg id="_레이어_1" data-name="레이어 1" xmlns="http://www.w3.org/2000/svg" viewBox="0 0 1000 1000">
  <defs>
    <style>
      .cls-1 {
        fill: #121212;
      }

      .cls-1, .cls-2 {
        stroke-width: 0px;
      }

      .cls-2 {
        fill: #444;
      }
    </style>
  </defs>
  <rect class="cls-1" width="1000" height="1000"/>
  <g id="_레이어_1-2" data-name="레이어 1">
    <path class="cls-2" d="m379.733,579.939v83.022c0,2.4-.089,4.533-2.756,5.333-3.378,1.067-5.778-.711-5.778-4.444-.089-7.378,0-14.844,0-22.222v-75.111c0-2.4-.444-5.156,2.756-5.689,3.022-.533,5.689-.444,7.733,3.111,15.378,27.022,31.022,53.867,46.578,80.8.8,1.422,1.6,2.756,2.667,4.444,1.422-1.6.889-3.289.889-4.711v-78.222c0-3.022.089-5.689,4.267-5.689,4.089,0,4.356,2.4,4.356,5.6-.089,32.178,0,64.267,0,96.444,0,4.178-1.333,5.778-5.689,5.778-15.556-.178-31.111-.089-46.667,0-3.022,0-5.244-.444-5.333-4.178-.089-4,2.311-4.444,5.511-4.444,12.711.089,25.422,0,38.933,0-15.644-27.111-31.022-53.6-46.4-80.178l-1.067.356Z"/>
    <path class="cls-2" d="m616.356,611.317c13.333,9.511,17.778,19.822,14.489,33.422-3.022,12.533-11.911,18.933-23.822,21.778-12.8,3.022-25.956,1.511-38.933,1.778-2.4.089-3.289-1.6-3.378-3.822-.089-1.778,0-3.556,0-5.333v-92.8c0-5.511.178-5.778,5.867-5.689,10.933.178,21.867-.889,32.711,1.956,17.333,4.533,25.867,18.044,21.956,34.756-1.244,5.156-3.378,8.622-8.889,13.956Zm-43.378,3.289v34.133q0,11.022,10.933,11.111c8.533,0,17.156.267,25.422-2.844,9.333-3.556,13.956-9.778,14.044-19.378.089-9.511-4.444-16-13.689-19.644-2.489-.978-5.067-1.689-7.467-2.756-2.489-1.067-2.667-3.556-.444-5.067,2.311-1.511,4.889-2.756,7.289-4.267,4.711-2.844,7.644-6.844,8.356-12.356,1.511-11.822-3.911-19.556-16.178-22.667-7.822-1.956-15.822-1.778-23.822-1.956-3.378-.089-4.533.711-4.533,4.356.267,13.778.089,27.556.089,41.333h0Z"/>
    <path class="cls-2" d="m343.289,601.539c-.356,11.289.711,24.444-1.422,37.6-4.356,26.489-29.867,39.2-53.778,26.667-10.667-5.6-14.4-15.556-16.444-26.489-.889-5.067-1.333-10.311-1.333-15.467-.089-19.378,0-38.756-.089-58.222,0-3.733,1.422-5.156,5.067-4.8,3.289.267,3.467,2.489,3.467,5.067v57.333c0,5.156.444,10.4,1.333,15.467,3.111,18.578,14.667,24.444,32,22.4,13.067-1.511,19.378-9.956,21.244-23.2,2.933-21.511.533-43.111,1.6-64.622.178-3.378-.8-4.267-4.178-4.178-14.222.178-28.444,0-42.667.089-3.2,0-5.6-.356-5.511-4.356.089-3.911,2.578-4,5.511-4,16.711.089,33.422.089,50.222,0,3.822,0,5.244,1.333,5.244,5.156-.444,11.2-.267,22.4-.267,35.556Z"/>
    <path class="cls-2" d="m474.756,614.694c.089,9.156-.267,18.4,2.044,27.378,3.111,12.444,10.933,18.844,23.733,19.2,8.267.267,16.267-.711,23.111-6.044,4.089-3.2,6.489-7.022,6.222-12.533-.267-5.6-.178-11.289,0-16.889.089-2.667-.622-3.733-3.467-3.556-3.378.267-6.844,0-10.222.089-3.022.089-4.8-.889-4.711-4.267.089-3.111,1.6-4.089,4.533-4.089,6.222.089,12.444.089,18.667,0,3.289-.089,4.533,1.244,4.444,4.533-.089,8-.178,16,0,24,.267,9.422-3.911,16.533-11.644,21.067-13.956,8-28.8,8.533-43.467,1.956-8.533-3.822-13.067-11.733-14.933-20.533-4.444-20.178-4.444-41.067.089-61.244,3.2-14.311,12.711-22.844,27.644-24.178,21.867-2.044,32.178,4.178,39.378,18.044,2.4,4.622,1.867,5.6-2.933,7.556-2.044.8-2.667.444-3.644-1.422-7.556-15.111-25.244-20.978-40.622-13.511-6.756,3.289-10.311,9.067-12.089,16.089-2.4,9.333-2.044,18.844-2.133,28.356Z"/>
    <path class="cls-2" d="m724,611.317c.089,13.511.267,23.733-2.578,33.689-4.533,15.822-13.956,23.556-30.222,24.533-4.622.356-9.156.089-13.689-.8-10.933-2.311-18.222-8.711-22.133-19.111-2.222-5.867-3.467-12-3.733-18.222-.711-14.222-1.333-28.444,1.156-42.489,3.733-21.333,16.622-31.556,40-29.333,17.956,1.689,27.556,12.178,30.311,31.556,1.067,7.822.889,15.644.889,20.178Zm-64.356,3.022c.089,8-.267,16,1.156,23.911,1.422,7.644,3.822,14.578,10.756,19.111,16.711,11.022,38.933,2.044,42.489-17.511,2.844-15.822,2.4-31.822.533-47.733-.889-7.911-3.378-15.378-10.489-20.267-5.689-3.911-12.178-4.356-18.756-4-13.422.622-20.622,6.578-23.822,19.556-2.222,8.889-1.778,17.867-1.867,26.933Z"/>
    <path class="cls-2" d="m242.222,614.694v48.444c0,3.022-.444,5.333-4.178,5.333s-4.267-2.133-4.267-5.244c.089-14.222-.089-28.444.089-42.667,0-3.289-.8-4.267-4.178-4.267-13.778.178-27.556.178-41.333,0-3.556-.089-4.089,1.244-4,4.356.178,13.956.089,27.822.089,41.778,0,3.111.267,6.133-4.267,6.044-4.178-.089-4.089-2.844-4.089-5.867v-96.444c0-3.111.178-5.6,4.356-5.511,3.911.089,4,2.489,4,5.333-.089,12.711,0,25.511-.089,38.222,0,2.756.533,3.822,3.644,3.822,14.044-.178,28.089-.178,42.222,0,3.111,0,3.644-1.156,3.644-3.822-.089-12.444-.089-24.889,0-37.333,0-2.933-.622-6.133,4.089-6.222,4.622-.089,4.356,2.844,4.267,5.956,0,16.089,0,32.089,0,48.089Z"/>
    <path class="cls-2" d="m813.689,561.094c1.6.178,3.733-.889,4.711,1.333,1.067,2.489-1.244,3.378-2.489,4.622-14.133,14.133-28.267,28.267-42.578,42.222-2.4,2.311-2.311,3.467,0,5.778,15.733,15.467,31.378,31.022,47.022,46.667,1.511,1.511,4.711,3.022,2.133,5.6-2.222,2.222-5.422,1.511-8.089.267-.711-.533-1.422-1.156-1.956-1.867-16.444-16.356-32.978-32.8-49.422-49.156-4.178-4.089-4.178-4.622.089-8.889,14.667-14.578,29.422-29.244,44.089-43.911,1.867-1.867,3.644-3.378,6.489-2.667Z"/>
    <path class="cls-2" d="m758.578,614.428v48.8c0,3.111-.711,5.156-4.356,5.067-3.467-.089-4-2.044-4-4.978v-97.6c0-3.111.622-5.156,4.356-5.067,3.467.089,4.089,2.044,4,4.889v48.889Z"/>
  </g>
  <path class="cls-2" d="m610.323,457.034l-172.8-172.8h147.27c6.987,0,12.989,2.508,18.006,7.525,5.017,5.017,7.525,11.018,7.525,18.006v147.27Zm-181.938,34.399c-6.987,0-12.944-2.463-17.871-7.39-4.927-4.927-7.39-10.884-7.39-17.871v-151.032l-12.093-12.093c-1.971-1.971-3.001-4.255-3.091-6.853s.941-4.882,3.091-6.853c1.971-2.15,4.21-3.225,6.719-3.225s4.837,1.075,6.987,3.225l200.749,200.749c1.971,1.971,3.001,4.165,3.091,6.584s-.941,4.703-3.091,6.853c-1.971,1.971-4.255,2.956-6.853,2.956s-4.882-.985-6.853-2.956l-12.362-12.093h-151.032Zm105.078-46.492l-24.455-24.455-11.556,14.243-22.843-26.874c-1.433-1.612-3.135-2.329-5.106-2.15s-3.494,1.075-4.569,2.687l-19.887,26.337c-1.612,2.329-1.881,4.613-.806,6.853s2.956,3.359,5.644,3.359h83.578Z"/>
</svg>