<?xml version="1.0" encoding="UTF-8"?>
<svg id="_레이어_1" data-name="레이어 1" xmlns="http://www.w3.org/2000/svg" viewBox="0 0 2000 1125">
  <defs>
    <style>
      .cls-1 {
        fill: #121212;
      }

      .cls-1, .cls-2 {
        stroke-width: 0px;
      }

      .cls-2 {
        fill: #444;
      }
    </style>
  </defs>
  <rect class="cls-1" width="2000" height="1125"/>
  <g id="_레이어_1-2" data-name="레이어 1">
    <path class="cls-2" d="m864.7,652.431v93.4c0,2.7-.1,5.1-3.1,6-3.8,1.2-6.5-.8-6.5-5-.1-8.3,0-16.7,0-25v-84.5c0-2.7-.5-5.8,3.1-6.4,3.4-.6,6.4-.5,8.7,3.5,17.3,30.4,34.9,60.6,52.4,90.9.9,1.6,1.8,3.1,3,5,1.6-1.8,1-3.7,1-5.3v-88c0-3.4.1-6.4,4.8-6.4,4.6,0,4.9,2.7,4.9,6.3-.1,36.2,0,72.3,0,108.5,0,4.7-1.5,6.5-6.4,6.5-17.5-.2-35-.1-52.5,0-3.4,0-5.9-.5-6-4.7-.1-4.5,2.6-5,6.2-5,14.3.1,28.6,0,43.8,0-17.6-30.5-34.9-60.3-52.2-90.2l-1.2.4Z"/>
    <path class="cls-2" d="m1130.9,687.731c15,10.7,20,22.3,16.3,37.6-3.4,14.1-13.4,21.3-26.8,24.5-14.4,3.4-29.2,1.7-43.8,2-2.7.1-3.7-1.8-3.8-4.3-.1-2,0-4,0-6v-104.4c0-6.2.2-6.5,6.6-6.4,12.3.2,24.6-1,36.8,2.2,19.5,5.1,29.1,20.3,24.7,39.1-1.4,5.8-3.8,9.7-10,15.7Zm-48.8,3.7v38.4q0,12.4,12.3,12.5c9.6,0,19.3.3,28.6-3.2,10.5-4,15.7-11,15.8-21.8.1-10.7-5-18-15.4-22.1-2.8-1.1-5.7-1.9-8.4-3.1-2.8-1.2-3-4-.5-5.7,2.6-1.7,5.5-3.1,8.2-4.8,5.3-3.2,8.6-7.7,9.4-13.9,1.7-13.3-4.4-22-18.2-25.5-8.8-2.2-17.8-2-26.8-2.2-3.8-.1-5.1.8-5.1,4.9.3,15.5.1,31,.1,46.5h0Z"/>
    <path class="cls-2" d="m823.7,676.731c-.4,12.7.8,27.5-1.6,42.3-4.9,29.8-33.6,44.1-60.5,30-12-6.3-16.2-17.5-18.5-29.8-1-5.7-1.5-11.6-1.5-17.4-.1-21.8,0-43.6-.1-65.5,0-4.2,1.6-5.8,5.7-5.4,3.7.3,3.9,2.8,3.9,5.7v64.5c0,5.8.5,11.7,1.5,17.4,3.5,20.9,16.5,27.5,36,25.2,14.7-1.7,21.8-11.2,23.9-26.1,3.3-24.2.6-48.5,1.8-72.7.2-3.8-.9-4.8-4.7-4.7-16,.2-32,0-48,.1-3.6,0-6.3-.4-6.2-4.9.1-4.4,2.9-4.5,6.2-4.5,18.8.1,37.6.1,56.5,0,4.3,0,5.9,1.5,5.9,5.8-.5,12.6-.3,25.2-.3,40Z"/>
    <path class="cls-2" d="m971.6,691.531c.1,10.3-.3,20.7,2.3,30.8,3.5,14,12.3,21.2,26.7,21.6,9.3.3,18.3-.8,26-6.8,4.6-3.6,7.3-7.9,7-14.1-.3-6.3-.2-12.7,0-19,.1-3-.7-4.2-3.9-4-3.8.3-7.7,0-11.5.1-3.4.1-5.4-1-5.3-4.8.1-3.5,1.8-4.6,5.1-4.6,7,.1,14,.1,21,0,3.7-.1,5.1,1.4,5,5.1-.1,9-.2,18,0,27,.3,10.6-4.4,18.6-13.1,23.7-15.7,9-32.4,9.6-48.9,2.2-9.6-4.3-14.7-13.2-16.8-23.1-5-22.7-5-46.2.1-68.9,3.6-16.1,14.3-25.7,31.1-27.2,24.6-2.3,36.2,4.7,44.3,20.3,2.7,5.2,2.1,6.3-3.3,8.5-2.3.9-3,.5-4.1-1.6-8.5-17-28.4-23.6-45.7-15.2-7.6,3.7-11.6,10.2-13.6,18.1-2.7,10.5-2.3,21.2-2.4,31.9Z"/>
    <path class="cls-2" d="m1252,687.731c.1,15.2.3,26.7-2.9,37.9-5.1,17.8-15.7,26.5-34,27.6-5.2.4-10.3.1-15.4-.9-12.3-2.6-20.5-9.8-24.9-21.5-2.5-6.6-3.9-13.5-4.2-20.5-.8-16-1.5-32,1.3-47.8,4.2-24,18.7-35.5,45-33,20.2,1.9,31,13.7,34.1,35.5,1.2,8.8,1,17.6,1,22.7Zm-72.4,3.4c.1,9-.3,18,1.3,26.9,1.6,8.6,4.3,16.4,12.1,21.5,18.8,12.4,43.8,2.3,47.8-19.7,3.2-17.8,2.7-35.8.6-53.7-1-8.9-3.8-17.3-11.8-22.8-6.4-4.4-13.7-4.9-21.1-4.5-15.1.7-23.2,7.4-26.8,22-2.5,10-2,20.1-2.1,30.3Z"/>
    <path class="cls-2" d="m710,691.531v54.5c0,3.4-.5,6-4.7,6s-4.8-2.4-4.8-5.9c.1-16-.1-32,.1-48,0-3.7-.9-4.8-4.7-4.8-15.5.2-31,.2-46.5,0-4-.1-4.6,1.4-4.5,4.9.2,15.7.1,31.3.1,47,0,3.5.3,6.9-4.8,6.8-4.7-.1-4.6-3.2-4.6-6.6v-108.5c0-3.5.2-6.3,4.9-6.2,4.4.1,4.5,2.8,4.5,6-.1,14.3,0,28.7-.1,43,0,3.1.6,4.3,4.1,4.3,15.8-.2,31.6-.2,47.5,0,3.5,0,4.1-1.3,4.1-4.3-.1-14-.1-28,0-42,0-3.3-.7-6.9,4.6-7,5.2-.1,4.9,3.2,4.8,6.7,0,18.1,0,36.1,0,54.1Z"/>
    <path class="cls-2" d="m1352.9,631.231c1.8.2,4.2-1,5.3,1.5,1.2,2.8-1.4,3.8-2.8,5.2-15.9,15.9-31.8,31.8-47.9,47.5-2.7,2.6-2.6,3.9,0,6.5,17.7,17.4,35.3,34.9,52.9,52.5,1.7,1.7,5.3,3.4,2.4,6.3-2.5,2.5-6.1,1.7-9.1.3-.8-.6-1.6-1.3-2.2-2.1-18.5-18.4-37.1-36.9-55.6-55.3-4.7-4.6-4.7-5.2.1-10,16.5-16.4,33.1-32.9,49.6-49.4,2.1-2.1,4.1-3.8,7.3-3Z"/>
    <path class="cls-2" d="m1290.9,691.231v54.9c0,3.5-.8,5.8-4.9,5.7-3.9-.1-4.5-2.3-4.5-5.6v-109.8c0-3.5.7-5.8,4.9-5.7,3.9.1,4.6,2.3,4.5,5.5v55Z"/>
  </g>
  <path class="cls-2" d="m1124.114,514.163l-194.4-194.4h165.679c7.861,0,14.613,2.822,20.256,8.465,5.644,5.644,8.465,12.396,8.465,20.256v165.679Zm-204.68,38.699c-7.861,0-14.562-2.771-20.105-8.314-5.543-5.543-8.314-12.245-8.314-20.105v-169.911l-13.605-13.605c-2.217-2.217-3.376-4.787-3.477-7.71s1.058-5.492,3.477-7.71c2.217-2.419,4.737-3.628,7.558-3.628s5.442,1.209,7.861,3.628l225.843,225.843c2.217,2.217,3.376,4.686,3.477,7.407s-1.058,5.291-3.477,7.71c-2.217,2.217-4.787,3.326-7.71,3.326s-5.492-1.109-7.71-3.326l-13.907-13.605h-169.911Zm118.212-52.304l-27.512-27.512-13,16.024-25.698-30.233c-1.612-1.814-3.527-2.62-5.744-2.419s-3.93,1.209-5.14,3.023l-22.373,29.629c-1.814,2.62-2.116,5.19-.907,7.71s3.326,3.779,6.349,3.779h94.026Z"/>
</svg>